<?xml version="1.0" encoding="UTF-8" standalone="no"?>
<!DOCTYPE svg PUBLIC "-//W3C//DTD SVG 1.1//EN"
 "http://www.w3.org/Graphics/SVG/1.1/DTD/svg11.dtd">
<!-- Generated by graphviz version 5.0.0 (0)
 -->
<!-- Title: utils/read_args.h Pages: 1 -->
<svg width="498pt" height="146pt"
 viewBox="0.00 0.00 497.50 146.00" xmlns="http://www.w3.org/2000/svg" xmlns:xlink="http://www.w3.org/1999/xlink">
<g id="graph0" class="graph" transform="scale(1 1) rotate(0) translate(4 142)">
<title>utils/read_args.h</title>
<polygon fill="white" stroke="transparent" points="-4,4 -4,-142 493.5,-142 493.5,4 -4,4"/>
<!-- Node1 -->
<g id="node1" class="node">
<title>Node1</title>
<g id="a_node1"><a xlink:title=" ">
<polygon fill="#bfbfbf" stroke="black" points="178.5,-116.5 178.5,-137.5 292.5,-137.5 292.5,-116.5 178.5,-116.5"/>
<text text-anchor="middle" x="235.5" y="-123.9" font-family="Helvetica,sans-Serif" font-size="12.00">utils/read_args.h</text>
</a>
</g>
</g>
<!-- Node2 -->
<g id="node2" class="node">
<title>Node2</title>
<g id="a_node2"><a xlink:title=" ">
<polygon fill="white" stroke="#bfbfbf" points="0,-58.5 0,-79.5 69,-79.5 69,-58.5 0,-58.5"/>
<text text-anchor="middle" x="34.5" y="-65.9" font-family="Helvetica,sans-Serif" font-size="12.00">iostream</text>
</a>
</g>
</g>
<!-- Node1&#45;&gt;Node2 -->
<g id="edge1" class="edge">
<title>Node1&#45;&gt;Node2</title>
<path fill="none" stroke="midnightblue" d="M200.95,-116.37C167.09,-106.94 115.35,-92.53 78.56,-82.27"/>
<polygon fill="midnightblue" stroke="midnightblue" points="79.17,-78.81 68.6,-79.5 77.3,-85.56 79.17,-78.81"/>
</g>
<!-- Node3 -->
<g id="node3" class="node">
<title>Node3</title>
<g id="a_node3"><a xlink:title=" ">
<polygon fill="white" stroke="#bfbfbf" points="87.5,-58.5 87.5,-79.5 139.5,-79.5 139.5,-58.5 87.5,-58.5"/>
<text text-anchor="middle" x="113.5" y="-65.9" font-family="Helvetica,sans-Serif" font-size="12.00">cstdio</text>
</a>
</g>
</g>
<!-- Node1&#45;&gt;Node3 -->
<g id="edge2" class="edge">
<title>Node1&#45;&gt;Node3</title>
<path fill="none" stroke="midnightblue" d="M214.53,-116.37C194.94,-107.38 165.5,-93.87 143.45,-83.75"/>
<polygon fill="midnightblue" stroke="midnightblue" points="144.75,-80.49 134.2,-79.5 141.83,-86.85 144.75,-80.49"/>
</g>
<!-- Node4 -->
<g id="node4" class="node">
<title>Node4</title>
<g id="a_node4"><a xlink:title=" ">
<polygon fill="white" stroke="#bfbfbf" points="157.5,-58.5 157.5,-79.5 207.5,-79.5 207.5,-58.5 157.5,-58.5"/>
<text text-anchor="middle" x="182.5" y="-65.9" font-family="Helvetica,sans-Serif" font-size="12.00">string</text>
</a>
</g>
</g>
<!-- Node1&#45;&gt;Node4 -->
<g id="edge3" class="edge">
<title>Node1&#45;&gt;Node4</title>
<path fill="none" stroke="midnightblue" d="M226.27,-116.25C218.67,-108.22 207.71,-96.64 198.66,-87.08"/>
<polygon fill="midnightblue" stroke="midnightblue" points="201.04,-84.5 191.63,-79.64 195.96,-89.31 201.04,-84.5"/>
</g>
<!-- Node5 -->
<g id="node5" class="node">
<title>Node5</title>
<g id="a_node5"><a xlink:title=" ">
<polygon fill="white" stroke="#bfbfbf" points="208,-0.5 208,-21.5 263,-21.5 263,-0.5 208,-0.5"/>
<text text-anchor="middle" x="235.5" y="-7.9" font-family="Helvetica,sans-Serif" font-size="12.00">vector</text>
</a>
</g>
</g>
<!-- Node1&#45;&gt;Node5 -->
<g id="edge4" class="edge">
<title>Node1&#45;&gt;Node5</title>
<path fill="none" stroke="midnightblue" d="M235.5,-116.28C235.5,-97.6 235.5,-56.37 235.5,-31.72"/>
<polygon fill="midnightblue" stroke="midnightblue" points="239,-31.69 235.5,-21.69 232,-31.7 239,-31.69"/>
</g>
<!-- Node6 -->
<g id="node6" class="node">
<title>Node6</title>
<g id="a_node6"><a xlink:title=" ">
<polygon fill="white" stroke="#bfbfbf" points="263.5,-58.5 263.5,-79.5 313.5,-79.5 313.5,-58.5 263.5,-58.5"/>
<text text-anchor="middle" x="288.5" y="-65.9" font-family="Helvetica,sans-Serif" font-size="12.00">bitset</text>
</a>
</g>
</g>
<!-- Node1&#45;&gt;Node6 -->
<g id="edge5" class="edge">
<title>Node1&#45;&gt;Node6</title>
<path fill="none" stroke="midnightblue" d="M244.73,-116.25C252.33,-108.22 263.29,-96.64 272.34,-87.08"/>
<polygon fill="midnightblue" stroke="midnightblue" points="275.04,-89.31 279.37,-79.64 269.96,-84.5 275.04,-89.31"/>
</g>
<!-- Node7 -->
<g id="node7" class="node">
<title>Node7</title>
<g id="a_node7"><a xlink:href="../../d9/d49/types_8h.html" target="_top" xlink:title=" ">
<polygon fill="white" stroke="black" points="331.5,-58.5 331.5,-79.5 391.5,-79.5 391.5,-58.5 331.5,-58.5"/>
<text text-anchor="middle" x="361.5" y="-65.9" font-family="Helvetica,sans-Serif" font-size="12.00">types.h</text>
</a>
</g>
</g>
<!-- Node1&#45;&gt;Node7 -->
<g id="edge6" class="edge">
<title>Node1&#45;&gt;Node7</title>
<path fill="none" stroke="midnightblue" d="M257.16,-116.37C277.48,-107.34 308.06,-93.75 330.87,-83.61"/>
<polygon fill="midnightblue" stroke="midnightblue" points="332.41,-86.76 340.12,-79.5 329.56,-80.36 332.41,-86.76"/>
</g>
<!-- Node10 -->
<g id="node10" class="node">
<title>Node10</title>
<g id="a_node10"><a xlink:href="../../d0/d70/yal__log_8h.html" target="_top" xlink:title=" ">
<polygon fill="white" stroke="black" points="419,-58.5 419,-79.5 488,-79.5 488,-58.5 419,-58.5"/>
<text text-anchor="middle" x="453.5" y="-65.9" font-family="Helvetica,sans-Serif" font-size="12.00">yal_log.h</text>
</a>
</g>
</g>
<!-- Node1&#45;&gt;Node10 -->
<g id="edge10" class="edge">
<title>Node1&#45;&gt;Node10</title>
<path fill="none" stroke="midnightblue" d="M272.98,-116.37C310.68,-106.69 368.84,-91.75 408.9,-81.46"/>
<polygon fill="midnightblue" stroke="midnightblue" points="409.86,-84.82 418.67,-78.95 408.11,-78.05 409.86,-84.82"/>
</g>
<!-- Node7&#45;&gt;Node5 -->
<g id="edge7" class="edge">
<title>Node7&#45;&gt;Node5</title>
<path fill="none" stroke="midnightblue" d="M339.84,-58.37C319.52,-49.34 288.94,-35.75 266.13,-25.61"/>
<polygon fill="midnightblue" stroke="midnightblue" points="267.44,-22.36 256.88,-21.5 264.59,-28.76 267.44,-22.36"/>
</g>
<!-- Node8 -->
<g id="node8" class="node">
<title>Node8</title>
<g id="a_node8"><a xlink:title=" ">
<polygon fill="white" stroke="#bfbfbf" points="281,-0.5 281,-21.5 342,-21.5 342,-0.5 281,-0.5"/>
<text text-anchor="middle" x="311.5" y="-7.9" font-family="Helvetica,sans-Serif" font-size="12.00">cstddef</text>
</a>
</g>
</g>
<!-- Node7&#45;&gt;Node8 -->
<g id="edge8" class="edge">
<title>Node7&#45;&gt;Node8</title>
<path fill="none" stroke="midnightblue" d="M352.79,-58.25C345.69,-50.3 335.49,-38.87 327,-29.37"/>
<polygon fill="midnightblue" stroke="midnightblue" points="329.38,-26.77 320.11,-21.64 324.16,-31.43 329.38,-26.77"/>
</g>
<!-- Node9 -->
<g id="node9" class="node">
<title>Node9</title>
<g id="a_node9"><a xlink:title=" ">
<polygon fill="white" stroke="#bfbfbf" points="360,-0.5 360,-21.5 415,-21.5 415,-0.5 360,-0.5"/>
<text text-anchor="middle" x="387.5" y="-7.9" font-family="Helvetica,sans-Serif" font-size="12.00">climits</text>
</a>
</g>
</g>
<!-- Node7&#45;&gt;Node9 -->
<g id="edge9" class="edge">
<title>Node7&#45;&gt;Node9</title>
<path fill="none" stroke="midnightblue" d="M366.03,-58.25C369.53,-50.7 374.49,-40.02 378.76,-30.82"/>
<polygon fill="midnightblue" stroke="midnightblue" points="381.99,-32.19 383.02,-21.64 375.64,-29.24 381.99,-32.19"/>
</g>
<!-- Node11 -->
<g id="node11" class="node">
<title>Node11</title>
<g id="a_node11"><a xlink:title=" ">
<polygon fill="white" stroke="#bfbfbf" points="433.5,-0.5 433.5,-21.5 489.5,-21.5 489.5,-0.5 433.5,-0.5"/>
<text text-anchor="middle" x="461.5" y="-7.9" font-family="Helvetica,sans-Serif" font-size="12.00">stdio.h</text>
</a>
</g>
</g>
<!-- Node10&#45;&gt;Node11 -->
<g id="edge11" class="edge">
<title>Node10&#45;&gt;Node11</title>
<path fill="none" stroke="midnightblue" d="M454.89,-58.25C455.94,-50.94 457.4,-40.69 458.69,-31.7"/>
<polygon fill="midnightblue" stroke="midnightblue" points="462.17,-32.04 460.12,-21.64 455.24,-31.05 462.17,-32.04"/>
</g>
</g>
</svg>
