<?xml version="1.0" encoding="UTF-8" standalone="no"?>
<!DOCTYPE svg PUBLIC "-//W3C//DTD SVG 1.1//EN"
 "http://www.w3.org/Graphics/SVG/1.1/DTD/svg11.dtd">
<!-- Generated by graphviz version 5.0.0 (0)
 -->
<!-- Title: /home/guilhermemtr/Dropbox/workspace/ETH&#45;Zurich/Projects/Weighted&#45;Flooding&#45;Simulator/utils/read_args.h Pages: 1 -->
<svg width="498pt" height="172pt"
 viewBox="0.00 0.00 497.50 172.00" xmlns="http://www.w3.org/2000/svg" xmlns:xlink="http://www.w3.org/1999/xlink">
<g id="graph0" class="graph" transform="scale(1 1) rotate(0) translate(4 168)">
<title>/home/guilhermemtr/Dropbox/workspace/ETH&#45;Zurich/Projects/Weighted&#45;Flooding&#45;Simulator/utils/read_args.h</title>
<polygon fill="white" stroke="transparent" points="-4,4 -4,-168 493.5,-168 493.5,4 -4,4"/>
<!-- Node1 -->
<g id="node1" class="node">
<title>Node1</title>
<g id="a_node1"><a xlink:title=" ">
<polygon fill="#bfbfbf" stroke="black" points="104.5,-116.5 104.5,-163.5 366.5,-163.5 366.5,-116.5 104.5,-116.5"/>
<text text-anchor="start" x="112.5" y="-149.9" font-family="Helvetica,sans-Serif" font-size="12.00">/home/guilhermemtr/Dropbox/workspace</text>
<text text-anchor="start" x="112.5" y="-136.9" font-family="Helvetica,sans-Serif" font-size="12.00">/ETH&#45;Zurich/Projects/Weighted&#45;Flooding</text>
<text text-anchor="middle" x="235.5" y="-123.9" font-family="Helvetica,sans-Serif" font-size="12.00">&#45;Simulator/utils/read_args.h</text>
</a>
</g>
</g>
<!-- Node2 -->
<g id="node2" class="node">
<title>Node2</title>
<g id="a_node2"><a xlink:title=" ">
<polygon fill="white" stroke="#bfbfbf" points="0,-58.5 0,-79.5 69,-79.5 69,-58.5 0,-58.5"/>
<text text-anchor="middle" x="34.5" y="-65.9" font-family="Helvetica,sans-Serif" font-size="12.00">iostream</text>
</a>
</g>
</g>
<!-- Node1&#45;&gt;Node2 -->
<g id="edge1" class="edge">
<title>Node1&#45;&gt;Node2</title>
<path fill="none" stroke="midnightblue" d="M169.69,-116.41C137.26,-105.28 99.34,-92.26 71.93,-82.85"/>
<polygon fill="midnightblue" stroke="midnightblue" points="72.93,-79.49 62.34,-79.56 70.66,-86.11 72.93,-79.49"/>
</g>
<!-- Node3 -->
<g id="node3" class="node">
<title>Node3</title>
<g id="a_node3"><a xlink:title=" ">
<polygon fill="white" stroke="#bfbfbf" points="87.5,-58.5 87.5,-79.5 139.5,-79.5 139.5,-58.5 87.5,-58.5"/>
<text text-anchor="middle" x="113.5" y="-65.9" font-family="Helvetica,sans-Serif" font-size="12.00">cstdio</text>
</a>
</g>
</g>
<!-- Node1&#45;&gt;Node3 -->
<g id="edge2" class="edge">
<title>Node1&#45;&gt;Node3</title>
<path fill="none" stroke="midnightblue" d="M195.55,-116.41C177.08,-105.96 155.67,-93.85 139.35,-84.62"/>
<polygon fill="midnightblue" stroke="midnightblue" points="140.82,-81.43 130.4,-79.56 137.38,-87.53 140.82,-81.43"/>
</g>
<!-- Node4 -->
<g id="node4" class="node">
<title>Node4</title>
<g id="a_node4"><a xlink:title=" ">
<polygon fill="white" stroke="#bfbfbf" points="157.5,-58.5 157.5,-79.5 207.5,-79.5 207.5,-58.5 157.5,-58.5"/>
<text text-anchor="middle" x="182.5" y="-65.9" font-family="Helvetica,sans-Serif" font-size="12.00">string</text>
</a>
</g>
</g>
<!-- Node1&#45;&gt;Node4 -->
<g id="edge3" class="edge">
<title>Node1&#45;&gt;Node4</title>
<path fill="none" stroke="midnightblue" d="M218.15,-116.41C210.99,-107.09 202.82,-96.46 196.11,-87.72"/>
<polygon fill="midnightblue" stroke="midnightblue" points="198.84,-85.53 189.98,-79.74 193.29,-89.8 198.84,-85.53"/>
</g>
<!-- Node5 -->
<g id="node5" class="node">
<title>Node5</title>
<g id="a_node5"><a xlink:title=" ">
<polygon fill="white" stroke="#bfbfbf" points="208,-0.5 208,-21.5 263,-21.5 263,-0.5 208,-0.5"/>
<text text-anchor="middle" x="235.5" y="-7.9" font-family="Helvetica,sans-Serif" font-size="12.00">vector</text>
</a>
</g>
</g>
<!-- Node1&#45;&gt;Node5 -->
<g id="edge4" class="edge">
<title>Node1&#45;&gt;Node5</title>
<path fill="none" stroke="midnightblue" d="M235.5,-116.29C235.5,-92.25 235.5,-54.66 235.5,-31.79"/>
<polygon fill="midnightblue" stroke="midnightblue" points="239,-31.59 235.5,-21.59 232,-31.59 239,-31.59"/>
</g>
<!-- Node6 -->
<g id="node6" class="node">
<title>Node6</title>
<g id="a_node6"><a xlink:title=" ">
<polygon fill="white" stroke="#bfbfbf" points="263.5,-58.5 263.5,-79.5 313.5,-79.5 313.5,-58.5 263.5,-58.5"/>
<text text-anchor="middle" x="288.5" y="-65.9" font-family="Helvetica,sans-Serif" font-size="12.00">bitset</text>
</a>
</g>
</g>
<!-- Node1&#45;&gt;Node6 -->
<g id="edge5" class="edge">
<title>Node1&#45;&gt;Node6</title>
<path fill="none" stroke="midnightblue" d="M252.85,-116.41C260.01,-107.09 268.18,-96.46 274.89,-87.72"/>
<polygon fill="midnightblue" stroke="midnightblue" points="277.71,-89.8 281.02,-79.74 272.16,-85.53 277.71,-89.8"/>
</g>
<!-- Node7 -->
<g id="node7" class="node">
<title>Node7</title>
<g id="a_node7"><a xlink:href="../../d9/d49/types_8h.html" target="_top" xlink:title=" ">
<polygon fill="white" stroke="black" points="331.5,-58.5 331.5,-79.5 391.5,-79.5 391.5,-58.5 331.5,-58.5"/>
<text text-anchor="middle" x="361.5" y="-65.9" font-family="Helvetica,sans-Serif" font-size="12.00">types.h</text>
</a>
</g>
</g>
<!-- Node1&#45;&gt;Node7 -->
<g id="edge6" class="edge">
<title>Node1&#45;&gt;Node7</title>
<path fill="none" stroke="midnightblue" d="M276.76,-116.41C296.01,-105.86 318.36,-93.62 335.27,-84.36"/>
<polygon fill="midnightblue" stroke="midnightblue" points="336.96,-87.43 344.05,-79.56 333.6,-81.29 336.96,-87.43"/>
</g>
<!-- Node10 -->
<g id="node10" class="node">
<title>Node10</title>
<g id="a_node10"><a xlink:href="../../d0/d70/yal__log_8h.html" target="_top" xlink:title=" ">
<polygon fill="white" stroke="black" points="419,-58.5 419,-79.5 488,-79.5 488,-58.5 419,-58.5"/>
<text text-anchor="middle" x="453.5" y="-65.9" font-family="Helvetica,sans-Serif" font-size="12.00">yal_log.h</text>
</a>
</g>
</g>
<!-- Node1&#45;&gt;Node10 -->
<g id="edge10" class="edge">
<title>Node1&#45;&gt;Node10</title>
<path fill="none" stroke="midnightblue" d="M306.88,-116.41C342.36,-105.18 383.9,-92.03 413.68,-82.6"/>
<polygon fill="midnightblue" stroke="midnightblue" points="414.83,-85.91 423.31,-79.56 412.72,-79.24 414.83,-85.91"/>
</g>
<!-- Node7&#45;&gt;Node5 -->
<g id="edge7" class="edge">
<title>Node7&#45;&gt;Node5</title>
<path fill="none" stroke="midnightblue" d="M339.84,-58.37C319.52,-49.34 288.94,-35.75 266.13,-25.61"/>
<polygon fill="midnightblue" stroke="midnightblue" points="267.44,-22.36 256.88,-21.5 264.59,-28.76 267.44,-22.36"/>
</g>
<!-- Node8 -->
<g id="node8" class="node">
<title>Node8</title>
<g id="a_node8"><a xlink:title=" ">
<polygon fill="white" stroke="#bfbfbf" points="281,-0.5 281,-21.5 342,-21.5 342,-0.5 281,-0.5"/>
<text text-anchor="middle" x="311.5" y="-7.9" font-family="Helvetica,sans-Serif" font-size="12.00">cstddef</text>
</a>
</g>
</g>
<!-- Node7&#45;&gt;Node8 -->
<g id="edge8" class="edge">
<title>Node7&#45;&gt;Node8</title>
<path fill="none" stroke="midnightblue" d="M352.79,-58.25C345.69,-50.3 335.49,-38.87 327,-29.37"/>
<polygon fill="midnightblue" stroke="midnightblue" points="329.38,-26.77 320.11,-21.64 324.16,-31.43 329.38,-26.77"/>
</g>
<!-- Node9 -->
<g id="node9" class="node">
<title>Node9</title>
<g id="a_node9"><a xlink:title=" ">
<polygon fill="white" stroke="#bfbfbf" points="360,-0.5 360,-21.5 415,-21.5 415,-0.5 360,-0.5"/>
<text text-anchor="middle" x="387.5" y="-7.9" font-family="Helvetica,sans-Serif" font-size="12.00">climits</text>
</a>
</g>
</g>
<!-- Node7&#45;&gt;Node9 -->
<g id="edge9" class="edge">
<title>Node7&#45;&gt;Node9</title>
<path fill="none" stroke="midnightblue" d="M366.03,-58.25C369.53,-50.7 374.49,-40.02 378.76,-30.82"/>
<polygon fill="midnightblue" stroke="midnightblue" points="381.99,-32.19 383.02,-21.64 375.64,-29.24 381.99,-32.19"/>
</g>
<!-- Node11 -->
<g id="node11" class="node">
<title>Node11</title>
<g id="a_node11"><a xlink:title=" ">
<polygon fill="white" stroke="#bfbfbf" points="433.5,-0.5 433.5,-21.5 489.5,-21.5 489.5,-0.5 433.5,-0.5"/>
<text text-anchor="middle" x="461.5" y="-7.9" font-family="Helvetica,sans-Serif" font-size="12.00">stdio.h</text>
</a>
</g>
</g>
<!-- Node10&#45;&gt;Node11 -->
<g id="edge11" class="edge">
<title>Node10&#45;&gt;Node11</title>
<path fill="none" stroke="midnightblue" d="M454.89,-58.25C455.94,-50.94 457.4,-40.69 458.69,-31.7"/>
<polygon fill="midnightblue" stroke="midnightblue" points="462.17,-32.04 460.12,-21.64 455.24,-31.05 462.17,-32.04"/>
</g>
</g>
</svg>
