<?xml version="1.0" encoding="UTF-8" standalone="no"?>
<!DOCTYPE svg PUBLIC "-//W3C//DTD SVG 1.1//EN"
 "http://www.w3.org/Graphics/SVG/1.1/DTD/svg11.dtd">
<!-- Generated by graphviz version 5.0.0 (0)
 -->
<!-- Title: src/send_protocol_simulator.cc Pages: 1 -->
<svg width="1031pt" height="378pt"
 viewBox="0.00 0.00 1030.50 378.00" xmlns="http://www.w3.org/2000/svg" xmlns:xlink="http://www.w3.org/1999/xlink">
<g id="graph0" class="graph" transform="scale(1 1) rotate(0) translate(4 374)">
<title>src/send_protocol_simulator.cc</title>
<polygon fill="white" stroke="transparent" points="-4,4 -4,-374 1026.5,-374 1026.5,4 -4,4"/>
<!-- Node1 -->
<g id="node1" class="node">
<title>Node1</title>
<g id="a_node1"><a xlink:title=" ">
<polygon fill="#bfbfbf" stroke="black" points="116.5,-348.5 116.5,-369.5 315.5,-369.5 315.5,-348.5 116.5,-348.5"/>
<text text-anchor="middle" x="216" y="-355.9" font-family="Helvetica,sans-Serif" font-size="12.00">src/send_protocol_simulator.cc</text>
</a>
</g>
</g>
<!-- Node2 -->
<g id="node2" class="node">
<title>Node2</title>
<g id="a_node2"><a xlink:href="../../d5/d9b/send__protocol__simulator_8h.html" target="_top" xlink:title=" ">
<polygon fill="white" stroke="black" points="130,-290.5 130,-311.5 302,-311.5 302,-290.5 130,-290.5"/>
<text text-anchor="middle" x="216" y="-297.9" font-family="Helvetica,sans-Serif" font-size="12.00">send_protocol_simulator.h</text>
</a>
</g>
</g>
<!-- Node1&#45;&gt;Node2 -->
<g id="edge1" class="edge">
<title>Node1&#45;&gt;Node2</title>
<path fill="none" stroke="midnightblue" d="M216,-348.25C216,-340.94 216,-330.69 216,-321.7"/>
<polygon fill="midnightblue" stroke="midnightblue" points="219.5,-321.64 216,-311.64 212.5,-321.64 219.5,-321.64"/>
</g>
<!-- Node3 -->
<g id="node3" class="node">
<title>Node3</title>
<g id="a_node3"><a xlink:title=" ">
<polygon fill="white" stroke="#bfbfbf" points="118,-174.5 118,-195.5 172,-195.5 172,-174.5 118,-174.5"/>
<text text-anchor="middle" x="145" y="-181.9" font-family="Helvetica,sans-Serif" font-size="12.00">queue</text>
</a>
</g>
</g>
<!-- Node2&#45;&gt;Node3 -->
<g id="edge2" class="edge">
<title>Node2&#45;&gt;Node3</title>
<path fill="none" stroke="midnightblue" d="M201.1,-290.42C189.37,-282.13 173.47,-269.12 164,-254 154.86,-239.41 150.03,-220.36 147.53,-206.14"/>
<polygon fill="midnightblue" stroke="midnightblue" points="150.95,-205.31 145.99,-195.94 144.03,-206.35 150.95,-205.31"/>
</g>
<!-- Node4 -->
<g id="node4" class="node">
<title>Node4</title>
<g id="a_node4"><a xlink:title=" ">
<polygon fill="white" stroke="#bfbfbf" points="0,-116.5 0,-137.5 76,-137.5 76,-116.5 0,-116.5"/>
<text text-anchor="middle" x="38" y="-123.9" font-family="Helvetica,sans-Serif" font-size="12.00">functional</text>
</a>
</g>
</g>
<!-- Node2&#45;&gt;Node4 -->
<g id="edge3" class="edge">
<title>Node2&#45;&gt;Node4</title>
<path fill="none" stroke="midnightblue" d="M200.57,-290.49C186.93,-281.75 166.79,-268.07 151,-254 111.55,-218.85 71.78,-170.92 51.59,-145.5"/>
<polygon fill="midnightblue" stroke="midnightblue" points="54.23,-143.2 45.3,-137.51 48.73,-147.53 54.23,-143.2"/>
</g>
<!-- Node5 -->
<g id="node5" class="node">
<title>Node5</title>
<g id="a_node5"><a xlink:href="../../d9/d95/abstract__send__protocol__simulator_8h.html" target="_top" xlink:title=" ">
<polygon fill="white" stroke="black" points="173.5,-232.5 173.5,-253.5 400.5,-253.5 400.5,-232.5 173.5,-232.5"/>
<text text-anchor="middle" x="287" y="-239.9" font-family="Helvetica,sans-Serif" font-size="12.00">abstract_send_protocol_simulator.h</text>
</a>
</g>
</g>
<!-- Node2&#45;&gt;Node5 -->
<g id="edge4" class="edge">
<title>Node2&#45;&gt;Node5</title>
<path fill="none" stroke="midnightblue" d="M228.37,-290.25C238.96,-281.89 254.41,-269.71 266.79,-259.94"/>
<polygon fill="midnightblue" stroke="midnightblue" points="269.09,-262.58 274.77,-253.64 264.76,-257.09 269.09,-262.58"/>
</g>
<!-- Node21 -->
<g id="node21" class="node">
<title>Node21</title>
<g id="a_node21"><a xlink:href="../../d6/d74/random__utils_8h.html" target="_top" xlink:title=" ">
<polygon fill="white" stroke="black" points="614.5,-174.5 614.5,-195.5 719.5,-195.5 719.5,-174.5 614.5,-174.5"/>
<text text-anchor="middle" x="667" y="-181.9" font-family="Helvetica,sans-Serif" font-size="12.00">random_utils.h</text>
</a>
</g>
</g>
<!-- Node2&#45;&gt;Node21 -->
<g id="edge32" class="edge">
<title>Node2&#45;&gt;Node21</title>
<path fill="none" stroke="midnightblue" d="M257.48,-290.41C296.61,-281.3 356.88,-267.08 409,-254 483.97,-235.19 570.83,-212.01 622.22,-198.15"/>
<polygon fill="midnightblue" stroke="midnightblue" points="623.27,-201.49 632.01,-195.5 621.45,-194.73 623.27,-201.49"/>
</g>
<!-- Node5&#45;&gt;Node3 -->
<g id="edge5" class="edge">
<title>Node5&#45;&gt;Node3</title>
<path fill="none" stroke="midnightblue" d="M262.59,-232.37C239.39,-223.22 204.3,-209.38 178.49,-199.21"/>
<polygon fill="midnightblue" stroke="midnightblue" points="179.68,-195.91 169.09,-195.5 177.11,-202.43 179.68,-195.91"/>
</g>
<!-- Node5&#45;&gt;Node4 -->
<g id="edge6" class="edge">
<title>Node5&#45;&gt;Node4</title>
<path fill="none" stroke="midnightblue" d="M272.86,-232.28C248.56,-215.68 199.69,-182.82 181,-174 150.41,-159.57 114.1,-147.95 85.73,-140"/>
<polygon fill="midnightblue" stroke="midnightblue" points="86.62,-136.62 76.05,-137.34 84.77,-143.37 86.62,-136.62"/>
</g>
<!-- Node6 -->
<g id="node6" class="node">
<title>Node6</title>
<g id="a_node6"><a xlink:href="../../d8/de7/corruptions__stake__protocol__simulator_8h.html" target="_top" xlink:title=" ">
<polygon fill="white" stroke="black" points="228,-174.5 228,-195.5 476,-195.5 476,-174.5 228,-174.5"/>
<text text-anchor="middle" x="352" y="-181.9" font-family="Helvetica,sans-Serif" font-size="12.00">corruptions_stake_protocol_simulator.h</text>
</a>
</g>
</g>
<!-- Node5&#45;&gt;Node6 -->
<g id="edge7" class="edge">
<title>Node5&#45;&gt;Node6</title>
<path fill="none" stroke="midnightblue" d="M298.32,-232.25C307.92,-223.97 321.89,-211.94 333.17,-202.22"/>
<polygon fill="midnightblue" stroke="midnightblue" points="335.52,-204.82 340.81,-195.64 330.95,-199.52 335.52,-204.82"/>
</g>
<!-- Node5&#45;&gt;Node21 -->
<g id="edge24" class="edge">
<title>Node5&#45;&gt;Node21</title>
<path fill="none" stroke="midnightblue" d="M351.89,-232.44C422.51,-222.03 534.62,-205.51 604.34,-195.23"/>
<polygon fill="midnightblue" stroke="midnightblue" points="604.93,-198.69 614.31,-193.76 603.91,-191.76 604.93,-198.69"/>
</g>
<!-- Node6&#45;&gt;Node4 -->
<g id="edge20" class="edge">
<title>Node6&#45;&gt;Node4</title>
<path fill="none" stroke="midnightblue" d="M292.76,-174.47C240.79,-165.96 162.95,-152.84 86.05,-138.15"/>
<polygon fill="midnightblue" stroke="midnightblue" points="86.67,-134.71 76.19,-136.26 85.35,-141.58 86.67,-134.71"/>
</g>
<!-- Node7 -->
<g id="node7" class="node">
<title>Node7</title>
<g id="a_node7"><a xlink:href="../../dc/d8d/protocol__simulator_8h.html" target="_top" xlink:title=" ">
<polygon fill="white" stroke="black" points="235.5,-116.5 235.5,-137.5 372.5,-137.5 372.5,-116.5 235.5,-116.5"/>
<text text-anchor="middle" x="304" y="-123.9" font-family="Helvetica,sans-Serif" font-size="12.00">protocol_simulator.h</text>
</a>
</g>
</g>
<!-- Node6&#45;&gt;Node7 -->
<g id="edge8" class="edge">
<title>Node6&#45;&gt;Node7</title>
<path fill="none" stroke="midnightblue" d="M343.64,-174.25C336.82,-166.3 327.03,-154.87 318.88,-145.37"/>
<polygon fill="midnightblue" stroke="midnightblue" points="321.43,-142.96 312.27,-137.64 316.12,-147.51 321.43,-142.96"/>
</g>
<!-- Node14 -->
<g id="node14" class="node">
<title>Node14</title>
<g id="a_node14"><a xlink:href="../../d0/d70/yal__log_8h.html" target="_top" xlink:title=" ">
<polygon fill="white" stroke="black" points="380.5,-58.5 380.5,-79.5 449.5,-79.5 449.5,-58.5 380.5,-58.5"/>
<text text-anchor="middle" x="415" y="-65.9" font-family="Helvetica,sans-Serif" font-size="12.00">yal_log.h</text>
</a>
</g>
</g>
<!-- Node6&#45;&gt;Node14 -->
<g id="edge23" class="edge">
<title>Node6&#45;&gt;Node14</title>
<path fill="none" stroke="midnightblue" d="M358.51,-174.3C364.58,-165.11 373.77,-150.83 381,-138 390.09,-121.87 399.42,-103.01 406.01,-89.24"/>
<polygon fill="midnightblue" stroke="midnightblue" points="409.34,-90.38 410.45,-79.84 403.01,-87.38 409.34,-90.38"/>
</g>
<!-- Node16 -->
<g id="node16" class="node">
<title>Node16</title>
<g id="a_node16"><a xlink:title=" ">
<polygon fill="white" stroke="#bfbfbf" points="575,-116.5 575,-137.5 639,-137.5 639,-116.5 575,-116.5"/>
<text text-anchor="middle" x="607" y="-123.9" font-family="Helvetica,sans-Serif" font-size="12.00">random</text>
</a>
</g>
</g>
<!-- Node6&#45;&gt;Node16 -->
<g id="edge17" class="edge">
<title>Node6&#45;&gt;Node16</title>
<path fill="none" stroke="midnightblue" d="M397.35,-174.49C440.52,-165.38 507.26,-151.11 565,-138 565.1,-137.98 565.2,-137.95 565.3,-137.93"/>
<polygon fill="midnightblue" stroke="midnightblue" points="565.96,-141.37 574.91,-135.71 564.38,-134.55 565.96,-141.37"/>
</g>
<!-- Node17 -->
<g id="node17" class="node">
<title>Node17</title>
<g id="a_node17"><a xlink:title=" ">
<polygon fill="white" stroke="#bfbfbf" points="429,-116.5 429,-137.5 503,-137.5 503,-116.5 429,-116.5"/>
<text text-anchor="middle" x="466" y="-123.9" font-family="Helvetica,sans-Serif" font-size="12.00">algorithm</text>
</a>
</g>
</g>
<!-- Node6&#45;&gt;Node17 -->
<g id="edge18" class="edge">
<title>Node6&#45;&gt;Node17</title>
<path fill="none" stroke="midnightblue" d="M371.6,-174.37C389.73,-165.46 416.91,-152.11 437.46,-142.02"/>
<polygon fill="midnightblue" stroke="midnightblue" points="439.23,-145.05 446.66,-137.5 436.14,-138.77 439.23,-145.05"/>
</g>
<!-- Node18 -->
<g id="node18" class="node">
<title>Node18</title>
<g id="a_node18"><a xlink:title=" ">
<polygon fill="white" stroke="#bfbfbf" points="521.5,-116.5 521.5,-137.5 556.5,-137.5 556.5,-116.5 521.5,-116.5"/>
<text text-anchor="middle" x="539" y="-123.9" font-family="Helvetica,sans-Serif" font-size="12.00">set</text>
</a>
</g>
</g>
<!-- Node6&#45;&gt;Node18 -->
<g id="edge19" class="edge">
<title>Node6&#45;&gt;Node18</title>
<path fill="none" stroke="midnightblue" d="M388.14,-174.44C418.68,-166.18 463.77,-153.55 511.72,-137.92"/>
<polygon fill="midnightblue" stroke="midnightblue" points="512.94,-141.2 521.35,-134.75 510.75,-134.55 512.94,-141.2"/>
</g>
<!-- Node19 -->
<g id="node19" class="node">
<title>Node19</title>
<g id="a_node19"><a xlink:title=" ">
<polygon fill="white" stroke="#bfbfbf" points="94,-116.5 94,-137.5 144,-137.5 144,-116.5 94,-116.5"/>
<text text-anchor="middle" x="119" y="-123.9" font-family="Helvetica,sans-Serif" font-size="12.00">ctime</text>
</a>
</g>
</g>
<!-- Node6&#45;&gt;Node19 -->
<g id="edge21" class="edge">
<title>Node6&#45;&gt;Node19</title>
<path fill="none" stroke="midnightblue" d="M307.16,-174.43C268.84,-166.07 212.03,-153.25 153.92,-138.14"/>
<polygon fill="midnightblue" stroke="midnightblue" points="154.77,-134.74 144.2,-135.59 152.99,-141.51 154.77,-134.74"/>
</g>
<!-- Node20 -->
<g id="node20" class="node">
<title>Node20</title>
<g id="a_node20"><a xlink:title=" ">
<polygon fill="white" stroke="#bfbfbf" points="162.5,-116.5 162.5,-137.5 217.5,-137.5 217.5,-116.5 162.5,-116.5"/>
<text text-anchor="middle" x="190" y="-123.9" font-family="Helvetica,sans-Serif" font-size="12.00">cstdlib</text>
</a>
</g>
</g>
<!-- Node6&#45;&gt;Node20 -->
<g id="edge22" class="edge">
<title>Node6&#45;&gt;Node20</title>
<path fill="none" stroke="midnightblue" d="M324.15,-174.37C297.33,-165.1 256.59,-151.02 227.04,-140.8"/>
<polygon fill="midnightblue" stroke="midnightblue" points="228.08,-137.46 217.49,-137.5 225.79,-144.08 228.08,-137.46"/>
</g>
<!-- Node8 -->
<g id="node8" class="node">
<title>Node8</title>
<g id="a_node8"><a xlink:title=" ">
<polygon fill="white" stroke="#bfbfbf" points="148.5,-58.5 148.5,-79.5 197.5,-79.5 197.5,-58.5 148.5,-58.5"/>
<text text-anchor="middle" x="173" y="-65.9" font-family="Helvetica,sans-Serif" font-size="12.00">utility</text>
</a>
</g>
</g>
<!-- Node7&#45;&gt;Node8 -->
<g id="edge9" class="edge">
<title>Node7&#45;&gt;Node8</title>
<path fill="none" stroke="midnightblue" d="M281.48,-116.37C260.26,-107.3 228.27,-93.63 204.52,-83.48"/>
<polygon fill="midnightblue" stroke="midnightblue" points="205.8,-80.21 195.23,-79.5 203.05,-86.65 205.8,-80.21"/>
</g>
<!-- Node9 -->
<g id="node9" class="node">
<title>Node9</title>
<g id="a_node9"><a xlink:title=" ">
<polygon fill="white" stroke="#bfbfbf" points="215.5,-58.5 215.5,-79.5 262.5,-79.5 262.5,-58.5 215.5,-58.5"/>
<text text-anchor="middle" x="239" y="-65.9" font-family="Helvetica,sans-Serif" font-size="12.00">tuple</text>
</a>
</g>
</g>
<!-- Node7&#45;&gt;Node9 -->
<g id="edge10" class="edge">
<title>Node7&#45;&gt;Node9</title>
<path fill="none" stroke="midnightblue" d="M292.68,-116.25C283.08,-107.97 269.11,-95.94 257.83,-86.22"/>
<polygon fill="midnightblue" stroke="midnightblue" points="260.05,-83.52 250.19,-79.64 255.48,-88.82 260.05,-83.52"/>
</g>
<!-- Node10 -->
<g id="node10" class="node">
<title>Node10</title>
<g id="a_node10"><a xlink:href="../../d9/d49/types_8h.html" target="_top" xlink:title=" ">
<polygon fill="white" stroke="black" points="281,-58.5 281,-79.5 341,-79.5 341,-58.5 281,-58.5"/>
<text text-anchor="middle" x="311" y="-65.9" font-family="Helvetica,sans-Serif" font-size="12.00">types.h</text>
</a>
</g>
</g>
<!-- Node7&#45;&gt;Node10 -->
<g id="edge11" class="edge">
<title>Node7&#45;&gt;Node10</title>
<path fill="none" stroke="midnightblue" d="M305.22,-116.25C306.13,-108.94 307.41,-98.69 308.54,-89.7"/>
<polygon fill="midnightblue" stroke="midnightblue" points="312.03,-90 309.79,-79.64 305.08,-89.13 312.03,-90"/>
</g>
<!-- Node7&#45;&gt;Node14 -->
<g id="edge15" class="edge">
<title>Node7&#45;&gt;Node14</title>
<path fill="none" stroke="midnightblue" d="M323.08,-116.37C340.74,-107.46 367.21,-94.11 387.21,-84.02"/>
<polygon fill="midnightblue" stroke="midnightblue" points="388.82,-87.13 396.17,-79.5 385.66,-80.88 388.82,-87.13"/>
</g>
<!-- Node11 -->
<g id="node11" class="node">
<title>Node11</title>
<g id="a_node11"><a xlink:title=" ">
<polygon fill="white" stroke="#bfbfbf" points="328.5,-0.5 328.5,-21.5 383.5,-21.5 383.5,-0.5 328.5,-0.5"/>
<text text-anchor="middle" x="356" y="-7.9" font-family="Helvetica,sans-Serif" font-size="12.00">vector</text>
</a>
</g>
</g>
<!-- Node10&#45;&gt;Node11 -->
<g id="edge12" class="edge">
<title>Node10&#45;&gt;Node11</title>
<path fill="none" stroke="midnightblue" d="M318.84,-58.25C325.16,-50.38 334.22,-39.1 341.81,-29.65"/>
<polygon fill="midnightblue" stroke="midnightblue" points="344.72,-31.63 348.25,-21.64 339.26,-27.25 344.72,-31.63"/>
</g>
<!-- Node12 -->
<g id="node12" class="node">
<title>Node12</title>
<g id="a_node12"><a xlink:title=" ">
<polygon fill="white" stroke="#bfbfbf" points="176.5,-0.5 176.5,-21.5 237.5,-21.5 237.5,-0.5 176.5,-0.5"/>
<text text-anchor="middle" x="207" y="-7.9" font-family="Helvetica,sans-Serif" font-size="12.00">cstddef</text>
</a>
</g>
</g>
<!-- Node10&#45;&gt;Node12 -->
<g id="edge13" class="edge">
<title>Node10&#45;&gt;Node12</title>
<path fill="none" stroke="midnightblue" d="M292.88,-58.25C276.55,-49.45 252.33,-36.41 233.77,-26.41"/>
<polygon fill="midnightblue" stroke="midnightblue" points="235.37,-23.3 224.91,-21.64 232.05,-29.47 235.37,-23.3"/>
</g>
<!-- Node13 -->
<g id="node13" class="node">
<title>Node13</title>
<g id="a_node13"><a xlink:title=" ">
<polygon fill="white" stroke="#bfbfbf" points="255.5,-0.5 255.5,-21.5 310.5,-21.5 310.5,-0.5 255.5,-0.5"/>
<text text-anchor="middle" x="283" y="-7.9" font-family="Helvetica,sans-Serif" font-size="12.00">climits</text>
</a>
</g>
</g>
<!-- Node10&#45;&gt;Node13 -->
<g id="edge14" class="edge">
<title>Node10&#45;&gt;Node13</title>
<path fill="none" stroke="midnightblue" d="M306.12,-58.25C302.35,-50.7 297.01,-40.02 292.41,-30.82"/>
<polygon fill="midnightblue" stroke="midnightblue" points="295.42,-29.02 287.82,-21.64 289.16,-32.15 295.42,-29.02"/>
</g>
<!-- Node15 -->
<g id="node15" class="node">
<title>Node15</title>
<g id="a_node15"><a xlink:title=" ">
<polygon fill="white" stroke="#bfbfbf" points="402,-0.5 402,-21.5 458,-21.5 458,-0.5 402,-0.5"/>
<text text-anchor="middle" x="430" y="-7.9" font-family="Helvetica,sans-Serif" font-size="12.00">stdio.h</text>
</a>
</g>
</g>
<!-- Node14&#45;&gt;Node15 -->
<g id="edge16" class="edge">
<title>Node14&#45;&gt;Node15</title>
<path fill="none" stroke="midnightblue" d="M417.61,-58.25C419.59,-50.86 422.37,-40.47 424.8,-31.41"/>
<polygon fill="midnightblue" stroke="midnightblue" points="428.21,-32.21 427.42,-21.64 421.45,-30.4 428.21,-32.21"/>
</g>
<!-- Node21&#45;&gt;Node14 -->
<g id="edge28" class="edge">
<title>Node21&#45;&gt;Node14</title>
<path fill="none" stroke="midnightblue" d="M667.26,-174.04C667.07,-159.13 664.37,-131.15 648,-116 621.16,-91.17 519.68,-78.66 459.86,-73.33"/>
<polygon fill="midnightblue" stroke="midnightblue" points="459.83,-69.81 449.56,-72.44 459.23,-76.78 459.83,-69.81"/>
</g>
<!-- Node21&#45;&gt;Node16 -->
<g id="edge25" class="edge">
<title>Node21&#45;&gt;Node16</title>
<path fill="none" stroke="midnightblue" d="M656.55,-174.25C647.77,-166.05 635.04,-154.17 624.69,-144.51"/>
<polygon fill="midnightblue" stroke="midnightblue" points="627.03,-141.91 617.33,-137.64 622.25,-147.02 627.03,-141.91"/>
</g>
<!-- Node22 -->
<g id="node22" class="node">
<title>Node22</title>
<g id="a_node22"><a xlink:title=" ">
<polygon fill="white" stroke="#bfbfbf" points="695,-116.5 695,-137.5 797,-137.5 797,-116.5 695,-116.5"/>
<text text-anchor="middle" x="746" y="-123.9" font-family="Helvetica,sans-Serif" font-size="12.00">unordered_set</text>
</a>
</g>
</g>
<!-- Node21&#45;&gt;Node22 -->
<g id="edge26" class="edge">
<title>Node21&#45;&gt;Node22</title>
<path fill="none" stroke="midnightblue" d="M680.76,-174.25C692.66,-165.81 710.07,-153.47 723.91,-143.66"/>
<polygon fill="midnightblue" stroke="midnightblue" points="726.26,-146.28 732.4,-137.64 722.21,-140.57 726.26,-146.28"/>
</g>
<!-- Node23 -->
<g id="node23" class="node">
<title>Node23</title>
<g id="a_node23"><a xlink:title=" ">
<polygon fill="white" stroke="#bfbfbf" points="815,-116.5 815,-137.5 877,-137.5 877,-116.5 815,-116.5"/>
<text text-anchor="middle" x="846" y="-123.9" font-family="Helvetica,sans-Serif" font-size="12.00">string.h</text>
</a>
</g>
</g>
<!-- Node21&#45;&gt;Node23 -->
<g id="edge27" class="edge">
<title>Node21&#45;&gt;Node23</title>
<path fill="none" stroke="midnightblue" d="M697.77,-174.37C727.67,-165.02 773.21,-150.77 805.92,-140.54"/>
<polygon fill="midnightblue" stroke="midnightblue" points="807.13,-143.83 815.63,-137.5 805.04,-137.15 807.13,-143.83"/>
</g>
<!-- Node24 -->
<g id="node24" class="node">
<title>Node24</title>
<g id="a_node24"><a xlink:href="../../da/d10/scoped__lock_8h.html" target="_top" xlink:title=" ">
<polygon fill="white" stroke="black" points="895.5,-116.5 895.5,-137.5 996.5,-137.5 996.5,-116.5 895.5,-116.5"/>
<text text-anchor="middle" x="946" y="-123.9" font-family="Helvetica,sans-Serif" font-size="12.00">scoped_lock.h</text>
</a>
</g>
</g>
<!-- Node21&#45;&gt;Node24 -->
<g id="edge29" class="edge">
<title>Node21&#45;&gt;Node24</title>
<path fill="none" stroke="midnightblue" d="M714.64,-174.44C762.79,-164.77 837.23,-149.83 888.6,-139.52"/>
<polygon fill="midnightblue" stroke="midnightblue" points="889.44,-142.92 898.55,-137.52 888.06,-136.06 889.44,-142.92"/>
</g>
<!-- Node25 -->
<g id="node25" class="node">
<title>Node25</title>
<g id="a_node25"><a xlink:title=" ">
<polygon fill="white" stroke="#bfbfbf" points="865,-58.5 865,-79.5 939,-79.5 939,-58.5 865,-58.5"/>
<text text-anchor="middle" x="902" y="-65.9" font-family="Helvetica,sans-Serif" font-size="12.00">pthread.h</text>
</a>
</g>
</g>
<!-- Node24&#45;&gt;Node25 -->
<g id="edge30" class="edge">
<title>Node24&#45;&gt;Node25</title>
<path fill="none" stroke="midnightblue" d="M938.34,-116.25C932.15,-108.38 923.29,-97.1 915.87,-87.65"/>
<polygon fill="midnightblue" stroke="midnightblue" points="918.51,-85.34 909.58,-79.64 913,-89.67 918.51,-85.34"/>
</g>
<!-- Node26 -->
<g id="node26" class="node">
<title>Node26</title>
<g id="a_node26"><a xlink:title=" ">
<polygon fill="white" stroke="#bfbfbf" points="957.5,-58.5 957.5,-79.5 1022.5,-79.5 1022.5,-58.5 957.5,-58.5"/>
<text text-anchor="middle" x="990" y="-65.9" font-family="Helvetica,sans-Serif" font-size="12.00">assert.h</text>
</a>
</g>
</g>
<!-- Node24&#45;&gt;Node26 -->
<g id="edge31" class="edge">
<title>Node24&#45;&gt;Node26</title>
<path fill="none" stroke="midnightblue" d="M953.66,-116.25C959.85,-108.38 968.71,-97.1 976.13,-87.65"/>
<polygon fill="midnightblue" stroke="midnightblue" points="979,-89.67 982.42,-79.64 973.49,-85.34 979,-89.67"/>
</g>
</g>
</svg>
