<?xml version="1.0" encoding="UTF-8" standalone="no"?>
<!DOCTYPE svg PUBLIC "-//W3C//DTD SVG 1.1//EN"
 "http://www.w3.org/Graphics/SVG/1.1/DTD/svg11.dtd">
<!-- Generated by graphviz version 5.0.0 (0)
 -->
<!-- Title: include/protocol_simulator.h Pages: 1 -->
<svg width="1327pt" height="404pt"
 viewBox="0.00 0.00 1326.50 404.00" xmlns="http://www.w3.org/2000/svg" xmlns:xlink="http://www.w3.org/1999/xlink">
<g id="graph0" class="graph" transform="scale(1 1) rotate(0) translate(4 400)">
<title>include/protocol_simulator.h</title>
<polygon fill="white" stroke="transparent" points="-4,4 -4,-400 1322.5,-400 1322.5,4 -4,4"/>
<!-- Node1 -->
<g id="node1" class="node">
<title>Node1</title>
<g id="a_node1"><a xlink:title=" ">
<polygon fill="#bfbfbf" stroke="black" points="839.5,-374.5 839.5,-395.5 1023.5,-395.5 1023.5,-374.5 839.5,-374.5"/>
<text text-anchor="middle" x="931.5" y="-381.9" font-family="Helvetica,sans-Serif" font-size="12.00">include/protocol_simulator.h</text>
</a>
</g>
</g>
<!-- Node2 -->
<g id="node2" class="node">
<title>Node2</title>
<g id="a_node2"><a xlink:href="../../d8/de7/corruptions__stake__protocol__simulator_8h.html" target="_top" xlink:title=" ">
<polygon fill="white" stroke="black" points="714,-303.5 714,-337.5 937,-337.5 937,-303.5 714,-303.5"/>
<text text-anchor="start" x="722" y="-323.9" font-family="Helvetica,sans-Serif" font-size="12.00">include/corruptions_stake_protocol</text>
<text text-anchor="middle" x="825.5" y="-310.9" font-family="Helvetica,sans-Serif" font-size="12.00">_simulator.h</text>
</a>
</g>
</g>
<!-- Node1&#45;&gt;Node2 -->
<g id="edge1" class="edge">
<title>Node1&#45;&gt;Node2</title>
<path fill="none" stroke="midnightblue" d="M906.06,-369C889.94,-359.49 869.1,-347.21 852.66,-337.51"/>
<polygon fill="midnightblue" stroke="midnightblue" points="904.55,-372.17 914.94,-374.23 908.1,-366.14 904.55,-372.17"/>
</g>
<!-- Node23 -->
<g id="node23" class="node">
<title>Node23</title>
<g id="a_node23"><a xlink:href="../../d5/d6a/protocol__simulator_8cc.html" target="_top" xlink:title=" ">
<polygon fill="white" stroke="black" points="955.5,-310 955.5,-331 1119.5,-331 1119.5,-310 955.5,-310"/>
<text text-anchor="middle" x="1037.5" y="-317.4" font-family="Helvetica,sans-Serif" font-size="12.00">src/protocol_simulator.cc</text>
</a>
</g>
</g>
<!-- Node1&#45;&gt;Node23 -->
<g id="edge28" class="edge">
<title>Node1&#45;&gt;Node23</title>
<path fill="none" stroke="midnightblue" d="M956.91,-369.02C976.81,-357.28 1003.91,-341.31 1021.05,-331.2"/>
<polygon fill="midnightblue" stroke="midnightblue" points="954.9,-366.14 948.06,-374.23 958.45,-372.17 954.9,-366.14"/>
</g>
<!-- Node3 -->
<g id="node3" class="node">
<title>Node3</title>
<g id="a_node3"><a xlink:href="../../df/d52/abstract__receive__protocol__simulator_8h.html" target="_top" xlink:title=" ">
<polygon fill="white" stroke="black" points="342,-232.5 342,-266.5 559,-266.5 559,-232.5 342,-232.5"/>
<text text-anchor="start" x="350" y="-252.9" font-family="Helvetica,sans-Serif" font-size="12.00">include/abstract_receive_protocol</text>
<text text-anchor="middle" x="450.5" y="-239.9" font-family="Helvetica,sans-Serif" font-size="12.00">_simulator.h</text>
</a>
</g>
</g>
<!-- Node2&#45;&gt;Node3 -->
<g id="edge2" class="edge">
<title>Node2&#45;&gt;Node3</title>
<path fill="none" stroke="midnightblue" d="M728.45,-301.64C669.46,-290.79 594.75,-277.04 537.65,-266.54"/>
<polygon fill="midnightblue" stroke="midnightblue" points="728.06,-305.13 738.52,-303.5 729.32,-298.24 728.06,-305.13"/>
</g>
<!-- Node16 -->
<g id="node16" class="node">
<title>Node16</title>
<g id="a_node16"><a xlink:href="../../d9/d95/abstract__send__protocol__simulator_8h.html" target="_top" xlink:title=" ">
<polygon fill="white" stroke="black" points="688.5,-239 688.5,-260 962.5,-260 962.5,-239 688.5,-239"/>
<text text-anchor="middle" x="825.5" y="-246.4" font-family="Helvetica,sans-Serif" font-size="12.00">include/abstract_send_protocol_simulator.h</text>
</a>
</g>
</g>
<!-- Node2&#45;&gt;Node16 -->
<g id="edge17" class="edge">
<title>Node2&#45;&gt;Node16</title>
<path fill="none" stroke="midnightblue" d="M825.5,-293.39C825.5,-281.79 825.5,-268.84 825.5,-260.24"/>
<polygon fill="midnightblue" stroke="midnightblue" points="822,-293.5 825.5,-303.5 829,-293.5 822,-293.5"/>
</g>
<!-- Node22 -->
<g id="node22" class="node">
<title>Node22</title>
<g id="a_node22"><a xlink:href="../../de/de3/corruptions__stake__protocol__simulator_8cc.html" target="_top" xlink:title=" ">
<polygon fill="white" stroke="black" points="981,-239 981,-260 1256,-260 1256,-239 981,-239"/>
<text text-anchor="middle" x="1118.5" y="-246.4" font-family="Helvetica,sans-Serif" font-size="12.00">src/corruptions_stake_protocol_simulator.cc</text>
</a>
</g>
</g>
<!-- Node2&#45;&gt;Node22 -->
<g id="edge27" class="edge">
<title>Node2&#45;&gt;Node22</title>
<path fill="none" stroke="midnightblue" d="M903.37,-301.16C959.53,-287.94 1033.07,-270.62 1077.99,-260.04"/>
<polygon fill="midnightblue" stroke="midnightblue" points="902.39,-297.8 893.46,-303.5 903.99,-304.61 902.39,-297.8"/>
</g>
<!-- Node4 -->
<g id="node4" class="node">
<title>Node4</title>
<g id="a_node4"><a xlink:href="../../da/dd8/receiver__protocol__simulator_8h.html" target="_top" xlink:title=" ">
<polygon fill="white" stroke="black" points="331,-174.5 331,-195.5 570,-195.5 570,-174.5 331,-174.5"/>
<text text-anchor="middle" x="450.5" y="-181.9" font-family="Helvetica,sans-Serif" font-size="12.00">include/receiver_protocol_simulator.h</text>
</a>
</g>
</g>
<!-- Node3&#45;&gt;Node4 -->
<g id="edge3" class="edge">
<title>Node3&#45;&gt;Node4</title>
<path fill="none" stroke="midnightblue" d="M450.5,-222.28C450.5,-212.91 450.5,-202.92 450.5,-195.8"/>
<polygon fill="midnightblue" stroke="midnightblue" points="447,-222.4 450.5,-232.4 454,-222.4 447,-222.4"/>
</g>
<!-- Node15 -->
<g id="node15" class="node">
<title>Node15</title>
<g id="a_node15"><a xlink:href="../../de/d4e/abstract__receive__protocol__simulator_8cc.html" target="_top" xlink:title=" ">
<polygon fill="white" stroke="black" points="44,-174.5 44,-195.5 313,-195.5 313,-174.5 44,-174.5"/>
<text text-anchor="middle" x="178.5" y="-181.9" font-family="Helvetica,sans-Serif" font-size="12.00">src/abstract_receive_protocol_simulator.cc</text>
</a>
</g>
</g>
<!-- Node3&#45;&gt;Node15 -->
<g id="edge16" class="edge">
<title>Node3&#45;&gt;Node15</title>
<path fill="none" stroke="midnightblue" d="M370.78,-230.18C321.4,-218.84 260.01,-204.73 220.07,-195.55"/>
<polygon fill="midnightblue" stroke="midnightblue" points="370.28,-233.66 380.81,-232.49 371.84,-226.84 370.28,-233.66"/>
</g>
<!-- Node5 -->
<g id="node5" class="node">
<title>Node5</title>
<g id="a_node5"><a xlink:href="../../dc/da4/hybrid__k__out__protocol__simulator_8h.html" target="_top" xlink:title=" ">
<polygon fill="white" stroke="black" points="237.5,-116.5 237.5,-137.5 503.5,-137.5 503.5,-116.5 237.5,-116.5"/>
<text text-anchor="middle" x="370.5" y="-123.9" font-family="Helvetica,sans-Serif" font-size="12.00">include/hybrid_k_out_protocol_simulator.h</text>
</a>
</g>
</g>
<!-- Node4&#45;&gt;Node5 -->
<g id="edge4" class="edge">
<title>Node4&#45;&gt;Node5</title>
<path fill="none" stroke="midnightblue" d="M428.34,-168.49C414.23,-158.61 396.38,-146.12 384.28,-137.64"/>
<polygon fill="midnightblue" stroke="midnightblue" points="426.37,-171.38 436.57,-174.25 430.38,-165.64 426.37,-171.38"/>
</g>
<!-- Node7 -->
<g id="node7" class="node">
<title>Node7</title>
<g id="a_node7"><a xlink:href="../../d0/d8b/main__utils_8h.html" target="_top" xlink:title=" ">
<polygon fill="white" stroke="black" points="511.5,-58.5 511.5,-79.5 627.5,-79.5 627.5,-58.5 511.5,-58.5"/>
<text text-anchor="middle" x="569.5" y="-65.9" font-family="Helvetica,sans-Serif" font-size="12.00">utils/main_utils.h</text>
</a>
</g>
</g>
<!-- Node4&#45;&gt;Node7 -->
<g id="edge15" class="edge">
<title>Node4&#45;&gt;Node7</title>
<path fill="none" stroke="midnightblue" d="M473.57,-168.83C485.69,-160.39 500.49,-149.32 512.5,-138 532.46,-119.19 552.22,-93.67 562.41,-79.85"/>
<polygon fill="midnightblue" stroke="midnightblue" points="471.57,-165.95 465.29,-174.48 475.52,-171.74 471.57,-165.95"/>
</g>
<!-- Node12 -->
<g id="node12" class="node">
<title>Node12</title>
<g id="a_node12"><a xlink:href="../../de/dc2/hybrid__protocol__simulator_8h.html" target="_top" xlink:title=" ">
<polygon fill="white" stroke="black" points="598,-116.5 598,-137.5 825,-137.5 825,-116.5 598,-116.5"/>
<text text-anchor="middle" x="711.5" y="-123.9" font-family="Helvetica,sans-Serif" font-size="12.00">include/hybrid_protocol_simulator.h</text>
</a>
</g>
</g>
<!-- Node4&#45;&gt;Node12 -->
<g id="edge11" class="edge">
<title>Node4&#45;&gt;Node12</title>
<path fill="none" stroke="midnightblue" d="M505,-172.31C553.09,-161.99 622.32,-147.13 667.11,-137.52"/>
<polygon fill="midnightblue" stroke="midnightblue" points="504.11,-168.92 495.07,-174.44 505.58,-175.76 504.11,-168.92"/>
</g>
<!-- Node14 -->
<g id="node14" class="node">
<title>Node14</title>
<g id="a_node14"><a xlink:href="../../d8/db4/receiver__protocol__simulator_8cc.html" target="_top" xlink:title=" ">
<polygon fill="white" stroke="black" points="0,-116.5 0,-137.5 219,-137.5 219,-116.5 0,-116.5"/>
<text text-anchor="middle" x="109.5" y="-123.9" font-family="Helvetica,sans-Serif" font-size="12.00">src/receiver_protocol_simulator.cc</text>
</a>
</g>
</g>
<!-- Node4&#45;&gt;Node14 -->
<g id="edge14" class="edge">
<title>Node4&#45;&gt;Node14</title>
<path fill="none" stroke="midnightblue" d="M382.04,-172.76C319.12,-162.42 226.87,-147.27 167.49,-137.52"/>
<polygon fill="midnightblue" stroke="midnightblue" points="381.83,-176.27 392.27,-174.44 382.97,-169.36 381.83,-176.27"/>
</g>
<!-- Node6 -->
<g id="node6" class="node">
<title>Node6</title>
<g id="a_node6"><a xlink:href="../../da/d60/hybrid__k__out__protocol__simulator_8cc.html" target="_top" xlink:title=" ">
<polygon fill="white" stroke="black" points="247.5,-58.5 247.5,-79.5 493.5,-79.5 493.5,-58.5 247.5,-58.5"/>
<text text-anchor="middle" x="370.5" y="-65.9" font-family="Helvetica,sans-Serif" font-size="12.00">src/hybrid_k_out_protocol_simulator.cc</text>
</a>
</g>
</g>
<!-- Node5&#45;&gt;Node6 -->
<g id="edge5" class="edge">
<title>Node5&#45;&gt;Node6</title>
<path fill="none" stroke="midnightblue" d="M370.5,-106.16C370.5,-97.16 370.5,-86.92 370.5,-79.64"/>
<polygon fill="midnightblue" stroke="midnightblue" points="367,-106.25 370.5,-116.25 374,-106.25 367,-106.25"/>
</g>
<!-- Node5&#45;&gt;Node7 -->
<g id="edge6" class="edge">
<title>Node5&#45;&gt;Node7</title>
<path fill="none" stroke="midnightblue" d="M414.61,-113.59C451.17,-103.3 502.37,-88.89 535.74,-79.5"/>
<polygon fill="midnightblue" stroke="midnightblue" points="413.39,-110.3 404.71,-116.37 415.28,-117.03 413.39,-110.3"/>
</g>
<!-- Node8 -->
<g id="node8" class="node">
<title>Node8</title>
<g id="a_node8"><a xlink:href="../../d5/d37/benchmark_8cc.html" target="_top" xlink:title=" ">
<polygon fill="white" stroke="black" points="343.5,-0.5 343.5,-21.5 445.5,-21.5 445.5,-0.5 343.5,-0.5"/>
<text text-anchor="middle" x="394.5" y="-7.9" font-family="Helvetica,sans-Serif" font-size="12.00">benchmark.cc</text>
</a>
</g>
</g>
<!-- Node7&#45;&gt;Node8 -->
<g id="edge7" class="edge">
<title>Node7&#45;&gt;Node8</title>
<path fill="none" stroke="midnightblue" d="M529.89,-55.32C497.79,-45.05 453.28,-30.81 424.19,-21.5"/>
<polygon fill="midnightblue" stroke="midnightblue" points="528.83,-58.66 539.42,-58.37 530.96,-51.99 528.83,-58.66"/>
</g>
<!-- Node9 -->
<g id="node9" class="node">
<title>Node9</title>
<g id="a_node9"><a xlink:href="../../dd/d96/hybrid__main_8cc.html" target="_top" xlink:title=" ">
<polygon fill="white" stroke="black" points="464,-0.5 464,-21.5 571,-21.5 571,-0.5 464,-0.5"/>
<text text-anchor="middle" x="517.5" y="-7.9" font-family="Helvetica,sans-Serif" font-size="12.00">hybrid_main.cc</text>
</a>
</g>
</g>
<!-- Node7&#45;&gt;Node9 -->
<g id="edge8" class="edge">
<title>Node7&#45;&gt;Node9</title>
<path fill="none" stroke="midnightblue" d="M553.52,-50.79C544.62,-41.21 533.88,-29.64 526.45,-21.64"/>
<polygon fill="midnightblue" stroke="midnightblue" points="551.07,-53.3 560.44,-58.25 556.2,-48.54 551.07,-53.3"/>
</g>
<!-- Node10 -->
<g id="node10" class="node">
<title>Node10</title>
<g id="a_node10"><a xlink:href="../../d9/d0f/main_8cc.html" target="_top" xlink:title=" ">
<polygon fill="white" stroke="black" points="589.5,-0.5 589.5,-21.5 653.5,-21.5 653.5,-0.5 589.5,-0.5"/>
<text text-anchor="middle" x="621.5" y="-7.9" font-family="Helvetica,sans-Serif" font-size="12.00">main.cc</text>
</a>
</g>
</g>
<!-- Node7&#45;&gt;Node10 -->
<g id="edge9" class="edge">
<title>Node7&#45;&gt;Node10</title>
<path fill="none" stroke="midnightblue" d="M585.48,-50.79C594.38,-41.21 605.12,-29.64 612.55,-21.64"/>
<polygon fill="midnightblue" stroke="midnightblue" points="582.8,-48.54 578.56,-58.25 587.93,-53.3 582.8,-48.54"/>
</g>
<!-- Node11 -->
<g id="node11" class="node">
<title>Node11</title>
<g id="a_node11"><a xlink:href="../../df/d31/main__utils_8cc.html" target="_top" xlink:title=" ">
<polygon fill="white" stroke="black" points="671.5,-0.5 671.5,-21.5 793.5,-21.5 793.5,-0.5 671.5,-0.5"/>
<text text-anchor="middle" x="732.5" y="-7.9" font-family="Helvetica,sans-Serif" font-size="12.00">utils/main_utils.cc</text>
</a>
</g>
</g>
<!-- Node7&#45;&gt;Node11 -->
<g id="edge10" class="edge">
<title>Node7&#45;&gt;Node11</title>
<path fill="none" stroke="midnightblue" d="M607.17,-55.06C637,-44.81 677.99,-30.73 704.84,-21.5"/>
<polygon fill="midnightblue" stroke="midnightblue" points="605.84,-51.81 597.52,-58.37 608.12,-58.43 605.84,-51.81"/>
</g>
<!-- Node12&#45;&gt;Node7 -->
<g id="edge13" class="edge">
<title>Node12&#45;&gt;Node7</title>
<path fill="none" stroke="midnightblue" d="M677.66,-112.65C651.76,-102.44 616.69,-88.61 593.59,-79.5"/>
<polygon fill="midnightblue" stroke="midnightblue" points="676.5,-115.96 687.09,-116.37 679.07,-109.45 676.5,-115.96"/>
</g>
<!-- Node13 -->
<g id="node13" class="node">
<title>Node13</title>
<g id="a_node13"><a xlink:href="../../df/dcd/hybrid__protocol__simulator_8cc.html" target="_top" xlink:title=" ">
<polygon fill="white" stroke="black" points="645.5,-58.5 645.5,-79.5 853.5,-79.5 853.5,-58.5 645.5,-58.5"/>
<text text-anchor="middle" x="749.5" y="-65.9" font-family="Helvetica,sans-Serif" font-size="12.00">src/hybrid_protocol_simulator.cc</text>
</a>
</g>
</g>
<!-- Node12&#45;&gt;Node13 -->
<g id="edge12" class="edge">
<title>Node12&#45;&gt;Node13</title>
<path fill="none" stroke="midnightblue" d="M723.77,-107.92C730.15,-98.52 737.69,-87.4 742.96,-79.64"/>
<polygon fill="midnightblue" stroke="midnightblue" points="720.84,-106.01 718.12,-116.25 726.63,-109.94 720.84,-106.01"/>
</g>
<!-- Node17 -->
<g id="node17" class="node">
<title>Node17</title>
<g id="a_node17"><a xlink:href="../../d8/d9d/k__out__protocol__simulator_8h.html" target="_top" xlink:title=" ">
<polygon fill="white" stroke="black" points="588.5,-174.5 588.5,-195.5 810.5,-195.5 810.5,-174.5 588.5,-174.5"/>
<text text-anchor="middle" x="699.5" y="-181.9" font-family="Helvetica,sans-Serif" font-size="12.00">include/k_out_protocol_simulator.h</text>
</a>
</g>
</g>
<!-- Node16&#45;&gt;Node17 -->
<g id="edge18" class="edge">
<title>Node16&#45;&gt;Node17</title>
<path fill="none" stroke="midnightblue" d="M797.12,-234.42C773.2,-222.56 739.62,-205.9 718.73,-195.54"/>
<polygon fill="midnightblue" stroke="midnightblue" points="795.57,-237.56 806.09,-238.87 798.69,-231.29 795.57,-237.56"/>
</g>
<!-- Node19 -->
<g id="node19" class="node">
<title>Node19</title>
<g id="a_node19"><a xlink:href="../../d5/d9b/send__protocol__simulator_8h.html" target="_top" xlink:title=" ">
<polygon fill="white" stroke="black" points="828.5,-174.5 828.5,-195.5 1046.5,-195.5 1046.5,-174.5 828.5,-174.5"/>
<text text-anchor="middle" x="937.5" y="-181.9" font-family="Helvetica,sans-Serif" font-size="12.00">include/send_protocol_simulator.h</text>
</a>
</g>
</g>
<!-- Node16&#45;&gt;Node19 -->
<g id="edge22" class="edge">
<title>Node16&#45;&gt;Node19</title>
<path fill="none" stroke="midnightblue" d="M851.78,-233.84C872.85,-222.07 901.84,-205.9 920.12,-195.7"/>
<polygon fill="midnightblue" stroke="midnightblue" points="850.03,-230.81 843,-238.73 853.44,-236.92 850.03,-230.81"/>
</g>
<!-- Node21 -->
<g id="node21" class="node">
<title>Node21</title>
<g id="a_node21"><a xlink:href="../../db/d9d/abstract__send__protocol__simulator_8cc.html" target="_top" xlink:title=" ">
<polygon fill="white" stroke="black" points="1064.5,-174.5 1064.5,-195.5 1318.5,-195.5 1318.5,-174.5 1064.5,-174.5"/>
<text text-anchor="middle" x="1191.5" y="-181.9" font-family="Helvetica,sans-Serif" font-size="12.00">src/abstract_send_protocol_simulator.cc</text>
</a>
</g>
</g>
<!-- Node16&#45;&gt;Node21 -->
<g id="edge26" class="edge">
<title>Node16&#45;&gt;Node21</title>
<path fill="none" stroke="midnightblue" d="M891.49,-237.23C961.29,-225.31 1070.2,-206.71 1135.82,-195.51"/>
<polygon fill="midnightblue" stroke="midnightblue" points="890.75,-233.81 881.49,-238.94 891.93,-240.71 890.75,-233.81"/>
</g>
<!-- Node17&#45;&gt;Node5 -->
<g id="edge19" class="edge">
<title>Node17&#45;&gt;Node5</title>
<path fill="none" stroke="midnightblue" d="M633.45,-172.76C572.74,-162.42 483.74,-147.27 426.45,-137.52"/>
<polygon fill="midnightblue" stroke="midnightblue" points="632.87,-176.21 643.32,-174.44 634.05,-169.31 632.87,-176.21"/>
</g>
<!-- Node17&#45;&gt;Node7 -->
<g id="edge21" class="edge">
<title>Node17&#45;&gt;Node7</title>
<path fill="none" stroke="midnightblue" d="M643.4,-171.21C624,-164.27 603.62,-153.76 589.5,-138 574.56,-121.32 570.75,-93.99 569.8,-79.58"/>
<polygon fill="midnightblue" stroke="midnightblue" points="642.51,-174.6 653.11,-174.43 644.71,-167.96 642.51,-174.6"/>
</g>
<!-- Node18 -->
<g id="node18" class="node">
<title>Node18</title>
<g id="a_node18"><a xlink:href="../../dd/d36/k__out__protocol__simulator_8cc.html" target="_top" xlink:title=" ">
<polygon fill="white" stroke="black" points="843,-116.5 843,-137.5 1046,-137.5 1046,-116.5 843,-116.5"/>
<text text-anchor="middle" x="944.5" y="-123.9" font-family="Helvetica,sans-Serif" font-size="12.00">src/k_out_protocol_simulator.cc</text>
</a>
</g>
</g>
<!-- Node17&#45;&gt;Node18 -->
<g id="edge20" class="edge">
<title>Node17&#45;&gt;Node18</title>
<path fill="none" stroke="midnightblue" d="M751.22,-172.18C796.34,-161.86 860.97,-147.09 902.83,-137.52"/>
<polygon fill="midnightblue" stroke="midnightblue" points="750.31,-168.8 741.34,-174.44 751.87,-175.62 750.31,-168.8"/>
</g>
<!-- Node19&#45;&gt;Node7 -->
<g id="edge25" class="edge">
<title>Node19&#45;&gt;Node7</title>
<path fill="none" stroke="midnightblue" d="M994.55,-171.91C1035.41,-160.75 1079.33,-141.96 1055.5,-116 1023.9,-81.57 682.91,-85.45 636.5,-80 633.58,-79.66 630.59,-79.29 627.58,-78.89"/>
<polygon fill="midnightblue" stroke="midnightblue" points="993.62,-168.53 984.82,-174.44 995.38,-175.31 993.62,-168.53"/>
</g>
<!-- Node19&#45;&gt;Node12 -->
<g id="edge23" class="edge">
<title>Node19&#45;&gt;Node12</title>
<path fill="none" stroke="midnightblue" d="M889,-171.98C847.42,-161.68 788.31,-147.03 749.93,-137.52"/>
<polygon fill="midnightblue" stroke="midnightblue" points="888.36,-175.43 898.91,-174.44 890.04,-168.63 888.36,-175.43"/>
</g>
<!-- Node20 -->
<g id="node20" class="node">
<title>Node20</title>
<g id="a_node20"><a xlink:href="../../d9/d76/send__protocol__simulator_8cc.html" target="_top" xlink:title=" ">
<polygon fill="white" stroke="black" points="1103,-116.5 1103,-137.5 1302,-137.5 1302,-116.5 1103,-116.5"/>
<text text-anchor="middle" x="1202.5" y="-123.9" font-family="Helvetica,sans-Serif" font-size="12.00">src/send_protocol_simulator.cc</text>
</a>
</g>
</g>
<!-- Node19&#45;&gt;Node20 -->
<g id="edge24" class="edge">
<title>Node19&#45;&gt;Node20</title>
<path fill="none" stroke="midnightblue" d="M992.83,-172.31C1041.66,-161.99 1111.96,-147.13 1157.43,-137.52"/>
<polygon fill="midnightblue" stroke="midnightblue" points="991.81,-168.94 982.75,-174.44 993.26,-175.79 991.81,-168.94"/>
</g>
</g>
</svg>
