<?xml version="1.0" encoding="UTF-8" standalone="no"?>
<!DOCTYPE svg PUBLIC "-//W3C//DTD SVG 1.1//EN"
 "http://www.w3.org/Graphics/SVG/1.1/DTD/svg11.dtd">
<!-- Generated by graphviz version 5.0.0 (0)
 -->
<!-- Title: /home/guilhermemtr/Dropbox/workspace/ETH&#45;Zurich/Projects/Weighted&#45;Flooding&#45;Simulator/include/protocol_simulator.h Pages: 1 -->
<svg width="1640pt" height="586pt"
 viewBox="0.00 0.00 1640.00 586.00" xmlns="http://www.w3.org/2000/svg" xmlns:xlink="http://www.w3.org/1999/xlink">
<g id="graph0" class="graph" transform="scale(1 1) rotate(0) translate(4 582)">
<title>/home/guilhermemtr/Dropbox/workspace/ETH&#45;Zurich/Projects/Weighted&#45;Flooding&#45;Simulator/include/protocol_simulator.h</title>
<polygon fill="white" stroke="transparent" points="-4,4 -4,-582 1636,-582 1636,4 -4,4"/>
<!-- Node1 -->
<g id="node1" class="node">
<title>Node1</title>
<g id="a_node1"><a xlink:title=" ">
<polygon fill="#bfbfbf" stroke="black" points="1092.5,-530.5 1092.5,-577.5 1354.5,-577.5 1354.5,-530.5 1092.5,-530.5"/>
<text text-anchor="start" x="1100.5" y="-563.9" font-family="Helvetica,sans-Serif" font-size="12.00">/home/guilhermemtr/Dropbox/workspace</text>
<text text-anchor="start" x="1100.5" y="-550.9" font-family="Helvetica,sans-Serif" font-size="12.00">/ETH&#45;Zurich/Projects/Weighted&#45;Flooding</text>
<text text-anchor="middle" x="1223.5" y="-537.9" font-family="Helvetica,sans-Serif" font-size="12.00">&#45;Simulator/include/protocol_simulator.h</text>
</a>
</g>
</g>
<!-- Node2 -->
<g id="node2" class="node">
<title>Node2</title>
<g id="a_node2"><a xlink:href="../../d8/de7/corruptions__stake__protocol__simulator_8h.html" target="_top" xlink:title=" ">
<polygon fill="white" stroke="black" points="878,-446.5 878,-493.5 1239,-493.5 1239,-446.5 878,-446.5"/>
<text text-anchor="start" x="886" y="-479.9" font-family="Helvetica,sans-Serif" font-size="12.00">/home/guilhermemtr/Dropbox/workspace</text>
<text text-anchor="start" x="886" y="-466.9" font-family="Helvetica,sans-Serif" font-size="12.00">/ETH&#45;Zurich/Projects/Weighted&#45;Flooding</text>
<text text-anchor="middle" x="1058.5" y="-453.9" font-family="Helvetica,sans-Serif" font-size="12.00">&#45;Simulator/include/corruptions_stake_protocol_simulator.h</text>
</a>
</g>
</g>
<!-- Node1&#45;&gt;Node2 -->
<g id="edge1" class="edge">
<title>Node1&#45;&gt;Node2</title>
<path fill="none" stroke="midnightblue" d="M1168.83,-525.83C1147.77,-515.36 1123.97,-503.53 1103.88,-493.55"/>
<polygon fill="midnightblue" stroke="midnightblue" points="1167.46,-529.06 1177.98,-530.38 1170.58,-522.79 1167.46,-529.06"/>
</g>
<!-- Node23 -->
<g id="node23" class="node">
<title>Node23</title>
<g id="a_node23"><a xlink:href="../../d5/d6a/protocol__simulator_8cc.html" target="_top" xlink:title=" ">
<polygon fill="white" stroke="black" points="1257.5,-446.5 1257.5,-493.5 1519.5,-493.5 1519.5,-446.5 1257.5,-446.5"/>
<text text-anchor="start" x="1265.5" y="-479.9" font-family="Helvetica,sans-Serif" font-size="12.00">/home/guilhermemtr/Dropbox/workspace</text>
<text text-anchor="start" x="1265.5" y="-466.9" font-family="Helvetica,sans-Serif" font-size="12.00">/ETH&#45;Zurich/Projects/Weighted&#45;Flooding</text>
<text text-anchor="middle" x="1388.5" y="-453.9" font-family="Helvetica,sans-Serif" font-size="12.00">&#45;Simulator/src/protocol_simulator.cc</text>
</a>
</g>
</g>
<!-- Node1&#45;&gt;Node23 -->
<g id="edge28" class="edge">
<title>Node1&#45;&gt;Node23</title>
<path fill="none" stroke="midnightblue" d="M1278.17,-525.83C1299.23,-515.36 1323.03,-503.53 1343.12,-493.55"/>
<polygon fill="midnightblue" stroke="midnightblue" points="1276.42,-522.79 1269.02,-530.38 1279.54,-529.06 1276.42,-522.79"/>
</g>
<!-- Node3 -->
<g id="node3" class="node">
<title>Node3</title>
<g id="a_node3"><a xlink:href="../../df/d52/abstract__receive__protocol__simulator_8h.html" target="_top" xlink:title=" ">
<polygon fill="white" stroke="black" points="389,-356 389,-403 744,-403 744,-356 389,-356"/>
<text text-anchor="start" x="397" y="-389.4" font-family="Helvetica,sans-Serif" font-size="12.00">/home/guilhermemtr/Dropbox/workspace</text>
<text text-anchor="start" x="397" y="-376.4" font-family="Helvetica,sans-Serif" font-size="12.00">/ETH&#45;Zurich/Projects/Weighted&#45;Flooding</text>
<text text-anchor="middle" x="566.5" y="-363.4" font-family="Helvetica,sans-Serif" font-size="12.00">&#45;Simulator/include/abstract_receive_protocol_simulator.h</text>
</a>
</g>
</g>
<!-- Node2&#45;&gt;Node3 -->
<g id="edge2" class="edge">
<title>Node2&#45;&gt;Node3</title>
<path fill="none" stroke="midnightblue" d="M923.3,-444.68C851.02,-431.68 762.59,-415.77 691.85,-403.05"/>
<polygon fill="midnightblue" stroke="midnightblue" points="922.93,-448.17 933.39,-446.5 924.17,-441.28 922.93,-448.17"/>
</g>
<!-- Node16 -->
<g id="node16" class="node">
<title>Node16</title>
<g id="a_node16"><a xlink:href="../../d9/d95/abstract__send__protocol__simulator_8h.html" target="_top" xlink:title=" ">
<polygon fill="white" stroke="black" points="888.5,-356 888.5,-403 1228.5,-403 1228.5,-356 888.5,-356"/>
<text text-anchor="start" x="896.5" y="-389.4" font-family="Helvetica,sans-Serif" font-size="12.00">/home/guilhermemtr/Dropbox/workspace</text>
<text text-anchor="start" x="896.5" y="-376.4" font-family="Helvetica,sans-Serif" font-size="12.00">/ETH&#45;Zurich/Projects/Weighted&#45;Flooding</text>
<text text-anchor="middle" x="1058.5" y="-363.4" font-family="Helvetica,sans-Serif" font-size="12.00">&#45;Simulator/include/abstract_send_protocol_simulator.h</text>
</a>
</g>
</g>
<!-- Node2&#45;&gt;Node16 -->
<g id="edge17" class="edge">
<title>Node2&#45;&gt;Node16</title>
<path fill="none" stroke="midnightblue" d="M1058.5,-436.11C1058.5,-425.16 1058.5,-413.22 1058.5,-403.21"/>
<polygon fill="midnightblue" stroke="midnightblue" points="1055,-436.21 1058.5,-446.21 1062,-436.21 1055,-436.21"/>
</g>
<!-- Node22 -->
<g id="node22" class="node">
<title>Node22</title>
<g id="a_node22"><a xlink:href="../../de/de3/corruptions__stake__protocol__simulator_8cc.html" target="_top" xlink:title=" ">
<polygon fill="white" stroke="black" points="1247,-349.5 1247,-409.5 1510,-409.5 1510,-349.5 1247,-349.5"/>
<text text-anchor="start" x="1255" y="-395.9" font-family="Helvetica,sans-Serif" font-size="12.00">/home/guilhermemtr/Dropbox/workspace</text>
<text text-anchor="start" x="1255" y="-382.9" font-family="Helvetica,sans-Serif" font-size="12.00">/ETH&#45;Zurich/Projects/Weighted&#45;Flooding</text>
<text text-anchor="start" x="1255" y="-369.9" font-family="Helvetica,sans-Serif" font-size="12.00">&#45;Simulator/src/corruptions_stake_protocol</text>
<text text-anchor="middle" x="1378.5" y="-356.9" font-family="Helvetica,sans-Serif" font-size="12.00">_simulator.cc</text>
</a>
</g>
</g>
<!-- Node2&#45;&gt;Node22 -->
<g id="edge27" class="edge">
<title>Node2&#45;&gt;Node22</title>
<path fill="none" stroke="midnightblue" d="M1149.74,-443.77C1188.32,-433.1 1233.5,-420.6 1273.47,-409.55"/>
<polygon fill="midnightblue" stroke="midnightblue" points="1148.78,-440.4 1140.08,-446.44 1150.65,-447.15 1148.78,-440.4"/>
</g>
<!-- Node4 -->
<g id="node4" class="node">
<title>Node4</title>
<g id="a_node4"><a xlink:href="../../da/dd8/receiver__protocol__simulator_8h.html" target="_top" xlink:title=" ">
<polygon fill="white" stroke="black" points="414,-259 414,-306 719,-306 719,-259 414,-259"/>
<text text-anchor="start" x="422" y="-292.4" font-family="Helvetica,sans-Serif" font-size="12.00">/home/guilhermemtr/Dropbox/workspace</text>
<text text-anchor="start" x="422" y="-279.4" font-family="Helvetica,sans-Serif" font-size="12.00">/ETH&#45;Zurich/Projects/Weighted&#45;Flooding</text>
<text text-anchor="middle" x="566.5" y="-266.4" font-family="Helvetica,sans-Serif" font-size="12.00">&#45;Simulator/include/receiver_protocol_simulator.h</text>
</a>
</g>
</g>
<!-- Node3&#45;&gt;Node4 -->
<g id="edge3" class="edge">
<title>Node3&#45;&gt;Node4</title>
<path fill="none" stroke="midnightblue" d="M566.5,-345.94C566.5,-332.85 566.5,-318.07 566.5,-306.18"/>
<polygon fill="midnightblue" stroke="midnightblue" points="563,-345.99 566.5,-355.99 570,-345.99 563,-345.99"/>
</g>
<!-- Node15 -->
<g id="node15" class="node">
<title>Node15</title>
<g id="a_node15"><a xlink:href="../../de/d4e/abstract__receive__protocol__simulator_8cc.html" target="_top" xlink:title=" ">
<polygon fill="white" stroke="black" points="133.5,-252.5 133.5,-312.5 395.5,-312.5 395.5,-252.5 133.5,-252.5"/>
<text text-anchor="start" x="141.5" y="-298.9" font-family="Helvetica,sans-Serif" font-size="12.00">/home/guilhermemtr/Dropbox/workspace</text>
<text text-anchor="start" x="141.5" y="-285.9" font-family="Helvetica,sans-Serif" font-size="12.00">/ETH&#45;Zurich/Projects/Weighted&#45;Flooding</text>
<text text-anchor="start" x="141.5" y="-272.9" font-family="Helvetica,sans-Serif" font-size="12.00">&#45;Simulator/src/abstract_receive_protocol</text>
<text text-anchor="middle" x="264.5" y="-259.9" font-family="Helvetica,sans-Serif" font-size="12.00">_simulator.cc</text>
</a>
</g>
</g>
<!-- Node3&#45;&gt;Node15 -->
<g id="edge16" class="edge">
<title>Node3&#45;&gt;Node15</title>
<path fill="none" stroke="midnightblue" d="M485.3,-352.96C445.65,-340.48 397.77,-325.42 356.74,-312.52"/>
<polygon fill="midnightblue" stroke="midnightblue" points="484.34,-356.32 494.93,-355.99 486.44,-349.65 484.34,-356.32"/>
</g>
<!-- Node5 -->
<g id="node5" class="node">
<title>Node5</title>
<g id="a_node5"><a xlink:href="../../dc/da4/hybrid__k__out__protocol__simulator_8h.html" target="_top" xlink:title=" ">
<polygon fill="white" stroke="black" points="303.5,-168.5 303.5,-215.5 635.5,-215.5 635.5,-168.5 303.5,-168.5"/>
<text text-anchor="start" x="311.5" y="-201.9" font-family="Helvetica,sans-Serif" font-size="12.00">/home/guilhermemtr/Dropbox/workspace</text>
<text text-anchor="start" x="311.5" y="-188.9" font-family="Helvetica,sans-Serif" font-size="12.00">/ETH&#45;Zurich/Projects/Weighted&#45;Flooding</text>
<text text-anchor="middle" x="469.5" y="-175.9" font-family="Helvetica,sans-Serif" font-size="12.00">&#45;Simulator/include/hybrid_k_out_protocol_simulator.h</text>
</a>
</g>
</g>
<!-- Node4&#45;&gt;Node5 -->
<g id="edge4" class="edge">
<title>Node4&#45;&gt;Node5</title>
<path fill="none" stroke="midnightblue" d="M534.31,-252.13C521.24,-240.21 506.38,-226.64 494.18,-215.52"/>
<polygon fill="midnightblue" stroke="midnightblue" points="532.03,-254.78 541.77,-258.94 536.74,-249.61 532.03,-254.78"/>
</g>
<!-- Node7 -->
<g id="node7" class="node">
<title>Node7</title>
<g id="a_node7"><a xlink:href="../../d0/d8b/main__utils_8h.html" target="_top" xlink:title=" ">
<polygon fill="white" stroke="black" points="570.5,-84.5 570.5,-131.5 832.5,-131.5 832.5,-84.5 570.5,-84.5"/>
<text text-anchor="start" x="578.5" y="-117.9" font-family="Helvetica,sans-Serif" font-size="12.00">/home/guilhermemtr/Dropbox/workspace</text>
<text text-anchor="start" x="578.5" y="-104.9" font-family="Helvetica,sans-Serif" font-size="12.00">/ETH&#45;Zurich/Projects/Weighted&#45;Flooding</text>
<text text-anchor="middle" x="701.5" y="-91.9" font-family="Helvetica,sans-Serif" font-size="12.00">&#45;Simulator/utils/main_utils.h</text>
</a>
</g>
</g>
<!-- Node4&#45;&gt;Node7 -->
<g id="edge15" class="edge">
<title>Node4&#45;&gt;Node7</title>
<path fill="none" stroke="midnightblue" d="M606.94,-252.47C619.92,-241.93 633.72,-229.31 644.5,-216 665.7,-189.83 682.66,-154.58 692.41,-131.82"/>
<polygon fill="midnightblue" stroke="midnightblue" points="604.67,-249.81 599,-258.76 609.01,-255.3 604.67,-249.81"/>
</g>
<!-- Node12 -->
<g id="node12" class="node">
<title>Node12</title>
<g id="a_node12"><a xlink:href="../../de/dc2/hybrid__protocol__simulator_8h.html" target="_top" xlink:title=" ">
<polygon fill="white" stroke="black" points="730,-168.5 730,-215.5 1023,-215.5 1023,-168.5 730,-168.5"/>
<text text-anchor="start" x="738" y="-201.9" font-family="Helvetica,sans-Serif" font-size="12.00">/home/guilhermemtr/Dropbox/workspace</text>
<text text-anchor="start" x="738" y="-188.9" font-family="Helvetica,sans-Serif" font-size="12.00">/ETH&#45;Zurich/Projects/Weighted&#45;Flooding</text>
<text text-anchor="middle" x="876.5" y="-175.9" font-family="Helvetica,sans-Serif" font-size="12.00">&#45;Simulator/include/hybrid_protocol_simulator.h</text>
</a>
</g>
</g>
<!-- Node4&#45;&gt;Node12 -->
<g id="edge11" class="edge">
<title>Node4&#45;&gt;Node12</title>
<path fill="none" stroke="midnightblue" d="M655.26,-256.16C700.15,-243.34 754.19,-227.92 797.62,-215.52"/>
<polygon fill="midnightblue" stroke="midnightblue" points="654.18,-252.83 645.53,-258.94 656.1,-259.56 654.18,-252.83"/>
</g>
<!-- Node14 -->
<g id="node14" class="node">
<title>Node14</title>
<g id="a_node14"><a xlink:href="../../d8/db4/receiver__protocol__simulator_8cc.html" target="_top" xlink:title=" ">
<polygon fill="white" stroke="black" points="0,-168.5 0,-215.5 285,-215.5 285,-168.5 0,-168.5"/>
<text text-anchor="start" x="8" y="-201.9" font-family="Helvetica,sans-Serif" font-size="12.00">/home/guilhermemtr/Dropbox/workspace</text>
<text text-anchor="start" x="8" y="-188.9" font-family="Helvetica,sans-Serif" font-size="12.00">/ETH&#45;Zurich/Projects/Weighted&#45;Flooding</text>
<text text-anchor="middle" x="142.5" y="-175.9" font-family="Helvetica,sans-Serif" font-size="12.00">&#45;Simulator/src/receiver_protocol_simulator.cc</text>
</a>
</g>
</g>
<!-- Node4&#45;&gt;Node14 -->
<g id="edge14" class="edge">
<title>Node4&#45;&gt;Node14</title>
<path fill="none" stroke="midnightblue" d="M448.84,-256.94C386.76,-243.98 311.11,-228.19 250.53,-215.55"/>
<polygon fill="midnightblue" stroke="midnightblue" points="448.18,-260.38 458.68,-259 449.61,-253.53 448.18,-260.38"/>
</g>
<!-- Node6 -->
<g id="node6" class="node">
<title>Node6</title>
<g id="a_node6"><a xlink:href="../../da/d60/hybrid__k__out__protocol__simulator_8cc.html" target="_top" xlink:title=" ">
<polygon fill="white" stroke="black" points="240.5,-84.5 240.5,-131.5 552.5,-131.5 552.5,-84.5 240.5,-84.5"/>
<text text-anchor="start" x="248.5" y="-117.9" font-family="Helvetica,sans-Serif" font-size="12.00">/home/guilhermemtr/Dropbox/workspace</text>
<text text-anchor="start" x="248.5" y="-104.9" font-family="Helvetica,sans-Serif" font-size="12.00">/ETH&#45;Zurich/Projects/Weighted&#45;Flooding</text>
<text text-anchor="middle" x="396.5" y="-91.9" font-family="Helvetica,sans-Serif" font-size="12.00">&#45;Simulator/src/hybrid_k_out_protocol_simulator.cc</text>
</a>
</g>
</g>
<!-- Node5&#45;&gt;Node6 -->
<g id="edge5" class="edge">
<title>Node5&#45;&gt;Node6</title>
<path fill="none" stroke="midnightblue" d="M442.27,-160.41C433.8,-150.9 424.62,-140.59 416.73,-131.72"/>
<polygon fill="midnightblue" stroke="midnightblue" points="439.9,-163.02 449.17,-168.16 445.13,-158.36 439.9,-163.02"/>
</g>
<!-- Node5&#45;&gt;Node7 -->
<g id="edge6" class="edge">
<title>Node5&#45;&gt;Node7</title>
<path fill="none" stroke="midnightblue" d="M542.9,-165.06C573.29,-154.32 608.21,-141.97 637.54,-131.61"/>
<polygon fill="midnightblue" stroke="midnightblue" points="541.46,-161.85 533.2,-168.48 543.8,-168.45 541.46,-161.85"/>
</g>
<!-- Node8 -->
<g id="node8" class="node">
<title>Node8</title>
<g id="a_node8"><a xlink:href="../../d5/d37/benchmark_8cc.html" target="_top" xlink:title=" ">
<polygon fill="white" stroke="black" points="150.5,-0.5 150.5,-47.5 412.5,-47.5 412.5,-0.5 150.5,-0.5"/>
<text text-anchor="start" x="158.5" y="-33.9" font-family="Helvetica,sans-Serif" font-size="12.00">/home/guilhermemtr/Dropbox/workspace</text>
<text text-anchor="start" x="158.5" y="-20.9" font-family="Helvetica,sans-Serif" font-size="12.00">/ETH&#45;Zurich/Projects/Weighted&#45;Flooding</text>
<text text-anchor="middle" x="281.5" y="-7.9" font-family="Helvetica,sans-Serif" font-size="12.00">&#45;Simulator/benchmark.cc</text>
</a>
</g>
</g>
<!-- Node7&#45;&gt;Node8 -->
<g id="edge7" class="edge">
<title>Node7&#45;&gt;Node8</title>
<path fill="none" stroke="midnightblue" d="M576.05,-82.51C519.23,-71.41 452.5,-58.39 396.93,-47.54"/>
<polygon fill="midnightblue" stroke="midnightblue" points="575.69,-86 586.18,-84.48 577.03,-79.13 575.69,-86"/>
</g>
<!-- Node9 -->
<g id="node9" class="node">
<title>Node9</title>
<g id="a_node9"><a xlink:href="../../dd/d96/hybrid__main_8cc.html" target="_top" xlink:title=" ">
<polygon fill="white" stroke="black" points="430.5,-0.5 430.5,-47.5 692.5,-47.5 692.5,-0.5 430.5,-0.5"/>
<text text-anchor="start" x="438.5" y="-33.9" font-family="Helvetica,sans-Serif" font-size="12.00">/home/guilhermemtr/Dropbox/workspace</text>
<text text-anchor="start" x="438.5" y="-20.9" font-family="Helvetica,sans-Serif" font-size="12.00">/ETH&#45;Zurich/Projects/Weighted&#45;Flooding</text>
<text text-anchor="middle" x="561.5" y="-7.9" font-family="Helvetica,sans-Serif" font-size="12.00">&#45;Simulator/hybrid_main.cc</text>
</a>
</g>
</g>
<!-- Node7&#45;&gt;Node9 -->
<g id="edge8" class="edge">
<title>Node7&#45;&gt;Node9</title>
<path fill="none" stroke="midnightblue" d="M653.91,-79.12C636.34,-68.83 616.66,-57.31 600,-47.55"/>
<polygon fill="midnightblue" stroke="midnightblue" points="652.48,-82.34 662.87,-84.38 656.01,-76.3 652.48,-82.34"/>
</g>
<!-- Node10 -->
<g id="node10" class="node">
<title>Node10</title>
<g id="a_node10"><a xlink:href="../../d9/d0f/main_8cc.html" target="_top" xlink:title=" ">
<polygon fill="white" stroke="black" points="710.5,-0.5 710.5,-47.5 972.5,-47.5 972.5,-0.5 710.5,-0.5"/>
<text text-anchor="start" x="718.5" y="-33.9" font-family="Helvetica,sans-Serif" font-size="12.00">/home/guilhermemtr/Dropbox/workspace</text>
<text text-anchor="start" x="718.5" y="-20.9" font-family="Helvetica,sans-Serif" font-size="12.00">/ETH&#45;Zurich/Projects/Weighted&#45;Flooding</text>
<text text-anchor="middle" x="841.5" y="-7.9" font-family="Helvetica,sans-Serif" font-size="12.00">&#45;Simulator/main.cc</text>
</a>
</g>
</g>
<!-- Node7&#45;&gt;Node10 -->
<g id="edge9" class="edge">
<title>Node7&#45;&gt;Node10</title>
<path fill="none" stroke="midnightblue" d="M749.09,-79.12C766.66,-68.83 786.34,-57.31 803,-47.55"/>
<polygon fill="midnightblue" stroke="midnightblue" points="746.99,-76.3 740.13,-84.38 750.52,-82.34 746.99,-76.3"/>
</g>
<!-- Node11 -->
<g id="node11" class="node">
<title>Node11</title>
<g id="a_node11"><a xlink:href="../../df/d31/main__utils_8cc.html" target="_top" xlink:title=" ">
<polygon fill="white" stroke="black" points="990.5,-0.5 990.5,-47.5 1252.5,-47.5 1252.5,-0.5 990.5,-0.5"/>
<text text-anchor="start" x="998.5" y="-33.9" font-family="Helvetica,sans-Serif" font-size="12.00">/home/guilhermemtr/Dropbox/workspace</text>
<text text-anchor="start" x="998.5" y="-20.9" font-family="Helvetica,sans-Serif" font-size="12.00">/ETH&#45;Zurich/Projects/Weighted&#45;Flooding</text>
<text text-anchor="middle" x="1121.5" y="-7.9" font-family="Helvetica,sans-Serif" font-size="12.00">&#45;Simulator/utils/main_utils.cc</text>
</a>
</g>
</g>
<!-- Node7&#45;&gt;Node11 -->
<g id="edge10" class="edge">
<title>Node7&#45;&gt;Node11</title>
<path fill="none" stroke="midnightblue" d="M826.95,-82.51C883.77,-71.41 950.5,-58.39 1006.07,-47.54"/>
<polygon fill="midnightblue" stroke="midnightblue" points="825.97,-79.13 816.82,-84.48 827.31,-86 825.97,-79.13"/>
</g>
<!-- Node12&#45;&gt;Node7 -->
<g id="edge13" class="edge">
<title>Node12&#45;&gt;Node7</title>
<path fill="none" stroke="midnightblue" d="M819.11,-164.11C796.63,-153.58 771.12,-141.62 749.63,-131.55"/>
<polygon fill="midnightblue" stroke="midnightblue" points="817.68,-167.3 828.22,-168.38 820.65,-160.96 817.68,-167.3"/>
</g>
<!-- Node13 -->
<g id="node13" class="node">
<title>Node13</title>
<g id="a_node13"><a xlink:href="../../df/dcd/hybrid__protocol__simulator_8cc.html" target="_top" xlink:title=" ">
<polygon fill="white" stroke="black" points="850.5,-84.5 850.5,-131.5 1124.5,-131.5 1124.5,-84.5 850.5,-84.5"/>
<text text-anchor="start" x="858.5" y="-117.9" font-family="Helvetica,sans-Serif" font-size="12.00">/home/guilhermemtr/Dropbox/workspace</text>
<text text-anchor="start" x="858.5" y="-104.9" font-family="Helvetica,sans-Serif" font-size="12.00">/ETH&#45;Zurich/Projects/Weighted&#45;Flooding</text>
<text text-anchor="middle" x="987.5" y="-91.9" font-family="Helvetica,sans-Serif" font-size="12.00">&#45;Simulator/src/hybrid_protocol_simulator.cc</text>
</a>
</g>
</g>
<!-- Node12&#45;&gt;Node13 -->
<g id="edge12" class="edge">
<title>Node12&#45;&gt;Node13</title>
<path fill="none" stroke="midnightblue" d="M915.39,-162.27C929.02,-152.2 944.13,-141.04 956.97,-131.55"/>
<polygon fill="midnightblue" stroke="midnightblue" points="913.09,-159.62 907.13,-168.38 917.25,-165.25 913.09,-159.62"/>
</g>
<!-- Node17 -->
<g id="node17" class="node">
<title>Node17</title>
<g id="a_node17"><a xlink:href="../../d8/d9d/k__out__protocol__simulator_8h.html" target="_top" xlink:title=" ">
<polygon fill="white" stroke="black" points="737.5,-259 737.5,-306 1025.5,-306 1025.5,-259 737.5,-259"/>
<text text-anchor="start" x="745.5" y="-292.4" font-family="Helvetica,sans-Serif" font-size="12.00">/home/guilhermemtr/Dropbox/workspace</text>
<text text-anchor="start" x="745.5" y="-279.4" font-family="Helvetica,sans-Serif" font-size="12.00">/ETH&#45;Zurich/Projects/Weighted&#45;Flooding</text>
<text text-anchor="middle" x="881.5" y="-266.4" font-family="Helvetica,sans-Serif" font-size="12.00">&#45;Simulator/include/k_out_protocol_simulator.h</text>
</a>
</g>
</g>
<!-- Node16&#45;&gt;Node17 -->
<g id="edge18" class="edge">
<title>Node16&#45;&gt;Node17</title>
<path fill="none" stroke="midnightblue" d="M1007.74,-351.25C981.04,-336.93 948.71,-319.57 923.45,-306.02"/>
<polygon fill="midnightblue" stroke="midnightblue" points="1006.09,-354.34 1016.55,-355.99 1009.4,-348.17 1006.09,-354.34"/>
</g>
<!-- Node19 -->
<g id="node19" class="node">
<title>Node19</title>
<g id="a_node19"><a xlink:href="../../d5/d9b/send__protocol__simulator_8h.html" target="_top" xlink:title=" ">
<polygon fill="white" stroke="black" points="1043.5,-259 1043.5,-306 1327.5,-306 1327.5,-259 1043.5,-259"/>
<text text-anchor="start" x="1051.5" y="-292.4" font-family="Helvetica,sans-Serif" font-size="12.00">/home/guilhermemtr/Dropbox/workspace</text>
<text text-anchor="start" x="1051.5" y="-279.4" font-family="Helvetica,sans-Serif" font-size="12.00">/ETH&#45;Zurich/Projects/Weighted&#45;Flooding</text>
<text text-anchor="middle" x="1185.5" y="-266.4" font-family="Helvetica,sans-Serif" font-size="12.00">&#45;Simulator/include/send_protocol_simulator.h</text>
</a>
</g>
</g>
<!-- Node16&#45;&gt;Node19 -->
<g id="edge22" class="edge">
<title>Node16&#45;&gt;Node19</title>
<path fill="none" stroke="midnightblue" d="M1096.65,-349.96C1115.38,-335.95 1137.63,-319.31 1155.18,-306.18"/>
<polygon fill="midnightblue" stroke="midnightblue" points="1094.51,-347.19 1088.6,-355.99 1098.7,-352.8 1094.51,-347.19"/>
</g>
<!-- Node21 -->
<g id="node21" class="node">
<title>Node21</title>
<g id="a_node21"><a xlink:href="../../db/d9d/abstract__send__protocol__simulator_8cc.html" target="_top" xlink:title=" ">
<polygon fill="white" stroke="black" points="1345.5,-252.5 1345.5,-312.5 1607.5,-312.5 1607.5,-252.5 1345.5,-252.5"/>
<text text-anchor="start" x="1353.5" y="-298.9" font-family="Helvetica,sans-Serif" font-size="12.00">/home/guilhermemtr/Dropbox/workspace</text>
<text text-anchor="start" x="1353.5" y="-285.9" font-family="Helvetica,sans-Serif" font-size="12.00">/ETH&#45;Zurich/Projects/Weighted&#45;Flooding</text>
<text text-anchor="start" x="1353.5" y="-272.9" font-family="Helvetica,sans-Serif" font-size="12.00">&#45;Simulator/src/abstract_send_protocol</text>
<text text-anchor="middle" x="1476.5" y="-259.9" font-family="Helvetica,sans-Serif" font-size="12.00">_simulator.cc</text>
</a>
</g>
</g>
<!-- Node16&#45;&gt;Node21 -->
<g id="edge26" class="edge">
<title>Node16&#45;&gt;Node21</title>
<path fill="none" stroke="midnightblue" d="M1167.43,-353.74C1222.96,-341.12 1290.84,-325.69 1348.83,-312.52"/>
<polygon fill="midnightblue" stroke="midnightblue" points="1166.54,-350.36 1157.56,-355.99 1168.09,-357.18 1166.54,-350.36"/>
</g>
<!-- Node17&#45;&gt;Node5 -->
<g id="edge19" class="edge">
<title>Node17&#45;&gt;Node5</title>
<path fill="none" stroke="midnightblue" d="M766.8,-256.86C706.54,-243.92 633.22,-228.17 574.47,-215.55"/>
<polygon fill="midnightblue" stroke="midnightblue" points="766.22,-260.32 776.74,-259 767.69,-253.47 766.22,-260.32"/>
</g>
<!-- Node17&#45;&gt;Node7 -->
<g id="edge21" class="edge">
<title>Node17&#45;&gt;Node7</title>
<path fill="none" stroke="midnightblue" d="M773.84,-254.76C753.99,-245.41 735.23,-232.85 721.5,-216 702.05,-192.12 699.26,-155.27 699.8,-131.65"/>
<polygon fill="midnightblue" stroke="midnightblue" points="772.46,-257.98 783.02,-258.83 775.3,-251.58 772.46,-257.98"/>
</g>
<!-- Node18 -->
<g id="node18" class="node">
<title>Node18</title>
<g id="a_node18"><a xlink:href="../../dd/d36/k__out__protocol__simulator_8cc.html" target="_top" xlink:title=" ">
<polygon fill="white" stroke="black" points="1041,-168.5 1041,-215.5 1310,-215.5 1310,-168.5 1041,-168.5"/>
<text text-anchor="start" x="1049" y="-201.9" font-family="Helvetica,sans-Serif" font-size="12.00">/home/guilhermemtr/Dropbox/workspace</text>
<text text-anchor="start" x="1049" y="-188.9" font-family="Helvetica,sans-Serif" font-size="12.00">/ETH&#45;Zurich/Projects/Weighted&#45;Flooding</text>
<text text-anchor="middle" x="1175.5" y="-175.9" font-family="Helvetica,sans-Serif" font-size="12.00">&#45;Simulator/src/k_out_protocol_simulator.cc</text>
</a>
</g>
</g>
<!-- Node17&#45;&gt;Node18 -->
<g id="edge20" class="edge">
<title>Node17&#45;&gt;Node18</title>
<path fill="none" stroke="midnightblue" d="M966.21,-256C1008.69,-243.21 1059.67,-227.87 1100.69,-215.52"/>
<polygon fill="midnightblue" stroke="midnightblue" points="965.02,-252.7 956.45,-258.94 967.03,-259.41 965.02,-252.7"/>
</g>
<!-- Node19&#45;&gt;Node7 -->
<g id="edge25" class="edge">
<title>Node19&#45;&gt;Node7</title>
<path fill="none" stroke="midnightblue" d="M1276.35,-254.25C1293.48,-244.9 1309.22,-232.46 1319.5,-216 1330.8,-197.9 1334.01,-183.64 1319.5,-168 1283.28,-128.95 894.38,-138.32 841.5,-132 838.57,-131.65 835.6,-131.28 832.61,-130.9"/>
<polygon fill="midnightblue" stroke="midnightblue" points="1274.61,-251.21 1267.29,-258.87 1277.79,-257.45 1274.61,-251.21"/>
</g>
<!-- Node19&#45;&gt;Node12 -->
<g id="edge23" class="edge">
<title>Node19&#45;&gt;Node12</title>
<path fill="none" stroke="midnightblue" d="M1097.03,-256.16C1052.28,-243.34 998.42,-227.92 955.13,-215.52"/>
<polygon fill="midnightblue" stroke="midnightblue" points="1096.15,-259.55 1106.73,-258.94 1098.08,-252.82 1096.15,-259.55"/>
</g>
<!-- Node20 -->
<g id="node20" class="node">
<title>Node20</title>
<g id="a_node20"><a xlink:href="../../d9/d76/send__protocol__simulator_8cc.html" target="_top" xlink:title=" ">
<polygon fill="white" stroke="black" points="1367,-168.5 1367,-215.5 1632,-215.5 1632,-168.5 1367,-168.5"/>
<text text-anchor="start" x="1375" y="-201.9" font-family="Helvetica,sans-Serif" font-size="12.00">/home/guilhermemtr/Dropbox/workspace</text>
<text text-anchor="start" x="1375" y="-188.9" font-family="Helvetica,sans-Serif" font-size="12.00">/ETH&#45;Zurich/Projects/Weighted&#45;Flooding</text>
<text text-anchor="middle" x="1499.5" y="-175.9" font-family="Helvetica,sans-Serif" font-size="12.00">&#45;Simulator/src/send_protocol_simulator.cc</text>
</a>
</g>
</g>
<!-- Node19&#45;&gt;Node20 -->
<g id="edge24" class="edge">
<title>Node19&#45;&gt;Node20</title>
<path fill="none" stroke="midnightblue" d="M1275.4,-256.16C1320.88,-243.34 1375.61,-227.92 1419.6,-215.52"/>
<polygon fill="midnightblue" stroke="midnightblue" points="1274.22,-252.86 1265.55,-258.94 1276.12,-259.59 1274.22,-252.86"/>
</g>
</g>
</svg>
