<?xml version="1.0" encoding="UTF-8" standalone="no"?>
<!DOCTYPE svg PUBLIC "-//W3C//DTD SVG 1.1//EN"
 "http://www.w3.org/Graphics/SVG/1.1/DTD/svg11.dtd">
<!-- Generated by graphviz version 5.0.0 (0)
 -->
<!-- Title: /home/guilhermemtr/Dropbox/workspace/ETH&#45;Zurich/Projects/Weighted&#45;Flooding&#45;Simulator/include/random_utils.h Pages: 1 -->
<svg width="2063pt" height="489pt"
 viewBox="0.00 0.00 2063.00 489.00" xmlns="http://www.w3.org/2000/svg" xmlns:xlink="http://www.w3.org/1999/xlink">
<g id="graph0" class="graph" transform="scale(1 1) rotate(0) translate(4 485)">
<title>/home/guilhermemtr/Dropbox/workspace/ETH&#45;Zurich/Projects/Weighted&#45;Flooding&#45;Simulator/include/random_utils.h</title>
<polygon fill="white" stroke="transparent" points="-4,4 -4,-485 2059,-485 2059,4 -4,4"/>
<!-- Node1 -->
<g id="node1" class="node">
<title>Node1</title>
<g id="a_node1"><a xlink:title=" ">
<polygon fill="#bfbfbf" stroke="black" points="735,-433.5 735,-480.5 997,-480.5 997,-433.5 735,-433.5"/>
<text text-anchor="start" x="743" y="-466.9" font-family="Helvetica,sans-Serif" font-size="12.00">/home/guilhermemtr/Dropbox/workspace</text>
<text text-anchor="start" x="743" y="-453.9" font-family="Helvetica,sans-Serif" font-size="12.00">/ETH&#45;Zurich/Projects/Weighted&#45;Flooding</text>
<text text-anchor="middle" x="866" y="-440.9" font-family="Helvetica,sans-Serif" font-size="12.00">&#45;Simulator/include/random_utils.h</text>
</a>
</g>
</g>
<!-- Node2 -->
<g id="node2" class="node">
<title>Node2</title>
<g id="a_node2"><a xlink:href="../../d5/d37/benchmark_8cc.html" target="_top" xlink:title=" ">
<polygon fill="white" stroke="black" points="113,-0.5 113,-47.5 375,-47.5 375,-0.5 113,-0.5"/>
<text text-anchor="start" x="121" y="-33.9" font-family="Helvetica,sans-Serif" font-size="12.00">/home/guilhermemtr/Dropbox/workspace</text>
<text text-anchor="start" x="121" y="-20.9" font-family="Helvetica,sans-Serif" font-size="12.00">/ETH&#45;Zurich/Projects/Weighted&#45;Flooding</text>
<text text-anchor="middle" x="244" y="-7.9" font-family="Helvetica,sans-Serif" font-size="12.00">&#45;Simulator/benchmark.cc</text>
</a>
</g>
</g>
<!-- Node1&#45;&gt;Node2 -->
<g id="edge1" class="edge">
<title>Node1&#45;&gt;Node2</title>
<path fill="none" stroke="midnightblue" d="M724.52,-450.5C520.24,-441.73 161.12,-422.89 107,-397 44.46,-367.08 0,-352.83 0,-283.5 0,-283.5 0,-283.5 0,-191 0,-114.4 83.21,-70.66 152.45,-47.52"/>
<polygon fill="midnightblue" stroke="midnightblue" points="724.59,-454.01 734.73,-450.94 724.89,-447.01 724.59,-454.01"/>
</g>
<!-- Node3 -->
<g id="node3" class="node">
<title>Node3</title>
<g id="a_node3"><a xlink:href="../../dd/d96/hybrid__main_8cc.html" target="_top" xlink:title=" ">
<polygon fill="white" stroke="black" points="1135,-0.5 1135,-47.5 1397,-47.5 1397,-0.5 1135,-0.5"/>
<text text-anchor="start" x="1143" y="-33.9" font-family="Helvetica,sans-Serif" font-size="12.00">/home/guilhermemtr/Dropbox/workspace</text>
<text text-anchor="start" x="1143" y="-20.9" font-family="Helvetica,sans-Serif" font-size="12.00">/ETH&#45;Zurich/Projects/Weighted&#45;Flooding</text>
<text text-anchor="middle" x="1266" y="-7.9" font-family="Helvetica,sans-Serif" font-size="12.00">&#45;Simulator/hybrid_main.cc</text>
</a>
</g>
</g>
<!-- Node1&#45;&gt;Node3 -->
<g id="edge2" class="edge">
<title>Node1&#45;&gt;Node3</title>
<path fill="none" stroke="midnightblue" d="M1007.26,-456.41C1251.54,-453.26 1727,-428.51 1727,-283.5 1727,-283.5 1727,-283.5 1727,-191 1727,-120.45 1533.45,-71.63 1397.18,-46"/>
<polygon fill="midnightblue" stroke="midnightblue" points="1007.19,-452.91 997.24,-456.52 1007.28,-459.91 1007.19,-452.91"/>
</g>
<!-- Node4 -->
<g id="node4" class="node">
<title>Node4</title>
<g id="a_node4"><a xlink:href="../../df/d52/abstract__receive__protocol__simulator_8h.html" target="_top" xlink:title=" ">
<polygon fill="white" stroke="black" points="310.5,-349.5 310.5,-396.5 665.5,-396.5 665.5,-349.5 310.5,-349.5"/>
<text text-anchor="start" x="318.5" y="-382.9" font-family="Helvetica,sans-Serif" font-size="12.00">/home/guilhermemtr/Dropbox/workspace</text>
<text text-anchor="start" x="318.5" y="-369.9" font-family="Helvetica,sans-Serif" font-size="12.00">/ETH&#45;Zurich/Projects/Weighted&#45;Flooding</text>
<text text-anchor="middle" x="488" y="-356.9" font-family="Helvetica,sans-Serif" font-size="12.00">&#45;Simulator/include/abstract_receive_protocol_simulator.h</text>
</a>
</g>
</g>
<!-- Node1&#45;&gt;Node4 -->
<g id="edge3" class="edge">
<title>Node1&#45;&gt;Node4</title>
<path fill="none" stroke="midnightblue" d="M752.15,-431.3C701.21,-420.25 641.59,-407.32 591.89,-396.54"/>
<polygon fill="midnightblue" stroke="midnightblue" points="751.7,-434.79 762.21,-433.48 753.18,-427.94 751.7,-434.79"/>
</g>
<!-- Node5 -->
<g id="node5" class="node">
<title>Node5</title>
<g id="a_node5"><a xlink:href="../../da/dd8/receiver__protocol__simulator_8h.html" target="_top" xlink:title=" ">
<polygon fill="white" stroke="black" points="80.5,-259 80.5,-306 385.5,-306 385.5,-259 80.5,-259"/>
<text text-anchor="start" x="88.5" y="-292.4" font-family="Helvetica,sans-Serif" font-size="12.00">/home/guilhermemtr/Dropbox/workspace</text>
<text text-anchor="start" x="88.5" y="-279.4" font-family="Helvetica,sans-Serif" font-size="12.00">/ETH&#45;Zurich/Projects/Weighted&#45;Flooding</text>
<text text-anchor="middle" x="233" y="-266.4" font-family="Helvetica,sans-Serif" font-size="12.00">&#45;Simulator/include/receiver_protocol_simulator.h</text>
</a>
</g>
</g>
<!-- Node1&#45;&gt;Node5 -->
<g id="edge30" class="edge">
<title>Node1&#45;&gt;Node5</title>
<path fill="none" stroke="midnightblue" d="M724.51,-455.43C580.47,-452.38 368.97,-440.33 301,-397 268.07,-376.01 248.89,-332.85 239.72,-306.21"/>
<polygon fill="midnightblue" stroke="midnightblue" points="724.7,-458.93 734.76,-455.63 724.84,-451.94 724.7,-458.93"/>
</g>
<!-- Node6 -->
<g id="node6" class="node">
<title>Node6</title>
<g id="a_node6"><a xlink:href="../../dc/da4/hybrid__k__out__protocol__simulator_8h.html" target="_top" xlink:title=" ">
<polygon fill="white" stroke="black" points="408,-168.5 408,-215.5 740,-215.5 740,-168.5 408,-168.5"/>
<text text-anchor="start" x="416" y="-201.9" font-family="Helvetica,sans-Serif" font-size="12.00">/home/guilhermemtr/Dropbox/workspace</text>
<text text-anchor="start" x="416" y="-188.9" font-family="Helvetica,sans-Serif" font-size="12.00">/ETH&#45;Zurich/Projects/Weighted&#45;Flooding</text>
<text text-anchor="middle" x="574" y="-175.9" font-family="Helvetica,sans-Serif" font-size="12.00">&#45;Simulator/include/hybrid_k_out_protocol_simulator.h</text>
</a>
</g>
</g>
<!-- Node1&#45;&gt;Node6 -->
<g id="edge28" class="edge">
<title>Node1&#45;&gt;Node6</title>
<path fill="none" stroke="midnightblue" d="M829.69,-426.8C796.96,-399.44 748.66,-356.37 713,-313 692.71,-288.33 697.9,-274.26 675,-252 660.07,-237.49 640.91,-225.14 623.29,-215.55"/>
<polygon fill="midnightblue" stroke="midnightblue" points="827.72,-429.72 837.65,-433.41 832.19,-424.33 827.72,-429.72"/>
</g>
<!-- Node8 -->
<g id="node8" class="node">
<title>Node8</title>
<g id="a_node8"><a xlink:href="../../d0/d8b/main__utils_8h.html" target="_top" xlink:title=" ">
<polygon fill="white" stroke="black" points="637,-84.5 637,-131.5 899,-131.5 899,-84.5 637,-84.5"/>
<text text-anchor="start" x="645" y="-117.9" font-family="Helvetica,sans-Serif" font-size="12.00">/home/guilhermemtr/Dropbox/workspace</text>
<text text-anchor="start" x="645" y="-104.9" font-family="Helvetica,sans-Serif" font-size="12.00">/ETH&#45;Zurich/Projects/Weighted&#45;Flooding</text>
<text text-anchor="middle" x="768" y="-91.9" font-family="Helvetica,sans-Serif" font-size="12.00">&#45;Simulator/utils/main_utils.h</text>
</a>
</g>
</g>
<!-- Node1&#45;&gt;Node8 -->
<g id="edge34" class="edge">
<title>Node1&#45;&gt;Node8</title>
<path fill="none" stroke="midnightblue" d="M724.6,-454.04C515.31,-447.53 140.24,-420.73 71,-313 36.05,-258.63 34.85,-212.21 82,-168 126.35,-126.41 567.6,-138.94 628,-132 630.94,-131.66 633.91,-131.31 636.9,-130.93"/>
<polygon fill="midnightblue" stroke="midnightblue" points="724.65,-457.54 734.75,-454.34 724.86,-450.55 724.65,-457.54"/>
</g>
<!-- Node9 -->
<g id="node9" class="node">
<title>Node9</title>
<g id="a_node9"><a xlink:href="../../d9/d0f/main_8cc.html" target="_top" xlink:title=" ">
<polygon fill="white" stroke="black" points="1524,-0.5 1524,-47.5 1786,-47.5 1786,-0.5 1524,-0.5"/>
<text text-anchor="start" x="1532" y="-33.9" font-family="Helvetica,sans-Serif" font-size="12.00">/home/guilhermemtr/Dropbox/workspace</text>
<text text-anchor="start" x="1532" y="-20.9" font-family="Helvetica,sans-Serif" font-size="12.00">/ETH&#45;Zurich/Projects/Weighted&#45;Flooding</text>
<text text-anchor="middle" x="1655" y="-7.9" font-family="Helvetica,sans-Serif" font-size="12.00">&#45;Simulator/main.cc</text>
</a>
</g>
</g>
<!-- Node1&#45;&gt;Node9 -->
<g id="edge32" class="edge">
<title>Node1&#45;&gt;Node9</title>
<path fill="none" stroke="midnightblue" d="M1007.38,-456.16C1200.08,-454.53 1533.94,-444.62 1645,-397 1712.47,-368.07 1765,-356.91 1765,-283.5 1765,-283.5 1765,-283.5 1765,-191 1765,-131.54 1715.34,-77.04 1682.76,-47.68"/>
<polygon fill="midnightblue" stroke="midnightblue" points="1007.15,-452.66 997.18,-456.24 1007.2,-459.66 1007.15,-452.66"/>
</g>
<!-- Node15 -->
<g id="node15" class="node">
<title>Node15</title>
<g id="a_node15"><a xlink:href="../../d9/d95/abstract__send__protocol__simulator_8h.html" target="_top" xlink:title=" ">
<polygon fill="white" stroke="black" points="942,-349.5 942,-396.5 1282,-396.5 1282,-349.5 942,-349.5"/>
<text text-anchor="start" x="950" y="-382.9" font-family="Helvetica,sans-Serif" font-size="12.00">/home/guilhermemtr/Dropbox/workspace</text>
<text text-anchor="start" x="950" y="-369.9" font-family="Helvetica,sans-Serif" font-size="12.00">/ETH&#45;Zurich/Projects/Weighted&#45;Flooding</text>
<text text-anchor="middle" x="1112" y="-356.9" font-family="Helvetica,sans-Serif" font-size="12.00">&#45;Simulator/include/abstract_send_protocol_simulator.h</text>
</a>
</g>
</g>
<!-- Node1&#45;&gt;Node15 -->
<g id="edge18" class="edge">
<title>Node1&#45;&gt;Node15</title>
<path fill="none" stroke="midnightblue" d="M943.41,-430.2C975.73,-419.42 1012.95,-407.02 1044.18,-396.61"/>
<polygon fill="midnightblue" stroke="midnightblue" points="941.93,-427 933.55,-433.48 944.14,-433.64 941.93,-427"/>
</g>
<!-- Node16 -->
<g id="node16" class="node">
<title>Node16</title>
<g id="a_node16"><a xlink:href="../../d8/d9d/k__out__protocol__simulator_8h.html" target="_top" xlink:title=" ">
<polygon fill="white" stroke="black" points="722,-259 722,-306 1010,-306 1010,-259 722,-259"/>
<text text-anchor="start" x="730" y="-292.4" font-family="Helvetica,sans-Serif" font-size="12.00">/home/guilhermemtr/Dropbox/workspace</text>
<text text-anchor="start" x="730" y="-279.4" font-family="Helvetica,sans-Serif" font-size="12.00">/ETH&#45;Zurich/Projects/Weighted&#45;Flooding</text>
<text text-anchor="middle" x="866" y="-266.4" font-family="Helvetica,sans-Serif" font-size="12.00">&#45;Simulator/include/k_out_protocol_simulator.h</text>
</a>
</g>
</g>
<!-- Node1&#45;&gt;Node16 -->
<g id="edge29" class="edge">
<title>Node1&#45;&gt;Node16</title>
<path fill="none" stroke="midnightblue" d="M866,-423.01C866,-388.69 866,-335.89 866,-306.06"/>
<polygon fill="midnightblue" stroke="midnightblue" points="862.5,-423.45 866,-433.45 869.5,-423.45 862.5,-423.45"/>
</g>
<!-- Node18 -->
<g id="node18" class="node">
<title>Node18</title>
<g id="a_node18"><a xlink:href="../../d5/d9b/send__protocol__simulator_8h.html" target="_top" xlink:title=" ">
<polygon fill="white" stroke="black" points="1308,-259 1308,-306 1592,-306 1592,-259 1308,-259"/>
<text text-anchor="start" x="1316" y="-292.4" font-family="Helvetica,sans-Serif" font-size="12.00">/home/guilhermemtr/Dropbox/workspace</text>
<text text-anchor="start" x="1316" y="-279.4" font-family="Helvetica,sans-Serif" font-size="12.00">/ETH&#45;Zurich/Projects/Weighted&#45;Flooding</text>
<text text-anchor="middle" x="1450" y="-266.4" font-family="Helvetica,sans-Serif" font-size="12.00">&#45;Simulator/include/send_protocol_simulator.h</text>
</a>
</g>
</g>
<!-- Node1&#45;&gt;Node18 -->
<g id="edge31" class="edge">
<title>Node1&#45;&gt;Node18</title>
<path fill="none" stroke="midnightblue" d="M1007.26,-453.29C1092.1,-447.58 1200.72,-432.95 1291,-397 1344.57,-375.67 1397.11,-332.62 1426.36,-306.1"/>
<polygon fill="midnightblue" stroke="midnightblue" points="1006.79,-449.81 997.04,-453.94 1007.24,-456.79 1006.79,-449.81"/>
</g>
<!-- Node21 -->
<g id="node21" class="node">
<title>Node21</title>
<g id="a_node21"><a xlink:href="../../dc/dda/random__utils_8cc.html" target="_top" xlink:title=" ">
<polygon fill="white" stroke="black" points="1793,-349.5 1793,-396.5 2055,-396.5 2055,-349.5 1793,-349.5"/>
<text text-anchor="start" x="1801" y="-382.9" font-family="Helvetica,sans-Serif" font-size="12.00">/home/guilhermemtr/Dropbox/workspace</text>
<text text-anchor="start" x="1801" y="-369.9" font-family="Helvetica,sans-Serif" font-size="12.00">/ETH&#45;Zurich/Projects/Weighted&#45;Flooding</text>
<text text-anchor="middle" x="1924" y="-356.9" font-family="Helvetica,sans-Serif" font-size="12.00">&#45;Simulator/src/random_utils.cc</text>
</a>
</g>
</g>
<!-- Node1&#45;&gt;Node21 -->
<g id="edge33" class="edge">
<title>Node1&#45;&gt;Node21</title>
<path fill="none" stroke="midnightblue" d="M1007.16,-450.94C1186.86,-443.57 1506.71,-427.33 1779,-397 1783.56,-396.49 1788.2,-395.94 1792.87,-395.36"/>
<polygon fill="midnightblue" stroke="midnightblue" points="1006.96,-447.45 997.12,-451.35 1007.25,-454.44 1006.96,-447.45"/>
</g>
<!-- Node4&#45;&gt;Node5 -->
<g id="edge4" class="edge">
<title>Node4&#45;&gt;Node5</title>
<path fill="none" stroke="midnightblue" d="M413.36,-346.1C376.76,-333.39 333.09,-318.24 297.89,-306.02"/>
<polygon fill="midnightblue" stroke="midnightblue" points="412.4,-349.47 422.99,-349.44 414.69,-342.85 412.4,-349.47"/>
</g>
<!-- Node14 -->
<g id="node14" class="node">
<title>Node14</title>
<g id="a_node14"><a xlink:href="../../de/d4e/abstract__receive__protocol__simulator_8cc.html" target="_top" xlink:title=" ">
<polygon fill="white" stroke="black" points="404,-252.5 404,-312.5 666,-312.5 666,-252.5 404,-252.5"/>
<text text-anchor="start" x="412" y="-298.9" font-family="Helvetica,sans-Serif" font-size="12.00">/home/guilhermemtr/Dropbox/workspace</text>
<text text-anchor="start" x="412" y="-285.9" font-family="Helvetica,sans-Serif" font-size="12.00">/ETH&#45;Zurich/Projects/Weighted&#45;Flooding</text>
<text text-anchor="start" x="412" y="-272.9" font-family="Helvetica,sans-Serif" font-size="12.00">&#45;Simulator/src/abstract_receive_protocol</text>
<text text-anchor="middle" x="535" y="-259.9" font-family="Helvetica,sans-Serif" font-size="12.00">_simulator.cc</text>
</a>
</g>
</g>
<!-- Node4&#45;&gt;Node14 -->
<g id="edge17" class="edge">
<title>Node4&#45;&gt;Node14</title>
<path fill="none" stroke="midnightblue" d="M504.91,-340.16C509.69,-331.16 514.87,-321.41 519.56,-312.57"/>
<polygon fill="midnightblue" stroke="midnightblue" points="501.7,-338.74 500.1,-349.21 507.89,-342.02 501.7,-338.74"/>
</g>
<!-- Node5&#45;&gt;Node6 -->
<g id="edge5" class="edge">
<title>Node5&#45;&gt;Node6</title>
<path fill="none" stroke="midnightblue" d="M329.7,-256.4C379.27,-243.54 439.16,-228 487.23,-215.52"/>
<polygon fill="midnightblue" stroke="midnightblue" points="328.73,-253.04 319.93,-258.94 330.49,-259.81 328.73,-253.04"/>
</g>
<!-- Node5&#45;&gt;Node8 -->
<g id="edge16" class="edge">
<title>Node5&#45;&gt;Node8</title>
<path fill="none" stroke="midnightblue" d="M138.59,-254.28C121.3,-244.94 105.44,-232.51 95,-216 83.6,-197.97 80.43,-183.58 95,-168 135.53,-124.64 569.04,-138.82 628,-132 630.94,-131.66 633.9,-131.3 636.9,-130.93"/>
<polygon fill="midnightblue" stroke="midnightblue" points="137.24,-257.51 147.74,-258.88 140.38,-251.26 137.24,-257.51"/>
</g>
<!-- Node11 -->
<g id="node11" class="node">
<title>Node11</title>
<g id="a_node11"><a xlink:href="../../de/dc2/hybrid__protocol__simulator_8h.html" target="_top" xlink:title=" ">
<polygon fill="white" stroke="black" points="796.5,-168.5 796.5,-215.5 1089.5,-215.5 1089.5,-168.5 796.5,-168.5"/>
<text text-anchor="start" x="804.5" y="-201.9" font-family="Helvetica,sans-Serif" font-size="12.00">/home/guilhermemtr/Dropbox/workspace</text>
<text text-anchor="start" x="804.5" y="-188.9" font-family="Helvetica,sans-Serif" font-size="12.00">/ETH&#45;Zurich/Projects/Weighted&#45;Flooding</text>
<text text-anchor="middle" x="943" y="-175.9" font-family="Helvetica,sans-Serif" font-size="12.00">&#45;Simulator/include/hybrid_protocol_simulator.h</text>
</a>
</g>
</g>
<!-- Node5&#45;&gt;Node11 -->
<g id="edge12" class="edge">
<title>Node5&#45;&gt;Node11</title>
<path fill="none" stroke="midnightblue" d="M360.68,-257.28C372.26,-255.38 383.84,-253.58 395,-252 551.58,-229.82 591.81,-233.31 749,-216 764.34,-214.31 780.35,-212.5 796.32,-210.65"/>
<polygon fill="midnightblue" stroke="midnightblue" points="359.79,-253.88 350.5,-258.98 360.94,-260.79 359.79,-253.88"/>
</g>
<!-- Node13 -->
<g id="node13" class="node">
<title>Node13</title>
<g id="a_node13"><a xlink:href="../../d8/db4/receiver__protocol__simulator_8cc.html" target="_top" xlink:title=" ">
<polygon fill="white" stroke="black" points="104.5,-168.5 104.5,-215.5 389.5,-215.5 389.5,-168.5 104.5,-168.5"/>
<text text-anchor="start" x="112.5" y="-201.9" font-family="Helvetica,sans-Serif" font-size="12.00">/home/guilhermemtr/Dropbox/workspace</text>
<text text-anchor="start" x="112.5" y="-188.9" font-family="Helvetica,sans-Serif" font-size="12.00">/ETH&#45;Zurich/Projects/Weighted&#45;Flooding</text>
<text text-anchor="middle" x="247" y="-175.9" font-family="Helvetica,sans-Serif" font-size="12.00">&#45;Simulator/src/receiver_protocol_simulator.cc</text>
</a>
</g>
</g>
<!-- Node5&#45;&gt;Node13 -->
<g id="edge15" class="edge">
<title>Node5&#45;&gt;Node13</title>
<path fill="none" stroke="midnightblue" d="M238.2,-248.61C239.93,-237.66 241.82,-225.72 243.41,-215.71"/>
<polygon fill="midnightblue" stroke="midnightblue" points="234.71,-248.28 236.61,-258.71 241.62,-249.38 234.71,-248.28"/>
</g>
<!-- Node7 -->
<g id="node7" class="node">
<title>Node7</title>
<g id="a_node7"><a xlink:href="../../da/d60/hybrid__k__out__protocol__simulator_8cc.html" target="_top" xlink:title=" ">
<polygon fill="white" stroke="black" points="307,-84.5 307,-131.5 619,-131.5 619,-84.5 307,-84.5"/>
<text text-anchor="start" x="315" y="-117.9" font-family="Helvetica,sans-Serif" font-size="12.00">/home/guilhermemtr/Dropbox/workspace</text>
<text text-anchor="start" x="315" y="-104.9" font-family="Helvetica,sans-Serif" font-size="12.00">/ETH&#45;Zurich/Projects/Weighted&#45;Flooding</text>
<text text-anchor="middle" x="463" y="-91.9" font-family="Helvetica,sans-Serif" font-size="12.00">&#45;Simulator/src/hybrid_k_out_protocol_simulator.cc</text>
</a>
</g>
</g>
<!-- Node6&#45;&gt;Node7 -->
<g id="edge6" class="edge">
<title>Node6&#45;&gt;Node7</title>
<path fill="none" stroke="midnightblue" d="M535.11,-162.27C521.48,-152.2 506.37,-141.04 493.53,-131.55"/>
<polygon fill="midnightblue" stroke="midnightblue" points="533.25,-165.25 543.37,-168.38 537.41,-159.62 533.25,-165.25"/>
</g>
<!-- Node6&#45;&gt;Node8 -->
<g id="edge7" class="edge">
<title>Node6&#45;&gt;Node8</title>
<path fill="none" stroke="midnightblue" d="M636.7,-164.5C661.8,-153.89 690.42,-141.79 714.51,-131.61"/>
<polygon fill="midnightblue" stroke="midnightblue" points="635.12,-161.37 627.27,-168.48 637.84,-167.82 635.12,-161.37"/>
</g>
<!-- Node8&#45;&gt;Node2 -->
<g id="edge8" class="edge">
<title>Node8&#45;&gt;Node2</title>
<path fill="none" stroke="midnightblue" d="M626.77,-83.81C537.1,-69.59 446.68,-55.69 375.13,-44.8"/>
<polygon fill="midnightblue" stroke="midnightblue" points="626.42,-87.3 636.85,-85.41 627.52,-80.39 626.42,-87.3"/>
</g>
<!-- Node8&#45;&gt;Node3 -->
<g id="edge9" class="edge">
<title>Node8&#45;&gt;Node3</title>
<path fill="none" stroke="midnightblue" d="M909.08,-83.77C980,-72.09 1065.41,-58.03 1134.9,-46.59"/>
<polygon fill="midnightblue" stroke="midnightblue" points="908.47,-80.32 899.17,-85.4 909.61,-87.23 908.47,-80.32"/>
</g>
<!-- Node8&#45;&gt;Node9 -->
<g id="edge10" class="edge">
<title>Node8&#45;&gt;Node9</title>
<path fill="none" stroke="midnightblue" d="M909.07,-83.92C1130.07,-58.22 1188.08,-65.94 1406,-48 1444.29,-44.85 1485.87,-41.13 1523.88,-37.61"/>
<polygon fill="midnightblue" stroke="midnightblue" points="908.63,-80.45 899.11,-85.09 909.45,-87.4 908.63,-80.45"/>
</g>
<!-- Node10 -->
<g id="node10" class="node">
<title>Node10</title>
<g id="a_node10"><a xlink:href="../../df/d31/main__utils_8cc.html" target="_top" xlink:title=" ">
<polygon fill="white" stroke="black" points="637,-0.5 637,-47.5 899,-47.5 899,-0.5 637,-0.5"/>
<text text-anchor="start" x="645" y="-33.9" font-family="Helvetica,sans-Serif" font-size="12.00">/home/guilhermemtr/Dropbox/workspace</text>
<text text-anchor="start" x="645" y="-20.9" font-family="Helvetica,sans-Serif" font-size="12.00">/ETH&#45;Zurich/Projects/Weighted&#45;Flooding</text>
<text text-anchor="middle" x="768" y="-7.9" font-family="Helvetica,sans-Serif" font-size="12.00">&#45;Simulator/utils/main_utils.cc</text>
</a>
</g>
</g>
<!-- Node8&#45;&gt;Node10 -->
<g id="edge11" class="edge">
<title>Node8&#45;&gt;Node10</title>
<path fill="none" stroke="midnightblue" d="M768,-74.11C768,-65.26 768,-55.88 768,-47.72"/>
<polygon fill="midnightblue" stroke="midnightblue" points="764.5,-74.16 768,-84.16 771.5,-74.16 764.5,-74.16"/>
</g>
<!-- Node11&#45;&gt;Node8 -->
<g id="edge14" class="edge">
<title>Node11&#45;&gt;Node8</title>
<path fill="none" stroke="midnightblue" d="M885.61,-164.11C863.13,-153.58 837.62,-141.62 816.13,-131.55"/>
<polygon fill="midnightblue" stroke="midnightblue" points="884.18,-167.3 894.72,-168.38 887.15,-160.96 884.18,-167.3"/>
</g>
<!-- Node12 -->
<g id="node12" class="node">
<title>Node12</title>
<g id="a_node12"><a xlink:href="../../df/dcd/hybrid__protocol__simulator_8cc.html" target="_top" xlink:title=" ">
<polygon fill="white" stroke="black" points="917,-84.5 917,-131.5 1191,-131.5 1191,-84.5 917,-84.5"/>
<text text-anchor="start" x="925" y="-117.9" font-family="Helvetica,sans-Serif" font-size="12.00">/home/guilhermemtr/Dropbox/workspace</text>
<text text-anchor="start" x="925" y="-104.9" font-family="Helvetica,sans-Serif" font-size="12.00">/ETH&#45;Zurich/Projects/Weighted&#45;Flooding</text>
<text text-anchor="middle" x="1054" y="-91.9" font-family="Helvetica,sans-Serif" font-size="12.00">&#45;Simulator/src/hybrid_protocol_simulator.cc</text>
</a>
</g>
</g>
<!-- Node11&#45;&gt;Node12 -->
<g id="edge13" class="edge">
<title>Node11&#45;&gt;Node12</title>
<path fill="none" stroke="midnightblue" d="M981.89,-162.27C995.52,-152.2 1010.63,-141.04 1023.47,-131.55"/>
<polygon fill="midnightblue" stroke="midnightblue" points="979.59,-159.62 973.63,-168.38 983.75,-165.25 979.59,-159.62"/>
</g>
<!-- Node15&#45;&gt;Node16 -->
<g id="edge19" class="edge">
<title>Node15&#45;&gt;Node16</title>
<path fill="none" stroke="midnightblue" d="M1039.54,-345.93C1004.32,-333.26 962.41,-318.18 928.6,-306.02"/>
<polygon fill="midnightblue" stroke="midnightblue" points="1038.69,-349.35 1049.29,-349.44 1041.06,-342.76 1038.69,-349.35"/>
</g>
<!-- Node15&#45;&gt;Node18 -->
<g id="edge23" class="edge">
<title>Node15&#45;&gt;Node18</title>
<path fill="none" stroke="midnightblue" d="M1207.85,-346.9C1256.99,-334.04 1316.34,-318.5 1363.99,-306.02"/>
<polygon fill="midnightblue" stroke="midnightblue" points="1206.95,-343.52 1198.17,-349.44 1208.73,-350.29 1206.95,-343.52"/>
</g>
<!-- Node20 -->
<g id="node20" class="node">
<title>Node20</title>
<g id="a_node20"><a xlink:href="../../db/d9d/abstract__send__protocol__simulator_8cc.html" target="_top" xlink:title=" ">
<polygon fill="white" stroke="black" points="1028,-252.5 1028,-312.5 1290,-312.5 1290,-252.5 1028,-252.5"/>
<text text-anchor="start" x="1036" y="-298.9" font-family="Helvetica,sans-Serif" font-size="12.00">/home/guilhermemtr/Dropbox/workspace</text>
<text text-anchor="start" x="1036" y="-285.9" font-family="Helvetica,sans-Serif" font-size="12.00">/ETH&#45;Zurich/Projects/Weighted&#45;Flooding</text>
<text text-anchor="start" x="1036" y="-272.9" font-family="Helvetica,sans-Serif" font-size="12.00">&#45;Simulator/src/abstract_send_protocol</text>
<text text-anchor="middle" x="1159" y="-259.9" font-family="Helvetica,sans-Serif" font-size="12.00">_simulator.cc</text>
</a>
</g>
</g>
<!-- Node15&#45;&gt;Node20 -->
<g id="edge27" class="edge">
<title>Node15&#45;&gt;Node20</title>
<path fill="none" stroke="midnightblue" d="M1128.91,-340.16C1133.69,-331.16 1138.87,-321.41 1143.56,-312.57"/>
<polygon fill="midnightblue" stroke="midnightblue" points="1125.7,-338.74 1124.1,-349.21 1131.89,-342.02 1125.7,-338.74"/>
</g>
<!-- Node16&#45;&gt;Node6 -->
<g id="edge20" class="edge">
<title>Node16&#45;&gt;Node6</title>
<path fill="none" stroke="midnightblue" d="M781.86,-256C739.68,-243.21 689.04,-227.87 648.3,-215.52"/>
<polygon fill="midnightblue" stroke="midnightblue" points="780.98,-259.39 791.56,-258.94 783.01,-252.69 780.98,-259.39"/>
</g>
<!-- Node16&#45;&gt;Node8 -->
<g id="edge22" class="edge">
<title>Node16&#45;&gt;Node8</title>
<path fill="none" stroke="midnightblue" d="M821.03,-252.55C808.55,-242.43 796.19,-230.03 788,-216 772.75,-189.89 768.75,-154.62 767.9,-131.84"/>
<polygon fill="midnightblue" stroke="midnightblue" points="819.15,-255.53 829.21,-258.88 823.44,-249.99 819.15,-255.53"/>
</g>
<!-- Node17 -->
<g id="node17" class="node">
<title>Node17</title>
<g id="a_node17"><a xlink:href="../../dd/d36/k__out__protocol__simulator_8cc.html" target="_top" xlink:title=" ">
<polygon fill="white" stroke="black" points="1107.5,-168.5 1107.5,-215.5 1376.5,-215.5 1376.5,-168.5 1107.5,-168.5"/>
<text text-anchor="start" x="1115.5" y="-201.9" font-family="Helvetica,sans-Serif" font-size="12.00">/home/guilhermemtr/Dropbox/workspace</text>
<text text-anchor="start" x="1115.5" y="-188.9" font-family="Helvetica,sans-Serif" font-size="12.00">/ETH&#45;Zurich/Projects/Weighted&#45;Flooding</text>
<text text-anchor="middle" x="1242" y="-175.9" font-family="Helvetica,sans-Serif" font-size="12.00">&#45;Simulator/src/k_out_protocol_simulator.cc</text>
</a>
</g>
</g>
<!-- Node16&#45;&gt;Node17 -->
<g id="edge21" class="edge">
<title>Node16&#45;&gt;Node17</title>
<path fill="none" stroke="midnightblue" d="M971.6,-256.64C1026.46,-243.73 1092.98,-228.07 1146.32,-215.52"/>
<polygon fill="midnightblue" stroke="midnightblue" points="970.79,-253.24 961.85,-258.94 972.39,-260.05 970.79,-253.24"/>
</g>
<!-- Node18&#45;&gt;Node8 -->
<g id="edge26" class="edge">
<title>Node18&#45;&gt;Node8</title>
<path fill="none" stroke="midnightblue" d="M1436.12,-249.52C1422.38,-219.47 1401.25,-177.69 1386,-168 1296.1,-110.85 1013.77,-144.65 908,-132 905.07,-131.65 902.1,-131.28 899.11,-130.9"/>
<polygon fill="midnightblue" stroke="midnightblue" points="1433.01,-251.13 1440.3,-258.81 1439.39,-248.26 1433.01,-251.13"/>
</g>
<!-- Node18&#45;&gt;Node11 -->
<g id="edge24" class="edge">
<title>Node18&#45;&gt;Node11</title>
<path fill="none" stroke="midnightblue" d="M1326.87,-257.14C1317.44,-255.37 1308.07,-253.64 1299,-252 1228.56,-239.29 1150.09,-226.17 1084.78,-215.54"/>
<polygon fill="midnightblue" stroke="midnightblue" points="1326.22,-260.58 1336.69,-259 1327.52,-253.7 1326.22,-260.58"/>
</g>
<!-- Node19 -->
<g id="node19" class="node">
<title>Node19</title>
<g id="a_node19"><a xlink:href="../../d9/d76/send__protocol__simulator_8cc.html" target="_top" xlink:title=" ">
<polygon fill="white" stroke="black" points="1433.5,-168.5 1433.5,-215.5 1698.5,-215.5 1698.5,-168.5 1433.5,-168.5"/>
<text text-anchor="start" x="1441.5" y="-201.9" font-family="Helvetica,sans-Serif" font-size="12.00">/home/guilhermemtr/Dropbox/workspace</text>
<text text-anchor="start" x="1441.5" y="-188.9" font-family="Helvetica,sans-Serif" font-size="12.00">/ETH&#45;Zurich/Projects/Weighted&#45;Flooding</text>
<text text-anchor="middle" x="1566" y="-175.9" font-family="Helvetica,sans-Serif" font-size="12.00">&#45;Simulator/src/send_protocol_simulator.cc</text>
</a>
</g>
</g>
<!-- Node18&#45;&gt;Node19 -->
<g id="edge25" class="edge">
<title>Node18&#45;&gt;Node19</title>
<path fill="none" stroke="midnightblue" d="M1487.62,-252.8C1503.46,-240.71 1521.63,-226.85 1536.48,-215.52"/>
<polygon fill="midnightblue" stroke="midnightblue" points="1485.4,-250.09 1479.57,-258.94 1489.65,-255.66 1485.4,-250.09"/>
</g>
</g>
</svg>
