<?xml version="1.0" encoding="UTF-8" standalone="no"?>
<!DOCTYPE svg PUBLIC "-//W3C//DTD SVG 1.1//EN"
 "http://www.w3.org/Graphics/SVG/1.1/DTD/svg11.dtd">
<!-- Generated by graphviz version 5.0.0 (0)
 -->
<!-- Title: include/random_utils.h Pages: 1 -->
<!--zoomable 333 -->
<svg id="main" version="1.1" xmlns="http://www.w3.org/2000/svg" xmlns:xlink="http://www.w3.org/1999/xlink" xml:space="preserve" onload="init(evt)">
<style type="text/css"><![CDATA[
.edge:hover path { stroke: red; }
.edge:hover polygon { stroke: red; fill: red; }
]]></style>
<script type="text/javascript"><![CDATA[
var edges = document.getElementsByTagName('g');
if (edges && edges.length) {
  for (var i=0;i<edges.length;i++) {
    if (edges[i].id.substr(0,4)=='edge') {
      edges[i].setAttribute('class','edge');
    }
  }
}
]]></script>
        <defs>
                <circle id="rim" cx="0" cy="0" r="7"/>
                <circle id="rim2" cx="0" cy="0" r="3.5"/>
                <g id="zoomPlus">
                        <use xlink:href="#rim" fill="#404040">
                                <set attributeName="fill" to="#808080" begin="zoomplus.mouseover" end="zoomplus.mouseout"/>
                        </use>
                        <path d="M-4,0h8M0,-4v8" fill="none" stroke="white" stroke-width="1.5" pointer-events="none"/>
                </g>
                <g id="zoomMin">
                        <use xlink:href="#rim" fill="#404040">
                                <set attributeName="fill" to="#808080" begin="zoomminus.mouseover" end="zoomminus.mouseout"/>
                        </use>
                        <path d="M-4,0h8" fill="none" stroke="white" stroke-width="1.5" pointer-events="none"/>
                </g>
                <g id="dirArrow">
                        <path fill="none" stroke="white" stroke-width="1.5" d="M0,-3.0v7 M-2.5,-0.5L0,-3.0L2.5,-0.5"/>
                </g>
               <g id="resetDef">
                       <use xlink:href="#rim2" fill="#404040">
                               <set attributeName="fill" to="#808080" begin="reset.mouseover" end="reset.mouseout"/>
                       </use>
               </g>
        </defs>

<script type="text/javascript">
var viewWidth = 1575;
var viewHeight = 333;
var sectionId = 'dynsection-1';
</script>
<script xlink:href="../../svgpan.js"/>
<svg id="graph" class="graph">
<g id="viewport">
<title>include/random_utils.h</title>
<polygon fill="white" stroke="transparent" points="-4,4 -4,-329 1571,-329 1571,4 -4,4"/>
<!-- Node1 -->
<g id="node1" class="node">
<title>Node1</title>
<g id="a_node1"><a xlink:title=" ">
<polygon fill="#bfbfbf" stroke="black" points="614,-303.5 614,-324.5 766,-324.5 766,-303.5 614,-303.5"/>
<text text-anchor="middle" x="690" y="-310.9" font-family="Helvetica,sans-Serif" font-size="12.00">include/random_utils.h</text>
</a>
</g>
</g>
<!-- Node2 -->
<g id="node2" class="node">
<title>Node2</title>
<g id="a_node2"><a xlink:href="../../d5/d37/benchmark_8cc.html" target="_top" xlink:title=" ">
<polygon fill="white" stroke="black" points="210,-0.5 210,-21.5 312,-21.5 312,-0.5 210,-0.5"/>
<text text-anchor="middle" x="261" y="-7.9" font-family="Helvetica,sans-Serif" font-size="12.00">benchmark.cc</text>
</a>
</g>
</g>
<!-- Node1&#45;&gt;Node2 -->
<g id="edge1" class="edge">
<title>Node1&#45;&gt;Node2</title>
<path fill="none" stroke="midnightblue" d="M603.51,-312.34C462.99,-310.25 191.83,-301.69 103,-267 48.75,-245.82 0,-244.24 0,-186 0,-186 0,-186 0,-126 0,-35.39 133.74,-16.09 209.75,-12.43"/>
<polygon fill="midnightblue" stroke="midnightblue" points="603.77,-315.84 613.81,-312.48 603.86,-308.84 603.77,-315.84"/>
</g>
<!-- Node3 -->
<g id="node3" class="node">
<title>Node3</title>
<g id="a_node3"><a xlink:href="../../df/d52/abstract__receive__protocol__simulator_8h.html" target="_top" xlink:title=" ">
<polygon fill="white" stroke="black" points="349.5,-232.5 349.5,-266.5 566.5,-266.5 566.5,-232.5 349.5,-232.5"/>
<text text-anchor="start" x="357.5" y="-252.9" font-family="Helvetica,sans-Serif" font-size="12.00">include/abstract_receive_protocol</text>
<text text-anchor="middle" x="458" y="-239.9" font-family="Helvetica,sans-Serif" font-size="12.00">_simulator.h</text>
</a>
</g>
</g>
<!-- Node1&#45;&gt;Node3 -->
<g id="edge2" class="edge">
<title>Node1&#45;&gt;Node3</title>
<path fill="none" stroke="midnightblue" d="M644.71,-300.8C608.5,-291.04 557.42,-277.28 517.84,-266.62"/>
<polygon fill="midnightblue" stroke="midnightblue" points="643.95,-304.22 654.51,-303.44 645.77,-297.46 643.95,-304.22"/>
</g>
<!-- Node4 -->
<g id="node4" class="node">
<title>Node4</title>
<g id="a_node4"><a xlink:href="../../da/dd8/receiver__protocol__simulator_8h.html" target="_top" xlink:title=" ">
<polygon fill="white" stroke="black" points="66.5,-174.5 66.5,-195.5 305.5,-195.5 305.5,-174.5 66.5,-174.5"/>
<text text-anchor="middle" x="186" y="-181.9" font-family="Helvetica,sans-Serif" font-size="12.00">include/receiver_protocol_simulator.h</text>
</a>
</g>
</g>
<!-- Node1&#45;&gt;Node4 -->
<g id="edge29" class="edge">
<title>Node1&#45;&gt;Node4</title>
<path fill="none" stroke="midnightblue" d="M603.53,-310.11C531.55,-305.71 427.13,-294.67 340,-267 285.01,-249.54 226.35,-213.04 200.11,-195.64"/>
<polygon fill="midnightblue" stroke="midnightblue" points="603.72,-313.62 613.91,-310.71 604.13,-306.64 603.72,-313.62"/>
</g>
<!-- Node5 -->
<g id="node5" class="node">
<title>Node5</title>
<g id="a_node5"><a xlink:href="../../dc/da4/hybrid__k__out__protocol__simulator_8h.html" target="_top" xlink:title=" ">
<polygon fill="white" stroke="black" points="347,-116.5 347,-137.5 613,-137.5 613,-116.5 347,-116.5"/>
<text text-anchor="middle" x="480" y="-123.9" font-family="Helvetica,sans-Serif" font-size="12.00">include/hybrid_k_out_protocol_simulator.h</text>
</a>
</g>
</g>
<!-- Node1&#45;&gt;Node5 -->
<g id="edge27" class="edge">
<title>Node1&#45;&gt;Node5</title>
<path fill="none" stroke="midnightblue" d="M682.6,-293.82C670.22,-264.14 642.63,-207.09 602,-174 579.8,-155.92 549.75,-144.47 525.03,-137.52"/>
<polygon fill="midnightblue" stroke="midnightblue" points="679.48,-295.45 686.46,-303.42 685.97,-292.83 679.48,-295.45"/>
</g>
<!-- Node7 -->
<g id="node7" class="node">
<title>Node7</title>
<g id="a_node7"><a xlink:href="../../d0/d8b/main__utils_8h.html" target="_top" xlink:title=" ">
<polygon fill="white" stroke="black" points="564,-58.5 564,-79.5 680,-79.5 680,-58.5 564,-58.5"/>
<text text-anchor="middle" x="622" y="-65.9" font-family="Helvetica,sans-Serif" font-size="12.00">utils/main_utils.h</text>
</a>
</g>
</g>
<!-- Node1&#45;&gt;Node7 -->
<g id="edge33" class="edge">
<title>Node1&#45;&gt;Node7</title>
<path fill="none" stroke="midnightblue" d="M603.7,-311.18C445.4,-305.7 119.08,-283.77 57,-196 36.68,-167.27 79.18,-123.39 91,-116 178.68,-61.15 452.24,-91.64 555,-80 557.92,-79.67 560.91,-79.31 563.93,-78.92"/>
<polygon fill="midnightblue" stroke="midnightblue" points="603.77,-314.68 613.88,-311.51 604,-307.68 603.77,-314.68"/>
</g>
<!-- Node9 -->
<g id="node9" class="node">
<title>Node9</title>
<g id="a_node9"><a xlink:href="../../d9/d0f/main_8cc.html" target="_top" xlink:title=" ">
<polygon fill="white" stroke="black" points="1115,-0.5 1115,-21.5 1179,-21.5 1179,-0.5 1115,-0.5"/>
<text text-anchor="middle" x="1147" y="-7.9" font-family="Helvetica,sans-Serif" font-size="12.00">main.cc</text>
</a>
</g>
</g>
<!-- Node1&#45;&gt;Node9 -->
<g id="edge31" class="edge">
<title>Node1&#45;&gt;Node9</title>
<path fill="none" stroke="midnightblue" d="M776.19,-309.62C870.29,-304.74 1025.06,-293.23 1156,-267 1270.94,-243.98 1407,-303.22 1407,-186 1407,-186 1407,-186 1407,-126 1407,-27.55 1248.71,-13.33 1179.14,-11.83"/>
<polygon fill="midnightblue" stroke="midnightblue" points="775.96,-306.12 766.15,-310.12 776.31,-313.11 775.96,-306.12"/>
</g>
<!-- Node15 -->
<g id="node15" class="node">
<title>Node15</title>
<g id="a_node15"><a xlink:href="../../d9/d95/abstract__send__protocol__simulator_8h.html" target="_top" xlink:title=" ">
<polygon fill="white" stroke="black" points="816,-239 816,-260 1090,-260 1090,-239 816,-239"/>
<text text-anchor="middle" x="953" y="-246.4" font-family="Helvetica,sans-Serif" font-size="12.00">include/abstract_send_protocol_simulator.h</text>
</a>
</g>
</g>
<!-- Node1&#45;&gt;Node15 -->
<g id="edge17" class="edge">
<title>Node1&#45;&gt;Node15</title>
<path fill="none" stroke="midnightblue" d="M740.21,-301.07C790.36,-289.15 866.47,-271.06 912.77,-260.06"/>
<polygon fill="midnightblue" stroke="midnightblue" points="739.15,-297.72 730.23,-303.44 740.77,-304.53 739.15,-297.72"/>
</g>
<!-- Node16 -->
<g id="node16" class="node">
<title>Node16</title>
<g id="a_node16"><a xlink:href="../../d8/d9d/k__out__protocol__simulator_8h.html" target="_top" xlink:title=" ">
<polygon fill="white" stroke="black" points="649,-174.5 649,-195.5 871,-195.5 871,-174.5 649,-174.5"/>
<text text-anchor="middle" x="760" y="-181.9" font-family="Helvetica,sans-Serif" font-size="12.00">include/k_out_protocol_simulator.h</text>
</a>
</g>
</g>
<!-- Node1&#45;&gt;Node16 -->
<g id="edge28" class="edge">
<title>Node1&#45;&gt;Node16</title>
<path fill="none" stroke="midnightblue" d="M700.2,-294.5C715.3,-267.1 743.07,-216.72 754.68,-195.66"/>
<polygon fill="midnightblue" stroke="midnightblue" points="697.02,-293.01 695.26,-303.45 703.15,-296.39 697.02,-293.01"/>
</g>
<!-- Node18 -->
<g id="node18" class="node">
<title>Node18</title>
<g id="a_node18"><a xlink:href="../../d5/d9b/send__protocol__simulator_8h.html" target="_top" xlink:title=" ">
<polygon fill="white" stroke="black" points="1161,-174.5 1161,-195.5 1379,-195.5 1379,-174.5 1161,-174.5"/>
<text text-anchor="middle" x="1270" y="-181.9" font-family="Helvetica,sans-Serif" font-size="12.00">include/send_protocol_simulator.h</text>
</a>
</g>
</g>
<!-- Node1&#45;&gt;Node18 -->
<g id="edge30" class="edge">
<title>Node1&#45;&gt;Node18</title>
<path fill="none" stroke="midnightblue" d="M776.06,-311.53C859.94,-308.19 990.36,-297.91 1099,-267 1159.35,-249.83 1224.83,-213.19 1254.2,-195.69"/>
<polygon fill="midnightblue" stroke="midnightblue" points="775.93,-308.03 766.07,-311.9 776.19,-315.02 775.93,-308.03"/>
</g>
<!-- Node21 -->
<g id="node21" class="node">
<title>Node21</title>
<g id="a_node21"><a xlink:href="../../dc/dda/random__utils_8cc.html" target="_top" xlink:title=" ">
<polygon fill="white" stroke="black" points="1435,-239 1435,-260 1567,-260 1567,-239 1435,-239"/>
<text text-anchor="middle" x="1501" y="-246.4" font-family="Helvetica,sans-Serif" font-size="12.00">src/random_utils.cc</text>
</a>
</g>
</g>
<!-- Node1&#45;&gt;Node21 -->
<g id="edge32" class="edge">
<title>Node1&#45;&gt;Node21</title>
<path fill="none" stroke="midnightblue" d="M776.14,-311.49C913.22,-308.22 1189.22,-298.04 1421,-267 1433.93,-265.27 1447.9,-262.65 1460.49,-260.01"/>
<polygon fill="midnightblue" stroke="midnightblue" points="776.03,-308 766.11,-311.73 776.19,-314.99 776.03,-308"/>
</g>
<!-- Node3&#45;&gt;Node4 -->
<g id="edge3" class="edge">
<title>Node3&#45;&gt;Node4</title>
<path fill="none" stroke="midnightblue" d="M378.28,-230.18C328.9,-218.84 267.51,-204.73 227.57,-195.55"/>
<polygon fill="midnightblue" stroke="midnightblue" points="377.78,-233.66 388.31,-232.49 379.34,-226.84 377.78,-233.66"/>
</g>
<!-- Node14 -->
<g id="node14" class="node">
<title>Node14</title>
<g id="a_node14"><a xlink:href="../../de/d4e/abstract__receive__protocol__simulator_8cc.html" target="_top" xlink:title=" ">
<polygon fill="white" stroke="black" points="323.5,-174.5 323.5,-195.5 592.5,-195.5 592.5,-174.5 323.5,-174.5"/>
<text text-anchor="middle" x="458" y="-181.9" font-family="Helvetica,sans-Serif" font-size="12.00">src/abstract_receive_protocol_simulator.cc</text>
</a>
</g>
</g>
<!-- Node3&#45;&gt;Node14 -->
<g id="edge16" class="edge">
<title>Node3&#45;&gt;Node14</title>
<path fill="none" stroke="midnightblue" d="M458,-222.28C458,-212.91 458,-202.92 458,-195.8"/>
<polygon fill="midnightblue" stroke="midnightblue" points="454.5,-222.4 458,-232.4 461.5,-222.4 454.5,-222.4"/>
</g>
<!-- Node4&#45;&gt;Node5 -->
<g id="edge4" class="edge">
<title>Node4&#45;&gt;Node5</title>
<path fill="none" stroke="midnightblue" d="M246.03,-172.57C300.25,-162.24 379.13,-147.21 430,-137.52"/>
<polygon fill="midnightblue" stroke="midnightblue" points="245.37,-169.13 236.21,-174.44 246.68,-176 245.37,-169.13"/>
</g>
<!-- Node4&#45;&gt;Node7 -->
<g id="edge15" class="edge">
<title>Node4&#45;&gt;Node7</title>
<path fill="none" stroke="midnightblue" d="M147.04,-170.71C115.71,-158.02 79.98,-137.66 100,-116 134.42,-78.75 504.61,-85.75 555,-80 557.92,-79.67 560.91,-79.3 563.93,-78.92"/>
<polygon fill="midnightblue" stroke="midnightblue" points="145.96,-174.05 156.55,-174.39 148.49,-167.52 145.96,-174.05"/>
</g>
<!-- Node11 -->
<g id="node11" class="node">
<title>Node11</title>
<g id="a_node11"><a xlink:href="../../de/dc2/hybrid__protocol__simulator_8h.html" target="_top" xlink:title=" ">
<polygon fill="white" stroke="black" points="669.5,-116.5 669.5,-137.5 896.5,-137.5 896.5,-116.5 669.5,-116.5"/>
<text text-anchor="middle" x="783" y="-123.9" font-family="Helvetica,sans-Serif" font-size="12.00">include/hybrid_protocol_simulator.h</text>
</a>
</g>
</g>
<!-- Node4&#45;&gt;Node11 -->
<g id="edge11" class="edge">
<title>Node4&#45;&gt;Node11</title>
<path fill="none" stroke="midnightblue" d="M297.76,-173.52C407.93,-163.18 574.82,-147.53 681.35,-137.53"/>
<polygon fill="midnightblue" stroke="midnightblue" points="297.24,-170.05 287.61,-174.47 297.89,-177.02 297.24,-170.05"/>
</g>
<!-- Node13 -->
<g id="node13" class="node">
<title>Node13</title>
<g id="a_node13"><a xlink:href="../../d8/db4/receiver__protocol__simulator_8cc.html" target="_top" xlink:title=" ">
<polygon fill="white" stroke="black" points="109.5,-116.5 109.5,-137.5 328.5,-137.5 328.5,-116.5 109.5,-116.5"/>
<text text-anchor="middle" x="219" y="-123.9" font-family="Helvetica,sans-Serif" font-size="12.00">src/receiver_protocol_simulator.cc</text>
</a>
</g>
</g>
<!-- Node4&#45;&gt;Node13 -->
<g id="edge14" class="edge">
<title>Node4&#45;&gt;Node13</title>
<path fill="none" stroke="midnightblue" d="M196.83,-165.63C202.33,-156.29 208.79,-145.32 213.32,-137.64"/>
<polygon fill="midnightblue" stroke="midnightblue" points="193.81,-163.85 191.75,-174.25 199.84,-167.41 193.81,-163.85"/>
</g>
<!-- Node6 -->
<g id="node6" class="node">
<title>Node6</title>
<g id="a_node6"><a xlink:href="../../da/d60/hybrid__k__out__protocol__simulator_8cc.html" target="_top" xlink:title=" ">
<polygon fill="white" stroke="black" points="300,-58.5 300,-79.5 546,-79.5 546,-58.5 300,-58.5"/>
<text text-anchor="middle" x="423" y="-65.9" font-family="Helvetica,sans-Serif" font-size="12.00">src/hybrid_k_out_protocol_simulator.cc</text>
</a>
</g>
</g>
<!-- Node5&#45;&gt;Node6 -->
<g id="edge5" class="edge">
<title>Node5&#45;&gt;Node6</title>
<path fill="none" stroke="midnightblue" d="M462.77,-109.08C452.97,-99.44 441.04,-87.72 432.81,-79.64"/>
<polygon fill="midnightblue" stroke="midnightblue" points="460.49,-111.73 470.07,-116.25 465.39,-106.74 460.49,-111.73"/>
</g>
<!-- Node5&#45;&gt;Node7 -->
<g id="edge6" class="edge">
<title>Node5&#45;&gt;Node7</title>
<path fill="none" stroke="midnightblue" d="M513.84,-112.65C539.74,-102.44 574.81,-88.61 597.91,-79.5"/>
<polygon fill="midnightblue" stroke="midnightblue" points="512.43,-109.45 504.41,-116.37 515,-115.96 512.43,-109.45"/>
</g>
<!-- Node7&#45;&gt;Node2 -->
<g id="edge7" class="edge">
<title>Node7&#45;&gt;Node2</title>
<path fill="none" stroke="midnightblue" d="M553.91,-57.44C483.6,-46.53 375.48,-29.76 312.14,-19.93"/>
<polygon fill="midnightblue" stroke="midnightblue" points="553.58,-60.93 564,-59 554.65,-54.01 553.58,-60.93"/>
</g>
<!-- Node8 -->
<g id="node8" class="node">
<title>Node8</title>
<g id="a_node8"><a xlink:href="../../dd/d96/hybrid__main_8cc.html" target="_top" xlink:title=" ">
<polygon fill="white" stroke="black" points="501.5,-0.5 501.5,-21.5 608.5,-21.5 608.5,-0.5 501.5,-0.5"/>
<text text-anchor="middle" x="555" y="-7.9" font-family="Helvetica,sans-Serif" font-size="12.00">hybrid_main.cc</text>
</a>
</g>
</g>
<!-- Node7&#45;&gt;Node8 -->
<g id="edge8" class="edge">
<title>Node7&#45;&gt;Node8</title>
<path fill="none" stroke="midnightblue" d="M602.43,-51.65C590.78,-41.91 576.39,-29.88 566.54,-21.64"/>
<polygon fill="midnightblue" stroke="midnightblue" points="600.41,-54.52 610.33,-58.25 604.9,-49.15 600.41,-54.52"/>
</g>
<!-- Node7&#45;&gt;Node9 -->
<g id="edge9" class="edge">
<title>Node7&#45;&gt;Node9</title>
<path fill="none" stroke="midnightblue" d="M690.46,-57.87C856.19,-37.42 1041.37,-20.97 1114.73,-14.7"/>
<polygon fill="midnightblue" stroke="midnightblue" points="689.57,-54.45 680.08,-59.16 690.44,-61.4 689.57,-54.45"/>
</g>
<!-- Node10 -->
<g id="node10" class="node">
<title>Node10</title>
<g id="a_node10"><a xlink:href="../../df/d31/main__utils_8cc.html" target="_top" xlink:title=" ">
<polygon fill="white" stroke="black" points="627,-0.5 627,-21.5 749,-21.5 749,-0.5 627,-0.5"/>
<text text-anchor="middle" x="688" y="-7.9" font-family="Helvetica,sans-Serif" font-size="12.00">utils/main_utils.cc</text>
</a>
</g>
</g>
<!-- Node7&#45;&gt;Node10 -->
<g id="edge10" class="edge">
<title>Node7&#45;&gt;Node10</title>
<path fill="none" stroke="midnightblue" d="M641.28,-51.65C652.75,-41.91 666.93,-29.88 676.64,-21.64"/>
<polygon fill="midnightblue" stroke="midnightblue" points="638.86,-49.11 633.5,-58.25 643.39,-54.44 638.86,-49.11"/>
</g>
<!-- Node11&#45;&gt;Node7 -->
<g id="edge13" class="edge">
<title>Node11&#45;&gt;Node7</title>
<path fill="none" stroke="midnightblue" d="M745.79,-113.06C716.32,-102.81 675.85,-88.73 649.32,-79.5"/>
<polygon fill="midnightblue" stroke="midnightblue" points="744.73,-116.39 755.32,-116.37 747.03,-109.78 744.73,-116.39"/>
</g>
<!-- Node12 -->
<g id="node12" class="node">
<title>Node12</title>
<g id="a_node12"><a xlink:href="../../df/dcd/hybrid__protocol__simulator_8cc.html" target="_top" xlink:title=" ">
<polygon fill="white" stroke="black" points="698,-58.5 698,-79.5 906,-79.5 906,-58.5 698,-58.5"/>
<text text-anchor="middle" x="802" y="-65.9" font-family="Helvetica,sans-Serif" font-size="12.00">src/hybrid_protocol_simulator.cc</text>
</a>
</g>
</g>
<!-- Node11&#45;&gt;Node12 -->
<g id="edge12" class="edge">
<title>Node11&#45;&gt;Node12</title>
<path fill="none" stroke="midnightblue" d="M789.53,-106.75C792.63,-97.61 796.21,-87.08 798.73,-79.64"/>
<polygon fill="midnightblue" stroke="midnightblue" points="786.21,-105.65 786.31,-116.25 792.84,-107.9 786.21,-105.65"/>
</g>
<!-- Node15&#45;&gt;Node16 -->
<g id="edge18" class="edge">
<title>Node15&#45;&gt;Node16</title>
<path fill="none" stroke="midnightblue" d="M913.37,-235.67C876.56,-223.75 822.58,-206.27 789.45,-195.54"/>
<polygon fill="midnightblue" stroke="midnightblue" points="912.67,-239.12 923.27,-238.87 914.83,-232.46 912.67,-239.12"/>
</g>
<!-- Node15&#45;&gt;Node18 -->
<g id="edge22" class="edge">
<title>Node15&#45;&gt;Node18</title>
<path fill="none" stroke="midnightblue" d="M1011.65,-236.94C1072.15,-225.01 1165.41,-206.62 1221.77,-195.51"/>
<polygon fill="midnightblue" stroke="midnightblue" points="1010.62,-233.57 1001.49,-238.94 1011.98,-240.44 1010.62,-233.57"/>
</g>
<!-- Node20 -->
<g id="node20" class="node">
<title>Node20</title>
<g id="a_node20"><a xlink:href="../../db/d9d/abstract__send__protocol__simulator_8cc.html" target="_top" xlink:title=" ">
<polygon fill="white" stroke="black" points="889,-174.5 889,-195.5 1143,-195.5 1143,-174.5 889,-174.5"/>
<text text-anchor="middle" x="1016" y="-181.9" font-family="Helvetica,sans-Serif" font-size="12.00">src/abstract_send_protocol_simulator.cc</text>
</a>
</g>
</g>
<!-- Node15&#45;&gt;Node20 -->
<g id="edge26" class="edge">
<title>Node15&#45;&gt;Node20</title>
<path fill="none" stroke="midnightblue" d="M970.18,-231.45C981.68,-220.05 996.41,-205.44 1006.02,-195.9"/>
<polygon fill="midnightblue" stroke="midnightblue" points="967.48,-229.21 962.84,-238.73 972.41,-234.18 967.48,-229.21"/>
</g>
<!-- Node16&#45;&gt;Node5 -->
<g id="edge19" class="edge">
<title>Node16&#45;&gt;Node5</title>
<path fill="none" stroke="midnightblue" d="M702.18,-172.44C650.56,-162.11 575.87,-147.17 527.62,-137.52"/>
<polygon fill="midnightblue" stroke="midnightblue" points="701.69,-175.91 712.18,-174.44 703.07,-169.04 701.69,-175.91"/>
</g>
<!-- Node16&#45;&gt;Node7 -->
<g id="edge21" class="edge">
<title>Node16&#45;&gt;Node7</title>
<path fill="none" stroke="midnightblue" d="M717.58,-170.91C698.65,-163.51 677.05,-152.73 661,-138 642.75,-121.25 630.74,-93.95 625.32,-79.56"/>
<polygon fill="midnightblue" stroke="midnightblue" points="716.6,-174.28 727.19,-174.48 719.03,-167.72 716.6,-174.28"/>
</g>
<!-- Node17 -->
<g id="node17" class="node">
<title>Node17</title>
<g id="a_node17"><a xlink:href="../../dd/d36/k__out__protocol__simulator_8cc.html" target="_top" xlink:title=" ">
<polygon fill="white" stroke="black" points="914.5,-116.5 914.5,-137.5 1117.5,-137.5 1117.5,-116.5 914.5,-116.5"/>
<text text-anchor="middle" x="1016" y="-123.9" font-family="Helvetica,sans-Serif" font-size="12.00">src/k_out_protocol_simulator.cc</text>
</a>
</g>
</g>
<!-- Node16&#45;&gt;Node17 -->
<g id="edge20" class="edge">
<title>Node16&#45;&gt;Node17</title>
<path fill="none" stroke="midnightblue" d="M813.75,-172.24C860.91,-161.93 928.62,-147.11 972.46,-137.52"/>
<polygon fill="midnightblue" stroke="midnightblue" points="812.74,-168.88 803.72,-174.44 814.23,-175.72 812.74,-168.88"/>
</g>
<!-- Node18&#45;&gt;Node7 -->
<g id="edge25" class="edge">
<title>Node18&#45;&gt;Node7</title>
<path fill="none" stroke="midnightblue" d="M1237.27,-170.49C1216.6,-161.72 1189.46,-149.77 1166,-138 1148.21,-129.08 1146.02,-121.84 1127,-116 940.27,-58.69 883.03,-102.43 689,-80 686.08,-79.66 683.09,-79.3 680.07,-78.91"/>
<polygon fill="midnightblue" stroke="midnightblue" points="1235.99,-173.75 1246.57,-174.4 1238.71,-167.3 1235.99,-173.75"/>
</g>
<!-- Node18&#45;&gt;Node11 -->
<g id="edge23" class="edge">
<title>Node18&#45;&gt;Node11</title>
<path fill="none" stroke="midnightblue" d="M1176.93,-173.3C1087.04,-162.96 952.21,-147.46 865.92,-137.53"/>
<polygon fill="midnightblue" stroke="midnightblue" points="1176.78,-176.8 1187.11,-174.47 1177.58,-169.85 1176.78,-176.8"/>
</g>
<!-- Node19 -->
<g id="node19" class="node">
<title>Node19</title>
<g id="a_node19"><a xlink:href="../../d9/d76/send__protocol__simulator_8cc.html" target="_top" xlink:title=" ">
<polygon fill="white" stroke="black" points="1174.5,-116.5 1174.5,-137.5 1373.5,-137.5 1373.5,-116.5 1174.5,-116.5"/>
<text text-anchor="middle" x="1274" y="-123.9" font-family="Helvetica,sans-Serif" font-size="12.00">src/send_protocol_simulator.cc</text>
</a>
</g>
</g>
<!-- Node18&#45;&gt;Node19 -->
<g id="edge24" class="edge">
<title>Node18&#45;&gt;Node19</title>
<path fill="none" stroke="midnightblue" d="M1271.42,-164.16C1272.06,-155.16 1272.79,-144.92 1273.31,-137.64"/>
<polygon fill="midnightblue" stroke="midnightblue" points="1267.92,-164.02 1270.7,-174.25 1274.9,-164.52 1267.92,-164.02"/>
</g>
</g>
</svg>
        <g id="navigator" transform="translate(0 0)" fill="#404254">
                <rect fill="#f2f5e9" fill-opacity="0.5" stroke="#606060" stroke-width=".5" x="0" y="0" width="60" height="60"/>
                <use id="zoomplus" xlink:href="#zoomPlus" x="17" y="9" onmousedown="handleZoom(evt,'in')"/>
                <use id="zoomminus" xlink:href="#zoomMin" x="42" y="9" onmousedown="handleZoom(evt,'out')"/>
                <use id="reset" xlink:href="#resetDef" x="30" y="36" onmousedown="handleReset()"/>
                <g id="arrowUp" xlink:href="#dirArrow" transform="translate(30 24)" onmousedown="handlePan(0,-1)">
                  <use xlink:href="#rim" fill="#404040">
                        <set attributeName="fill" to="#808080" begin="arrowUp.mouseover" end="arrowUp.mouseout"/>
                  </use>
                  <path fill="none" stroke="white" stroke-width="1.5" d="M0,-3.0v7 M-2.5,-0.5L0,-3.0L2.5,-0.5"/>
                </g>
                <g id="arrowRight" xlink:href="#dirArrow" transform="rotate(90) translate(36 -43)" onmousedown="handlePan(1,0)">
                  <use xlink:href="#rim" fill="#404040">
                        <set attributeName="fill" to="#808080" begin="arrowRight.mouseover" end="arrowRight.mouseout"/>
                  </use>
                  <path fill="none" stroke="white" stroke-width="1.5" d="M0,-3.0v7 M-2.5,-0.5L0,-3.0L2.5,-0.5"/>
                </g>
                <g id="arrowDown" xlink:href="#dirArrow" transform="rotate(180) translate(-30 -48)" onmousedown="handlePan(0,1)">
                  <use xlink:href="#rim" fill="#404040">
                        <set attributeName="fill" to="#808080" begin="arrowDown.mouseover" end="arrowDown.mouseout"/>
                  </use>
                  <path fill="none" stroke="white" stroke-width="1.5" d="M0,-3.0v7 M-2.5,-0.5L0,-3.0L2.5,-0.5"/>
                </g>
                <g id="arrowLeft" xlink:href="#dirArrow" transform="rotate(270) translate(-36 17)" onmousedown="handlePan(-1,0)">
                  <use xlink:href="#rim" fill="#404040">
                        <set attributeName="fill" to="#808080" begin="arrowLeft.mouseover" end="arrowLeft.mouseout"/>
                  </use>
                  <path fill="none" stroke="white" stroke-width="1.5" d="M0,-3.0v7 M-2.5,-0.5L0,-3.0L2.5,-0.5"/>
                </g>
        </g>
        <svg viewBox="0 0 15 15" width="100%" height="30px" preserveAspectRatio="xMaxYMin meet">
         <g id="arrow_out" transform="scale(0.3 0.3)">
          <a xlink:href="random__utils_8h__dep__incl_org.svg" target="_base">
           <rect id="button" ry="5" rx="5" y="6" x="6" height="38" width="38"
                fill="#f2f5e9" fill-opacity="0.5" stroke="#606060" stroke-width="1.0"/>
           <path id="arrow"
             d="M 11.500037,31.436501 C 11.940474,20.09759 22.043105,11.32322 32.158766,21.979434 L 37.068811,17.246167 C 37.068811,17.246167 37.088388,32 37.088388,32 L 22.160133,31.978069 C 22.160133,31.978069 26.997745,27.140456 26.997745,27.140456 C 18.528582,18.264221 13.291696,25.230495 11.500037,31.436501 z"
             style="fill:#404040;"/>
          </a>
         </g>
        </svg>
</svg>
