<?xml version="1.0" encoding="UTF-8" standalone="no"?>
<!DOCTYPE svg PUBLIC "-//W3C//DTD SVG 1.1//EN"
 "http://www.w3.org/Graphics/SVG/1.1/DTD/svg11.dtd">
<!-- Generated by graphviz version 5.0.0 (0)
 -->
<!-- Title: /home/guilhermemtr/Dropbox/workspace/ETH&#45;Zurich/Projects/Weighted&#45;Flooding&#45;Simulator/utils/scoped_lock.cc Pages: 1 -->
<svg width="270pt" height="172pt"
 viewBox="0.00 0.00 270.00 172.00" xmlns="http://www.w3.org/2000/svg" xmlns:xlink="http://www.w3.org/1999/xlink">
<g id="graph0" class="graph" transform="scale(1 1) rotate(0) translate(4 168)">
<title>/home/guilhermemtr/Dropbox/workspace/ETH&#45;Zurich/Projects/Weighted&#45;Flooding&#45;Simulator/utils/scoped_lock.cc</title>
<polygon fill="white" stroke="transparent" points="-4,4 -4,-168 266,-168 266,4 -4,4"/>
<!-- Node1 -->
<g id="node1" class="node">
<title>Node1</title>
<g id="a_node1"><a xlink:title=" ">
<polygon fill="#bfbfbf" stroke="black" points="0,-116.5 0,-163.5 262,-163.5 262,-116.5 0,-116.5"/>
<text text-anchor="start" x="8" y="-149.9" font-family="Helvetica,sans-Serif" font-size="12.00">/home/guilhermemtr/Dropbox/workspace</text>
<text text-anchor="start" x="8" y="-136.9" font-family="Helvetica,sans-Serif" font-size="12.00">/ETH&#45;Zurich/Projects/Weighted&#45;Flooding</text>
<text text-anchor="middle" x="131" y="-123.9" font-family="Helvetica,sans-Serif" font-size="12.00">&#45;Simulator/utils/scoped_lock.cc</text>
</a>
</g>
</g>
<!-- Node2 -->
<g id="node2" class="node">
<title>Node2</title>
<g id="a_node2"><a xlink:href="../../da/d10/scoped__lock_8h.html" target="_top" xlink:title=" ">
<polygon fill="white" stroke="black" points="80.5,-58.5 80.5,-79.5 181.5,-79.5 181.5,-58.5 80.5,-58.5"/>
<text text-anchor="middle" x="131" y="-65.9" font-family="Helvetica,sans-Serif" font-size="12.00">scoped_lock.h</text>
</a>
</g>
</g>
<!-- Node1&#45;&gt;Node2 -->
<g id="edge1" class="edge">
<title>Node1&#45;&gt;Node2</title>
<path fill="none" stroke="midnightblue" d="M131,-116.41C131,-107.87 131,-98.22 131,-89.94"/>
<polygon fill="midnightblue" stroke="midnightblue" points="134.5,-89.74 131,-79.74 127.5,-89.74 134.5,-89.74"/>
</g>
<!-- Node3 -->
<g id="node3" class="node">
<title>Node3</title>
<g id="a_node3"><a xlink:title=" ">
<polygon fill="white" stroke="#bfbfbf" points="50,-0.5 50,-21.5 124,-21.5 124,-0.5 50,-0.5"/>
<text text-anchor="middle" x="87" y="-7.9" font-family="Helvetica,sans-Serif" font-size="12.00">pthread.h</text>
</a>
</g>
</g>
<!-- Node2&#45;&gt;Node3 -->
<g id="edge2" class="edge">
<title>Node2&#45;&gt;Node3</title>
<path fill="none" stroke="midnightblue" d="M123.34,-58.25C117.15,-50.38 108.29,-39.1 100.87,-29.65"/>
<polygon fill="midnightblue" stroke="midnightblue" points="103.51,-27.34 94.58,-21.64 98,-31.67 103.51,-27.34"/>
</g>
<!-- Node4 -->
<g id="node4" class="node">
<title>Node4</title>
<g id="a_node4"><a xlink:title=" ">
<polygon fill="white" stroke="#bfbfbf" points="142.5,-0.5 142.5,-21.5 207.5,-21.5 207.5,-0.5 142.5,-0.5"/>
<text text-anchor="middle" x="175" y="-7.9" font-family="Helvetica,sans-Serif" font-size="12.00">assert.h</text>
</a>
</g>
</g>
<!-- Node2&#45;&gt;Node4 -->
<g id="edge3" class="edge">
<title>Node2&#45;&gt;Node4</title>
<path fill="none" stroke="midnightblue" d="M138.66,-58.25C144.85,-50.38 153.71,-39.1 161.13,-29.65"/>
<polygon fill="midnightblue" stroke="midnightblue" points="164,-31.67 167.42,-21.64 158.49,-27.34 164,-31.67"/>
</g>
</g>
</svg>
