<?xml version="1.0" encoding="UTF-8" standalone="no"?>
<!DOCTYPE svg PUBLIC "-//W3C//DTD SVG 1.1//EN"
 "http://www.w3.org/Graphics/SVG/1.1/DTD/svg11.dtd">
<!-- Generated by graphviz version 5.0.0 (0)
 -->
<!-- Title: utils/scoped_lock.cc Pages: 1 -->
<svg width="166pt" height="146pt"
 viewBox="0.00 0.00 165.50 146.00" xmlns="http://www.w3.org/2000/svg" xmlns:xlink="http://www.w3.org/1999/xlink">
<g id="graph0" class="graph" transform="scale(1 1) rotate(0) translate(4 142)">
<title>utils/scoped_lock.cc</title>
<polygon fill="white" stroke="transparent" points="-4,4 -4,-142 161.5,-142 161.5,4 -4,4"/>
<!-- Node1 -->
<g id="node1" class="node">
<title>Node1</title>
<g id="a_node1"><a xlink:title=" ">
<polygon fill="#bfbfbf" stroke="black" points="14,-116.5 14,-137.5 148,-137.5 148,-116.5 14,-116.5"/>
<text text-anchor="middle" x="81" y="-123.9" font-family="Helvetica,sans-Serif" font-size="12.00">utils/scoped_lock.cc</text>
</a>
</g>
</g>
<!-- Node2 -->
<g id="node2" class="node">
<title>Node2</title>
<g id="a_node2"><a xlink:href="../../da/d10/scoped__lock_8h.html" target="_top" xlink:title=" ">
<polygon fill="white" stroke="black" points="30.5,-58.5 30.5,-79.5 131.5,-79.5 131.5,-58.5 30.5,-58.5"/>
<text text-anchor="middle" x="81" y="-65.9" font-family="Helvetica,sans-Serif" font-size="12.00">scoped_lock.h</text>
</a>
</g>
</g>
<!-- Node1&#45;&gt;Node2 -->
<g id="edge1" class="edge">
<title>Node1&#45;&gt;Node2</title>
<path fill="none" stroke="midnightblue" d="M81,-116.25C81,-108.94 81,-98.69 81,-89.7"/>
<polygon fill="midnightblue" stroke="midnightblue" points="84.5,-89.64 81,-79.64 77.5,-89.64 84.5,-89.64"/>
</g>
<!-- Node3 -->
<g id="node3" class="node">
<title>Node3</title>
<g id="a_node3"><a xlink:title=" ">
<polygon fill="white" stroke="#bfbfbf" points="0,-0.5 0,-21.5 74,-21.5 74,-0.5 0,-0.5"/>
<text text-anchor="middle" x="37" y="-7.9" font-family="Helvetica,sans-Serif" font-size="12.00">pthread.h</text>
</a>
</g>
</g>
<!-- Node2&#45;&gt;Node3 -->
<g id="edge2" class="edge">
<title>Node2&#45;&gt;Node3</title>
<path fill="none" stroke="midnightblue" d="M73.34,-58.25C67.15,-50.38 58.29,-39.1 50.87,-29.65"/>
<polygon fill="midnightblue" stroke="midnightblue" points="53.51,-27.34 44.58,-21.64 48,-31.67 53.51,-27.34"/>
</g>
<!-- Node4 -->
<g id="node4" class="node">
<title>Node4</title>
<g id="a_node4"><a xlink:title=" ">
<polygon fill="white" stroke="#bfbfbf" points="92.5,-0.5 92.5,-21.5 157.5,-21.5 157.5,-0.5 92.5,-0.5"/>
<text text-anchor="middle" x="125" y="-7.9" font-family="Helvetica,sans-Serif" font-size="12.00">assert.h</text>
</a>
</g>
</g>
<!-- Node2&#45;&gt;Node4 -->
<g id="edge3" class="edge">
<title>Node2&#45;&gt;Node4</title>
<path fill="none" stroke="midnightblue" d="M88.66,-58.25C94.85,-50.38 103.71,-39.1 111.13,-29.65"/>
<polygon fill="midnightblue" stroke="midnightblue" points="114,-31.67 117.42,-21.64 108.49,-27.34 114,-31.67"/>
</g>
</g>
</svg>
