<?xml version="1.0" encoding="UTF-8" standalone="no"?>
<!DOCTYPE svg PUBLIC "-//W3C//DTD SVG 1.1//EN"
 "http://www.w3.org/Graphics/SVG/1.1/DTD/svg11.dtd">
<!-- Generated by graphviz version 5.0.0 (0)
 -->
<!-- Title: src/protocol_simulator.cc Pages: 1 -->
<svg width="332pt" height="204pt"
 viewBox="0.00 0.00 331.50 204.00" xmlns="http://www.w3.org/2000/svg" xmlns:xlink="http://www.w3.org/1999/xlink">
<g id="graph0" class="graph" transform="scale(1 1) rotate(0) translate(4 200)">
<title>src/protocol_simulator.cc</title>
<polygon fill="white" stroke="transparent" points="-4,4 -4,-200 327.5,-200 327.5,4 -4,4"/>
<!-- Node1 -->
<g id="node1" class="node">
<title>Node1</title>
<g id="a_node1"><a xlink:title=" ">
<polygon fill="#bfbfbf" stroke="black" points="44.5,-174.5 44.5,-195.5 208.5,-195.5 208.5,-174.5 44.5,-174.5"/>
<text text-anchor="middle" x="126.5" y="-181.9" font-family="Helvetica,sans-Serif" font-size="12.00">src/protocol_simulator.cc</text>
</a>
</g>
</g>
<!-- Node2 -->
<g id="node2" class="node">
<title>Node2</title>
<g id="a_node2"><a xlink:href="../../dc/d8d/protocol__simulator_8h.html" target="_top" xlink:title=" ">
<polygon fill="white" stroke="black" points="58,-116.5 58,-137.5 195,-137.5 195,-116.5 58,-116.5"/>
<text text-anchor="middle" x="126.5" y="-123.9" font-family="Helvetica,sans-Serif" font-size="12.00">protocol_simulator.h</text>
</a>
</g>
</g>
<!-- Node1&#45;&gt;Node2 -->
<g id="edge1" class="edge">
<title>Node1&#45;&gt;Node2</title>
<path fill="none" stroke="midnightblue" d="M126.5,-174.25C126.5,-166.94 126.5,-156.69 126.5,-147.7"/>
<polygon fill="midnightblue" stroke="midnightblue" points="130,-147.64 126.5,-137.64 123,-147.64 130,-147.64"/>
</g>
<!-- Node3 -->
<g id="node3" class="node">
<title>Node3</title>
<g id="a_node3"><a xlink:title=" ">
<polygon fill="white" stroke="#bfbfbf" points="0,-58.5 0,-79.5 49,-79.5 49,-58.5 0,-58.5"/>
<text text-anchor="middle" x="24.5" y="-65.9" font-family="Helvetica,sans-Serif" font-size="12.00">utility</text>
</a>
</g>
</g>
<!-- Node2&#45;&gt;Node3 -->
<g id="edge2" class="edge">
<title>Node2&#45;&gt;Node3</title>
<path fill="none" stroke="midnightblue" d="M108.73,-116.25C92.79,-107.49 69.17,-94.53 51,-84.55"/>
<polygon fill="midnightblue" stroke="midnightblue" points="52.51,-81.39 42.06,-79.64 49.14,-87.52 52.51,-81.39"/>
</g>
<!-- Node4 -->
<g id="node4" class="node">
<title>Node4</title>
<g id="a_node4"><a xlink:title=" ">
<polygon fill="white" stroke="#bfbfbf" points="67,-58.5 67,-79.5 114,-79.5 114,-58.5 67,-58.5"/>
<text text-anchor="middle" x="90.5" y="-65.9" font-family="Helvetica,sans-Serif" font-size="12.00">tuple</text>
</a>
</g>
</g>
<!-- Node2&#45;&gt;Node4 -->
<g id="edge3" class="edge">
<title>Node2&#45;&gt;Node4</title>
<path fill="none" stroke="midnightblue" d="M120.23,-116.25C115.27,-108.54 108.22,-97.56 102.22,-88.23"/>
<polygon fill="midnightblue" stroke="midnightblue" points="105.05,-86.16 96.7,-79.64 99.16,-89.95 105.05,-86.16"/>
</g>
<!-- Node5 -->
<g id="node5" class="node">
<title>Node5</title>
<g id="a_node5"><a xlink:href="../../d9/d49/types_8h.html" target="_top" xlink:title=" ">
<polygon fill="white" stroke="black" points="132.5,-58.5 132.5,-79.5 192.5,-79.5 192.5,-58.5 132.5,-58.5"/>
<text text-anchor="middle" x="162.5" y="-65.9" font-family="Helvetica,sans-Serif" font-size="12.00">types.h</text>
</a>
</g>
</g>
<!-- Node2&#45;&gt;Node5 -->
<g id="edge4" class="edge">
<title>Node2&#45;&gt;Node5</title>
<path fill="none" stroke="midnightblue" d="M132.77,-116.25C137.73,-108.54 144.78,-97.56 150.78,-88.23"/>
<polygon fill="midnightblue" stroke="midnightblue" points="153.84,-89.95 156.3,-79.64 147.95,-86.16 153.84,-89.95"/>
</g>
<!-- Node9 -->
<g id="node9" class="node">
<title>Node9</title>
<g id="a_node9"><a xlink:href="../../d0/d70/yal__log_8h.html" target="_top" xlink:title=" ">
<polygon fill="white" stroke="black" points="244,-58.5 244,-79.5 313,-79.5 313,-58.5 244,-58.5"/>
<text text-anchor="middle" x="278.5" y="-65.9" font-family="Helvetica,sans-Serif" font-size="12.00">yal_log.h</text>
</a>
</g>
</g>
<!-- Node2&#45;&gt;Node9 -->
<g id="edge8" class="edge">
<title>Node2&#45;&gt;Node9</title>
<path fill="none" stroke="midnightblue" d="M152.63,-116.37C177.58,-107.18 215.36,-93.26 243.02,-83.07"/>
<polygon fill="midnightblue" stroke="midnightblue" points="244.54,-86.24 252.71,-79.5 242.12,-79.67 244.54,-86.24"/>
</g>
<!-- Node6 -->
<g id="node6" class="node">
<title>Node6</title>
<g id="a_node6"><a xlink:title=" ">
<polygon fill="white" stroke="#bfbfbf" points="42,-0.5 42,-21.5 97,-21.5 97,-0.5 42,-0.5"/>
<text text-anchor="middle" x="69.5" y="-7.9" font-family="Helvetica,sans-Serif" font-size="12.00">vector</text>
</a>
</g>
</g>
<!-- Node5&#45;&gt;Node6 -->
<g id="edge5" class="edge">
<title>Node5&#45;&gt;Node6</title>
<path fill="none" stroke="midnightblue" d="M146.3,-58.25C131.9,-49.57 110.63,-36.76 94.12,-26.82"/>
<polygon fill="midnightblue" stroke="midnightblue" points="95.89,-23.8 85.51,-21.64 92.28,-29.8 95.89,-23.8"/>
</g>
<!-- Node7 -->
<g id="node7" class="node">
<title>Node7</title>
<g id="a_node7"><a xlink:title=" ">
<polygon fill="white" stroke="#bfbfbf" points="115,-0.5 115,-21.5 176,-21.5 176,-0.5 115,-0.5"/>
<text text-anchor="middle" x="145.5" y="-7.9" font-family="Helvetica,sans-Serif" font-size="12.00">cstddef</text>
</a>
</g>
</g>
<!-- Node5&#45;&gt;Node7 -->
<g id="edge6" class="edge">
<title>Node5&#45;&gt;Node7</title>
<path fill="none" stroke="midnightblue" d="M159.54,-58.25C157.3,-50.86 154.14,-40.47 151.39,-31.41"/>
<polygon fill="midnightblue" stroke="midnightblue" points="154.68,-30.19 148.43,-21.64 147.98,-32.23 154.68,-30.19"/>
</g>
<!-- Node8 -->
<g id="node8" class="node">
<title>Node8</title>
<g id="a_node8"><a xlink:title=" ">
<polygon fill="white" stroke="#bfbfbf" points="194,-0.5 194,-21.5 249,-21.5 249,-0.5 194,-0.5"/>
<text text-anchor="middle" x="221.5" y="-7.9" font-family="Helvetica,sans-Serif" font-size="12.00">climits</text>
</a>
</g>
</g>
<!-- Node5&#45;&gt;Node8 -->
<g id="edge7" class="edge">
<title>Node5&#45;&gt;Node8</title>
<path fill="none" stroke="midnightblue" d="M172.78,-58.25C181.32,-50.14 193.68,-38.41 203.81,-28.79"/>
<polygon fill="midnightblue" stroke="midnightblue" points="206.5,-31.07 211.34,-21.64 201.68,-25.99 206.5,-31.07"/>
</g>
<!-- Node10 -->
<g id="node10" class="node">
<title>Node10</title>
<g id="a_node10"><a xlink:title=" ">
<polygon fill="white" stroke="#bfbfbf" points="267.5,-0.5 267.5,-21.5 323.5,-21.5 323.5,-0.5 267.5,-0.5"/>
<text text-anchor="middle" x="295.5" y="-7.9" font-family="Helvetica,sans-Serif" font-size="12.00">stdio.h</text>
</a>
</g>
</g>
<!-- Node9&#45;&gt;Node10 -->
<g id="edge9" class="edge">
<title>Node9&#45;&gt;Node10</title>
<path fill="none" stroke="midnightblue" d="M281.46,-58.25C283.7,-50.86 286.86,-40.47 289.61,-31.41"/>
<polygon fill="midnightblue" stroke="midnightblue" points="293.02,-32.23 292.57,-21.64 286.32,-30.19 293.02,-32.23"/>
</g>
</g>
</svg>
