<?xml version="1.0" encoding="UTF-8" standalone="no"?>
<!DOCTYPE svg PUBLIC "-//W3C//DTD SVG 1.1//EN"
 "http://www.w3.org/Graphics/SVG/1.1/DTD/svg11.dtd">
<!-- Generated by graphviz version 5.0.0 (0)
 -->
<!-- Title: include/hybrid_k_out_protocol_simulator.h Pages: 1 -->
<!--zoomable 146 -->
<svg id="main" version="1.1" xmlns="http://www.w3.org/2000/svg" xmlns:xlink="http://www.w3.org/1999/xlink" xml:space="preserve" onload="init(evt)">
<style type="text/css"><![CDATA[
.edge:hover path { stroke: red; }
.edge:hover polygon { stroke: red; fill: red; }
]]></style>
<script type="text/javascript"><![CDATA[
var edges = document.getElementsByTagName('g');
if (edges && edges.length) {
  for (var i=0;i<edges.length;i++) {
    if (edges[i].id.substr(0,4)=='edge') {
      edges[i].setAttribute('class','edge');
    }
  }
}
]]></script>
        <defs>
                <circle id="rim" cx="0" cy="0" r="7"/>
                <circle id="rim2" cx="0" cy="0" r="3.5"/>
                <g id="zoomPlus">
                        <use xlink:href="#rim" fill="#404040">
                                <set attributeName="fill" to="#808080" begin="zoomplus.mouseover" end="zoomplus.mouseout"/>
                        </use>
                        <path d="M-4,0h8M0,-4v8" fill="none" stroke="white" stroke-width="1.5" pointer-events="none"/>
                </g>
                <g id="zoomMin">
                        <use xlink:href="#rim" fill="#404040">
                                <set attributeName="fill" to="#808080" begin="zoomminus.mouseover" end="zoomminus.mouseout"/>
                        </use>
                        <path d="M-4,0h8" fill="none" stroke="white" stroke-width="1.5" pointer-events="none"/>
                </g>
                <g id="dirArrow">
                        <path fill="none" stroke="white" stroke-width="1.5" d="M0,-3.0v7 M-2.5,-0.5L0,-3.0L2.5,-0.5"/>
                </g>
               <g id="resetDef">
                       <use xlink:href="#rim2" fill="#404040">
                               <set attributeName="fill" to="#808080" begin="reset.mouseover" end="reset.mouseout"/>
                       </use>
               </g>
        </defs>

<script type="text/javascript">
var viewWidth = 554;
var viewHeight = 146;
var sectionId = 'dynsection-1';
</script>
<script xlink:href="../../svgpan.js"/>
<svg id="graph" class="graph">
<g id="viewport">
<title>include/hybrid_k_out_protocol_simulator.h</title>
<polygon fill="white" stroke="transparent" points="-4,4 -4,-142 550,-142 550,4 -4,4"/>
<!-- Node1 -->
<g id="node1" class="node">
<title>Node1</title>
<g id="a_node1"><a xlink:title=" ">
<polygon fill="#bfbfbf" stroke="black" points="89,-116.5 89,-137.5 355,-137.5 355,-116.5 89,-116.5"/>
<text text-anchor="middle" x="222" y="-123.9" font-family="Helvetica,sans-Serif" font-size="12.00">include/hybrid_k_out_protocol_simulator.h</text>
</a>
</g>
</g>
<!-- Node2 -->
<g id="node2" class="node">
<title>Node2</title>
<g id="a_node2"><a xlink:href="../../da/d60/hybrid__k__out__protocol__simulator_8cc.html" target="_top" xlink:title=" ">
<polygon fill="white" stroke="black" points="0,-58.5 0,-79.5 246,-79.5 246,-58.5 0,-58.5"/>
<text text-anchor="middle" x="123" y="-65.9" font-family="Helvetica,sans-Serif" font-size="12.00">src/hybrid_k_out_protocol_simulator.cc</text>
</a>
</g>
</g>
<!-- Node1&#45;&gt;Node2 -->
<g id="edge1" class="edge">
<title>Node1&#45;&gt;Node2</title>
<path fill="none" stroke="midnightblue" d="M195.56,-111.05C177.95,-101.08 155.32,-88.28 140.05,-79.64"/>
<polygon fill="midnightblue" stroke="midnightblue" points="194.33,-114.37 204.76,-116.25 197.77,-108.28 194.33,-114.37"/>
</g>
<!-- Node3 -->
<g id="node3" class="node">
<title>Node3</title>
<g id="a_node3"><a xlink:href="../../d0/d8b/main__utils_8h.html" target="_top" xlink:title=" ">
<polygon fill="white" stroke="black" points="264,-58.5 264,-79.5 380,-79.5 380,-58.5 264,-58.5"/>
<text text-anchor="middle" x="322" y="-65.9" font-family="Helvetica,sans-Serif" font-size="12.00">utils/main_utils.h</text>
</a>
</g>
</g>
<!-- Node1&#45;&gt;Node3 -->
<g id="edge2" class="edge">
<title>Node1&#45;&gt;Node3</title>
<path fill="none" stroke="midnightblue" d="M248.21,-111.32C266.07,-101.32 289.22,-88.36 304.78,-79.64"/>
<polygon fill="midnightblue" stroke="midnightblue" points="246.43,-108.31 239.42,-116.25 249.85,-114.41 246.43,-108.31"/>
</g>
<!-- Node4 -->
<g id="node4" class="node">
<title>Node4</title>
<g id="a_node4"><a xlink:href="../../d5/d37/benchmark_8cc.html" target="_top" xlink:title=" ">
<polygon fill="white" stroke="black" points="96,-0.5 96,-21.5 198,-21.5 198,-0.5 96,-0.5"/>
<text text-anchor="middle" x="147" y="-7.9" font-family="Helvetica,sans-Serif" font-size="12.00">benchmark.cc</text>
</a>
</g>
</g>
<!-- Node3&#45;&gt;Node4 -->
<g id="edge3" class="edge">
<title>Node3&#45;&gt;Node4</title>
<path fill="none" stroke="midnightblue" d="M282.39,-55.32C250.29,-45.05 205.78,-30.81 176.69,-21.5"/>
<polygon fill="midnightblue" stroke="midnightblue" points="281.33,-58.66 291.92,-58.37 283.46,-51.99 281.33,-58.66"/>
</g>
<!-- Node5 -->
<g id="node5" class="node">
<title>Node5</title>
<g id="a_node5"><a xlink:href="../../dd/d96/hybrid__main_8cc.html" target="_top" xlink:title=" ">
<polygon fill="white" stroke="black" points="216.5,-0.5 216.5,-21.5 323.5,-21.5 323.5,-0.5 216.5,-0.5"/>
<text text-anchor="middle" x="270" y="-7.9" font-family="Helvetica,sans-Serif" font-size="12.00">hybrid_main.cc</text>
</a>
</g>
</g>
<!-- Node3&#45;&gt;Node5 -->
<g id="edge4" class="edge">
<title>Node3&#45;&gt;Node5</title>
<path fill="none" stroke="midnightblue" d="M306.02,-50.79C297.12,-41.21 286.38,-29.64 278.95,-21.64"/>
<polygon fill="midnightblue" stroke="midnightblue" points="303.57,-53.3 312.94,-58.25 308.7,-48.54 303.57,-53.3"/>
</g>
<!-- Node6 -->
<g id="node6" class="node">
<title>Node6</title>
<g id="a_node6"><a xlink:href="../../d9/d0f/main_8cc.html" target="_top" xlink:title=" ">
<polygon fill="white" stroke="black" points="342,-0.5 342,-21.5 406,-21.5 406,-0.5 342,-0.5"/>
<text text-anchor="middle" x="374" y="-7.9" font-family="Helvetica,sans-Serif" font-size="12.00">main.cc</text>
</a>
</g>
</g>
<!-- Node3&#45;&gt;Node6 -->
<g id="edge5" class="edge">
<title>Node3&#45;&gt;Node6</title>
<path fill="none" stroke="midnightblue" d="M337.98,-50.79C346.88,-41.21 357.62,-29.64 365.05,-21.64"/>
<polygon fill="midnightblue" stroke="midnightblue" points="335.3,-48.54 331.06,-58.25 340.43,-53.3 335.3,-48.54"/>
</g>
<!-- Node7 -->
<g id="node7" class="node">
<title>Node7</title>
<g id="a_node7"><a xlink:href="../../df/d31/main__utils_8cc.html" target="_top" xlink:title=" ">
<polygon fill="white" stroke="black" points="424,-0.5 424,-21.5 546,-21.5 546,-0.5 424,-0.5"/>
<text text-anchor="middle" x="485" y="-7.9" font-family="Helvetica,sans-Serif" font-size="12.00">utils/main_utils.cc</text>
</a>
</g>
</g>
<!-- Node3&#45;&gt;Node7 -->
<g id="edge6" class="edge">
<title>Node3&#45;&gt;Node7</title>
<path fill="none" stroke="midnightblue" d="M359.67,-55.06C389.5,-44.81 430.49,-30.73 457.34,-21.5"/>
<polygon fill="midnightblue" stroke="midnightblue" points="358.34,-51.81 350.02,-58.37 360.62,-58.43 358.34,-51.81"/>
</g>
</g>
</svg>
        <g id="navigator" transform="translate(0 0)" fill="#404254">
                <rect fill="#f2f5e9" fill-opacity="0.5" stroke="#606060" stroke-width=".5" x="0" y="0" width="60" height="60"/>
                <use id="zoomplus" xlink:href="#zoomPlus" x="17" y="9" onmousedown="handleZoom(evt,'in')"/>
                <use id="zoomminus" xlink:href="#zoomMin" x="42" y="9" onmousedown="handleZoom(evt,'out')"/>
                <use id="reset" xlink:href="#resetDef" x="30" y="36" onmousedown="handleReset()"/>
                <g id="arrowUp" xlink:href="#dirArrow" transform="translate(30 24)" onmousedown="handlePan(0,-1)">
                  <use xlink:href="#rim" fill="#404040">
                        <set attributeName="fill" to="#808080" begin="arrowUp.mouseover" end="arrowUp.mouseout"/>
                  </use>
                  <path fill="none" stroke="white" stroke-width="1.5" d="M0,-3.0v7 M-2.5,-0.5L0,-3.0L2.5,-0.5"/>
                </g>
                <g id="arrowRight" xlink:href="#dirArrow" transform="rotate(90) translate(36 -43)" onmousedown="handlePan(1,0)">
                  <use xlink:href="#rim" fill="#404040">
                        <set attributeName="fill" to="#808080" begin="arrowRight.mouseover" end="arrowRight.mouseout"/>
                  </use>
                  <path fill="none" stroke="white" stroke-width="1.5" d="M0,-3.0v7 M-2.5,-0.5L0,-3.0L2.5,-0.5"/>
                </g>
                <g id="arrowDown" xlink:href="#dirArrow" transform="rotate(180) translate(-30 -48)" onmousedown="handlePan(0,1)">
                  <use xlink:href="#rim" fill="#404040">
                        <set attributeName="fill" to="#808080" begin="arrowDown.mouseover" end="arrowDown.mouseout"/>
                  </use>
                  <path fill="none" stroke="white" stroke-width="1.5" d="M0,-3.0v7 M-2.5,-0.5L0,-3.0L2.5,-0.5"/>
                </g>
                <g id="arrowLeft" xlink:href="#dirArrow" transform="rotate(270) translate(-36 17)" onmousedown="handlePan(-1,0)">
                  <use xlink:href="#rim" fill="#404040">
                        <set attributeName="fill" to="#808080" begin="arrowLeft.mouseover" end="arrowLeft.mouseout"/>
                  </use>
                  <path fill="none" stroke="white" stroke-width="1.5" d="M0,-3.0v7 M-2.5,-0.5L0,-3.0L2.5,-0.5"/>
                </g>
        </g>
        <svg viewBox="0 0 15 15" width="100%" height="30px" preserveAspectRatio="xMaxYMin meet">
         <g id="arrow_out" transform="scale(0.3 0.3)">
          <a xlink:href="hybrid__k__out__protocol__simulator_8h__dep__incl_org.svg" target="_base">
           <rect id="button" ry="5" rx="5" y="6" x="6" height="38" width="38"
                fill="#f2f5e9" fill-opacity="0.5" stroke="#606060" stroke-width="1.0"/>
           <path id="arrow"
             d="M 11.500037,31.436501 C 11.940474,20.09759 22.043105,11.32322 32.158766,21.979434 L 37.068811,17.246167 C 37.068811,17.246167 37.088388,32 37.088388,32 L 22.160133,31.978069 C 22.160133,31.978069 26.997745,27.140456 26.997745,27.140456 C 18.528582,18.264221 13.291696,25.230495 11.500037,31.436501 z"
             style="fill:#404040;"/>
          </a>
         </g>
        </svg>
</svg>
