<?xml version="1.0" encoding="UTF-8" standalone="no"?>
<!DOCTYPE svg PUBLIC "-//W3C//DTD SVG 1.1//EN"
 "http://www.w3.org/Graphics/SVG/1.1/DTD/svg11.dtd">
<!-- Generated by graphviz version 5.0.0 (0)
 -->
<!-- Title: include/hybrid_k_out_protocol_simulator.h Pages: 1 -->
<svg width="554pt" height="146pt"
 viewBox="0.00 0.00 554.00 146.00" xmlns="http://www.w3.org/2000/svg" xmlns:xlink="http://www.w3.org/1999/xlink">
<g id="graph0" class="graph" transform="scale(1 1) rotate(0) translate(4 142)">
<title>include/hybrid_k_out_protocol_simulator.h</title>
<polygon fill="white" stroke="transparent" points="-4,4 -4,-142 550,-142 550,4 -4,4"/>
<!-- Node1 -->
<g id="node1" class="node">
<title>Node1</title>
<g id="a_node1"><a xlink:title=" ">
<polygon fill="#bfbfbf" stroke="black" points="89,-116.5 89,-137.5 355,-137.5 355,-116.5 89,-116.5"/>
<text text-anchor="middle" x="222" y="-123.9" font-family="Helvetica,sans-Serif" font-size="12.00">include/hybrid_k_out_protocol_simulator.h</text>
</a>
</g>
</g>
<!-- Node2 -->
<g id="node2" class="node">
<title>Node2</title>
<g id="a_node2"><a xlink:href="../../da/d60/hybrid__k__out__protocol__simulator_8cc.html" target="_top" xlink:title=" ">
<polygon fill="white" stroke="black" points="0,-58.5 0,-79.5 246,-79.5 246,-58.5 0,-58.5"/>
<text text-anchor="middle" x="123" y="-65.9" font-family="Helvetica,sans-Serif" font-size="12.00">src/hybrid_k_out_protocol_simulator.cc</text>
</a>
</g>
</g>
<!-- Node1&#45;&gt;Node2 -->
<g id="edge1" class="edge">
<title>Node1&#45;&gt;Node2</title>
<path fill="none" stroke="midnightblue" d="M195.56,-111.05C177.95,-101.08 155.32,-88.28 140.05,-79.64"/>
<polygon fill="midnightblue" stroke="midnightblue" points="194.33,-114.37 204.76,-116.25 197.77,-108.28 194.33,-114.37"/>
</g>
<!-- Node3 -->
<g id="node3" class="node">
<title>Node3</title>
<g id="a_node3"><a xlink:href="../../d0/d8b/main__utils_8h.html" target="_top" xlink:title=" ">
<polygon fill="white" stroke="black" points="264,-58.5 264,-79.5 380,-79.5 380,-58.5 264,-58.5"/>
<text text-anchor="middle" x="322" y="-65.9" font-family="Helvetica,sans-Serif" font-size="12.00">utils/main_utils.h</text>
</a>
</g>
</g>
<!-- Node1&#45;&gt;Node3 -->
<g id="edge2" class="edge">
<title>Node1&#45;&gt;Node3</title>
<path fill="none" stroke="midnightblue" d="M248.21,-111.32C266.07,-101.32 289.22,-88.36 304.78,-79.64"/>
<polygon fill="midnightblue" stroke="midnightblue" points="246.43,-108.31 239.42,-116.25 249.85,-114.41 246.43,-108.31"/>
</g>
<!-- Node4 -->
<g id="node4" class="node">
<title>Node4</title>
<g id="a_node4"><a xlink:href="../../d5/d37/benchmark_8cc.html" target="_top" xlink:title=" ">
<polygon fill="white" stroke="black" points="96,-0.5 96,-21.5 198,-21.5 198,-0.5 96,-0.5"/>
<text text-anchor="middle" x="147" y="-7.9" font-family="Helvetica,sans-Serif" font-size="12.00">benchmark.cc</text>
</a>
</g>
</g>
<!-- Node3&#45;&gt;Node4 -->
<g id="edge3" class="edge">
<title>Node3&#45;&gt;Node4</title>
<path fill="none" stroke="midnightblue" d="M282.39,-55.32C250.29,-45.05 205.78,-30.81 176.69,-21.5"/>
<polygon fill="midnightblue" stroke="midnightblue" points="281.33,-58.66 291.92,-58.37 283.46,-51.99 281.33,-58.66"/>
</g>
<!-- Node5 -->
<g id="node5" class="node">
<title>Node5</title>
<g id="a_node5"><a xlink:href="../../dd/d96/hybrid__main_8cc.html" target="_top" xlink:title=" ">
<polygon fill="white" stroke="black" points="216.5,-0.5 216.5,-21.5 323.5,-21.5 323.5,-0.5 216.5,-0.5"/>
<text text-anchor="middle" x="270" y="-7.9" font-family="Helvetica,sans-Serif" font-size="12.00">hybrid_main.cc</text>
</a>
</g>
</g>
<!-- Node3&#45;&gt;Node5 -->
<g id="edge4" class="edge">
<title>Node3&#45;&gt;Node5</title>
<path fill="none" stroke="midnightblue" d="M306.02,-50.79C297.12,-41.21 286.38,-29.64 278.95,-21.64"/>
<polygon fill="midnightblue" stroke="midnightblue" points="303.57,-53.3 312.94,-58.25 308.7,-48.54 303.57,-53.3"/>
</g>
<!-- Node6 -->
<g id="node6" class="node">
<title>Node6</title>
<g id="a_node6"><a xlink:href="../../d9/d0f/main_8cc.html" target="_top" xlink:title=" ">
<polygon fill="white" stroke="black" points="342,-0.5 342,-21.5 406,-21.5 406,-0.5 342,-0.5"/>
<text text-anchor="middle" x="374" y="-7.9" font-family="Helvetica,sans-Serif" font-size="12.00">main.cc</text>
</a>
</g>
</g>
<!-- Node3&#45;&gt;Node6 -->
<g id="edge5" class="edge">
<title>Node3&#45;&gt;Node6</title>
<path fill="none" stroke="midnightblue" d="M337.98,-50.79C346.88,-41.21 357.62,-29.64 365.05,-21.64"/>
<polygon fill="midnightblue" stroke="midnightblue" points="335.3,-48.54 331.06,-58.25 340.43,-53.3 335.3,-48.54"/>
</g>
<!-- Node7 -->
<g id="node7" class="node">
<title>Node7</title>
<g id="a_node7"><a xlink:href="../../df/d31/main__utils_8cc.html" target="_top" xlink:title=" ">
<polygon fill="white" stroke="black" points="424,-0.5 424,-21.5 546,-21.5 546,-0.5 424,-0.5"/>
<text text-anchor="middle" x="485" y="-7.9" font-family="Helvetica,sans-Serif" font-size="12.00">utils/main_utils.cc</text>
</a>
</g>
</g>
<!-- Node3&#45;&gt;Node7 -->
<g id="edge6" class="edge">
<title>Node3&#45;&gt;Node7</title>
<path fill="none" stroke="midnightblue" d="M359.67,-55.06C389.5,-44.81 430.49,-30.73 457.34,-21.5"/>
<polygon fill="midnightblue" stroke="midnightblue" points="358.34,-51.81 350.02,-58.37 360.62,-58.43 358.34,-51.81"/>
</g>
</g>
</svg>
