<?xml version="1.0" encoding="UTF-8" standalone="no"?>
<!DOCTYPE svg PUBLIC "-//W3C//DTD SVG 1.1//EN"
 "http://www.w3.org/Graphics/SVG/1.1/DTD/svg11.dtd">
<!-- Generated by graphviz version 5.0.0 (0)
 -->
<!-- Title: /home/guilhermemtr/Dropbox/workspace/ETH&#45;Zurich/Projects/Weighted&#45;Flooding&#45;Simulator/src/abstract_send_protocol_simulator.cc Pages: 1 -->
<!--zoomable 359 -->
<svg id="main" version="1.1" xmlns="http://www.w3.org/2000/svg" xmlns:xlink="http://www.w3.org/1999/xlink" xml:space="preserve" onload="init(evt)">
<style type="text/css"><![CDATA[
.edge:hover path { stroke: red; }
.edge:hover polygon { stroke: red; fill: red; }
]]></style>
<script type="text/javascript"><![CDATA[
var edges = document.getElementsByTagName('g');
if (edges && edges.length) {
  for (var i=0;i<edges.length;i++) {
    if (edges[i].id.substr(0,4)=='edge') {
      edges[i].setAttribute('class','edge');
    }
  }
}
]]></script>
        <defs>
                <circle id="rim" cx="0" cy="0" r="7"/>
                <circle id="rim2" cx="0" cy="0" r="3.5"/>
                <g id="zoomPlus">
                        <use xlink:href="#rim" fill="#404040">
                                <set attributeName="fill" to="#808080" begin="zoomplus.mouseover" end="zoomplus.mouseout"/>
                        </use>
                        <path d="M-4,0h8M0,-4v8" fill="none" stroke="white" stroke-width="1.5" pointer-events="none"/>
                </g>
                <g id="zoomMin">
                        <use xlink:href="#rim" fill="#404040">
                                <set attributeName="fill" to="#808080" begin="zoomminus.mouseover" end="zoomminus.mouseout"/>
                        </use>
                        <path d="M-4,0h8" fill="none" stroke="white" stroke-width="1.5" pointer-events="none"/>
                </g>
                <g id="dirArrow">
                        <path fill="none" stroke="white" stroke-width="1.5" d="M0,-3.0v7 M-2.5,-0.5L0,-3.0L2.5,-0.5"/>
                </g>
               <g id="resetDef">
                       <use xlink:href="#rim2" fill="#404040">
                               <set attributeName="fill" to="#808080" begin="reset.mouseover" end="reset.mouseout"/>
                       </use>
               </g>
        </defs>

<script type="text/javascript">
var viewWidth = 1032;
var viewHeight = 359;
var sectionId = 'dynsection-0';
</script>
<script xlink:href="../../svgpan.js"/>
<svg id="graph" class="graph">
<g id="viewport">
<title>/home/guilhermemtr/Dropbox/workspace/ETH&#45;Zurich/Projects/Weighted&#45;Flooding&#45;Simulator/src/abstract_send_protocol_simulator.cc</title>
<polygon fill="white" stroke="transparent" points="-4,4 -4,-355 1027.5,-355 1027.5,4 -4,4"/>
<!-- Node1 -->
<g id="node1" class="node">
<title>Node1</title>
<g id="a_node1"><a xlink:title=" ">
<polygon fill="#bfbfbf" stroke="black" points="154,-290.5 154,-350.5 416,-350.5 416,-290.5 154,-290.5"/>
<text text-anchor="start" x="162" y="-336.9" font-family="Helvetica,sans-Serif" font-size="12.00">/home/guilhermemtr/Dropbox/workspace</text>
<text text-anchor="start" x="162" y="-323.9" font-family="Helvetica,sans-Serif" font-size="12.00">/ETH&#45;Zurich/Projects/Weighted&#45;Flooding</text>
<text text-anchor="start" x="162" y="-310.9" font-family="Helvetica,sans-Serif" font-size="12.00">&#45;Simulator/src/abstract_send_protocol</text>
<text text-anchor="middle" x="285" y="-297.9" font-family="Helvetica,sans-Serif" font-size="12.00">_simulator.cc</text>
</a>
</g>
</g>
<!-- Node2 -->
<g id="node2" class="node">
<title>Node2</title>
<g id="a_node2"><a xlink:href="../../d9/d95/abstract__send__protocol__simulator_8h.html" target="_top" xlink:title=" ">
<polygon fill="white" stroke="black" points="171.5,-232.5 171.5,-253.5 398.5,-253.5 398.5,-232.5 171.5,-232.5"/>
<text text-anchor="middle" x="285" y="-239.9" font-family="Helvetica,sans-Serif" font-size="12.00">abstract_send_protocol_simulator.h</text>
</a>
</g>
</g>
<!-- Node1&#45;&gt;Node2 -->
<g id="edge1" class="edge">
<title>Node1&#45;&gt;Node2</title>
<path fill="none" stroke="midnightblue" d="M285,-290.09C285,-281.31 285,-271.9 285,-263.88"/>
<polygon fill="midnightblue" stroke="midnightblue" points="288.5,-263.69 285,-253.69 281.5,-263.69 288.5,-263.69"/>
</g>
<!-- Node3 -->
<g id="node3" class="node">
<title>Node3</title>
<g id="a_node3"><a xlink:title=" ">
<polygon fill="white" stroke="#bfbfbf" points="127,-174.5 127,-195.5 181,-195.5 181,-174.5 127,-174.5"/>
<text text-anchor="middle" x="154" y="-181.9" font-family="Helvetica,sans-Serif" font-size="12.00">queue</text>
</a>
</g>
</g>
<!-- Node2&#45;&gt;Node3 -->
<g id="edge2" class="edge">
<title>Node2&#45;&gt;Node3</title>
<path fill="none" stroke="midnightblue" d="M262.48,-232.37C241.26,-223.3 209.27,-209.63 185.52,-199.48"/>
<polygon fill="midnightblue" stroke="midnightblue" points="186.8,-196.21 176.23,-195.5 184.05,-202.65 186.8,-196.21"/>
</g>
<!-- Node4 -->
<g id="node4" class="node">
<title>Node4</title>
<g id="a_node4"><a xlink:title=" ">
<polygon fill="white" stroke="#bfbfbf" points="0,-116.5 0,-137.5 76,-137.5 76,-116.5 0,-116.5"/>
<text text-anchor="middle" x="38" y="-123.9" font-family="Helvetica,sans-Serif" font-size="12.00">functional</text>
</a>
</g>
</g>
<!-- Node2&#45;&gt;Node4 -->
<g id="edge3" class="edge">
<title>Node2&#45;&gt;Node4</title>
<path fill="none" stroke="midnightblue" d="M274.08,-232.33C257.16,-217.8 223.12,-190.31 190,-174 156.89,-157.7 116.84,-145.86 86.17,-138.29"/>
<polygon fill="midnightblue" stroke="midnightblue" points="86.69,-134.81 76.15,-135.88 85.06,-141.62 86.69,-134.81"/>
</g>
<!-- Node5 -->
<g id="node5" class="node">
<title>Node5</title>
<g id="a_node5"><a xlink:href="../../d8/de7/corruptions__stake__protocol__simulator_8h.html" target="_top" xlink:title=" ">
<polygon fill="white" stroke="black" points="237,-174.5 237,-195.5 485,-195.5 485,-174.5 237,-174.5"/>
<text text-anchor="middle" x="361" y="-181.9" font-family="Helvetica,sans-Serif" font-size="12.00">corruptions_stake_protocol_simulator.h</text>
</a>
</g>
</g>
<!-- Node2&#45;&gt;Node5 -->
<g id="edge4" class="edge">
<title>Node2&#45;&gt;Node5</title>
<path fill="none" stroke="midnightblue" d="M298.24,-232.25C309.68,-223.81 326.43,-211.47 339.75,-201.66"/>
<polygon fill="midnightblue" stroke="midnightblue" points="341.94,-204.39 347.91,-195.64 337.79,-198.76 341.94,-204.39"/>
</g>
<!-- Node20 -->
<g id="node20" class="node">
<title>Node20</title>
<g id="a_node20"><a xlink:href="../../d6/d74/random__utils_8h.html" target="_top" xlink:title=" ">
<polygon fill="white" stroke="black" points="654.5,-174.5 654.5,-195.5 759.5,-195.5 759.5,-174.5 654.5,-174.5"/>
<text text-anchor="middle" x="707" y="-181.9" font-family="Helvetica,sans-Serif" font-size="12.00">random_utils.h</text>
</a>
</g>
</g>
<!-- Node2&#45;&gt;Node20 -->
<g id="edge21" class="edge">
<title>Node2&#45;&gt;Node20</title>
<path fill="none" stroke="midnightblue" d="M357.06,-232.44C437.83,-221.72 567.49,-204.51 644.25,-194.33"/>
<polygon fill="midnightblue" stroke="midnightblue" points="644.8,-197.78 654.26,-193 643.88,-190.85 644.8,-197.78"/>
</g>
<!-- Node5&#45;&gt;Node4 -->
<g id="edge17" class="edge">
<title>Node5&#45;&gt;Node4</title>
<path fill="none" stroke="midnightblue" d="M298.93,-174.46C245.19,-166.02 165.16,-153.01 86.3,-138.19"/>
<polygon fill="midnightblue" stroke="midnightblue" points="86.67,-134.69 76.19,-136.27 85.37,-141.57 86.67,-134.69"/>
</g>
<!-- Node6 -->
<g id="node6" class="node">
<title>Node6</title>
<g id="a_node6"><a xlink:href="../../dc/d8d/protocol__simulator_8h.html" target="_top" xlink:title=" ">
<polygon fill="white" stroke="black" points="94.5,-116.5 94.5,-137.5 231.5,-137.5 231.5,-116.5 94.5,-116.5"/>
<text text-anchor="middle" x="163" y="-123.9" font-family="Helvetica,sans-Serif" font-size="12.00">protocol_simulator.h</text>
</a>
</g>
</g>
<!-- Node5&#45;&gt;Node6 -->
<g id="edge5" class="edge">
<title>Node5&#45;&gt;Node6</title>
<path fill="none" stroke="midnightblue" d="M326.96,-174.37C293.61,-164.94 242.65,-150.53 206.4,-140.27"/>
<polygon fill="midnightblue" stroke="midnightblue" points="207.17,-136.85 196.59,-137.5 205.26,-143.59 207.17,-136.85"/>
</g>
<!-- Node13 -->
<g id="node13" class="node">
<title>Node13</title>
<g id="a_node13"><a xlink:href="../../d0/d70/yal__log_8h.html" target="_top" xlink:title=" ">
<polygon fill="white" stroke="black" points="264.5,-58.5 264.5,-79.5 333.5,-79.5 333.5,-58.5 264.5,-58.5"/>
<text text-anchor="middle" x="299" y="-65.9" font-family="Helvetica,sans-Serif" font-size="12.00">yal_log.h</text>
</a>
</g>
</g>
<!-- Node5&#45;&gt;Node13 -->
<g id="edge20" class="edge">
<title>Node5&#45;&gt;Node13</title>
<path fill="none" stroke="midnightblue" d="M327.5,-174.36C309.74,-167.35 289.48,-155.89 279,-138 269.92,-122.5 277.7,-102.56 286.07,-88.28"/>
<polygon fill="midnightblue" stroke="midnightblue" points="289.04,-90.14 291.48,-79.83 283.14,-86.37 289.04,-90.14"/>
</g>
<!-- Node15 -->
<g id="node15" class="node">
<title>Node15</title>
<g id="a_node15"><a xlink:title=" ">
<polygon fill="white" stroke="#bfbfbf" points="576,-116.5 576,-137.5 640,-137.5 640,-116.5 576,-116.5"/>
<text text-anchor="middle" x="608" y="-123.9" font-family="Helvetica,sans-Serif" font-size="12.00">random</text>
</a>
</g>
</g>
<!-- Node5&#45;&gt;Node15 -->
<g id="edge14" class="edge">
<title>Node5&#45;&gt;Node15</title>
<path fill="none" stroke="midnightblue" d="M404.23,-174.47C445.74,-165.28 510.21,-150.9 566,-138 566.1,-137.98 566.2,-137.95 566.3,-137.93"/>
<polygon fill="midnightblue" stroke="midnightblue" points="566.96,-141.37 575.91,-135.69 565.37,-134.55 566.96,-141.37"/>
</g>
<!-- Node16 -->
<g id="node16" class="node">
<title>Node16</title>
<g id="a_node16"><a xlink:title=" ">
<polygon fill="white" stroke="#bfbfbf" points="288,-116.5 288,-137.5 362,-137.5 362,-116.5 288,-116.5"/>
<text text-anchor="middle" x="325" y="-123.9" font-family="Helvetica,sans-Serif" font-size="12.00">algorithm</text>
</a>
</g>
</g>
<!-- Node5&#45;&gt;Node16 -->
<g id="edge15" class="edge">
<title>Node5&#45;&gt;Node16</title>
<path fill="none" stroke="midnightblue" d="M354.73,-174.25C349.77,-166.54 342.72,-155.56 336.72,-146.23"/>
<polygon fill="midnightblue" stroke="midnightblue" points="339.55,-144.16 331.2,-137.64 333.66,-147.95 339.55,-144.16"/>
</g>
<!-- Node17 -->
<g id="node17" class="node">
<title>Node17</title>
<g id="a_node17"><a xlink:title=" ">
<polygon fill="white" stroke="#bfbfbf" points="380.5,-116.5 380.5,-137.5 415.5,-137.5 415.5,-116.5 380.5,-116.5"/>
<text text-anchor="middle" x="398" y="-123.9" font-family="Helvetica,sans-Serif" font-size="12.00">set</text>
</a>
</g>
</g>
<!-- Node5&#45;&gt;Node17 -->
<g id="edge16" class="edge">
<title>Node5&#45;&gt;Node17</title>
<path fill="none" stroke="midnightblue" d="M367.44,-174.25C372.54,-166.54 379.79,-155.56 385.95,-146.23"/>
<polygon fill="midnightblue" stroke="midnightblue" points="389.04,-147.92 391.63,-137.64 383.2,-144.06 389.04,-147.92"/>
</g>
<!-- Node18 -->
<g id="node18" class="node">
<title>Node18</title>
<g id="a_node18"><a xlink:title=" ">
<polygon fill="white" stroke="#bfbfbf" points="434,-116.5 434,-137.5 484,-137.5 484,-116.5 434,-116.5"/>
<text text-anchor="middle" x="459" y="-123.9" font-family="Helvetica,sans-Serif" font-size="12.00">ctime</text>
</a>
</g>
</g>
<!-- Node5&#45;&gt;Node18 -->
<g id="edge18" class="edge">
<title>Node5&#45;&gt;Node18</title>
<path fill="none" stroke="midnightblue" d="M378.07,-174.25C393.25,-165.57 415.66,-152.76 433.06,-142.82"/>
<polygon fill="midnightblue" stroke="midnightblue" points="435.18,-145.64 442.13,-137.64 431.71,-139.57 435.18,-145.64"/>
</g>
<!-- Node19 -->
<g id="node19" class="node">
<title>Node19</title>
<g id="a_node19"><a xlink:title=" ">
<polygon fill="white" stroke="#bfbfbf" points="502.5,-116.5 502.5,-137.5 557.5,-137.5 557.5,-116.5 502.5,-116.5"/>
<text text-anchor="middle" x="530" y="-123.9" font-family="Helvetica,sans-Serif" font-size="12.00">cstdlib</text>
</a>
</g>
</g>
<!-- Node5&#45;&gt;Node19 -->
<g id="edge19" class="edge">
<title>Node5&#45;&gt;Node19</title>
<path fill="none" stroke="midnightblue" d="M390.05,-174.37C418.49,-164.95 461.94,-150.55 492.88,-140.3"/>
<polygon fill="midnightblue" stroke="midnightblue" points="494.05,-143.6 502.45,-137.13 491.85,-136.95 494.05,-143.6"/>
</g>
<!-- Node7 -->
<g id="node7" class="node">
<title>Node7</title>
<g id="a_node7"><a xlink:title=" ">
<polygon fill="white" stroke="#bfbfbf" points="36.5,-58.5 36.5,-79.5 85.5,-79.5 85.5,-58.5 36.5,-58.5"/>
<text text-anchor="middle" x="61" y="-65.9" font-family="Helvetica,sans-Serif" font-size="12.00">utility</text>
</a>
</g>
</g>
<!-- Node6&#45;&gt;Node7 -->
<g id="edge6" class="edge">
<title>Node6&#45;&gt;Node7</title>
<path fill="none" stroke="midnightblue" d="M145.23,-116.25C129.29,-107.49 105.67,-94.53 87.5,-84.55"/>
<polygon fill="midnightblue" stroke="midnightblue" points="89.01,-81.39 78.56,-79.64 85.64,-87.52 89.01,-81.39"/>
</g>
<!-- Node8 -->
<g id="node8" class="node">
<title>Node8</title>
<g id="a_node8"><a xlink:title=" ">
<polygon fill="white" stroke="#bfbfbf" points="103.5,-58.5 103.5,-79.5 150.5,-79.5 150.5,-58.5 103.5,-58.5"/>
<text text-anchor="middle" x="127" y="-65.9" font-family="Helvetica,sans-Serif" font-size="12.00">tuple</text>
</a>
</g>
</g>
<!-- Node6&#45;&gt;Node8 -->
<g id="edge7" class="edge">
<title>Node6&#45;&gt;Node8</title>
<path fill="none" stroke="midnightblue" d="M156.73,-116.25C151.77,-108.54 144.72,-97.56 138.72,-88.23"/>
<polygon fill="midnightblue" stroke="midnightblue" points="141.55,-86.16 133.2,-79.64 135.66,-89.95 141.55,-86.16"/>
</g>
<!-- Node9 -->
<g id="node9" class="node">
<title>Node9</title>
<g id="a_node9"><a xlink:href="../../d9/d49/types_8h.html" target="_top" xlink:title=" ">
<polygon fill="white" stroke="black" points="169,-58.5 169,-79.5 229,-79.5 229,-58.5 169,-58.5"/>
<text text-anchor="middle" x="199" y="-65.9" font-family="Helvetica,sans-Serif" font-size="12.00">types.h</text>
</a>
</g>
</g>
<!-- Node6&#45;&gt;Node9 -->
<g id="edge8" class="edge">
<title>Node6&#45;&gt;Node9</title>
<path fill="none" stroke="midnightblue" d="M169.27,-116.25C174.23,-108.54 181.28,-97.56 187.28,-88.23"/>
<polygon fill="midnightblue" stroke="midnightblue" points="190.34,-89.95 192.8,-79.64 184.45,-86.16 190.34,-89.95"/>
</g>
<!-- Node6&#45;&gt;Node13 -->
<g id="edge12" class="edge">
<title>Node6&#45;&gt;Node13</title>
<path fill="none" stroke="midnightblue" d="M186.38,-116.37C208.5,-107.26 241.91,-93.51 266.6,-83.34"/>
<polygon fill="midnightblue" stroke="midnightblue" points="268.01,-86.55 275.93,-79.5 265.35,-80.07 268.01,-86.55"/>
</g>
<!-- Node10 -->
<g id="node10" class="node">
<title>Node10</title>
<g id="a_node10"><a xlink:title=" ">
<polygon fill="white" stroke="#bfbfbf" points="78.5,-0.5 78.5,-21.5 133.5,-21.5 133.5,-0.5 78.5,-0.5"/>
<text text-anchor="middle" x="106" y="-7.9" font-family="Helvetica,sans-Serif" font-size="12.00">vector</text>
</a>
</g>
</g>
<!-- Node9&#45;&gt;Node10 -->
<g id="edge9" class="edge">
<title>Node9&#45;&gt;Node10</title>
<path fill="none" stroke="midnightblue" d="M182.8,-58.25C168.4,-49.57 147.13,-36.76 130.62,-26.82"/>
<polygon fill="midnightblue" stroke="midnightblue" points="132.39,-23.8 122.01,-21.64 128.78,-29.8 132.39,-23.8"/>
</g>
<!-- Node11 -->
<g id="node11" class="node">
<title>Node11</title>
<g id="a_node11"><a xlink:title=" ">
<polygon fill="white" stroke="#bfbfbf" points="151.5,-0.5 151.5,-21.5 212.5,-21.5 212.5,-0.5 151.5,-0.5"/>
<text text-anchor="middle" x="182" y="-7.9" font-family="Helvetica,sans-Serif" font-size="12.00">cstddef</text>
</a>
</g>
</g>
<!-- Node9&#45;&gt;Node11 -->
<g id="edge10" class="edge">
<title>Node9&#45;&gt;Node11</title>
<path fill="none" stroke="midnightblue" d="M196.04,-58.25C193.8,-50.86 190.64,-40.47 187.89,-31.41"/>
<polygon fill="midnightblue" stroke="midnightblue" points="191.18,-30.19 184.93,-21.64 184.48,-32.23 191.18,-30.19"/>
</g>
<!-- Node12 -->
<g id="node12" class="node">
<title>Node12</title>
<g id="a_node12"><a xlink:title=" ">
<polygon fill="white" stroke="#bfbfbf" points="230.5,-0.5 230.5,-21.5 285.5,-21.5 285.5,-0.5 230.5,-0.5"/>
<text text-anchor="middle" x="258" y="-7.9" font-family="Helvetica,sans-Serif" font-size="12.00">climits</text>
</a>
</g>
</g>
<!-- Node9&#45;&gt;Node12 -->
<g id="edge11" class="edge">
<title>Node9&#45;&gt;Node12</title>
<path fill="none" stroke="midnightblue" d="M209.28,-58.25C217.82,-50.14 230.18,-38.41 240.31,-28.79"/>
<polygon fill="midnightblue" stroke="midnightblue" points="243,-31.07 247.84,-21.64 238.18,-25.99 243,-31.07"/>
</g>
<!-- Node14 -->
<g id="node14" class="node">
<title>Node14</title>
<g id="a_node14"><a xlink:title=" ">
<polygon fill="white" stroke="#bfbfbf" points="304,-0.5 304,-21.5 360,-21.5 360,-0.5 304,-0.5"/>
<text text-anchor="middle" x="332" y="-7.9" font-family="Helvetica,sans-Serif" font-size="12.00">stdio.h</text>
</a>
</g>
</g>
<!-- Node13&#45;&gt;Node14 -->
<g id="edge13" class="edge">
<title>Node13&#45;&gt;Node14</title>
<path fill="none" stroke="midnightblue" d="M304.75,-58.25C309.24,-50.62 315.62,-39.79 321.08,-30.53"/>
<polygon fill="midnightblue" stroke="midnightblue" points="324.26,-32.04 326.32,-21.64 318.23,-28.48 324.26,-32.04"/>
</g>
<!-- Node20&#45;&gt;Node13 -->
<g id="edge25" class="edge">
<title>Node20&#45;&gt;Node13</title>
<path fill="none" stroke="midnightblue" d="M701.77,-174.12C693.07,-158.8 674.09,-129.63 649,-116 597.23,-87.87 425.78,-76.05 343.64,-71.9"/>
<polygon fill="midnightblue" stroke="midnightblue" points="343.76,-68.41 333.61,-71.41 343.42,-75.4 343.76,-68.41"/>
</g>
<!-- Node20&#45;&gt;Node15 -->
<g id="edge22" class="edge">
<title>Node20&#45;&gt;Node15</title>
<path fill="none" stroke="midnightblue" d="M689.76,-174.25C674.42,-165.57 651.78,-152.76 634.21,-142.82"/>
<polygon fill="midnightblue" stroke="midnightblue" points="635.47,-139.52 625.05,-137.64 632.03,-145.61 635.47,-139.52"/>
</g>
<!-- Node21 -->
<g id="node21" class="node">
<title>Node21</title>
<g id="a_node21"><a xlink:title=" ">
<polygon fill="white" stroke="#bfbfbf" points="696,-116.5 696,-137.5 798,-137.5 798,-116.5 696,-116.5"/>
<text text-anchor="middle" x="747" y="-123.9" font-family="Helvetica,sans-Serif" font-size="12.00">unordered_set</text>
</a>
</g>
</g>
<!-- Node20&#45;&gt;Node21 -->
<g id="edge23" class="edge">
<title>Node20&#45;&gt;Node21</title>
<path fill="none" stroke="midnightblue" d="M713.97,-174.25C719.53,-166.46 727.48,-155.33 734.18,-145.94"/>
<polygon fill="midnightblue" stroke="midnightblue" points="737.15,-147.81 740.11,-137.64 731.45,-143.75 737.15,-147.81"/>
</g>
<!-- Node22 -->
<g id="node22" class="node">
<title>Node22</title>
<g id="a_node22"><a xlink:title=" ">
<polygon fill="white" stroke="#bfbfbf" points="816,-116.5 816,-137.5 878,-137.5 878,-116.5 816,-116.5"/>
<text text-anchor="middle" x="847" y="-123.9" font-family="Helvetica,sans-Serif" font-size="12.00">string.h</text>
</a>
</g>
</g>
<!-- Node20&#45;&gt;Node22 -->
<g id="edge24" class="edge">
<title>Node20&#45;&gt;Node22</title>
<path fill="none" stroke="midnightblue" d="M731.07,-174.37C753.84,-165.26 788.23,-151.51 813.65,-141.34"/>
<polygon fill="midnightblue" stroke="midnightblue" points="815.26,-144.46 823.25,-137.5 812.66,-137.97 815.26,-144.46"/>
</g>
<!-- Node23 -->
<g id="node23" class="node">
<title>Node23</title>
<g id="a_node23"><a xlink:href="../../da/d10/scoped__lock_8h.html" target="_top" xlink:title=" ">
<polygon fill="white" stroke="black" points="896.5,-116.5 896.5,-137.5 997.5,-137.5 997.5,-116.5 896.5,-116.5"/>
<text text-anchor="middle" x="947" y="-123.9" font-family="Helvetica,sans-Serif" font-size="12.00">scoped_lock.h</text>
</a>
</g>
</g>
<!-- Node20&#45;&gt;Node23 -->
<g id="edge26" class="edge">
<title>Node20&#45;&gt;Node23</title>
<path fill="none" stroke="midnightblue" d="M747.98,-174.44C788.97,-164.87 852.1,-150.14 896.24,-139.85"/>
<polygon fill="midnightblue" stroke="midnightblue" points="897.24,-143.2 906.18,-137.52 895.65,-136.39 897.24,-143.2"/>
</g>
<!-- Node24 -->
<g id="node24" class="node">
<title>Node24</title>
<g id="a_node24"><a xlink:title=" ">
<polygon fill="white" stroke="#bfbfbf" points="866,-58.5 866,-79.5 940,-79.5 940,-58.5 866,-58.5"/>
<text text-anchor="middle" x="903" y="-65.9" font-family="Helvetica,sans-Serif" font-size="12.00">pthread.h</text>
</a>
</g>
</g>
<!-- Node23&#45;&gt;Node24 -->
<g id="edge27" class="edge">
<title>Node23&#45;&gt;Node24</title>
<path fill="none" stroke="midnightblue" d="M939.34,-116.25C933.15,-108.38 924.29,-97.1 916.87,-87.65"/>
<polygon fill="midnightblue" stroke="midnightblue" points="919.51,-85.34 910.58,-79.64 914,-89.67 919.51,-85.34"/>
</g>
<!-- Node25 -->
<g id="node25" class="node">
<title>Node25</title>
<g id="a_node25"><a xlink:title=" ">
<polygon fill="white" stroke="#bfbfbf" points="958.5,-58.5 958.5,-79.5 1023.5,-79.5 1023.5,-58.5 958.5,-58.5"/>
<text text-anchor="middle" x="991" y="-65.9" font-family="Helvetica,sans-Serif" font-size="12.00">assert.h</text>
</a>
</g>
</g>
<!-- Node23&#45;&gt;Node25 -->
<g id="edge28" class="edge">
<title>Node23&#45;&gt;Node25</title>
<path fill="none" stroke="midnightblue" d="M954.66,-116.25C960.85,-108.38 969.71,-97.1 977.13,-87.65"/>
<polygon fill="midnightblue" stroke="midnightblue" points="980,-89.67 983.42,-79.64 974.49,-85.34 980,-89.67"/>
</g>
</g>
</svg>
        <g id="navigator" transform="translate(0 0)" fill="#404254">
                <rect fill="#f2f5e9" fill-opacity="0.5" stroke="#606060" stroke-width=".5" x="0" y="0" width="60" height="60"/>
                <use id="zoomplus" xlink:href="#zoomPlus" x="17" y="9" onmousedown="handleZoom(evt,'in')"/>
                <use id="zoomminus" xlink:href="#zoomMin" x="42" y="9" onmousedown="handleZoom(evt,'out')"/>
                <use id="reset" xlink:href="#resetDef" x="30" y="36" onmousedown="handleReset()"/>
                <g id="arrowUp" xlink:href="#dirArrow" transform="translate(30 24)" onmousedown="handlePan(0,-1)">
                  <use xlink:href="#rim" fill="#404040">
                        <set attributeName="fill" to="#808080" begin="arrowUp.mouseover" end="arrowUp.mouseout"/>
                  </use>
                  <path fill="none" stroke="white" stroke-width="1.5" d="M0,-3.0v7 M-2.5,-0.5L0,-3.0L2.5,-0.5"/>
                </g>
                <g id="arrowRight" xlink:href="#dirArrow" transform="rotate(90) translate(36 -43)" onmousedown="handlePan(1,0)">
                  <use xlink:href="#rim" fill="#404040">
                        <set attributeName="fill" to="#808080" begin="arrowRight.mouseover" end="arrowRight.mouseout"/>
                  </use>
                  <path fill="none" stroke="white" stroke-width="1.5" d="M0,-3.0v7 M-2.5,-0.5L0,-3.0L2.5,-0.5"/>
                </g>
                <g id="arrowDown" xlink:href="#dirArrow" transform="rotate(180) translate(-30 -48)" onmousedown="handlePan(0,1)">
                  <use xlink:href="#rim" fill="#404040">
                        <set attributeName="fill" to="#808080" begin="arrowDown.mouseover" end="arrowDown.mouseout"/>
                  </use>
                  <path fill="none" stroke="white" stroke-width="1.5" d="M0,-3.0v7 M-2.5,-0.5L0,-3.0L2.5,-0.5"/>
                </g>
                <g id="arrowLeft" xlink:href="#dirArrow" transform="rotate(270) translate(-36 17)" onmousedown="handlePan(-1,0)">
                  <use xlink:href="#rim" fill="#404040">
                        <set attributeName="fill" to="#808080" begin="arrowLeft.mouseover" end="arrowLeft.mouseout"/>
                  </use>
                  <path fill="none" stroke="white" stroke-width="1.5" d="M0,-3.0v7 M-2.5,-0.5L0,-3.0L2.5,-0.5"/>
                </g>
        </g>
        <svg viewBox="0 0 15 15" width="100%" height="30px" preserveAspectRatio="xMaxYMin meet">
         <g id="arrow_out" transform="scale(0.3 0.3)">
          <a xlink:href="abstract__send__protocol__simulator_8cc__incl_org.svg" target="_base">
           <rect id="button" ry="5" rx="5" y="6" x="6" height="38" width="38"
                fill="#f2f5e9" fill-opacity="0.5" stroke="#606060" stroke-width="1.0"/>
           <path id="arrow"
             d="M 11.500037,31.436501 C 11.940474,20.09759 22.043105,11.32322 32.158766,21.979434 L 37.068811,17.246167 C 37.068811,17.246167 37.088388,32 37.088388,32 L 22.160133,31.978069 C 22.160133,31.978069 26.997745,27.140456 26.997745,27.140456 C 18.528582,18.264221 13.291696,25.230495 11.500037,31.436501 z"
             style="fill:#404040;"/>
          </a>
         </g>
        </svg>
</svg>
