<?xml version="1.0" encoding="UTF-8" standalone="no"?>
<!DOCTYPE svg PUBLIC "-//W3C//DTD SVG 1.1//EN"
 "http://www.w3.org/Graphics/SVG/1.1/DTD/svg11.dtd">
<!-- Generated by graphviz version 5.0.0 (0)
 -->
<!-- Title: generate_stake_distribution Pages: 1 -->
<svg width="510pt" height="508pt"
 viewBox="0.00 0.00 510.00 508.00" xmlns="http://www.w3.org/2000/svg" xmlns:xlink="http://www.w3.org/1999/xlink">
<g id="graph0" class="graph" transform="scale(1 1) rotate(0) translate(4 504)">
<title>generate_stake_distribution</title>
<polygon fill="white" stroke="transparent" points="-4,4 -4,-504 506,-504 506,4 -4,4"/>
<!-- Node1 -->
<g id="node1" class="node">
<title>Node1</title>
<g id="a_node1"><a xlink:title=" ">
<polygon fill="#bfbfbf" stroke="black" points="0,-245 0,-266 182,-266 182,-245 0,-245"/>
<text text-anchor="middle" x="91" y="-252.4" font-family="Helvetica,sans-Serif" font-size="12.00">generate_stake_distribution</text>
</a>
</g>
</g>
<!-- Node2 -->
<g id="node2" class="node">
<title>Node2</title>
<g id="a_node2"><a xlink:href="../../da/d55/classstake__distribution__generator.html#a3bc8bc85a9a0696fa5e28a160084cf52" target="_top" xlink:title="Adds, for each party in the stake distribution, &lt;parameter v&gt; additional stake.">
<polygon fill="white" stroke="black" points="251.5,-465.5 251.5,-499.5 468.5,-499.5 468.5,-465.5 251.5,-465.5"/>
<text text-anchor="start" x="259.5" y="-485.9" font-family="Helvetica,sans-Serif" font-size="12.00">stake_distribution_generator::add</text>
<text text-anchor="middle" x="360" y="-472.9" font-family="Helvetica,sans-Serif" font-size="12.00">_to_stake_distribution</text>
</a>
</g>
</g>
<!-- Node1&#45;&gt;Node2 -->
<g id="edge1" class="edge">
<title>Node1&#45;&gt;Node2</title>
<path fill="none" stroke="midnightblue" d="M95.36,-266.36C106.52,-300.49 145.8,-406.22 218,-455.5 225.33,-460.5 233.35,-464.64 241.72,-468.04"/>
<polygon fill="midnightblue" stroke="midnightblue" points="240.71,-471.4 251.31,-471.59 243.14,-464.84 240.71,-471.4"/>
</g>
<!-- Node3 -->
<g id="node3" class="node">
<title>Node3</title>
<g id="a_node3"><a xlink:href="../../da/d55/classstake__distribution__generator.html#af5c65ab784b15f01894e7130cc0bb661" target="_top" xlink:title="Generates a constant stake distribution with the given parameters.">
<polygon fill="white" stroke="black" points="218,-425 218,-446 502,-446 502,-425 218,-425"/>
<text text-anchor="middle" x="360" y="-432.4" font-family="Helvetica,sans-Serif" font-size="12.00">stake_distribution_generator::constant_stake</text>
</a>
</g>
</g>
<!-- Node1&#45;&gt;Node3 -->
<g id="edge2" class="edge">
<title>Node1&#45;&gt;Node3</title>
<path fill="none" stroke="midnightblue" d="M96.91,-266.4C110.92,-296.12 154.26,-378.81 218,-415.5 221.52,-417.52 225.16,-419.37 228.9,-421.05"/>
<polygon fill="midnightblue" stroke="midnightblue" points="227.8,-424.39 238.39,-424.91 230.44,-417.9 227.8,-424.39"/>
</g>
<!-- Node4 -->
<g id="node4" class="node">
<title>Node4</title>
<g id="a_node4"><a xlink:href="../../da/d55/classstake__distribution__generator.html#a7d9491cb9cab713369ec6bfc8571e6d2" target="_top" xlink:title="Generates an exponential stake distribution with the given parameters, and where the sender is the he...">
<polygon fill="white" stroke="black" points="228,-371.5 228,-405.5 492,-405.5 492,-371.5 228,-371.5"/>
<text text-anchor="start" x="236" y="-391.9" font-family="Helvetica,sans-Serif" font-size="12.00">stake_distribution_generator::exponential</text>
<text text-anchor="middle" x="360" y="-378.9" font-family="Helvetica,sans-Serif" font-size="12.00">_heaviest_stake</text>
</a>
</g>
</g>
<!-- Node1&#45;&gt;Node4 -->
<g id="edge3" class="edge">
<title>Node1&#45;&gt;Node4</title>
<path fill="none" stroke="midnightblue" d="M100.85,-266.07C119.84,-287.96 166.93,-338.26 218,-362.5 222.16,-364.47 226.46,-366.3 230.84,-367.99"/>
<polygon fill="midnightblue" stroke="midnightblue" points="229.99,-371.4 240.59,-371.46 232.34,-364.81 229.99,-371.4"/>
</g>
<!-- Node5 -->
<g id="node5" class="node">
<title>Node5</title>
<g id="a_node5"><a xlink:href="../../da/d55/classstake__distribution__generator.html#a13516e17aa69d2c5bc08f27ca46a0e18" target="_top" xlink:title="Generates an exponential stake distribution with the given parameters, and where the sender is the li...">
<polygon fill="white" stroke="black" points="228,-318.5 228,-352.5 492,-352.5 492,-318.5 228,-318.5"/>
<text text-anchor="start" x="236" y="-338.9" font-family="Helvetica,sans-Serif" font-size="12.00">stake_distribution_generator::exponential</text>
<text text-anchor="middle" x="360" y="-325.9" font-family="Helvetica,sans-Serif" font-size="12.00">_lightest_stake</text>
</a>
</g>
</g>
<!-- Node1&#45;&gt;Node5 -->
<g id="edge4" class="edge">
<title>Node1&#45;&gt;Node5</title>
<path fill="none" stroke="midnightblue" d="M112.86,-266.15C137.42,-278.29 179.73,-297.93 218,-309.5 225.96,-311.91 234.25,-314.13 242.64,-316.17"/>
<polygon fill="midnightblue" stroke="midnightblue" points="241.99,-319.62 252.53,-318.49 243.59,-312.8 241.99,-319.62"/>
</g>
<!-- Node6 -->
<g id="node6" class="node">
<title>Node6</title>
<g id="a_node6"><a xlink:href="../../da/d55/classstake__distribution__generator.html#a0ea9a4e1e4ae36b4363cc6d1895ccddd" target="_top" xlink:title="Generates an exponential stake distribution with the given parameters, and where the sender is the pa...">
<polygon fill="white" stroke="black" points="228,-265.5 228,-299.5 492,-299.5 492,-265.5 228,-265.5"/>
<text text-anchor="start" x="236" y="-285.9" font-family="Helvetica,sans-Serif" font-size="12.00">stake_distribution_generator::exponential</text>
<text text-anchor="middle" x="360" y="-272.9" font-family="Helvetica,sans-Serif" font-size="12.00">_median_stake</text>
</a>
</g>
</g>
<!-- Node1&#45;&gt;Node6 -->
<g id="edge5" class="edge">
<title>Node1&#45;&gt;Node6</title>
<path fill="none" stroke="midnightblue" d="M182.02,-264.6C193.49,-265.76 205.45,-266.97 217.49,-268.19"/>
<polygon fill="midnightblue" stroke="midnightblue" points="217.31,-271.69 227.62,-269.21 218.02,-264.73 217.31,-271.69"/>
</g>
<!-- Node7 -->
<g id="node7" class="node">
<title>Node7</title>
<g id="a_node7"><a xlink:href="../../da/d55/classstake__distribution__generator.html#aabe7ac745502142170a455e778fb8f02" target="_top" xlink:title="Generates a few heavy stake distribution with the given parameters, and where the sender is the heavi...">
<polygon fill="white" stroke="black" points="252,-212.5 252,-246.5 468,-246.5 468,-212.5 252,-212.5"/>
<text text-anchor="start" x="260" y="-232.9" font-family="Helvetica,sans-Serif" font-size="12.00">stake_distribution_generator::few</text>
<text text-anchor="middle" x="360" y="-219.9" font-family="Helvetica,sans-Serif" font-size="12.00">_heavy_heavy_stake</text>
</a>
</g>
</g>
<!-- Node1&#45;&gt;Node7 -->
<g id="edge6" class="edge">
<title>Node1&#45;&gt;Node7</title>
<path fill="none" stroke="midnightblue" d="M182.02,-246.73C201.19,-244.87 221.7,-242.87 241.72,-240.92"/>
<polygon fill="midnightblue" stroke="midnightblue" points="242.2,-244.39 251.81,-239.94 241.52,-237.42 242.2,-244.39"/>
</g>
<!-- Node8 -->
<g id="node8" class="node">
<title>Node8</title>
<g id="a_node8"><a xlink:href="../../da/d55/classstake__distribution__generator.html#abb8a24681627c5acb7c5162cb8e75181" target="_top" xlink:title="Generates a few heavy stake distribution with the given parameters, and where the sender is the light...">
<polygon fill="white" stroke="black" points="252,-159.5 252,-193.5 468,-193.5 468,-159.5 252,-159.5"/>
<text text-anchor="start" x="260" y="-179.9" font-family="Helvetica,sans-Serif" font-size="12.00">stake_distribution_generator::few</text>
<text text-anchor="middle" x="360" y="-166.9" font-family="Helvetica,sans-Serif" font-size="12.00">_heavy_light_stake</text>
</a>
</g>
</g>
<!-- Node1&#45;&gt;Node8 -->
<g id="edge7" class="edge">
<title>Node1&#45;&gt;Node8</title>
<path fill="none" stroke="midnightblue" d="M113.81,-244.91C138.56,-233.27 180.36,-214.74 218,-203.5 227.31,-200.72 237.06,-198.16 246.9,-195.81"/>
<polygon fill="midnightblue" stroke="midnightblue" points="247.79,-199.2 256.75,-193.54 246.22,-192.38 247.79,-199.2"/>
</g>
<!-- Node9 -->
<g id="node9" class="node">
<title>Node9</title>
<g id="a_node9"><a xlink:href="../../da/d55/classstake__distribution__generator.html#aa118b134d691fb6392ec512bd3c01fa8" target="_top" xlink:title="Generates a stake distribution with the given number of parties, where the stake of each party is pic...">
<polygon fill="white" stroke="black" points="241,-106.5 241,-140.5 479,-140.5 479,-106.5 241,-106.5"/>
<text text-anchor="start" x="249" y="-126.9" font-family="Helvetica,sans-Serif" font-size="12.00">stake_distribution_generator::sample</text>
<text text-anchor="middle" x="360" y="-113.9" font-family="Helvetica,sans-Serif" font-size="12.00">_exponential_stake</text>
</a>
</g>
</g>
<!-- Node1&#45;&gt;Node9 -->
<g id="edge8" class="edge">
<title>Node1&#45;&gt;Node9</title>
<path fill="none" stroke="midnightblue" d="M101.21,-244.83C120.49,-223.24 167.55,-174.37 218,-150.5 223.07,-148.1 228.34,-145.92 233.73,-143.92"/>
<polygon fill="midnightblue" stroke="midnightblue" points="235.23,-147.11 243.55,-140.55 232.96,-140.49 235.23,-147.11"/>
</g>
<!-- Node10 -->
<g id="node10" class="node">
<title>Node10</title>
<g id="a_node10"><a xlink:href="../../da/d55/classstake__distribution__generator.html#ae268154266dd8211b2d0aa95572b174e" target="_top" xlink:title="Generates a stake distribution with the given number of parties, where the stake of each party is pic...">
<polygon fill="white" stroke="black" points="241,-53.5 241,-87.5 479,-87.5 479,-53.5 241,-53.5"/>
<text text-anchor="start" x="249" y="-73.9" font-family="Helvetica,sans-Serif" font-size="12.00">stake_distribution_generator::sample</text>
<text text-anchor="middle" x="360" y="-60.9" font-family="Helvetica,sans-Serif" font-size="12.00">_geometric_stake</text>
</a>
</g>
</g>
<!-- Node1&#45;&gt;Node10 -->
<g id="edge9" class="edge">
<title>Node1&#45;&gt;Node10</title>
<path fill="none" stroke="midnightblue" d="M97.04,-244.9C111.4,-215.95 155.54,-135.23 218,-97.5 222.24,-94.94 226.68,-92.61 231.25,-90.5"/>
<polygon fill="midnightblue" stroke="midnightblue" points="232.96,-93.57 240.81,-86.45 230.23,-87.12 232.96,-93.57"/>
</g>
<!-- Node11 -->
<g id="node11" class="node">
<title>Node11</title>
<g id="a_node11"><a xlink:href="../../da/d55/classstake__distribution__generator.html#a7ea2cb646581cf3bae6388cb3f712ef3" target="_top" xlink:title="Generates a stake distribution with the given number of parties, where the stake of each party is pic...">
<polygon fill="white" stroke="black" points="241,-0.5 241,-34.5 479,-34.5 479,-0.5 241,-0.5"/>
<text text-anchor="start" x="249" y="-20.9" font-family="Helvetica,sans-Serif" font-size="12.00">stake_distribution_generator::sample</text>
<text text-anchor="middle" x="360" y="-7.9" font-family="Helvetica,sans-Serif" font-size="12.00">_uniform_stake</text>
</a>
</g>
</g>
<!-- Node1&#45;&gt;Node11 -->
<g id="edge10" class="edge">
<title>Node1&#45;&gt;Node11</title>
<path fill="none" stroke="midnightblue" d="M95.02,-244.55C105.41,-209.13 143.2,-96.87 218,-44.5 222.29,-41.49 226.83,-38.8 231.55,-36.39"/>
<polygon fill="midnightblue" stroke="midnightblue" points="233.22,-39.47 240.81,-32.08 230.27,-33.12 233.22,-39.47"/>
</g>
</g>
</svg>
