<?xml version="1.0" encoding="UTF-8" standalone="no"?>
<!DOCTYPE svg PUBLIC "-//W3C//DTD SVG 1.1//EN"
 "http://www.w3.org/Graphics/SVG/1.1/DTD/svg11.dtd">
<!-- Generated by graphviz version 5.0.0 (0)
 -->
<!-- Title: run_command_parameters Pages: 1 -->
<svg width="373pt" height="190pt"
 viewBox="0.00 0.00 373.00 190.00" xmlns="http://www.w3.org/2000/svg" xmlns:xlink="http://www.w3.org/1999/xlink">
<g id="graph0" class="graph" transform="scale(1 1) rotate(0) translate(4 186)">
<title>run_command_parameters</title>
<polygon fill="white" stroke="transparent" points="-4,4 -4,-186 369,-186 369,4 -4,4"/>
<!-- Node1 -->
<g id="node1" class="node">
<title>Node1</title>
<g id="a_node1"><a xlink:title=" ">
<polygon fill="#bfbfbf" stroke="black" points="0,-80.5 0,-101.5 180,-101.5 180,-80.5 0,-80.5"/>
<text text-anchor="middle" x="90" y="-87.9" font-family="Helvetica,sans-Serif" font-size="12.00">run_command_parameters</text>
</a>
</g>
</g>
<!-- Node2 -->
<g id="node2" class="node">
<title>Node2</title>
<g id="a_node2"><a xlink:href="../../d6/d74/random__utils_8h.html#a1d7a32b3a4c548edb7d0a4f9d98345d2" target="_top" xlink:title="Initializes the randomness utility functions.">
<polygon fill="white" stroke="black" points="231.5,-160.5 231.5,-181.5 349.5,-181.5 349.5,-160.5 231.5,-160.5"/>
<text text-anchor="middle" x="290.5" y="-167.9" font-family="Helvetica,sans-Serif" font-size="12.00">init_random_utils</text>
</a>
</g>
</g>
<!-- Node1&#45;&gt;Node2 -->
<g id="edge1" class="edge">
<title>Node1&#45;&gt;Node2</title>
<path fill="none" stroke="midnightblue" d="M110.43,-101.7C134.61,-114.69 177.43,-136.63 216,-151 222.33,-153.36 229.06,-155.57 235.77,-157.6"/>
<polygon fill="midnightblue" stroke="midnightblue" points="234.98,-161.02 245.56,-160.45 236.93,-154.29 234.98,-161.02"/>
</g>
<!-- Node3 -->
<g id="node3" class="node">
<title>Node3</title>
<g id="a_node3"><a xlink:href="../../d1/dde/read__args_8h.html#a4d15e274f5db9e703aab8c9e3cecf8f4" target="_top" xlink:title="Prints the parameters for the run.">
<polygon fill="white" stroke="black" points="230,-120.5 230,-141.5 351,-141.5 351,-120.5 230,-120.5"/>
<text text-anchor="middle" x="290.5" y="-127.9" font-family="Helvetica,sans-Serif" font-size="12.00">print_parameters</text>
</a>
</g>
</g>
<!-- Node1&#45;&gt;Node3 -->
<g id="edge2" class="edge">
<title>Node1&#45;&gt;Node3</title>
<path fill="none" stroke="midnightblue" d="M143.15,-101.51C168.92,-106.7 200.21,-113.01 227.22,-118.45"/>
<polygon fill="midnightblue" stroke="midnightblue" points="226.86,-121.95 237.35,-120.49 228.24,-115.08 226.86,-121.95"/>
</g>
<!-- Node4 -->
<g id="node4" class="node">
<title>Node4</title>
<g id="a_node4"><a xlink:href="../../d1/dde/read__args_8h.html#a2531e6fc200c8f6d56040f8e8c9d9a4b" target="_top" xlink:title="Reads the input parameters.">
<polygon fill="white" stroke="black" points="230.5,-80.5 230.5,-101.5 350.5,-101.5 350.5,-80.5 230.5,-80.5"/>
<text text-anchor="middle" x="290.5" y="-87.9" font-family="Helvetica,sans-Serif" font-size="12.00">read_parameters</text>
</a>
</g>
</g>
<!-- Node1&#45;&gt;Node4 -->
<g id="edge3" class="edge">
<title>Node1&#45;&gt;Node4</title>
<path fill="none" stroke="midnightblue" d="M180.09,-91C193.51,-91 207.18,-91 220.1,-91"/>
<polygon fill="midnightblue" stroke="midnightblue" points="220.29,-94.5 230.29,-91 220.29,-87.5 220.29,-94.5"/>
</g>
<!-- Node5 -->
<g id="node5" class="node">
<title>Node5</title>
<g id="a_node5"><a xlink:href="../../df/d31/main__utils_8cc.html#a4a5dbbd7c40fe6e2edd8785be992bca6" target="_top" xlink:title="Prints the distribution name for a given set of flags (which represent a distribution).">
<polygon fill="white" stroke="black" points="216,-40.5 216,-61.5 365,-61.5 365,-40.5 216,-40.5"/>
<text text-anchor="middle" x="290.5" y="-47.9" font-family="Helvetica,sans-Serif" font-size="12.00">show_distribution_info</text>
</a>
</g>
</g>
<!-- Node1&#45;&gt;Node5 -->
<g id="edge4" class="edge">
<title>Node1&#45;&gt;Node5</title>
<path fill="none" stroke="midnightblue" d="M143.15,-80.49C168.92,-75.3 200.21,-68.99 227.22,-63.55"/>
<polygon fill="midnightblue" stroke="midnightblue" points="228.24,-66.92 237.35,-61.51 226.86,-60.05 228.24,-66.92"/>
</g>
<!-- Node6 -->
<g id="node6" class="node">
<title>Node6</title>
<g id="a_node6"><a xlink:href="../../df/d31/main__utils_8cc.html#ad1b6cbe8df7ce0708db2a999eabbc1f4" target="_top" xlink:title=" ">
<polygon fill="white" stroke="black" points="237,-0.5 237,-21.5 344,-21.5 344,-0.5 237,-0.5"/>
<text text-anchor="middle" x="290.5" y="-7.9" font-family="Helvetica,sans-Serif" font-size="12.00">show_run_data</text>
</a>
</g>
</g>
<!-- Node1&#45;&gt;Node6 -->
<g id="edge5" class="edge">
<title>Node1&#45;&gt;Node6</title>
<path fill="none" stroke="midnightblue" d="M110.43,-80.3C134.61,-67.31 177.43,-45.37 216,-31 222.33,-28.64 229.06,-26.43 235.77,-24.4"/>
<polygon fill="midnightblue" stroke="midnightblue" points="236.93,-27.71 245.56,-21.55 234.98,-20.98 236.93,-27.71"/>
</g>
</g>
</svg>
