<?xml version="1.0" encoding="UTF-8" standalone="no"?>
<!DOCTYPE svg PUBLIC "-//W3C//DTD SVG 1.1//EN"
 "http://www.w3.org/Graphics/SVG/1.1/DTD/svg11.dtd">
<!-- Generated by graphviz version 5.0.0 (0)
 -->
<!-- Title: main Pages: 1 -->
<svg width="456pt" height="190pt"
 viewBox="0.00 0.00 456.00 190.00" xmlns="http://www.w3.org/2000/svg" xmlns:xlink="http://www.w3.org/1999/xlink">
<g id="graph0" class="graph" transform="scale(1 1) rotate(0) translate(4 186)">
<title>main</title>
<polygon fill="white" stroke="transparent" points="-4,4 -4,-186 452,-186 452,4 -4,4"/>
<!-- Node1 -->
<g id="node1" class="node">
<title>Node1</title>
<g id="a_node1"><a xlink:title=" ">
<polygon fill="#bfbfbf" stroke="black" points="0,-120.5 0,-141.5 47,-141.5 47,-120.5 0,-120.5"/>
<text text-anchor="middle" x="23.5" y="-127.9" font-family="Helvetica,sans-Serif" font-size="12.00">main</text>
</a>
</g>
</g>
<!-- Node2 -->
<g id="node2" class="node">
<title>Node2</title>
<g id="a_node2"><a xlink:href="../../df/d31/main__utils_8cc.html#a02fd73d861ef2e4aabb38c0c9ff82947" target="_top" xlink:title="Runs initialization procedures.">
<polygon fill="white" stroke="black" points="155.5,-150.5 155.5,-171.5 190.5,-171.5 190.5,-150.5 155.5,-150.5"/>
<text text-anchor="middle" x="173" y="-157.9" font-family="Helvetica,sans-Serif" font-size="12.00">init</text>
</a>
</g>
</g>
<!-- Node1&#45;&gt;Node2 -->
<g id="edge1" class="edge">
<title>Node1&#45;&gt;Node2</title>
<path fill="none" stroke="midnightblue" d="M47.22,-135.62C73.74,-141.01 117.51,-149.92 145.53,-155.62"/>
<polygon fill="midnightblue" stroke="midnightblue" points="144.93,-159.07 155.43,-157.63 146.33,-152.21 144.93,-159.07"/>
</g>
<!-- Node4 -->
<g id="node4" class="node">
<title>Node4</title>
<g id="a_node4"><a xlink:href="../../df/d31/main__utils_8cc.html#a8f4afe28d9c87b5957823f96ebe7dd48" target="_top" xlink:title=" ">
<polygon fill="white" stroke="black" points="83,-100.5 83,-121.5 263,-121.5 263,-100.5 83,-100.5"/>
<text text-anchor="middle" x="173" y="-107.9" font-family="Helvetica,sans-Serif" font-size="12.00">run_command_parameters</text>
</a>
</g>
</g>
<!-- Node1&#45;&gt;Node4 -->
<g id="edge3" class="edge">
<title>Node1&#45;&gt;Node4</title>
<path fill="none" stroke="midnightblue" d="M47.22,-127.92C57.63,-126.51 70.69,-124.74 84.41,-122.88"/>
<polygon fill="midnightblue" stroke="midnightblue" points="85.06,-126.32 94.5,-121.51 84.12,-119.38 85.06,-126.32"/>
</g>
<!-- Node3 -->
<g id="node3" class="node">
<title>Node3</title>
<g id="a_node3"><a xlink:href="../../d6/d74/random__utils_8h.html#a1d7a32b3a4c548edb7d0a4f9d98345d2" target="_top" xlink:title="Initializes the randomness utility functions.">
<polygon fill="white" stroke="black" points="314.5,-160.5 314.5,-181.5 432.5,-181.5 432.5,-160.5 314.5,-160.5"/>
<text text-anchor="middle" x="373.5" y="-167.9" font-family="Helvetica,sans-Serif" font-size="12.00">init_random_utils</text>
</a>
</g>
</g>
<!-- Node2&#45;&gt;Node3 -->
<g id="edge2" class="edge">
<title>Node2&#45;&gt;Node3</title>
<path fill="none" stroke="midnightblue" d="M190.58,-161.84C215.41,-163.09 263.65,-165.52 304.23,-167.56"/>
<polygon fill="midnightblue" stroke="midnightblue" points="304.19,-171.06 314.36,-168.07 304.55,-164.07 304.19,-171.06"/>
</g>
<!-- Node4&#45;&gt;Node3 -->
<g id="edge4" class="edge">
<title>Node4&#45;&gt;Node3</title>
<path fill="none" stroke="midnightblue" d="M205.73,-121.58C230.93,-129.88 267.1,-141.56 299,-151 306.58,-153.24 314.62,-155.53 322.51,-157.71"/>
<polygon fill="midnightblue" stroke="midnightblue" points="321.79,-161.15 332.36,-160.42 323.64,-154.4 321.79,-161.15"/>
</g>
<!-- Node5 -->
<g id="node5" class="node">
<title>Node5</title>
<g id="a_node5"><a xlink:href="../../d1/dde/read__args_8h.html#a4d15e274f5db9e703aab8c9e3cecf8f4" target="_top" xlink:title="Prints the parameters for the run.">
<polygon fill="white" stroke="black" points="313,-120.5 313,-141.5 434,-141.5 434,-120.5 313,-120.5"/>
<text text-anchor="middle" x="373.5" y="-127.9" font-family="Helvetica,sans-Serif" font-size="12.00">print_parameters</text>
</a>
</g>
</g>
<!-- Node4&#45;&gt;Node5 -->
<g id="edge5" class="edge">
<title>Node4&#45;&gt;Node5</title>
<path fill="none" stroke="midnightblue" d="M263.09,-119.98C276.34,-121.31 289.85,-122.67 302.63,-123.96"/>
<polygon fill="midnightblue" stroke="midnightblue" points="302.41,-127.46 312.71,-124.98 303.11,-120.49 302.41,-127.46"/>
</g>
<!-- Node6 -->
<g id="node6" class="node">
<title>Node6</title>
<g id="a_node6"><a xlink:href="../../d1/dde/read__args_8h.html#a2531e6fc200c8f6d56040f8e8c9d9a4b" target="_top" xlink:title="Reads the input parameters.">
<polygon fill="white" stroke="black" points="313.5,-80.5 313.5,-101.5 433.5,-101.5 433.5,-80.5 313.5,-80.5"/>
<text text-anchor="middle" x="373.5" y="-87.9" font-family="Helvetica,sans-Serif" font-size="12.00">read_parameters</text>
</a>
</g>
</g>
<!-- Node4&#45;&gt;Node6 -->
<g id="edge6" class="edge">
<title>Node4&#45;&gt;Node6</title>
<path fill="none" stroke="midnightblue" d="M263.09,-102.02C276.51,-100.67 290.18,-99.29 303.1,-97.99"/>
<polygon fill="midnightblue" stroke="midnightblue" points="303.69,-101.45 313.29,-96.97 302.99,-94.49 303.69,-101.45"/>
</g>
<!-- Node7 -->
<g id="node7" class="node">
<title>Node7</title>
<g id="a_node7"><a xlink:href="../../df/d31/main__utils_8cc.html#a4a5dbbd7c40fe6e2edd8785be992bca6" target="_top" xlink:title="Prints the distribution name for a given set of flags (which represent a distribution).">
<polygon fill="white" stroke="black" points="299,-40.5 299,-61.5 448,-61.5 448,-40.5 299,-40.5"/>
<text text-anchor="middle" x="373.5" y="-47.9" font-family="Helvetica,sans-Serif" font-size="12.00">show_distribution_info</text>
</a>
</g>
</g>
<!-- Node4&#45;&gt;Node7 -->
<g id="edge7" class="edge">
<title>Node4&#45;&gt;Node7</title>
<path fill="none" stroke="midnightblue" d="M205.73,-100.42C230.93,-92.12 267.1,-80.44 299,-71 306.58,-68.76 314.62,-66.47 322.51,-64.29"/>
<polygon fill="midnightblue" stroke="midnightblue" points="323.64,-67.6 332.36,-61.58 321.79,-60.85 323.64,-67.6"/>
</g>
<!-- Node8 -->
<g id="node8" class="node">
<title>Node8</title>
<g id="a_node8"><a xlink:href="../../df/d31/main__utils_8cc.html#ad1b6cbe8df7ce0708db2a999eabbc1f4" target="_top" xlink:title=" ">
<polygon fill="white" stroke="black" points="320,-0.5 320,-21.5 427,-21.5 427,-0.5 320,-0.5"/>
<text text-anchor="middle" x="373.5" y="-7.9" font-family="Helvetica,sans-Serif" font-size="12.00">show_run_data</text>
</a>
</g>
</g>
<!-- Node4&#45;&gt;Node8 -->
<g id="edge8" class="edge">
<title>Node4&#45;&gt;Node8</title>
<path fill="none" stroke="midnightblue" d="M187.46,-100.41C209.55,-83.5 255.43,-50.33 299,-31 304.34,-28.63 310.03,-26.48 315.79,-24.55"/>
<polygon fill="midnightblue" stroke="midnightblue" points="317,-27.84 325.49,-21.5 314.9,-21.16 317,-27.84"/>
</g>
</g>
</svg>
