<?xml version="1.0" encoding="UTF-8" standalone="no"?>
<!DOCTYPE svg PUBLIC "-//W3C//DTD SVG 1.1//EN"
 "http://www.w3.org/Graphics/SVG/1.1/DTD/svg11.dtd">
<!-- Generated by graphviz version 5.0.0 (0)
 -->
<!-- Title: main Pages: 1 -->
<svg width="456pt" height="190pt"
 viewBox="0.00 0.00 456.00 190.00" xmlns="http://www.w3.org/2000/svg" xmlns:xlink="http://www.w3.org/1999/xlink">
<g id="graph0" class="graph" transform="scale(1 1) rotate(0) translate(4 186)">
<title>main</title>
<polygon fill="white" stroke="transparent" points="-4,4 -4,-186 452,-186 452,4 -4,4"/>
<!-- Node1 -->
<g id="node1" class="node">
<title>Node1</title>
<g id="a_node1"><a xlink:title=" ">
<polygon fill="#bfbfbf" stroke="black" points="0,-80.5 0,-101.5 47,-101.5 47,-80.5 0,-80.5"/>
<text text-anchor="middle" x="23.5" y="-87.9" font-family="Helvetica,sans-Serif" font-size="12.00">main</text>
</a>
</g>
</g>
<!-- Node2 -->
<g id="node2" class="node">
<title>Node2</title>
<g id="a_node2"><a xlink:href="../../df/d31/main__utils_8cc.html#a8f4afe28d9c87b5957823f96ebe7dd48" target="_top" xlink:title=" ">
<polygon fill="white" stroke="black" points="83,-80.5 83,-101.5 263,-101.5 263,-80.5 83,-80.5"/>
<text text-anchor="middle" x="173" y="-87.9" font-family="Helvetica,sans-Serif" font-size="12.00">run_command_parameters</text>
</a>
</g>
</g>
<!-- Node1&#45;&gt;Node2 -->
<g id="edge1" class="edge">
<title>Node1&#45;&gt;Node2</title>
<path fill="none" stroke="midnightblue" d="M47.22,-91C54.66,-91 63.46,-91 72.88,-91"/>
<polygon fill="midnightblue" stroke="midnightblue" points="72.9,-94.5 82.9,-91 72.9,-87.5 72.9,-94.5"/>
</g>
<!-- Node3 -->
<g id="node3" class="node">
<title>Node3</title>
<g id="a_node3"><a xlink:href="../../d6/d74/random__utils_8h.html#a1d7a32b3a4c548edb7d0a4f9d98345d2" target="_top" xlink:title="Initializes the randomness utility functions.">
<polygon fill="white" stroke="black" points="314.5,-160.5 314.5,-181.5 432.5,-181.5 432.5,-160.5 314.5,-160.5"/>
<text text-anchor="middle" x="373.5" y="-167.9" font-family="Helvetica,sans-Serif" font-size="12.00">init_random_utils</text>
</a>
</g>
</g>
<!-- Node2&#45;&gt;Node3 -->
<g id="edge2" class="edge">
<title>Node2&#45;&gt;Node3</title>
<path fill="none" stroke="midnightblue" d="M193.43,-101.7C217.61,-114.69 260.43,-136.63 299,-151 305.33,-153.36 312.06,-155.57 318.77,-157.6"/>
<polygon fill="midnightblue" stroke="midnightblue" points="317.98,-161.02 328.56,-160.45 319.93,-154.29 317.98,-161.02"/>
</g>
<!-- Node4 -->
<g id="node4" class="node">
<title>Node4</title>
<g id="a_node4"><a xlink:href="../../d1/dde/read__args_8h.html#a4d15e274f5db9e703aab8c9e3cecf8f4" target="_top" xlink:title="Prints the parameters for the run.">
<polygon fill="white" stroke="black" points="313,-120.5 313,-141.5 434,-141.5 434,-120.5 313,-120.5"/>
<text text-anchor="middle" x="373.5" y="-127.9" font-family="Helvetica,sans-Serif" font-size="12.00">print_parameters</text>
</a>
</g>
</g>
<!-- Node2&#45;&gt;Node4 -->
<g id="edge3" class="edge">
<title>Node2&#45;&gt;Node4</title>
<path fill="none" stroke="midnightblue" d="M226.15,-101.51C251.92,-106.7 283.21,-113.01 310.22,-118.45"/>
<polygon fill="midnightblue" stroke="midnightblue" points="309.86,-121.95 320.35,-120.49 311.24,-115.08 309.86,-121.95"/>
</g>
<!-- Node5 -->
<g id="node5" class="node">
<title>Node5</title>
<g id="a_node5"><a xlink:href="../../d1/dde/read__args_8h.html#a2531e6fc200c8f6d56040f8e8c9d9a4b" target="_top" xlink:title="Reads the input parameters.">
<polygon fill="white" stroke="black" points="313.5,-80.5 313.5,-101.5 433.5,-101.5 433.5,-80.5 313.5,-80.5"/>
<text text-anchor="middle" x="373.5" y="-87.9" font-family="Helvetica,sans-Serif" font-size="12.00">read_parameters</text>
</a>
</g>
</g>
<!-- Node2&#45;&gt;Node5 -->
<g id="edge4" class="edge">
<title>Node2&#45;&gt;Node5</title>
<path fill="none" stroke="midnightblue" d="M263.09,-91C276.51,-91 290.18,-91 303.1,-91"/>
<polygon fill="midnightblue" stroke="midnightblue" points="303.29,-94.5 313.29,-91 303.29,-87.5 303.29,-94.5"/>
</g>
<!-- Node6 -->
<g id="node6" class="node">
<title>Node6</title>
<g id="a_node6"><a xlink:href="../../df/d31/main__utils_8cc.html#a4a5dbbd7c40fe6e2edd8785be992bca6" target="_top" xlink:title="Prints the distribution name for a given set of flags (which represent a distribution).">
<polygon fill="white" stroke="black" points="299,-40.5 299,-61.5 448,-61.5 448,-40.5 299,-40.5"/>
<text text-anchor="middle" x="373.5" y="-47.9" font-family="Helvetica,sans-Serif" font-size="12.00">show_distribution_info</text>
</a>
</g>
</g>
<!-- Node2&#45;&gt;Node6 -->
<g id="edge5" class="edge">
<title>Node2&#45;&gt;Node6</title>
<path fill="none" stroke="midnightblue" d="M226.15,-80.49C251.92,-75.3 283.21,-68.99 310.22,-63.55"/>
<polygon fill="midnightblue" stroke="midnightblue" points="311.24,-66.92 320.35,-61.51 309.86,-60.05 311.24,-66.92"/>
</g>
<!-- Node7 -->
<g id="node7" class="node">
<title>Node7</title>
<g id="a_node7"><a xlink:href="../../df/d31/main__utils_8cc.html#ad1b6cbe8df7ce0708db2a999eabbc1f4" target="_top" xlink:title=" ">
<polygon fill="white" stroke="black" points="320,-0.5 320,-21.5 427,-21.5 427,-0.5 320,-0.5"/>
<text text-anchor="middle" x="373.5" y="-7.9" font-family="Helvetica,sans-Serif" font-size="12.00">show_run_data</text>
</a>
</g>
</g>
<!-- Node2&#45;&gt;Node7 -->
<g id="edge6" class="edge">
<title>Node2&#45;&gt;Node7</title>
<path fill="none" stroke="midnightblue" d="M193.43,-80.3C217.61,-67.31 260.43,-45.37 299,-31 305.33,-28.64 312.06,-26.43 318.77,-24.4"/>
<polygon fill="midnightblue" stroke="midnightblue" points="319.93,-27.71 328.56,-21.55 317.98,-20.98 319.93,-27.71"/>
</g>
</g>
</svg>
