<?xml version="1.0" encoding="UTF-8" standalone="no"?>
<!DOCTYPE svg PUBLIC "-//W3C//DTD SVG 1.1//EN"
 "http://www.w3.org/Graphics/SVG/1.1/DTD/svg11.dtd">
<!-- Generated by graphviz version 5.0.0 (0)
 -->
<!-- Title: /home/guilhermemtr/Dropbox/workspace/ETH&#45;Zurich/Projects/Weighted&#45;Flooding&#45;Simulator/include/corruptions_stake_protocol_simulator.h Pages: 1 -->
<svg width="734pt" height="230pt"
 viewBox="0.00 0.00 734.00 230.00" xmlns="http://www.w3.org/2000/svg" xmlns:xlink="http://www.w3.org/1999/xlink">
<g id="graph0" class="graph" transform="scale(1 1) rotate(0) translate(4 226)">
<title>/home/guilhermemtr/Dropbox/workspace/ETH&#45;Zurich/Projects/Weighted&#45;Flooding&#45;Simulator/include/corruptions_stake_protocol_simulator.h</title>
<polygon fill="white" stroke="transparent" points="-4,4 -4,-226 730,-226 730,4 -4,4"/>
<!-- Node1 -->
<g id="node1" class="node">
<title>Node1</title>
<g id="a_node1"><a xlink:title=" ">
<polygon fill="#bfbfbf" stroke="black" points="255,-174.5 255,-221.5 616,-221.5 616,-174.5 255,-174.5"/>
<text text-anchor="start" x="263" y="-207.9" font-family="Helvetica,sans-Serif" font-size="12.00">/home/guilhermemtr/Dropbox/workspace</text>
<text text-anchor="start" x="263" y="-194.9" font-family="Helvetica,sans-Serif" font-size="12.00">/ETH&#45;Zurich/Projects/Weighted&#45;Flooding</text>
<text text-anchor="middle" x="435.5" y="-181.9" font-family="Helvetica,sans-Serif" font-size="12.00">&#45;Simulator/include/corruptions_stake_protocol_simulator.h</text>
</a>
</g>
</g>
<!-- Node2 -->
<g id="node2" class="node">
<title>Node2</title>
<g id="a_node2"><a xlink:href="../../dc/d8d/protocol__simulator_8h.html" target="_top" xlink:title=" ">
<polygon fill="white" stroke="black" points="87,-116.5 87,-137.5 224,-137.5 224,-116.5 87,-116.5"/>
<text text-anchor="middle" x="155.5" y="-123.9" font-family="Helvetica,sans-Serif" font-size="12.00">protocol_simulator.h</text>
</a>
</g>
</g>
<!-- Node1&#45;&gt;Node2 -->
<g id="edge1" class="edge">
<title>Node1&#45;&gt;Node2</title>
<path fill="none" stroke="midnightblue" d="M343.82,-174.41C297.26,-162.93 242.58,-149.46 204.17,-139.99"/>
<polygon fill="midnightblue" stroke="midnightblue" points="204.82,-136.55 194.28,-137.56 203.15,-143.35 204.82,-136.55"/>
</g>
<!-- Node9 -->
<g id="node9" class="node">
<title>Node9</title>
<g id="a_node9"><a xlink:href="../../d0/d70/yal__log_8h.html" target="_top" xlink:title=" ">
<polygon fill="white" stroke="black" points="218,-58.5 218,-79.5 287,-79.5 287,-58.5 218,-58.5"/>
<text text-anchor="middle" x="252.5" y="-65.9" font-family="Helvetica,sans-Serif" font-size="12.00">yal_log.h</text>
</a>
</g>
</g>
<!-- Node1&#45;&gt;Node9 -->
<g id="edge16" class="edge">
<title>Node1&#45;&gt;Node9</title>
<path fill="none" stroke="midnightblue" d="M326.96,-174.46C306.34,-165.93 286.54,-154.18 271.5,-138 259.4,-124.98 254.91,-104.89 253.29,-89.91"/>
<polygon fill="midnightblue" stroke="midnightblue" points="256.76,-89.38 252.54,-79.67 249.78,-89.9 256.76,-89.38"/>
</g>
<!-- Node11 -->
<g id="node11" class="node">
<title>Node11</title>
<g id="a_node11"><a xlink:title=" ">
<polygon fill="white" stroke="#bfbfbf" points="280.5,-116.5 280.5,-137.5 344.5,-137.5 344.5,-116.5 280.5,-116.5"/>
<text text-anchor="middle" x="312.5" y="-123.9" font-family="Helvetica,sans-Serif" font-size="12.00">random</text>
</a>
</g>
</g>
<!-- Node1&#45;&gt;Node11 -->
<g id="edge10" class="edge">
<title>Node1&#45;&gt;Node11</title>
<path fill="none" stroke="midnightblue" d="M395.23,-174.41C376.6,-163.96 355.02,-151.85 338.57,-142.62"/>
<polygon fill="midnightblue" stroke="midnightblue" points="339.97,-139.4 329.53,-137.56 336.54,-145.5 339.97,-139.4"/>
</g>
<!-- Node12 -->
<g id="node12" class="node">
<title>Node12</title>
<g id="a_node12"><a xlink:title=" ">
<polygon fill="white" stroke="#bfbfbf" points="362.5,-116.5 362.5,-137.5 436.5,-137.5 436.5,-116.5 362.5,-116.5"/>
<text text-anchor="middle" x="399.5" y="-123.9" font-family="Helvetica,sans-Serif" font-size="12.00">algorithm</text>
</a>
</g>
</g>
<!-- Node1&#45;&gt;Node12 -->
<g id="edge11" class="edge">
<title>Node1&#45;&gt;Node12</title>
<path fill="none" stroke="midnightblue" d="M423.71,-174.41C419.05,-165.48 413.76,-155.34 409.32,-146.82"/>
<polygon fill="midnightblue" stroke="midnightblue" points="412.31,-144.98 404.58,-137.74 406.1,-148.22 412.31,-144.98"/>
</g>
<!-- Node13 -->
<g id="node13" class="node">
<title>Node13</title>
<g id="a_node13"><a xlink:title=" ">
<polygon fill="white" stroke="#bfbfbf" points="455,-116.5 455,-137.5 490,-137.5 490,-116.5 455,-116.5"/>
<text text-anchor="middle" x="472.5" y="-123.9" font-family="Helvetica,sans-Serif" font-size="12.00">set</text>
</a>
</g>
</g>
<!-- Node1&#45;&gt;Node13 -->
<g id="edge12" class="edge">
<title>Node1&#45;&gt;Node13</title>
<path fill="none" stroke="midnightblue" d="M447.62,-174.41C452.4,-165.48 457.84,-155.34 462.41,-146.82"/>
<polygon fill="midnightblue" stroke="midnightblue" points="465.64,-148.2 467.28,-137.74 459.47,-144.89 465.64,-148.2"/>
</g>
<!-- Node14 -->
<g id="node14" class="node">
<title>Node14</title>
<g id="a_node14"><a xlink:title=" ">
<polygon fill="white" stroke="#bfbfbf" points="508.5,-116.5 508.5,-137.5 584.5,-137.5 584.5,-116.5 508.5,-116.5"/>
<text text-anchor="middle" x="546.5" y="-123.9" font-family="Helvetica,sans-Serif" font-size="12.00">functional</text>
</a>
</g>
</g>
<!-- Node1&#45;&gt;Node14 -->
<g id="edge13" class="edge">
<title>Node1&#45;&gt;Node14</title>
<path fill="none" stroke="midnightblue" d="M471.85,-174.41C488.5,-164.06 507.77,-152.08 522.56,-142.88"/>
<polygon fill="midnightblue" stroke="midnightblue" points="524.48,-145.81 531.13,-137.56 520.79,-139.86 524.48,-145.81"/>
</g>
<!-- Node15 -->
<g id="node15" class="node">
<title>Node15</title>
<g id="a_node15"><a xlink:title=" ">
<polygon fill="white" stroke="#bfbfbf" points="602.5,-116.5 602.5,-137.5 652.5,-137.5 652.5,-116.5 602.5,-116.5"/>
<text text-anchor="middle" x="627.5" y="-123.9" font-family="Helvetica,sans-Serif" font-size="12.00">ctime</text>
</a>
</g>
</g>
<!-- Node1&#45;&gt;Node15 -->
<g id="edge14" class="edge">
<title>Node1&#45;&gt;Node15</title>
<path fill="none" stroke="midnightblue" d="M498.37,-174.41C529.79,-163.12 566.61,-149.88 592.87,-140.44"/>
<polygon fill="midnightblue" stroke="midnightblue" points="594.16,-143.7 602.39,-137.02 591.79,-137.11 594.16,-143.7"/>
</g>
<!-- Node16 -->
<g id="node16" class="node">
<title>Node16</title>
<g id="a_node16"><a xlink:title=" ">
<polygon fill="white" stroke="#bfbfbf" points="671,-116.5 671,-137.5 726,-137.5 726,-116.5 671,-116.5"/>
<text text-anchor="middle" x="698.5" y="-123.9" font-family="Helvetica,sans-Serif" font-size="12.00">cstdlib</text>
</a>
</g>
</g>
<!-- Node1&#45;&gt;Node16 -->
<g id="edge15" class="edge">
<title>Node1&#45;&gt;Node16</title>
<path fill="none" stroke="midnightblue" d="M522.47,-174.48C561.95,-164.21 609.49,-151.79 660.68,-138.2"/>
<polygon fill="midnightblue" stroke="midnightblue" points="661.86,-141.51 670.63,-135.56 660.06,-134.75 661.86,-141.51"/>
</g>
<!-- Node3 -->
<g id="node3" class="node">
<title>Node3</title>
<g id="a_node3"><a xlink:title=" ">
<polygon fill="white" stroke="#bfbfbf" points="0,-58.5 0,-79.5 49,-79.5 49,-58.5 0,-58.5"/>
<text text-anchor="middle" x="24.5" y="-65.9" font-family="Helvetica,sans-Serif" font-size="12.00">utility</text>
</a>
</g>
</g>
<!-- Node2&#45;&gt;Node3 -->
<g id="edge2" class="edge">
<title>Node2&#45;&gt;Node3</title>
<path fill="none" stroke="midnightblue" d="M132.98,-116.37C111.76,-107.3 79.77,-93.63 56.02,-83.48"/>
<polygon fill="midnightblue" stroke="midnightblue" points="57.3,-80.21 46.73,-79.5 54.55,-86.65 57.3,-80.21"/>
</g>
<!-- Node4 -->
<g id="node4" class="node">
<title>Node4</title>
<g id="a_node4"><a xlink:title=" ">
<polygon fill="white" stroke="#bfbfbf" points="67,-58.5 67,-79.5 114,-79.5 114,-58.5 67,-58.5"/>
<text text-anchor="middle" x="90.5" y="-65.9" font-family="Helvetica,sans-Serif" font-size="12.00">tuple</text>
</a>
</g>
</g>
<!-- Node2&#45;&gt;Node4 -->
<g id="edge3" class="edge">
<title>Node2&#45;&gt;Node4</title>
<path fill="none" stroke="midnightblue" d="M144.18,-116.25C134.58,-107.97 120.61,-95.94 109.33,-86.22"/>
<polygon fill="midnightblue" stroke="midnightblue" points="111.55,-83.52 101.69,-79.64 106.98,-88.82 111.55,-83.52"/>
</g>
<!-- Node5 -->
<g id="node5" class="node">
<title>Node5</title>
<g id="a_node5"><a xlink:href="../../d9/d49/types_8h.html" target="_top" xlink:title=" ">
<polygon fill="white" stroke="black" points="132.5,-58.5 132.5,-79.5 192.5,-79.5 192.5,-58.5 132.5,-58.5"/>
<text text-anchor="middle" x="162.5" y="-65.9" font-family="Helvetica,sans-Serif" font-size="12.00">types.h</text>
</a>
</g>
</g>
<!-- Node2&#45;&gt;Node5 -->
<g id="edge4" class="edge">
<title>Node2&#45;&gt;Node5</title>
<path fill="none" stroke="midnightblue" d="M156.72,-116.25C157.63,-108.94 158.91,-98.69 160.04,-89.7"/>
<polygon fill="midnightblue" stroke="midnightblue" points="163.53,-90 161.29,-79.64 156.58,-89.13 163.53,-90"/>
</g>
<!-- Node2&#45;&gt;Node9 -->
<g id="edge8" class="edge">
<title>Node2&#45;&gt;Node9</title>
<path fill="none" stroke="midnightblue" d="M172.4,-116.25C187.42,-107.57 209.6,-94.76 226.82,-84.82"/>
<polygon fill="midnightblue" stroke="midnightblue" points="228.89,-87.67 235.8,-79.64 225.39,-81.61 228.89,-87.67"/>
</g>
<!-- Node6 -->
<g id="node6" class="node">
<title>Node6</title>
<g id="a_node6"><a xlink:title=" ">
<polygon fill="white" stroke="#bfbfbf" points="29,-0.5 29,-21.5 84,-21.5 84,-0.5 29,-0.5"/>
<text text-anchor="middle" x="56.5" y="-7.9" font-family="Helvetica,sans-Serif" font-size="12.00">vector</text>
</a>
</g>
</g>
<!-- Node5&#45;&gt;Node6 -->
<g id="edge5" class="edge">
<title>Node5&#45;&gt;Node6</title>
<path fill="none" stroke="midnightblue" d="M144.04,-58.25C127.39,-49.45 102.7,-36.41 83.78,-26.41"/>
<polygon fill="midnightblue" stroke="midnightblue" points="85.23,-23.22 74.75,-21.64 81.96,-29.41 85.23,-23.22"/>
</g>
<!-- Node7 -->
<g id="node7" class="node">
<title>Node7</title>
<g id="a_node7"><a xlink:title=" ">
<polygon fill="white" stroke="#bfbfbf" points="102,-0.5 102,-21.5 163,-21.5 163,-0.5 102,-0.5"/>
<text text-anchor="middle" x="132.5" y="-7.9" font-family="Helvetica,sans-Serif" font-size="12.00">cstddef</text>
</a>
</g>
</g>
<!-- Node5&#45;&gt;Node7 -->
<g id="edge6" class="edge">
<title>Node5&#45;&gt;Node7</title>
<path fill="none" stroke="midnightblue" d="M157.27,-58.25C153.19,-50.62 147.39,-39.79 142.43,-30.53"/>
<polygon fill="midnightblue" stroke="midnightblue" points="145.47,-28.8 137.67,-21.64 139.3,-32.11 145.47,-28.8"/>
</g>
<!-- Node8 -->
<g id="node8" class="node">
<title>Node8</title>
<g id="a_node8"><a xlink:title=" ">
<polygon fill="white" stroke="#bfbfbf" points="181,-0.5 181,-21.5 236,-21.5 236,-0.5 181,-0.5"/>
<text text-anchor="middle" x="208.5" y="-7.9" font-family="Helvetica,sans-Serif" font-size="12.00">climits</text>
</a>
</g>
</g>
<!-- Node5&#45;&gt;Node8 -->
<g id="edge7" class="edge">
<title>Node5&#45;&gt;Node8</title>
<path fill="none" stroke="midnightblue" d="M170.51,-58.25C176.98,-50.38 186.24,-39.1 194,-29.65"/>
<polygon fill="midnightblue" stroke="midnightblue" points="196.94,-31.59 200.58,-21.64 191.53,-27.15 196.94,-31.59"/>
</g>
<!-- Node10 -->
<g id="node10" class="node">
<title>Node10</title>
<g id="a_node10"><a xlink:title=" ">
<polygon fill="white" stroke="#bfbfbf" points="254.5,-0.5 254.5,-21.5 310.5,-21.5 310.5,-0.5 254.5,-0.5"/>
<text text-anchor="middle" x="282.5" y="-7.9" font-family="Helvetica,sans-Serif" font-size="12.00">stdio.h</text>
</a>
</g>
</g>
<!-- Node9&#45;&gt;Node10 -->
<g id="edge9" class="edge">
<title>Node9&#45;&gt;Node10</title>
<path fill="none" stroke="midnightblue" d="M257.73,-58.25C261.81,-50.62 267.61,-39.79 272.57,-30.53"/>
<polygon fill="midnightblue" stroke="midnightblue" points="275.7,-32.11 277.33,-21.64 269.53,-28.8 275.7,-32.11"/>
</g>
</g>
</svg>
