<?xml version="1.0" encoding="UTF-8" standalone="no"?>
<!DOCTYPE svg PUBLIC "-//W3C//DTD SVG 1.1//EN"
 "http://www.w3.org/Graphics/SVG/1.1/DTD/svg11.dtd">
<!-- Generated by graphviz version 5.0.0 (0)
 -->
<!-- Title: include/corruptions_stake_protocol_simulator.h Pages: 1 -->
<svg width="734pt" height="217pt"
 viewBox="0.00 0.00 734.00 217.00" xmlns="http://www.w3.org/2000/svg" xmlns:xlink="http://www.w3.org/1999/xlink">
<g id="graph0" class="graph" transform="scale(1 1) rotate(0) translate(4 213)">
<title>include/corruptions_stake_protocol_simulator.h</title>
<polygon fill="white" stroke="transparent" points="-4,4 -4,-213 730,-213 730,4 -4,4"/>
<!-- Node1 -->
<g id="node1" class="node">
<title>Node1</title>
<g id="a_node1"><a xlink:title=" ">
<polygon fill="#bfbfbf" stroke="black" points="324,-174.5 324,-208.5 547,-208.5 547,-174.5 324,-174.5"/>
<text text-anchor="start" x="332" y="-194.9" font-family="Helvetica,sans-Serif" font-size="12.00">include/corruptions_stake_protocol</text>
<text text-anchor="middle" x="435.5" y="-181.9" font-family="Helvetica,sans-Serif" font-size="12.00">_simulator.h</text>
</a>
</g>
</g>
<!-- Node2 -->
<g id="node2" class="node">
<title>Node2</title>
<g id="a_node2"><a xlink:href="../../dc/d8d/protocol__simulator_8h.html" target="_top" xlink:title=" ">
<polygon fill="white" stroke="black" points="87,-116.5 87,-137.5 224,-137.5 224,-116.5 87,-116.5"/>
<text text-anchor="middle" x="155.5" y="-123.9" font-family="Helvetica,sans-Serif" font-size="12.00">protocol_simulator.h</text>
</a>
</g>
</g>
<!-- Node1&#45;&gt;Node2 -->
<g id="edge1" class="edge">
<title>Node1&#45;&gt;Node2</title>
<path fill="none" stroke="midnightblue" d="M363.76,-174.49C315.2,-163.65 252.15,-149.57 208.2,-139.76"/>
<polygon fill="midnightblue" stroke="midnightblue" points="208.81,-136.31 198.29,-137.55 207.29,-143.15 208.81,-136.31"/>
</g>
<!-- Node9 -->
<g id="node9" class="node">
<title>Node9</title>
<g id="a_node9"><a xlink:href="../../d0/d70/yal__log_8h.html" target="_top" xlink:title=" ">
<polygon fill="white" stroke="black" points="218,-58.5 218,-79.5 287,-79.5 287,-58.5 218,-58.5"/>
<text text-anchor="middle" x="252.5" y="-65.9" font-family="Helvetica,sans-Serif" font-size="12.00">yal_log.h</text>
</a>
</g>
</g>
<!-- Node1&#45;&gt;Node9 -->
<g id="edge16" class="edge">
<title>Node1&#45;&gt;Node9</title>
<path fill="none" stroke="midnightblue" d="M332.64,-174.45C310.05,-166.67 287.99,-155.12 271.5,-138 259.17,-125.2 254.71,-105.08 253.16,-90.04"/>
<polygon fill="midnightblue" stroke="midnightblue" points="256.63,-89.47 252.47,-79.73 249.65,-89.95 256.63,-89.47"/>
</g>
<!-- Node11 -->
<g id="node11" class="node">
<title>Node11</title>
<g id="a_node11"><a xlink:title=" ">
<polygon fill="white" stroke="#bfbfbf" points="280.5,-116.5 280.5,-137.5 344.5,-137.5 344.5,-116.5 280.5,-116.5"/>
<text text-anchor="middle" x="312.5" y="-123.9" font-family="Helvetica,sans-Serif" font-size="12.00">random</text>
</a>
</g>
</g>
<!-- Node1&#45;&gt;Node11 -->
<g id="edge10" class="edge">
<title>Node1&#45;&gt;Node11</title>
<path fill="none" stroke="midnightblue" d="M403.82,-174.4C384.22,-164.44 359.27,-151.77 340.41,-142.18"/>
<polygon fill="midnightblue" stroke="midnightblue" points="341.93,-139.03 331.43,-137.62 338.76,-145.27 341.93,-139.03"/>
</g>
<!-- Node12 -->
<g id="node12" class="node">
<title>Node12</title>
<g id="a_node12"><a xlink:title=" ">
<polygon fill="white" stroke="#bfbfbf" points="362.5,-116.5 362.5,-137.5 436.5,-137.5 436.5,-116.5 362.5,-116.5"/>
<text text-anchor="middle" x="399.5" y="-123.9" font-family="Helvetica,sans-Serif" font-size="12.00">algorithm</text>
</a>
</g>
</g>
<!-- Node1&#45;&gt;Node12 -->
<g id="edge11" class="edge">
<title>Node1&#45;&gt;Node12</title>
<path fill="none" stroke="midnightblue" d="M426.23,-174.4C421.33,-165.91 415.3,-155.43 410.21,-146.59"/>
<polygon fill="midnightblue" stroke="midnightblue" points="413.17,-144.72 405.14,-137.8 407.1,-148.21 413.17,-144.72"/>
</g>
<!-- Node13 -->
<g id="node13" class="node">
<title>Node13</title>
<g id="a_node13"><a xlink:title=" ">
<polygon fill="white" stroke="#bfbfbf" points="455,-116.5 455,-137.5 490,-137.5 490,-116.5 455,-116.5"/>
<text text-anchor="middle" x="472.5" y="-123.9" font-family="Helvetica,sans-Serif" font-size="12.00">set</text>
</a>
</g>
</g>
<!-- Node1&#45;&gt;Node13 -->
<g id="edge12" class="edge">
<title>Node1&#45;&gt;Node13</title>
<path fill="none" stroke="midnightblue" d="M445.03,-174.4C450.06,-165.91 456.26,-155.43 461.5,-146.59"/>
<polygon fill="midnightblue" stroke="midnightblue" points="464.62,-148.19 466.7,-137.8 458.59,-144.62 464.62,-148.19"/>
</g>
<!-- Node14 -->
<g id="node14" class="node">
<title>Node14</title>
<g id="a_node14"><a xlink:title=" ">
<polygon fill="white" stroke="#bfbfbf" points="508.5,-116.5 508.5,-137.5 584.5,-137.5 584.5,-116.5 508.5,-116.5"/>
<text text-anchor="middle" x="546.5" y="-123.9" font-family="Helvetica,sans-Serif" font-size="12.00">functional</text>
</a>
</g>
</g>
<!-- Node1&#45;&gt;Node14 -->
<g id="edge13" class="edge">
<title>Node1&#45;&gt;Node14</title>
<path fill="none" stroke="midnightblue" d="M464.09,-174.4C481.54,-164.58 503.67,-152.11 520.61,-142.58"/>
<polygon fill="midnightblue" stroke="midnightblue" points="522.42,-145.57 529.42,-137.62 518.99,-139.47 522.42,-145.57"/>
</g>
<!-- Node15 -->
<g id="node15" class="node">
<title>Node15</title>
<g id="a_node15"><a xlink:title=" ">
<polygon fill="white" stroke="#bfbfbf" points="602.5,-116.5 602.5,-137.5 652.5,-137.5 652.5,-116.5 602.5,-116.5"/>
<text text-anchor="middle" x="627.5" y="-123.9" font-family="Helvetica,sans-Serif" font-size="12.00">ctime</text>
</a>
</g>
</g>
<!-- Node1&#45;&gt;Node15 -->
<g id="edge14" class="edge">
<title>Node1&#45;&gt;Node15</title>
<path fill="none" stroke="midnightblue" d="M484.94,-174.4C518.69,-163.42 562.55,-149.14 592.66,-139.34"/>
<polygon fill="midnightblue" stroke="midnightblue" points="593.88,-142.62 602.31,-136.2 591.72,-135.97 593.88,-142.62"/>
</g>
<!-- Node16 -->
<g id="node16" class="node">
<title>Node16</title>
<g id="a_node16"><a xlink:title=" ">
<polygon fill="white" stroke="#bfbfbf" points="671,-116.5 671,-137.5 726,-137.5 726,-116.5 671,-116.5"/>
<text text-anchor="middle" x="698.5" y="-123.9" font-family="Helvetica,sans-Serif" font-size="12.00">cstdlib</text>
</a>
</g>
</g>
<!-- Node1&#45;&gt;Node16 -->
<g id="edge15" class="edge">
<title>Node1&#45;&gt;Node16</title>
<path fill="none" stroke="midnightblue" d="M507.41,-174.48C549.47,-164.96 603.8,-152.37 660.74,-138.13"/>
<polygon fill="midnightblue" stroke="midnightblue" points="661.8,-141.47 670.65,-135.64 660.1,-134.68 661.8,-141.47"/>
</g>
<!-- Node3 -->
<g id="node3" class="node">
<title>Node3</title>
<g id="a_node3"><a xlink:title=" ">
<polygon fill="white" stroke="#bfbfbf" points="0,-58.5 0,-79.5 49,-79.5 49,-58.5 0,-58.5"/>
<text text-anchor="middle" x="24.5" y="-65.9" font-family="Helvetica,sans-Serif" font-size="12.00">utility</text>
</a>
</g>
</g>
<!-- Node2&#45;&gt;Node3 -->
<g id="edge2" class="edge">
<title>Node2&#45;&gt;Node3</title>
<path fill="none" stroke="midnightblue" d="M132.98,-116.37C111.76,-107.3 79.77,-93.63 56.02,-83.48"/>
<polygon fill="midnightblue" stroke="midnightblue" points="57.3,-80.21 46.73,-79.5 54.55,-86.65 57.3,-80.21"/>
</g>
<!-- Node4 -->
<g id="node4" class="node">
<title>Node4</title>
<g id="a_node4"><a xlink:title=" ">
<polygon fill="white" stroke="#bfbfbf" points="67,-58.5 67,-79.5 114,-79.5 114,-58.5 67,-58.5"/>
<text text-anchor="middle" x="90.5" y="-65.9" font-family="Helvetica,sans-Serif" font-size="12.00">tuple</text>
</a>
</g>
</g>
<!-- Node2&#45;&gt;Node4 -->
<g id="edge3" class="edge">
<title>Node2&#45;&gt;Node4</title>
<path fill="none" stroke="midnightblue" d="M144.18,-116.25C134.58,-107.97 120.61,-95.94 109.33,-86.22"/>
<polygon fill="midnightblue" stroke="midnightblue" points="111.55,-83.52 101.69,-79.64 106.98,-88.82 111.55,-83.52"/>
</g>
<!-- Node5 -->
<g id="node5" class="node">
<title>Node5</title>
<g id="a_node5"><a xlink:href="../../d9/d49/types_8h.html" target="_top" xlink:title=" ">
<polygon fill="white" stroke="black" points="132.5,-58.5 132.5,-79.5 192.5,-79.5 192.5,-58.5 132.5,-58.5"/>
<text text-anchor="middle" x="162.5" y="-65.9" font-family="Helvetica,sans-Serif" font-size="12.00">types.h</text>
</a>
</g>
</g>
<!-- Node2&#45;&gt;Node5 -->
<g id="edge4" class="edge">
<title>Node2&#45;&gt;Node5</title>
<path fill="none" stroke="midnightblue" d="M156.72,-116.25C157.63,-108.94 158.91,-98.69 160.04,-89.7"/>
<polygon fill="midnightblue" stroke="midnightblue" points="163.53,-90 161.29,-79.64 156.58,-89.13 163.53,-90"/>
</g>
<!-- Node2&#45;&gt;Node9 -->
<g id="edge8" class="edge">
<title>Node2&#45;&gt;Node9</title>
<path fill="none" stroke="midnightblue" d="M172.4,-116.25C187.42,-107.57 209.6,-94.76 226.82,-84.82"/>
<polygon fill="midnightblue" stroke="midnightblue" points="228.89,-87.67 235.8,-79.64 225.39,-81.61 228.89,-87.67"/>
</g>
<!-- Node6 -->
<g id="node6" class="node">
<title>Node6</title>
<g id="a_node6"><a xlink:title=" ">
<polygon fill="white" stroke="#bfbfbf" points="29,-0.5 29,-21.5 84,-21.5 84,-0.5 29,-0.5"/>
<text text-anchor="middle" x="56.5" y="-7.9" font-family="Helvetica,sans-Serif" font-size="12.00">vector</text>
</a>
</g>
</g>
<!-- Node5&#45;&gt;Node6 -->
<g id="edge5" class="edge">
<title>Node5&#45;&gt;Node6</title>
<path fill="none" stroke="midnightblue" d="M144.04,-58.25C127.39,-49.45 102.7,-36.41 83.78,-26.41"/>
<polygon fill="midnightblue" stroke="midnightblue" points="85.23,-23.22 74.75,-21.64 81.96,-29.41 85.23,-23.22"/>
</g>
<!-- Node7 -->
<g id="node7" class="node">
<title>Node7</title>
<g id="a_node7"><a xlink:title=" ">
<polygon fill="white" stroke="#bfbfbf" points="102,-0.5 102,-21.5 163,-21.5 163,-0.5 102,-0.5"/>
<text text-anchor="middle" x="132.5" y="-7.9" font-family="Helvetica,sans-Serif" font-size="12.00">cstddef</text>
</a>
</g>
</g>
<!-- Node5&#45;&gt;Node7 -->
<g id="edge6" class="edge">
<title>Node5&#45;&gt;Node7</title>
<path fill="none" stroke="midnightblue" d="M157.27,-58.25C153.19,-50.62 147.39,-39.79 142.43,-30.53"/>
<polygon fill="midnightblue" stroke="midnightblue" points="145.47,-28.8 137.67,-21.64 139.3,-32.11 145.47,-28.8"/>
</g>
<!-- Node8 -->
<g id="node8" class="node">
<title>Node8</title>
<g id="a_node8"><a xlink:title=" ">
<polygon fill="white" stroke="#bfbfbf" points="181,-0.5 181,-21.5 236,-21.5 236,-0.5 181,-0.5"/>
<text text-anchor="middle" x="208.5" y="-7.9" font-family="Helvetica,sans-Serif" font-size="12.00">climits</text>
</a>
</g>
</g>
<!-- Node5&#45;&gt;Node8 -->
<g id="edge7" class="edge">
<title>Node5&#45;&gt;Node8</title>
<path fill="none" stroke="midnightblue" d="M170.51,-58.25C176.98,-50.38 186.24,-39.1 194,-29.65"/>
<polygon fill="midnightblue" stroke="midnightblue" points="196.94,-31.59 200.58,-21.64 191.53,-27.15 196.94,-31.59"/>
</g>
<!-- Node10 -->
<g id="node10" class="node">
<title>Node10</title>
<g id="a_node10"><a xlink:title=" ">
<polygon fill="white" stroke="#bfbfbf" points="254.5,-0.5 254.5,-21.5 310.5,-21.5 310.5,-0.5 254.5,-0.5"/>
<text text-anchor="middle" x="282.5" y="-7.9" font-family="Helvetica,sans-Serif" font-size="12.00">stdio.h</text>
</a>
</g>
</g>
<!-- Node9&#45;&gt;Node10 -->
<g id="edge9" class="edge">
<title>Node9&#45;&gt;Node10</title>
<path fill="none" stroke="midnightblue" d="M257.73,-58.25C261.81,-50.62 267.61,-39.79 272.57,-30.53"/>
<polygon fill="midnightblue" stroke="midnightblue" points="275.7,-32.11 277.33,-21.64 269.53,-28.8 275.7,-32.11"/>
</g>
</g>
</svg>
