<?xml version="1.0" encoding="UTF-8" standalone="no"?>
<!DOCTYPE svg PUBLIC "-//W3C//DTD SVG 1.1//EN"
 "http://www.w3.org/Graphics/SVG/1.1/DTD/svg11.dtd">
<!-- Generated by graphviz version 5.0.0 (0)
 -->
<!-- Title: include/abstract_send_protocol_simulator.h Pages: 1 -->
<!--zoomable 262 -->
<svg id="main" version="1.1" xmlns="http://www.w3.org/2000/svg" xmlns:xlink="http://www.w3.org/1999/xlink" xml:space="preserve" onload="init(evt)">
<style type="text/css"><![CDATA[
.edge:hover path { stroke: red; }
.edge:hover polygon { stroke: red; fill: red; }
]]></style>
<script type="text/javascript"><![CDATA[
var edges = document.getElementsByTagName('g');
if (edges && edges.length) {
  for (var i=0;i<edges.length;i++) {
    if (edges[i].id.substr(0,4)=='edge') {
      edges[i].setAttribute('class','edge');
    }
  }
}
]]></script>
        <defs>
                <circle id="rim" cx="0" cy="0" r="7"/>
                <circle id="rim2" cx="0" cy="0" r="3.5"/>
                <g id="zoomPlus">
                        <use xlink:href="#rim" fill="#404040">
                                <set attributeName="fill" to="#808080" begin="zoomplus.mouseover" end="zoomplus.mouseout"/>
                        </use>
                        <path d="M-4,0h8M0,-4v8" fill="none" stroke="white" stroke-width="1.5" pointer-events="none"/>
                </g>
                <g id="zoomMin">
                        <use xlink:href="#rim" fill="#404040">
                                <set attributeName="fill" to="#808080" begin="zoomminus.mouseover" end="zoomminus.mouseout"/>
                        </use>
                        <path d="M-4,0h8" fill="none" stroke="white" stroke-width="1.5" pointer-events="none"/>
                </g>
                <g id="dirArrow">
                        <path fill="none" stroke="white" stroke-width="1.5" d="M0,-3.0v7 M-2.5,-0.5L0,-3.0L2.5,-0.5"/>
                </g>
               <g id="resetDef">
                       <use xlink:href="#rim2" fill="#404040">
                               <set attributeName="fill" to="#808080" begin="reset.mouseover" end="reset.mouseout"/>
                       </use>
               </g>
        </defs>

<script type="text/javascript">
var viewWidth = 1035;
var viewHeight = 262;
var sectionId = 'dynsection-1';
</script>
<script xlink:href="../../svgpan.js"/>
<svg id="graph" class="graph">
<g id="viewport">
<title>include/abstract_send_protocol_simulator.h</title>
<polygon fill="white" stroke="transparent" points="-4,4 -4,-258 1030.5,-258 1030.5,4 -4,4"/>
<!-- Node1 -->
<g id="node1" class="node">
<title>Node1</title>
<g id="a_node1"><a xlink:title=" ">
<polygon fill="#bfbfbf" stroke="black" points="476,-232.5 476,-253.5 750,-253.5 750,-232.5 476,-232.5"/>
<text text-anchor="middle" x="613" y="-239.9" font-family="Helvetica,sans-Serif" font-size="12.00">include/abstract_send_protocol_simulator.h</text>
</a>
</g>
</g>
<!-- Node2 -->
<g id="node2" class="node">
<title>Node2</title>
<g id="a_node2"><a xlink:href="../../d8/d9d/k__out__protocol__simulator_8h.html" target="_top" xlink:title=" ">
<polygon fill="white" stroke="black" points="253,-174.5 253,-195.5 475,-195.5 475,-174.5 253,-174.5"/>
<text text-anchor="middle" x="364" y="-181.9" font-family="Helvetica,sans-Serif" font-size="12.00">include/k_out_protocol_simulator.h</text>
</a>
</g>
</g>
<!-- Node1&#45;&gt;Node2 -->
<g id="edge1" class="edge">
<title>Node1&#45;&gt;Node2</title>
<path fill="none" stroke="midnightblue" d="M560.72,-230.24C514.85,-219.93 448.99,-205.11 406.35,-195.52"/>
<polygon fill="midnightblue" stroke="midnightblue" points="559.95,-233.66 570.48,-232.44 561.49,-226.83 559.95,-233.66"/>
</g>
<!-- Node11 -->
<g id="node11" class="node">
<title>Node11</title>
<g id="a_node11"><a xlink:href="../../d5/d9b/send__protocol__simulator_8h.html" target="_top" xlink:title=" ">
<polygon fill="white" stroke="black" points="504,-174.5 504,-195.5 722,-195.5 722,-174.5 504,-174.5"/>
<text text-anchor="middle" x="613" y="-181.9" font-family="Helvetica,sans-Serif" font-size="12.00">include/send_protocol_simulator.h</text>
</a>
</g>
</g>
<!-- Node1&#45;&gt;Node11 -->
<g id="edge11" class="edge">
<title>Node1&#45;&gt;Node11</title>
<path fill="none" stroke="midnightblue" d="M613,-222.16C613,-213.16 613,-202.92 613,-195.64"/>
<polygon fill="midnightblue" stroke="midnightblue" points="609.5,-222.25 613,-232.25 616.5,-222.25 609.5,-222.25"/>
</g>
<!-- Node15 -->
<g id="node15" class="node">
<title>Node15</title>
<g id="a_node15"><a xlink:href="../../db/d9d/abstract__send__protocol__simulator_8cc.html" target="_top" xlink:title=" ">
<polygon fill="white" stroke="black" points="740,-174.5 740,-195.5 994,-195.5 994,-174.5 740,-174.5"/>
<text text-anchor="middle" x="867" y="-181.9" font-family="Helvetica,sans-Serif" font-size="12.00">src/abstract_send_protocol_simulator.cc</text>
</a>
</g>
</g>
<!-- Node1&#45;&gt;Node15 -->
<g id="edge17" class="edge">
<title>Node1&#45;&gt;Node15</title>
<path fill="none" stroke="midnightblue" d="M666.33,-230.24C713.12,-219.93 780.31,-205.11 823.8,-195.52"/>
<polygon fill="midnightblue" stroke="midnightblue" points="665.39,-226.87 656.38,-232.44 666.89,-233.7 665.39,-226.87"/>
</g>
<!-- Node3 -->
<g id="node3" class="node">
<title>Node3</title>
<g id="a_node3"><a xlink:href="../../dc/da4/hybrid__k__out__protocol__simulator_8h.html" target="_top" xlink:title=" ">
<polygon fill="white" stroke="black" points="0,-116.5 0,-137.5 266,-137.5 266,-116.5 0,-116.5"/>
<text text-anchor="middle" x="133" y="-123.9" font-family="Helvetica,sans-Serif" font-size="12.00">include/hybrid_k_out_protocol_simulator.h</text>
</a>
</g>
</g>
<!-- Node2&#45;&gt;Node3 -->
<g id="edge2" class="edge">
<title>Node2&#45;&gt;Node3</title>
<path fill="none" stroke="midnightblue" d="M314.7,-172.05C272.18,-161.74 211.59,-147.05 172.29,-137.52"/>
<polygon fill="midnightblue" stroke="midnightblue" points="314.01,-175.48 324.55,-174.44 315.66,-168.68 314.01,-175.48"/>
</g>
<!-- Node5 -->
<g id="node5" class="node">
<title>Node5</title>
<g id="a_node5"><a xlink:href="../../d0/d8b/main__utils_8h.html" target="_top" xlink:title=" ">
<polygon fill="white" stroke="black" points="366,-58.5 366,-79.5 482,-79.5 482,-58.5 366,-58.5"/>
<text text-anchor="middle" x="424" y="-65.9" font-family="Helvetica,sans-Serif" font-size="12.00">utils/main_utils.h</text>
</a>
</g>
</g>
<!-- Node2&#45;&gt;Node5 -->
<g id="edge10" class="edge">
<title>Node2&#45;&gt;Node5</title>
<path fill="none" stroke="midnightblue" d="M339.33,-168.62C320.79,-155.06 300.56,-134.62 313,-116 325.51,-97.27 347.23,-86.15 368.15,-79.56"/>
<polygon fill="midnightblue" stroke="midnightblue" points="337.39,-171.53 347.61,-174.33 341.37,-165.77 337.39,-171.53"/>
</g>
<!-- Node10 -->
<g id="node10" class="node">
<title>Node10</title>
<g id="a_node10"><a xlink:href="../../dd/d36/k__out__protocol__simulator_8cc.html" target="_top" xlink:title=" ">
<polygon fill="white" stroke="black" points="322.5,-116.5 322.5,-137.5 525.5,-137.5 525.5,-116.5 322.5,-116.5"/>
<text text-anchor="middle" x="424" y="-123.9" font-family="Helvetica,sans-Serif" font-size="12.00">src/k_out_protocol_simulator.cc</text>
</a>
</g>
</g>
<!-- Node2&#45;&gt;Node10 -->
<g id="edge9" class="edge">
<title>Node2&#45;&gt;Node10</title>
<path fill="none" stroke="midnightblue" d="M381.83,-167.36C392.21,-157.67 404.93,-145.8 413.67,-137.64"/>
<polygon fill="midnightblue" stroke="midnightblue" points="379.37,-164.86 374.45,-174.25 384.15,-169.98 379.37,-164.86"/>
</g>
<!-- Node4 -->
<g id="node4" class="node">
<title>Node4</title>
<g id="a_node4"><a xlink:href="../../da/d60/hybrid__k__out__protocol__simulator_8cc.html" target="_top" xlink:title=" ">
<polygon fill="white" stroke="black" points="10,-58.5 10,-79.5 256,-79.5 256,-58.5 10,-58.5"/>
<text text-anchor="middle" x="133" y="-65.9" font-family="Helvetica,sans-Serif" font-size="12.00">src/hybrid_k_out_protocol_simulator.cc</text>
</a>
</g>
</g>
<!-- Node3&#45;&gt;Node4 -->
<g id="edge3" class="edge">
<title>Node3&#45;&gt;Node4</title>
<path fill="none" stroke="midnightblue" d="M133,-106.16C133,-97.16 133,-86.92 133,-79.64"/>
<polygon fill="midnightblue" stroke="midnightblue" points="129.5,-106.25 133,-116.25 136.5,-106.25 129.5,-106.25"/>
</g>
<!-- Node3&#45;&gt;Node5 -->
<g id="edge4" class="edge">
<title>Node3&#45;&gt;Node5</title>
<path fill="none" stroke="midnightblue" d="M192.75,-114.5C246.41,-104.17 324.26,-89.19 374.51,-79.52"/>
<polygon fill="midnightblue" stroke="midnightblue" points="191.85,-111.11 182.69,-116.44 193.18,-117.98 191.85,-111.11"/>
</g>
<!-- Node6 -->
<g id="node6" class="node">
<title>Node6</title>
<g id="a_node6"><a xlink:href="../../d5/d37/benchmark_8cc.html" target="_top" xlink:title=" ">
<polygon fill="white" stroke="black" points="198,-0.5 198,-21.5 300,-21.5 300,-0.5 198,-0.5"/>
<text text-anchor="middle" x="249" y="-7.9" font-family="Helvetica,sans-Serif" font-size="12.00">benchmark.cc</text>
</a>
</g>
</g>
<!-- Node5&#45;&gt;Node6 -->
<g id="edge5" class="edge">
<title>Node5&#45;&gt;Node6</title>
<path fill="none" stroke="midnightblue" d="M384.39,-55.32C352.29,-45.05 307.78,-30.81 278.69,-21.5"/>
<polygon fill="midnightblue" stroke="midnightblue" points="383.33,-58.66 393.92,-58.37 385.46,-51.99 383.33,-58.66"/>
</g>
<!-- Node7 -->
<g id="node7" class="node">
<title>Node7</title>
<g id="a_node7"><a xlink:href="../../dd/d96/hybrid__main_8cc.html" target="_top" xlink:title=" ">
<polygon fill="white" stroke="black" points="318.5,-0.5 318.5,-21.5 425.5,-21.5 425.5,-0.5 318.5,-0.5"/>
<text text-anchor="middle" x="372" y="-7.9" font-family="Helvetica,sans-Serif" font-size="12.00">hybrid_main.cc</text>
</a>
</g>
</g>
<!-- Node5&#45;&gt;Node7 -->
<g id="edge6" class="edge">
<title>Node5&#45;&gt;Node7</title>
<path fill="none" stroke="midnightblue" d="M408.02,-50.79C399.12,-41.21 388.38,-29.64 380.95,-21.64"/>
<polygon fill="midnightblue" stroke="midnightblue" points="405.57,-53.3 414.94,-58.25 410.7,-48.54 405.57,-53.3"/>
</g>
<!-- Node8 -->
<g id="node8" class="node">
<title>Node8</title>
<g id="a_node8"><a xlink:href="../../d9/d0f/main_8cc.html" target="_top" xlink:title=" ">
<polygon fill="white" stroke="black" points="444,-0.5 444,-21.5 508,-21.5 508,-0.5 444,-0.5"/>
<text text-anchor="middle" x="476" y="-7.9" font-family="Helvetica,sans-Serif" font-size="12.00">main.cc</text>
</a>
</g>
</g>
<!-- Node5&#45;&gt;Node8 -->
<g id="edge7" class="edge">
<title>Node5&#45;&gt;Node8</title>
<path fill="none" stroke="midnightblue" d="M439.98,-50.79C448.88,-41.21 459.62,-29.64 467.05,-21.64"/>
<polygon fill="midnightblue" stroke="midnightblue" points="437.3,-48.54 433.06,-58.25 442.43,-53.3 437.3,-48.54"/>
</g>
<!-- Node9 -->
<g id="node9" class="node">
<title>Node9</title>
<g id="a_node9"><a xlink:href="../../df/d31/main__utils_8cc.html" target="_top" xlink:title=" ">
<polygon fill="white" stroke="black" points="526,-0.5 526,-21.5 648,-21.5 648,-0.5 526,-0.5"/>
<text text-anchor="middle" x="587" y="-7.9" font-family="Helvetica,sans-Serif" font-size="12.00">utils/main_utils.cc</text>
</a>
</g>
</g>
<!-- Node5&#45;&gt;Node9 -->
<g id="edge8" class="edge">
<title>Node5&#45;&gt;Node9</title>
<path fill="none" stroke="midnightblue" d="M461.67,-55.06C491.5,-44.81 532.49,-30.73 559.34,-21.5"/>
<polygon fill="midnightblue" stroke="midnightblue" points="460.34,-51.81 452.02,-58.37 462.62,-58.43 460.34,-51.81"/>
</g>
<!-- Node11&#45;&gt;Node5 -->
<g id="edge16" class="edge">
<title>Node11&#45;&gt;Node5</title>
<path fill="none" stroke="midnightblue" d="M596.45,-166.98C581.26,-152.08 557.6,-130.58 534,-116 508.47,-100.22 476.57,-87.56 453.71,-79.55"/>
<polygon fill="midnightblue" stroke="midnightblue" points="594.03,-169.51 603.57,-174.11 598.98,-164.56 594.03,-169.51"/>
</g>
<!-- Node12 -->
<g id="node12" class="node">
<title>Node12</title>
<g id="a_node12"><a xlink:href="../../de/dc2/hybrid__protocol__simulator_8h.html" target="_top" xlink:title=" ">
<polygon fill="white" stroke="black" points="582.5,-116.5 582.5,-137.5 809.5,-137.5 809.5,-116.5 582.5,-116.5"/>
<text text-anchor="middle" x="696" y="-123.9" font-family="Helvetica,sans-Serif" font-size="12.00">include/hybrid_protocol_simulator.h</text>
</a>
</g>
</g>
<!-- Node11&#45;&gt;Node12 -->
<g id="edge12" class="edge">
<title>Node11&#45;&gt;Node12</title>
<path fill="none" stroke="midnightblue" d="M635.99,-168.49C650.63,-158.61 669.14,-146.12 681.71,-137.64"/>
<polygon fill="midnightblue" stroke="midnightblue" points="633.79,-165.75 627.46,-174.25 637.7,-171.55 633.79,-165.75"/>
</g>
<!-- Node14 -->
<g id="node14" class="node">
<title>Node14</title>
<g id="a_node14"><a xlink:href="../../d9/d76/send__protocol__simulator_8cc.html" target="_top" xlink:title=" ">
<polygon fill="white" stroke="black" points="827.5,-116.5 827.5,-137.5 1026.5,-137.5 1026.5,-116.5 827.5,-116.5"/>
<text text-anchor="middle" x="927" y="-123.9" font-family="Helvetica,sans-Serif" font-size="12.00">src/send_protocol_simulator.cc</text>
</a>
</g>
</g>
<!-- Node11&#45;&gt;Node14 -->
<g id="edge15" class="edge">
<title>Node11&#45;&gt;Node14</title>
<path fill="none" stroke="midnightblue" d="M676.76,-172.63C734.68,-162.3 819.15,-147.23 873.6,-137.52"/>
<polygon fill="midnightblue" stroke="midnightblue" points="675.85,-169.24 666.62,-174.44 677.08,-176.13 675.85,-169.24"/>
</g>
<!-- Node12&#45;&gt;Node5 -->
<g id="edge14" class="edge">
<title>Node12&#45;&gt;Node5</title>
<path fill="none" stroke="midnightblue" d="M639.52,-114.37C589.39,-104.05 517.03,-89.15 470.26,-79.52"/>
<polygon fill="midnightblue" stroke="midnightblue" points="639.05,-117.85 649.55,-116.44 640.46,-110.99 639.05,-117.85"/>
</g>
<!-- Node13 -->
<g id="node13" class="node">
<title>Node13</title>
<g id="a_node13"><a xlink:href="../../df/dcd/hybrid__protocol__simulator_8cc.html" target="_top" xlink:title=" ">
<polygon fill="white" stroke="black" points="592,-58.5 592,-79.5 800,-79.5 800,-58.5 592,-58.5"/>
<text text-anchor="middle" x="696" y="-65.9" font-family="Helvetica,sans-Serif" font-size="12.00">src/hybrid_protocol_simulator.cc</text>
</a>
</g>
</g>
<!-- Node12&#45;&gt;Node13 -->
<g id="edge13" class="edge">
<title>Node12&#45;&gt;Node13</title>
<path fill="none" stroke="midnightblue" d="M696,-106.16C696,-97.16 696,-86.92 696,-79.64"/>
<polygon fill="midnightblue" stroke="midnightblue" points="692.5,-106.25 696,-116.25 699.5,-106.25 692.5,-106.25"/>
</g>
</g>
</svg>
        <g id="navigator" transform="translate(0 0)" fill="#404254">
                <rect fill="#f2f5e9" fill-opacity="0.5" stroke="#606060" stroke-width=".5" x="0" y="0" width="60" height="60"/>
                <use id="zoomplus" xlink:href="#zoomPlus" x="17" y="9" onmousedown="handleZoom(evt,'in')"/>
                <use id="zoomminus" xlink:href="#zoomMin" x="42" y="9" onmousedown="handleZoom(evt,'out')"/>
                <use id="reset" xlink:href="#resetDef" x="30" y="36" onmousedown="handleReset()"/>
                <g id="arrowUp" xlink:href="#dirArrow" transform="translate(30 24)" onmousedown="handlePan(0,-1)">
                  <use xlink:href="#rim" fill="#404040">
                        <set attributeName="fill" to="#808080" begin="arrowUp.mouseover" end="arrowUp.mouseout"/>
                  </use>
                  <path fill="none" stroke="white" stroke-width="1.5" d="M0,-3.0v7 M-2.5,-0.5L0,-3.0L2.5,-0.5"/>
                </g>
                <g id="arrowRight" xlink:href="#dirArrow" transform="rotate(90) translate(36 -43)" onmousedown="handlePan(1,0)">
                  <use xlink:href="#rim" fill="#404040">
                        <set attributeName="fill" to="#808080" begin="arrowRight.mouseover" end="arrowRight.mouseout"/>
                  </use>
                  <path fill="none" stroke="white" stroke-width="1.5" d="M0,-3.0v7 M-2.5,-0.5L0,-3.0L2.5,-0.5"/>
                </g>
                <g id="arrowDown" xlink:href="#dirArrow" transform="rotate(180) translate(-30 -48)" onmousedown="handlePan(0,1)">
                  <use xlink:href="#rim" fill="#404040">
                        <set attributeName="fill" to="#808080" begin="arrowDown.mouseover" end="arrowDown.mouseout"/>
                  </use>
                  <path fill="none" stroke="white" stroke-width="1.5" d="M0,-3.0v7 M-2.5,-0.5L0,-3.0L2.5,-0.5"/>
                </g>
                <g id="arrowLeft" xlink:href="#dirArrow" transform="rotate(270) translate(-36 17)" onmousedown="handlePan(-1,0)">
                  <use xlink:href="#rim" fill="#404040">
                        <set attributeName="fill" to="#808080" begin="arrowLeft.mouseover" end="arrowLeft.mouseout"/>
                  </use>
                  <path fill="none" stroke="white" stroke-width="1.5" d="M0,-3.0v7 M-2.5,-0.5L0,-3.0L2.5,-0.5"/>
                </g>
        </g>
        <svg viewBox="0 0 15 15" width="100%" height="30px" preserveAspectRatio="xMaxYMin meet">
         <g id="arrow_out" transform="scale(0.3 0.3)">
          <a xlink:href="abstract__send__protocol__simulator_8h__dep__incl_org.svg" target="_base">
           <rect id="button" ry="5" rx="5" y="6" x="6" height="38" width="38"
                fill="#f2f5e9" fill-opacity="0.5" stroke="#606060" stroke-width="1.0"/>
           <path id="arrow"
             d="M 11.500037,31.436501 C 11.940474,20.09759 22.043105,11.32322 32.158766,21.979434 L 37.068811,17.246167 C 37.068811,17.246167 37.088388,32 37.088388,32 L 22.160133,31.978069 C 22.160133,31.978069 26.997745,27.140456 26.997745,27.140456 C 18.528582,18.264221 13.291696,25.230495 11.500037,31.436501 z"
             style="fill:#404040;"/>
          </a>
         </g>
        </svg>
</svg>
