<?xml version="1.0" encoding="UTF-8" standalone="no"?>
<!DOCTYPE svg PUBLIC "-//W3C//DTD SVG 1.1//EN"
 "http://www.w3.org/Graphics/SVG/1.1/DTD/svg11.dtd">
<!-- Generated by graphviz version 5.0.0 (0)
 -->
<!-- Title: utils/io_stake_distribution.h Pages: 1 -->
<svg width="492pt" height="146pt"
 viewBox="0.00 0.00 491.50 146.00" xmlns="http://www.w3.org/2000/svg" xmlns:xlink="http://www.w3.org/1999/xlink">
<g id="graph0" class="graph" transform="scale(1 1) rotate(0) translate(4 142)">
<title>utils/io_stake_distribution.h</title>
<polygon fill="white" stroke="transparent" points="-4,4 -4,-142 487.5,-142 487.5,4 -4,4"/>
<!-- Node1 -->
<g id="node1" class="node">
<title>Node1</title>
<g id="a_node1"><a xlink:title=" ">
<polygon fill="#bfbfbf" stroke="black" points="87,-116.5 87,-137.5 264,-137.5 264,-116.5 87,-116.5"/>
<text text-anchor="middle" x="175.5" y="-123.9" font-family="Helvetica,sans-Serif" font-size="12.00">utils/io_stake_distribution.h</text>
</a>
</g>
</g>
<!-- Node2 -->
<g id="node2" class="node">
<title>Node2</title>
<g id="a_node2"><a xlink:href="../../db/dd2/io__stake__distribution_8cc.html" target="_top" xlink:title=" ">
<polygon fill="white" stroke="black" points="0,-58.5 0,-79.5 183,-79.5 183,-58.5 0,-58.5"/>
<text text-anchor="middle" x="91.5" y="-65.9" font-family="Helvetica,sans-Serif" font-size="12.00">utils/io_stake_distribution.cc</text>
</a>
</g>
</g>
<!-- Node1&#45;&gt;Node2 -->
<g id="edge1" class="edge">
<title>Node1&#45;&gt;Node2</title>
<path fill="none" stroke="midnightblue" d="M152.24,-110.49C137.41,-100.61 118.68,-88.12 105.96,-79.64"/>
<polygon fill="midnightblue" stroke="midnightblue" points="150.61,-113.61 160.87,-116.25 154.49,-107.79 150.61,-113.61"/>
</g>
<!-- Node3 -->
<g id="node3" class="node">
<title>Node3</title>
<g id="a_node3"><a xlink:href="../../d0/d8b/main__utils_8h.html" target="_top" xlink:title=" ">
<polygon fill="white" stroke="black" points="201.5,-58.5 201.5,-79.5 317.5,-79.5 317.5,-58.5 201.5,-58.5"/>
<text text-anchor="middle" x="259.5" y="-65.9" font-family="Helvetica,sans-Serif" font-size="12.00">utils/main_utils.h</text>
</a>
</g>
</g>
<!-- Node1&#45;&gt;Node3 -->
<g id="edge2" class="edge">
<title>Node1&#45;&gt;Node3</title>
<path fill="none" stroke="midnightblue" d="M198.76,-110.49C213.59,-100.61 232.32,-88.12 245.04,-79.64"/>
<polygon fill="midnightblue" stroke="midnightblue" points="196.51,-107.79 190.13,-116.25 200.39,-113.61 196.51,-107.79"/>
</g>
<!-- Node4 -->
<g id="node4" class="node">
<title>Node4</title>
<g id="a_node4"><a xlink:href="../../d5/d37/benchmark_8cc.html" target="_top" xlink:title=" ">
<polygon fill="white" stroke="black" points="33.5,-0.5 33.5,-21.5 135.5,-21.5 135.5,-0.5 33.5,-0.5"/>
<text text-anchor="middle" x="84.5" y="-7.9" font-family="Helvetica,sans-Serif" font-size="12.00">benchmark.cc</text>
</a>
</g>
</g>
<!-- Node3&#45;&gt;Node4 -->
<g id="edge3" class="edge">
<title>Node3&#45;&gt;Node4</title>
<path fill="none" stroke="midnightblue" d="M219.89,-55.32C187.79,-45.05 143.28,-30.81 114.19,-21.5"/>
<polygon fill="midnightblue" stroke="midnightblue" points="218.83,-58.66 229.42,-58.37 220.96,-51.99 218.83,-58.66"/>
</g>
<!-- Node5 -->
<g id="node5" class="node">
<title>Node5</title>
<g id="a_node5"><a xlink:href="../../dd/d96/hybrid__main_8cc.html" target="_top" xlink:title=" ">
<polygon fill="white" stroke="black" points="154,-0.5 154,-21.5 261,-21.5 261,-0.5 154,-0.5"/>
<text text-anchor="middle" x="207.5" y="-7.9" font-family="Helvetica,sans-Serif" font-size="12.00">hybrid_main.cc</text>
</a>
</g>
</g>
<!-- Node3&#45;&gt;Node5 -->
<g id="edge4" class="edge">
<title>Node3&#45;&gt;Node5</title>
<path fill="none" stroke="midnightblue" d="M243.52,-50.79C234.62,-41.21 223.88,-29.64 216.45,-21.64"/>
<polygon fill="midnightblue" stroke="midnightblue" points="241.07,-53.3 250.44,-58.25 246.2,-48.54 241.07,-53.3"/>
</g>
<!-- Node6 -->
<g id="node6" class="node">
<title>Node6</title>
<g id="a_node6"><a xlink:href="../../d9/d0f/main_8cc.html" target="_top" xlink:title=" ">
<polygon fill="white" stroke="black" points="279.5,-0.5 279.5,-21.5 343.5,-21.5 343.5,-0.5 279.5,-0.5"/>
<text text-anchor="middle" x="311.5" y="-7.9" font-family="Helvetica,sans-Serif" font-size="12.00">main.cc</text>
</a>
</g>
</g>
<!-- Node3&#45;&gt;Node6 -->
<g id="edge5" class="edge">
<title>Node3&#45;&gt;Node6</title>
<path fill="none" stroke="midnightblue" d="M275.48,-50.79C284.38,-41.21 295.12,-29.64 302.55,-21.64"/>
<polygon fill="midnightblue" stroke="midnightblue" points="272.8,-48.54 268.56,-58.25 277.93,-53.3 272.8,-48.54"/>
</g>
<!-- Node7 -->
<g id="node7" class="node">
<title>Node7</title>
<g id="a_node7"><a xlink:href="../../df/d31/main__utils_8cc.html" target="_top" xlink:title=" ">
<polygon fill="white" stroke="black" points="361.5,-0.5 361.5,-21.5 483.5,-21.5 483.5,-0.5 361.5,-0.5"/>
<text text-anchor="middle" x="422.5" y="-7.9" font-family="Helvetica,sans-Serif" font-size="12.00">utils/main_utils.cc</text>
</a>
</g>
</g>
<!-- Node3&#45;&gt;Node7 -->
<g id="edge6" class="edge">
<title>Node3&#45;&gt;Node7</title>
<path fill="none" stroke="midnightblue" d="M297.17,-55.06C327,-44.81 367.99,-30.73 394.84,-21.5"/>
<polygon fill="midnightblue" stroke="midnightblue" points="295.84,-51.81 287.52,-58.37 298.12,-58.43 295.84,-51.81"/>
</g>
</g>
</svg>
