<?xml version="1.0" encoding="UTF-8" standalone="no"?>
<!DOCTYPE svg PUBLIC "-//W3C//DTD SVG 1.1//EN"
 "http://www.w3.org/Graphics/SVG/1.1/DTD/svg11.dtd">
<!-- Generated by graphviz version 5.0.0 (0)
 -->
<!-- Title: get_corrupted_parties Pages: 1 -->
<svg width="356pt" height="70pt"
 viewBox="0.00 0.00 356.00 70.00" xmlns="http://www.w3.org/2000/svg" xmlns:xlink="http://www.w3.org/1999/xlink">
<g id="graph0" class="graph" transform="scale(1 1) rotate(0) translate(4 66)">
<title>get_corrupted_parties</title>
<polygon fill="white" stroke="transparent" points="-4,4 -4,-66 352,-66 352,4 -4,4"/>
<!-- Node1 -->
<g id="node1" class="node">
<title>Node1</title>
<g id="a_node1"><a xlink:title="Generates a corruption set.">
<polygon fill="#bfbfbf" stroke="black" points="0,-20.5 0,-41.5 147,-41.5 147,-20.5 0,-20.5"/>
<text text-anchor="middle" x="73.5" y="-27.9" font-family="Helvetica,sans-Serif" font-size="12.00">get_corrupted_parties</text>
</a>
</g>
</g>
<!-- Node2 -->
<g id="node2" class="node">
<title>Node2</title>
<g id="a_node2"><a xlink:href="../../d8/de7/corruptions__stake__protocol__simulator_8h.html#a0d8920b86a4be8609c9322366f4e65aa" target="_top" xlink:title="Outputs a vector of corruption flags for the given stake distribution, and taking into account the pa...">
<polygon fill="white" stroke="black" points="183,-40.5 183,-61.5 348,-61.5 348,-40.5 183,-40.5"/>
<text text-anchor="middle" x="265.5" y="-47.9" font-family="Helvetica,sans-Serif" font-size="12.00">corrupt_parties_by_stake</text>
</a>
</g>
</g>
<!-- Node1&#45;&gt;Node2 -->
<g id="edge1" class="edge">
<title>Node1&#45;&gt;Node2</title>
<path fill="none" stroke="midnightblue" d="M147.14,-38.65C155.5,-39.53 164.1,-40.43 172.67,-41.33"/>
<polygon fill="midnightblue" stroke="midnightblue" points="172.39,-44.82 182.7,-42.39 173.12,-37.86 172.39,-44.82"/>
</g>
<!-- Node3 -->
<g id="node3" class="node">
<title>Node3</title>
<g id="a_node3"><a xlink:href="../../d6/d74/random__utils_8h.html#a1a5ba40472fce10bb1af5db44829b97b" target="_top" xlink:title="Generates a new random generator with a fresh seed.">
<polygon fill="white" stroke="black" points="188,-0.5 188,-21.5 343,-21.5 343,-0.5 188,-0.5"/>
<text text-anchor="middle" x="265.5" y="-7.9" font-family="Helvetica,sans-Serif" font-size="12.00">get_random_generator</text>
</a>
</g>
</g>
<!-- Node1&#45;&gt;Node3 -->
<g id="edge2" class="edge">
<title>Node1&#45;&gt;Node3</title>
<path fill="none" stroke="midnightblue" d="M147.14,-23.35C157.12,-22.3 167.45,-21.22 177.65,-20.14"/>
<polygon fill="midnightblue" stroke="midnightblue" points="178.21,-23.6 187.79,-19.07 177.48,-16.64 178.21,-23.6"/>
</g>
</g>
</svg>
