<?xml version="1.0" encoding="UTF-8" standalone="no"?>
<!DOCTYPE svg PUBLIC "-//W3C//DTD SVG 1.1//EN"
 "http://www.w3.org/Graphics/SVG/1.1/DTD/svg11.dtd">
<!-- Generated by graphviz version 5.0.0 (0)
 -->
<!-- Title: run_tests Pages: 1 -->
<!--zoomable 589 -->
<svg id="main" version="1.1" xmlns="http://www.w3.org/2000/svg" xmlns:xlink="http://www.w3.org/1999/xlink" xml:space="preserve" onload="init(evt)">
<style type="text/css"><![CDATA[
.edge:hover path { stroke: red; }
.edge:hover polygon { stroke: red; fill: red; }
]]></style>
<script type="text/javascript"><![CDATA[
var edges = document.getElementsByTagName('g');
if (edges && edges.length) {
  for (var i=0;i<edges.length;i++) {
    if (edges[i].id.substr(0,4)=='edge') {
      edges[i].setAttribute('class','edge');
    }
  }
}
]]></script>
        <defs>
                <circle id="rim" cx="0" cy="0" r="7"/>
                <circle id="rim2" cx="0" cy="0" r="3.5"/>
                <g id="zoomPlus">
                        <use xlink:href="#rim" fill="#404040">
                                <set attributeName="fill" to="#808080" begin="zoomplus.mouseover" end="zoomplus.mouseout"/>
                        </use>
                        <path d="M-4,0h8M0,-4v8" fill="none" stroke="white" stroke-width="1.5" pointer-events="none"/>
                </g>
                <g id="zoomMin">
                        <use xlink:href="#rim" fill="#404040">
                                <set attributeName="fill" to="#808080" begin="zoomminus.mouseover" end="zoomminus.mouseout"/>
                        </use>
                        <path d="M-4,0h8" fill="none" stroke="white" stroke-width="1.5" pointer-events="none"/>
                </g>
                <g id="dirArrow">
                        <path fill="none" stroke="white" stroke-width="1.5" d="M0,-3.0v7 M-2.5,-0.5L0,-3.0L2.5,-0.5"/>
                </g>
               <g id="resetDef">
                       <use xlink:href="#rim2" fill="#404040">
                               <set attributeName="fill" to="#808080" begin="reset.mouseover" end="reset.mouseout"/>
                       </use>
               </g>
        </defs>

<script type="text/javascript">
var viewWidth = 674;
var viewHeight = 589;
var sectionId = 'dynsection-8';
</script>
<script xlink:href="../../svgpan.js"/>
<svg id="graph" class="graph">
<g id="viewport">
<title>run_tests</title>
<polygon fill="white" stroke="transparent" points="-4,4 -4,-584.5 670,-584.5 670,4 -4,4"/>
<!-- Node1 -->
<g id="node1" class="node">
<title>Node1</title>
<g id="a_node1"><a xlink:title="Runs tests for a fixed set of parameters.">
<polygon fill="#bfbfbf" stroke="black" points="0,-272.5 0,-293.5 71,-293.5 71,-272.5 0,-272.5"/>
<text text-anchor="middle" x="35.5" y="-279.9" font-family="Helvetica,sans-Serif" font-size="12.00">run_tests</text>
</a>
</g>
</g>
<!-- Node2 -->
<g id="node2" class="node">
<title>Node2</title>
<g id="a_node2"><a xlink:href="../../df/dcc/classcorruptions__stake__protocol__simulator.html#ac030d874258d12f52055090f009edf4f" target="_top" xlink:title="Sets the corruption flag of each party.">
<polygon fill="white" stroke="black" points="107,-353 107,-387 346,-387 346,-353 107,-353"/>
<text text-anchor="start" x="115" y="-373.4" font-family="Helvetica,sans-Serif" font-size="12.00">corruptions_stake_protocol_simulator</text>
<text text-anchor="middle" x="226.5" y="-360.4" font-family="Helvetica,sans-Serif" font-size="12.00">::corrupt_parties</text>
</a>
</g>
</g>
<!-- Node1&#45;&gt;Node2 -->
<g id="edge1" class="edge">
<title>Node1&#45;&gt;Node2</title>
<path fill="none" stroke="midnightblue" d="M45.87,-293.67C58.41,-307.25 82,-330.47 107,-343 111.66,-345.33 116.51,-347.47 121.5,-349.42"/>
<polygon fill="midnightblue" stroke="midnightblue" points="120.61,-352.82 131.2,-352.95 123,-346.24 120.61,-352.82"/>
</g>
<!-- Node3 -->
<g id="node3" class="node">
<title>Node3</title>
<g id="a_node3"><a xlink:href="../../da/d73/classprotocol__simulator.html#aa75378e2d279f5472917df08f0fe45fc" target="_top" xlink:title="Runs the protocol for up to bound rounds.">
<polygon fill="white" stroke="black" points="108,-312.5 108,-333.5 345,-333.5 345,-312.5 108,-312.5"/>
<text text-anchor="middle" x="226.5" y="-319.9" font-family="Helvetica,sans-Serif" font-size="12.00">protocol_simulator::execute_protocol</text>
</a>
</g>
</g>
<!-- Node1&#45;&gt;Node3 -->
<g id="edge2" class="edge">
<title>Node1&#45;&gt;Node3</title>
<path fill="none" stroke="midnightblue" d="M70.73,-293.52C82.19,-296.83 95.09,-300.31 107,-303 119.29,-305.77 132.37,-308.35 145.18,-310.67"/>
<polygon fill="midnightblue" stroke="midnightblue" points="144.93,-314.18 155.39,-312.47 146.15,-307.28 144.93,-314.18"/>
</g>
<!-- Node4 -->
<g id="node4" class="node">
<title>Node4</title>
<g id="a_node4"><a xlink:href="../../df/d31/main__utils_8cc.html#a3201d4e5bc0eff5d7dd5c0993b5aaa34" target="_top" xlink:title=" ">
<polygon fill="white" stroke="black" points="135.5,-272.5 135.5,-293.5 317.5,-293.5 317.5,-272.5 135.5,-272.5"/>
<text text-anchor="middle" x="226.5" y="-279.9" font-family="Helvetica,sans-Serif" font-size="12.00">generate_stake_distribution</text>
</a>
</g>
</g>
<!-- Node1&#45;&gt;Node4 -->
<g id="edge3" class="edge">
<title>Node1&#45;&gt;Node4</title>
<path fill="none" stroke="midnightblue" d="M71.17,-283C86.59,-283 105.63,-283 125.01,-283"/>
<polygon fill="midnightblue" stroke="midnightblue" points="125.16,-286.5 135.16,-283 125.16,-279.5 125.16,-286.5"/>
</g>
<!-- Node15 -->
<g id="node15" class="node">
<title>Node15</title>
<g id="a_node15"><a xlink:href="../../df/d31/main__utils_8cc.html#a17e1a5d2f144555f81b2bed8a6ca7cd4" target="_top" xlink:title="Generates a corruption set.">
<polygon fill="white" stroke="black" points="153,-149.5 153,-170.5 300,-170.5 300,-149.5 153,-149.5"/>
<text text-anchor="middle" x="226.5" y="-156.9" font-family="Helvetica,sans-Serif" font-size="12.00">get_corrupted_parties</text>
</a>
</g>
</g>
<!-- Node1&#45;&gt;Node15 -->
<g id="edge14" class="edge">
<title>Node1&#45;&gt;Node15</title>
<path fill="none" stroke="midnightblue" d="M52.94,-272.3C86.12,-250.71 161.24,-201.82 200.52,-176.26"/>
<polygon fill="midnightblue" stroke="midnightblue" points="202.76,-178.98 209.23,-170.59 198.94,-173.11 202.76,-178.98"/>
</g>
<!-- Node18 -->
<g id="node18" class="node">
<title>Node18</title>
<g id="a_node18"><a xlink:href="../../da/d73/classprotocol__simulator.html#a27b719452a52d3a45bfbbcdd0e1364e1" target="_top" xlink:title="Sets a sender.">
<polygon fill="white" stroke="black" points="126.5,-109.5 126.5,-130.5 326.5,-130.5 326.5,-109.5 126.5,-109.5"/>
<text text-anchor="middle" x="226.5" y="-116.9" font-family="Helvetica,sans-Serif" font-size="12.00">protocol_simulator::set_sender</text>
</a>
</g>
</g>
<!-- Node1&#45;&gt;Node18 -->
<g id="edge17" class="edge">
<title>Node1&#45;&gt;Node18</title>
<path fill="none" stroke="midnightblue" d="M38.36,-272.27C43.66,-245.2 61.49,-173.89 107,-140 110.25,-137.58 113.69,-135.41 117.27,-133.47"/>
<polygon fill="midnightblue" stroke="midnightblue" points="118.91,-136.57 126.43,-129.11 115.89,-130.25 118.91,-136.57"/>
</g>
<!-- Node5 -->
<g id="node5" class="node">
<title>Node5</title>
<g id="a_node5"><a xlink:href="../../da/d55/classstake__distribution__generator.html#a3bc8bc85a9a0696fa5e28a160084cf52" target="_top" xlink:title="Adds, for each party in the stake distribution, &lt;parameter v&gt; additional stake.">
<polygon fill="white" stroke="black" points="415.5,-546 415.5,-580 632.5,-580 632.5,-546 415.5,-546"/>
<text text-anchor="start" x="423.5" y="-566.4" font-family="Helvetica,sans-Serif" font-size="12.00">stake_distribution_generator::add</text>
<text text-anchor="middle" x="524" y="-553.4" font-family="Helvetica,sans-Serif" font-size="12.00">_to_stake_distribution</text>
</a>
</g>
</g>
<!-- Node4&#45;&gt;Node5 -->
<g id="edge4" class="edge">
<title>Node4&#45;&gt;Node5</title>
<path fill="none" stroke="midnightblue" d="M317.63,-285.72C328.24,-289.45 338.09,-294.98 346,-303 419.58,-377.61 309.25,-460.59 382,-536 388.87,-543.12 397,-548.68 405.84,-553"/>
<polygon fill="midnightblue" stroke="midnightblue" points="404.71,-556.32 415.28,-557.06 407.47,-549.89 404.71,-556.32"/>
</g>
<!-- Node6 -->
<g id="node6" class="node">
<title>Node6</title>
<g id="a_node6"><a xlink:href="../../da/d55/classstake__distribution__generator.html#af5c65ab784b15f01894e7130cc0bb661" target="_top" xlink:title="Generates a constant stake distribution with the given parameters.">
<polygon fill="white" stroke="black" points="382,-505.5 382,-526.5 666,-526.5 666,-505.5 382,-505.5"/>
<text text-anchor="middle" x="524" y="-512.9" font-family="Helvetica,sans-Serif" font-size="12.00">stake_distribution_generator::constant_stake</text>
</a>
</g>
</g>
<!-- Node4&#45;&gt;Node6 -->
<g id="edge5" class="edge">
<title>Node4&#45;&gt;Node6</title>
<path fill="none" stroke="midnightblue" d="M317.69,-286.06C328.23,-289.75 338.04,-295.18 346,-303 408.23,-364.17 318.97,-435.66 382,-496 383.29,-497.23 384.62,-498.41 385.98,-499.54"/>
<polygon fill="midnightblue" stroke="midnightblue" points="384.02,-502.44 394.17,-505.46 388.11,-496.77 384.02,-502.44"/>
</g>
<!-- Node7 -->
<g id="node7" class="node">
<title>Node7</title>
<g id="a_node7"><a xlink:href="../../da/d55/classstake__distribution__generator.html#a7d9491cb9cab713369ec6bfc8571e6d2" target="_top" xlink:title="Generates an exponential stake distribution with the given parameters, and where the sender is the he...">
<polygon fill="white" stroke="black" points="392,-452 392,-486 656,-486 656,-452 392,-452"/>
<text text-anchor="start" x="400" y="-472.4" font-family="Helvetica,sans-Serif" font-size="12.00">stake_distribution_generator::exponential</text>
<text text-anchor="middle" x="524" y="-459.4" font-family="Helvetica,sans-Serif" font-size="12.00">_heaviest_stake</text>
</a>
</g>
</g>
<!-- Node4&#45;&gt;Node7 -->
<g id="edge6" class="edge">
<title>Node4&#45;&gt;Node7</title>
<path fill="none" stroke="midnightblue" d="M317.51,-286.67C328.01,-290.28 337.86,-295.52 346,-303 393.31,-346.47 335.02,-399.17 382,-443 383,-443.93 384.02,-444.83 385.06,-445.71"/>
<polygon fill="midnightblue" stroke="midnightblue" points="383.3,-448.76 393.42,-451.91 387.47,-443.14 383.3,-448.76"/>
</g>
<!-- Node8 -->
<g id="node8" class="node">
<title>Node8</title>
<g id="a_node8"><a xlink:href="../../da/d55/classstake__distribution__generator.html#a13516e17aa69d2c5bc08f27ca46a0e18" target="_top" xlink:title="Generates an exponential stake distribution with the given parameters, and where the sender is the li...">
<polygon fill="white" stroke="black" points="392,-399 392,-433 656,-433 656,-399 392,-399"/>
<text text-anchor="start" x="400" y="-419.4" font-family="Helvetica,sans-Serif" font-size="12.00">stake_distribution_generator::exponential</text>
<text text-anchor="middle" x="524" y="-406.4" font-family="Helvetica,sans-Serif" font-size="12.00">_lightest_stake</text>
</a>
</g>
</g>
<!-- Node4&#45;&gt;Node8 -->
<g id="edge7" class="edge">
<title>Node4&#45;&gt;Node8</title>
<path fill="none" stroke="midnightblue" d="M317.76,-288.18C327.97,-291.59 337.68,-296.37 346,-303 378.73,-329.08 349.47,-363.67 382,-390 383.56,-391.26 385.16,-392.47 386.8,-393.63"/>
<polygon fill="midnightblue" stroke="midnightblue" points="384.97,-396.61 395.29,-398.99 388.71,-390.69 384.97,-396.61"/>
</g>
<!-- Node9 -->
<g id="node9" class="node">
<title>Node9</title>
<g id="a_node9"><a xlink:href="../../da/d55/classstake__distribution__generator.html#a0ea9a4e1e4ae36b4363cc6d1895ccddd" target="_top" xlink:title="Generates an exponential stake distribution with the given parameters, and where the sender is the pa...">
<polygon fill="white" stroke="black" points="392,-346 392,-380 656,-380 656,-346 392,-346"/>
<text text-anchor="start" x="400" y="-366.4" font-family="Helvetica,sans-Serif" font-size="12.00">stake_distribution_generator::exponential</text>
<text text-anchor="middle" x="524" y="-353.4" font-family="Helvetica,sans-Serif" font-size="12.00">_median_stake</text>
</a>
</g>
</g>
<!-- Node4&#45;&gt;Node9 -->
<g id="edge8" class="edge">
<title>Node4&#45;&gt;Node9</title>
<path fill="none" stroke="midnightblue" d="M317.62,-292.4C327.47,-295.12 337.13,-298.58 346,-303 365.7,-312.81 362.37,-327.04 382,-337 385.75,-338.9 389.61,-340.66 393.56,-342.3"/>
<polygon fill="midnightblue" stroke="midnightblue" points="392.33,-345.58 402.92,-345.89 394.84,-339.04 392.33,-345.58"/>
</g>
<!-- Node10 -->
<g id="node10" class="node">
<title>Node10</title>
<g id="a_node10"><a xlink:href="../../da/d55/classstake__distribution__generator.html#aabe7ac745502142170a455e778fb8f02" target="_top" xlink:title="Generates a few heavy stake distribution with the given parameters, and where the sender is the heavi...">
<polygon fill="white" stroke="black" points="416,-293 416,-327 632,-327 632,-293 416,-293"/>
<text text-anchor="start" x="424" y="-313.4" font-family="Helvetica,sans-Serif" font-size="12.00">stake_distribution_generator::few</text>
<text text-anchor="middle" x="524" y="-300.4" font-family="Helvetica,sans-Serif" font-size="12.00">_heavy_heavy_stake</text>
</a>
</g>
</g>
<!-- Node4&#45;&gt;Node10 -->
<g id="edge9" class="edge">
<title>Node4&#45;&gt;Node10</title>
<path fill="none" stroke="midnightblue" d="M317.77,-291.25C345.47,-293.78 376.38,-296.6 405.62,-299.28"/>
<polygon fill="midnightblue" stroke="midnightblue" points="405.61,-302.79 415.89,-300.21 406.25,-295.82 405.61,-302.79"/>
</g>
<!-- Node11 -->
<g id="node11" class="node">
<title>Node11</title>
<g id="a_node11"><a xlink:href="../../da/d55/classstake__distribution__generator.html#abb8a24681627c5acb7c5162cb8e75181" target="_top" xlink:title="Generates a few heavy stake distribution with the given parameters, and where the sender is the light...">
<polygon fill="white" stroke="black" points="416,-240 416,-274 632,-274 632,-240 416,-240"/>
<text text-anchor="start" x="424" y="-260.4" font-family="Helvetica,sans-Serif" font-size="12.00">stake_distribution_generator::few</text>
<text text-anchor="middle" x="524" y="-247.4" font-family="Helvetica,sans-Serif" font-size="12.00">_heavy_light_stake</text>
</a>
</g>
</g>
<!-- Node4&#45;&gt;Node11 -->
<g id="edge10" class="edge">
<title>Node4&#45;&gt;Node11</title>
<path fill="none" stroke="midnightblue" d="M317.77,-275.06C345.47,-272.62 376.38,-269.9 405.62,-267.33"/>
<polygon fill="midnightblue" stroke="midnightblue" points="406.24,-270.79 415.89,-266.42 405.62,-263.81 406.24,-270.79"/>
</g>
<!-- Node12 -->
<g id="node12" class="node">
<title>Node12</title>
<g id="a_node12"><a xlink:href="../../da/d55/classstake__distribution__generator.html#aa118b134d691fb6392ec512bd3c01fa8" target="_top" xlink:title="Generates a stake distribution with the given number of parties, where the stake of each party is pic...">
<polygon fill="white" stroke="black" points="405,-187 405,-221 643,-221 643,-187 405,-187"/>
<text text-anchor="start" x="413" y="-207.4" font-family="Helvetica,sans-Serif" font-size="12.00">stake_distribution_generator::sample</text>
<text text-anchor="middle" x="524" y="-194.4" font-family="Helvetica,sans-Serif" font-size="12.00">_exponential_stake</text>
</a>
</g>
</g>
<!-- Node4&#45;&gt;Node12 -->
<g id="edge11" class="edge">
<title>Node4&#45;&gt;Node12</title>
<path fill="none" stroke="midnightblue" d="M255.07,-272.46C285.71,-261.04 336.84,-242.87 382,-231 392.63,-228.21 403.78,-225.58 414.95,-223.13"/>
<polygon fill="midnightblue" stroke="midnightblue" points="415.72,-226.55 424.77,-221.04 414.26,-219.7 415.72,-226.55"/>
</g>
<!-- Node13 -->
<g id="node13" class="node">
<title>Node13</title>
<g id="a_node13"><a xlink:href="../../da/d55/classstake__distribution__generator.html#ae268154266dd8211b2d0aa95572b174e" target="_top" xlink:title="Generates a stake distribution with the given number of parties, where the stake of each party is pic...">
<polygon fill="white" stroke="black" points="405,-134 405,-168 643,-168 643,-134 405,-134"/>
<text text-anchor="start" x="413" y="-154.4" font-family="Helvetica,sans-Serif" font-size="12.00">stake_distribution_generator::sample</text>
<text text-anchor="middle" x="524" y="-141.4" font-family="Helvetica,sans-Serif" font-size="12.00">_geometric_stake</text>
</a>
</g>
</g>
<!-- Node4&#45;&gt;Node13 -->
<g id="edge12" class="edge">
<title>Node4&#45;&gt;Node13</title>
<path fill="none" stroke="midnightblue" d="M239.31,-272.41C263.91,-250.96 323.28,-202.35 382,-178 388.19,-175.43 394.63,-173.11 401.21,-171"/>
<polygon fill="midnightblue" stroke="midnightblue" points="402.36,-174.31 410.92,-168.07 400.34,-167.61 402.36,-174.31"/>
</g>
<!-- Node14 -->
<g id="node14" class="node">
<title>Node14</title>
<g id="a_node14"><a xlink:href="../../da/d55/classstake__distribution__generator.html#a7ea2cb646581cf3bae6388cb3f712ef3" target="_top" xlink:title="Generates a stake distribution with the given number of parties, where the stake of each party is pic...">
<polygon fill="white" stroke="black" points="405,-81 405,-115 643,-115 643,-81 405,-81"/>
<text text-anchor="start" x="413" y="-101.4" font-family="Helvetica,sans-Serif" font-size="12.00">stake_distribution_generator::sample</text>
<text text-anchor="middle" x="524" y="-88.4" font-family="Helvetica,sans-Serif" font-size="12.00">_uniform_stake</text>
</a>
</g>
</g>
<!-- Node4&#45;&gt;Node14 -->
<g id="edge13" class="edge">
<title>Node4&#45;&gt;Node14</title>
<path fill="none" stroke="midnightblue" d="M242.14,-272.39C265.73,-254.87 312.85,-218 346,-180 365.21,-157.99 357.73,-141.26 382,-125 386.29,-122.13 390.81,-119.54 395.49,-117.22"/>
<polygon fill="midnightblue" stroke="midnightblue" points="397.02,-120.37 404.68,-113.06 394.13,-113.99 397.02,-120.37"/>
</g>
<!-- Node16 -->
<g id="node16" class="node">
<title>Node16</title>
<g id="a_node16"><a xlink:href="../../d8/de7/corruptions__stake__protocol__simulator_8h.html#a0d8920b86a4be8609c9322366f4e65aa" target="_top" xlink:title="Outputs a vector of corruption flags for the given stake distribution, and taking into account the pa...">
<polygon fill="white" stroke="black" points="441.5,-40.5 441.5,-61.5 606.5,-61.5 606.5,-40.5 441.5,-40.5"/>
<text text-anchor="middle" x="524" y="-47.9" font-family="Helvetica,sans-Serif" font-size="12.00">corrupt_parties_by_stake</text>
</a>
</g>
</g>
<!-- Node15&#45;&gt;Node16 -->
<g id="edge15" class="edge">
<title>Node15&#45;&gt;Node16</title>
<path fill="none" stroke="midnightblue" d="M300.26,-158.32C316.45,-155.18 332.72,-149.59 346,-140 373.72,-119.98 354.09,-91.75 382,-72 396.35,-61.84 413.6,-55.7 431.03,-52.14"/>
<polygon fill="midnightblue" stroke="midnightblue" points="432.06,-55.51 441.3,-50.33 430.84,-48.62 432.06,-55.51"/>
</g>
<!-- Node17 -->
<g id="node17" class="node">
<title>Node17</title>
<g id="a_node17"><a xlink:href="../../d6/d74/random__utils_8h.html#a1a5ba40472fce10bb1af5db44829b97b" target="_top" xlink:title="Generates a new random generator with a fresh seed.">
<polygon fill="white" stroke="black" points="446.5,-0.5 446.5,-21.5 601.5,-21.5 601.5,-0.5 446.5,-0.5"/>
<text text-anchor="middle" x="524" y="-7.9" font-family="Helvetica,sans-Serif" font-size="12.00">get_random_generator</text>
</a>
</g>
</g>
<!-- Node15&#45;&gt;Node17 -->
<g id="edge16" class="edge">
<title>Node15&#45;&gt;Node17</title>
<path fill="none" stroke="midnightblue" d="M300.25,-160.12C316.81,-156.98 333.26,-150.94 346,-140 384.71,-106.76 342.86,-63.72 382,-31 397.25,-18.25 416.84,-11.53 436.52,-8.32"/>
<polygon fill="midnightblue" stroke="midnightblue" points="437.05,-11.78 446.49,-6.98 436.11,-4.85 437.05,-11.78"/>
</g>
</g>
</svg>
        <g id="navigator" transform="translate(0 0)" fill="#404254">
                <rect fill="#f2f5e9" fill-opacity="0.5" stroke="#606060" stroke-width=".5" x="0" y="0" width="60" height="60"/>
                <use id="zoomplus" xlink:href="#zoomPlus" x="17" y="9" onmousedown="handleZoom(evt,'in')"/>
                <use id="zoomminus" xlink:href="#zoomMin" x="42" y="9" onmousedown="handleZoom(evt,'out')"/>
                <use id="reset" xlink:href="#resetDef" x="30" y="36" onmousedown="handleReset()"/>
                <g id="arrowUp" xlink:href="#dirArrow" transform="translate(30 24)" onmousedown="handlePan(0,-1)">
                  <use xlink:href="#rim" fill="#404040">
                        <set attributeName="fill" to="#808080" begin="arrowUp.mouseover" end="arrowUp.mouseout"/>
                  </use>
                  <path fill="none" stroke="white" stroke-width="1.5" d="M0,-3.0v7 M-2.5,-0.5L0,-3.0L2.5,-0.5"/>
                </g>
                <g id="arrowRight" xlink:href="#dirArrow" transform="rotate(90) translate(36 -43)" onmousedown="handlePan(1,0)">
                  <use xlink:href="#rim" fill="#404040">
                        <set attributeName="fill" to="#808080" begin="arrowRight.mouseover" end="arrowRight.mouseout"/>
                  </use>
                  <path fill="none" stroke="white" stroke-width="1.5" d="M0,-3.0v7 M-2.5,-0.5L0,-3.0L2.5,-0.5"/>
                </g>
                <g id="arrowDown" xlink:href="#dirArrow" transform="rotate(180) translate(-30 -48)" onmousedown="handlePan(0,1)">
                  <use xlink:href="#rim" fill="#404040">
                        <set attributeName="fill" to="#808080" begin="arrowDown.mouseover" end="arrowDown.mouseout"/>
                  </use>
                  <path fill="none" stroke="white" stroke-width="1.5" d="M0,-3.0v7 M-2.5,-0.5L0,-3.0L2.5,-0.5"/>
                </g>
                <g id="arrowLeft" xlink:href="#dirArrow" transform="rotate(270) translate(-36 17)" onmousedown="handlePan(-1,0)">
                  <use xlink:href="#rim" fill="#404040">
                        <set attributeName="fill" to="#808080" begin="arrowLeft.mouseover" end="arrowLeft.mouseout"/>
                  </use>
                  <path fill="none" stroke="white" stroke-width="1.5" d="M0,-3.0v7 M-2.5,-0.5L0,-3.0L2.5,-0.5"/>
                </g>
        </g>
        <svg viewBox="0 0 15 15" width="100%" height="30px" preserveAspectRatio="xMaxYMin meet">
         <g id="arrow_out" transform="scale(0.3 0.3)">
          <a xlink:href="main__utils_8h_af2d36ae7089940a56b91b8191110db06_cgraph_org.svg" target="_base">
           <rect id="button" ry="5" rx="5" y="6" x="6" height="38" width="38"
                fill="#f2f5e9" fill-opacity="0.5" stroke="#606060" stroke-width="1.0"/>
           <path id="arrow"
             d="M 11.500037,31.436501 C 11.940474,20.09759 22.043105,11.32322 32.158766,21.979434 L 37.068811,17.246167 C 37.068811,17.246167 37.088388,32 37.088388,32 L 22.160133,31.978069 C 22.160133,31.978069 26.997745,27.140456 26.997745,27.140456 C 18.528582,18.264221 13.291696,25.230495 11.500037,31.436501 z"
             style="fill:#404040;"/>
          </a>
         </g>
        </svg>
</svg>
