<?xml version="1.0" encoding="UTF-8" standalone="no"?>
<!DOCTYPE svg PUBLIC "-//W3C//DTD SVG 1.1//EN"
 "http://www.w3.org/Graphics/SVG/1.1/DTD/svg11.dtd">
<!-- Generated by graphviz version 5.0.0 (0)
 -->
<!-- Title: /home/guilhermemtr/Dropbox/workspace/ETH&#45;Zurich/Projects/Weighted&#45;Flooding&#45;Simulator/include/abstract_receive_protocol_simulator.h Pages: 1 -->
<!--zoomable 288 -->
<svg id="main" version="1.1" xmlns="http://www.w3.org/2000/svg" xmlns:xlink="http://www.w3.org/1999/xlink" xml:space="preserve" onload="init(evt)">
<style type="text/css"><![CDATA[
.edge:hover path { stroke: red; }
.edge:hover polygon { stroke: red; fill: red; }
]]></style>
<script type="text/javascript"><![CDATA[
var edges = document.getElementsByTagName('g');
if (edges && edges.length) {
  for (var i=0;i<edges.length;i++) {
    if (edges[i].id.substr(0,4)=='edge') {
      edges[i].setAttribute('class','edge');
    }
  }
}
]]></script>
        <defs>
                <circle id="rim" cx="0" cy="0" r="7"/>
                <circle id="rim2" cx="0" cy="0" r="3.5"/>
                <g id="zoomPlus">
                        <use xlink:href="#rim" fill="#404040">
                                <set attributeName="fill" to="#808080" begin="zoomplus.mouseover" end="zoomplus.mouseout"/>
                        </use>
                        <path d="M-4,0h8M0,-4v8" fill="none" stroke="white" stroke-width="1.5" pointer-events="none"/>
                </g>
                <g id="zoomMin">
                        <use xlink:href="#rim" fill="#404040">
                                <set attributeName="fill" to="#808080" begin="zoomminus.mouseover" end="zoomminus.mouseout"/>
                        </use>
                        <path d="M-4,0h8" fill="none" stroke="white" stroke-width="1.5" pointer-events="none"/>
                </g>
                <g id="dirArrow">
                        <path fill="none" stroke="white" stroke-width="1.5" d="M0,-3.0v7 M-2.5,-0.5L0,-3.0L2.5,-0.5"/>
                </g>
               <g id="resetDef">
                       <use xlink:href="#rim2" fill="#404040">
                               <set attributeName="fill" to="#808080" begin="reset.mouseover" end="reset.mouseout"/>
                       </use>
               </g>
        </defs>

<script type="text/javascript">
var viewWidth = 1056;
var viewHeight = 288;
var sectionId = 'dynsection-0';
</script>
<script xlink:href="../../svgpan.js"/>
<svg id="graph" class="graph">
<g id="viewport">
<title>/home/guilhermemtr/Dropbox/workspace/ETH&#45;Zurich/Projects/Weighted&#45;Flooding&#45;Simulator/include/abstract_receive_protocol_simulator.h</title>
<polygon fill="white" stroke="transparent" points="-4,4 -4,-284 1052,-284 1052,4 -4,4"/>
<!-- Node1 -->
<g id="node1" class="node">
<title>Node1</title>
<g id="a_node1"><a xlink:title=" ">
<polygon fill="#bfbfbf" stroke="black" points="95,-232.5 95,-279.5 450,-279.5 450,-232.5 95,-232.5"/>
<text text-anchor="start" x="103" y="-265.9" font-family="Helvetica,sans-Serif" font-size="12.00">/home/guilhermemtr/Dropbox/workspace</text>
<text text-anchor="start" x="103" y="-252.9" font-family="Helvetica,sans-Serif" font-size="12.00">/ETH&#45;Zurich/Projects/Weighted&#45;Flooding</text>
<text text-anchor="middle" x="272.5" y="-239.9" font-family="Helvetica,sans-Serif" font-size="12.00">&#45;Simulator/include/abstract_receive_protocol_simulator.h</text>
</a>
</g>
</g>
<!-- Node2 -->
<g id="node2" class="node">
<title>Node2</title>
<g id="a_node2"><a xlink:title=" ">
<polygon fill="white" stroke="#bfbfbf" points="0,-0.5 0,-21.5 55,-21.5 55,-0.5 0,-0.5"/>
<text text-anchor="middle" x="27.5" y="-7.9" font-family="Helvetica,sans-Serif" font-size="12.00">vector</text>
</a>
</g>
</g>
<!-- Node1&#45;&gt;Node2 -->
<g id="edge1" class="edge">
<title>Node1&#45;&gt;Node2</title>
<path fill="none" stroke="midnightblue" d="M156.71,-232.42C104.07,-215.72 46.68,-187.01 15.5,-138 -5.43,-105.1 8.42,-57.27 18.89,-31.02"/>
<polygon fill="midnightblue" stroke="midnightblue" points="22.12,-32.36 22.79,-21.79 15.68,-29.64 22.12,-32.36"/>
</g>
<!-- Node3 -->
<g id="node3" class="node">
<title>Node3</title>
<g id="a_node3"><a xlink:title=" ">
<polygon fill="white" stroke="#bfbfbf" points="24.5,-116.5 24.5,-137.5 100.5,-137.5 100.5,-116.5 24.5,-116.5"/>
<text text-anchor="middle" x="62.5" y="-123.9" font-family="Helvetica,sans-Serif" font-size="12.00">functional</text>
</a>
</g>
</g>
<!-- Node1&#45;&gt;Node3 -->
<g id="edge2" class="edge">
<title>Node1&#45;&gt;Node3</title>
<path fill="none" stroke="midnightblue" d="M234.96,-232.29C192.29,-206.49 123.84,-165.1 87.33,-143.02"/>
<polygon fill="midnightblue" stroke="midnightblue" points="88.72,-139.77 78.35,-137.59 85.1,-145.76 88.72,-139.77"/>
</g>
<!-- Node4 -->
<g id="node4" class="node">
<title>Node4</title>
<g id="a_node4"><a xlink:href="../../d8/de7/corruptions__stake__protocol__simulator_8h.html" target="_top" xlink:title=" ">
<polygon fill="white" stroke="black" points="225.5,-174.5 225.5,-195.5 473.5,-195.5 473.5,-174.5 225.5,-174.5"/>
<text text-anchor="middle" x="349.5" y="-181.9" font-family="Helvetica,sans-Serif" font-size="12.00">corruptions_stake_protocol_simulator.h</text>
</a>
</g>
</g>
<!-- Node1&#45;&gt;Node4 -->
<g id="edge3" class="edge">
<title>Node1&#45;&gt;Node4</title>
<path fill="none" stroke="midnightblue" d="M297.71,-232.41C308.54,-222.7 320.97,-211.57 330.93,-202.64"/>
<polygon fill="midnightblue" stroke="midnightblue" points="333.52,-205.02 338.64,-195.74 328.85,-199.8 333.52,-205.02"/>
</g>
<!-- Node18 -->
<g id="node18" class="node">
<title>Node18</title>
<g id="a_node18"><a xlink:href="../../d6/d74/random__utils_8h.html" target="_top" xlink:title=" ">
<polygon fill="white" stroke="black" points="679,-174.5 679,-195.5 784,-195.5 784,-174.5 679,-174.5"/>
<text text-anchor="middle" x="731.5" y="-181.9" font-family="Helvetica,sans-Serif" font-size="12.00">random_utils.h</text>
</a>
</g>
</g>
<!-- Node1&#45;&gt;Node18 -->
<g id="edge20" class="edge">
<title>Node1&#45;&gt;Node18</title>
<path fill="none" stroke="midnightblue" d="M422.48,-232.45C505.96,-219.9 605.48,-204.94 668.57,-195.46"/>
<polygon fill="midnightblue" stroke="midnightblue" points="669.39,-198.88 678.76,-193.93 668.35,-191.95 669.39,-198.88"/>
</g>
<!-- Node4&#45;&gt;Node3 -->
<g id="edge16" class="edge">
<title>Node4&#45;&gt;Node3</title>
<path fill="none" stroke="midnightblue" d="M297.94,-174.43C251.49,-165.74 181.05,-152.38 110.64,-138.2"/>
<polygon fill="midnightblue" stroke="midnightblue" points="111.2,-134.75 100.71,-136.2 109.82,-141.61 111.2,-134.75"/>
</g>
<!-- Node5 -->
<g id="node5" class="node">
<title>Node5</title>
<g id="a_node5"><a xlink:href="../../dc/d8d/protocol__simulator_8h.html" target="_top" xlink:title=" ">
<polygon fill="white" stroke="black" points="119,-116.5 119,-137.5 256,-137.5 256,-116.5 119,-116.5"/>
<text text-anchor="middle" x="187.5" y="-123.9" font-family="Helvetica,sans-Serif" font-size="12.00">protocol_simulator.h</text>
</a>
</g>
</g>
<!-- Node4&#45;&gt;Node5 -->
<g id="edge4" class="edge">
<title>Node4&#45;&gt;Node5</title>
<path fill="none" stroke="midnightblue" d="M321.65,-174.37C294.83,-165.1 254.09,-151.02 224.54,-140.8"/>
<polygon fill="midnightblue" stroke="midnightblue" points="225.58,-137.46 214.99,-137.5 223.29,-144.08 225.58,-137.46"/>
</g>
<!-- Node11 -->
<g id="node11" class="node">
<title>Node11</title>
<g id="a_node11"><a xlink:href="../../d0/d70/yal__log_8h.html" target="_top" xlink:title=" ">
<polygon fill="white" stroke="black" points="250,-58.5 250,-79.5 319,-79.5 319,-58.5 250,-58.5"/>
<text text-anchor="middle" x="284.5" y="-65.9" font-family="Helvetica,sans-Serif" font-size="12.00">yal_log.h</text>
</a>
</g>
</g>
<!-- Node4&#45;&gt;Node11 -->
<g id="edge19" class="edge">
<title>Node4&#45;&gt;Node11</title>
<path fill="none" stroke="midnightblue" d="M336.77,-174.39C326.37,-165.91 312.05,-152.63 303.5,-138 294.81,-123.14 289.94,-104.11 287.31,-89.97"/>
<polygon fill="midnightblue" stroke="midnightblue" points="290.72,-89.15 285.65,-79.85 283.81,-90.28 290.72,-89.15"/>
</g>
<!-- Node13 -->
<g id="node13" class="node">
<title>Node13</title>
<g id="a_node13"><a xlink:title=" ">
<polygon fill="white" stroke="#bfbfbf" points="600.5,-116.5 600.5,-137.5 664.5,-137.5 664.5,-116.5 600.5,-116.5"/>
<text text-anchor="middle" x="632.5" y="-123.9" font-family="Helvetica,sans-Serif" font-size="12.00">random</text>
</a>
</g>
</g>
<!-- Node4&#45;&gt;Node13 -->
<g id="edge13" class="edge">
<title>Node4&#45;&gt;Node13</title>
<path fill="none" stroke="midnightblue" d="M403.24,-174.46C452.18,-165.6 526.36,-151.75 590.5,-138 590.6,-137.98 590.7,-137.96 590.8,-137.94"/>
<polygon fill="midnightblue" stroke="midnightblue" points="591.43,-141.38 600.43,-135.79 589.91,-134.55 591.43,-141.38"/>
</g>
<!-- Node14 -->
<g id="node14" class="node">
<title>Node14</title>
<g id="a_node14"><a xlink:title=" ">
<polygon fill="white" stroke="#bfbfbf" points="312.5,-116.5 312.5,-137.5 386.5,-137.5 386.5,-116.5 312.5,-116.5"/>
<text text-anchor="middle" x="349.5" y="-123.9" font-family="Helvetica,sans-Serif" font-size="12.00">algorithm</text>
</a>
</g>
</g>
<!-- Node4&#45;&gt;Node14 -->
<g id="edge14" class="edge">
<title>Node4&#45;&gt;Node14</title>
<path fill="none" stroke="midnightblue" d="M349.5,-174.25C349.5,-166.94 349.5,-156.69 349.5,-147.7"/>
<polygon fill="midnightblue" stroke="midnightblue" points="353,-147.64 349.5,-137.64 346,-147.64 353,-147.64"/>
</g>
<!-- Node15 -->
<g id="node15" class="node">
<title>Node15</title>
<g id="a_node15"><a xlink:title=" ">
<polygon fill="white" stroke="#bfbfbf" points="405,-116.5 405,-137.5 440,-137.5 440,-116.5 405,-116.5"/>
<text text-anchor="middle" x="422.5" y="-123.9" font-family="Helvetica,sans-Serif" font-size="12.00">set</text>
</a>
</g>
</g>
<!-- Node4&#45;&gt;Node15 -->
<g id="edge15" class="edge">
<title>Node4&#45;&gt;Node15</title>
<path fill="none" stroke="midnightblue" d="M362.22,-174.25C373.1,-165.89 388.99,-153.71 401.72,-143.94"/>
<polygon fill="midnightblue" stroke="midnightblue" points="404.13,-146.51 409.93,-137.64 399.87,-140.95 404.13,-146.51"/>
</g>
<!-- Node16 -->
<g id="node16" class="node">
<title>Node16</title>
<g id="a_node16"><a xlink:title=" ">
<polygon fill="white" stroke="#bfbfbf" points="458.5,-116.5 458.5,-137.5 508.5,-137.5 508.5,-116.5 458.5,-116.5"/>
<text text-anchor="middle" x="483.5" y="-123.9" font-family="Helvetica,sans-Serif" font-size="12.00">ctime</text>
</a>
</g>
</g>
<!-- Node4&#45;&gt;Node16 -->
<g id="edge17" class="edge">
<title>Node4&#45;&gt;Node16</title>
<path fill="none" stroke="midnightblue" d="M372.54,-174.37C394.24,-165.3 426.96,-151.63 451.25,-141.48"/>
<polygon fill="midnightblue" stroke="midnightblue" points="452.89,-144.59 460.77,-137.5 450.19,-138.13 452.89,-144.59"/>
</g>
<!-- Node17 -->
<g id="node17" class="node">
<title>Node17</title>
<g id="a_node17"><a xlink:title=" ">
<polygon fill="white" stroke="#bfbfbf" points="527,-116.5 527,-137.5 582,-137.5 582,-116.5 527,-116.5"/>
<text text-anchor="middle" x="554.5" y="-123.9" font-family="Helvetica,sans-Serif" font-size="12.00">cstdlib</text>
</a>
</g>
</g>
<!-- Node4&#45;&gt;Node17 -->
<g id="edge18" class="edge">
<title>Node4&#45;&gt;Node17</title>
<path fill="none" stroke="midnightblue" d="M384.74,-174.37C421.57,-164.31 479.15,-148.58 516.86,-138.28"/>
<polygon fill="midnightblue" stroke="midnightblue" points="518.21,-141.54 526.93,-135.53 516.36,-134.79 518.21,-141.54"/>
</g>
<!-- Node6 -->
<g id="node6" class="node">
<title>Node6</title>
<g id="a_node6"><a xlink:title=" ">
<polygon fill="white" stroke="#bfbfbf" points="32,-58.5 32,-79.5 81,-79.5 81,-58.5 32,-58.5"/>
<text text-anchor="middle" x="56.5" y="-65.9" font-family="Helvetica,sans-Serif" font-size="12.00">utility</text>
</a>
</g>
</g>
<!-- Node5&#45;&gt;Node6 -->
<g id="edge5" class="edge">
<title>Node5&#45;&gt;Node6</title>
<path fill="none" stroke="midnightblue" d="M164.98,-116.37C143.76,-107.3 111.77,-93.63 88.02,-83.48"/>
<polygon fill="midnightblue" stroke="midnightblue" points="89.3,-80.21 78.73,-79.5 86.55,-86.65 89.3,-80.21"/>
</g>
<!-- Node7 -->
<g id="node7" class="node">
<title>Node7</title>
<g id="a_node7"><a xlink:title=" ">
<polygon fill="white" stroke="#bfbfbf" points="99,-58.5 99,-79.5 146,-79.5 146,-58.5 99,-58.5"/>
<text text-anchor="middle" x="122.5" y="-65.9" font-family="Helvetica,sans-Serif" font-size="12.00">tuple</text>
</a>
</g>
</g>
<!-- Node5&#45;&gt;Node7 -->
<g id="edge6" class="edge">
<title>Node5&#45;&gt;Node7</title>
<path fill="none" stroke="midnightblue" d="M176.18,-116.25C166.58,-107.97 152.61,-95.94 141.33,-86.22"/>
<polygon fill="midnightblue" stroke="midnightblue" points="143.55,-83.52 133.69,-79.64 138.98,-88.82 143.55,-83.52"/>
</g>
<!-- Node8 -->
<g id="node8" class="node">
<title>Node8</title>
<g id="a_node8"><a xlink:href="../../d9/d49/types_8h.html" target="_top" xlink:title=" ">
<polygon fill="white" stroke="black" points="164.5,-58.5 164.5,-79.5 224.5,-79.5 224.5,-58.5 164.5,-58.5"/>
<text text-anchor="middle" x="194.5" y="-65.9" font-family="Helvetica,sans-Serif" font-size="12.00">types.h</text>
</a>
</g>
</g>
<!-- Node5&#45;&gt;Node8 -->
<g id="edge7" class="edge">
<title>Node5&#45;&gt;Node8</title>
<path fill="none" stroke="midnightblue" d="M188.72,-116.25C189.63,-108.94 190.91,-98.69 192.04,-89.7"/>
<polygon fill="midnightblue" stroke="midnightblue" points="195.53,-90 193.29,-79.64 188.58,-89.13 195.53,-90"/>
</g>
<!-- Node5&#45;&gt;Node11 -->
<g id="edge11" class="edge">
<title>Node5&#45;&gt;Node11</title>
<path fill="none" stroke="midnightblue" d="M204.4,-116.25C219.42,-107.57 241.6,-94.76 258.82,-84.82"/>
<polygon fill="midnightblue" stroke="midnightblue" points="260.89,-87.67 267.8,-79.64 257.39,-81.61 260.89,-87.67"/>
</g>
<!-- Node8&#45;&gt;Node2 -->
<g id="edge8" class="edge">
<title>Node8&#45;&gt;Node2</title>
<path fill="none" stroke="midnightblue" d="M165.79,-58.37C137.89,-49.02 95.38,-34.76 64.86,-24.53"/>
<polygon fill="midnightblue" stroke="midnightblue" points="65.6,-21.08 55,-21.22 63.37,-27.72 65.6,-21.08"/>
</g>
<!-- Node9 -->
<g id="node9" class="node">
<title>Node9</title>
<g id="a_node9"><a xlink:title=" ">
<polygon fill="white" stroke="#bfbfbf" points="96,-0.5 96,-21.5 157,-21.5 157,-0.5 96,-0.5"/>
<text text-anchor="middle" x="126.5" y="-7.9" font-family="Helvetica,sans-Serif" font-size="12.00">cstddef</text>
</a>
</g>
</g>
<!-- Node8&#45;&gt;Node9 -->
<g id="edge9" class="edge">
<title>Node8&#45;&gt;Node9</title>
<path fill="none" stroke="midnightblue" d="M182.66,-58.25C172.61,-49.97 158,-37.94 146.2,-28.22"/>
<polygon fill="midnightblue" stroke="midnightblue" points="148.15,-25.3 138.21,-21.64 143.7,-30.7 148.15,-25.3"/>
</g>
<!-- Node10 -->
<g id="node10" class="node">
<title>Node10</title>
<g id="a_node10"><a xlink:title=" ">
<polygon fill="white" stroke="#bfbfbf" points="175,-0.5 175,-21.5 230,-21.5 230,-0.5 175,-0.5"/>
<text text-anchor="middle" x="202.5" y="-7.9" font-family="Helvetica,sans-Serif" font-size="12.00">climits</text>
</a>
</g>
</g>
<!-- Node8&#45;&gt;Node10 -->
<g id="edge10" class="edge">
<title>Node8&#45;&gt;Node10</title>
<path fill="none" stroke="midnightblue" d="M195.89,-58.25C196.94,-50.94 198.4,-40.69 199.69,-31.7"/>
<polygon fill="midnightblue" stroke="midnightblue" points="203.17,-32.04 201.12,-21.64 196.24,-31.05 203.17,-32.04"/>
</g>
<!-- Node12 -->
<g id="node12" class="node">
<title>Node12</title>
<g id="a_node12"><a xlink:title=" ">
<polygon fill="white" stroke="#bfbfbf" points="256.5,-0.5 256.5,-21.5 312.5,-21.5 312.5,-0.5 256.5,-0.5"/>
<text text-anchor="middle" x="284.5" y="-7.9" font-family="Helvetica,sans-Serif" font-size="12.00">stdio.h</text>
</a>
</g>
</g>
<!-- Node11&#45;&gt;Node12 -->
<g id="edge12" class="edge">
<title>Node11&#45;&gt;Node12</title>
<path fill="none" stroke="midnightblue" d="M284.5,-58.25C284.5,-50.94 284.5,-40.69 284.5,-31.7"/>
<polygon fill="midnightblue" stroke="midnightblue" points="288,-31.64 284.5,-21.64 281,-31.64 288,-31.64"/>
</g>
<!-- Node18&#45;&gt;Node11 -->
<g id="edge24" class="edge">
<title>Node18&#45;&gt;Node11</title>
<path fill="none" stroke="midnightblue" d="M726.29,-174.08C717.62,-158.7 698.68,-129.47 673.5,-116 614.81,-84.61 418.43,-74.33 329.25,-71.23"/>
<polygon fill="midnightblue" stroke="midnightblue" points="329.28,-67.73 319.17,-70.89 329.05,-74.72 329.28,-67.73"/>
</g>
<!-- Node18&#45;&gt;Node13 -->
<g id="edge21" class="edge">
<title>Node18&#45;&gt;Node13</title>
<path fill="none" stroke="midnightblue" d="M714.26,-174.25C698.92,-165.57 676.28,-152.76 658.71,-142.82"/>
<polygon fill="midnightblue" stroke="midnightblue" points="659.97,-139.52 649.55,-137.64 656.53,-145.61 659.97,-139.52"/>
</g>
<!-- Node19 -->
<g id="node19" class="node">
<title>Node19</title>
<g id="a_node19"><a xlink:title=" ">
<polygon fill="white" stroke="#bfbfbf" points="720.5,-116.5 720.5,-137.5 822.5,-137.5 822.5,-116.5 720.5,-116.5"/>
<text text-anchor="middle" x="771.5" y="-123.9" font-family="Helvetica,sans-Serif" font-size="12.00">unordered_set</text>
</a>
</g>
</g>
<!-- Node18&#45;&gt;Node19 -->
<g id="edge22" class="edge">
<title>Node18&#45;&gt;Node19</title>
<path fill="none" stroke="midnightblue" d="M738.47,-174.25C744.03,-166.46 751.98,-155.33 758.68,-145.94"/>
<polygon fill="midnightblue" stroke="midnightblue" points="761.65,-147.81 764.61,-137.64 755.95,-143.75 761.65,-147.81"/>
</g>
<!-- Node20 -->
<g id="node20" class="node">
<title>Node20</title>
<g id="a_node20"><a xlink:title=" ">
<polygon fill="white" stroke="#bfbfbf" points="840.5,-116.5 840.5,-137.5 902.5,-137.5 902.5,-116.5 840.5,-116.5"/>
<text text-anchor="middle" x="871.5" y="-123.9" font-family="Helvetica,sans-Serif" font-size="12.00">string.h</text>
</a>
</g>
</g>
<!-- Node18&#45;&gt;Node20 -->
<g id="edge23" class="edge">
<title>Node18&#45;&gt;Node20</title>
<path fill="none" stroke="midnightblue" d="M755.57,-174.37C778.34,-165.26 812.73,-151.51 838.15,-141.34"/>
<polygon fill="midnightblue" stroke="midnightblue" points="839.76,-144.46 847.75,-137.5 837.16,-137.97 839.76,-144.46"/>
</g>
<!-- Node21 -->
<g id="node21" class="node">
<title>Node21</title>
<g id="a_node21"><a xlink:href="../../da/d10/scoped__lock_8h.html" target="_top" xlink:title=" ">
<polygon fill="white" stroke="black" points="921,-116.5 921,-137.5 1022,-137.5 1022,-116.5 921,-116.5"/>
<text text-anchor="middle" x="971.5" y="-123.9" font-family="Helvetica,sans-Serif" font-size="12.00">scoped_lock.h</text>
</a>
</g>
</g>
<!-- Node18&#45;&gt;Node21 -->
<g id="edge25" class="edge">
<title>Node18&#45;&gt;Node21</title>
<path fill="none" stroke="midnightblue" d="M772.48,-174.44C813.47,-164.87 876.6,-150.14 920.74,-139.85"/>
<polygon fill="midnightblue" stroke="midnightblue" points="921.74,-143.2 930.68,-137.52 920.15,-136.39 921.74,-143.2"/>
</g>
<!-- Node22 -->
<g id="node22" class="node">
<title>Node22</title>
<g id="a_node22"><a xlink:title=" ">
<polygon fill="white" stroke="#bfbfbf" points="890.5,-58.5 890.5,-79.5 964.5,-79.5 964.5,-58.5 890.5,-58.5"/>
<text text-anchor="middle" x="927.5" y="-65.9" font-family="Helvetica,sans-Serif" font-size="12.00">pthread.h</text>
</a>
</g>
</g>
<!-- Node21&#45;&gt;Node22 -->
<g id="edge26" class="edge">
<title>Node21&#45;&gt;Node22</title>
<path fill="none" stroke="midnightblue" d="M963.84,-116.25C957.65,-108.38 948.79,-97.1 941.37,-87.65"/>
<polygon fill="midnightblue" stroke="midnightblue" points="944.01,-85.34 935.08,-79.64 938.5,-89.67 944.01,-85.34"/>
</g>
<!-- Node23 -->
<g id="node23" class="node">
<title>Node23</title>
<g id="a_node23"><a xlink:title=" ">
<polygon fill="white" stroke="#bfbfbf" points="983,-58.5 983,-79.5 1048,-79.5 1048,-58.5 983,-58.5"/>
<text text-anchor="middle" x="1015.5" y="-65.9" font-family="Helvetica,sans-Serif" font-size="12.00">assert.h</text>
</a>
</g>
</g>
<!-- Node21&#45;&gt;Node23 -->
<g id="edge27" class="edge">
<title>Node21&#45;&gt;Node23</title>
<path fill="none" stroke="midnightblue" d="M979.16,-116.25C985.35,-108.38 994.21,-97.1 1001.63,-87.65"/>
<polygon fill="midnightblue" stroke="midnightblue" points="1004.5,-89.67 1007.92,-79.64 998.99,-85.34 1004.5,-89.67"/>
</g>
</g>
</svg>
        <g id="navigator" transform="translate(0 0)" fill="#404254">
                <rect fill="#f2f5e9" fill-opacity="0.5" stroke="#606060" stroke-width=".5" x="0" y="0" width="60" height="60"/>
                <use id="zoomplus" xlink:href="#zoomPlus" x="17" y="9" onmousedown="handleZoom(evt,'in')"/>
                <use id="zoomminus" xlink:href="#zoomMin" x="42" y="9" onmousedown="handleZoom(evt,'out')"/>
                <use id="reset" xlink:href="#resetDef" x="30" y="36" onmousedown="handleReset()"/>
                <g id="arrowUp" xlink:href="#dirArrow" transform="translate(30 24)" onmousedown="handlePan(0,-1)">
                  <use xlink:href="#rim" fill="#404040">
                        <set attributeName="fill" to="#808080" begin="arrowUp.mouseover" end="arrowUp.mouseout"/>
                  </use>
                  <path fill="none" stroke="white" stroke-width="1.5" d="M0,-3.0v7 M-2.5,-0.5L0,-3.0L2.5,-0.5"/>
                </g>
                <g id="arrowRight" xlink:href="#dirArrow" transform="rotate(90) translate(36 -43)" onmousedown="handlePan(1,0)">
                  <use xlink:href="#rim" fill="#404040">
                        <set attributeName="fill" to="#808080" begin="arrowRight.mouseover" end="arrowRight.mouseout"/>
                  </use>
                  <path fill="none" stroke="white" stroke-width="1.5" d="M0,-3.0v7 M-2.5,-0.5L0,-3.0L2.5,-0.5"/>
                </g>
                <g id="arrowDown" xlink:href="#dirArrow" transform="rotate(180) translate(-30 -48)" onmousedown="handlePan(0,1)">
                  <use xlink:href="#rim" fill="#404040">
                        <set attributeName="fill" to="#808080" begin="arrowDown.mouseover" end="arrowDown.mouseout"/>
                  </use>
                  <path fill="none" stroke="white" stroke-width="1.5" d="M0,-3.0v7 M-2.5,-0.5L0,-3.0L2.5,-0.5"/>
                </g>
                <g id="arrowLeft" xlink:href="#dirArrow" transform="rotate(270) translate(-36 17)" onmousedown="handlePan(-1,0)">
                  <use xlink:href="#rim" fill="#404040">
                        <set attributeName="fill" to="#808080" begin="arrowLeft.mouseover" end="arrowLeft.mouseout"/>
                  </use>
                  <path fill="none" stroke="white" stroke-width="1.5" d="M0,-3.0v7 M-2.5,-0.5L0,-3.0L2.5,-0.5"/>
                </g>
        </g>
        <svg viewBox="0 0 15 15" width="100%" height="30px" preserveAspectRatio="xMaxYMin meet">
         <g id="arrow_out" transform="scale(0.3 0.3)">
          <a xlink:href="abstract__receive__protocol__simulator_8h__incl_org.svg" target="_base">
           <rect id="button" ry="5" rx="5" y="6" x="6" height="38" width="38"
                fill="#f2f5e9" fill-opacity="0.5" stroke="#606060" stroke-width="1.0"/>
           <path id="arrow"
             d="M 11.500037,31.436501 C 11.940474,20.09759 22.043105,11.32322 32.158766,21.979434 L 37.068811,17.246167 C 37.068811,17.246167 37.088388,32 37.088388,32 L 22.160133,31.978069 C 22.160133,31.978069 26.997745,27.140456 26.997745,27.140456 C 18.528582,18.264221 13.291696,25.230495 11.500037,31.436501 z"
             style="fill:#404040;"/>
          </a>
         </g>
        </svg>
</svg>
