<?xml version="1.0" encoding="UTF-8" standalone="no"?>
<!DOCTYPE svg PUBLIC "-//W3C//DTD SVG 1.1//EN"
 "http://www.w3.org/Graphics/SVG/1.1/DTD/svg11.dtd">
<!-- Generated by graphviz version 5.0.0 (0)
 -->
<!-- Title: /home/guilhermemtr/Dropbox/workspace/ETH&#45;Zurich/Projects/Weighted&#45;Flooding&#45;Simulator/include/abstract_receive_protocol_simulator.h Pages: 1 -->
<svg width="1184pt" height="405pt"
 viewBox="0.00 0.00 1183.50 405.00" xmlns="http://www.w3.org/2000/svg" xmlns:xlink="http://www.w3.org/1999/xlink">
<g id="graph0" class="graph" transform="scale(1 1) rotate(0) translate(4 401)">
<title>/home/guilhermemtr/Dropbox/workspace/ETH&#45;Zurich/Projects/Weighted&#45;Flooding&#45;Simulator/include/abstract_receive_protocol_simulator.h</title>
<polygon fill="white" stroke="transparent" points="-4,4 -4,-401 1179.5,-401 1179.5,4 -4,4"/>
<!-- Node1 -->
<g id="node1" class="node">
<title>Node1</title>
<g id="a_node1"><a xlink:title=" ">
<polygon fill="#bfbfbf" stroke="black" points="611.5,-349.5 611.5,-396.5 966.5,-396.5 966.5,-349.5 611.5,-349.5"/>
<text text-anchor="start" x="619.5" y="-382.9" font-family="Helvetica,sans-Serif" font-size="12.00">/home/guilhermemtr/Dropbox/workspace</text>
<text text-anchor="start" x="619.5" y="-369.9" font-family="Helvetica,sans-Serif" font-size="12.00">/ETH&#45;Zurich/Projects/Weighted&#45;Flooding</text>
<text text-anchor="middle" x="789" y="-356.9" font-family="Helvetica,sans-Serif" font-size="12.00">&#45;Simulator/include/abstract_receive_protocol_simulator.h</text>
</a>
</g>
</g>
<!-- Node2 -->
<g id="node2" class="node">
<title>Node2</title>
<g id="a_node2"><a xlink:href="../../da/dd8/receiver__protocol__simulator_8h.html" target="_top" xlink:title=" ">
<polygon fill="white" stroke="black" points="485.5,-259 485.5,-306 790.5,-306 790.5,-259 485.5,-259"/>
<text text-anchor="start" x="493.5" y="-292.4" font-family="Helvetica,sans-Serif" font-size="12.00">/home/guilhermemtr/Dropbox/workspace</text>
<text text-anchor="start" x="493.5" y="-279.4" font-family="Helvetica,sans-Serif" font-size="12.00">/ETH&#45;Zurich/Projects/Weighted&#45;Flooding</text>
<text text-anchor="middle" x="638" y="-266.4" font-family="Helvetica,sans-Serif" font-size="12.00">&#45;Simulator/include/receiver_protocol_simulator.h</text>
</a>
</g>
</g>
<!-- Node1&#45;&gt;Node2 -->
<g id="edge1" class="edge">
<title>Node1&#45;&gt;Node2</title>
<path fill="none" stroke="midnightblue" d="M741.73,-344.3C720.72,-331.98 696.29,-317.66 676.42,-306.02"/>
<polygon fill="midnightblue" stroke="midnightblue" points="740.11,-347.4 750.51,-349.44 743.65,-341.36 740.11,-347.4"/>
</g>
<!-- Node13 -->
<g id="node13" class="node">
<title>Node13</title>
<g id="a_node13"><a xlink:href="../../de/d4e/abstract__receive__protocol__simulator_8cc.html" target="_top" xlink:title=" ">
<polygon fill="white" stroke="black" points="809,-252.5 809,-312.5 1071,-312.5 1071,-252.5 809,-252.5"/>
<text text-anchor="start" x="817" y="-298.9" font-family="Helvetica,sans-Serif" font-size="12.00">/home/guilhermemtr/Dropbox/workspace</text>
<text text-anchor="start" x="817" y="-285.9" font-family="Helvetica,sans-Serif" font-size="12.00">/ETH&#45;Zurich/Projects/Weighted&#45;Flooding</text>
<text text-anchor="start" x="817" y="-272.9" font-family="Helvetica,sans-Serif" font-size="12.00">&#45;Simulator/src/abstract_receive_protocol</text>
<text text-anchor="middle" x="940" y="-259.9" font-family="Helvetica,sans-Serif" font-size="12.00">_simulator.cc</text>
</a>
</g>
</g>
<!-- Node1&#45;&gt;Node13 -->
<g id="edge14" class="edge">
<title>Node1&#45;&gt;Node13</title>
<path fill="none" stroke="midnightblue" d="M836.27,-344.29C853.5,-334.2 873.02,-322.76 890.44,-312.55"/>
<polygon fill="midnightblue" stroke="midnightblue" points="834.35,-341.36 827.49,-349.44 837.89,-347.4 834.35,-341.36"/>
</g>
<!-- Node3 -->
<g id="node3" class="node">
<title>Node3</title>
<g id="a_node3"><a xlink:href="../../dc/da4/hybrid__k__out__protocol__simulator_8h.html" target="_top" xlink:title=" ">
<polygon fill="white" stroke="black" points="191,-168.5 191,-215.5 523,-215.5 523,-168.5 191,-168.5"/>
<text text-anchor="start" x="199" y="-201.9" font-family="Helvetica,sans-Serif" font-size="12.00">/home/guilhermemtr/Dropbox/workspace</text>
<text text-anchor="start" x="199" y="-188.9" font-family="Helvetica,sans-Serif" font-size="12.00">/ETH&#45;Zurich/Projects/Weighted&#45;Flooding</text>
<text text-anchor="middle" x="357" y="-175.9" font-family="Helvetica,sans-Serif" font-size="12.00">&#45;Simulator/include/hybrid_k_out_protocol_simulator.h</text>
</a>
</g>
</g>
<!-- Node2&#45;&gt;Node3 -->
<g id="edge2" class="edge">
<title>Node2&#45;&gt;Node3</title>
<path fill="none" stroke="midnightblue" d="M556.78,-255.92C516.23,-243.15 467.62,-227.84 428.5,-215.52"/>
<polygon fill="midnightblue" stroke="midnightblue" points="555.78,-259.27 566.36,-258.94 557.88,-252.6 555.78,-259.27"/>
</g>
<!-- Node5 -->
<g id="node5" class="node">
<title>Node5</title>
<g id="a_node5"><a xlink:href="../../d0/d8b/main__utils_8h.html" target="_top" xlink:title=" ">
<polygon fill="white" stroke="black" points="420,-84.5 420,-131.5 682,-131.5 682,-84.5 420,-84.5"/>
<text text-anchor="start" x="428" y="-117.9" font-family="Helvetica,sans-Serif" font-size="12.00">/home/guilhermemtr/Dropbox/workspace</text>
<text text-anchor="start" x="428" y="-104.9" font-family="Helvetica,sans-Serif" font-size="12.00">/ETH&#45;Zurich/Projects/Weighted&#45;Flooding</text>
<text text-anchor="middle" x="551" y="-91.9" font-family="Helvetica,sans-Serif" font-size="12.00">&#45;Simulator/utils/main_utils.h</text>
</a>
</g>
</g>
<!-- Node2&#45;&gt;Node5 -->
<g id="edge13" class="edge">
<title>Node2&#45;&gt;Node5</title>
<path fill="none" stroke="midnightblue" d="M599.28,-252.16C588.21,-241.89 577.21,-229.51 570,-216 555.79,-189.36 551.92,-154.23 551.02,-131.62"/>
<polygon fill="midnightblue" stroke="midnightblue" points="597.1,-254.9 606.91,-258.92 601.75,-249.66 597.1,-254.9"/>
</g>
<!-- Node10 -->
<g id="node10" class="node">
<title>Node10</title>
<g id="a_node10"><a xlink:href="../../de/dc2/hybrid__protocol__simulator_8h.html" target="_top" xlink:title=" ">
<polygon fill="white" stroke="black" points="579.5,-168.5 579.5,-215.5 872.5,-215.5 872.5,-168.5 579.5,-168.5"/>
<text text-anchor="start" x="587.5" y="-201.9" font-family="Helvetica,sans-Serif" font-size="12.00">/home/guilhermemtr/Dropbox/workspace</text>
<text text-anchor="start" x="587.5" y="-188.9" font-family="Helvetica,sans-Serif" font-size="12.00">/ETH&#45;Zurich/Projects/Weighted&#45;Flooding</text>
<text text-anchor="middle" x="726" y="-175.9" font-family="Helvetica,sans-Serif" font-size="12.00">&#45;Simulator/include/hybrid_protocol_simulator.h</text>
</a>
</g>
</g>
<!-- Node2&#45;&gt;Node10 -->
<g id="edge9" class="edge">
<title>Node2&#45;&gt;Node10</title>
<path fill="none" stroke="midnightblue" d="M668.03,-251.3C679.62,-239.65 692.65,-226.54 703.41,-215.71"/>
<polygon fill="midnightblue" stroke="midnightblue" points="665.23,-249.15 660.66,-258.71 670.2,-254.09 665.23,-249.15"/>
</g>
<!-- Node12 -->
<g id="node12" class="node">
<title>Node12</title>
<g id="a_node12"><a xlink:href="../../d8/db4/receiver__protocol__simulator_8cc.html" target="_top" xlink:title=" ">
<polygon fill="white" stroke="black" points="890.5,-168.5 890.5,-215.5 1175.5,-215.5 1175.5,-168.5 890.5,-168.5"/>
<text text-anchor="start" x="898.5" y="-201.9" font-family="Helvetica,sans-Serif" font-size="12.00">/home/guilhermemtr/Dropbox/workspace</text>
<text text-anchor="start" x="898.5" y="-188.9" font-family="Helvetica,sans-Serif" font-size="12.00">/ETH&#45;Zurich/Projects/Weighted&#45;Flooding</text>
<text text-anchor="middle" x="1033" y="-175.9" font-family="Helvetica,sans-Serif" font-size="12.00">&#45;Simulator/src/receiver_protocol_simulator.cc</text>
</a>
</g>
</g>
<!-- Node2&#45;&gt;Node12 -->
<g id="edge12" class="edge">
<title>Node2&#45;&gt;Node12</title>
<path fill="none" stroke="midnightblue" d="M748.33,-256.78C806.03,-243.85 876.15,-228.14 932.36,-215.55"/>
<polygon fill="midnightblue" stroke="midnightblue" points="747.43,-253.39 738.44,-259 748.96,-260.22 747.43,-253.39"/>
</g>
<!-- Node4 -->
<g id="node4" class="node">
<title>Node4</title>
<g id="a_node4"><a xlink:href="../../da/d60/hybrid__k__out__protocol__simulator_8cc.html" target="_top" xlink:title=" ">
<polygon fill="white" stroke="black" points="90,-84.5 90,-131.5 402,-131.5 402,-84.5 90,-84.5"/>
<text text-anchor="start" x="98" y="-117.9" font-family="Helvetica,sans-Serif" font-size="12.00">/home/guilhermemtr/Dropbox/workspace</text>
<text text-anchor="start" x="98" y="-104.9" font-family="Helvetica,sans-Serif" font-size="12.00">/ETH&#45;Zurich/Projects/Weighted&#45;Flooding</text>
<text text-anchor="middle" x="246" y="-91.9" font-family="Helvetica,sans-Serif" font-size="12.00">&#45;Simulator/src/hybrid_k_out_protocol_simulator.cc</text>
</a>
</g>
</g>
<!-- Node3&#45;&gt;Node4 -->
<g id="edge3" class="edge">
<title>Node3&#45;&gt;Node4</title>
<path fill="none" stroke="midnightblue" d="M318.11,-162.27C304.48,-152.2 289.37,-141.04 276.53,-131.55"/>
<polygon fill="midnightblue" stroke="midnightblue" points="316.25,-165.25 326.37,-168.38 320.41,-159.62 316.25,-165.25"/>
</g>
<!-- Node3&#45;&gt;Node5 -->
<g id="edge4" class="edge">
<title>Node3&#45;&gt;Node5</title>
<path fill="none" stroke="midnightblue" d="M419.7,-164.5C444.8,-153.89 473.42,-141.79 497.51,-131.61"/>
<polygon fill="midnightblue" stroke="midnightblue" points="418.12,-161.37 410.27,-168.48 420.84,-167.82 418.12,-161.37"/>
</g>
<!-- Node6 -->
<g id="node6" class="node">
<title>Node6</title>
<g id="a_node6"><a xlink:href="../../d5/d37/benchmark_8cc.html" target="_top" xlink:title=" ">
<polygon fill="white" stroke="black" points="0,-0.5 0,-47.5 262,-47.5 262,-0.5 0,-0.5"/>
<text text-anchor="start" x="8" y="-33.9" font-family="Helvetica,sans-Serif" font-size="12.00">/home/guilhermemtr/Dropbox/workspace</text>
<text text-anchor="start" x="8" y="-20.9" font-family="Helvetica,sans-Serif" font-size="12.00">/ETH&#45;Zurich/Projects/Weighted&#45;Flooding</text>
<text text-anchor="middle" x="131" y="-7.9" font-family="Helvetica,sans-Serif" font-size="12.00">&#45;Simulator/benchmark.cc</text>
</a>
</g>
</g>
<!-- Node5&#45;&gt;Node6 -->
<g id="edge5" class="edge">
<title>Node5&#45;&gt;Node6</title>
<path fill="none" stroke="midnightblue" d="M425.55,-82.51C368.73,-71.41 302,-58.39 246.43,-47.54"/>
<polygon fill="midnightblue" stroke="midnightblue" points="425.19,-86 435.68,-84.48 426.53,-79.13 425.19,-86"/>
</g>
<!-- Node7 -->
<g id="node7" class="node">
<title>Node7</title>
<g id="a_node7"><a xlink:href="../../dd/d96/hybrid__main_8cc.html" target="_top" xlink:title=" ">
<polygon fill="white" stroke="black" points="280,-0.5 280,-47.5 542,-47.5 542,-0.5 280,-0.5"/>
<text text-anchor="start" x="288" y="-33.9" font-family="Helvetica,sans-Serif" font-size="12.00">/home/guilhermemtr/Dropbox/workspace</text>
<text text-anchor="start" x="288" y="-20.9" font-family="Helvetica,sans-Serif" font-size="12.00">/ETH&#45;Zurich/Projects/Weighted&#45;Flooding</text>
<text text-anchor="middle" x="411" y="-7.9" font-family="Helvetica,sans-Serif" font-size="12.00">&#45;Simulator/hybrid_main.cc</text>
</a>
</g>
</g>
<!-- Node5&#45;&gt;Node7 -->
<g id="edge6" class="edge">
<title>Node5&#45;&gt;Node7</title>
<path fill="none" stroke="midnightblue" d="M503.41,-79.12C485.84,-68.83 466.16,-57.31 449.5,-47.55"/>
<polygon fill="midnightblue" stroke="midnightblue" points="501.98,-82.34 512.37,-84.38 505.51,-76.3 501.98,-82.34"/>
</g>
<!-- Node8 -->
<g id="node8" class="node">
<title>Node8</title>
<g id="a_node8"><a xlink:href="../../d9/d0f/main_8cc.html" target="_top" xlink:title=" ">
<polygon fill="white" stroke="black" points="560,-0.5 560,-47.5 822,-47.5 822,-0.5 560,-0.5"/>
<text text-anchor="start" x="568" y="-33.9" font-family="Helvetica,sans-Serif" font-size="12.00">/home/guilhermemtr/Dropbox/workspace</text>
<text text-anchor="start" x="568" y="-20.9" font-family="Helvetica,sans-Serif" font-size="12.00">/ETH&#45;Zurich/Projects/Weighted&#45;Flooding</text>
<text text-anchor="middle" x="691" y="-7.9" font-family="Helvetica,sans-Serif" font-size="12.00">&#45;Simulator/main.cc</text>
</a>
</g>
</g>
<!-- Node5&#45;&gt;Node8 -->
<g id="edge7" class="edge">
<title>Node5&#45;&gt;Node8</title>
<path fill="none" stroke="midnightblue" d="M598.59,-79.12C616.16,-68.83 635.84,-57.31 652.5,-47.55"/>
<polygon fill="midnightblue" stroke="midnightblue" points="596.49,-76.3 589.63,-84.38 600.02,-82.34 596.49,-76.3"/>
</g>
<!-- Node9 -->
<g id="node9" class="node">
<title>Node9</title>
<g id="a_node9"><a xlink:href="../../df/d31/main__utils_8cc.html" target="_top" xlink:title=" ">
<polygon fill="white" stroke="black" points="840,-0.5 840,-47.5 1102,-47.5 1102,-0.5 840,-0.5"/>
<text text-anchor="start" x="848" y="-33.9" font-family="Helvetica,sans-Serif" font-size="12.00">/home/guilhermemtr/Dropbox/workspace</text>
<text text-anchor="start" x="848" y="-20.9" font-family="Helvetica,sans-Serif" font-size="12.00">/ETH&#45;Zurich/Projects/Weighted&#45;Flooding</text>
<text text-anchor="middle" x="971" y="-7.9" font-family="Helvetica,sans-Serif" font-size="12.00">&#45;Simulator/utils/main_utils.cc</text>
</a>
</g>
</g>
<!-- Node5&#45;&gt;Node9 -->
<g id="edge8" class="edge">
<title>Node5&#45;&gt;Node9</title>
<path fill="none" stroke="midnightblue" d="M676.45,-82.51C733.27,-71.41 800,-58.39 855.57,-47.54"/>
<polygon fill="midnightblue" stroke="midnightblue" points="675.47,-79.13 666.32,-84.48 676.81,-86 675.47,-79.13"/>
</g>
<!-- Node10&#45;&gt;Node5 -->
<g id="edge11" class="edge">
<title>Node10&#45;&gt;Node5</title>
<path fill="none" stroke="midnightblue" d="M668.61,-164.11C646.13,-153.58 620.62,-141.62 599.13,-131.55"/>
<polygon fill="midnightblue" stroke="midnightblue" points="667.18,-167.3 677.72,-168.38 670.15,-160.96 667.18,-167.3"/>
</g>
<!-- Node11 -->
<g id="node11" class="node">
<title>Node11</title>
<g id="a_node11"><a xlink:href="../../df/dcd/hybrid__protocol__simulator_8cc.html" target="_top" xlink:title=" ">
<polygon fill="white" stroke="black" points="700,-84.5 700,-131.5 974,-131.5 974,-84.5 700,-84.5"/>
<text text-anchor="start" x="708" y="-117.9" font-family="Helvetica,sans-Serif" font-size="12.00">/home/guilhermemtr/Dropbox/workspace</text>
<text text-anchor="start" x="708" y="-104.9" font-family="Helvetica,sans-Serif" font-size="12.00">/ETH&#45;Zurich/Projects/Weighted&#45;Flooding</text>
<text text-anchor="middle" x="837" y="-91.9" font-family="Helvetica,sans-Serif" font-size="12.00">&#45;Simulator/src/hybrid_protocol_simulator.cc</text>
</a>
</g>
</g>
<!-- Node10&#45;&gt;Node11 -->
<g id="edge10" class="edge">
<title>Node10&#45;&gt;Node11</title>
<path fill="none" stroke="midnightblue" d="M764.89,-162.27C778.52,-152.2 793.63,-141.04 806.47,-131.55"/>
<polygon fill="midnightblue" stroke="midnightblue" points="762.59,-159.62 756.63,-168.38 766.75,-165.25 762.59,-159.62"/>
</g>
</g>
</svg>
