<?xml version="1.0" encoding="UTF-8" standalone="no"?>
<!DOCTYPE svg PUBLIC "-//W3C//DTD SVG 1.1//EN"
 "http://www.w3.org/Graphics/SVG/1.1/DTD/svg11.dtd">
<!-- Generated by graphviz version 5.0.0 (0)
 -->
<!-- Title: /home/guilhermemtr/Dropbox/workspace/ETH&#45;Zurich/Projects/Weighted&#45;Flooding&#45;Simulator/utils/parallel_utils.h Pages: 1 -->
<svg width="1110pt" height="224pt"
 viewBox="0.00 0.00 1110.00 224.00" xmlns="http://www.w3.org/2000/svg" xmlns:xlink="http://www.w3.org/1999/xlink">
<g id="graph0" class="graph" transform="scale(1 1) rotate(0) translate(4 220)">
<title>/home/guilhermemtr/Dropbox/workspace/ETH&#45;Zurich/Projects/Weighted&#45;Flooding&#45;Simulator/utils/parallel_utils.h</title>
<polygon fill="white" stroke="transparent" points="-4,4 -4,-220 1106,-220 1106,4 -4,4"/>
<!-- Node1 -->
<g id="node1" class="node">
<title>Node1</title>
<g id="a_node1"><a xlink:title=" ">
<polygon fill="#bfbfbf" stroke="black" points="420,-168.5 420,-215.5 682,-215.5 682,-168.5 420,-168.5"/>
<text text-anchor="start" x="428" y="-201.9" font-family="Helvetica,sans-Serif" font-size="12.00">/home/guilhermemtr/Dropbox/workspace</text>
<text text-anchor="start" x="428" y="-188.9" font-family="Helvetica,sans-Serif" font-size="12.00">/ETH&#45;Zurich/Projects/Weighted&#45;Flooding</text>
<text text-anchor="middle" x="551" y="-175.9" font-family="Helvetica,sans-Serif" font-size="12.00">&#45;Simulator/utils/parallel_utils.h</text>
</a>
</g>
</g>
<!-- Node2 -->
<g id="node2" class="node">
<title>Node2</title>
<g id="a_node2"><a xlink:href="../../d0/d8b/main__utils_8h.html" target="_top" xlink:title=" ">
<polygon fill="white" stroke="black" points="420,-84.5 420,-131.5 682,-131.5 682,-84.5 420,-84.5"/>
<text text-anchor="start" x="428" y="-117.9" font-family="Helvetica,sans-Serif" font-size="12.00">/home/guilhermemtr/Dropbox/workspace</text>
<text text-anchor="start" x="428" y="-104.9" font-family="Helvetica,sans-Serif" font-size="12.00">/ETH&#45;Zurich/Projects/Weighted&#45;Flooding</text>
<text text-anchor="middle" x="551" y="-91.9" font-family="Helvetica,sans-Serif" font-size="12.00">&#45;Simulator/utils/main_utils.h</text>
</a>
</g>
</g>
<!-- Node1&#45;&gt;Node2 -->
<g id="edge1" class="edge">
<title>Node1&#45;&gt;Node2</title>
<path fill="none" stroke="midnightblue" d="M551,-158.11C551,-149.26 551,-139.88 551,-131.72"/>
<polygon fill="midnightblue" stroke="midnightblue" points="547.5,-158.16 551,-168.16 554.5,-158.16 547.5,-158.16"/>
</g>
<!-- Node3 -->
<g id="node3" class="node">
<title>Node3</title>
<g id="a_node3"><a xlink:href="../../d5/d37/benchmark_8cc.html" target="_top" xlink:title=" ">
<polygon fill="white" stroke="black" points="0,-0.5 0,-47.5 262,-47.5 262,-0.5 0,-0.5"/>
<text text-anchor="start" x="8" y="-33.9" font-family="Helvetica,sans-Serif" font-size="12.00">/home/guilhermemtr/Dropbox/workspace</text>
<text text-anchor="start" x="8" y="-20.9" font-family="Helvetica,sans-Serif" font-size="12.00">/ETH&#45;Zurich/Projects/Weighted&#45;Flooding</text>
<text text-anchor="middle" x="131" y="-7.9" font-family="Helvetica,sans-Serif" font-size="12.00">&#45;Simulator/benchmark.cc</text>
</a>
</g>
</g>
<!-- Node2&#45;&gt;Node3 -->
<g id="edge2" class="edge">
<title>Node2&#45;&gt;Node3</title>
<path fill="none" stroke="midnightblue" d="M425.55,-82.51C368.73,-71.41 302,-58.39 246.43,-47.54"/>
<polygon fill="midnightblue" stroke="midnightblue" points="425.19,-86 435.68,-84.48 426.53,-79.13 425.19,-86"/>
</g>
<!-- Node4 -->
<g id="node4" class="node">
<title>Node4</title>
<g id="a_node4"><a xlink:href="../../dd/d96/hybrid__main_8cc.html" target="_top" xlink:title=" ">
<polygon fill="white" stroke="black" points="280,-0.5 280,-47.5 542,-47.5 542,-0.5 280,-0.5"/>
<text text-anchor="start" x="288" y="-33.9" font-family="Helvetica,sans-Serif" font-size="12.00">/home/guilhermemtr/Dropbox/workspace</text>
<text text-anchor="start" x="288" y="-20.9" font-family="Helvetica,sans-Serif" font-size="12.00">/ETH&#45;Zurich/Projects/Weighted&#45;Flooding</text>
<text text-anchor="middle" x="411" y="-7.9" font-family="Helvetica,sans-Serif" font-size="12.00">&#45;Simulator/hybrid_main.cc</text>
</a>
</g>
</g>
<!-- Node2&#45;&gt;Node4 -->
<g id="edge3" class="edge">
<title>Node2&#45;&gt;Node4</title>
<path fill="none" stroke="midnightblue" d="M503.41,-79.12C485.84,-68.83 466.16,-57.31 449.5,-47.55"/>
<polygon fill="midnightblue" stroke="midnightblue" points="501.98,-82.34 512.37,-84.38 505.51,-76.3 501.98,-82.34"/>
</g>
<!-- Node5 -->
<g id="node5" class="node">
<title>Node5</title>
<g id="a_node5"><a xlink:href="../../d9/d0f/main_8cc.html" target="_top" xlink:title=" ">
<polygon fill="white" stroke="black" points="560,-0.5 560,-47.5 822,-47.5 822,-0.5 560,-0.5"/>
<text text-anchor="start" x="568" y="-33.9" font-family="Helvetica,sans-Serif" font-size="12.00">/home/guilhermemtr/Dropbox/workspace</text>
<text text-anchor="start" x="568" y="-20.9" font-family="Helvetica,sans-Serif" font-size="12.00">/ETH&#45;Zurich/Projects/Weighted&#45;Flooding</text>
<text text-anchor="middle" x="691" y="-7.9" font-family="Helvetica,sans-Serif" font-size="12.00">&#45;Simulator/main.cc</text>
</a>
</g>
</g>
<!-- Node2&#45;&gt;Node5 -->
<g id="edge4" class="edge">
<title>Node2&#45;&gt;Node5</title>
<path fill="none" stroke="midnightblue" d="M598.59,-79.12C616.16,-68.83 635.84,-57.31 652.5,-47.55"/>
<polygon fill="midnightblue" stroke="midnightblue" points="596.49,-76.3 589.63,-84.38 600.02,-82.34 596.49,-76.3"/>
</g>
<!-- Node6 -->
<g id="node6" class="node">
<title>Node6</title>
<g id="a_node6"><a xlink:href="../../df/d31/main__utils_8cc.html" target="_top" xlink:title=" ">
<polygon fill="white" stroke="black" points="840,-0.5 840,-47.5 1102,-47.5 1102,-0.5 840,-0.5"/>
<text text-anchor="start" x="848" y="-33.9" font-family="Helvetica,sans-Serif" font-size="12.00">/home/guilhermemtr/Dropbox/workspace</text>
<text text-anchor="start" x="848" y="-20.9" font-family="Helvetica,sans-Serif" font-size="12.00">/ETH&#45;Zurich/Projects/Weighted&#45;Flooding</text>
<text text-anchor="middle" x="971" y="-7.9" font-family="Helvetica,sans-Serif" font-size="12.00">&#45;Simulator/utils/main_utils.cc</text>
</a>
</g>
</g>
<!-- Node2&#45;&gt;Node6 -->
<g id="edge5" class="edge">
<title>Node2&#45;&gt;Node6</title>
<path fill="none" stroke="midnightblue" d="M676.45,-82.51C733.27,-71.41 800,-58.39 855.57,-47.54"/>
<polygon fill="midnightblue" stroke="midnightblue" points="675.47,-79.13 666.32,-84.48 676.81,-86 675.47,-79.13"/>
</g>
</g>
</svg>
