<?xml version="1.0" encoding="UTF-8" standalone="no"?>
<!DOCTYPE svg PUBLIC "-//W3C//DTD SVG 1.1//EN"
 "http://www.w3.org/Graphics/SVG/1.1/DTD/svg11.dtd">
<!-- Generated by graphviz version 5.0.0 (0)
 -->
<!-- Title: /home/guilhermemtr/Dropbox/workspace/ETH&#45;Zurich/Projects/Weighted&#45;Flooding&#45;Simulator/include/random_sampler.h Pages: 1 -->
<svg width="1110pt" height="392pt"
 viewBox="0.00 0.00 1110.00 392.00" xmlns="http://www.w3.org/2000/svg" xmlns:xlink="http://www.w3.org/1999/xlink">
<g id="graph0" class="graph" transform="scale(1 1) rotate(0) translate(4 388)">
<title>/home/guilhermemtr/Dropbox/workspace/ETH&#45;Zurich/Projects/Weighted&#45;Flooding&#45;Simulator/include/random_sampler.h</title>
<polygon fill="white" stroke="transparent" points="-4,4 -4,-388 1106,-388 1106,4 -4,4"/>
<!-- Node1 -->
<g id="node1" class="node">
<title>Node1</title>
<g id="a_node1"><a xlink:title=" ">
<polygon fill="#bfbfbf" stroke="black" points="566,-336.5 566,-383.5 828,-383.5 828,-336.5 566,-336.5"/>
<text text-anchor="start" x="574" y="-369.9" font-family="Helvetica,sans-Serif" font-size="12.00">/home/guilhermemtr/Dropbox/workspace</text>
<text text-anchor="start" x="574" y="-356.9" font-family="Helvetica,sans-Serif" font-size="12.00">/ETH&#45;Zurich/Projects/Weighted&#45;Flooding</text>
<text text-anchor="middle" x="697" y="-343.9" font-family="Helvetica,sans-Serif" font-size="12.00">&#45;Simulator/include/random_sampler.h</text>
</a>
</g>
</g>
<!-- Node2 -->
<g id="node2" class="node">
<title>Node2</title>
<g id="a_node2"><a xlink:href="../../d8/d9d/k__out__protocol__simulator_8h.html" target="_top" xlink:title=" ">
<polygon fill="white" stroke="black" points="407,-252.5 407,-299.5 695,-299.5 695,-252.5 407,-252.5"/>
<text text-anchor="start" x="415" y="-285.9" font-family="Helvetica,sans-Serif" font-size="12.00">/home/guilhermemtr/Dropbox/workspace</text>
<text text-anchor="start" x="415" y="-272.9" font-family="Helvetica,sans-Serif" font-size="12.00">/ETH&#45;Zurich/Projects/Weighted&#45;Flooding</text>
<text text-anchor="middle" x="551" y="-259.9" font-family="Helvetica,sans-Serif" font-size="12.00">&#45;Simulator/include/k_out_protocol_simulator.h</text>
</a>
</g>
</g>
<!-- Node1&#45;&gt;Node2 -->
<g id="edge1" class="edge">
<title>Node1&#45;&gt;Node2</title>
<path fill="none" stroke="midnightblue" d="M647.87,-331.41C629.42,-321.04 608.69,-309.4 591.15,-299.55"/>
<polygon fill="midnightblue" stroke="midnightblue" points="646.29,-334.53 656.72,-336.38 649.71,-328.43 646.29,-334.53"/>
</g>
<!-- Node11 -->
<g id="node11" class="node">
<title>Node11</title>
<g id="a_node11"><a xlink:href="../../dd/d27/random__sampler_8cc.html" target="_top" xlink:title=" ">
<polygon fill="white" stroke="black" points="713,-252.5 713,-299.5 975,-299.5 975,-252.5 713,-252.5"/>
<text text-anchor="start" x="721" y="-285.9" font-family="Helvetica,sans-Serif" font-size="12.00">/home/guilhermemtr/Dropbox/workspace</text>
<text text-anchor="start" x="721" y="-272.9" font-family="Helvetica,sans-Serif" font-size="12.00">/ETH&#45;Zurich/Projects/Weighted&#45;Flooding</text>
<text text-anchor="middle" x="844" y="-259.9" font-family="Helvetica,sans-Serif" font-size="12.00">&#45;Simulator/src/random_sampler.cc</text>
</a>
</g>
</g>
<!-- Node1&#45;&gt;Node11 -->
<g id="edge11" class="edge">
<title>Node1&#45;&gt;Node11</title>
<path fill="none" stroke="midnightblue" d="M746.47,-331.41C765.04,-321.04 785.92,-309.4 803.57,-299.55"/>
<polygon fill="midnightblue" stroke="midnightblue" points="744.59,-328.45 737.56,-336.38 748,-334.56 744.59,-328.45"/>
</g>
<!-- Node3 -->
<g id="node3" class="node">
<title>Node3</title>
<g id="a_node3"><a xlink:href="../../dc/da4/hybrid__k__out__protocol__simulator_8h.html" target="_top" xlink:title=" ">
<polygon fill="white" stroke="black" points="191,-168.5 191,-215.5 523,-215.5 523,-168.5 191,-168.5"/>
<text text-anchor="start" x="199" y="-201.9" font-family="Helvetica,sans-Serif" font-size="12.00">/home/guilhermemtr/Dropbox/workspace</text>
<text text-anchor="start" x="199" y="-188.9" font-family="Helvetica,sans-Serif" font-size="12.00">/ETH&#45;Zurich/Projects/Weighted&#45;Flooding</text>
<text text-anchor="middle" x="357" y="-175.9" font-family="Helvetica,sans-Serif" font-size="12.00">&#45;Simulator/include/hybrid_k_out_protocol_simulator.h</text>
</a>
</g>
</g>
<!-- Node2&#45;&gt;Node3 -->
<g id="edge2" class="edge">
<title>Node2&#45;&gt;Node3</title>
<path fill="none" stroke="midnightblue" d="M488.3,-248.5C463.2,-237.89 434.58,-225.79 410.49,-215.61"/>
<polygon fill="midnightblue" stroke="midnightblue" points="487.16,-251.82 497.73,-252.48 489.88,-245.37 487.16,-251.82"/>
</g>
<!-- Node5 -->
<g id="node5" class="node">
<title>Node5</title>
<g id="a_node5"><a xlink:href="../../d0/d8b/main__utils_8h.html" target="_top" xlink:title=" ">
<polygon fill="white" stroke="black" points="420,-84.5 420,-131.5 682,-131.5 682,-84.5 420,-84.5"/>
<text text-anchor="start" x="428" y="-117.9" font-family="Helvetica,sans-Serif" font-size="12.00">/home/guilhermemtr/Dropbox/workspace</text>
<text text-anchor="start" x="428" y="-104.9" font-family="Helvetica,sans-Serif" font-size="12.00">/ETH&#45;Zurich/Projects/Weighted&#45;Flooding</text>
<text text-anchor="middle" x="551" y="-91.9" font-family="Helvetica,sans-Serif" font-size="12.00">&#45;Simulator/utils/main_utils.h</text>
</a>
</g>
</g>
<!-- Node2&#45;&gt;Node5 -->
<g id="edge10" class="edge">
<title>Node2&#45;&gt;Node5</title>
<path fill="none" stroke="midnightblue" d="M551,-241.87C551,-209.22 551,-160.2 551,-131.72"/>
<polygon fill="midnightblue" stroke="midnightblue" points="547.5,-242.27 551,-252.27 554.5,-242.27 547.5,-242.27"/>
</g>
<!-- Node10 -->
<g id="node10" class="node">
<title>Node10</title>
<g id="a_node10"><a xlink:href="../../dd/d36/k__out__protocol__simulator_8cc.html" target="_top" xlink:title=" ">
<polygon fill="white" stroke="black" points="579.5,-168.5 579.5,-215.5 848.5,-215.5 848.5,-168.5 579.5,-168.5"/>
<text text-anchor="start" x="587.5" y="-201.9" font-family="Helvetica,sans-Serif" font-size="12.00">/home/guilhermemtr/Dropbox/workspace</text>
<text text-anchor="start" x="587.5" y="-188.9" font-family="Helvetica,sans-Serif" font-size="12.00">/ETH&#45;Zurich/Projects/Weighted&#45;Flooding</text>
<text text-anchor="middle" x="714" y="-175.9" font-family="Helvetica,sans-Serif" font-size="12.00">&#45;Simulator/src/k_out_protocol_simulator.cc</text>
</a>
</g>
</g>
<!-- Node2&#45;&gt;Node10 -->
<g id="edge9" class="edge">
<title>Node2&#45;&gt;Node10</title>
<path fill="none" stroke="midnightblue" d="M605.01,-247.83C625.82,-237.36 649.33,-225.53 669.17,-215.55"/>
<polygon fill="midnightblue" stroke="midnightblue" points="603.33,-244.76 595.97,-252.38 606.48,-251.01 603.33,-244.76"/>
</g>
<!-- Node4 -->
<g id="node4" class="node">
<title>Node4</title>
<g id="a_node4"><a xlink:href="../../da/d60/hybrid__k__out__protocol__simulator_8cc.html" target="_top" xlink:title=" ">
<polygon fill="white" stroke="black" points="90,-84.5 90,-131.5 402,-131.5 402,-84.5 90,-84.5"/>
<text text-anchor="start" x="98" y="-117.9" font-family="Helvetica,sans-Serif" font-size="12.00">/home/guilhermemtr/Dropbox/workspace</text>
<text text-anchor="start" x="98" y="-104.9" font-family="Helvetica,sans-Serif" font-size="12.00">/ETH&#45;Zurich/Projects/Weighted&#45;Flooding</text>
<text text-anchor="middle" x="246" y="-91.9" font-family="Helvetica,sans-Serif" font-size="12.00">&#45;Simulator/src/hybrid_k_out_protocol_simulator.cc</text>
</a>
</g>
</g>
<!-- Node3&#45;&gt;Node4 -->
<g id="edge3" class="edge">
<title>Node3&#45;&gt;Node4</title>
<path fill="none" stroke="midnightblue" d="M318.11,-162.27C304.48,-152.2 289.37,-141.04 276.53,-131.55"/>
<polygon fill="midnightblue" stroke="midnightblue" points="316.25,-165.25 326.37,-168.38 320.41,-159.62 316.25,-165.25"/>
</g>
<!-- Node3&#45;&gt;Node5 -->
<g id="edge4" class="edge">
<title>Node3&#45;&gt;Node5</title>
<path fill="none" stroke="midnightblue" d="M419.7,-164.5C444.8,-153.89 473.42,-141.79 497.51,-131.61"/>
<polygon fill="midnightblue" stroke="midnightblue" points="418.12,-161.37 410.27,-168.48 420.84,-167.82 418.12,-161.37"/>
</g>
<!-- Node6 -->
<g id="node6" class="node">
<title>Node6</title>
<g id="a_node6"><a xlink:href="../../d5/d37/benchmark_8cc.html" target="_top" xlink:title=" ">
<polygon fill="white" stroke="black" points="0,-0.5 0,-47.5 262,-47.5 262,-0.5 0,-0.5"/>
<text text-anchor="start" x="8" y="-33.9" font-family="Helvetica,sans-Serif" font-size="12.00">/home/guilhermemtr/Dropbox/workspace</text>
<text text-anchor="start" x="8" y="-20.9" font-family="Helvetica,sans-Serif" font-size="12.00">/ETH&#45;Zurich/Projects/Weighted&#45;Flooding</text>
<text text-anchor="middle" x="131" y="-7.9" font-family="Helvetica,sans-Serif" font-size="12.00">&#45;Simulator/benchmark.cc</text>
</a>
</g>
</g>
<!-- Node5&#45;&gt;Node6 -->
<g id="edge5" class="edge">
<title>Node5&#45;&gt;Node6</title>
<path fill="none" stroke="midnightblue" d="M425.55,-82.51C368.73,-71.41 302,-58.39 246.43,-47.54"/>
<polygon fill="midnightblue" stroke="midnightblue" points="425.19,-86 435.68,-84.48 426.53,-79.13 425.19,-86"/>
</g>
<!-- Node7 -->
<g id="node7" class="node">
<title>Node7</title>
<g id="a_node7"><a xlink:href="../../dd/d96/hybrid__main_8cc.html" target="_top" xlink:title=" ">
<polygon fill="white" stroke="black" points="280,-0.5 280,-47.5 542,-47.5 542,-0.5 280,-0.5"/>
<text text-anchor="start" x="288" y="-33.9" font-family="Helvetica,sans-Serif" font-size="12.00">/home/guilhermemtr/Dropbox/workspace</text>
<text text-anchor="start" x="288" y="-20.9" font-family="Helvetica,sans-Serif" font-size="12.00">/ETH&#45;Zurich/Projects/Weighted&#45;Flooding</text>
<text text-anchor="middle" x="411" y="-7.9" font-family="Helvetica,sans-Serif" font-size="12.00">&#45;Simulator/hybrid_main.cc</text>
</a>
</g>
</g>
<!-- Node5&#45;&gt;Node7 -->
<g id="edge6" class="edge">
<title>Node5&#45;&gt;Node7</title>
<path fill="none" stroke="midnightblue" d="M503.41,-79.12C485.84,-68.83 466.16,-57.31 449.5,-47.55"/>
<polygon fill="midnightblue" stroke="midnightblue" points="501.98,-82.34 512.37,-84.38 505.51,-76.3 501.98,-82.34"/>
</g>
<!-- Node8 -->
<g id="node8" class="node">
<title>Node8</title>
<g id="a_node8"><a xlink:href="../../d9/d0f/main_8cc.html" target="_top" xlink:title=" ">
<polygon fill="white" stroke="black" points="560,-0.5 560,-47.5 822,-47.5 822,-0.5 560,-0.5"/>
<text text-anchor="start" x="568" y="-33.9" font-family="Helvetica,sans-Serif" font-size="12.00">/home/guilhermemtr/Dropbox/workspace</text>
<text text-anchor="start" x="568" y="-20.9" font-family="Helvetica,sans-Serif" font-size="12.00">/ETH&#45;Zurich/Projects/Weighted&#45;Flooding</text>
<text text-anchor="middle" x="691" y="-7.9" font-family="Helvetica,sans-Serif" font-size="12.00">&#45;Simulator/main.cc</text>
</a>
</g>
</g>
<!-- Node5&#45;&gt;Node8 -->
<g id="edge7" class="edge">
<title>Node5&#45;&gt;Node8</title>
<path fill="none" stroke="midnightblue" d="M598.59,-79.12C616.16,-68.83 635.84,-57.31 652.5,-47.55"/>
<polygon fill="midnightblue" stroke="midnightblue" points="596.49,-76.3 589.63,-84.38 600.02,-82.34 596.49,-76.3"/>
</g>
<!-- Node9 -->
<g id="node9" class="node">
<title>Node9</title>
<g id="a_node9"><a xlink:href="../../df/d31/main__utils_8cc.html" target="_top" xlink:title=" ">
<polygon fill="white" stroke="black" points="840,-0.5 840,-47.5 1102,-47.5 1102,-0.5 840,-0.5"/>
<text text-anchor="start" x="848" y="-33.9" font-family="Helvetica,sans-Serif" font-size="12.00">/home/guilhermemtr/Dropbox/workspace</text>
<text text-anchor="start" x="848" y="-20.9" font-family="Helvetica,sans-Serif" font-size="12.00">/ETH&#45;Zurich/Projects/Weighted&#45;Flooding</text>
<text text-anchor="middle" x="971" y="-7.9" font-family="Helvetica,sans-Serif" font-size="12.00">&#45;Simulator/utils/main_utils.cc</text>
</a>
</g>
</g>
<!-- Node5&#45;&gt;Node9 -->
<g id="edge8" class="edge">
<title>Node5&#45;&gt;Node9</title>
<path fill="none" stroke="midnightblue" d="M676.45,-82.51C733.27,-71.41 800,-58.39 855.57,-47.54"/>
<polygon fill="midnightblue" stroke="midnightblue" points="675.47,-79.13 666.32,-84.48 676.81,-86 675.47,-79.13"/>
</g>
</g>
</svg>
