<?xml version="1.0" encoding="UTF-8" standalone="no"?>
<!DOCTYPE svg PUBLIC "-//W3C//DTD SVG 1.1//EN"
 "http://www.w3.org/Graphics/SVG/1.1/DTD/svg11.dtd">
<!-- Generated by graphviz version 5.0.0 (0)
 -->
<!-- Title: /home/guilhermemtr/Dropbox/workspace/ETH&#45;Zurich/Projects/Weighted&#45;Flooding&#45;Simulator/src/random_sampler.cc Pages: 1 -->
<svg width="349pt" height="230pt"
 viewBox="0.00 0.00 349.00 230.00" xmlns="http://www.w3.org/2000/svg" xmlns:xlink="http://www.w3.org/1999/xlink">
<g id="graph0" class="graph" transform="scale(1 1) rotate(0) translate(4 226)">
<title>/home/guilhermemtr/Dropbox/workspace/ETH&#45;Zurich/Projects/Weighted&#45;Flooding&#45;Simulator/src/random_sampler.cc</title>
<polygon fill="white" stroke="transparent" points="-4,4 -4,-226 345,-226 345,4 -4,4"/>
<!-- Node1 -->
<g id="node1" class="node">
<title>Node1</title>
<g id="a_node1"><a xlink:title=" ">
<polygon fill="#bfbfbf" stroke="black" points="25.5,-174.5 25.5,-221.5 287.5,-221.5 287.5,-174.5 25.5,-174.5"/>
<text text-anchor="start" x="33.5" y="-207.9" font-family="Helvetica,sans-Serif" font-size="12.00">/home/guilhermemtr/Dropbox/workspace</text>
<text text-anchor="start" x="33.5" y="-194.9" font-family="Helvetica,sans-Serif" font-size="12.00">/ETH&#45;Zurich/Projects/Weighted&#45;Flooding</text>
<text text-anchor="middle" x="156.5" y="-181.9" font-family="Helvetica,sans-Serif" font-size="12.00">&#45;Simulator/src/random_sampler.cc</text>
</a>
</g>
</g>
<!-- Node2 -->
<g id="node2" class="node">
<title>Node2</title>
<g id="a_node2"><a xlink:href="../../d7/d90/random__sampler_8h.html" target="_top" xlink:title=" ">
<polygon fill="white" stroke="black" points="92.5,-116.5 92.5,-137.5 220.5,-137.5 220.5,-116.5 92.5,-116.5"/>
<text text-anchor="middle" x="156.5" y="-123.9" font-family="Helvetica,sans-Serif" font-size="12.00">random_sampler.h</text>
</a>
</g>
</g>
<!-- Node1&#45;&gt;Node2 -->
<g id="edge1" class="edge">
<title>Node1&#45;&gt;Node2</title>
<path fill="none" stroke="midnightblue" d="M156.5,-174.41C156.5,-165.87 156.5,-156.22 156.5,-147.94"/>
<polygon fill="midnightblue" stroke="midnightblue" points="160,-147.74 156.5,-137.74 153,-147.74 160,-147.74"/>
</g>
<!-- Node3 -->
<g id="node3" class="node">
<title>Node3</title>
<g id="a_node3"><a xlink:title=" ">
<polygon fill="white" stroke="#bfbfbf" points="0,-58.5 0,-79.5 55,-79.5 55,-58.5 0,-58.5"/>
<text text-anchor="middle" x="27.5" y="-65.9" font-family="Helvetica,sans-Serif" font-size="12.00">vector</text>
</a>
</g>
</g>
<!-- Node2&#45;&gt;Node3 -->
<g id="edge2" class="edge">
<title>Node2&#45;&gt;Node3</title>
<path fill="none" stroke="midnightblue" d="M134.32,-116.37C113.52,-107.34 82.21,-93.75 58.85,-83.61"/>
<polygon fill="midnightblue" stroke="midnightblue" points="59.95,-80.27 49.39,-79.5 57.17,-86.69 59.95,-80.27"/>
</g>
<!-- Node4 -->
<g id="node4" class="node">
<title>Node4</title>
<g id="a_node4"><a xlink:title=" ">
<polygon fill="white" stroke="#bfbfbf" points="73,-58.5 73,-79.5 106,-79.5 106,-58.5 73,-58.5"/>
<text text-anchor="middle" x="89.5" y="-65.9" font-family="Helvetica,sans-Serif" font-size="12.00">list</text>
</a>
</g>
</g>
<!-- Node2&#45;&gt;Node4 -->
<g id="edge3" class="edge">
<title>Node2&#45;&gt;Node4</title>
<path fill="none" stroke="midnightblue" d="M144.83,-116.25C134.93,-107.97 120.54,-95.94 108.91,-86.22"/>
<polygon fill="midnightblue" stroke="midnightblue" points="110.95,-83.37 101.04,-79.64 106.47,-88.74 110.95,-83.37"/>
</g>
<!-- Node5 -->
<g id="node5" class="node">
<title>Node5</title>
<g id="a_node5"><a xlink:title=" ">
<polygon fill="white" stroke="#bfbfbf" points="124.5,-58.5 124.5,-79.5 188.5,-79.5 188.5,-58.5 124.5,-58.5"/>
<text text-anchor="middle" x="156.5" y="-65.9" font-family="Helvetica,sans-Serif" font-size="12.00">random</text>
</a>
</g>
</g>
<!-- Node2&#45;&gt;Node5 -->
<g id="edge4" class="edge">
<title>Node2&#45;&gt;Node5</title>
<path fill="none" stroke="midnightblue" d="M156.5,-116.25C156.5,-108.94 156.5,-98.69 156.5,-89.7"/>
<polygon fill="midnightblue" stroke="midnightblue" points="160,-89.64 156.5,-79.64 153,-89.64 160,-89.64"/>
</g>
<!-- Node6 -->
<g id="node6" class="node">
<title>Node6</title>
<g id="a_node6"><a xlink:title=" ">
<polygon fill="white" stroke="#bfbfbf" points="207,-58.5 207,-79.5 254,-79.5 254,-58.5 207,-58.5"/>
<text text-anchor="middle" x="230.5" y="-65.9" font-family="Helvetica,sans-Serif" font-size="12.00">tuple</text>
</a>
</g>
</g>
<!-- Node2&#45;&gt;Node6 -->
<g id="edge5" class="edge">
<title>Node2&#45;&gt;Node6</title>
<path fill="none" stroke="midnightblue" d="M169.39,-116.25C180.43,-107.89 196.53,-95.71 209.44,-85.94"/>
<polygon fill="midnightblue" stroke="midnightblue" points="211.9,-88.47 217.76,-79.64 207.67,-82.89 211.9,-88.47"/>
</g>
<!-- Node7 -->
<g id="node7" class="node">
<title>Node7</title>
<g id="a_node7"><a xlink:href="../../d0/d70/yal__log_8h.html" target="_top" xlink:title=" ">
<polygon fill="white" stroke="black" points="272,-58.5 272,-79.5 341,-79.5 341,-58.5 272,-58.5"/>
<text text-anchor="middle" x="306.5" y="-65.9" font-family="Helvetica,sans-Serif" font-size="12.00">yal_log.h</text>
</a>
</g>
</g>
<!-- Node2&#45;&gt;Node7 -->
<g id="edge6" class="edge">
<title>Node2&#45;&gt;Node7</title>
<path fill="none" stroke="midnightblue" d="M182.29,-116.37C206.9,-107.18 244.19,-93.26 271.49,-83.07"/>
<polygon fill="midnightblue" stroke="midnightblue" points="272.91,-86.28 281.05,-79.5 270.46,-79.72 272.91,-86.28"/>
</g>
<!-- Node8 -->
<g id="node8" class="node">
<title>Node8</title>
<g id="a_node8"><a xlink:title=" ">
<polygon fill="white" stroke="#bfbfbf" points="278.5,-0.5 278.5,-21.5 334.5,-21.5 334.5,-0.5 278.5,-0.5"/>
<text text-anchor="middle" x="306.5" y="-7.9" font-family="Helvetica,sans-Serif" font-size="12.00">stdio.h</text>
</a>
</g>
</g>
<!-- Node7&#45;&gt;Node8 -->
<g id="edge7" class="edge">
<title>Node7&#45;&gt;Node8</title>
<path fill="none" stroke="midnightblue" d="M306.5,-58.25C306.5,-50.94 306.5,-40.69 306.5,-31.7"/>
<polygon fill="midnightblue" stroke="midnightblue" points="310,-31.64 306.5,-21.64 303,-31.64 310,-31.64"/>
</g>
</g>
</svg>
