<?xml version="1.0" encoding="UTF-8" standalone="no"?>
<!DOCTYPE svg PUBLIC "-//W3C//DTD SVG 1.1//EN"
 "http://www.w3.org/Graphics/SVG/1.1/DTD/svg11.dtd">
<!-- Generated by graphviz version 5.0.0 (0)
 -->
<!-- Title: /home/guilhermemtr/Dropbox/workspace/ETH&#45;Zurich/Projects/Weighted&#45;Flooding&#45;Simulator/include/protocol_simulator.h Pages: 1 -->
<svg width="336pt" height="172pt"
 viewBox="0.00 0.00 336.00 172.00" xmlns="http://www.w3.org/2000/svg" xmlns:xlink="http://www.w3.org/1999/xlink">
<g id="graph0" class="graph" transform="scale(1 1) rotate(0) translate(4 168)">
<title>/home/guilhermemtr/Dropbox/workspace/ETH&#45;Zurich/Projects/Weighted&#45;Flooding&#45;Simulator/include/protocol_simulator.h</title>
<polygon fill="white" stroke="transparent" points="-4,4 -4,-168 332,-168 332,4 -4,4"/>
<!-- Node1 -->
<g id="node1" class="node">
<title>Node1</title>
<g id="a_node1"><a xlink:title=" ">
<polygon fill="#bfbfbf" stroke="black" points="0,-116.5 0,-163.5 262,-163.5 262,-116.5 0,-116.5"/>
<text text-anchor="start" x="8" y="-149.9" font-family="Helvetica,sans-Serif" font-size="12.00">/home/guilhermemtr/Dropbox/workspace</text>
<text text-anchor="start" x="8" y="-136.9" font-family="Helvetica,sans-Serif" font-size="12.00">/ETH&#45;Zurich/Projects/Weighted&#45;Flooding</text>
<text text-anchor="middle" x="131" y="-123.9" font-family="Helvetica,sans-Serif" font-size="12.00">&#45;Simulator/include/protocol_simulator.h</text>
</a>
</g>
</g>
<!-- Node2 -->
<g id="node2" class="node">
<title>Node2</title>
<g id="a_node2"><a xlink:title=" ">
<polygon fill="white" stroke="#bfbfbf" points="4.5,-58.5 4.5,-79.5 53.5,-79.5 53.5,-58.5 4.5,-58.5"/>
<text text-anchor="middle" x="29" y="-65.9" font-family="Helvetica,sans-Serif" font-size="12.00">utility</text>
</a>
</g>
</g>
<!-- Node1&#45;&gt;Node2 -->
<g id="edge1" class="edge">
<title>Node1&#45;&gt;Node2</title>
<path fill="none" stroke="midnightblue" d="M97.6,-116.41C82.59,-106.25 65.26,-94.53 51.77,-85.4"/>
<polygon fill="midnightblue" stroke="midnightblue" points="53.37,-82.26 43.13,-79.56 49.45,-88.06 53.37,-82.26"/>
</g>
<!-- Node3 -->
<g id="node3" class="node">
<title>Node3</title>
<g id="a_node3"><a xlink:title=" ">
<polygon fill="white" stroke="#bfbfbf" points="71.5,-58.5 71.5,-79.5 118.5,-79.5 118.5,-58.5 71.5,-58.5"/>
<text text-anchor="middle" x="95" y="-65.9" font-family="Helvetica,sans-Serif" font-size="12.00">tuple</text>
</a>
</g>
</g>
<!-- Node1&#45;&gt;Node3 -->
<g id="edge2" class="edge">
<title>Node1&#45;&gt;Node3</title>
<path fill="none" stroke="midnightblue" d="M119.21,-116.41C114.55,-107.48 109.26,-97.34 104.82,-88.82"/>
<polygon fill="midnightblue" stroke="midnightblue" points="107.81,-86.98 100.08,-79.74 101.6,-90.22 107.81,-86.98"/>
</g>
<!-- Node4 -->
<g id="node4" class="node">
<title>Node4</title>
<g id="a_node4"><a xlink:href="../../d9/d49/types_8h.html" target="_top" xlink:title=" ">
<polygon fill="white" stroke="black" points="137,-58.5 137,-79.5 197,-79.5 197,-58.5 137,-58.5"/>
<text text-anchor="middle" x="167" y="-65.9" font-family="Helvetica,sans-Serif" font-size="12.00">types.h</text>
</a>
</g>
</g>
<!-- Node1&#45;&gt;Node4 -->
<g id="edge3" class="edge">
<title>Node1&#45;&gt;Node4</title>
<path fill="none" stroke="midnightblue" d="M142.79,-116.41C147.45,-107.48 152.74,-97.34 157.18,-88.82"/>
<polygon fill="midnightblue" stroke="midnightblue" points="160.4,-90.22 161.92,-79.74 154.19,-86.98 160.4,-90.22"/>
</g>
<!-- Node8 -->
<g id="node8" class="node">
<title>Node8</title>
<g id="a_node8"><a xlink:href="../../d0/d70/yal__log_8h.html" target="_top" xlink:title=" ">
<polygon fill="white" stroke="black" points="248.5,-58.5 248.5,-79.5 317.5,-79.5 317.5,-58.5 248.5,-58.5"/>
<text text-anchor="middle" x="283" y="-65.9" font-family="Helvetica,sans-Serif" font-size="12.00">yal_log.h</text>
</a>
</g>
</g>
<!-- Node1&#45;&gt;Node8 -->
<g id="edge7" class="edge">
<title>Node1&#45;&gt;Node8</title>
<path fill="none" stroke="midnightblue" d="M180.77,-116.41C204.54,-105.62 232.21,-93.06 252.76,-83.73"/>
<polygon fill="midnightblue" stroke="midnightblue" points="254.29,-86.88 261.95,-79.56 251.4,-80.5 254.29,-86.88"/>
</g>
<!-- Node5 -->
<g id="node5" class="node">
<title>Node5</title>
<g id="a_node5"><a xlink:title=" ">
<polygon fill="white" stroke="#bfbfbf" points="46.5,-0.5 46.5,-21.5 101.5,-21.5 101.5,-0.5 46.5,-0.5"/>
<text text-anchor="middle" x="74" y="-7.9" font-family="Helvetica,sans-Serif" font-size="12.00">vector</text>
</a>
</g>
</g>
<!-- Node4&#45;&gt;Node5 -->
<g id="edge4" class="edge">
<title>Node4&#45;&gt;Node5</title>
<path fill="none" stroke="midnightblue" d="M150.8,-58.25C136.4,-49.57 115.13,-36.76 98.62,-26.82"/>
<polygon fill="midnightblue" stroke="midnightblue" points="100.39,-23.8 90.01,-21.64 96.78,-29.8 100.39,-23.8"/>
</g>
<!-- Node6 -->
<g id="node6" class="node">
<title>Node6</title>
<g id="a_node6"><a xlink:title=" ">
<polygon fill="white" stroke="#bfbfbf" points="119.5,-0.5 119.5,-21.5 180.5,-21.5 180.5,-0.5 119.5,-0.5"/>
<text text-anchor="middle" x="150" y="-7.9" font-family="Helvetica,sans-Serif" font-size="12.00">cstddef</text>
</a>
</g>
</g>
<!-- Node4&#45;&gt;Node6 -->
<g id="edge5" class="edge">
<title>Node4&#45;&gt;Node6</title>
<path fill="none" stroke="midnightblue" d="M164.04,-58.25C161.8,-50.86 158.64,-40.47 155.89,-31.41"/>
<polygon fill="midnightblue" stroke="midnightblue" points="159.18,-30.19 152.93,-21.64 152.48,-32.23 159.18,-30.19"/>
</g>
<!-- Node7 -->
<g id="node7" class="node">
<title>Node7</title>
<g id="a_node7"><a xlink:title=" ">
<polygon fill="white" stroke="#bfbfbf" points="198.5,-0.5 198.5,-21.5 253.5,-21.5 253.5,-0.5 198.5,-0.5"/>
<text text-anchor="middle" x="226" y="-7.9" font-family="Helvetica,sans-Serif" font-size="12.00">climits</text>
</a>
</g>
</g>
<!-- Node4&#45;&gt;Node7 -->
<g id="edge6" class="edge">
<title>Node4&#45;&gt;Node7</title>
<path fill="none" stroke="midnightblue" d="M177.28,-58.25C185.82,-50.14 198.18,-38.41 208.31,-28.79"/>
<polygon fill="midnightblue" stroke="midnightblue" points="211,-31.07 215.84,-21.64 206.18,-25.99 211,-31.07"/>
</g>
<!-- Node9 -->
<g id="node9" class="node">
<title>Node9</title>
<g id="a_node9"><a xlink:title=" ">
<polygon fill="white" stroke="#bfbfbf" points="272,-0.5 272,-21.5 328,-21.5 328,-0.5 272,-0.5"/>
<text text-anchor="middle" x="300" y="-7.9" font-family="Helvetica,sans-Serif" font-size="12.00">stdio.h</text>
</a>
</g>
</g>
<!-- Node8&#45;&gt;Node9 -->
<g id="edge8" class="edge">
<title>Node8&#45;&gt;Node9</title>
<path fill="none" stroke="midnightblue" d="M285.96,-58.25C288.2,-50.86 291.36,-40.47 294.11,-31.41"/>
<polygon fill="midnightblue" stroke="midnightblue" points="297.52,-32.23 297.07,-21.64 290.82,-30.19 297.52,-32.23"/>
</g>
</g>
</svg>
