<?xml version="1.0" encoding="UTF-8" standalone="no"?>
<!DOCTYPE svg PUBLIC "-//W3C//DTD SVG 1.1//EN"
 "http://www.w3.org/Graphics/SVG/1.1/DTD/svg11.dtd">
<!-- Generated by graphviz version 5.0.0 (0)
 -->
<!-- Title: /home/guilhermemtr/Dropbox/workspace/ETH&#45;Zurich/Projects/Weighted&#45;Flooding&#45;Simulator/include/random_utils.h Pages: 1 -->
<svg width="539pt" height="172pt"
 viewBox="0.00 0.00 538.50 172.00" xmlns="http://www.w3.org/2000/svg" xmlns:xlink="http://www.w3.org/1999/xlink">
<g id="graph0" class="graph" transform="scale(1 1) rotate(0) translate(4 168)">
<title>/home/guilhermemtr/Dropbox/workspace/ETH&#45;Zurich/Projects/Weighted&#45;Flooding&#45;Simulator/include/random_utils.h</title>
<polygon fill="white" stroke="transparent" points="-4,4 -4,-168 534.5,-168 534.5,4 -4,4"/>
<!-- Node1 -->
<g id="node1" class="node">
<title>Node1</title>
<g id="a_node1"><a xlink:title=" ">
<polygon fill="#bfbfbf" stroke="black" points="102,-116.5 102,-163.5 364,-163.5 364,-116.5 102,-116.5"/>
<text text-anchor="start" x="110" y="-149.9" font-family="Helvetica,sans-Serif" font-size="12.00">/home/guilhermemtr/Dropbox/workspace</text>
<text text-anchor="start" x="110" y="-136.9" font-family="Helvetica,sans-Serif" font-size="12.00">/ETH&#45;Zurich/Projects/Weighted&#45;Flooding</text>
<text text-anchor="middle" x="233" y="-123.9" font-family="Helvetica,sans-Serif" font-size="12.00">&#45;Simulator/include/random_utils.h</text>
</a>
</g>
</g>
<!-- Node2 -->
<g id="node2" class="node">
<title>Node2</title>
<g id="a_node2"><a xlink:title=" ">
<polygon fill="white" stroke="#bfbfbf" points="0,-58.5 0,-79.5 64,-79.5 64,-58.5 0,-58.5"/>
<text text-anchor="middle" x="32" y="-65.9" font-family="Helvetica,sans-Serif" font-size="12.00">random</text>
</a>
</g>
</g>
<!-- Node1&#45;&gt;Node2 -->
<g id="edge1" class="edge">
<title>Node1&#45;&gt;Node2</title>
<path fill="none" stroke="midnightblue" d="M167.19,-116.41C134.76,-105.28 96.84,-92.26 69.43,-82.85"/>
<polygon fill="midnightblue" stroke="midnightblue" points="70.43,-79.49 59.84,-79.56 68.16,-86.11 70.43,-79.49"/>
</g>
<!-- Node3 -->
<g id="node3" class="node">
<title>Node3</title>
<g id="a_node3"><a xlink:title=" ">
<polygon fill="white" stroke="#bfbfbf" points="82,-58.5 82,-79.5 184,-79.5 184,-58.5 82,-58.5"/>
<text text-anchor="middle" x="133" y="-65.9" font-family="Helvetica,sans-Serif" font-size="12.00">unordered_set</text>
</a>
</g>
</g>
<!-- Node1&#45;&gt;Node3 -->
<g id="edge2" class="edge">
<title>Node1&#45;&gt;Node3</title>
<path fill="none" stroke="midnightblue" d="M200.26,-116.41C185.54,-106.25 168.55,-94.53 155.33,-85.4"/>
<polygon fill="midnightblue" stroke="midnightblue" points="157.07,-82.35 146.85,-79.56 153.09,-88.12 157.07,-82.35"/>
</g>
<!-- Node4 -->
<g id="node4" class="node">
<title>Node4</title>
<g id="a_node4"><a xlink:title=" ">
<polygon fill="white" stroke="#bfbfbf" points="202,-58.5 202,-79.5 264,-79.5 264,-58.5 202,-58.5"/>
<text text-anchor="middle" x="233" y="-65.9" font-family="Helvetica,sans-Serif" font-size="12.00">string.h</text>
</a>
</g>
</g>
<!-- Node1&#45;&gt;Node4 -->
<g id="edge3" class="edge">
<title>Node1&#45;&gt;Node4</title>
<path fill="none" stroke="midnightblue" d="M233,-116.41C233,-107.87 233,-98.22 233,-89.94"/>
<polygon fill="midnightblue" stroke="midnightblue" points="236.5,-89.74 233,-79.74 229.5,-89.74 236.5,-89.74"/>
</g>
<!-- Node5 -->
<g id="node5" class="node">
<title>Node5</title>
<g id="a_node5"><a xlink:href="../../d0/d70/yal__log_8h.html" target="_top" xlink:title=" ">
<polygon fill="white" stroke="black" points="282.5,-58.5 282.5,-79.5 351.5,-79.5 351.5,-58.5 282.5,-58.5"/>
<text text-anchor="middle" x="317" y="-65.9" font-family="Helvetica,sans-Serif" font-size="12.00">yal_log.h</text>
</a>
</g>
</g>
<!-- Node1&#45;&gt;Node5 -->
<g id="edge4" class="edge">
<title>Node1&#45;&gt;Node5</title>
<path fill="none" stroke="midnightblue" d="M260.5,-116.41C272.55,-106.51 286.42,-95.12 297.39,-86.11"/>
<polygon fill="midnightblue" stroke="midnightblue" points="299.64,-88.79 305.15,-79.74 295.2,-83.38 299.64,-88.79"/>
</g>
<!-- Node7 -->
<g id="node7" class="node">
<title>Node7</title>
<g id="a_node7"><a xlink:href="../../da/d10/scoped__lock_8h.html" target="_top" xlink:title=" ">
<polygon fill="white" stroke="black" points="369.5,-58.5 369.5,-79.5 470.5,-79.5 470.5,-58.5 369.5,-58.5"/>
<text text-anchor="middle" x="420" y="-65.9" font-family="Helvetica,sans-Serif" font-size="12.00">scoped_lock.h</text>
</a>
</g>
</g>
<!-- Node1&#45;&gt;Node7 -->
<g id="edge6" class="edge">
<title>Node1&#45;&gt;Node7</title>
<path fill="none" stroke="midnightblue" d="M294.23,-116.41C324.13,-105.37 359.06,-92.49 384.5,-83.1"/>
<polygon fill="midnightblue" stroke="midnightblue" points="385.93,-86.3 394.1,-79.56 383.51,-79.73 385.93,-86.3"/>
</g>
<!-- Node6 -->
<g id="node6" class="node">
<title>Node6</title>
<g id="a_node6"><a xlink:title=" ">
<polygon fill="white" stroke="#bfbfbf" points="289,-0.5 289,-21.5 345,-21.5 345,-0.5 289,-0.5"/>
<text text-anchor="middle" x="317" y="-7.9" font-family="Helvetica,sans-Serif" font-size="12.00">stdio.h</text>
</a>
</g>
</g>
<!-- Node5&#45;&gt;Node6 -->
<g id="edge5" class="edge">
<title>Node5&#45;&gt;Node6</title>
<path fill="none" stroke="midnightblue" d="M317,-58.25C317,-50.94 317,-40.69 317,-31.7"/>
<polygon fill="midnightblue" stroke="midnightblue" points="320.5,-31.64 317,-21.64 313.5,-31.64 320.5,-31.64"/>
</g>
<!-- Node8 -->
<g id="node8" class="node">
<title>Node8</title>
<g id="a_node8"><a xlink:title=" ">
<polygon fill="white" stroke="#bfbfbf" points="373,-0.5 373,-21.5 447,-21.5 447,-0.5 373,-0.5"/>
<text text-anchor="middle" x="410" y="-7.9" font-family="Helvetica,sans-Serif" font-size="12.00">pthread.h</text>
</a>
</g>
</g>
<!-- Node7&#45;&gt;Node8 -->
<g id="edge7" class="edge">
<title>Node7&#45;&gt;Node8</title>
<path fill="none" stroke="midnightblue" d="M418.26,-58.25C416.95,-50.94 415.12,-40.69 413.52,-31.7"/>
<polygon fill="midnightblue" stroke="midnightblue" points="416.93,-30.87 411.72,-21.64 410.03,-32.1 416.93,-30.87"/>
</g>
<!-- Node9 -->
<g id="node9" class="node">
<title>Node9</title>
<g id="a_node9"><a xlink:title=" ">
<polygon fill="white" stroke="#bfbfbf" points="465.5,-0.5 465.5,-21.5 530.5,-21.5 530.5,-0.5 465.5,-0.5"/>
<text text-anchor="middle" x="498" y="-7.9" font-family="Helvetica,sans-Serif" font-size="12.00">assert.h</text>
</a>
</g>
</g>
<!-- Node7&#45;&gt;Node9 -->
<g id="edge8" class="edge">
<title>Node7&#45;&gt;Node9</title>
<path fill="none" stroke="midnightblue" d="M433.59,-58.25C445.33,-49.81 462.52,-37.47 476.19,-27.66"/>
<polygon fill="midnightblue" stroke="midnightblue" points="478.49,-30.32 484.57,-21.64 474.4,-24.63 478.49,-30.32"/>
</g>
</g>
</svg>
