<?xml version="1.0" encoding="UTF-8" standalone="no"?>
<!DOCTYPE svg PUBLIC "-//W3C//DTD SVG 1.1//EN"
 "http://www.w3.org/Graphics/SVG/1.1/DTD/svg11.dtd">
<!-- Generated by graphviz version 5.0.0 (0)
 -->
<!-- Title: include/types.h Pages: 1 -->
<svg width="215pt" height="88pt"
 viewBox="0.00 0.00 215.00 88.00" xmlns="http://www.w3.org/2000/svg" xmlns:xlink="http://www.w3.org/1999/xlink">
<g id="graph0" class="graph" transform="scale(1 1) rotate(0) translate(4 84)">
<title>include/types.h</title>
<polygon fill="white" stroke="transparent" points="-4,4 -4,-84 211,-84 211,4 -4,4"/>
<!-- Node1 -->
<g id="node1" class="node">
<title>Node1</title>
<g id="a_node1"><a xlink:title=" ">
<polygon fill="#bfbfbf" stroke="black" points="50,-58.5 50,-79.5 157,-79.5 157,-58.5 50,-58.5"/>
<text text-anchor="middle" x="103.5" y="-65.9" font-family="Helvetica,sans-Serif" font-size="12.00">include/types.h</text>
</a>
</g>
</g>
<!-- Node2 -->
<g id="node2" class="node">
<title>Node2</title>
<g id="a_node2"><a xlink:title=" ">
<polygon fill="white" stroke="#bfbfbf" points="0,-0.5 0,-21.5 55,-21.5 55,-0.5 0,-0.5"/>
<text text-anchor="middle" x="27.5" y="-7.9" font-family="Helvetica,sans-Serif" font-size="12.00">vector</text>
</a>
</g>
</g>
<!-- Node1&#45;&gt;Node2 -->
<g id="edge1" class="edge">
<title>Node1&#45;&gt;Node2</title>
<path fill="none" stroke="midnightblue" d="M90.26,-58.25C78.82,-49.81 62.07,-37.47 48.75,-27.66"/>
<polygon fill="midnightblue" stroke="midnightblue" points="50.71,-24.76 40.59,-21.64 46.56,-30.39 50.71,-24.76"/>
</g>
<!-- Node3 -->
<g id="node3" class="node">
<title>Node3</title>
<g id="a_node3"><a xlink:title=" ">
<polygon fill="white" stroke="#bfbfbf" points="73,-0.5 73,-21.5 134,-21.5 134,-0.5 73,-0.5"/>
<text text-anchor="middle" x="103.5" y="-7.9" font-family="Helvetica,sans-Serif" font-size="12.00">cstddef</text>
</a>
</g>
</g>
<!-- Node1&#45;&gt;Node3 -->
<g id="edge2" class="edge">
<title>Node1&#45;&gt;Node3</title>
<path fill="none" stroke="midnightblue" d="M103.5,-58.25C103.5,-50.94 103.5,-40.69 103.5,-31.7"/>
<polygon fill="midnightblue" stroke="midnightblue" points="107,-31.64 103.5,-21.64 100,-31.64 107,-31.64"/>
</g>
<!-- Node4 -->
<g id="node4" class="node">
<title>Node4</title>
<g id="a_node4"><a xlink:title=" ">
<polygon fill="white" stroke="#bfbfbf" points="152,-0.5 152,-21.5 207,-21.5 207,-0.5 152,-0.5"/>
<text text-anchor="middle" x="179.5" y="-7.9" font-family="Helvetica,sans-Serif" font-size="12.00">climits</text>
</a>
</g>
</g>
<!-- Node1&#45;&gt;Node4 -->
<g id="edge3" class="edge">
<title>Node1&#45;&gt;Node4</title>
<path fill="none" stroke="midnightblue" d="M116.74,-58.25C128.18,-49.81 144.93,-37.47 158.25,-27.66"/>
<polygon fill="midnightblue" stroke="midnightblue" points="160.44,-30.39 166.41,-21.64 156.29,-24.76 160.44,-30.39"/>
</g>
</g>
</svg>
