<?xml version="1.0" encoding="UTF-8" standalone="no"?>
<!DOCTYPE svg PUBLIC "-//W3C//DTD SVG 1.1//EN"
 "http://www.w3.org/Graphics/SVG/1.1/DTD/svg11.dtd">
<!-- Generated by graphviz version 5.0.0 (0)
 -->
<!-- Title: src/receiver_protocol_simulator.cc Pages: 1 -->
<!--zoomable 378 -->
<svg id="main" version="1.1" xmlns="http://www.w3.org/2000/svg" xmlns:xlink="http://www.w3.org/1999/xlink" xml:space="preserve" onload="init(evt)">
<style type="text/css"><![CDATA[
.edge:hover path { stroke: red; }
.edge:hover polygon { stroke: red; fill: red; }
]]></style>
<script type="text/javascript"><![CDATA[
var edges = document.getElementsByTagName('g');
if (edges && edges.length) {
  for (var i=0;i<edges.length;i++) {
    if (edges[i].id.substr(0,4)=='edge') {
      edges[i].setAttribute('class','edge');
    }
  }
}
]]></script>
        <defs>
                <circle id="rim" cx="0" cy="0" r="7"/>
                <circle id="rim2" cx="0" cy="0" r="3.5"/>
                <g id="zoomPlus">
                        <use xlink:href="#rim" fill="#404040">
                                <set attributeName="fill" to="#808080" begin="zoomplus.mouseover" end="zoomplus.mouseout"/>
                        </use>
                        <path d="M-4,0h8M0,-4v8" fill="none" stroke="white" stroke-width="1.5" pointer-events="none"/>
                </g>
                <g id="zoomMin">
                        <use xlink:href="#rim" fill="#404040">
                                <set attributeName="fill" to="#808080" begin="zoomminus.mouseover" end="zoomminus.mouseout"/>
                        </use>
                        <path d="M-4,0h8" fill="none" stroke="white" stroke-width="1.5" pointer-events="none"/>
                </g>
                <g id="dirArrow">
                        <path fill="none" stroke="white" stroke-width="1.5" d="M0,-3.0v7 M-2.5,-0.5L0,-3.0L2.5,-0.5"/>
                </g>
               <g id="resetDef">
                       <use xlink:href="#rim2" fill="#404040">
                               <set attributeName="fill" to="#808080" begin="reset.mouseover" end="reset.mouseout"/>
                       </use>
               </g>
        </defs>

<script type="text/javascript">
var viewWidth = 1056;
var viewHeight = 378;
var sectionId = 'dynsection-0';
</script>
<script xlink:href="../../svgpan.js"/>
<svg id="graph" class="graph">
<g id="viewport">
<title>src/receiver_protocol_simulator.cc</title>
<polygon fill="white" stroke="transparent" points="-4,4 -4,-374 1052,-374 1052,4 -4,4"/>
<!-- Node1 -->
<g id="node1" class="node">
<title>Node1</title>
<g id="a_node1"><a xlink:title=" ">
<polygon fill="#bfbfbf" stroke="black" points="350,-348.5 350,-369.5 569,-369.5 569,-348.5 350,-348.5"/>
<text text-anchor="middle" x="459.5" y="-355.9" font-family="Helvetica,sans-Serif" font-size="12.00">src/receiver_protocol_simulator.cc</text>
</a>
</g>
</g>
<!-- Node2 -->
<g id="node2" class="node">
<title>Node2</title>
<g id="a_node2"><a xlink:href="../../da/dd8/receiver__protocol__simulator_8h.html" target="_top" xlink:title=" ">
<polygon fill="white" stroke="black" points="363.5,-290.5 363.5,-311.5 555.5,-311.5 555.5,-290.5 363.5,-290.5"/>
<text text-anchor="middle" x="459.5" y="-297.9" font-family="Helvetica,sans-Serif" font-size="12.00">receiver_protocol_simulator.h</text>
</a>
</g>
</g>
<!-- Node1&#45;&gt;Node2 -->
<g id="edge1" class="edge">
<title>Node1&#45;&gt;Node2</title>
<path fill="none" stroke="midnightblue" d="M459.5,-348.25C459.5,-340.94 459.5,-330.69 459.5,-321.7"/>
<polygon fill="midnightblue" stroke="midnightblue" points="463,-321.64 459.5,-311.64 456,-321.64 463,-321.64"/>
</g>
<!-- Node3 -->
<g id="node3" class="node">
<title>Node3</title>
<g id="a_node3"><a xlink:href="../../df/d52/abstract__receive__protocol__simulator_8h.html" target="_top" xlink:title=" ">
<polygon fill="white" stroke="black" points="264.5,-232.5 264.5,-253.5 506.5,-253.5 506.5,-232.5 264.5,-232.5"/>
<text text-anchor="middle" x="385.5" y="-239.9" font-family="Helvetica,sans-Serif" font-size="12.00">abstract_receive_protocol_simulator.h</text>
</a>
</g>
</g>
<!-- Node2&#45;&gt;Node3 -->
<g id="edge2" class="edge">
<title>Node2&#45;&gt;Node3</title>
<path fill="none" stroke="midnightblue" d="M446.61,-290.25C435.57,-281.89 419.47,-269.71 406.56,-259.94"/>
<polygon fill="midnightblue" stroke="midnightblue" points="408.33,-256.89 398.24,-253.64 404.1,-262.47 408.33,-256.89"/>
</g>
<!-- Node20 -->
<g id="node20" class="node">
<title>Node20</title>
<g id="a_node20"><a xlink:href="../../d6/d74/random__utils_8h.html" target="_top" xlink:title=" ">
<polygon fill="white" stroke="black" points="640,-174.5 640,-195.5 745,-195.5 745,-174.5 640,-174.5"/>
<text text-anchor="middle" x="692.5" y="-181.9" font-family="Helvetica,sans-Serif" font-size="12.00">random_utils.h</text>
</a>
</g>
</g>
<!-- Node2&#45;&gt;Node20 -->
<g id="edge30" class="edge">
<title>Node2&#45;&gt;Node20</title>
<path fill="none" stroke="midnightblue" d="M478.96,-290.48C520,-270.4 615.54,-223.65 663.68,-200.1"/>
<polygon fill="midnightblue" stroke="midnightblue" points="665.48,-203.12 672.93,-195.58 662.41,-196.83 665.48,-203.12"/>
</g>
<!-- Node4 -->
<g id="node4" class="node">
<title>Node4</title>
<g id="a_node4"><a xlink:title=" ">
<polygon fill="white" stroke="#bfbfbf" points="0,-0.5 0,-21.5 55,-21.5 55,-0.5 0,-0.5"/>
<text text-anchor="middle" x="27.5" y="-7.9" font-family="Helvetica,sans-Serif" font-size="12.00">vector</text>
</a>
</g>
</g>
<!-- Node3&#45;&gt;Node4 -->
<g id="edge3" class="edge">
<title>Node3&#45;&gt;Node4</title>
<path fill="none" stroke="midnightblue" d="M313.9,-232.44C216.52,-217.78 50.4,-186.25 15.5,-138 -7.47,-106.25 7.39,-57.59 18.51,-30.99"/>
<polygon fill="midnightblue" stroke="midnightblue" points="21.8,-32.21 22.65,-21.65 15.4,-29.38 21.8,-32.21"/>
</g>
<!-- Node5 -->
<g id="node5" class="node">
<title>Node5</title>
<g id="a_node5"><a xlink:title=" ">
<polygon fill="white" stroke="#bfbfbf" points="24.5,-116.5 24.5,-137.5 100.5,-137.5 100.5,-116.5 24.5,-116.5"/>
<text text-anchor="middle" x="62.5" y="-123.9" font-family="Helvetica,sans-Serif" font-size="12.00">functional</text>
</a>
</g>
</g>
<!-- Node3&#45;&gt;Node5 -->
<g id="edge4" class="edge">
<title>Node3&#45;&gt;Node5</title>
<path fill="none" stroke="midnightblue" d="M357.7,-232.48C330.78,-223.24 288.8,-208.77 252.5,-196 198.8,-177.11 136.73,-154.8 98.54,-141.03"/>
<polygon fill="midnightblue" stroke="midnightblue" points="99.5,-137.65 88.9,-137.55 97.12,-144.24 99.5,-137.65"/>
</g>
<!-- Node6 -->
<g id="node6" class="node">
<title>Node6</title>
<g id="a_node6"><a xlink:href="../../d8/de7/corruptions__stake__protocol__simulator_8h.html" target="_top" xlink:title=" ">
<polygon fill="white" stroke="black" points="261.5,-174.5 261.5,-195.5 509.5,-195.5 509.5,-174.5 261.5,-174.5"/>
<text text-anchor="middle" x="385.5" y="-181.9" font-family="Helvetica,sans-Serif" font-size="12.00">corruptions_stake_protocol_simulator.h</text>
</a>
</g>
</g>
<!-- Node3&#45;&gt;Node6 -->
<g id="edge5" class="edge">
<title>Node3&#45;&gt;Node6</title>
<path fill="none" stroke="midnightblue" d="M385.5,-232.25C385.5,-224.94 385.5,-214.69 385.5,-205.7"/>
<polygon fill="midnightblue" stroke="midnightblue" points="389,-205.64 385.5,-195.64 382,-205.64 389,-205.64"/>
</g>
<!-- Node3&#45;&gt;Node20 -->
<g id="edge22" class="edge">
<title>Node3&#45;&gt;Node20</title>
<path fill="none" stroke="midnightblue" d="M437.93,-232.44C491.24,-222.71 573.84,-207.65 630.4,-197.33"/>
<polygon fill="midnightblue" stroke="midnightblue" points="631.08,-200.76 640.29,-195.52 629.82,-193.88 631.08,-200.76"/>
</g>
<!-- Node6&#45;&gt;Node5 -->
<g id="edge18" class="edge">
<title>Node6&#45;&gt;Node5</title>
<path fill="none" stroke="midnightblue" d="M323.43,-174.46C269.69,-166.02 189.66,-153.01 110.8,-138.19"/>
<polygon fill="midnightblue" stroke="midnightblue" points="111.17,-134.69 100.69,-136.27 109.87,-141.57 111.17,-134.69"/>
</g>
<!-- Node7 -->
<g id="node7" class="node">
<title>Node7</title>
<g id="a_node7"><a xlink:href="../../dc/d8d/protocol__simulator_8h.html" target="_top" xlink:title=" ">
<polygon fill="white" stroke="black" points="119,-116.5 119,-137.5 256,-137.5 256,-116.5 119,-116.5"/>
<text text-anchor="middle" x="187.5" y="-123.9" font-family="Helvetica,sans-Serif" font-size="12.00">protocol_simulator.h</text>
</a>
</g>
</g>
<!-- Node6&#45;&gt;Node7 -->
<g id="edge6" class="edge">
<title>Node6&#45;&gt;Node7</title>
<path fill="none" stroke="midnightblue" d="M351.46,-174.37C318.11,-164.94 267.15,-150.53 230.9,-140.27"/>
<polygon fill="midnightblue" stroke="midnightblue" points="231.67,-136.85 221.09,-137.5 229.76,-143.59 231.67,-136.85"/>
</g>
<!-- Node13 -->
<g id="node13" class="node">
<title>Node13</title>
<g id="a_node13"><a xlink:href="../../d0/d70/yal__log_8h.html" target="_top" xlink:title=" ">
<polygon fill="white" stroke="black" points="250,-58.5 250,-79.5 319,-79.5 319,-58.5 250,-58.5"/>
<text text-anchor="middle" x="284.5" y="-65.9" font-family="Helvetica,sans-Serif" font-size="12.00">yal_log.h</text>
</a>
</g>
</g>
<!-- Node6&#45;&gt;Node13 -->
<g id="edge21" class="edge">
<title>Node6&#45;&gt;Node13</title>
<path fill="none" stroke="midnightblue" d="M356.99,-174.5C339.17,-167.17 317.12,-155.33 303.5,-138 292.64,-124.18 287.98,-104.49 285.99,-89.86"/>
<polygon fill="midnightblue" stroke="midnightblue" points="289.46,-89.41 284.92,-79.83 282.5,-90.15 289.46,-89.41"/>
</g>
<!-- Node15 -->
<g id="node15" class="node">
<title>Node15</title>
<g id="a_node15"><a xlink:title=" ">
<polygon fill="white" stroke="#bfbfbf" points="600.5,-116.5 600.5,-137.5 664.5,-137.5 664.5,-116.5 600.5,-116.5"/>
<text text-anchor="middle" x="632.5" y="-123.9" font-family="Helvetica,sans-Serif" font-size="12.00">random</text>
</a>
</g>
</g>
<!-- Node6&#45;&gt;Node15 -->
<g id="edge15" class="edge">
<title>Node6&#45;&gt;Node15</title>
<path fill="none" stroke="midnightblue" d="M428.73,-174.47C470.24,-165.28 534.71,-150.9 590.5,-138 590.6,-137.98 590.7,-137.95 590.8,-137.93"/>
<polygon fill="midnightblue" stroke="midnightblue" points="591.46,-141.37 600.41,-135.69 589.87,-134.55 591.46,-141.37"/>
</g>
<!-- Node16 -->
<g id="node16" class="node">
<title>Node16</title>
<g id="a_node16"><a xlink:title=" ">
<polygon fill="white" stroke="#bfbfbf" points="312.5,-116.5 312.5,-137.5 386.5,-137.5 386.5,-116.5 312.5,-116.5"/>
<text text-anchor="middle" x="349.5" y="-123.9" font-family="Helvetica,sans-Serif" font-size="12.00">algorithm</text>
</a>
</g>
</g>
<!-- Node6&#45;&gt;Node16 -->
<g id="edge16" class="edge">
<title>Node6&#45;&gt;Node16</title>
<path fill="none" stroke="midnightblue" d="M379.23,-174.25C374.27,-166.54 367.22,-155.56 361.22,-146.23"/>
<polygon fill="midnightblue" stroke="midnightblue" points="364.05,-144.16 355.7,-137.64 358.16,-147.95 364.05,-144.16"/>
</g>
<!-- Node17 -->
<g id="node17" class="node">
<title>Node17</title>
<g id="a_node17"><a xlink:title=" ">
<polygon fill="white" stroke="#bfbfbf" points="405,-116.5 405,-137.5 440,-137.5 440,-116.5 405,-116.5"/>
<text text-anchor="middle" x="422.5" y="-123.9" font-family="Helvetica,sans-Serif" font-size="12.00">set</text>
</a>
</g>
</g>
<!-- Node6&#45;&gt;Node17 -->
<g id="edge17" class="edge">
<title>Node6&#45;&gt;Node17</title>
<path fill="none" stroke="midnightblue" d="M391.94,-174.25C397.04,-166.54 404.29,-155.56 410.45,-146.23"/>
<polygon fill="midnightblue" stroke="midnightblue" points="413.54,-147.92 416.13,-137.64 407.7,-144.06 413.54,-147.92"/>
</g>
<!-- Node18 -->
<g id="node18" class="node">
<title>Node18</title>
<g id="a_node18"><a xlink:title=" ">
<polygon fill="white" stroke="#bfbfbf" points="458.5,-116.5 458.5,-137.5 508.5,-137.5 508.5,-116.5 458.5,-116.5"/>
<text text-anchor="middle" x="483.5" y="-123.9" font-family="Helvetica,sans-Serif" font-size="12.00">ctime</text>
</a>
</g>
</g>
<!-- Node6&#45;&gt;Node18 -->
<g id="edge19" class="edge">
<title>Node6&#45;&gt;Node18</title>
<path fill="none" stroke="midnightblue" d="M402.57,-174.25C417.75,-165.57 440.16,-152.76 457.56,-142.82"/>
<polygon fill="midnightblue" stroke="midnightblue" points="459.68,-145.64 466.63,-137.64 456.21,-139.57 459.68,-145.64"/>
</g>
<!-- Node19 -->
<g id="node19" class="node">
<title>Node19</title>
<g id="a_node19"><a xlink:title=" ">
<polygon fill="white" stroke="#bfbfbf" points="527,-116.5 527,-137.5 582,-137.5 582,-116.5 527,-116.5"/>
<text text-anchor="middle" x="554.5" y="-123.9" font-family="Helvetica,sans-Serif" font-size="12.00">cstdlib</text>
</a>
</g>
</g>
<!-- Node6&#45;&gt;Node19 -->
<g id="edge20" class="edge">
<title>Node6&#45;&gt;Node19</title>
<path fill="none" stroke="midnightblue" d="M414.55,-174.37C442.99,-164.95 486.44,-150.55 517.38,-140.3"/>
<polygon fill="midnightblue" stroke="midnightblue" points="518.55,-143.6 526.95,-137.13 516.35,-136.95 518.55,-143.6"/>
</g>
<!-- Node8 -->
<g id="node8" class="node">
<title>Node8</title>
<g id="a_node8"><a xlink:title=" ">
<polygon fill="white" stroke="#bfbfbf" points="32,-58.5 32,-79.5 81,-79.5 81,-58.5 32,-58.5"/>
<text text-anchor="middle" x="56.5" y="-65.9" font-family="Helvetica,sans-Serif" font-size="12.00">utility</text>
</a>
</g>
</g>
<!-- Node7&#45;&gt;Node8 -->
<g id="edge7" class="edge">
<title>Node7&#45;&gt;Node8</title>
<path fill="none" stroke="midnightblue" d="M164.98,-116.37C143.76,-107.3 111.77,-93.63 88.02,-83.48"/>
<polygon fill="midnightblue" stroke="midnightblue" points="89.3,-80.21 78.73,-79.5 86.55,-86.65 89.3,-80.21"/>
</g>
<!-- Node9 -->
<g id="node9" class="node">
<title>Node9</title>
<g id="a_node9"><a xlink:title=" ">
<polygon fill="white" stroke="#bfbfbf" points="99,-58.5 99,-79.5 146,-79.5 146,-58.5 99,-58.5"/>
<text text-anchor="middle" x="122.5" y="-65.9" font-family="Helvetica,sans-Serif" font-size="12.00">tuple</text>
</a>
</g>
</g>
<!-- Node7&#45;&gt;Node9 -->
<g id="edge8" class="edge">
<title>Node7&#45;&gt;Node9</title>
<path fill="none" stroke="midnightblue" d="M176.18,-116.25C166.58,-107.97 152.61,-95.94 141.33,-86.22"/>
<polygon fill="midnightblue" stroke="midnightblue" points="143.55,-83.52 133.69,-79.64 138.98,-88.82 143.55,-83.52"/>
</g>
<!-- Node10 -->
<g id="node10" class="node">
<title>Node10</title>
<g id="a_node10"><a xlink:href="../../d9/d49/types_8h.html" target="_top" xlink:title=" ">
<polygon fill="white" stroke="black" points="164.5,-58.5 164.5,-79.5 224.5,-79.5 224.5,-58.5 164.5,-58.5"/>
<text text-anchor="middle" x="194.5" y="-65.9" font-family="Helvetica,sans-Serif" font-size="12.00">types.h</text>
</a>
</g>
</g>
<!-- Node7&#45;&gt;Node10 -->
<g id="edge9" class="edge">
<title>Node7&#45;&gt;Node10</title>
<path fill="none" stroke="midnightblue" d="M188.72,-116.25C189.63,-108.94 190.91,-98.69 192.04,-89.7"/>
<polygon fill="midnightblue" stroke="midnightblue" points="195.53,-90 193.29,-79.64 188.58,-89.13 195.53,-90"/>
</g>
<!-- Node7&#45;&gt;Node13 -->
<g id="edge13" class="edge">
<title>Node7&#45;&gt;Node13</title>
<path fill="none" stroke="midnightblue" d="M204.4,-116.25C219.42,-107.57 241.6,-94.76 258.82,-84.82"/>
<polygon fill="midnightblue" stroke="midnightblue" points="260.89,-87.67 267.8,-79.64 257.39,-81.61 260.89,-87.67"/>
</g>
<!-- Node10&#45;&gt;Node4 -->
<g id="edge10" class="edge">
<title>Node10&#45;&gt;Node4</title>
<path fill="none" stroke="midnightblue" d="M165.79,-58.37C137.89,-49.02 95.38,-34.76 64.86,-24.53"/>
<polygon fill="midnightblue" stroke="midnightblue" points="65.6,-21.08 55,-21.22 63.37,-27.72 65.6,-21.08"/>
</g>
<!-- Node11 -->
<g id="node11" class="node">
<title>Node11</title>
<g id="a_node11"><a xlink:title=" ">
<polygon fill="white" stroke="#bfbfbf" points="96,-0.5 96,-21.5 157,-21.5 157,-0.5 96,-0.5"/>
<text text-anchor="middle" x="126.5" y="-7.9" font-family="Helvetica,sans-Serif" font-size="12.00">cstddef</text>
</a>
</g>
</g>
<!-- Node10&#45;&gt;Node11 -->
<g id="edge11" class="edge">
<title>Node10&#45;&gt;Node11</title>
<path fill="none" stroke="midnightblue" d="M182.66,-58.25C172.61,-49.97 158,-37.94 146.2,-28.22"/>
<polygon fill="midnightblue" stroke="midnightblue" points="148.15,-25.3 138.21,-21.64 143.7,-30.7 148.15,-25.3"/>
</g>
<!-- Node12 -->
<g id="node12" class="node">
<title>Node12</title>
<g id="a_node12"><a xlink:title=" ">
<polygon fill="white" stroke="#bfbfbf" points="175,-0.5 175,-21.5 230,-21.5 230,-0.5 175,-0.5"/>
<text text-anchor="middle" x="202.5" y="-7.9" font-family="Helvetica,sans-Serif" font-size="12.00">climits</text>
</a>
</g>
</g>
<!-- Node10&#45;&gt;Node12 -->
<g id="edge12" class="edge">
<title>Node10&#45;&gt;Node12</title>
<path fill="none" stroke="midnightblue" d="M195.89,-58.25C196.94,-50.94 198.4,-40.69 199.69,-31.7"/>
<polygon fill="midnightblue" stroke="midnightblue" points="203.17,-32.04 201.12,-21.64 196.24,-31.05 203.17,-32.04"/>
</g>
<!-- Node14 -->
<g id="node14" class="node">
<title>Node14</title>
<g id="a_node14"><a xlink:title=" ">
<polygon fill="white" stroke="#bfbfbf" points="256.5,-0.5 256.5,-21.5 312.5,-21.5 312.5,-0.5 256.5,-0.5"/>
<text text-anchor="middle" x="284.5" y="-7.9" font-family="Helvetica,sans-Serif" font-size="12.00">stdio.h</text>
</a>
</g>
</g>
<!-- Node13&#45;&gt;Node14 -->
<g id="edge14" class="edge">
<title>Node13&#45;&gt;Node14</title>
<path fill="none" stroke="midnightblue" d="M284.5,-58.25C284.5,-50.94 284.5,-40.69 284.5,-31.7"/>
<polygon fill="midnightblue" stroke="midnightblue" points="288,-31.64 284.5,-21.64 281,-31.64 288,-31.64"/>
</g>
<!-- Node20&#45;&gt;Node13 -->
<g id="edge26" class="edge">
<title>Node20&#45;&gt;Node13</title>
<path fill="none" stroke="midnightblue" d="M692.9,-174.37C692.95,-159.38 690.63,-130.67 673.5,-116 622.7,-72.51 420.37,-68.69 329.31,-69.26"/>
<polygon fill="midnightblue" stroke="midnightblue" points="329.26,-65.76 319.29,-69.34 329.32,-72.76 329.26,-65.76"/>
</g>
<!-- Node20&#45;&gt;Node15 -->
<g id="edge23" class="edge">
<title>Node20&#45;&gt;Node15</title>
<path fill="none" stroke="midnightblue" d="M682.05,-174.25C673.27,-166.05 660.54,-154.17 650.19,-144.51"/>
<polygon fill="midnightblue" stroke="midnightblue" points="652.53,-141.91 642.83,-137.64 647.75,-147.02 652.53,-141.91"/>
</g>
<!-- Node21 -->
<g id="node21" class="node">
<title>Node21</title>
<g id="a_node21"><a xlink:title=" ">
<polygon fill="white" stroke="#bfbfbf" points="720.5,-116.5 720.5,-137.5 822.5,-137.5 822.5,-116.5 720.5,-116.5"/>
<text text-anchor="middle" x="771.5" y="-123.9" font-family="Helvetica,sans-Serif" font-size="12.00">unordered_set</text>
</a>
</g>
</g>
<!-- Node20&#45;&gt;Node21 -->
<g id="edge24" class="edge">
<title>Node20&#45;&gt;Node21</title>
<path fill="none" stroke="midnightblue" d="M706.26,-174.25C718.16,-165.81 735.57,-153.47 749.41,-143.66"/>
<polygon fill="midnightblue" stroke="midnightblue" points="751.76,-146.28 757.9,-137.64 747.71,-140.57 751.76,-146.28"/>
</g>
<!-- Node22 -->
<g id="node22" class="node">
<title>Node22</title>
<g id="a_node22"><a xlink:title=" ">
<polygon fill="white" stroke="#bfbfbf" points="840.5,-116.5 840.5,-137.5 902.5,-137.5 902.5,-116.5 840.5,-116.5"/>
<text text-anchor="middle" x="871.5" y="-123.9" font-family="Helvetica,sans-Serif" font-size="12.00">string.h</text>
</a>
</g>
</g>
<!-- Node20&#45;&gt;Node22 -->
<g id="edge25" class="edge">
<title>Node20&#45;&gt;Node22</title>
<path fill="none" stroke="midnightblue" d="M723.27,-174.37C753.17,-165.02 798.71,-150.77 831.42,-140.54"/>
<polygon fill="midnightblue" stroke="midnightblue" points="832.63,-143.83 841.13,-137.5 830.54,-137.15 832.63,-143.83"/>
</g>
<!-- Node23 -->
<g id="node23" class="node">
<title>Node23</title>
<g id="a_node23"><a xlink:href="../../da/d10/scoped__lock_8h.html" target="_top" xlink:title=" ">
<polygon fill="white" stroke="black" points="921,-116.5 921,-137.5 1022,-137.5 1022,-116.5 921,-116.5"/>
<text text-anchor="middle" x="971.5" y="-123.9" font-family="Helvetica,sans-Serif" font-size="12.00">scoped_lock.h</text>
</a>
</g>
</g>
<!-- Node20&#45;&gt;Node23 -->
<g id="edge27" class="edge">
<title>Node20&#45;&gt;Node23</title>
<path fill="none" stroke="midnightblue" d="M740.14,-174.44C788.29,-164.77 862.73,-149.83 914.1,-139.52"/>
<polygon fill="midnightblue" stroke="midnightblue" points="914.94,-142.92 924.05,-137.52 913.56,-136.06 914.94,-142.92"/>
</g>
<!-- Node24 -->
<g id="node24" class="node">
<title>Node24</title>
<g id="a_node24"><a xlink:title=" ">
<polygon fill="white" stroke="#bfbfbf" points="890.5,-58.5 890.5,-79.5 964.5,-79.5 964.5,-58.5 890.5,-58.5"/>
<text text-anchor="middle" x="927.5" y="-65.9" font-family="Helvetica,sans-Serif" font-size="12.00">pthread.h</text>
</a>
</g>
</g>
<!-- Node23&#45;&gt;Node24 -->
<g id="edge28" class="edge">
<title>Node23&#45;&gt;Node24</title>
<path fill="none" stroke="midnightblue" d="M963.84,-116.25C957.65,-108.38 948.79,-97.1 941.37,-87.65"/>
<polygon fill="midnightblue" stroke="midnightblue" points="944.01,-85.34 935.08,-79.64 938.5,-89.67 944.01,-85.34"/>
</g>
<!-- Node25 -->
<g id="node25" class="node">
<title>Node25</title>
<g id="a_node25"><a xlink:title=" ">
<polygon fill="white" stroke="#bfbfbf" points="983,-58.5 983,-79.5 1048,-79.5 1048,-58.5 983,-58.5"/>
<text text-anchor="middle" x="1015.5" y="-65.9" font-family="Helvetica,sans-Serif" font-size="12.00">assert.h</text>
</a>
</g>
</g>
<!-- Node23&#45;&gt;Node25 -->
<g id="edge29" class="edge">
<title>Node23&#45;&gt;Node25</title>
<path fill="none" stroke="midnightblue" d="M979.16,-116.25C985.35,-108.38 994.21,-97.1 1001.63,-87.65"/>
<polygon fill="midnightblue" stroke="midnightblue" points="1004.5,-89.67 1007.92,-79.64 998.99,-85.34 1004.5,-89.67"/>
</g>
</g>
</svg>
        <g id="navigator" transform="translate(0 0)" fill="#404254">
                <rect fill="#f2f5e9" fill-opacity="0.5" stroke="#606060" stroke-width=".5" x="0" y="0" width="60" height="60"/>
                <use id="zoomplus" xlink:href="#zoomPlus" x="17" y="9" onmousedown="handleZoom(evt,'in')"/>
                <use id="zoomminus" xlink:href="#zoomMin" x="42" y="9" onmousedown="handleZoom(evt,'out')"/>
                <use id="reset" xlink:href="#resetDef" x="30" y="36" onmousedown="handleReset()"/>
                <g id="arrowUp" xlink:href="#dirArrow" transform="translate(30 24)" onmousedown="handlePan(0,-1)">
                  <use xlink:href="#rim" fill="#404040">
                        <set attributeName="fill" to="#808080" begin="arrowUp.mouseover" end="arrowUp.mouseout"/>
                  </use>
                  <path fill="none" stroke="white" stroke-width="1.5" d="M0,-3.0v7 M-2.5,-0.5L0,-3.0L2.5,-0.5"/>
                </g>
                <g id="arrowRight" xlink:href="#dirArrow" transform="rotate(90) translate(36 -43)" onmousedown="handlePan(1,0)">
                  <use xlink:href="#rim" fill="#404040">
                        <set attributeName="fill" to="#808080" begin="arrowRight.mouseover" end="arrowRight.mouseout"/>
                  </use>
                  <path fill="none" stroke="white" stroke-width="1.5" d="M0,-3.0v7 M-2.5,-0.5L0,-3.0L2.5,-0.5"/>
                </g>
                <g id="arrowDown" xlink:href="#dirArrow" transform="rotate(180) translate(-30 -48)" onmousedown="handlePan(0,1)">
                  <use xlink:href="#rim" fill="#404040">
                        <set attributeName="fill" to="#808080" begin="arrowDown.mouseover" end="arrowDown.mouseout"/>
                  </use>
                  <path fill="none" stroke="white" stroke-width="1.5" d="M0,-3.0v7 M-2.5,-0.5L0,-3.0L2.5,-0.5"/>
                </g>
                <g id="arrowLeft" xlink:href="#dirArrow" transform="rotate(270) translate(-36 17)" onmousedown="handlePan(-1,0)">
                  <use xlink:href="#rim" fill="#404040">
                        <set attributeName="fill" to="#808080" begin="arrowLeft.mouseover" end="arrowLeft.mouseout"/>
                  </use>
                  <path fill="none" stroke="white" stroke-width="1.5" d="M0,-3.0v7 M-2.5,-0.5L0,-3.0L2.5,-0.5"/>
                </g>
        </g>
        <svg viewBox="0 0 15 15" width="100%" height="30px" preserveAspectRatio="xMaxYMin meet">
         <g id="arrow_out" transform="scale(0.3 0.3)">
          <a xlink:href="receiver__protocol__simulator_8cc__incl_org.svg" target="_base">
           <rect id="button" ry="5" rx="5" y="6" x="6" height="38" width="38"
                fill="#f2f5e9" fill-opacity="0.5" stroke="#606060" stroke-width="1.0"/>
           <path id="arrow"
             d="M 11.500037,31.436501 C 11.940474,20.09759 22.043105,11.32322 32.158766,21.979434 L 37.068811,17.246167 C 37.068811,17.246167 37.088388,32 37.088388,32 L 22.160133,31.978069 C 22.160133,31.978069 26.997745,27.140456 26.997745,27.140456 C 18.528582,18.264221 13.291696,25.230495 11.500037,31.436501 z"
             style="fill:#404040;"/>
          </a>
         </g>
        </svg>
</svg>
