<?xml version="1.0" encoding="UTF-8" standalone="no"?>
<!DOCTYPE svg PUBLIC "-//W3C//DTD SVG 1.1//EN"
 "http://www.w3.org/Graphics/SVG/1.1/DTD/svg11.dtd">
<!-- Generated by graphviz version 5.0.0 (0)
 -->
<!-- Title: include/k_out_protocol_simulator.h Pages: 1 -->
<svg width="1323pt" height="320pt"
 viewBox="0.00 0.00 1323.00 320.00" xmlns="http://www.w3.org/2000/svg" xmlns:xlink="http://www.w3.org/1999/xlink">
<g id="graph0" class="graph" transform="scale(1 1) rotate(0) translate(4 316)">
<title>include/k_out_protocol_simulator.h</title>
<polygon fill="white" stroke="transparent" points="-4,4 -4,-316 1319,-316 1319,4 -4,4"/>
<!-- Node1 -->
<g id="node1" class="node">
<title>Node1</title>
<g id="a_node1"><a xlink:title=" ">
<polygon fill="#bfbfbf" stroke="black" points="609,-290.5 609,-311.5 831,-311.5 831,-290.5 609,-290.5"/>
<text text-anchor="middle" x="720" y="-297.9" font-family="Helvetica,sans-Serif" font-size="12.00">include/k_out_protocol_simulator.h</text>
</a>
</g>
</g>
<!-- Node2 -->
<g id="node2" class="node">
<title>Node2</title>
<g id="a_node2"><a xlink:title=" ">
<polygon fill="white" stroke="#bfbfbf" points="116.5,-232.5 116.5,-253.5 185.5,-253.5 185.5,-232.5 116.5,-232.5"/>
<text text-anchor="middle" x="151" y="-239.9" font-family="Helvetica,sans-Serif" font-size="12.00">iostream</text>
</a>
</g>
</g>
<!-- Node1&#45;&gt;Node2 -->
<g id="edge1" class="edge">
<title>Node1&#45;&gt;Node2</title>
<path fill="none" stroke="midnightblue" d="M608.76,-293.81C503.18,-287.08 340.24,-274.45 200,-254 198.55,-253.79 197.08,-253.56 195.59,-253.32"/>
<polygon fill="midnightblue" stroke="midnightblue" points="196.17,-249.87 185.71,-251.59 194.96,-256.76 196.17,-249.87"/>
</g>
<!-- Node3 -->
<g id="node3" class="node">
<title>Node3</title>
<g id="a_node3"><a xlink:title=" ">
<polygon fill="white" stroke="#bfbfbf" points="242,-174.5 242,-195.5 296,-195.5 296,-174.5 242,-174.5"/>
<text text-anchor="middle" x="269" y="-181.9" font-family="Helvetica,sans-Serif" font-size="12.00">queue</text>
</a>
</g>
</g>
<!-- Node1&#45;&gt;Node3 -->
<g id="edge2" class="edge">
<title>Node1&#45;&gt;Node3</title>
<path fill="none" stroke="midnightblue" d="M608.84,-292.79C518.07,-285.67 397.75,-273.06 353,-254 325.95,-242.48 300.55,-219.59 284.9,-203.56"/>
<polygon fill="midnightblue" stroke="midnightblue" points="287.07,-200.76 277.66,-195.9 281.99,-205.57 287.07,-200.76"/>
</g>
<!-- Node4 -->
<g id="node4" class="node">
<title>Node4</title>
<g id="a_node4"><a xlink:title=" ">
<polygon fill="white" stroke="#bfbfbf" points="1062,-116.5 1062,-137.5 1164,-137.5 1164,-116.5 1062,-116.5"/>
<text text-anchor="middle" x="1113" y="-123.9" font-family="Helvetica,sans-Serif" font-size="12.00">unordered_set</text>
</a>
</g>
</g>
<!-- Node1&#45;&gt;Node4 -->
<g id="edge3" class="edge">
<title>Node1&#45;&gt;Node4</title>
<path fill="none" stroke="midnightblue" d="M741.97,-290.38C808.01,-261.48 1004.88,-175.32 1081.76,-141.67"/>
<polygon fill="midnightblue" stroke="midnightblue" points="1083.18,-144.87 1090.94,-137.65 1080.38,-138.46 1083.18,-144.87"/>
</g>
<!-- Node5 -->
<g id="node5" class="node">
<title>Node5</title>
<g id="a_node5"><a xlink:title=" ">
<polygon fill="white" stroke="#bfbfbf" points="576.5,-116.5 576.5,-137.5 609.5,-137.5 609.5,-116.5 576.5,-116.5"/>
<text text-anchor="middle" x="593" y="-123.9" font-family="Helvetica,sans-Serif" font-size="12.00">list</text>
</a>
</g>
</g>
<!-- Node1&#45;&gt;Node5 -->
<g id="edge4" class="edge">
<title>Node1&#45;&gt;Node5</title>
<path fill="none" stroke="midnightblue" d="M712.81,-290.26C692.2,-262.35 632.72,-181.79 606.12,-145.77"/>
<polygon fill="midnightblue" stroke="midnightblue" points="608.87,-143.6 600.11,-137.63 603.24,-147.76 608.87,-143.6"/>
</g>
<!-- Node6 -->
<g id="node6" class="node">
<title>Node6</title>
<g id="a_node6"><a xlink:title=" ">
<polygon fill="white" stroke="#bfbfbf" points="0,-116.5 0,-137.5 76,-137.5 76,-116.5 0,-116.5"/>
<text text-anchor="middle" x="38" y="-123.9" font-family="Helvetica,sans-Serif" font-size="12.00">functional</text>
</a>
</g>
</g>
<!-- Node1&#45;&gt;Node6 -->
<g id="edge5" class="edge">
<title>Node1&#45;&gt;Node6</title>
<path fill="none" stroke="midnightblue" d="M608.79,-296.82C526.17,-292.21 411.41,-281.02 314,-254 216.65,-227 110.26,-169.74 63.01,-142.71"/>
<polygon fill="midnightblue" stroke="midnightblue" points="64.52,-139.54 54.11,-137.57 61.02,-145.6 64.52,-139.54"/>
</g>
<!-- Node7 -->
<g id="node7" class="node">
<title>Node7</title>
<g id="a_node7"><a xlink:title=" ">
<polygon fill="white" stroke="#bfbfbf" points="1141.5,-232.5 1141.5,-253.5 1252.5,-253.5 1252.5,-232.5 1141.5,-232.5"/>
<text text-anchor="middle" x="1197" y="-239.9" font-family="Helvetica,sans-Serif" font-size="12.00">unordered_map</text>
</a>
</g>
</g>
<!-- Node1&#45;&gt;Node7 -->
<g id="edge6" class="edge">
<title>Node1&#45;&gt;Node7</title>
<path fill="none" stroke="midnightblue" d="M811.02,-290.49C893.56,-281.67 1018.55,-267.87 1127,-254 1128.3,-253.83 1129.62,-253.66 1130.94,-253.49"/>
<polygon fill="midnightblue" stroke="midnightblue" points="1131.79,-256.91 1141.24,-252.12 1130.86,-249.97 1131.79,-256.91"/>
</g>
<!-- Node8 -->
<g id="node8" class="node">
<title>Node8</title>
<g id="a_node8"><a xlink:title=" ">
<polygon fill="white" stroke="#bfbfbf" points="1271,-232.5 1271,-253.5 1315,-253.5 1315,-232.5 1271,-232.5"/>
<text text-anchor="middle" x="1293" y="-239.9" font-family="Helvetica,sans-Serif" font-size="12.00">map</text>
</a>
</g>
</g>
<!-- Node1&#45;&gt;Node8 -->
<g id="edge7" class="edge">
<title>Node1&#45;&gt;Node8</title>
<path fill="none" stroke="midnightblue" d="M831.07,-297.94C938.99,-294.25 1107.37,-284.04 1260.73,-253.84"/>
<polygon fill="midnightblue" stroke="midnightblue" points="1261.69,-257.22 1270.81,-251.83 1260.32,-250.36 1261.69,-257.22"/>
</g>
<!-- Node9 -->
<g id="node9" class="node">
<title>Node9</title>
<g id="a_node9"><a xlink:href="../../d9/d95/abstract__send__protocol__simulator_8h.html" target="_top" xlink:title=" ">
<polygon fill="white" stroke="black" points="362.5,-232.5 362.5,-253.5 589.5,-253.5 589.5,-232.5 362.5,-232.5"/>
<text text-anchor="middle" x="476" y="-239.9" font-family="Helvetica,sans-Serif" font-size="12.00">abstract_send_protocol_simulator.h</text>
</a>
</g>
</g>
<!-- Node1&#45;&gt;Node9 -->
<g id="edge8" class="edge">
<title>Node1&#45;&gt;Node9</title>
<path fill="none" stroke="midnightblue" d="M678.33,-290.44C636.57,-280.85 572.21,-266.08 527.33,-255.78"/>
<polygon fill="midnightblue" stroke="midnightblue" points="528.03,-252.35 517.5,-253.52 526.46,-259.17 528.03,-252.35"/>
</g>
<!-- Node18 -->
<g id="node18" class="node">
<title>Node18</title>
<g id="a_node18"><a xlink:href="../../d0/d70/yal__log_8h.html" target="_top" xlink:title=" ">
<polygon fill="white" stroke="black" points="698.5,-58.5 698.5,-79.5 767.5,-79.5 767.5,-58.5 698.5,-58.5"/>
<text text-anchor="middle" x="733" y="-65.9" font-family="Helvetica,sans-Serif" font-size="12.00">yal_log.h</text>
</a>
</g>
</g>
<!-- Node1&#45;&gt;Node18 -->
<g id="edge43" class="edge">
<title>Node1&#45;&gt;Node18</title>
<path fill="none" stroke="midnightblue" d="M831.14,-292.16C996.64,-276.51 1277.76,-232.28 1173,-116 1159.86,-101.42 887.19,-80.8 777.81,-73.08"/>
<polygon fill="midnightblue" stroke="midnightblue" points="777.97,-69.58 767.75,-72.37 777.48,-76.56 777.97,-69.58"/>
</g>
<!-- Node25 -->
<g id="node25" class="node">
<title>Node25</title>
<g id="a_node25"><a xlink:href="../../d6/d74/random__utils_8h.html" target="_top" xlink:title=" ">
<polygon fill="white" stroke="black" points="802.5,-174.5 802.5,-195.5 907.5,-195.5 907.5,-174.5 802.5,-174.5"/>
<text text-anchor="middle" x="855" y="-181.9" font-family="Helvetica,sans-Serif" font-size="12.00">random_utils.h</text>
</a>
</g>
</g>
<!-- Node1&#45;&gt;Node25 -->
<g id="edge42" class="edge">
<title>Node1&#45;&gt;Node25</title>
<path fill="none" stroke="midnightblue" d="M731.51,-290.28C754.72,-270.68 807.36,-226.23 835.84,-202.18"/>
<polygon fill="midnightblue" stroke="midnightblue" points="838.14,-204.82 843.52,-195.69 833.62,-199.47 838.14,-204.82"/>
</g>
<!-- Node30 -->
<g id="node30" class="node">
<title>Node30</title>
<g id="a_node30"><a xlink:href="../../d7/d90/random__sampler_8h.html" target="_top" xlink:title=" ">
<polygon fill="white" stroke="black" points="656,-174.5 656,-195.5 784,-195.5 784,-174.5 656,-174.5"/>
<text text-anchor="middle" x="720" y="-181.9" font-family="Helvetica,sans-Serif" font-size="12.00">random_sampler.h</text>
</a>
</g>
</g>
<!-- Node1&#45;&gt;Node30 -->
<g id="edge36" class="edge">
<title>Node1&#45;&gt;Node30</title>
<path fill="none" stroke="midnightblue" d="M720,-290.28C720,-271.6 720,-230.37 720,-205.72"/>
<polygon fill="midnightblue" stroke="midnightblue" points="723.5,-205.69 720,-195.69 716.5,-205.7 723.5,-205.69"/>
</g>
<!-- Node9&#45;&gt;Node3 -->
<g id="edge9" class="edge">
<title>Node9&#45;&gt;Node3</title>
<path fill="none" stroke="midnightblue" d="M440.42,-232.37C402.85,-222.21 343.92,-206.27 305.87,-195.98"/>
<polygon fill="midnightblue" stroke="midnightblue" points="306.77,-192.59 296.21,-193.36 304.95,-199.35 306.77,-192.59"/>
</g>
<!-- Node9&#45;&gt;Node6 -->
<g id="edge10" class="edge">
<title>Node9&#45;&gt;Node6</title>
<path fill="none" stroke="midnightblue" d="M442.79,-232.46C415.46,-224.15 376,-211.09 343,-196 325.25,-187.88 323.38,-180.57 305,-174 214.72,-141.71 184.33,-155.35 86.22,-138.11"/>
<polygon fill="midnightblue" stroke="midnightblue" points="86.65,-134.63 76.19,-136.28 85.4,-141.52 86.65,-134.63"/>
</g>
<!-- Node10 -->
<g id="node10" class="node">
<title>Node10</title>
<g id="a_node10"><a xlink:href="../../d8/de7/corruptions__stake__protocol__simulator_8h.html" target="_top" xlink:title=" ">
<polygon fill="white" stroke="black" points="352,-174.5 352,-195.5 600,-195.5 600,-174.5 352,-174.5"/>
<text text-anchor="middle" x="476" y="-181.9" font-family="Helvetica,sans-Serif" font-size="12.00">corruptions_stake_protocol_simulator.h</text>
</a>
</g>
</g>
<!-- Node9&#45;&gt;Node10 -->
<g id="edge11" class="edge">
<title>Node9&#45;&gt;Node10</title>
<path fill="none" stroke="midnightblue" d="M476,-232.25C476,-224.94 476,-214.69 476,-205.7"/>
<polygon fill="midnightblue" stroke="midnightblue" points="479.5,-205.64 476,-195.64 472.5,-205.64 479.5,-205.64"/>
</g>
<!-- Node9&#45;&gt;Node25 -->
<g id="edge28" class="edge">
<title>Node9&#45;&gt;Node25</title>
<path fill="none" stroke="midnightblue" d="M543.76,-232.48C605.72,-223.71 700.18,-210.15 792.2,-196.1"/>
<polygon fill="midnightblue" stroke="midnightblue" points="792.89,-199.54 802.24,-194.57 791.83,-192.62 792.89,-199.54"/>
</g>
<!-- Node10&#45;&gt;Node6 -->
<g id="edge24" class="edge">
<title>Node10&#45;&gt;Node6</title>
<path fill="none" stroke="midnightblue" d="M372.73,-174.48C296.16,-166.81 189.06,-154.79 86.11,-138.06"/>
<polygon fill="midnightblue" stroke="midnightblue" points="86.6,-134.6 76.16,-136.43 85.46,-141.5 86.6,-134.6"/>
</g>
<!-- Node11 -->
<g id="node11" class="node">
<title>Node11</title>
<g id="a_node11"><a xlink:href="../../dc/d8d/protocol__simulator_8h.html" target="_top" xlink:title=" ">
<polygon fill="white" stroke="black" points="94.5,-116.5 94.5,-137.5 231.5,-137.5 231.5,-116.5 94.5,-116.5"/>
<text text-anchor="middle" x="163" y="-123.9" font-family="Helvetica,sans-Serif" font-size="12.00">protocol_simulator.h</text>
</a>
</g>
</g>
<!-- Node10&#45;&gt;Node11 -->
<g id="edge12" class="edge">
<title>Node10&#45;&gt;Node11</title>
<path fill="none" stroke="midnightblue" d="M422.55,-174.44C368.19,-164.71 283.98,-149.65 226.32,-139.33"/>
<polygon fill="midnightblue" stroke="midnightblue" points="226.69,-135.84 216.23,-137.52 225.46,-142.73 226.69,-135.84"/>
</g>
<!-- Node10&#45;&gt;Node18 -->
<g id="edge27" class="edge">
<title>Node10&#45;&gt;Node18</title>
<path fill="none" stroke="midnightblue" d="M486.07,-174.44C502.02,-159.81 534.6,-131.89 567,-116 605.81,-96.96 653.72,-84.76 688.07,-77.74"/>
<polygon fill="midnightblue" stroke="midnightblue" points="689.14,-81.1 698.28,-75.73 687.79,-74.23 689.14,-81.1"/>
</g>
<!-- Node20 -->
<g id="node20" class="node">
<title>Node20</title>
<g id="a_node20"><a xlink:title=" ">
<polygon fill="white" stroke="#bfbfbf" points="628,-116.5 628,-137.5 692,-137.5 692,-116.5 628,-116.5"/>
<text text-anchor="middle" x="660" y="-123.9" font-family="Helvetica,sans-Serif" font-size="12.00">random</text>
</a>
</g>
</g>
<!-- Node10&#45;&gt;Node20 -->
<g id="edge21" class="edge">
<title>Node10&#45;&gt;Node20</title>
<path fill="none" stroke="midnightblue" d="M507.63,-174.37C538.36,-165.02 585.18,-150.77 618.8,-140.54"/>
<polygon fill="midnightblue" stroke="midnightblue" points="620.23,-143.76 628.78,-137.5 618.2,-137.06 620.23,-143.76"/>
</g>
<!-- Node21 -->
<g id="node21" class="node">
<title>Node21</title>
<g id="a_node21"><a xlink:title=" ">
<polygon fill="white" stroke="#bfbfbf" points="250,-116.5 250,-137.5 324,-137.5 324,-116.5 250,-116.5"/>
<text text-anchor="middle" x="287" y="-123.9" font-family="Helvetica,sans-Serif" font-size="12.00">algorithm</text>
</a>
</g>
</g>
<!-- Node10&#45;&gt;Node21 -->
<g id="edge22" class="edge">
<title>Node10&#45;&gt;Node21</title>
<path fill="none" stroke="midnightblue" d="M443.51,-174.37C411.81,-164.98 363.44,-150.65 328.87,-140.41"/>
<polygon fill="midnightblue" stroke="midnightblue" points="329.65,-136.99 319.07,-137.5 327.66,-143.7 329.65,-136.99"/>
</g>
<!-- Node22 -->
<g id="node22" class="node">
<title>Node22</title>
<g id="a_node22"><a xlink:title=" ">
<polygon fill="white" stroke="#bfbfbf" points="342.5,-116.5 342.5,-137.5 377.5,-137.5 377.5,-116.5 342.5,-116.5"/>
<text text-anchor="middle" x="360" y="-123.9" font-family="Helvetica,sans-Serif" font-size="12.00">set</text>
</a>
</g>
</g>
<!-- Node10&#45;&gt;Node22 -->
<g id="edge23" class="edge">
<title>Node10&#45;&gt;Node22</title>
<path fill="none" stroke="midnightblue" d="M456.06,-174.37C436.96,-165.15 408,-151.17 386.87,-140.97"/>
<polygon fill="midnightblue" stroke="midnightblue" points="388.31,-137.78 377.78,-136.58 385.27,-144.08 388.31,-137.78"/>
</g>
<!-- Node23 -->
<g id="node23" class="node">
<title>Node23</title>
<g id="a_node23"><a xlink:title=" ">
<polygon fill="white" stroke="#bfbfbf" points="396,-116.5 396,-137.5 446,-137.5 446,-116.5 396,-116.5"/>
<text text-anchor="middle" x="421" y="-123.9" font-family="Helvetica,sans-Serif" font-size="12.00">ctime</text>
</a>
</g>
</g>
<!-- Node10&#45;&gt;Node23 -->
<g id="edge25" class="edge">
<title>Node10&#45;&gt;Node23</title>
<path fill="none" stroke="midnightblue" d="M466.42,-174.25C458.45,-166.14 446.94,-154.41 437.49,-144.79"/>
<polygon fill="midnightblue" stroke="midnightblue" points="439.97,-142.32 430.47,-137.64 434.98,-147.23 439.97,-142.32"/>
</g>
<!-- Node24 -->
<g id="node24" class="node">
<title>Node24</title>
<g id="a_node24"><a xlink:title=" ">
<polygon fill="white" stroke="#bfbfbf" points="464.5,-116.5 464.5,-137.5 519.5,-137.5 519.5,-116.5 464.5,-116.5"/>
<text text-anchor="middle" x="492" y="-123.9" font-family="Helvetica,sans-Serif" font-size="12.00">cstdlib</text>
</a>
</g>
</g>
<!-- Node10&#45;&gt;Node24 -->
<g id="edge26" class="edge">
<title>Node10&#45;&gt;Node24</title>
<path fill="none" stroke="midnightblue" d="M478.79,-174.25C480.9,-166.86 483.87,-156.47 486.45,-147.41"/>
<polygon fill="midnightblue" stroke="midnightblue" points="489.86,-148.22 489.24,-137.64 483.13,-146.3 489.86,-148.22"/>
</g>
<!-- Node12 -->
<g id="node12" class="node">
<title>Node12</title>
<g id="a_node12"><a xlink:title=" ">
<polygon fill="white" stroke="#bfbfbf" points="211.5,-58.5 211.5,-79.5 260.5,-79.5 260.5,-58.5 211.5,-58.5"/>
<text text-anchor="middle" x="236" y="-65.9" font-family="Helvetica,sans-Serif" font-size="12.00">utility</text>
</a>
</g>
</g>
<!-- Node11&#45;&gt;Node12 -->
<g id="edge13" class="edge">
<title>Node11&#45;&gt;Node12</title>
<path fill="none" stroke="midnightblue" d="M175.72,-116.25C186.6,-107.89 202.49,-95.71 215.22,-85.94"/>
<polygon fill="midnightblue" stroke="midnightblue" points="217.63,-88.51 223.43,-79.64 213.37,-82.95 217.63,-88.51"/>
</g>
<!-- Node13 -->
<g id="node13" class="node">
<title>Node13</title>
<g id="a_node13"><a xlink:title=" ">
<polygon fill="white" stroke="#bfbfbf" points="456.5,-58.5 456.5,-79.5 503.5,-79.5 503.5,-58.5 456.5,-58.5"/>
<text text-anchor="middle" x="480" y="-65.9" font-family="Helvetica,sans-Serif" font-size="12.00">tuple</text>
</a>
</g>
</g>
<!-- Node11&#45;&gt;Node13 -->
<g id="edge14" class="edge">
<title>Node11&#45;&gt;Node13</title>
<path fill="none" stroke="midnightblue" d="M217.13,-116.44C282.92,-104.82 391.89,-85.57 446.55,-75.91"/>
<polygon fill="midnightblue" stroke="midnightblue" points="447.18,-79.35 456.42,-74.17 445.96,-72.46 447.18,-79.35"/>
</g>
<!-- Node14 -->
<g id="node14" class="node">
<title>Node14</title>
<g id="a_node14"><a xlink:href="../../d9/d49/types_8h.html" target="_top" xlink:title=" ">
<polygon fill="white" stroke="black" points="133,-58.5 133,-79.5 193,-79.5 193,-58.5 133,-58.5"/>
<text text-anchor="middle" x="163" y="-65.9" font-family="Helvetica,sans-Serif" font-size="12.00">types.h</text>
</a>
</g>
</g>
<!-- Node11&#45;&gt;Node14 -->
<g id="edge15" class="edge">
<title>Node11&#45;&gt;Node14</title>
<path fill="none" stroke="midnightblue" d="M163,-116.25C163,-108.94 163,-98.69 163,-89.7"/>
<polygon fill="midnightblue" stroke="midnightblue" points="166.5,-89.64 163,-79.64 159.5,-89.64 166.5,-89.64"/>
</g>
<!-- Node11&#45;&gt;Node18 -->
<g id="edge19" class="edge">
<title>Node11&#45;&gt;Node18</title>
<path fill="none" stroke="midnightblue" d="M231.89,-117.04C234.97,-116.68 238.01,-116.33 241,-116 405.69,-97.75 601.94,-80.85 688.37,-73.66"/>
<polygon fill="midnightblue" stroke="midnightblue" points="688.69,-77.14 698.36,-72.83 688.11,-70.17 688.69,-77.14"/>
</g>
<!-- Node15 -->
<g id="node15" class="node">
<title>Node15</title>
<g id="a_node15"><a xlink:title=" ">
<polygon fill="white" stroke="#bfbfbf" points="440.5,-0.5 440.5,-21.5 495.5,-21.5 495.5,-0.5 440.5,-0.5"/>
<text text-anchor="middle" x="468" y="-7.9" font-family="Helvetica,sans-Serif" font-size="12.00">vector</text>
</a>
</g>
</g>
<!-- Node14&#45;&gt;Node15 -->
<g id="edge16" class="edge">
<title>Node14&#45;&gt;Node15</title>
<path fill="none" stroke="midnightblue" d="M193.18,-60.01C196.15,-59.3 199.13,-58.62 202,-58 282.81,-40.68 378.51,-25.39 430.24,-17.56"/>
<polygon fill="midnightblue" stroke="midnightblue" points="430.92,-21 440.29,-16.05 429.88,-14.07 430.92,-21"/>
</g>
<!-- Node16 -->
<g id="node16" class="node">
<title>Node16</title>
<g id="a_node16"><a xlink:title=" ">
<polygon fill="white" stroke="#bfbfbf" points="170.5,-0.5 170.5,-21.5 231.5,-21.5 231.5,-0.5 170.5,-0.5"/>
<text text-anchor="middle" x="201" y="-7.9" font-family="Helvetica,sans-Serif" font-size="12.00">cstddef</text>
</a>
</g>
</g>
<!-- Node14&#45;&gt;Node16 -->
<g id="edge17" class="edge">
<title>Node14&#45;&gt;Node16</title>
<path fill="none" stroke="midnightblue" d="M169.62,-58.25C174.9,-50.46 182.45,-39.33 188.82,-29.94"/>
<polygon fill="midnightblue" stroke="midnightblue" points="191.74,-31.88 194.46,-21.64 185.95,-27.95 191.74,-31.88"/>
</g>
<!-- Node17 -->
<g id="node17" class="node">
<title>Node17</title>
<g id="a_node17"><a xlink:title=" ">
<polygon fill="white" stroke="#bfbfbf" points="97.5,-0.5 97.5,-21.5 152.5,-21.5 152.5,-0.5 97.5,-0.5"/>
<text text-anchor="middle" x="125" y="-7.9" font-family="Helvetica,sans-Serif" font-size="12.00">climits</text>
</a>
</g>
</g>
<!-- Node14&#45;&gt;Node17 -->
<g id="edge18" class="edge">
<title>Node14&#45;&gt;Node17</title>
<path fill="none" stroke="midnightblue" d="M156.38,-58.25C151.1,-50.46 143.55,-39.33 137.18,-29.94"/>
<polygon fill="midnightblue" stroke="midnightblue" points="140.05,-27.95 131.54,-21.64 134.26,-31.88 140.05,-27.95"/>
</g>
<!-- Node19 -->
<g id="node19" class="node">
<title>Node19</title>
<g id="a_node19"><a xlink:title=" ">
<polygon fill="white" stroke="#bfbfbf" points="705,-0.5 705,-21.5 761,-21.5 761,-0.5 705,-0.5"/>
<text text-anchor="middle" x="733" y="-7.9" font-family="Helvetica,sans-Serif" font-size="12.00">stdio.h</text>
</a>
</g>
</g>
<!-- Node18&#45;&gt;Node19 -->
<g id="edge20" class="edge">
<title>Node18&#45;&gt;Node19</title>
<path fill="none" stroke="midnightblue" d="M733,-58.25C733,-50.94 733,-40.69 733,-31.7"/>
<polygon fill="midnightblue" stroke="midnightblue" points="736.5,-31.64 733,-21.64 729.5,-31.64 736.5,-31.64"/>
</g>
<!-- Node25&#45;&gt;Node4 -->
<g id="edge30" class="edge">
<title>Node25&#45;&gt;Node4</title>
<path fill="none" stroke="midnightblue" d="M899.06,-174.44C943.4,-164.81 1011.84,-149.96 1059.32,-139.65"/>
<polygon fill="midnightblue" stroke="midnightblue" points="1060.09,-143.07 1069.12,-137.52 1058.61,-136.22 1060.09,-143.07"/>
</g>
<!-- Node25&#45;&gt;Node18 -->
<g id="edge32" class="edge">
<title>Node25&#45;&gt;Node18</title>
<path fill="none" stroke="midnightblue" d="M867.97,-174.33C884.62,-160.73 909.7,-135.45 895,-116 880.84,-97.27 820.68,-83.93 777.81,-76.6"/>
<polygon fill="midnightblue" stroke="midnightblue" points="778.3,-73.13 767.87,-74.95 777.16,-80.04 778.3,-73.13"/>
</g>
<!-- Node25&#45;&gt;Node20 -->
<g id="edge29" class="edge">
<title>Node25&#45;&gt;Node20</title>
<path fill="none" stroke="midnightblue" d="M821.48,-174.37C788.33,-164.85 737.53,-150.26 701.77,-140"/>
<polygon fill="midnightblue" stroke="midnightblue" points="702.69,-136.62 692.11,-137.22 700.76,-143.35 702.69,-136.62"/>
</g>
<!-- Node26 -->
<g id="node26" class="node">
<title>Node26</title>
<g id="a_node26"><a xlink:title=" ">
<polygon fill="white" stroke="#bfbfbf" points="824,-116.5 824,-137.5 886,-137.5 886,-116.5 824,-116.5"/>
<text text-anchor="middle" x="855" y="-123.9" font-family="Helvetica,sans-Serif" font-size="12.00">string.h</text>
</a>
</g>
</g>
<!-- Node25&#45;&gt;Node26 -->
<g id="edge31" class="edge">
<title>Node25&#45;&gt;Node26</title>
<path fill="none" stroke="midnightblue" d="M855,-174.25C855,-166.94 855,-156.69 855,-147.7"/>
<polygon fill="midnightblue" stroke="midnightblue" points="858.5,-147.64 855,-137.64 851.5,-147.64 858.5,-147.64"/>
</g>
<!-- Node27 -->
<g id="node27" class="node">
<title>Node27</title>
<g id="a_node27"><a xlink:href="../../da/d10/scoped__lock_8h.html" target="_top" xlink:title=" ">
<polygon fill="white" stroke="black" points="942.5,-116.5 942.5,-137.5 1043.5,-137.5 1043.5,-116.5 942.5,-116.5"/>
<text text-anchor="middle" x="993" y="-123.9" font-family="Helvetica,sans-Serif" font-size="12.00">scoped_lock.h</text>
</a>
</g>
</g>
<!-- Node25&#45;&gt;Node27 -->
<g id="edge33" class="edge">
<title>Node25&#45;&gt;Node27</title>
<path fill="none" stroke="midnightblue" d="M878.72,-174.37C901.17,-165.26 935.07,-151.51 960.13,-141.34"/>
<polygon fill="midnightblue" stroke="midnightblue" points="961.64,-144.5 969.59,-137.5 959,-138.02 961.64,-144.5"/>
</g>
<!-- Node28 -->
<g id="node28" class="node">
<title>Node28</title>
<g id="a_node28"><a xlink:title=" ">
<polygon fill="white" stroke="#bfbfbf" points="1000,-58.5 1000,-79.5 1074,-79.5 1074,-58.5 1000,-58.5"/>
<text text-anchor="middle" x="1037" y="-65.9" font-family="Helvetica,sans-Serif" font-size="12.00">pthread.h</text>
</a>
</g>
</g>
<!-- Node27&#45;&gt;Node28 -->
<g id="edge34" class="edge">
<title>Node27&#45;&gt;Node28</title>
<path fill="none" stroke="midnightblue" d="M1000.66,-116.25C1006.85,-108.38 1015.71,-97.1 1023.13,-87.65"/>
<polygon fill="midnightblue" stroke="midnightblue" points="1026,-89.67 1029.42,-79.64 1020.49,-85.34 1026,-89.67"/>
</g>
<!-- Node29 -->
<g id="node29" class="node">
<title>Node29</title>
<g id="a_node29"><a xlink:title=" ">
<polygon fill="white" stroke="#bfbfbf" points="916.5,-58.5 916.5,-79.5 981.5,-79.5 981.5,-58.5 916.5,-58.5"/>
<text text-anchor="middle" x="949" y="-65.9" font-family="Helvetica,sans-Serif" font-size="12.00">assert.h</text>
</a>
</g>
</g>
<!-- Node27&#45;&gt;Node29 -->
<g id="edge35" class="edge">
<title>Node27&#45;&gt;Node29</title>
<path fill="none" stroke="midnightblue" d="M985.34,-116.25C979.15,-108.38 970.29,-97.1 962.87,-87.65"/>
<polygon fill="midnightblue" stroke="midnightblue" points="965.51,-85.34 956.58,-79.64 960,-89.67 965.51,-85.34"/>
</g>
<!-- Node30&#45;&gt;Node5 -->
<g id="edge38" class="edge">
<title>Node30&#45;&gt;Node5</title>
<path fill="none" stroke="midnightblue" d="M698.17,-174.37C676.2,-164.69 642.32,-149.75 618.98,-139.46"/>
<polygon fill="midnightblue" stroke="midnightblue" points="620.25,-136.19 609.69,-135.36 617.43,-142.6 620.25,-136.19"/>
</g>
<!-- Node30&#45;&gt;Node13 -->
<g id="edge40" class="edge">
<title>Node30&#45;&gt;Node13</title>
<path fill="none" stroke="midnightblue" d="M720.24,-174.06C720.02,-159.18 717.3,-131.24 701,-116 674.24,-90.98 568.7,-77.97 513.72,-72.77"/>
<polygon fill="midnightblue" stroke="midnightblue" points="514.03,-69.29 503.75,-71.87 513.39,-76.26 514.03,-69.29"/>
</g>
<!-- Node30&#45;&gt;Node15 -->
<g id="edge37" class="edge">
<title>Node30&#45;&gt;Node15</title>
<path fill="none" stroke="midnightblue" d="M730.77,-174.45C754.87,-151.95 808.67,-94.73 777,-58 742.4,-17.87 580.61,-12.2 505.94,-11.77"/>
<polygon fill="midnightblue" stroke="midnightblue" points="505.59,-8.27 495.58,-11.74 505.57,-15.27 505.59,-8.27"/>
</g>
<!-- Node30&#45;&gt;Node18 -->
<g id="edge41" class="edge">
<title>Node30&#45;&gt;Node18</title>
<path fill="none" stroke="midnightblue" d="M723.86,-174.32C727.3,-165.14 732.08,-150.88 734,-138 736.39,-121.94 735.92,-103.52 734.98,-89.9"/>
<polygon fill="midnightblue" stroke="midnightblue" points="738.45,-89.42 734.13,-79.75 731.48,-90.01 738.45,-89.42"/>
</g>
<!-- Node30&#45;&gt;Node20 -->
<g id="edge39" class="edge">
<title>Node30&#45;&gt;Node20</title>
<path fill="none" stroke="midnightblue" d="M709.55,-174.25C700.77,-166.05 688.04,-154.17 677.69,-144.51"/>
<polygon fill="midnightblue" stroke="midnightblue" points="680.03,-141.91 670.33,-137.64 675.25,-147.02 680.03,-141.91"/>
</g>
</g>
</svg>
