<?xml version="1.0" encoding="UTF-8" standalone="no"?>
<!DOCTYPE svg PUBLIC "-//W3C//DTD SVG 1.1//EN"
 "http://www.w3.org/Graphics/SVG/1.1/DTD/svg11.dtd">
<!-- Generated by graphviz version 5.0.0 (0)
 -->
<!-- Title: get_random_generator Pages: 1 -->
<svg width="453pt" height="30pt"
 viewBox="0.00 0.00 453.00 30.00" xmlns="http://www.w3.org/2000/svg" xmlns:xlink="http://www.w3.org/1999/xlink">
<g id="graph0" class="graph" transform="scale(1 1) rotate(0) translate(4 26)">
<title>get_random_generator</title>
<polygon fill="white" stroke="transparent" points="-4,4 -4,-26 449,-26 449,4 -4,4"/>
<!-- Node1 -->
<g id="node1" class="node">
<title>Node1</title>
<g id="a_node1"><a xlink:title="Generates a new random generator with a fresh seed.">
<polygon fill="#bfbfbf" stroke="black" points="290,-0.5 290,-21.5 445,-21.5 445,-0.5 290,-0.5"/>
<text text-anchor="middle" x="367.5" y="-7.9" font-family="Helvetica,sans-Serif" font-size="12.00">get_random_generator</text>
</a>
</g>
</g>
<!-- Node2 -->
<g id="node2" class="node">
<title>Node2</title>
<g id="a_node2"><a xlink:href="../../df/d31/main__utils_8cc.html#a17e1a5d2f144555f81b2bed8a6ca7cd4" target="_top" xlink:title="Generates a corruption set.">
<polygon fill="white" stroke="black" points="107,-0.5 107,-21.5 254,-21.5 254,-0.5 107,-0.5"/>
<text text-anchor="middle" x="180.5" y="-7.9" font-family="Helvetica,sans-Serif" font-size="12.00">get_corrupted_parties</text>
</a>
</g>
</g>
<!-- Node1&#45;&gt;Node2 -->
<g id="edge1" class="edge">
<title>Node1&#45;&gt;Node2</title>
<path fill="none" stroke="midnightblue" d="M279.87,-11C271.27,-11 262.6,-11 254.16,-11"/>
<polygon fill="midnightblue" stroke="midnightblue" points="279.92,-14.5 289.92,-11 279.92,-7.5 279.92,-14.5"/>
</g>
<!-- Node3 -->
<g id="node3" class="node">
<title>Node3</title>
<g id="a_node3"><a xlink:href="../../df/d31/main__utils_8cc.html#a0444e24a736cc8cfe957ba539ff8e797" target="_top" xlink:title="Runs tests for a fixed set of parameters.">
<polygon fill="white" stroke="black" points="0,-0.5 0,-21.5 71,-21.5 71,-0.5 0,-0.5"/>
<text text-anchor="middle" x="35.5" y="-7.9" font-family="Helvetica,sans-Serif" font-size="12.00">run_tests</text>
</a>
</g>
</g>
<!-- Node2&#45;&gt;Node3 -->
<g id="edge2" class="edge">
<title>Node2&#45;&gt;Node3</title>
<path fill="none" stroke="midnightblue" d="M96.6,-11C87.68,-11 79,-11 71.14,-11"/>
<polygon fill="midnightblue" stroke="midnightblue" points="96.74,-14.5 106.74,-11 96.74,-7.5 96.74,-14.5"/>
</g>
</g>
</svg>
