<?xml version="1.0" encoding="UTF-8" standalone="no"?>
<!DOCTYPE svg PUBLIC "-//W3C//DTD SVG 1.1//EN"
 "http://www.w3.org/Graphics/SVG/1.1/DTD/svg11.dtd">
<!-- Generated by graphviz version 5.0.0 (0)
 -->
<!-- Title: init_random_utils Pages: 1 -->
<svg width="425pt" height="70pt"
 viewBox="0.00 0.00 425.00 70.00" xmlns="http://www.w3.org/2000/svg" xmlns:xlink="http://www.w3.org/1999/xlink">
<g id="graph0" class="graph" transform="scale(1 1) rotate(0) translate(4 66)">
<title>init_random_utils</title>
<polygon fill="white" stroke="transparent" points="-4,4 -4,-66 421,-66 421,4 -4,4"/>
<!-- Node1 -->
<g id="node1" class="node">
<title>Node1</title>
<g id="a_node1"><a xlink:title="Initializes the randomness utility functions.">
<polygon fill="#bfbfbf" stroke="black" points="299,-20.5 299,-41.5 417,-41.5 417,-20.5 299,-20.5"/>
<text text-anchor="middle" x="358" y="-27.9" font-family="Helvetica,sans-Serif" font-size="12.00">init_random_utils</text>
</a>
</g>
</g>
<!-- Node2 -->
<g id="node2" class="node">
<title>Node2</title>
<g id="a_node2"><a xlink:href="../../df/d31/main__utils_8cc.html#a02fd73d861ef2e4aabb38c0c9ff82947" target="_top" xlink:title="Runs initialization procedures.">
<polygon fill="white" stroke="black" points="155.5,-40.5 155.5,-61.5 190.5,-61.5 190.5,-40.5 155.5,-40.5"/>
<text text-anchor="middle" x="173" y="-47.9" font-family="Helvetica,sans-Serif" font-size="12.00">init</text>
</a>
</g>
</g>
<!-- Node1&#45;&gt;Node2 -->
<g id="edge1" class="edge">
<title>Node1&#45;&gt;Node2</title>
<path fill="none" stroke="midnightblue" d="M288.5,-38.49C253.01,-42.37 212.58,-46.78 190.51,-49.2"/>
<polygon fill="midnightblue" stroke="midnightblue" points="289.29,-41.92 298.85,-37.36 288.53,-34.96 289.29,-41.92"/>
</g>
<!-- Node4 -->
<g id="node4" class="node">
<title>Node4</title>
<g id="a_node4"><a xlink:href="../../df/d31/main__utils_8cc.html#a8f4afe28d9c87b5957823f96ebe7dd48" target="_top" xlink:title=" ">
<polygon fill="white" stroke="black" points="83,-0.5 83,-21.5 263,-21.5 263,-0.5 83,-0.5"/>
<text text-anchor="middle" x="173" y="-7.9" font-family="Helvetica,sans-Serif" font-size="12.00">run_command_parameters</text>
</a>
</g>
</g>
<!-- Node1&#45;&gt;Node4 -->
<g id="edge3" class="edge">
<title>Node1&#45;&gt;Node4</title>
<path fill="none" stroke="midnightblue" d="M288.77,-23.54C280.38,-22.63 271.72,-21.68 263.08,-20.74"/>
<polygon fill="midnightblue" stroke="midnightblue" points="288.53,-27.04 298.85,-24.64 289.29,-20.08 288.53,-27.04"/>
</g>
<!-- Node3 -->
<g id="node3" class="node">
<title>Node3</title>
<g id="a_node3"><a xlink:href="../../d5/d37/benchmark_8cc.html#a3c04138a5bfe5d72780bb7e82a18e627" target="_top" xlink:title=" ">
<polygon fill="white" stroke="black" points="0,-40.5 0,-61.5 47,-61.5 47,-40.5 0,-40.5"/>
<text text-anchor="middle" x="23.5" y="-47.9" font-family="Helvetica,sans-Serif" font-size="12.00">main</text>
</a>
</g>
</g>
<!-- Node2&#45;&gt;Node3 -->
<g id="edge2" class="edge">
<title>Node2&#45;&gt;Node3</title>
<path fill="none" stroke="midnightblue" d="M145.07,-51C116.98,-51 73.44,-51 47.08,-51"/>
<polygon fill="midnightblue" stroke="midnightblue" points="145.37,-54.5 155.37,-51 145.37,-47.5 145.37,-54.5"/>
</g>
<!-- Node5 -->
<g id="node5" class="node">
<title>Node5</title>
<g id="a_node5"><a xlink:href="../../dd/d96/hybrid__main_8cc.html#a3c04138a5bfe5d72780bb7e82a18e627" target="_top" xlink:title=" ">
<polygon fill="white" stroke="black" points="0,-0.5 0,-21.5 47,-21.5 47,-0.5 0,-0.5"/>
<text text-anchor="middle" x="23.5" y="-7.9" font-family="Helvetica,sans-Serif" font-size="12.00">main</text>
</a>
</g>
</g>
<!-- Node4&#45;&gt;Node5 -->
<g id="edge4" class="edge">
<title>Node4&#45;&gt;Node5</title>
<path fill="none" stroke="midnightblue" d="M72.74,-11C63.27,-11 54.45,-11 47.01,-11"/>
<polygon fill="midnightblue" stroke="midnightblue" points="72.8,-14.5 82.8,-11 72.8,-7.5 72.8,-14.5"/>
</g>
</g>
</svg>
