<?xml version="1.0" encoding="UTF-8" standalone="no"?>
<!DOCTYPE svg PUBLIC "-//W3C//DTD SVG 1.1//EN"
 "http://www.w3.org/Graphics/SVG/1.1/DTD/svg11.dtd">
<!-- Generated by graphviz version 5.0.0 (0)
 -->
<!-- Title: /home/guilhermemtr/Dropbox/workspace/ETH&#45;Zurich/Projects/Weighted&#45;Flooding&#45;Simulator/include/random_sampler.h Pages: 1 -->
<svg width="349pt" height="172pt"
 viewBox="0.00 0.00 349.00 172.00" xmlns="http://www.w3.org/2000/svg" xmlns:xlink="http://www.w3.org/1999/xlink">
<g id="graph0" class="graph" transform="scale(1 1) rotate(0) translate(4 168)">
<title>/home/guilhermemtr/Dropbox/workspace/ETH&#45;Zurich/Projects/Weighted&#45;Flooding&#45;Simulator/include/random_sampler.h</title>
<polygon fill="white" stroke="transparent" points="-4,4 -4,-168 345,-168 345,4 -4,4"/>
<!-- Node1 -->
<g id="node1" class="node">
<title>Node1</title>
<g id="a_node1"><a xlink:title=" ">
<polygon fill="#bfbfbf" stroke="black" points="25.5,-116.5 25.5,-163.5 287.5,-163.5 287.5,-116.5 25.5,-116.5"/>
<text text-anchor="start" x="33.5" y="-149.9" font-family="Helvetica,sans-Serif" font-size="12.00">/home/guilhermemtr/Dropbox/workspace</text>
<text text-anchor="start" x="33.5" y="-136.9" font-family="Helvetica,sans-Serif" font-size="12.00">/ETH&#45;Zurich/Projects/Weighted&#45;Flooding</text>
<text text-anchor="middle" x="156.5" y="-123.9" font-family="Helvetica,sans-Serif" font-size="12.00">&#45;Simulator/include/random_sampler.h</text>
</a>
</g>
</g>
<!-- Node2 -->
<g id="node2" class="node">
<title>Node2</title>
<g id="a_node2"><a xlink:title=" ">
<polygon fill="white" stroke="#bfbfbf" points="0,-58.5 0,-79.5 55,-79.5 55,-58.5 0,-58.5"/>
<text text-anchor="middle" x="27.5" y="-65.9" font-family="Helvetica,sans-Serif" font-size="12.00">vector</text>
</a>
</g>
</g>
<!-- Node1&#45;&gt;Node2 -->
<g id="edge1" class="edge">
<title>Node1&#45;&gt;Node2</title>
<path fill="none" stroke="midnightblue" d="M114.26,-116.41C94.54,-105.86 71.67,-93.62 54.35,-84.36"/>
<polygon fill="midnightblue" stroke="midnightblue" points="55.83,-81.19 45.36,-79.56 52.53,-87.36 55.83,-81.19"/>
</g>
<!-- Node3 -->
<g id="node3" class="node">
<title>Node3</title>
<g id="a_node3"><a xlink:title=" ">
<polygon fill="white" stroke="#bfbfbf" points="73,-58.5 73,-79.5 106,-79.5 106,-58.5 73,-58.5"/>
<text text-anchor="middle" x="89.5" y="-65.9" font-family="Helvetica,sans-Serif" font-size="12.00">list</text>
</a>
</g>
</g>
<!-- Node1&#45;&gt;Node3 -->
<g id="edge2" class="edge">
<title>Node1&#45;&gt;Node3</title>
<path fill="none" stroke="midnightblue" d="M134.56,-116.41C125.33,-106.9 114.76,-96.01 106.18,-87.18"/>
<polygon fill="midnightblue" stroke="midnightblue" points="108.43,-84.47 98.95,-79.74 103.41,-89.35 108.43,-84.47"/>
</g>
<!-- Node4 -->
<g id="node4" class="node">
<title>Node4</title>
<g id="a_node4"><a xlink:title=" ">
<polygon fill="white" stroke="#bfbfbf" points="124.5,-58.5 124.5,-79.5 188.5,-79.5 188.5,-58.5 124.5,-58.5"/>
<text text-anchor="middle" x="156.5" y="-65.9" font-family="Helvetica,sans-Serif" font-size="12.00">random</text>
</a>
</g>
</g>
<!-- Node1&#45;&gt;Node4 -->
<g id="edge3" class="edge">
<title>Node1&#45;&gt;Node4</title>
<path fill="none" stroke="midnightblue" d="M156.5,-116.41C156.5,-107.87 156.5,-98.22 156.5,-89.94"/>
<polygon fill="midnightblue" stroke="midnightblue" points="160,-89.74 156.5,-79.74 153,-89.74 160,-89.74"/>
</g>
<!-- Node5 -->
<g id="node5" class="node">
<title>Node5</title>
<g id="a_node5"><a xlink:title=" ">
<polygon fill="white" stroke="#bfbfbf" points="207,-58.5 207,-79.5 254,-79.5 254,-58.5 207,-58.5"/>
<text text-anchor="middle" x="230.5" y="-65.9" font-family="Helvetica,sans-Serif" font-size="12.00">tuple</text>
</a>
</g>
</g>
<!-- Node1&#45;&gt;Node5 -->
<g id="edge4" class="edge">
<title>Node1&#45;&gt;Node5</title>
<path fill="none" stroke="midnightblue" d="M180.73,-116.41C191.14,-106.7 203.08,-95.57 212.66,-86.64"/>
<polygon fill="midnightblue" stroke="midnightblue" points="215.13,-89.11 220.06,-79.74 210.36,-83.99 215.13,-89.11"/>
</g>
<!-- Node6 -->
<g id="node6" class="node">
<title>Node6</title>
<g id="a_node6"><a xlink:href="../../d0/d70/yal__log_8h.html" target="_top" xlink:title=" ">
<polygon fill="white" stroke="black" points="272,-58.5 272,-79.5 341,-79.5 341,-58.5 272,-58.5"/>
<text text-anchor="middle" x="306.5" y="-65.9" font-family="Helvetica,sans-Serif" font-size="12.00">yal_log.h</text>
</a>
</g>
</g>
<!-- Node1&#45;&gt;Node6 -->
<g id="edge5" class="edge">
<title>Node1&#45;&gt;Node6</title>
<path fill="none" stroke="midnightblue" d="M205.62,-116.41C228.97,-105.67 256.13,-93.17 276.39,-83.85"/>
<polygon fill="midnightblue" stroke="midnightblue" points="278.1,-86.91 285.73,-79.56 275.18,-80.56 278.1,-86.91"/>
</g>
<!-- Node7 -->
<g id="node7" class="node">
<title>Node7</title>
<g id="a_node7"><a xlink:title=" ">
<polygon fill="white" stroke="#bfbfbf" points="278.5,-0.5 278.5,-21.5 334.5,-21.5 334.5,-0.5 278.5,-0.5"/>
<text text-anchor="middle" x="306.5" y="-7.9" font-family="Helvetica,sans-Serif" font-size="12.00">stdio.h</text>
</a>
</g>
</g>
<!-- Node6&#45;&gt;Node7 -->
<g id="edge6" class="edge">
<title>Node6&#45;&gt;Node7</title>
<path fill="none" stroke="midnightblue" d="M306.5,-58.25C306.5,-50.94 306.5,-40.69 306.5,-31.7"/>
<polygon fill="midnightblue" stroke="midnightblue" points="310,-31.64 306.5,-21.64 303,-31.64 310,-31.64"/>
</g>
</g>
</svg>
