<?xml version="1.0" encoding="UTF-8" standalone="no"?>
<!DOCTYPE svg PUBLIC "-//W3C//DTD SVG 1.1//EN"
 "http://www.w3.org/Graphics/SVG/1.1/DTD/svg11.dtd">
<!-- Generated by graphviz version 5.0.0 (0)
 -->
<!-- Title: include/hybrid_k_out_protocol_simulator.h Pages: 1 -->
<svg width="1426pt" height="378pt"
 viewBox="0.00 0.00 1426.22 378.00" xmlns="http://www.w3.org/2000/svg" xmlns:xlink="http://www.w3.org/1999/xlink">
<g id="graph0" class="graph" transform="scale(1 1) rotate(0) translate(4 374)">
<title>include/hybrid_k_out_protocol_simulator.h</title>
<polygon fill="white" stroke="transparent" points="-4,4 -4,-374 1422.22,-374 1422.22,4 -4,4"/>
<!-- Node1 -->
<g id="node1" class="node">
<title>Node1</title>
<g id="a_node1"><a xlink:title=" ">
<polygon fill="#bfbfbf" stroke="black" points="513.12,-348.5 513.12,-369.5 779.12,-369.5 779.12,-348.5 513.12,-348.5"/>
<text text-anchor="middle" x="646.12" y="-355.9" font-family="Helvetica,sans-Serif" font-size="12.00">include/hybrid_k_out_protocol_simulator.h</text>
</a>
</g>
</g>
<!-- Node2 -->
<g id="node2" class="node">
<title>Node2</title>
<g id="a_node2"><a xlink:title=" ">
<polygon fill="white" stroke="#bfbfbf" points="611.62,-232.5 611.62,-253.5 680.62,-253.5 680.62,-232.5 611.62,-232.5"/>
<text text-anchor="middle" x="646.12" y="-239.9" font-family="Helvetica,sans-Serif" font-size="12.00">iostream</text>
</a>
</g>
</g>
<!-- Node1&#45;&gt;Node2 -->
<g id="edge1" class="edge">
<title>Node1&#45;&gt;Node2</title>
<path fill="none" stroke="midnightblue" d="M646.12,-348.28C646.12,-329.6 646.12,-288.37 646.12,-263.72"/>
<polygon fill="midnightblue" stroke="midnightblue" points="649.62,-263.69 646.12,-253.69 642.62,-263.7 649.62,-263.69"/>
</g>
<!-- Node3 -->
<g id="node3" class="node">
<title>Node3</title>
<g id="a_node3"><a xlink:title=" ">
<polygon fill="white" stroke="#bfbfbf" points="1205.12,-174.5 1205.12,-195.5 1259.12,-195.5 1259.12,-174.5 1205.12,-174.5"/>
<text text-anchor="middle" x="1232.12" y="-181.9" font-family="Helvetica,sans-Serif" font-size="12.00">queue</text>
</a>
</g>
</g>
<!-- Node1&#45;&gt;Node3 -->
<g id="edge2" class="edge">
<title>Node1&#45;&gt;Node3</title>
<path fill="none" stroke="midnightblue" d="M779.18,-354.86C892.49,-350.31 1059.16,-339.19 1202.12,-312 1289.7,-295.34 1340.98,-325.57 1394.12,-254 1427.93,-208.47 1327.18,-193.21 1269.49,-188.26"/>
<polygon fill="midnightblue" stroke="midnightblue" points="1269.51,-184.75 1259.26,-187.45 1268.96,-191.73 1269.51,-184.75"/>
</g>
<!-- Node4 -->
<g id="node4" class="node">
<title>Node4</title>
<g id="a_node4"><a xlink:title=" ">
<polygon fill="white" stroke="#bfbfbf" points="14.12,-116.5 14.12,-137.5 116.12,-137.5 116.12,-116.5 14.12,-116.5"/>
<text text-anchor="middle" x="65.12" y="-123.9" font-family="Helvetica,sans-Serif" font-size="12.00">unordered_set</text>
</a>
</g>
</g>
<!-- Node1&#45;&gt;Node4 -->
<g id="edge3" class="edge">
<title>Node1&#45;&gt;Node4</title>
<path fill="none" stroke="midnightblue" d="M522.79,-348.48C440.11,-340.8 339.43,-328.54 300.12,-312 205.1,-272.02 115.84,-183.05 80.78,-145.38"/>
<polygon fill="midnightblue" stroke="midnightblue" points="83.11,-142.76 73.77,-137.76 77.96,-147.49 83.11,-142.76"/>
</g>
<!-- Node5 -->
<g id="node5" class="node">
<title>Node5</title>
<g id="a_node5"><a xlink:title=" ">
<polygon fill="white" stroke="#bfbfbf" points="1270.62,-116.5 1270.62,-137.5 1303.62,-137.5 1303.62,-116.5 1270.62,-116.5"/>
<text text-anchor="middle" x="1287.12" y="-123.9" font-family="Helvetica,sans-Serif" font-size="12.00">list</text>
</a>
</g>
</g>
<!-- Node1&#45;&gt;Node5 -->
<g id="edge4" class="edge">
<title>Node1&#45;&gt;Node5</title>
<path fill="none" stroke="midnightblue" d="M779.19,-354.55C939.7,-349.34 1199.63,-337.26 1293.12,-312 1349.54,-296.76 1380.23,-303.6 1411.12,-254 1442.04,-204.35 1358.2,-158.79 1313.33,-138.75"/>
<polygon fill="midnightblue" stroke="midnightblue" points="1314.45,-135.42 1303.89,-134.65 1311.67,-141.84 1314.45,-135.42"/>
</g>
<!-- Node6 -->
<g id="node6" class="node">
<title>Node6</title>
<g id="a_node6"><a xlink:title=" ">
<polygon fill="white" stroke="#bfbfbf" points="935.12,-116.5 935.12,-137.5 1011.12,-137.5 1011.12,-116.5 935.12,-116.5"/>
<text text-anchor="middle" x="973.12" y="-123.9" font-family="Helvetica,sans-Serif" font-size="12.00">functional</text>
</a>
</g>
</g>
<!-- Node1&#45;&gt;Node6 -->
<g id="edge5" class="edge">
<title>Node1&#45;&gt;Node6</title>
<path fill="none" stroke="midnightblue" d="M637.26,-348.49C617.46,-326.09 573.54,-269.06 602.12,-232 640.57,-182.15 678.45,-212.79 739.12,-196 806.55,-177.35 884.51,-154.42 931.26,-140.52"/>
<polygon fill="midnightblue" stroke="midnightblue" points="932.44,-143.82 941.03,-137.61 930.44,-137.11 932.44,-143.82"/>
</g>
<!-- Node7 -->
<g id="node7" class="node">
<title>Node7</title>
<g id="a_node7"><a xlink:title=" ">
<polygon fill="white" stroke="#bfbfbf" points="1273.62,-232.5 1273.62,-253.5 1384.62,-253.5 1384.62,-232.5 1273.62,-232.5"/>
<text text-anchor="middle" x="1329.12" y="-239.9" font-family="Helvetica,sans-Serif" font-size="12.00">unordered_map</text>
</a>
</g>
</g>
<!-- Node1&#45;&gt;Node7 -->
<g id="edge6" class="edge">
<title>Node1&#45;&gt;Node7</title>
<path fill="none" stroke="midnightblue" d="M779.3,-355.99C882.5,-352.03 1028.44,-341.14 1153.12,-312 1206.83,-299.45 1266.03,-273.99 1300.26,-258.03"/>
<polygon fill="midnightblue" stroke="midnightblue" points="1302.09,-261.04 1309.64,-253.61 1299.1,-254.71 1302.09,-261.04"/>
</g>
<!-- Node8 -->
<g id="node8" class="node">
<title>Node8</title>
<g id="a_node8"><a xlink:href="../../d6/d74/random__utils_8h.html" target="_top" xlink:title=" ">
<polygon fill="white" stroke="black" points="322.62,-174.5 322.62,-195.5 427.62,-195.5 427.62,-174.5 322.62,-174.5"/>
<text text-anchor="middle" x="375.12" y="-181.9" font-family="Helvetica,sans-Serif" font-size="12.00">random_utils.h</text>
</a>
</g>
</g>
<!-- Node1&#45;&gt;Node8 -->
<g id="edge7" class="edge">
<title>Node1&#45;&gt;Node8</title>
<path fill="none" stroke="midnightblue" d="M513.04,-350.35C440.26,-343.92 358.98,-332.37 329.12,-312 297.35,-290.32 276.95,-265.34 296.12,-232 304.49,-217.44 319.44,-207.06 334.1,-199.89"/>
<polygon fill="midnightblue" stroke="midnightblue" points="335.92,-202.91 343.62,-195.63 333.06,-196.52 335.92,-202.91"/>
</g>
<!-- Node16 -->
<g id="node16" class="node">
<title>Node16</title>
<g id="a_node16"><a xlink:href="../../da/dd8/receiver__protocol__simulator_8h.html" target="_top" xlink:title=" ">
<polygon fill="white" stroke="black" points="338.12,-290.5 338.12,-311.5 530.12,-311.5 530.12,-290.5 338.12,-290.5"/>
<text text-anchor="middle" x="434.12" y="-297.9" font-family="Helvetica,sans-Serif" font-size="12.00">receiver_protocol_simulator.h</text>
</a>
</g>
</g>
<!-- Node1&#45;&gt;Node16 -->
<g id="edge16" class="edge">
<title>Node1&#45;&gt;Node16</title>
<path fill="none" stroke="midnightblue" d="M609.68,-348.37C573.82,-338.9 518.94,-324.4 480.1,-314.14"/>
<polygon fill="midnightblue" stroke="midnightblue" points="480.65,-310.67 470.09,-311.5 478.87,-317.44 480.65,-310.67"/>
</g>
<!-- Node30 -->
<g id="node30" class="node">
<title>Node30</title>
<g id="a_node30"><a xlink:href="../../d8/d9d/k__out__protocol__simulator_8h.html" target="_top" xlink:title=" ">
<polygon fill="white" stroke="black" points="968.12,-290.5 968.12,-311.5 1144.12,-311.5 1144.12,-290.5 968.12,-290.5"/>
<text text-anchor="middle" x="1056.12" y="-297.9" font-family="Helvetica,sans-Serif" font-size="12.00">k_out_protocol_simulator.h</text>
</a>
</g>
</g>
<!-- Node1&#45;&gt;Node30 -->
<g id="edge38" class="edge">
<title>Node1&#45;&gt;Node30</title>
<path fill="none" stroke="midnightblue" d="M716.14,-348.44C788.37,-338.57 900.85,-323.21 976.44,-312.88"/>
<polygon fill="midnightblue" stroke="midnightblue" points="976.96,-316.34 986.4,-311.52 976.02,-309.41 976.96,-316.34"/>
</g>
<!-- Node8&#45;&gt;Node4 -->
<g id="edge9" class="edge">
<title>Node8&#45;&gt;Node4</title>
<path fill="none" stroke="midnightblue" d="M322.54,-174.5C268.19,-164.68 183.44,-149.37 126.17,-139.03"/>
<polygon fill="midnightblue" stroke="midnightblue" points="126.63,-135.55 116.16,-137.22 125.38,-142.44 126.63,-135.55"/>
</g>
<!-- Node9 -->
<g id="node9" class="node">
<title>Node9</title>
<g id="a_node9"><a xlink:title=" ">
<polygon fill="white" stroke="#bfbfbf" points="502.12,-116.5 502.12,-137.5 566.12,-137.5 566.12,-116.5 502.12,-116.5"/>
<text text-anchor="middle" x="534.12" y="-123.9" font-family="Helvetica,sans-Serif" font-size="12.00">random</text>
</a>
</g>
</g>
<!-- Node8&#45;&gt;Node9 -->
<g id="edge8" class="edge">
<title>Node8&#45;&gt;Node9</title>
<path fill="none" stroke="midnightblue" d="M402.46,-174.37C428.67,-165.14 468.42,-151.14 497.39,-140.94"/>
<polygon fill="midnightblue" stroke="midnightblue" points="498.88,-144.12 507.15,-137.5 496.55,-137.52 498.88,-144.12"/>
</g>
<!-- Node10 -->
<g id="node10" class="node">
<title>Node10</title>
<g id="a_node10"><a xlink:title=" ">
<polygon fill="white" stroke="#bfbfbf" points="134.12,-116.5 134.12,-137.5 196.12,-137.5 196.12,-116.5 134.12,-116.5"/>
<text text-anchor="middle" x="165.12" y="-123.9" font-family="Helvetica,sans-Serif" font-size="12.00">string.h</text>
</a>
</g>
</g>
<!-- Node8&#45;&gt;Node10 -->
<g id="edge10" class="edge">
<title>Node8&#45;&gt;Node10</title>
<path fill="none" stroke="midnightblue" d="M339.02,-174.37C302.1,-164.53 244.82,-149.25 206.19,-138.95"/>
<polygon fill="midnightblue" stroke="midnightblue" points="206.87,-135.51 196.31,-136.32 205.07,-142.27 206.87,-135.51"/>
</g>
<!-- Node11 -->
<g id="node11" class="node">
<title>Node11</title>
<g id="a_node11"><a xlink:href="../../d0/d70/yal__log_8h.html" target="_top" xlink:title=" ">
<polygon fill="white" stroke="black" points="813.62,-58.5 813.62,-79.5 882.62,-79.5 882.62,-58.5 813.62,-58.5"/>
<text text-anchor="middle" x="848.12" y="-65.9" font-family="Helvetica,sans-Serif" font-size="12.00">yal_log.h</text>
</a>
</g>
</g>
<!-- Node8&#45;&gt;Node11 -->
<g id="edge11" class="edge">
<title>Node8&#45;&gt;Node11</title>
<path fill="none" stroke="midnightblue" d="M373.89,-174.39C372.57,-159.42 372.56,-130.74 389.12,-116 456.05,-56.45 696.46,-91.83 803.4,-79.69"/>
<polygon fill="midnightblue" stroke="midnightblue" points="804.18,-83.11 813.62,-78.31 803.25,-76.18 804.18,-83.11"/>
</g>
<!-- Node13 -->
<g id="node13" class="node">
<title>Node13</title>
<g id="a_node13"><a xlink:href="../../da/d10/scoped__lock_8h.html" target="_top" xlink:title=" ">
<polygon fill="white" stroke="black" points="214.62,-116.5 214.62,-137.5 315.62,-137.5 315.62,-116.5 214.62,-116.5"/>
<text text-anchor="middle" x="265.12" y="-123.9" font-family="Helvetica,sans-Serif" font-size="12.00">scoped_lock.h</text>
</a>
</g>
</g>
<!-- Node8&#45;&gt;Node13 -->
<g id="edge13" class="edge">
<title>Node8&#45;&gt;Node13</title>
<path fill="none" stroke="midnightblue" d="M355.96,-174.25C338.61,-165.41 312.83,-152.29 293.17,-142.28"/>
<polygon fill="midnightblue" stroke="midnightblue" points="294.56,-139.06 284.06,-137.64 291.39,-145.3 294.56,-139.06"/>
</g>
<!-- Node12 -->
<g id="node12" class="node">
<title>Node12</title>
<g id="a_node12"><a xlink:title=" ">
<polygon fill="white" stroke="#bfbfbf" points="787.12,-0.5 787.12,-21.5 843.12,-21.5 843.12,-0.5 787.12,-0.5"/>
<text text-anchor="middle" x="815.12" y="-7.9" font-family="Helvetica,sans-Serif" font-size="12.00">stdio.h</text>
</a>
</g>
</g>
<!-- Node11&#45;&gt;Node12 -->
<g id="edge12" class="edge">
<title>Node11&#45;&gt;Node12</title>
<path fill="none" stroke="midnightblue" d="M842.38,-58.25C837.88,-50.62 831.5,-39.79 826.04,-30.53"/>
<polygon fill="midnightblue" stroke="midnightblue" points="828.9,-28.48 820.81,-21.64 822.87,-32.04 828.9,-28.48"/>
</g>
<!-- Node14 -->
<g id="node14" class="node">
<title>Node14</title>
<g id="a_node14"><a xlink:title=" ">
<polygon fill="white" stroke="#bfbfbf" points="272.12,-58.5 272.12,-79.5 346.12,-79.5 346.12,-58.5 272.12,-58.5"/>
<text text-anchor="middle" x="309.12" y="-65.9" font-family="Helvetica,sans-Serif" font-size="12.00">pthread.h</text>
</a>
</g>
</g>
<!-- Node13&#45;&gt;Node14 -->
<g id="edge14" class="edge">
<title>Node13&#45;&gt;Node14</title>
<path fill="none" stroke="midnightblue" d="M272.79,-116.25C278.97,-108.38 287.83,-97.1 295.25,-87.65"/>
<polygon fill="midnightblue" stroke="midnightblue" points="298.12,-89.67 301.55,-79.64 292.62,-85.34 298.12,-89.67"/>
</g>
<!-- Node15 -->
<g id="node15" class="node">
<title>Node15</title>
<g id="a_node15"><a xlink:title=" ">
<polygon fill="white" stroke="#bfbfbf" points="188.62,-58.5 188.62,-79.5 253.62,-79.5 253.62,-58.5 188.62,-58.5"/>
<text text-anchor="middle" x="221.12" y="-65.9" font-family="Helvetica,sans-Serif" font-size="12.00">assert.h</text>
</a>
</g>
</g>
<!-- Node13&#45;&gt;Node15 -->
<g id="edge15" class="edge">
<title>Node13&#45;&gt;Node15</title>
<path fill="none" stroke="midnightblue" d="M257.46,-116.25C251.28,-108.38 242.42,-97.1 234.99,-87.65"/>
<polygon fill="midnightblue" stroke="midnightblue" points="237.63,-85.34 228.7,-79.64 232.13,-89.67 237.63,-85.34"/>
</g>
<!-- Node16&#45;&gt;Node8 -->
<g id="edge37" class="edge">
<title>Node16&#45;&gt;Node8</title>
<path fill="none" stroke="midnightblue" d="M360.46,-290.44C338.76,-283.81 317.32,-272.67 304.12,-254 289.12,-232.77 317.1,-212.74 342.22,-199.99"/>
<polygon fill="midnightblue" stroke="midnightblue" points="343.78,-203.12 351.27,-195.63 340.74,-196.82 343.78,-203.12"/>
</g>
<!-- Node17 -->
<g id="node17" class="node">
<title>Node17</title>
<g id="a_node17"><a xlink:href="../../df/d52/abstract__receive__protocol__simulator_8h.html" target="_top" xlink:title=" ">
<polygon fill="white" stroke="black" points="313.12,-232.5 313.12,-253.5 555.12,-253.5 555.12,-232.5 313.12,-232.5"/>
<text text-anchor="middle" x="434.12" y="-239.9" font-family="Helvetica,sans-Serif" font-size="12.00">abstract_receive_protocol_simulator.h</text>
</a>
</g>
</g>
<!-- Node16&#45;&gt;Node17 -->
<g id="edge17" class="edge">
<title>Node16&#45;&gt;Node17</title>
<path fill="none" stroke="midnightblue" d="M434.12,-290.25C434.12,-282.94 434.12,-272.69 434.12,-263.7"/>
<polygon fill="midnightblue" stroke="midnightblue" points="437.62,-263.64 434.12,-253.64 430.62,-263.64 437.62,-263.64"/>
</g>
<!-- Node17&#45;&gt;Node6 -->
<g id="edge19" class="edge">
<title>Node17&#45;&gt;Node6</title>
<path fill="none" stroke="midnightblue" d="M532.36,-232.46C584.09,-225.64 648.05,-214.32 703.12,-196 723.49,-189.22 725.85,-181.07 746.12,-174 819.75,-148.31 843.75,-153.78 924.71,-138.02"/>
<polygon fill="midnightblue" stroke="midnightblue" points="925.76,-141.38 934.88,-135.99 924.38,-134.52 925.76,-141.38"/>
</g>
<!-- Node17&#45;&gt;Node8 -->
<g id="edge36" class="edge">
<title>Node17&#45;&gt;Node8</title>
<path fill="none" stroke="midnightblue" d="M423.85,-232.25C415.3,-224.14 402.95,-212.41 392.82,-202.79"/>
<polygon fill="midnightblue" stroke="midnightblue" points="394.95,-199.99 385.28,-195.64 390.13,-205.07 394.95,-199.99"/>
</g>
<!-- Node18 -->
<g id="node18" class="node">
<title>Node18</title>
<g id="a_node18"><a xlink:title=" ">
<polygon fill="white" stroke="#bfbfbf" points="1013.62,-0.5 1013.62,-21.5 1068.62,-21.5 1068.62,-0.5 1013.62,-0.5"/>
<text text-anchor="middle" x="1041.12" y="-7.9" font-family="Helvetica,sans-Serif" font-size="12.00">vector</text>
</a>
</g>
</g>
<!-- Node17&#45;&gt;Node18 -->
<g id="edge18" class="edge">
<title>Node17&#45;&gt;Node18</title>
<path fill="none" stroke="midnightblue" d="M349.55,-232.48C212.82,-215.24 -37.46,-175.08 5.12,-116 52.79,-49.87 98.96,-72.81 179.12,-58 536.77,8.07 639.59,-76.66 1003.37,-21.74"/>
<polygon fill="midnightblue" stroke="midnightblue" points="1004.03,-25.18 1013.38,-20.2 1002.97,-18.26 1004.03,-25.18"/>
</g>
<!-- Node19 -->
<g id="node19" class="node">
<title>Node19</title>
<g id="a_node19"><a xlink:href="../../d8/de7/corruptions__stake__protocol__simulator_8h.html" target="_top" xlink:title=" ">
<polygon fill="white" stroke="black" points="446.12,-174.5 446.12,-195.5 694.12,-195.5 694.12,-174.5 446.12,-174.5"/>
<text text-anchor="middle" x="570.12" y="-181.9" font-family="Helvetica,sans-Serif" font-size="12.00">corruptions_stake_protocol_simulator.h</text>
</a>
</g>
</g>
<!-- Node17&#45;&gt;Node19 -->
<g id="edge20" class="edge">
<title>Node17&#45;&gt;Node19</title>
<path fill="none" stroke="midnightblue" d="M457.5,-232.37C479.63,-223.26 513.04,-209.51 537.73,-199.34"/>
<polygon fill="midnightblue" stroke="midnightblue" points="539.14,-202.55 547.05,-195.5 536.47,-196.07 539.14,-202.55"/>
</g>
<!-- Node19&#45;&gt;Node6 -->
<g id="edge32" class="edge">
<title>Node19&#45;&gt;Node6</title>
<path fill="none" stroke="midnightblue" d="M658.3,-174.47C727.91,-166.51 827.69,-154.13 924.91,-137.92"/>
<polygon fill="midnightblue" stroke="midnightblue" points="925.64,-141.34 934.92,-136.23 924.48,-134.44 925.64,-141.34"/>
</g>
<!-- Node19&#45;&gt;Node9 -->
<g id="edge29" class="edge">
<title>Node19&#45;&gt;Node9</title>
<path fill="none" stroke="midnightblue" d="M563.85,-174.25C558.9,-166.54 551.84,-155.56 545.85,-146.23"/>
<polygon fill="midnightblue" stroke="midnightblue" points="548.67,-144.16 540.32,-137.64 542.79,-147.95 548.67,-144.16"/>
</g>
<!-- Node19&#45;&gt;Node11 -->
<g id="edge35" class="edge">
<title>Node19&#45;&gt;Node11</title>
<path fill="none" stroke="midnightblue" d="M476.44,-174.45C422.89,-165.39 371.72,-148.15 401.12,-116 429.92,-84.51 727.15,-86.67 803.36,-79.53"/>
<polygon fill="midnightblue" stroke="midnightblue" points="804.11,-82.97 813.62,-78.3 803.28,-76.02 804.11,-82.97"/>
</g>
<!-- Node20 -->
<g id="node20" class="node">
<title>Node20</title>
<g id="a_node20"><a xlink:href="../../dc/d8d/protocol__simulator_8h.html" target="_top" xlink:title=" ">
<polygon fill="white" stroke="black" points="779.62,-116.5 779.62,-137.5 916.62,-137.5 916.62,-116.5 779.62,-116.5"/>
<text text-anchor="middle" x="848.12" y="-123.9" font-family="Helvetica,sans-Serif" font-size="12.00">protocol_simulator.h</text>
</a>
</g>
</g>
<!-- Node19&#45;&gt;Node20 -->
<g id="edge21" class="edge">
<title>Node19&#45;&gt;Node20</title>
<path fill="none" stroke="midnightblue" d="M617.6,-174.44C665.57,-164.77 739.74,-149.83 790.93,-139.52"/>
<polygon fill="midnightblue" stroke="midnightblue" points="791.73,-142.93 800.85,-137.52 790.35,-136.07 791.73,-142.93"/>
</g>
<!-- Node26 -->
<g id="node26" class="node">
<title>Node26</title>
<g id="a_node26"><a xlink:title=" ">
<polygon fill="white" stroke="#bfbfbf" points="410.12,-116.5 410.12,-137.5 484.12,-137.5 484.12,-116.5 410.12,-116.5"/>
<text text-anchor="middle" x="447.12" y="-123.9" font-family="Helvetica,sans-Serif" font-size="12.00">algorithm</text>
</a>
</g>
</g>
<!-- Node19&#45;&gt;Node26 -->
<g id="edge30" class="edge">
<title>Node19&#45;&gt;Node26</title>
<path fill="none" stroke="midnightblue" d="M548.98,-174.37C529.23,-165.38 499.55,-151.87 477.32,-141.75"/>
<polygon fill="midnightblue" stroke="midnightblue" points="478.54,-138.46 467.99,-137.5 475.64,-144.83 478.54,-138.46"/>
</g>
<!-- Node27 -->
<g id="node27" class="node">
<title>Node27</title>
<g id="a_node27"><a xlink:title=" ">
<polygon fill="white" stroke="#bfbfbf" points="584.62,-116.5 584.62,-137.5 619.62,-137.5 619.62,-116.5 584.62,-116.5"/>
<text text-anchor="middle" x="602.12" y="-123.9" font-family="Helvetica,sans-Serif" font-size="12.00">set</text>
</a>
</g>
</g>
<!-- Node19&#45;&gt;Node27 -->
<g id="edge31" class="edge">
<title>Node19&#45;&gt;Node27</title>
<path fill="none" stroke="midnightblue" d="M575.7,-174.25C580.06,-166.62 586.24,-155.79 591.54,-146.53"/>
<polygon fill="midnightblue" stroke="midnightblue" points="594.69,-148.06 596.61,-137.64 588.61,-144.59 594.69,-148.06"/>
</g>
<!-- Node28 -->
<g id="node28" class="node">
<title>Node28</title>
<g id="a_node28"><a xlink:title=" ">
<polygon fill="white" stroke="#bfbfbf" points="638.12,-116.5 638.12,-137.5 688.12,-137.5 688.12,-116.5 638.12,-116.5"/>
<text text-anchor="middle" x="663.12" y="-123.9" font-family="Helvetica,sans-Serif" font-size="12.00">ctime</text>
</a>
</g>
</g>
<!-- Node19&#45;&gt;Node28 -->
<g id="edge33" class="edge">
<title>Node19&#45;&gt;Node28</title>
<path fill="none" stroke="midnightblue" d="M586.32,-174.25C600.73,-165.57 622,-152.76 638.5,-142.82"/>
<polygon fill="midnightblue" stroke="midnightblue" points="640.35,-145.8 647.11,-137.64 636.74,-139.8 640.35,-145.8"/>
</g>
<!-- Node29 -->
<g id="node29" class="node">
<title>Node29</title>
<g id="a_node29"><a xlink:title=" ">
<polygon fill="white" stroke="#bfbfbf" points="706.62,-116.5 706.62,-137.5 761.62,-137.5 761.62,-116.5 706.62,-116.5"/>
<text text-anchor="middle" x="734.12" y="-123.9" font-family="Helvetica,sans-Serif" font-size="12.00">cstdlib</text>
</a>
</g>
</g>
<!-- Node19&#45;&gt;Node29 -->
<g id="edge34" class="edge">
<title>Node19&#45;&gt;Node29</title>
<path fill="none" stroke="midnightblue" d="M598.32,-174.37C625.55,-165.07 666.96,-150.93 696.9,-140.71"/>
<polygon fill="midnightblue" stroke="midnightblue" points="698.24,-143.95 706.57,-137.41 695.98,-137.33 698.24,-143.95"/>
</g>
<!-- Node20&#45;&gt;Node11 -->
<g id="edge28" class="edge">
<title>Node20&#45;&gt;Node11</title>
<path fill="none" stroke="midnightblue" d="M848.12,-116.25C848.12,-108.94 848.12,-98.69 848.12,-89.7"/>
<polygon fill="midnightblue" stroke="midnightblue" points="851.62,-89.64 848.12,-79.64 844.62,-89.64 851.62,-89.64"/>
</g>
<!-- Node21 -->
<g id="node21" class="node">
<title>Node21</title>
<g id="a_node21"><a xlink:title=" ">
<polygon fill="white" stroke="#bfbfbf" points="746.62,-58.5 746.62,-79.5 795.62,-79.5 795.62,-58.5 746.62,-58.5"/>
<text text-anchor="middle" x="771.12" y="-65.9" font-family="Helvetica,sans-Serif" font-size="12.00">utility</text>
</a>
</g>
</g>
<!-- Node20&#45;&gt;Node21 -->
<g id="edge22" class="edge">
<title>Node20&#45;&gt;Node21</title>
<path fill="none" stroke="midnightblue" d="M834.71,-116.25C823.12,-107.81 806.15,-95.47 792.66,-85.66"/>
<polygon fill="midnightblue" stroke="midnightblue" points="794.53,-82.69 784.38,-79.64 790.41,-88.36 794.53,-82.69"/>
</g>
<!-- Node22 -->
<g id="node22" class="node">
<title>Node22</title>
<g id="a_node22"><a xlink:title=" ">
<polygon fill="white" stroke="#bfbfbf" points="1062.62,-58.5 1062.62,-79.5 1109.62,-79.5 1109.62,-58.5 1062.62,-58.5"/>
<text text-anchor="middle" x="1086.12" y="-65.9" font-family="Helvetica,sans-Serif" font-size="12.00">tuple</text>
</a>
</g>
</g>
<!-- Node20&#45;&gt;Node22 -->
<g id="edge23" class="edge">
<title>Node20&#45;&gt;Node22</title>
<path fill="none" stroke="midnightblue" d="M888.77,-116.44C934.88,-105.59 1009.26,-88.08 1052.33,-77.95"/>
<polygon fill="midnightblue" stroke="midnightblue" points="1053.38,-81.3 1062.31,-75.6 1051.78,-74.49 1053.38,-81.3"/>
</g>
<!-- Node23 -->
<g id="node23" class="node">
<title>Node23</title>
<g id="a_node23"><a xlink:href="../../d9/d49/types_8h.html" target="_top" xlink:title=" ">
<polygon fill="white" stroke="black" points="918.12,-58.5 918.12,-79.5 978.12,-79.5 978.12,-58.5 918.12,-58.5"/>
<text text-anchor="middle" x="948.12" y="-65.9" font-family="Helvetica,sans-Serif" font-size="12.00">types.h</text>
</a>
</g>
</g>
<!-- Node20&#45;&gt;Node23 -->
<g id="edge24" class="edge">
<title>Node20&#45;&gt;Node23</title>
<path fill="none" stroke="midnightblue" d="M865.54,-116.25C881.17,-107.49 904.33,-94.53 922.14,-84.55"/>
<polygon fill="midnightblue" stroke="midnightblue" points="923.89,-87.58 930.9,-79.64 920.47,-81.47 923.89,-87.58"/>
</g>
<!-- Node23&#45;&gt;Node18 -->
<g id="edge25" class="edge">
<title>Node23&#45;&gt;Node18</title>
<path fill="none" stroke="midnightblue" d="M964.32,-58.25C978.73,-49.57 1000,-36.76 1016.5,-26.82"/>
<polygon fill="midnightblue" stroke="midnightblue" points="1018.35,-29.8 1025.11,-21.64 1014.74,-23.8 1018.35,-29.8"/>
</g>
<!-- Node24 -->
<g id="node24" class="node">
<title>Node24</title>
<g id="a_node24"><a xlink:title=" ">
<polygon fill="white" stroke="#bfbfbf" points="934.62,-0.5 934.62,-21.5 995.62,-21.5 995.62,-0.5 934.62,-0.5"/>
<text text-anchor="middle" x="965.12" y="-7.9" font-family="Helvetica,sans-Serif" font-size="12.00">cstddef</text>
</a>
</g>
</g>
<!-- Node23&#45;&gt;Node24 -->
<g id="edge26" class="edge">
<title>Node23&#45;&gt;Node24</title>
<path fill="none" stroke="midnightblue" d="M951.08,-58.25C953.33,-50.86 956.48,-40.47 959.23,-31.41"/>
<polygon fill="midnightblue" stroke="midnightblue" points="962.64,-32.23 962.2,-21.64 955.94,-30.19 962.64,-32.23"/>
</g>
<!-- Node25 -->
<g id="node25" class="node">
<title>Node25</title>
<g id="a_node25"><a xlink:title=" ">
<polygon fill="white" stroke="#bfbfbf" points="861.62,-0.5 861.62,-21.5 916.62,-21.5 916.62,-0.5 861.62,-0.5"/>
<text text-anchor="middle" x="889.12" y="-7.9" font-family="Helvetica,sans-Serif" font-size="12.00">climits</text>
</a>
</g>
</g>
<!-- Node23&#45;&gt;Node25 -->
<g id="edge27" class="edge">
<title>Node23&#45;&gt;Node25</title>
<path fill="none" stroke="midnightblue" d="M937.85,-58.25C929.3,-50.14 916.95,-38.41 906.82,-28.79"/>
<polygon fill="midnightblue" stroke="midnightblue" points="908.95,-25.99 899.28,-21.64 904.13,-31.07 908.95,-25.99"/>
</g>
<!-- Node30&#45;&gt;Node2 -->
<g id="edge39" class="edge">
<title>Node30&#45;&gt;Node2</title>
<path fill="none" stroke="midnightblue" d="M967.95,-290.62C894.69,-282.39 787.84,-269.35 695.12,-254 693.68,-253.76 692.21,-253.51 690.73,-253.25"/>
<polygon fill="midnightblue" stroke="midnightblue" points="691.33,-249.8 680.86,-251.42 690.06,-256.68 691.33,-249.8"/>
</g>
<!-- Node30&#45;&gt;Node3 -->
<g id="edge40" class="edge">
<title>Node30&#45;&gt;Node3</title>
<path fill="none" stroke="midnightblue" d="M1085.92,-290.36C1108.01,-282.45 1138.29,-269.96 1162.12,-254 1183.5,-239.68 1204.15,-218.42 1217.41,-203.49"/>
<polygon fill="midnightblue" stroke="midnightblue" points="1220.06,-205.78 1223.98,-195.93 1214.78,-201.19 1220.06,-205.78"/>
</g>
<!-- Node30&#45;&gt;Node4 -->
<g id="edge41" class="edge">
<title>Node30&#45;&gt;Node4</title>
<path fill="none" stroke="midnightblue" d="M968.05,-298.22C899.41,-294.39 802.72,-283.58 723.12,-254 706.25,-247.73 706.12,-237.92 689.12,-232 530.57,-176.83 478.24,-226.31 313.12,-196 237.69,-182.15 151.83,-156.27 103.49,-140.74"/>
<polygon fill="midnightblue" stroke="midnightblue" points="104.36,-137.34 93.77,-137.59 102.2,-144 104.36,-137.34"/>
</g>
<!-- Node30&#45;&gt;Node5 -->
<g id="edge42" class="edge">
<title>Node30&#45;&gt;Node5</title>
<path fill="none" stroke="midnightblue" d="M1105.21,-290.49C1155.15,-278.01 1230.4,-250.91 1268.12,-196 1277.98,-181.65 1282.75,-162.29 1285.04,-147.9"/>
<polygon fill="midnightblue" stroke="midnightblue" points="1288.56,-147.98 1286.4,-137.61 1281.62,-147.07 1288.56,-147.98"/>
</g>
<!-- Node30&#45;&gt;Node6 -->
<g id="edge43" class="edge">
<title>Node30&#45;&gt;Node6</title>
<path fill="none" stroke="midnightblue" d="M1074.13,-290.42C1095.11,-277.92 1125.32,-254.93 1112.12,-232 1096.23,-204.39 1075.97,-214.64 1050.12,-196 1028.4,-180.33 1005.66,-159.64 990.58,-145.22"/>
<polygon fill="midnightblue" stroke="midnightblue" points="992.66,-142.36 983.04,-137.92 987.79,-147.39 992.66,-142.36"/>
</g>
<!-- Node30&#45;&gt;Node7 -->
<g id="edge44" class="edge">
<title>Node30&#45;&gt;Node7</title>
<path fill="none" stroke="midnightblue" d="M1102.74,-290.44C1149.76,-280.79 1222.39,-265.89 1272.64,-255.59"/>
<polygon fill="midnightblue" stroke="midnightblue" points="1273.6,-258.96 1282.7,-253.52 1272.2,-252.1 1273.6,-258.96"/>
</g>
<!-- Node30&#45;&gt;Node8 -->
<g id="edge57" class="edge">
<title>Node30&#45;&gt;Node8</title>
<path fill="none" stroke="midnightblue" d="M967.83,-293.28C909.48,-287.08 831.92,-275.45 766.12,-254 745.71,-247.35 743.64,-238.32 723.12,-232 603.8,-195.21 565.86,-213.23 438.05,-196.05"/>
<polygon fill="midnightblue" stroke="midnightblue" points="438.26,-192.55 427.87,-194.64 437.29,-199.48 438.26,-192.55"/>
</g>
<!-- Node30&#45;&gt;Node11 -->
<g id="edge58" class="edge">
<title>Node30&#45;&gt;Node11</title>
<path fill="none" stroke="midnightblue" d="M1054.85,-290.4C1049.99,-254.42 1032.29,-129.02 1020.12,-116 1011.31,-106.56 940.71,-89.84 892.74,-79.37"/>
<polygon fill="midnightblue" stroke="midnightblue" points="893.4,-75.93 882.88,-77.24 891.92,-82.77 893.4,-75.93"/>
</g>
<!-- Node31 -->
<g id="node31" class="node">
<title>Node31</title>
<g id="a_node31"><a xlink:title=" ">
<polygon fill="white" stroke="#bfbfbf" points="1059.12,-232.5 1059.12,-253.5 1103.12,-253.5 1103.12,-232.5 1059.12,-232.5"/>
<text text-anchor="middle" x="1081.12" y="-239.9" font-family="Helvetica,sans-Serif" font-size="12.00">map</text>
</a>
</g>
</g>
<!-- Node30&#45;&gt;Node31 -->
<g id="edge45" class="edge">
<title>Node30&#45;&gt;Node31</title>
<path fill="none" stroke="midnightblue" d="M1060.48,-290.25C1063.85,-282.7 1068.62,-272.02 1072.72,-262.82"/>
<polygon fill="midnightblue" stroke="midnightblue" points="1075.94,-264.2 1076.82,-253.64 1069.55,-261.35 1075.94,-264.2"/>
</g>
<!-- Node32 -->
<g id="node32" class="node">
<title>Node32</title>
<g id="a_node32"><a xlink:href="../../d9/d95/abstract__send__protocol__simulator_8h.html" target="_top" xlink:title=" ">
<polygon fill="white" stroke="black" points="775.62,-232.5 775.62,-253.5 1002.62,-253.5 1002.62,-232.5 775.62,-232.5"/>
<text text-anchor="middle" x="889.12" y="-239.9" font-family="Helvetica,sans-Serif" font-size="12.00">abstract_send_protocol_simulator.h</text>
</a>
</g>
</g>
<!-- Node30&#45;&gt;Node32 -->
<g id="edge46" class="edge">
<title>Node30&#45;&gt;Node32</title>
<path fill="none" stroke="midnightblue" d="M1027.42,-290.37C999.77,-281.1 957.77,-267.02 927.31,-256.8"/>
<polygon fill="midnightblue" stroke="midnightblue" points="928.05,-253.36 917.46,-253.5 925.83,-260 928.05,-253.36"/>
</g>
<!-- Node33 -->
<g id="node33" class="node">
<title>Node33</title>
<g id="a_node33"><a xlink:href="../../d7/d90/random__sampler_8h.html" target="_top" xlink:title=" ">
<polygon fill="white" stroke="black" points="1059.12,-174.5 1059.12,-195.5 1187.12,-195.5 1187.12,-174.5 1059.12,-174.5"/>
<text text-anchor="middle" x="1123.12" y="-181.9" font-family="Helvetica,sans-Serif" font-size="12.00">random_sampler.h</text>
</a>
</g>
</g>
<!-- Node30&#45;&gt;Node33 -->
<g id="edge51" class="edge">
<title>Node30&#45;&gt;Node33</title>
<path fill="none" stroke="midnightblue" d="M1094.22,-290.45C1113.02,-283.61 1134,-272.27 1145.12,-254 1154.55,-238.52 1146.06,-218.58 1137.03,-204.3"/>
<polygon fill="midnightblue" stroke="midnightblue" points="1139.76,-202.09 1131.2,-195.84 1133.99,-206.06 1139.76,-202.09"/>
</g>
<!-- Node32&#45;&gt;Node3 -->
<g id="edge47" class="edge">
<title>Node32&#45;&gt;Node3</title>
<path fill="none" stroke="midnightblue" d="M971.05,-232.49C1030.75,-224.92 1113.7,-213.08 1195.16,-196"/>
<polygon fill="midnightblue" stroke="midnightblue" points="1196.03,-199.39 1205.08,-193.89 1194.58,-192.55 1196.03,-199.39"/>
</g>
<!-- Node32&#45;&gt;Node6 -->
<g id="edge48" class="edge">
<title>Node32&#45;&gt;Node6</title>
<path fill="none" stroke="midnightblue" d="M896.29,-232.28C910.42,-213.1 942.08,-170.12 960.04,-145.75"/>
<polygon fill="midnightblue" stroke="midnightblue" points="962.87,-147.82 965.98,-137.69 957.23,-143.67 962.87,-147.82"/>
</g>
<!-- Node32&#45;&gt;Node8 -->
<g id="edge50" class="edge">
<title>Node32&#45;&gt;Node8</title>
<path fill="none" stroke="midnightblue" d="M777.46,-232.47C688.36,-224.43 560.11,-211.92 438.13,-196.07"/>
<polygon fill="midnightblue" stroke="midnightblue" points="438.23,-192.55 427.86,-194.72 437.32,-199.49 438.23,-192.55"/>
</g>
<!-- Node32&#45;&gt;Node19 -->
<g id="edge49" class="edge">
<title>Node32&#45;&gt;Node19</title>
<path fill="none" stroke="midnightblue" d="M834.65,-232.44C779.14,-222.69 693.07,-207.58 634.29,-197.26"/>
<polygon fill="midnightblue" stroke="midnightblue" points="634.83,-193.81 624.37,-195.52 633.62,-200.7 634.83,-193.81"/>
</g>
<!-- Node33&#45;&gt;Node5 -->
<g id="edge53" class="edge">
<title>Node33&#45;&gt;Node5</title>
<path fill="none" stroke="midnightblue" d="M1151.32,-174.37C1181.96,-163.91 1230.54,-147.32 1260.53,-137.08"/>
<polygon fill="midnightblue" stroke="midnightblue" points="1261.98,-140.29 1270.31,-133.74 1259.71,-133.66 1261.98,-140.29"/>
</g>
<!-- Node33&#45;&gt;Node9 -->
<g id="edge54" class="edge">
<title>Node33&#45;&gt;Node9</title>
<path fill="none" stroke="midnightblue" d="M1059.03,-181.85C958.17,-177.76 756.21,-166.69 576.17,-137.94"/>
<polygon fill="midnightblue" stroke="midnightblue" points="576.69,-134.48 566.26,-136.34 575.57,-141.39 576.69,-134.48"/>
</g>
<!-- Node33&#45;&gt;Node11 -->
<g id="edge56" class="edge">
<title>Node33&#45;&gt;Node11</title>
<path fill="none" stroke="midnightblue" d="M1116.13,-174.41C1104.71,-159.47 1080.54,-130.83 1053.12,-116 1039.12,-108.42 948.83,-89.78 892.84,-78.69"/>
<polygon fill="midnightblue" stroke="midnightblue" points="893.31,-75.21 882.82,-76.71 891.95,-82.08 893.31,-75.21"/>
</g>
<!-- Node33&#45;&gt;Node18 -->
<g id="edge52" class="edge">
<title>Node33&#45;&gt;Node18</title>
<path fill="none" stroke="midnightblue" d="M1125.64,-174.29C1130.86,-151.93 1140.6,-95.83 1118.12,-58 1109.17,-42.92 1093.19,-32.21 1078.1,-24.94"/>
<polygon fill="midnightblue" stroke="midnightblue" points="1079.45,-21.71 1068.89,-20.84 1076.61,-28.1 1079.45,-21.71"/>
</g>
<!-- Node33&#45;&gt;Node22 -->
<g id="edge55" class="edge">
<title>Node33&#45;&gt;Node22</title>
<path fill="none" stroke="midnightblue" d="M1119.97,-174.28C1113.88,-155.52 1100.4,-114 1092.41,-89.38"/>
<polygon fill="midnightblue" stroke="midnightblue" points="1095.69,-88.13 1089.27,-79.69 1089.03,-90.29 1095.69,-88.13"/>
</g>
</g>
</svg>
