<?xml version="1.0" encoding="UTF-8" standalone="no"?>
<!DOCTYPE svg PUBLIC "-//W3C//DTD SVG 1.1//EN"
 "http://www.w3.org/Graphics/SVG/1.1/DTD/svg11.dtd">
<!-- Generated by graphviz version 5.0.0 (0)
 -->
<!-- Title: read_parameters Pages: 1 -->
<svg width="427pt" height="30pt"
 viewBox="0.00 0.00 427.00 30.00" xmlns="http://www.w3.org/2000/svg" xmlns:xlink="http://www.w3.org/1999/xlink">
<g id="graph0" class="graph" transform="scale(1 1) rotate(0) translate(4 26)">
<title>read_parameters</title>
<polygon fill="white" stroke="transparent" points="-4,4 -4,-26 423,-26 423,4 -4,4"/>
<!-- Node1 -->
<g id="node1" class="node">
<title>Node1</title>
<g id="a_node1"><a xlink:title="Reads the input parameters.">
<polygon fill="#bfbfbf" stroke="black" points="299,-0.5 299,-21.5 419,-21.5 419,-0.5 299,-0.5"/>
<text text-anchor="middle" x="359" y="-7.9" font-family="Helvetica,sans-Serif" font-size="12.00">read_parameters</text>
</a>
</g>
</g>
<!-- Node2 -->
<g id="node2" class="node">
<title>Node2</title>
<g id="a_node2"><a xlink:href="../../df/d31/main__utils_8cc.html#a8f4afe28d9c87b5957823f96ebe7dd48" target="_top" xlink:title=" ">
<polygon fill="white" stroke="black" points="83,-0.5 83,-21.5 263,-21.5 263,-0.5 83,-0.5"/>
<text text-anchor="middle" x="173" y="-7.9" font-family="Helvetica,sans-Serif" font-size="12.00">run_command_parameters</text>
</a>
</g>
</g>
<!-- Node1&#45;&gt;Node2 -->
<g id="edge1" class="edge">
<title>Node1&#45;&gt;Node2</title>
<path fill="none" stroke="midnightblue" d="M288.76,-11C280.43,-11 271.83,-11 263.26,-11"/>
<polygon fill="midnightblue" stroke="midnightblue" points="288.77,-14.5 298.77,-11 288.77,-7.5 288.77,-14.5"/>
</g>
<!-- Node3 -->
<g id="node3" class="node">
<title>Node3</title>
<g id="a_node3"><a xlink:href="../../dd/d96/hybrid__main_8cc.html#a3c04138a5bfe5d72780bb7e82a18e627" target="_top" xlink:title=" ">
<polygon fill="white" stroke="black" points="0,-0.5 0,-21.5 47,-21.5 47,-0.5 0,-0.5"/>
<text text-anchor="middle" x="23.5" y="-7.9" font-family="Helvetica,sans-Serif" font-size="12.00">main</text>
</a>
</g>
</g>
<!-- Node2&#45;&gt;Node3 -->
<g id="edge2" class="edge">
<title>Node2&#45;&gt;Node3</title>
<path fill="none" stroke="midnightblue" d="M72.74,-11C63.27,-11 54.45,-11 47.01,-11"/>
<polygon fill="midnightblue" stroke="midnightblue" points="72.8,-14.5 82.8,-11 72.8,-7.5 72.8,-14.5"/>
</g>
</g>
</svg>
