<?xml version="1.0" encoding="UTF-8" standalone="no"?>
<!DOCTYPE svg PUBLIC "-//W3C//DTD SVG 1.1//EN"
 "http://www.w3.org/Graphics/SVG/1.1/DTD/svg11.dtd">
<!-- Generated by graphviz version 5.0.0 (0)
 -->
<!-- Title: include/generate_stake_distribution.h Pages: 1 -->
<svg width="615pt" height="146pt"
 viewBox="0.00 0.00 615.00 146.00" xmlns="http://www.w3.org/2000/svg" xmlns:xlink="http://www.w3.org/1999/xlink">
<g id="graph0" class="graph" transform="scale(1 1) rotate(0) translate(4 142)">
<title>include/generate_stake_distribution.h</title>
<polygon fill="white" stroke="transparent" points="-4,4 -4,-142 611,-142 611,4 -4,4"/>
<!-- Node1 -->
<g id="node1" class="node">
<title>Node1</title>
<g id="a_node1"><a xlink:title=" ">
<polygon fill="#bfbfbf" stroke="black" points="143.5,-116.5 143.5,-137.5 383.5,-137.5 383.5,-116.5 143.5,-116.5"/>
<text text-anchor="middle" x="263.5" y="-123.9" font-family="Helvetica,sans-Serif" font-size="12.00">include/generate_stake_distribution.h</text>
</a>
</g>
</g>
<!-- Node2 -->
<g id="node2" class="node">
<title>Node2</title>
<g id="a_node2"><a xlink:title=" ">
<polygon fill="white" stroke="#bfbfbf" points="0,-58.5 0,-79.5 69,-79.5 69,-58.5 0,-58.5"/>
<text text-anchor="middle" x="34.5" y="-65.9" font-family="Helvetica,sans-Serif" font-size="12.00">iostream</text>
</a>
</g>
</g>
<!-- Node1&#45;&gt;Node2 -->
<g id="edge1" class="edge">
<title>Node1&#45;&gt;Node2</title>
<path fill="none" stroke="midnightblue" d="M224.39,-116.44C184.07,-106.58 121.28,-91.22 79.06,-80.9"/>
<polygon fill="midnightblue" stroke="midnightblue" points="79.86,-77.49 69.32,-78.51 78.2,-84.29 79.86,-77.49"/>
</g>
<!-- Node3 -->
<g id="node3" class="node">
<title>Node3</title>
<g id="a_node3"><a xlink:title=" ">
<polygon fill="white" stroke="#bfbfbf" points="87.5,-58.5 87.5,-79.5 139.5,-79.5 139.5,-58.5 87.5,-58.5"/>
<text text-anchor="middle" x="113.5" y="-65.9" font-family="Helvetica,sans-Serif" font-size="12.00">cstdio</text>
</a>
</g>
</g>
<!-- Node1&#45;&gt;Node3 -->
<g id="edge2" class="edge">
<title>Node1&#45;&gt;Node3</title>
<path fill="none" stroke="midnightblue" d="M237.71,-116.37C213.1,-107.18 175.81,-93.26 148.51,-83.07"/>
<polygon fill="midnightblue" stroke="midnightblue" points="149.54,-79.72 138.95,-79.5 147.09,-86.28 149.54,-79.72"/>
</g>
<!-- Node4 -->
<g id="node4" class="node">
<title>Node4</title>
<g id="a_node4"><a xlink:title=" ">
<polygon fill="white" stroke="#bfbfbf" points="157.5,-58.5 157.5,-79.5 207.5,-79.5 207.5,-58.5 157.5,-58.5"/>
<text text-anchor="middle" x="182.5" y="-65.9" font-family="Helvetica,sans-Serif" font-size="12.00">string</text>
</a>
</g>
</g>
<!-- Node1&#45;&gt;Node4 -->
<g id="edge3" class="edge">
<title>Node1&#45;&gt;Node4</title>
<path fill="none" stroke="midnightblue" d="M249.39,-116.25C237.08,-107.73 219,-95.24 204.75,-85.38"/>
<polygon fill="midnightblue" stroke="midnightblue" points="206.66,-82.45 196.45,-79.64 202.68,-88.21 206.66,-82.45"/>
</g>
<!-- Node5 -->
<g id="node5" class="node">
<title>Node5</title>
<g id="a_node5"><a xlink:title=" ">
<polygon fill="white" stroke="#bfbfbf" points="323,-0.5 323,-21.5 378,-21.5 378,-0.5 323,-0.5"/>
<text text-anchor="middle" x="350.5" y="-7.9" font-family="Helvetica,sans-Serif" font-size="12.00">vector</text>
</a>
</g>
</g>
<!-- Node1&#45;&gt;Node5 -->
<g id="edge4" class="edge">
<title>Node1&#45;&gt;Node5</title>
<path fill="none" stroke="midnightblue" d="M258.57,-116.37C252.17,-102.39 243.08,-76.14 254.5,-58 267.34,-37.61 291.99,-26.06 313.1,-19.63"/>
<polygon fill="midnightblue" stroke="midnightblue" points="314.1,-22.99 322.8,-16.95 312.23,-16.24 314.1,-22.99"/>
</g>
<!-- Node6 -->
<g id="node6" class="node">
<title>Node6</title>
<g id="a_node6"><a xlink:title=" ">
<polygon fill="white" stroke="#bfbfbf" points="264,-58.5 264,-79.5 319,-79.5 319,-58.5 264,-58.5"/>
<text text-anchor="middle" x="291.5" y="-65.9" font-family="Helvetica,sans-Serif" font-size="12.00">cmath</text>
</a>
</g>
</g>
<!-- Node1&#45;&gt;Node6 -->
<g id="edge5" class="edge">
<title>Node1&#45;&gt;Node6</title>
<path fill="none" stroke="midnightblue" d="M268.38,-116.25C272.15,-108.7 277.49,-98.02 282.09,-88.82"/>
<polygon fill="midnightblue" stroke="midnightblue" points="285.34,-90.15 286.68,-79.64 279.08,-87.02 285.34,-90.15"/>
</g>
<!-- Node7 -->
<g id="node7" class="node">
<title>Node7</title>
<g id="a_node7"><a xlink:title=" ">
<polygon fill="white" stroke="#bfbfbf" points="337.5,-58.5 337.5,-79.5 401.5,-79.5 401.5,-58.5 337.5,-58.5"/>
<text text-anchor="middle" x="369.5" y="-65.9" font-family="Helvetica,sans-Serif" font-size="12.00">random</text>
</a>
</g>
</g>
<!-- Node1&#45;&gt;Node7 -->
<g id="edge6" class="edge">
<title>Node1&#45;&gt;Node7</title>
<path fill="none" stroke="midnightblue" d="M281.96,-116.25C298.61,-107.45 323.3,-94.41 342.22,-84.41"/>
<polygon fill="midnightblue" stroke="midnightblue" points="344.04,-87.41 351.25,-79.64 340.77,-81.22 344.04,-87.41"/>
</g>
<!-- Node8 -->
<g id="node8" class="node">
<title>Node8</title>
<g id="a_node8"><a xlink:title=" ">
<polygon fill="white" stroke="#bfbfbf" points="419.5,-58.5 419.5,-79.5 493.5,-79.5 493.5,-58.5 419.5,-58.5"/>
<text text-anchor="middle" x="456.5" y="-65.9" font-family="Helvetica,sans-Serif" font-size="12.00">algorithm</text>
</a>
</g>
</g>
<!-- Node1&#45;&gt;Node8 -->
<g id="edge7" class="edge">
<title>Node1&#45;&gt;Node8</title>
<path fill="none" stroke="midnightblue" d="M296.68,-116.37C329.05,-106.98 378.44,-92.65 413.74,-82.41"/>
<polygon fill="midnightblue" stroke="midnightblue" points="415.13,-85.65 423.76,-79.5 413.18,-78.93 415.13,-85.65"/>
</g>
<!-- Node9 -->
<g id="node9" class="node">
<title>Node9</title>
<g id="a_node9"><a xlink:href="../../d9/d49/types_8h.html" target="_top" xlink:title=" ">
<polygon fill="white" stroke="black" points="511.5,-58.5 511.5,-79.5 571.5,-79.5 571.5,-58.5 511.5,-58.5"/>
<text text-anchor="middle" x="541.5" y="-65.9" font-family="Helvetica,sans-Serif" font-size="12.00">types.h</text>
</a>
</g>
</g>
<!-- Node1&#45;&gt;Node9 -->
<g id="edge8" class="edge">
<title>Node1&#45;&gt;Node9</title>
<path fill="none" stroke="midnightblue" d="M318.28,-116.44C364.57,-108.13 432.85,-95.36 501.22,-80.19"/>
<polygon fill="midnightblue" stroke="midnightblue" points="502.32,-83.53 511.31,-77.93 500.79,-76.7 502.32,-83.53"/>
</g>
<!-- Node9&#45;&gt;Node5 -->
<g id="edge9" class="edge">
<title>Node9&#45;&gt;Node5</title>
<path fill="none" stroke="midnightblue" d="M511.24,-59.13C477.78,-49.32 423.85,-33.51 387.8,-22.94"/>
<polygon fill="midnightblue" stroke="midnightblue" points="388.72,-19.56 378.14,-20.1 386.75,-26.28 388.72,-19.56"/>
</g>
<!-- Node10 -->
<g id="node10" class="node">
<title>Node10</title>
<g id="a_node10"><a xlink:title=" ">
<polygon fill="white" stroke="#bfbfbf" points="473,-0.5 473,-21.5 534,-21.5 534,-0.5 473,-0.5"/>
<text text-anchor="middle" x="503.5" y="-7.9" font-family="Helvetica,sans-Serif" font-size="12.00">cstddef</text>
</a>
</g>
</g>
<!-- Node9&#45;&gt;Node10 -->
<g id="edge10" class="edge">
<title>Node9&#45;&gt;Node10</title>
<path fill="none" stroke="midnightblue" d="M534.88,-58.25C529.6,-50.46 522.05,-39.33 515.68,-29.94"/>
<polygon fill="midnightblue" stroke="midnightblue" points="518.55,-27.95 510.04,-21.64 512.76,-31.88 518.55,-27.95"/>
</g>
<!-- Node11 -->
<g id="node11" class="node">
<title>Node11</title>
<g id="a_node11"><a xlink:title=" ">
<polygon fill="white" stroke="#bfbfbf" points="552,-0.5 552,-21.5 607,-21.5 607,-0.5 552,-0.5"/>
<text text-anchor="middle" x="579.5" y="-7.9" font-family="Helvetica,sans-Serif" font-size="12.00">climits</text>
</a>
</g>
</g>
<!-- Node9&#45;&gt;Node11 -->
<g id="edge11" class="edge">
<title>Node9&#45;&gt;Node11</title>
<path fill="none" stroke="midnightblue" d="M548.12,-58.25C553.4,-50.46 560.95,-39.33 567.32,-29.94"/>
<polygon fill="midnightblue" stroke="midnightblue" points="570.24,-31.88 572.96,-21.64 564.45,-27.95 570.24,-31.88"/>
</g>
</g>
</svg>
