<?xml version="1.0" encoding="UTF-8" standalone="no"?>
<!DOCTYPE svg PUBLIC "-//W3C//DTD SVG 1.1//EN"
 "http://www.w3.org/Graphics/SVG/1.1/DTD/svg11.dtd">
<!-- Generated by graphviz version 5.0.0 (0)
 -->
<!-- Title: src/generate_stake_distribution.cc Pages: 1 -->
<!--zoomable 204 -->
<svg id="main" version="1.1" xmlns="http://www.w3.org/2000/svg" xmlns:xlink="http://www.w3.org/1999/xlink" xml:space="preserve" onload="init(evt)">
<style type="text/css"><![CDATA[
.edge:hover path { stroke: red; }
.edge:hover polygon { stroke: red; fill: red; }
]]></style>
<script type="text/javascript"><![CDATA[
var edges = document.getElementsByTagName('g');
if (edges && edges.length) {
  for (var i=0;i<edges.length;i++) {
    if (edges[i].id.substr(0,4)=='edge') {
      edges[i].setAttribute('class','edge');
    }
  }
}
]]></script>
        <defs>
                <circle id="rim" cx="0" cy="0" r="7"/>
                <circle id="rim2" cx="0" cy="0" r="3.5"/>
                <g id="zoomPlus">
                        <use xlink:href="#rim" fill="#404040">
                                <set attributeName="fill" to="#808080" begin="zoomplus.mouseover" end="zoomplus.mouseout"/>
                        </use>
                        <path d="M-4,0h8M0,-4v8" fill="none" stroke="white" stroke-width="1.5" pointer-events="none"/>
                </g>
                <g id="zoomMin">
                        <use xlink:href="#rim" fill="#404040">
                                <set attributeName="fill" to="#808080" begin="zoomminus.mouseover" end="zoomminus.mouseout"/>
                        </use>
                        <path d="M-4,0h8" fill="none" stroke="white" stroke-width="1.5" pointer-events="none"/>
                </g>
                <g id="dirArrow">
                        <path fill="none" stroke="white" stroke-width="1.5" d="M0,-3.0v7 M-2.5,-0.5L0,-3.0L2.5,-0.5"/>
                </g>
               <g id="resetDef">
                       <use xlink:href="#rim2" fill="#404040">
                               <set attributeName="fill" to="#808080" begin="reset.mouseover" end="reset.mouseout"/>
                       </use>
               </g>
        </defs>

<script type="text/javascript">
var viewWidth = 615;
var viewHeight = 204;
var sectionId = 'dynsection-0';
</script>
<script xlink:href="../../svgpan.js"/>
<svg id="graph" class="graph">
<g id="viewport">
<title>src/generate_stake_distribution.cc</title>
<polygon fill="white" stroke="transparent" points="-4,4 -4,-200 611,-200 611,4 -4,4"/>
<!-- Node1 -->
<g id="node1" class="node">
<title>Node1</title>
<g id="a_node1"><a xlink:title=" ">
<polygon fill="#bfbfbf" stroke="black" points="153,-174.5 153,-195.5 374,-195.5 374,-174.5 153,-174.5"/>
<text text-anchor="middle" x="263.5" y="-181.9" font-family="Helvetica,sans-Serif" font-size="12.00">src/generate_stake_distribution.cc</text>
</a>
</g>
</g>
<!-- Node2 -->
<g id="node2" class="node">
<title>Node2</title>
<g id="a_node2"><a xlink:href="../../d3/d41/generate__stake__distribution_8h.html" target="_top" xlink:title=" ">
<polygon fill="white" stroke="black" points="166.5,-116.5 166.5,-137.5 360.5,-137.5 360.5,-116.5 166.5,-116.5"/>
<text text-anchor="middle" x="263.5" y="-123.9" font-family="Helvetica,sans-Serif" font-size="12.00">generate_stake_distribution.h</text>
</a>
</g>
</g>
<!-- Node1&#45;&gt;Node2 -->
<g id="edge1" class="edge">
<title>Node1&#45;&gt;Node2</title>
<path fill="none" stroke="midnightblue" d="M263.5,-174.25C263.5,-166.94 263.5,-156.69 263.5,-147.7"/>
<polygon fill="midnightblue" stroke="midnightblue" points="267,-147.64 263.5,-137.64 260,-147.64 267,-147.64"/>
</g>
<!-- Node3 -->
<g id="node3" class="node">
<title>Node3</title>
<g id="a_node3"><a xlink:title=" ">
<polygon fill="white" stroke="#bfbfbf" points="0,-58.5 0,-79.5 69,-79.5 69,-58.5 0,-58.5"/>
<text text-anchor="middle" x="34.5" y="-65.9" font-family="Helvetica,sans-Serif" font-size="12.00">iostream</text>
</a>
</g>
</g>
<!-- Node2&#45;&gt;Node3 -->
<g id="edge2" class="edge">
<title>Node2&#45;&gt;Node3</title>
<path fill="none" stroke="midnightblue" d="M224.39,-116.44C184.07,-106.58 121.28,-91.22 79.06,-80.9"/>
<polygon fill="midnightblue" stroke="midnightblue" points="79.86,-77.49 69.32,-78.51 78.2,-84.29 79.86,-77.49"/>
</g>
<!-- Node4 -->
<g id="node4" class="node">
<title>Node4</title>
<g id="a_node4"><a xlink:title=" ">
<polygon fill="white" stroke="#bfbfbf" points="87.5,-58.5 87.5,-79.5 139.5,-79.5 139.5,-58.5 87.5,-58.5"/>
<text text-anchor="middle" x="113.5" y="-65.9" font-family="Helvetica,sans-Serif" font-size="12.00">cstdio</text>
</a>
</g>
</g>
<!-- Node2&#45;&gt;Node4 -->
<g id="edge3" class="edge">
<title>Node2&#45;&gt;Node4</title>
<path fill="none" stroke="midnightblue" d="M237.71,-116.37C213.1,-107.18 175.81,-93.26 148.51,-83.07"/>
<polygon fill="midnightblue" stroke="midnightblue" points="149.54,-79.72 138.95,-79.5 147.09,-86.28 149.54,-79.72"/>
</g>
<!-- Node5 -->
<g id="node5" class="node">
<title>Node5</title>
<g id="a_node5"><a xlink:title=" ">
<polygon fill="white" stroke="#bfbfbf" points="157.5,-58.5 157.5,-79.5 207.5,-79.5 207.5,-58.5 157.5,-58.5"/>
<text text-anchor="middle" x="182.5" y="-65.9" font-family="Helvetica,sans-Serif" font-size="12.00">string</text>
</a>
</g>
</g>
<!-- Node2&#45;&gt;Node5 -->
<g id="edge4" class="edge">
<title>Node2&#45;&gt;Node5</title>
<path fill="none" stroke="midnightblue" d="M249.39,-116.25C237.08,-107.73 219,-95.24 204.75,-85.38"/>
<polygon fill="midnightblue" stroke="midnightblue" points="206.66,-82.45 196.45,-79.64 202.68,-88.21 206.66,-82.45"/>
</g>
<!-- Node6 -->
<g id="node6" class="node">
<title>Node6</title>
<g id="a_node6"><a xlink:title=" ">
<polygon fill="white" stroke="#bfbfbf" points="323,-0.5 323,-21.5 378,-21.5 378,-0.5 323,-0.5"/>
<text text-anchor="middle" x="350.5" y="-7.9" font-family="Helvetica,sans-Serif" font-size="12.00">vector</text>
</a>
</g>
</g>
<!-- Node2&#45;&gt;Node6 -->
<g id="edge5" class="edge">
<title>Node2&#45;&gt;Node6</title>
<path fill="none" stroke="midnightblue" d="M258.57,-116.37C252.17,-102.39 243.08,-76.14 254.5,-58 267.34,-37.61 291.99,-26.06 313.1,-19.63"/>
<polygon fill="midnightblue" stroke="midnightblue" points="314.1,-22.99 322.8,-16.95 312.23,-16.24 314.1,-22.99"/>
</g>
<!-- Node7 -->
<g id="node7" class="node">
<title>Node7</title>
<g id="a_node7"><a xlink:title=" ">
<polygon fill="white" stroke="#bfbfbf" points="264,-58.5 264,-79.5 319,-79.5 319,-58.5 264,-58.5"/>
<text text-anchor="middle" x="291.5" y="-65.9" font-family="Helvetica,sans-Serif" font-size="12.00">cmath</text>
</a>
</g>
</g>
<!-- Node2&#45;&gt;Node7 -->
<g id="edge6" class="edge">
<title>Node2&#45;&gt;Node7</title>
<path fill="none" stroke="midnightblue" d="M268.38,-116.25C272.15,-108.7 277.49,-98.02 282.09,-88.82"/>
<polygon fill="midnightblue" stroke="midnightblue" points="285.34,-90.15 286.68,-79.64 279.08,-87.02 285.34,-90.15"/>
</g>
<!-- Node8 -->
<g id="node8" class="node">
<title>Node8</title>
<g id="a_node8"><a xlink:title=" ">
<polygon fill="white" stroke="#bfbfbf" points="337.5,-58.5 337.5,-79.5 401.5,-79.5 401.5,-58.5 337.5,-58.5"/>
<text text-anchor="middle" x="369.5" y="-65.9" font-family="Helvetica,sans-Serif" font-size="12.00">random</text>
</a>
</g>
</g>
<!-- Node2&#45;&gt;Node8 -->
<g id="edge7" class="edge">
<title>Node2&#45;&gt;Node8</title>
<path fill="none" stroke="midnightblue" d="M281.96,-116.25C298.61,-107.45 323.3,-94.41 342.22,-84.41"/>
<polygon fill="midnightblue" stroke="midnightblue" points="344.04,-87.41 351.25,-79.64 340.77,-81.22 344.04,-87.41"/>
</g>
<!-- Node9 -->
<g id="node9" class="node">
<title>Node9</title>
<g id="a_node9"><a xlink:title=" ">
<polygon fill="white" stroke="#bfbfbf" points="419.5,-58.5 419.5,-79.5 493.5,-79.5 493.5,-58.5 419.5,-58.5"/>
<text text-anchor="middle" x="456.5" y="-65.9" font-family="Helvetica,sans-Serif" font-size="12.00">algorithm</text>
</a>
</g>
</g>
<!-- Node2&#45;&gt;Node9 -->
<g id="edge8" class="edge">
<title>Node2&#45;&gt;Node9</title>
<path fill="none" stroke="midnightblue" d="M296.68,-116.37C329.05,-106.98 378.44,-92.65 413.74,-82.41"/>
<polygon fill="midnightblue" stroke="midnightblue" points="415.13,-85.65 423.76,-79.5 413.18,-78.93 415.13,-85.65"/>
</g>
<!-- Node10 -->
<g id="node10" class="node">
<title>Node10</title>
<g id="a_node10"><a xlink:href="../../d9/d49/types_8h.html" target="_top" xlink:title=" ">
<polygon fill="white" stroke="black" points="511.5,-58.5 511.5,-79.5 571.5,-79.5 571.5,-58.5 511.5,-58.5"/>
<text text-anchor="middle" x="541.5" y="-65.9" font-family="Helvetica,sans-Serif" font-size="12.00">types.h</text>
</a>
</g>
</g>
<!-- Node2&#45;&gt;Node10 -->
<g id="edge9" class="edge">
<title>Node2&#45;&gt;Node10</title>
<path fill="none" stroke="midnightblue" d="M318.28,-116.44C364.57,-108.13 432.85,-95.36 501.22,-80.19"/>
<polygon fill="midnightblue" stroke="midnightblue" points="502.32,-83.53 511.31,-77.93 500.79,-76.7 502.32,-83.53"/>
</g>
<!-- Node10&#45;&gt;Node6 -->
<g id="edge10" class="edge">
<title>Node10&#45;&gt;Node6</title>
<path fill="none" stroke="midnightblue" d="M511.24,-59.13C477.78,-49.32 423.85,-33.51 387.8,-22.94"/>
<polygon fill="midnightblue" stroke="midnightblue" points="388.72,-19.56 378.14,-20.1 386.75,-26.28 388.72,-19.56"/>
</g>
<!-- Node11 -->
<g id="node11" class="node">
<title>Node11</title>
<g id="a_node11"><a xlink:title=" ">
<polygon fill="white" stroke="#bfbfbf" points="473,-0.5 473,-21.5 534,-21.5 534,-0.5 473,-0.5"/>
<text text-anchor="middle" x="503.5" y="-7.9" font-family="Helvetica,sans-Serif" font-size="12.00">cstddef</text>
</a>
</g>
</g>
<!-- Node10&#45;&gt;Node11 -->
<g id="edge11" class="edge">
<title>Node10&#45;&gt;Node11</title>
<path fill="none" stroke="midnightblue" d="M534.88,-58.25C529.6,-50.46 522.05,-39.33 515.68,-29.94"/>
<polygon fill="midnightblue" stroke="midnightblue" points="518.55,-27.95 510.04,-21.64 512.76,-31.88 518.55,-27.95"/>
</g>
<!-- Node12 -->
<g id="node12" class="node">
<title>Node12</title>
<g id="a_node12"><a xlink:title=" ">
<polygon fill="white" stroke="#bfbfbf" points="552,-0.5 552,-21.5 607,-21.5 607,-0.5 552,-0.5"/>
<text text-anchor="middle" x="579.5" y="-7.9" font-family="Helvetica,sans-Serif" font-size="12.00">climits</text>
</a>
</g>
</g>
<!-- Node10&#45;&gt;Node12 -->
<g id="edge12" class="edge">
<title>Node10&#45;&gt;Node12</title>
<path fill="none" stroke="midnightblue" d="M548.12,-58.25C553.4,-50.46 560.95,-39.33 567.32,-29.94"/>
<polygon fill="midnightblue" stroke="midnightblue" points="570.24,-31.88 572.96,-21.64 564.45,-27.95 570.24,-31.88"/>
</g>
</g>
</svg>
        <g id="navigator" transform="translate(0 0)" fill="#404254">
                <rect fill="#f2f5e9" fill-opacity="0.5" stroke="#606060" stroke-width=".5" x="0" y="0" width="60" height="60"/>
                <use id="zoomplus" xlink:href="#zoomPlus" x="17" y="9" onmousedown="handleZoom(evt,'in')"/>
                <use id="zoomminus" xlink:href="#zoomMin" x="42" y="9" onmousedown="handleZoom(evt,'out')"/>
                <use id="reset" xlink:href="#resetDef" x="30" y="36" onmousedown="handleReset()"/>
                <g id="arrowUp" xlink:href="#dirArrow" transform="translate(30 24)" onmousedown="handlePan(0,-1)">
                  <use xlink:href="#rim" fill="#404040">
                        <set attributeName="fill" to="#808080" begin="arrowUp.mouseover" end="arrowUp.mouseout"/>
                  </use>
                  <path fill="none" stroke="white" stroke-width="1.5" d="M0,-3.0v7 M-2.5,-0.5L0,-3.0L2.5,-0.5"/>
                </g>
                <g id="arrowRight" xlink:href="#dirArrow" transform="rotate(90) translate(36 -43)" onmousedown="handlePan(1,0)">
                  <use xlink:href="#rim" fill="#404040">
                        <set attributeName="fill" to="#808080" begin="arrowRight.mouseover" end="arrowRight.mouseout"/>
                  </use>
                  <path fill="none" stroke="white" stroke-width="1.5" d="M0,-3.0v7 M-2.5,-0.5L0,-3.0L2.5,-0.5"/>
                </g>
                <g id="arrowDown" xlink:href="#dirArrow" transform="rotate(180) translate(-30 -48)" onmousedown="handlePan(0,1)">
                  <use xlink:href="#rim" fill="#404040">
                        <set attributeName="fill" to="#808080" begin="arrowDown.mouseover" end="arrowDown.mouseout"/>
                  </use>
                  <path fill="none" stroke="white" stroke-width="1.5" d="M0,-3.0v7 M-2.5,-0.5L0,-3.0L2.5,-0.5"/>
                </g>
                <g id="arrowLeft" xlink:href="#dirArrow" transform="rotate(270) translate(-36 17)" onmousedown="handlePan(-1,0)">
                  <use xlink:href="#rim" fill="#404040">
                        <set attributeName="fill" to="#808080" begin="arrowLeft.mouseover" end="arrowLeft.mouseout"/>
                  </use>
                  <path fill="none" stroke="white" stroke-width="1.5" d="M0,-3.0v7 M-2.5,-0.5L0,-3.0L2.5,-0.5"/>
                </g>
        </g>
        <svg viewBox="0 0 15 15" width="100%" height="30px" preserveAspectRatio="xMaxYMin meet">
         <g id="arrow_out" transform="scale(0.3 0.3)">
          <a xlink:href="generate__stake__distribution_8cc__incl_org.svg" target="_base">
           <rect id="button" ry="5" rx="5" y="6" x="6" height="38" width="38"
                fill="#f2f5e9" fill-opacity="0.5" stroke="#606060" stroke-width="1.0"/>
           <path id="arrow"
             d="M 11.500037,31.436501 C 11.940474,20.09759 22.043105,11.32322 32.158766,21.979434 L 37.068811,17.246167 C 37.068811,17.246167 37.088388,32 37.088388,32 L 22.160133,31.978069 C 22.160133,31.978069 26.997745,27.140456 26.997745,27.140456 C 18.528582,18.264221 13.291696,25.230495 11.500037,31.436501 z"
             style="fill:#404040;"/>
          </a>
         </g>
        </svg>
</svg>
