<?xml version="1.0" encoding="UTF-8" standalone="no"?>
<!DOCTYPE svg PUBLIC "-//W3C//DTD SVG 1.1//EN"
 "http://www.w3.org/Graphics/SVG/1.1/DTD/svg11.dtd">
<!-- Generated by graphviz version 5.0.0 (0)
 -->
<!-- Title: include/generate_stake_distribution.h Pages: 1 -->
<svg width="530pt" height="146pt"
 viewBox="0.00 0.00 529.50 146.00" xmlns="http://www.w3.org/2000/svg" xmlns:xlink="http://www.w3.org/1999/xlink">
<g id="graph0" class="graph" transform="scale(1 1) rotate(0) translate(4 142)">
<title>include/generate_stake_distribution.h</title>
<polygon fill="white" stroke="transparent" points="-4,4 -4,-142 525.5,-142 525.5,4 -4,4"/>
<!-- Node1 -->
<g id="node1" class="node">
<title>Node1</title>
<g id="a_node1"><a xlink:title=" ">
<polygon fill="#bfbfbf" stroke="black" points="83.5,-116.5 83.5,-137.5 323.5,-137.5 323.5,-116.5 83.5,-116.5"/>
<text text-anchor="middle" x="203.5" y="-123.9" font-family="Helvetica,sans-Serif" font-size="12.00">include/generate_stake_distribution.h</text>
</a>
</g>
</g>
<!-- Node2 -->
<g id="node2" class="node">
<title>Node2</title>
<g id="a_node2"><a xlink:href="../../da/d88/generate__stake__distribution_8cc.html" target="_top" xlink:title=" ">
<polygon fill="white" stroke="black" points="0,-58.5 0,-79.5 221,-79.5 221,-58.5 0,-58.5"/>
<text text-anchor="middle" x="110.5" y="-65.9" font-family="Helvetica,sans-Serif" font-size="12.00">src/generate_stake_distribution.cc</text>
</a>
</g>
</g>
<!-- Node1&#45;&gt;Node2 -->
<g id="edge1" class="edge">
<title>Node1&#45;&gt;Node2</title>
<path fill="none" stroke="midnightblue" d="M178.67,-111.05C162.12,-101.08 140.86,-88.28 126.51,-79.64"/>
<polygon fill="midnightblue" stroke="midnightblue" points="176.93,-114.09 187.3,-116.25 180.54,-108.09 176.93,-114.09"/>
</g>
<!-- Node3 -->
<g id="node3" class="node">
<title>Node3</title>
<g id="a_node3"><a xlink:href="../../d0/d8b/main__utils_8h.html" target="_top" xlink:title=" ">
<polygon fill="white" stroke="black" points="239.5,-58.5 239.5,-79.5 355.5,-79.5 355.5,-58.5 239.5,-58.5"/>
<text text-anchor="middle" x="297.5" y="-65.9" font-family="Helvetica,sans-Serif" font-size="12.00">utils/main_utils.h</text>
</a>
</g>
</g>
<!-- Node1&#45;&gt;Node3 -->
<g id="edge2" class="edge">
<title>Node1&#45;&gt;Node3</title>
<path fill="none" stroke="midnightblue" d="M228.6,-111.05C245.33,-101.08 266.82,-88.28 281.31,-79.64"/>
<polygon fill="midnightblue" stroke="midnightblue" points="226.67,-108.12 219.87,-116.25 230.26,-114.13 226.67,-108.12"/>
</g>
<!-- Node4 -->
<g id="node4" class="node">
<title>Node4</title>
<g id="a_node4"><a xlink:href="../../d5/d37/benchmark_8cc.html" target="_top" xlink:title=" ">
<polygon fill="white" stroke="black" points="71.5,-0.5 71.5,-21.5 173.5,-21.5 173.5,-0.5 71.5,-0.5"/>
<text text-anchor="middle" x="122.5" y="-7.9" font-family="Helvetica,sans-Serif" font-size="12.00">benchmark.cc</text>
</a>
</g>
</g>
<!-- Node3&#45;&gt;Node4 -->
<g id="edge3" class="edge">
<title>Node3&#45;&gt;Node4</title>
<path fill="none" stroke="midnightblue" d="M257.89,-55.32C225.79,-45.05 181.28,-30.81 152.19,-21.5"/>
<polygon fill="midnightblue" stroke="midnightblue" points="256.83,-58.66 267.42,-58.37 258.96,-51.99 256.83,-58.66"/>
</g>
<!-- Node5 -->
<g id="node5" class="node">
<title>Node5</title>
<g id="a_node5"><a xlink:href="../../dd/d96/hybrid__main_8cc.html" target="_top" xlink:title=" ">
<polygon fill="white" stroke="black" points="192,-0.5 192,-21.5 299,-21.5 299,-0.5 192,-0.5"/>
<text text-anchor="middle" x="245.5" y="-7.9" font-family="Helvetica,sans-Serif" font-size="12.00">hybrid_main.cc</text>
</a>
</g>
</g>
<!-- Node3&#45;&gt;Node5 -->
<g id="edge4" class="edge">
<title>Node3&#45;&gt;Node5</title>
<path fill="none" stroke="midnightblue" d="M281.52,-50.79C272.62,-41.21 261.88,-29.64 254.45,-21.64"/>
<polygon fill="midnightblue" stroke="midnightblue" points="279.07,-53.3 288.44,-58.25 284.2,-48.54 279.07,-53.3"/>
</g>
<!-- Node6 -->
<g id="node6" class="node">
<title>Node6</title>
<g id="a_node6"><a xlink:href="../../d9/d0f/main_8cc.html" target="_top" xlink:title=" ">
<polygon fill="white" stroke="black" points="317.5,-0.5 317.5,-21.5 381.5,-21.5 381.5,-0.5 317.5,-0.5"/>
<text text-anchor="middle" x="349.5" y="-7.9" font-family="Helvetica,sans-Serif" font-size="12.00">main.cc</text>
</a>
</g>
</g>
<!-- Node3&#45;&gt;Node6 -->
<g id="edge5" class="edge">
<title>Node3&#45;&gt;Node6</title>
<path fill="none" stroke="midnightblue" d="M313.48,-50.79C322.38,-41.21 333.12,-29.64 340.55,-21.64"/>
<polygon fill="midnightblue" stroke="midnightblue" points="310.8,-48.54 306.56,-58.25 315.93,-53.3 310.8,-48.54"/>
</g>
<!-- Node7 -->
<g id="node7" class="node">
<title>Node7</title>
<g id="a_node7"><a xlink:href="../../df/d31/main__utils_8cc.html" target="_top" xlink:title=" ">
<polygon fill="white" stroke="black" points="399.5,-0.5 399.5,-21.5 521.5,-21.5 521.5,-0.5 399.5,-0.5"/>
<text text-anchor="middle" x="460.5" y="-7.9" font-family="Helvetica,sans-Serif" font-size="12.00">utils/main_utils.cc</text>
</a>
</g>
</g>
<!-- Node3&#45;&gt;Node7 -->
<g id="edge6" class="edge">
<title>Node3&#45;&gt;Node7</title>
<path fill="none" stroke="midnightblue" d="M335.17,-55.06C365,-44.81 405.99,-30.73 432.84,-21.5"/>
<polygon fill="midnightblue" stroke="midnightblue" points="333.84,-51.81 325.52,-58.37 336.12,-58.43 333.84,-51.81"/>
</g>
</g>
</svg>
