<?xml version="1.0" encoding="UTF-8" standalone="no"?>
<!DOCTYPE svg PUBLIC "-//W3C//DTD SVG 1.1//EN"
 "http://www.w3.org/Graphics/SVG/1.1/DTD/svg11.dtd">
<!-- Generated by graphviz version 5.0.0 (0)
 -->
<!-- Title: /home/guilhermemtr/Dropbox/workspace/ETH&#45;Zurich/Projects/Weighted&#45;Flooding&#45;Simulator/include/hybrid_protocol_simulator.h Pages: 1 -->
<svg width="1035pt" height="404pt"
 viewBox="0.00 0.00 1034.59 404.00" xmlns="http://www.w3.org/2000/svg" xmlns:xlink="http://www.w3.org/1999/xlink">
<g id="graph0" class="graph" transform="scale(1 1) rotate(0) translate(4 400)">
<title>/home/guilhermemtr/Dropbox/workspace/ETH&#45;Zurich/Projects/Weighted&#45;Flooding&#45;Simulator/include/hybrid_protocol_simulator.h</title>
<polygon fill="white" stroke="transparent" points="-4,4 -4,-400 1030.59,-400 1030.59,4 -4,4"/>
<!-- Node1 -->
<g id="node1" class="node">
<title>Node1</title>
<g id="a_node1"><a xlink:title=" ">
<polygon fill="#bfbfbf" stroke="black" points="228.5,-348.5 228.5,-395.5 521.5,-395.5 521.5,-348.5 228.5,-348.5"/>
<text text-anchor="start" x="236.5" y="-381.9" font-family="Helvetica,sans-Serif" font-size="12.00">/home/guilhermemtr/Dropbox/workspace</text>
<text text-anchor="start" x="236.5" y="-368.9" font-family="Helvetica,sans-Serif" font-size="12.00">/ETH&#45;Zurich/Projects/Weighted&#45;Flooding</text>
<text text-anchor="middle" x="375" y="-355.9" font-family="Helvetica,sans-Serif" font-size="12.00">&#45;Simulator/include/hybrid_protocol_simulator.h</text>
</a>
</g>
</g>
<!-- Node2 -->
<g id="node2" class="node">
<title>Node2</title>
<g id="a_node2"><a xlink:href="../../d5/d9b/send__protocol__simulator_8h.html" target="_top" xlink:title=" ">
<polygon fill="white" stroke="black" points="144,-290.5 144,-311.5 316,-311.5 316,-290.5 144,-290.5"/>
<text text-anchor="middle" x="230" y="-297.9" font-family="Helvetica,sans-Serif" font-size="12.00">send_protocol_simulator.h</text>
</a>
</g>
</g>
<!-- Node1&#45;&gt;Node2 -->
<g id="edge1" class="edge">
<title>Node1&#45;&gt;Node2</title>
<path fill="none" stroke="midnightblue" d="M327.52,-348.41C304.95,-337.67 278.69,-325.17 259.11,-315.85"/>
<polygon fill="midnightblue" stroke="midnightblue" points="260.61,-312.69 250.08,-311.56 257.61,-319.01 260.61,-312.69"/>
</g>
<!-- Node27 -->
<g id="node27" class="node">
<title>Node27</title>
<g id="a_node27"><a xlink:href="../../da/dd8/receiver__protocol__simulator_8h.html" target="_top" xlink:title=" ">
<polygon fill="white" stroke="black" points="425,-290.5 425,-311.5 617,-311.5 617,-290.5 425,-290.5"/>
<text text-anchor="middle" x="521" y="-297.9" font-family="Helvetica,sans-Serif" font-size="12.00">receiver_protocol_simulator.h</text>
</a>
</g>
</g>
<!-- Node1&#45;&gt;Node27 -->
<g id="edge33" class="edge">
<title>Node1&#45;&gt;Node27</title>
<path fill="none" stroke="midnightblue" d="M422.81,-348.41C445.53,-337.67 471.97,-325.17 491.69,-315.85"/>
<polygon fill="midnightblue" stroke="midnightblue" points="493.24,-318.99 500.78,-311.56 490.24,-312.66 493.24,-318.99"/>
</g>
<!-- Node3 -->
<g id="node3" class="node">
<title>Node3</title>
<g id="a_node3"><a xlink:title=" ">
<polygon fill="white" stroke="#bfbfbf" points="87,-174.5 87,-195.5 141,-195.5 141,-174.5 87,-174.5"/>
<text text-anchor="middle" x="114" y="-181.9" font-family="Helvetica,sans-Serif" font-size="12.00">queue</text>
</a>
</g>
</g>
<!-- Node2&#45;&gt;Node3 -->
<g id="edge2" class="edge">
<title>Node2&#45;&gt;Node3</title>
<path fill="none" stroke="midnightblue" d="M163.12,-290.44C141.61,-283.85 119.99,-272.73 107,-254 97.2,-239.88 100.73,-219.97 105.65,-205.34"/>
<polygon fill="midnightblue" stroke="midnightblue" points="109,-206.37 109.3,-195.78 102.46,-203.87 109,-206.37"/>
</g>
<!-- Node4 -->
<g id="node4" class="node">
<title>Node4</title>
<g id="a_node4"><a xlink:title=" ">
<polygon fill="white" stroke="#bfbfbf" points="0,-116.5 0,-137.5 76,-137.5 76,-116.5 0,-116.5"/>
<text text-anchor="middle" x="38" y="-123.9" font-family="Helvetica,sans-Serif" font-size="12.00">functional</text>
</a>
</g>
</g>
<!-- Node2&#45;&gt;Node4 -->
<g id="edge3" class="edge">
<title>Node2&#45;&gt;Node4</title>
<path fill="none" stroke="midnightblue" d="M171.74,-290.44C146.34,-283.8 117.7,-272.63 97,-254 64.97,-225.17 48.93,-175.32 42.15,-147.76"/>
<polygon fill="midnightblue" stroke="midnightblue" points="45.5,-146.71 39.85,-137.75 38.67,-148.28 45.5,-146.71"/>
</g>
<!-- Node5 -->
<g id="node5" class="node">
<title>Node5</title>
<g id="a_node5"><a xlink:href="../../d9/d95/abstract__send__protocol__simulator_8h.html" target="_top" xlink:title=" ">
<polygon fill="white" stroke="black" points="116.5,-232.5 116.5,-253.5 343.5,-253.5 343.5,-232.5 116.5,-232.5"/>
<text text-anchor="middle" x="230" y="-239.9" font-family="Helvetica,sans-Serif" font-size="12.00">abstract_send_protocol_simulator.h</text>
</a>
</g>
</g>
<!-- Node2&#45;&gt;Node5 -->
<g id="edge4" class="edge">
<title>Node2&#45;&gt;Node5</title>
<path fill="none" stroke="midnightblue" d="M230,-290.25C230,-282.94 230,-272.69 230,-263.7"/>
<polygon fill="midnightblue" stroke="midnightblue" points="233.5,-263.64 230,-253.64 226.5,-263.64 233.5,-263.64"/>
</g>
<!-- Node21 -->
<g id="node21" class="node">
<title>Node21</title>
<g id="a_node21"><a xlink:href="../../d6/d74/random__utils_8h.html" target="_top" xlink:title=" ">
<polygon fill="white" stroke="black" points="614.5,-174.5 614.5,-195.5 719.5,-195.5 719.5,-174.5 614.5,-174.5"/>
<text text-anchor="middle" x="667" y="-181.9" font-family="Helvetica,sans-Serif" font-size="12.00">random_utils.h</text>
</a>
</g>
</g>
<!-- Node2&#45;&gt;Node21 -->
<g id="edge32" class="edge">
<title>Node2&#45;&gt;Node21</title>
<path fill="none" stroke="midnightblue" d="M259.11,-290.43C284.15,-281.87 321.03,-268.47 352,-254 370.03,-245.58 372.23,-238.63 391,-232 461.51,-207.11 547,-195.52 603.98,-190.24"/>
<polygon fill="midnightblue" stroke="midnightblue" points="604.62,-193.69 614.27,-189.32 604,-186.72 604.62,-193.69"/>
</g>
<!-- Node5&#45;&gt;Node3 -->
<g id="edge5" class="edge">
<title>Node5&#45;&gt;Node3</title>
<path fill="none" stroke="midnightblue" d="M210.06,-232.37C191.52,-223.42 163.7,-209.99 142.76,-199.88"/>
<polygon fill="midnightblue" stroke="midnightblue" points="144.21,-196.7 133.68,-195.5 141.16,-203 144.21,-196.7"/>
</g>
<!-- Node5&#45;&gt;Node4 -->
<g id="edge6" class="edge">
<title>Node5&#45;&gt;Node4</title>
<path fill="none" stroke="midnightblue" d="M220.44,-232.09C206.19,-217.75 178.02,-191.07 150,-174 127.43,-160.25 100.01,-148.91 77.95,-140.93"/>
<polygon fill="midnightblue" stroke="midnightblue" points="78.82,-137.53 68.23,-137.5 76.5,-144.13 78.82,-137.53"/>
</g>
<!-- Node6 -->
<g id="node6" class="node">
<title>Node6</title>
<g id="a_node6"><a xlink:href="../../d8/de7/corruptions__stake__protocol__simulator_8h.html" target="_top" xlink:title=" ">
<polygon fill="white" stroke="black" points="249,-174.5 249,-195.5 497,-195.5 497,-174.5 249,-174.5"/>
<text text-anchor="middle" x="373" y="-181.9" font-family="Helvetica,sans-Serif" font-size="12.00">corruptions_stake_protocol_simulator.h</text>
</a>
</g>
</g>
<!-- Node5&#45;&gt;Node6 -->
<g id="edge7" class="edge">
<title>Node5&#45;&gt;Node6</title>
<path fill="none" stroke="midnightblue" d="M254.58,-232.37C277.95,-223.22 313.29,-209.38 339.28,-199.21"/>
<polygon fill="midnightblue" stroke="midnightblue" points="340.7,-202.41 348.74,-195.5 338.15,-195.89 340.7,-202.41"/>
</g>
<!-- Node5&#45;&gt;Node21 -->
<g id="edge24" class="edge">
<title>Node5&#45;&gt;Node21</title>
<path fill="none" stroke="midnightblue" d="M304.63,-232.44C388.96,-221.63 524.78,-204.22 604,-194.07"/>
<polygon fill="midnightblue" stroke="midnightblue" points="604.84,-197.49 614.32,-192.75 603.95,-190.55 604.84,-197.49"/>
</g>
<!-- Node6&#45;&gt;Node4 -->
<g id="edge20" class="edge">
<title>Node6&#45;&gt;Node4</title>
<path fill="none" stroke="midnightblue" d="M307.35,-174.49C251.15,-166.13 167.85,-153.21 86.14,-138.14"/>
<polygon fill="midnightblue" stroke="midnightblue" points="86.66,-134.68 76.19,-136.3 85.38,-141.56 86.66,-134.68"/>
</g>
<!-- Node7 -->
<g id="node7" class="node">
<title>Node7</title>
<g id="a_node7"><a xlink:href="../../dc/d8d/protocol__simulator_8h.html" target="_top" xlink:title=" ">
<polygon fill="white" stroke="black" points="147.5,-116.5 147.5,-137.5 284.5,-137.5 284.5,-116.5 147.5,-116.5"/>
<text text-anchor="middle" x="216" y="-123.9" font-family="Helvetica,sans-Serif" font-size="12.00">protocol_simulator.h</text>
</a>
</g>
</g>
<!-- Node6&#45;&gt;Node7 -->
<g id="edge8" class="edge">
<title>Node6&#45;&gt;Node7</title>
<path fill="none" stroke="midnightblue" d="M346.01,-174.37C320.13,-165.14 280.88,-151.14 252.27,-140.94"/>
<polygon fill="midnightblue" stroke="midnightblue" points="253.23,-137.56 242.64,-137.5 250.88,-144.16 253.23,-137.56"/>
</g>
<!-- Node14 -->
<g id="node14" class="node">
<title>Node14</title>
<g id="a_node14"><a xlink:href="../../d0/d70/yal__log_8h.html" target="_top" xlink:title=" ">
<polygon fill="white" stroke="black" points="420.5,-58.5 420.5,-79.5 489.5,-79.5 489.5,-58.5 420.5,-58.5"/>
<text text-anchor="middle" x="455" y="-65.9" font-family="Helvetica,sans-Serif" font-size="12.00">yal_log.h</text>
</a>
</g>
</g>
<!-- Node6&#45;&gt;Node14 -->
<g id="edge23" class="edge">
<title>Node6&#45;&gt;Node14</title>
<path fill="none" stroke="midnightblue" d="M391.88,-174.38C405.72,-166.4 423.96,-153.83 435,-138 445,-123.67 450.06,-104.31 452.58,-89.91"/>
<polygon fill="midnightblue" stroke="midnightblue" points="456.11,-90.02 454.11,-79.62 449.18,-89 456.11,-90.02"/>
</g>
<!-- Node16 -->
<g id="node16" class="node">
<title>Node16</title>
<g id="a_node16"><a xlink:title=" ">
<polygon fill="white" stroke="#bfbfbf" points="575,-116.5 575,-137.5 639,-137.5 639,-116.5 575,-116.5"/>
<text text-anchor="middle" x="607" y="-123.9" font-family="Helvetica,sans-Serif" font-size="12.00">random</text>
</a>
</g>
</g>
<!-- Node6&#45;&gt;Node16 -->
<g id="edge17" class="edge">
<title>Node6&#45;&gt;Node16</title>
<path fill="none" stroke="midnightblue" d="M413.31,-174.46C450.3,-165.69 506.9,-152.23 565.05,-138.22"/>
<polygon fill="midnightblue" stroke="midnightblue" points="565.87,-141.62 574.77,-135.88 564.23,-134.82 565.87,-141.62"/>
</g>
<!-- Node17 -->
<g id="node17" class="node">
<title>Node17</title>
<g id="a_node17"><a xlink:title=" ">
<polygon fill="white" stroke="#bfbfbf" points="483,-116.5 483,-137.5 557,-137.5 557,-116.5 483,-116.5"/>
<text text-anchor="middle" x="520" y="-123.9" font-family="Helvetica,sans-Serif" font-size="12.00">algorithm</text>
</a>
</g>
</g>
<!-- Node6&#45;&gt;Node17 -->
<g id="edge18" class="edge">
<title>Node6&#45;&gt;Node17</title>
<path fill="none" stroke="midnightblue" d="M398.27,-174.37C422.4,-165.18 458.94,-151.26 485.69,-141.07"/>
<polygon fill="midnightblue" stroke="midnightblue" points="486.96,-144.33 495.06,-137.5 484.47,-137.79 486.96,-144.33"/>
</g>
<!-- Node18 -->
<g id="node18" class="node">
<title>Node18</title>
<g id="a_node18"><a xlink:title=" ">
<polygon fill="white" stroke="#bfbfbf" points="94.5,-116.5 94.5,-137.5 129.5,-137.5 129.5,-116.5 94.5,-116.5"/>
<text text-anchor="middle" x="112" y="-123.9" font-family="Helvetica,sans-Serif" font-size="12.00">set</text>
</a>
</g>
</g>
<!-- Node6&#45;&gt;Node18 -->
<g id="edge19" class="edge">
<title>Node6&#45;&gt;Node18</title>
<path fill="none" stroke="midnightblue" d="M308.45,-174.47C263.25,-167.09 201.4,-155.57 139.67,-138.15"/>
<polygon fill="midnightblue" stroke="midnightblue" points="140.34,-134.7 129.76,-135.3 138.41,-141.43 140.34,-134.7"/>
</g>
<!-- Node19 -->
<g id="node19" class="node">
<title>Node19</title>
<g id="a_node19"><a xlink:title=" ">
<polygon fill="white" stroke="#bfbfbf" points="303,-116.5 303,-137.5 353,-137.5 353,-116.5 303,-116.5"/>
<text text-anchor="middle" x="328" y="-123.9" font-family="Helvetica,sans-Serif" font-size="12.00">ctime</text>
</a>
</g>
</g>
<!-- Node6&#45;&gt;Node19 -->
<g id="edge21" class="edge">
<title>Node6&#45;&gt;Node19</title>
<path fill="none" stroke="midnightblue" d="M365.16,-174.25C358.84,-166.38 349.78,-155.1 342.19,-145.65"/>
<polygon fill="midnightblue" stroke="midnightblue" points="344.74,-143.25 335.75,-137.64 339.28,-147.63 344.74,-143.25"/>
</g>
<!-- Node20 -->
<g id="node20" class="node">
<title>Node20</title>
<g id="a_node20"><a xlink:title=" ">
<polygon fill="white" stroke="#bfbfbf" points="371.5,-116.5 371.5,-137.5 426.5,-137.5 426.5,-116.5 371.5,-116.5"/>
<text text-anchor="middle" x="399" y="-123.9" font-family="Helvetica,sans-Serif" font-size="12.00">cstdlib</text>
</a>
</g>
</g>
<!-- Node6&#45;&gt;Node20 -->
<g id="edge22" class="edge">
<title>Node6&#45;&gt;Node20</title>
<path fill="none" stroke="midnightblue" d="M377.53,-174.25C381.03,-166.7 385.99,-156.02 390.26,-146.82"/>
<polygon fill="midnightblue" stroke="midnightblue" points="393.49,-148.19 394.52,-137.64 387.14,-145.24 393.49,-148.19"/>
</g>
<!-- Node8 -->
<g id="node8" class="node">
<title>Node8</title>
<g id="a_node8"><a xlink:title=" ">
<polygon fill="white" stroke="#bfbfbf" points="286.5,-58.5 286.5,-79.5 335.5,-79.5 335.5,-58.5 286.5,-58.5"/>
<text text-anchor="middle" x="311" y="-65.9" font-family="Helvetica,sans-Serif" font-size="12.00">utility</text>
</a>
</g>
</g>
<!-- Node7&#45;&gt;Node8 -->
<g id="edge9" class="edge">
<title>Node7&#45;&gt;Node8</title>
<path fill="none" stroke="midnightblue" d="M232.55,-116.25C247.26,-107.57 268.99,-94.76 285.85,-84.82"/>
<polygon fill="midnightblue" stroke="midnightblue" points="287.8,-87.74 294.64,-79.64 284.25,-81.71 287.8,-87.74"/>
</g>
<!-- Node9 -->
<g id="node9" class="node">
<title>Node9</title>
<g id="a_node9"><a xlink:title=" ">
<polygon fill="white" stroke="#bfbfbf" points="142.5,-58.5 142.5,-79.5 189.5,-79.5 189.5,-58.5 142.5,-58.5"/>
<text text-anchor="middle" x="166" y="-65.9" font-family="Helvetica,sans-Serif" font-size="12.00">tuple</text>
</a>
</g>
</g>
<!-- Node7&#45;&gt;Node9 -->
<g id="edge10" class="edge">
<title>Node7&#45;&gt;Node9</title>
<path fill="none" stroke="midnightblue" d="M207.29,-116.25C200.19,-108.3 189.99,-96.87 181.5,-87.37"/>
<polygon fill="midnightblue" stroke="midnightblue" points="183.88,-84.77 174.61,-79.64 178.66,-89.43 183.88,-84.77"/>
</g>
<!-- Node10 -->
<g id="node10" class="node">
<title>Node10</title>
<g id="a_node10"><a xlink:href="../../d9/d49/types_8h.html" target="_top" xlink:title=" ">
<polygon fill="white" stroke="black" points="208,-58.5 208,-79.5 268,-79.5 268,-58.5 208,-58.5"/>
<text text-anchor="middle" x="238" y="-65.9" font-family="Helvetica,sans-Serif" font-size="12.00">types.h</text>
</a>
</g>
</g>
<!-- Node7&#45;&gt;Node10 -->
<g id="edge11" class="edge">
<title>Node7&#45;&gt;Node10</title>
<path fill="none" stroke="midnightblue" d="M219.83,-116.25C222.77,-108.78 226.9,-98.24 230.49,-89.11"/>
<polygon fill="midnightblue" stroke="midnightblue" points="233.81,-90.23 234.21,-79.64 227.3,-87.67 233.81,-90.23"/>
</g>
<!-- Node7&#45;&gt;Node14 -->
<g id="edge15" class="edge">
<title>Node7&#45;&gt;Node14</title>
<path fill="none" stroke="midnightblue" d="M256.81,-116.44C299.49,-106.44 366.26,-90.79 410.32,-80.47"/>
<polygon fill="midnightblue" stroke="midnightblue" points="411.24,-83.85 420.18,-78.16 409.65,-77.03 411.24,-83.85"/>
</g>
<!-- Node11 -->
<g id="node11" class="node">
<title>Node11</title>
<g id="a_node11"><a xlink:title=" ">
<polygon fill="white" stroke="#bfbfbf" points="309.5,-0.5 309.5,-21.5 364.5,-21.5 364.5,-0.5 309.5,-0.5"/>
<text text-anchor="middle" x="337" y="-7.9" font-family="Helvetica,sans-Serif" font-size="12.00">vector</text>
</a>
</g>
</g>
<!-- Node10&#45;&gt;Node11 -->
<g id="edge12" class="edge">
<title>Node10&#45;&gt;Node11</title>
<path fill="none" stroke="midnightblue" d="M255.24,-58.25C270.58,-49.57 293.22,-36.76 310.79,-26.82"/>
<polygon fill="midnightblue" stroke="midnightblue" points="312.97,-29.61 319.95,-21.64 309.53,-23.52 312.97,-29.61"/>
</g>
<!-- Node12 -->
<g id="node12" class="node">
<title>Node12</title>
<g id="a_node12"><a xlink:title=" ">
<polygon fill="white" stroke="#bfbfbf" points="218.5,-0.5 218.5,-21.5 279.5,-21.5 279.5,-0.5 218.5,-0.5"/>
<text text-anchor="middle" x="249" y="-7.9" font-family="Helvetica,sans-Serif" font-size="12.00">cstddef</text>
</a>
</g>
</g>
<!-- Node10&#45;&gt;Node12 -->
<g id="edge13" class="edge">
<title>Node10&#45;&gt;Node12</title>
<path fill="none" stroke="midnightblue" d="M239.92,-58.25C241.35,-50.94 243.36,-40.69 245.13,-31.7"/>
<polygon fill="midnightblue" stroke="midnightblue" points="248.61,-32.13 247.11,-21.64 241.74,-30.78 248.61,-32.13"/>
</g>
<!-- Node13 -->
<g id="node13" class="node">
<title>Node13</title>
<g id="a_node13"><a xlink:title=" ">
<polygon fill="white" stroke="#bfbfbf" points="145.5,-0.5 145.5,-21.5 200.5,-21.5 200.5,-0.5 145.5,-0.5"/>
<text text-anchor="middle" x="173" y="-7.9" font-family="Helvetica,sans-Serif" font-size="12.00">climits</text>
</a>
</g>
</g>
<!-- Node10&#45;&gt;Node13 -->
<g id="edge14" class="edge">
<title>Node10&#45;&gt;Node13</title>
<path fill="none" stroke="midnightblue" d="M226.68,-58.25C217.08,-49.97 203.11,-37.94 191.83,-28.22"/>
<polygon fill="midnightblue" stroke="midnightblue" points="194.05,-25.52 184.19,-21.64 189.48,-30.82 194.05,-25.52"/>
</g>
<!-- Node15 -->
<g id="node15" class="node">
<title>Node15</title>
<g id="a_node15"><a xlink:title=" ">
<polygon fill="white" stroke="#bfbfbf" points="427,-0.5 427,-21.5 483,-21.5 483,-0.5 427,-0.5"/>
<text text-anchor="middle" x="455" y="-7.9" font-family="Helvetica,sans-Serif" font-size="12.00">stdio.h</text>
</a>
</g>
</g>
<!-- Node14&#45;&gt;Node15 -->
<g id="edge16" class="edge">
<title>Node14&#45;&gt;Node15</title>
<path fill="none" stroke="midnightblue" d="M455,-58.25C455,-50.94 455,-40.69 455,-31.7"/>
<polygon fill="midnightblue" stroke="midnightblue" points="458.5,-31.64 455,-21.64 451.5,-31.64 458.5,-31.64"/>
</g>
<!-- Node21&#45;&gt;Node14 -->
<g id="edge28" class="edge">
<title>Node21&#45;&gt;Node14</title>
<path fill="none" stroke="midnightblue" d="M667.18,-174.12C666.9,-159.31 664.08,-131.47 648,-116 627.04,-95.83 549.76,-82.26 499.57,-75.35"/>
<polygon fill="midnightblue" stroke="midnightblue" points="499.99,-71.88 489.61,-74.02 499.06,-78.81 499.99,-71.88"/>
</g>
<!-- Node21&#45;&gt;Node16 -->
<g id="edge25" class="edge">
<title>Node21&#45;&gt;Node16</title>
<path fill="none" stroke="midnightblue" d="M656.55,-174.25C647.77,-166.05 635.04,-154.17 624.69,-144.51"/>
<polygon fill="midnightblue" stroke="midnightblue" points="627.03,-141.91 617.33,-137.64 622.25,-147.02 627.03,-141.91"/>
</g>
<!-- Node22 -->
<g id="node22" class="node">
<title>Node22</title>
<g id="a_node22"><a xlink:title=" ">
<polygon fill="white" stroke="#bfbfbf" points="695,-116.5 695,-137.5 797,-137.5 797,-116.5 695,-116.5"/>
<text text-anchor="middle" x="746" y="-123.9" font-family="Helvetica,sans-Serif" font-size="12.00">unordered_set</text>
</a>
</g>
</g>
<!-- Node21&#45;&gt;Node22 -->
<g id="edge26" class="edge">
<title>Node21&#45;&gt;Node22</title>
<path fill="none" stroke="midnightblue" d="M680.76,-174.25C692.66,-165.81 710.07,-153.47 723.91,-143.66"/>
<polygon fill="midnightblue" stroke="midnightblue" points="726.26,-146.28 732.4,-137.64 722.21,-140.57 726.26,-146.28"/>
</g>
<!-- Node23 -->
<g id="node23" class="node">
<title>Node23</title>
<g id="a_node23"><a xlink:title=" ">
<polygon fill="white" stroke="#bfbfbf" points="815,-116.5 815,-137.5 877,-137.5 877,-116.5 815,-116.5"/>
<text text-anchor="middle" x="846" y="-123.9" font-family="Helvetica,sans-Serif" font-size="12.00">string.h</text>
</a>
</g>
</g>
<!-- Node21&#45;&gt;Node23 -->
<g id="edge27" class="edge">
<title>Node21&#45;&gt;Node23</title>
<path fill="none" stroke="midnightblue" d="M697.77,-174.37C727.67,-165.02 773.21,-150.77 805.92,-140.54"/>
<polygon fill="midnightblue" stroke="midnightblue" points="807.13,-143.83 815.63,-137.5 805.04,-137.15 807.13,-143.83"/>
</g>
<!-- Node24 -->
<g id="node24" class="node">
<title>Node24</title>
<g id="a_node24"><a xlink:href="../../da/d10/scoped__lock_8h.html" target="_top" xlink:title=" ">
<polygon fill="white" stroke="black" points="895.5,-116.5 895.5,-137.5 996.5,-137.5 996.5,-116.5 895.5,-116.5"/>
<text text-anchor="middle" x="946" y="-123.9" font-family="Helvetica,sans-Serif" font-size="12.00">scoped_lock.h</text>
</a>
</g>
</g>
<!-- Node21&#45;&gt;Node24 -->
<g id="edge29" class="edge">
<title>Node21&#45;&gt;Node24</title>
<path fill="none" stroke="midnightblue" d="M714.64,-174.44C762.79,-164.77 837.23,-149.83 888.6,-139.52"/>
<polygon fill="midnightblue" stroke="midnightblue" points="889.44,-142.92 898.55,-137.52 888.06,-136.06 889.44,-142.92"/>
</g>
<!-- Node25 -->
<g id="node25" class="node">
<title>Node25</title>
<g id="a_node25"><a xlink:title=" ">
<polygon fill="white" stroke="#bfbfbf" points="916,-58.5 916,-79.5 990,-79.5 990,-58.5 916,-58.5"/>
<text text-anchor="middle" x="953" y="-65.9" font-family="Helvetica,sans-Serif" font-size="12.00">pthread.h</text>
</a>
</g>
</g>
<!-- Node24&#45;&gt;Node25 -->
<g id="edge30" class="edge">
<title>Node24&#45;&gt;Node25</title>
<path fill="none" stroke="midnightblue" d="M947.22,-116.25C948.13,-108.94 949.41,-98.69 950.54,-89.7"/>
<polygon fill="midnightblue" stroke="midnightblue" points="954.03,-90 951.79,-79.64 947.08,-89.13 954.03,-90"/>
</g>
<!-- Node26 -->
<g id="node26" class="node">
<title>Node26</title>
<g id="a_node26"><a xlink:title=" ">
<polygon fill="white" stroke="#bfbfbf" points="832.5,-58.5 832.5,-79.5 897.5,-79.5 897.5,-58.5 832.5,-58.5"/>
<text text-anchor="middle" x="865" y="-65.9" font-family="Helvetica,sans-Serif" font-size="12.00">assert.h</text>
</a>
</g>
</g>
<!-- Node24&#45;&gt;Node26 -->
<g id="edge31" class="edge">
<title>Node24&#45;&gt;Node26</title>
<path fill="none" stroke="midnightblue" d="M931.89,-116.25C919.58,-107.73 901.5,-95.24 887.25,-85.38"/>
<polygon fill="midnightblue" stroke="midnightblue" points="889.16,-82.45 878.95,-79.64 885.18,-88.21 889.16,-82.45"/>
</g>
<!-- Node27&#45;&gt;Node21 -->
<g id="edge39" class="edge">
<title>Node27&#45;&gt;Node21</title>
<path fill="none" stroke="midnightblue" d="M585.48,-290.5C609.1,-283.92 634.14,-272.81 651,-254 662.74,-240.9 666.31,-220.82 667.21,-205.87"/>
<polygon fill="midnightblue" stroke="midnightblue" points="670.71,-205.72 667.46,-195.64 663.71,-205.55 670.71,-205.72"/>
</g>
<!-- Node28 -->
<g id="node28" class="node">
<title>Node28</title>
<g id="a_node28"><a xlink:href="../../df/d52/abstract__receive__protocol__simulator_8h.html" target="_top" xlink:title=" ">
<polygon fill="white" stroke="black" points="400,-232.5 400,-253.5 642,-253.5 642,-232.5 400,-232.5"/>
<text text-anchor="middle" x="521" y="-239.9" font-family="Helvetica,sans-Serif" font-size="12.00">abstract_receive_protocol_simulator.h</text>
</a>
</g>
</g>
<!-- Node27&#45;&gt;Node28 -->
<g id="edge34" class="edge">
<title>Node27&#45;&gt;Node28</title>
<path fill="none" stroke="midnightblue" d="M521,-290.25C521,-282.94 521,-272.69 521,-263.7"/>
<polygon fill="midnightblue" stroke="midnightblue" points="524.5,-263.64 521,-253.64 517.5,-263.64 524.5,-263.64"/>
</g>
<!-- Node28&#45;&gt;Node4 -->
<g id="edge36" class="edge">
<title>Node28&#45;&gt;Node4</title>
<path fill="none" stroke="midnightblue" d="M437.14,-232.49C380.82,-225.08 305.26,-213.14 240,-196 212.53,-188.78 206.85,-183.27 180,-174 145.82,-162.2 106.71,-149.6 78.2,-140.57"/>
<polygon fill="midnightblue" stroke="midnightblue" points="79.17,-137.21 68.58,-137.54 77.06,-143.88 79.17,-137.21"/>
</g>
<!-- Node28&#45;&gt;Node6 -->
<g id="edge37" class="edge">
<title>Node28&#45;&gt;Node6</title>
<path fill="none" stroke="midnightblue" d="M495.56,-232.37C471.27,-223.18 434.48,-209.26 407.55,-199.07"/>
<polygon fill="midnightblue" stroke="midnightblue" points="408.7,-195.77 398.11,-195.5 406.22,-202.31 408.7,-195.77"/>
</g>
<!-- Node28&#45;&gt;Node11 -->
<g id="edge35" class="edge">
<title>Node28&#45;&gt;Node11</title>
<path fill="none" stroke="midnightblue" d="M642.13,-233.1C819.82,-216.09 1117.85,-170.13 999,-58 951.95,-13.62 482.4,-27.97 418,-22 403.83,-20.69 388.32,-18.87 374.69,-17.14"/>
<polygon fill="midnightblue" stroke="midnightblue" points="375.06,-13.66 364.7,-15.84 374.16,-20.6 375.06,-13.66"/>
</g>
<!-- Node28&#45;&gt;Node21 -->
<g id="edge38" class="edge">
<title>Node28&#45;&gt;Node21</title>
<path fill="none" stroke="midnightblue" d="M546.1,-232.37C569.96,-223.22 606.03,-209.38 632.57,-199.21"/>
<polygon fill="midnightblue" stroke="midnightblue" points="634.15,-202.35 642.23,-195.5 631.64,-195.81 634.15,-202.35"/>
</g>
</g>
</svg>
