<?xml version="1.0" encoding="UTF-8" standalone="no"?>
<!DOCTYPE svg PUBLIC "-//W3C//DTD SVG 1.1//EN"
 "http://www.w3.org/Graphics/SVG/1.1/DTD/svg11.dtd">
<!-- Generated by graphviz version 5.0.0 (0)
 -->
<!-- Title: include/types.h Pages: 1 -->
<!--zoomable 462 -->
<svg id="main" version="1.1" xmlns="http://www.w3.org/2000/svg" xmlns:xlink="http://www.w3.org/1999/xlink" xml:space="preserve" onload="init(evt)">
<style type="text/css"><![CDATA[
.edge:hover path { stroke: red; }
.edge:hover polygon { stroke: red; fill: red; }
]]></style>
<script type="text/javascript"><![CDATA[
var edges = document.getElementsByTagName('g');
if (edges && edges.length) {
  for (var i=0;i<edges.length;i++) {
    if (edges[i].id.substr(0,4)=='edge') {
      edges[i].setAttribute('class','edge');
    }
  }
}
]]></script>
        <defs>
                <circle id="rim" cx="0" cy="0" r="7"/>
                <circle id="rim2" cx="0" cy="0" r="3.5"/>
                <g id="zoomPlus">
                        <use xlink:href="#rim" fill="#404040">
                                <set attributeName="fill" to="#808080" begin="zoomplus.mouseover" end="zoomplus.mouseout"/>
                        </use>
                        <path d="M-4,0h8M0,-4v8" fill="none" stroke="white" stroke-width="1.5" pointer-events="none"/>
                </g>
                <g id="zoomMin">
                        <use xlink:href="#rim" fill="#404040">
                                <set attributeName="fill" to="#808080" begin="zoomminus.mouseover" end="zoomminus.mouseout"/>
                        </use>
                        <path d="M-4,0h8" fill="none" stroke="white" stroke-width="1.5" pointer-events="none"/>
                </g>
                <g id="dirArrow">
                        <path fill="none" stroke="white" stroke-width="1.5" d="M0,-3.0v7 M-2.5,-0.5L0,-3.0L2.5,-0.5"/>
                </g>
               <g id="resetDef">
                       <use xlink:href="#rim2" fill="#404040">
                               <set attributeName="fill" to="#808080" begin="reset.mouseover" end="reset.mouseout"/>
                       </use>
               </g>
        </defs>

<script type="text/javascript">
var viewWidth = 1696;
var viewHeight = 462;
var sectionId = 'dynsection-1';
</script>
<script xlink:href="../../svgpan.js"/>
<svg id="graph" class="graph">
<g id="viewport">
<title>include/types.h</title>
<polygon fill="white" stroke="transparent" points="-4,4 -4,-458 1691.5,-458 1691.5,4 -4,4"/>
<!-- Node1 -->
<g id="node1" class="node">
<title>Node1</title>
<g id="a_node1"><a xlink:title=" ">
<polygon fill="#bfbfbf" stroke="black" points="343.5,-432.5 343.5,-453.5 450.5,-453.5 450.5,-432.5 343.5,-432.5"/>
<text text-anchor="middle" x="397" y="-439.9" font-family="Helvetica,sans-Serif" font-size="12.00">include/types.h</text>
</a>
</g>
</g>
<!-- Node2 -->
<g id="node2" class="node">
<title>Node2</title>
<g id="a_node2"><a xlink:href="../../d3/d41/generate__stake__distribution_8h.html" target="_top" xlink:title=" ">
<polygon fill="white" stroke="black" points="277,-374.5 277,-395.5 517,-395.5 517,-374.5 277,-374.5"/>
<text text-anchor="middle" x="397" y="-381.9" font-family="Helvetica,sans-Serif" font-size="12.00">include/generate_stake_distribution.h</text>
</a>
</g>
</g>
<!-- Node1&#45;&gt;Node2 -->
<g id="edge1" class="edge">
<title>Node1&#45;&gt;Node2</title>
<path fill="none" stroke="midnightblue" d="M397,-422.16C397,-413.16 397,-402.92 397,-395.64"/>
<polygon fill="midnightblue" stroke="midnightblue" points="393.5,-422.25 397,-432.25 400.5,-422.25 393.5,-422.25"/>
</g>
<!-- Node4 -->
<g id="node4" class="node">
<title>Node4</title>
<g id="a_node4"><a xlink:href="../../d0/d8b/main__utils_8h.html" target="_top" xlink:title=" ">
<polygon fill="white" stroke="black" points="337,-58.5 337,-79.5 453,-79.5 453,-58.5 337,-58.5"/>
<text text-anchor="middle" x="395" y="-65.9" font-family="Helvetica,sans-Serif" font-size="12.00">utils/main_utils.h</text>
</a>
</g>
</g>
<!-- Node1&#45;&gt;Node4 -->
<g id="edge36" class="edge">
<title>Node1&#45;&gt;Node4</title>
<path fill="none" stroke="midnightblue" d="M333.26,-438.89C248.88,-433.83 105.45,-421.68 60,-396 22.98,-375.09 0,-364.01 0,-321.5 0,-321.5 0,-321.5 0,-184 0,-137.67 36.84,-135.21 79,-116 123.77,-95.59 258.37,-81.37 336.71,-74.57"/>
<polygon fill="midnightblue" stroke="midnightblue" points="333.06,-442.38 343.25,-439.47 333.47,-435.4 333.06,-442.38"/>
</g>
<!-- Node9 -->
<g id="node9" class="node">
<title>Node9</title>
<g id="a_node9"><a xlink:href="../../dc/d8d/protocol__simulator_8h.html" target="_top" xlink:title=" ">
<polygon fill="white" stroke="black" points="819,-374.5 819,-395.5 1003,-395.5 1003,-374.5 819,-374.5"/>
<text text-anchor="middle" x="911" y="-381.9" font-family="Helvetica,sans-Serif" font-size="12.00">include/protocol_simulator.h</text>
</a>
</g>
</g>
<!-- Node1&#45;&gt;Node9 -->
<g id="edge8" class="edge">
<title>Node1&#45;&gt;Node9</title>
<path fill="none" stroke="midnightblue" d="M460.76,-435.05C552.08,-425.1 720.42,-406.76 823.38,-395.55"/>
<polygon fill="midnightblue" stroke="midnightblue" points="460.11,-431.6 450.55,-436.17 460.87,-438.56 460.11,-431.6"/>
</g>
<!-- Node27 -->
<g id="node27" class="node">
<title>Node27</title>
<g id="a_node27"><a xlink:href="../../da/d3f/io__stake__distribution_8h.html" target="_top" xlink:title=" ">
<polygon fill="white" stroke="black" points="69.5,-374.5 69.5,-395.5 246.5,-395.5 246.5,-374.5 69.5,-374.5"/>
<text text-anchor="middle" x="158" y="-381.9" font-family="Helvetica,sans-Serif" font-size="12.00">utils/io_stake_distribution.h</text>
</a>
</g>
</g>
<!-- Node1&#45;&gt;Node27 -->
<g id="edge33" class="edge">
<title>Node1&#45;&gt;Node27</title>
<path fill="none" stroke="midnightblue" d="M346.27,-430.11C302.26,-419.8 239.4,-405.07 198.65,-395.52"/>
<polygon fill="midnightblue" stroke="midnightblue" points="345.65,-433.56 356.19,-432.44 347.25,-426.75 345.65,-433.56"/>
</g>
<!-- Node29 -->
<g id="node29" class="node">
<title>Node29</title>
<g id="a_node29"><a xlink:href="../../d1/dde/read__args_8h.html" target="_top" xlink:title=" ">
<polygon fill="white" stroke="black" points="549,-374.5 549,-395.5 663,-395.5 663,-374.5 549,-374.5"/>
<text text-anchor="middle" x="606" y="-381.9" font-family="Helvetica,sans-Serif" font-size="12.00">utils/read_args.h</text>
</a>
</g>
</g>
<!-- Node1&#45;&gt;Node29 -->
<g id="edge37" class="edge">
<title>Node1&#45;&gt;Node29</title>
<path fill="none" stroke="midnightblue" d="M442.83,-429.72C481.26,-419.42 535.35,-404.93 570.54,-395.5"/>
<polygon fill="midnightblue" stroke="midnightblue" points="441.68,-426.4 432.93,-432.37 443.49,-433.17 441.68,-426.4"/>
</g>
<!-- Node3 -->
<g id="node3" class="node">
<title>Node3</title>
<g id="a_node3"><a xlink:href="../../da/d88/generate__stake__distribution_8cc.html" target="_top" xlink:title=" ">
<polygon fill="white" stroke="black" points="306.5,-310 306.5,-331 527.5,-331 527.5,-310 306.5,-310"/>
<text text-anchor="middle" x="417" y="-317.4" font-family="Helvetica,sans-Serif" font-size="12.00">src/generate_stake_distribution.cc</text>
</a>
</g>
</g>
<!-- Node2&#45;&gt;Node3 -->
<g id="edge2" class="edge">
<title>Node2&#45;&gt;Node3</title>
<path fill="none" stroke="midnightblue" d="M403.21,-364.61C406.73,-353.6 410.99,-340.3 413.83,-331.4"/>
<polygon fill="midnightblue" stroke="midnightblue" points="399.84,-363.64 400.12,-374.23 406.51,-365.78 399.84,-363.64"/>
</g>
<!-- Node2&#45;&gt;Node4 -->
<g id="edge3" class="edge">
<title>Node2&#45;&gt;Node4</title>
<path fill="none" stroke="midnightblue" d="M346.15,-370.95C328.2,-363.95 309.42,-353.46 297,-338 272.08,-306.97 278,-290.3 278,-250.5 278,-250.5 278,-250.5 278,-184 278,-131.82 338.44,-95.75 372.44,-79.6"/>
<polygon fill="midnightblue" stroke="midnightblue" points="345.4,-374.4 355.99,-374.49 347.77,-367.81 345.4,-374.4"/>
</g>
<!-- Node5 -->
<g id="node5" class="node">
<title>Node5</title>
<g id="a_node5"><a xlink:href="../../d5/d37/benchmark_8cc.html" target="_top" xlink:title=" ">
<polygon fill="white" stroke="black" points="169,-0.5 169,-21.5 271,-21.5 271,-0.5 169,-0.5"/>
<text text-anchor="middle" x="220" y="-7.9" font-family="Helvetica,sans-Serif" font-size="12.00">benchmark.cc</text>
</a>
</g>
</g>
<!-- Node4&#45;&gt;Node5 -->
<g id="edge4" class="edge">
<title>Node4&#45;&gt;Node5</title>
<path fill="none" stroke="midnightblue" d="M355.39,-55.32C323.29,-45.05 278.78,-30.81 249.69,-21.5"/>
<polygon fill="midnightblue" stroke="midnightblue" points="354.33,-58.66 364.92,-58.37 356.46,-51.99 354.33,-58.66"/>
</g>
<!-- Node6 -->
<g id="node6" class="node">
<title>Node6</title>
<g id="a_node6"><a xlink:href="../../dd/d96/hybrid__main_8cc.html" target="_top" xlink:title=" ">
<polygon fill="white" stroke="black" points="289.5,-0.5 289.5,-21.5 396.5,-21.5 396.5,-0.5 289.5,-0.5"/>
<text text-anchor="middle" x="343" y="-7.9" font-family="Helvetica,sans-Serif" font-size="12.00">hybrid_main.cc</text>
</a>
</g>
</g>
<!-- Node4&#45;&gt;Node6 -->
<g id="edge5" class="edge">
<title>Node4&#45;&gt;Node6</title>
<path fill="none" stroke="midnightblue" d="M379.02,-50.79C370.12,-41.21 359.38,-29.64 351.95,-21.64"/>
<polygon fill="midnightblue" stroke="midnightblue" points="376.57,-53.3 385.94,-58.25 381.7,-48.54 376.57,-53.3"/>
</g>
<!-- Node7 -->
<g id="node7" class="node">
<title>Node7</title>
<g id="a_node7"><a xlink:href="../../d9/d0f/main_8cc.html" target="_top" xlink:title=" ">
<polygon fill="white" stroke="black" points="415,-0.5 415,-21.5 479,-21.5 479,-0.5 415,-0.5"/>
<text text-anchor="middle" x="447" y="-7.9" font-family="Helvetica,sans-Serif" font-size="12.00">main.cc</text>
</a>
</g>
</g>
<!-- Node4&#45;&gt;Node7 -->
<g id="edge6" class="edge">
<title>Node4&#45;&gt;Node7</title>
<path fill="none" stroke="midnightblue" d="M410.98,-50.79C419.88,-41.21 430.62,-29.64 438.05,-21.64"/>
<polygon fill="midnightblue" stroke="midnightblue" points="408.3,-48.54 404.06,-58.25 413.43,-53.3 408.3,-48.54"/>
</g>
<!-- Node8 -->
<g id="node8" class="node">
<title>Node8</title>
<g id="a_node8"><a xlink:href="../../df/d31/main__utils_8cc.html" target="_top" xlink:title=" ">
<polygon fill="white" stroke="black" points="497,-0.5 497,-21.5 619,-21.5 619,-0.5 497,-0.5"/>
<text text-anchor="middle" x="558" y="-7.9" font-family="Helvetica,sans-Serif" font-size="12.00">utils/main_utils.cc</text>
</a>
</g>
</g>
<!-- Node4&#45;&gt;Node8 -->
<g id="edge7" class="edge">
<title>Node4&#45;&gt;Node8</title>
<path fill="none" stroke="midnightblue" d="M432.67,-55.06C462.5,-44.81 503.49,-30.73 530.34,-21.5"/>
<polygon fill="midnightblue" stroke="midnightblue" points="431.34,-51.81 423.02,-58.37 433.62,-58.43 431.34,-51.81"/>
</g>
<!-- Node10 -->
<g id="node10" class="node">
<title>Node10</title>
<g id="a_node10"><a xlink:href="../../d8/de7/corruptions__stake__protocol__simulator_8h.html" target="_top" xlink:title=" ">
<polygon fill="white" stroke="black" points="799.5,-303.5 799.5,-337.5 1022.5,-337.5 1022.5,-303.5 799.5,-303.5"/>
<text text-anchor="start" x="807.5" y="-323.9" font-family="Helvetica,sans-Serif" font-size="12.00">include/corruptions_stake_protocol</text>
<text text-anchor="middle" x="911" y="-310.9" font-family="Helvetica,sans-Serif" font-size="12.00">_simulator.h</text>
</a>
</g>
</g>
<!-- Node9&#45;&gt;Node10 -->
<g id="edge9" class="edge">
<title>Node9&#45;&gt;Node10</title>
<path fill="none" stroke="midnightblue" d="M911,-364.07C911,-355.58 911,-345.8 911,-337.76"/>
<polygon fill="midnightblue" stroke="midnightblue" points="907.5,-364.23 911,-374.23 914.5,-364.23 907.5,-364.23"/>
</g>
<!-- Node26 -->
<g id="node26" class="node">
<title>Node26</title>
<g id="a_node26"><a xlink:href="../../d5/d6a/protocol__simulator_8cc.html" target="_top" xlink:title=" ">
<polygon fill="white" stroke="black" points="1041,-310 1041,-331 1205,-331 1205,-310 1041,-310"/>
<text text-anchor="middle" x="1123" y="-317.4" font-family="Helvetica,sans-Serif" font-size="12.00">src/protocol_simulator.cc</text>
</a>
</g>
</g>
<!-- Node9&#45;&gt;Node26 -->
<g id="edge32" class="edge">
<title>Node9&#45;&gt;Node26</title>
<path fill="none" stroke="midnightblue" d="M953.5,-371.47C993.95,-359.54 1053.95,-341.86 1090.65,-331.04"/>
<polygon fill="midnightblue" stroke="midnightblue" points="952.26,-368.19 943.66,-374.37 954.24,-374.9 952.26,-368.19"/>
</g>
<!-- Node11 -->
<g id="node11" class="node">
<title>Node11</title>
<g id="a_node11"><a xlink:href="../../df/d52/abstract__receive__protocol__simulator_8h.html" target="_top" xlink:title=" ">
<polygon fill="white" stroke="black" points="842.5,-232.5 842.5,-266.5 1059.5,-266.5 1059.5,-232.5 842.5,-232.5"/>
<text text-anchor="start" x="850.5" y="-252.9" font-family="Helvetica,sans-Serif" font-size="12.00">include/abstract_receive_protocol</text>
<text text-anchor="middle" x="951" y="-239.9" font-family="Helvetica,sans-Serif" font-size="12.00">_simulator.h</text>
</a>
</g>
</g>
<!-- Node10&#45;&gt;Node11 -->
<g id="edge10" class="edge">
<title>Node10&#45;&gt;Node11</title>
<path fill="none" stroke="midnightblue" d="M925.38,-294.7C930.74,-285.45 936.68,-275.2 941.5,-266.9"/>
<polygon fill="midnightblue" stroke="midnightblue" points="922.26,-293.09 920.28,-303.5 928.32,-296.6 922.26,-293.09"/>
</g>
<!-- Node19 -->
<g id="node19" class="node">
<title>Node19</title>
<g id="a_node19"><a xlink:href="../../d9/d95/abstract__send__protocol__simulator_8h.html" target="_top" xlink:title=" ">
<polygon fill="white" stroke="black" points="1117,-239 1117,-260 1391,-260 1391,-239 1117,-239"/>
<text text-anchor="middle" x="1254" y="-246.4" font-family="Helvetica,sans-Serif" font-size="12.00">include/abstract_send_protocol_simulator.h</text>
</a>
</g>
</g>
<!-- Node10&#45;&gt;Node19 -->
<g id="edge21" class="edge">
<title>Node10&#45;&gt;Node19</title>
<path fill="none" stroke="midnightblue" d="M1000.53,-301.49C1066.47,-288.22 1153.55,-270.71 1206.58,-260.04"/>
<polygon fill="midnightblue" stroke="midnightblue" points="999.67,-298.09 990.55,-303.5 1001.05,-304.96 999.67,-298.09"/>
</g>
<!-- Node25 -->
<g id="node25" class="node">
<title>Node25</title>
<g id="a_node25"><a xlink:href="../../de/de3/corruptions__stake__protocol__simulator_8cc.html" target="_top" xlink:title=" ">
<polygon fill="white" stroke="black" points="549.5,-239 549.5,-260 824.5,-260 824.5,-239 549.5,-239"/>
<text text-anchor="middle" x="687" y="-246.4" font-family="Helvetica,sans-Serif" font-size="12.00">src/corruptions_stake_protocol_simulator.cc</text>
</a>
</g>
</g>
<!-- Node10&#45;&gt;Node25 -->
<g id="edge31" class="edge">
<title>Node10&#45;&gt;Node25</title>
<path fill="none" stroke="midnightblue" d="M849.32,-300.5C806.68,-287.36 751.75,-270.44 717.97,-260.04"/>
<polygon fill="midnightblue" stroke="midnightblue" points="848.46,-303.9 859.05,-303.5 850.52,-297.21 848.46,-303.9"/>
</g>
<!-- Node12 -->
<g id="node12" class="node">
<title>Node12</title>
<g id="a_node12"><a xlink:href="../../da/dd8/receiver__protocol__simulator_8h.html" target="_top" xlink:title=" ">
<polygon fill="white" stroke="black" points="909.5,-174.5 909.5,-195.5 1148.5,-195.5 1148.5,-174.5 909.5,-174.5"/>
<text text-anchor="middle" x="1029" y="-181.9" font-family="Helvetica,sans-Serif" font-size="12.00">include/receiver_protocol_simulator.h</text>
</a>
</g>
</g>
<!-- Node11&#45;&gt;Node12 -->
<g id="edge11" class="edge">
<title>Node11&#45;&gt;Node12</title>
<path fill="none" stroke="midnightblue" d="M979.25,-225.86C992.14,-215.53 1006.74,-203.84 1016.77,-195.8"/>
<polygon fill="midnightblue" stroke="midnightblue" points="976.7,-223.42 971.09,-232.4 981.08,-228.88 976.7,-223.42"/>
</g>
<!-- Node18 -->
<g id="node18" class="node">
<title>Node18</title>
<g id="a_node18"><a xlink:href="../../de/d4e/abstract__receive__protocol__simulator_8cc.html" target="_top" xlink:title=" ">
<polygon fill="white" stroke="black" points="385.5,-174.5 385.5,-195.5 654.5,-195.5 654.5,-174.5 385.5,-174.5"/>
<text text-anchor="middle" x="520" y="-181.9" font-family="Helvetica,sans-Serif" font-size="12.00">src/abstract_receive_protocol_simulator.cc</text>
</a>
</g>
</g>
<!-- Node11&#45;&gt;Node18 -->
<g id="edge20" class="edge">
<title>Node11&#45;&gt;Node18</title>
<path fill="none" stroke="midnightblue" d="M832.17,-231.27C752.68,-219.74 651.07,-205.01 585.75,-195.53"/>
<polygon fill="midnightblue" stroke="midnightblue" points="831.84,-234.76 842.24,-232.73 832.85,-227.83 831.84,-234.76"/>
</g>
<!-- Node12&#45;&gt;Node4 -->
<g id="edge19" class="edge">
<title>Node12&#45;&gt;Node4</title>
<path fill="none" stroke="midnightblue" d="M990.63,-171.08C966.53,-162.56 935,-150.66 908,-138 889.98,-129.55 887.98,-121.98 869,-116 792.9,-92.03 562.14,-78.06 453.16,-72.63"/>
<polygon fill="midnightblue" stroke="midnightblue" points="989.54,-174.41 1000.14,-174.4 991.85,-167.8 989.54,-174.41"/>
</g>
<!-- Node13 -->
<g id="node13" class="node">
<title>Node13</title>
<g id="a_node13"><a xlink:href="../../dc/da4/hybrid__k__out__protocol__simulator_8h.html" target="_top" xlink:title=" ">
<polygon fill="white" stroke="black" points="1200,-116.5 1200,-137.5 1466,-137.5 1466,-116.5 1200,-116.5"/>
<text text-anchor="middle" x="1333" y="-123.9" font-family="Helvetica,sans-Serif" font-size="12.00">include/hybrid_k_out_protocol_simulator.h</text>
</a>
</g>
</g>
<!-- Node12&#45;&gt;Node13 -->
<g id="edge12" class="edge">
<title>Node12&#45;&gt;Node13</title>
<path fill="none" stroke="midnightblue" d="M1091.07,-172.57C1147.14,-162.24 1228.7,-147.21 1281.3,-137.52"/>
<polygon fill="midnightblue" stroke="midnightblue" points="1090.11,-169.18 1080.91,-174.44 1091.38,-176.07 1090.11,-169.18"/>
</g>
<!-- Node15 -->
<g id="node15" class="node">
<title>Node15</title>
<g id="a_node15"><a xlink:href="../../de/dc2/hybrid__protocol__simulator_8h.html" target="_top" xlink:title=" ">
<polygon fill="white" stroke="black" points="916.5,-116.5 916.5,-137.5 1143.5,-137.5 1143.5,-116.5 916.5,-116.5"/>
<text text-anchor="middle" x="1030" y="-123.9" font-family="Helvetica,sans-Serif" font-size="12.00">include/hybrid_protocol_simulator.h</text>
</a>
</g>
</g>
<!-- Node12&#45;&gt;Node15 -->
<g id="edge15" class="edge">
<title>Node12&#45;&gt;Node15</title>
<path fill="none" stroke="midnightblue" d="M1029.35,-164.16C1029.52,-155.16 1029.7,-144.92 1029.83,-137.64"/>
<polygon fill="midnightblue" stroke="midnightblue" points="1025.85,-164.18 1029.17,-174.25 1032.85,-164.31 1025.85,-164.18"/>
</g>
<!-- Node17 -->
<g id="node17" class="node">
<title>Node17</title>
<g id="a_node17"><a xlink:href="../../d8/db4/receiver__protocol__simulator_8cc.html" target="_top" xlink:title=" ">
<polygon fill="white" stroke="black" points="640.5,-116.5 640.5,-137.5 859.5,-137.5 859.5,-116.5 640.5,-116.5"/>
<text text-anchor="middle" x="750" y="-123.9" font-family="Helvetica,sans-Serif" font-size="12.00">src/receiver_protocol_simulator.cc</text>
</a>
</g>
</g>
<!-- Node12&#45;&gt;Node17 -->
<g id="edge18" class="edge">
<title>Node12&#45;&gt;Node17</title>
<path fill="none" stroke="midnightblue" d="M971.39,-172.44C919.95,-162.11 845.53,-147.17 797.45,-137.52"/>
<polygon fill="midnightblue" stroke="midnightblue" points="970.86,-175.9 981.36,-174.44 972.24,-169.04 970.86,-175.9"/>
</g>
<!-- Node13&#45;&gt;Node4 -->
<g id="edge14" class="edge">
<title>Node13&#45;&gt;Node4</title>
<path fill="none" stroke="midnightblue" d="M1189.9,-116.25C1188.59,-116.16 1187.29,-116.08 1186,-116 911.77,-98.7 583.91,-80.39 453.07,-73.18"/>
<polygon fill="midnightblue" stroke="midnightblue" points="1189.79,-119.75 1199.99,-116.89 1190.24,-112.76 1189.79,-119.75"/>
</g>
<!-- Node14 -->
<g id="node14" class="node">
<title>Node14</title>
<g id="a_node14"><a xlink:href="../../da/d60/hybrid__k__out__protocol__simulator_8cc.html" target="_top" xlink:title=" ">
<polygon fill="white" stroke="black" points="1210,-58.5 1210,-79.5 1456,-79.5 1456,-58.5 1210,-58.5"/>
<text text-anchor="middle" x="1333" y="-65.9" font-family="Helvetica,sans-Serif" font-size="12.00">src/hybrid_k_out_protocol_simulator.cc</text>
</a>
</g>
</g>
<!-- Node13&#45;&gt;Node14 -->
<g id="edge13" class="edge">
<title>Node13&#45;&gt;Node14</title>
<path fill="none" stroke="midnightblue" d="M1333,-106.16C1333,-97.16 1333,-86.92 1333,-79.64"/>
<polygon fill="midnightblue" stroke="midnightblue" points="1329.5,-106.25 1333,-116.25 1336.5,-106.25 1329.5,-106.25"/>
</g>
<!-- Node15&#45;&gt;Node4 -->
<g id="edge17" class="edge">
<title>Node15&#45;&gt;Node4</title>
<path fill="none" stroke="midnightblue" d="M911.84,-115.58C775.48,-103.55 556.74,-84.26 453.09,-75.12"/>
<polygon fill="midnightblue" stroke="midnightblue" points="911.65,-119.08 921.92,-116.47 912.27,-112.1 911.65,-119.08"/>
</g>
<!-- Node16 -->
<g id="node16" class="node">
<title>Node16</title>
<g id="a_node16"><a xlink:href="../../df/dcd/hybrid__protocol__simulator_8cc.html" target="_top" xlink:title=" ">
<polygon fill="white" stroke="black" points="926,-58.5 926,-79.5 1134,-79.5 1134,-58.5 926,-58.5"/>
<text text-anchor="middle" x="1030" y="-65.9" font-family="Helvetica,sans-Serif" font-size="12.00">src/hybrid_protocol_simulator.cc</text>
</a>
</g>
</g>
<!-- Node15&#45;&gt;Node16 -->
<g id="edge16" class="edge">
<title>Node15&#45;&gt;Node16</title>
<path fill="none" stroke="midnightblue" d="M1030,-106.16C1030,-97.16 1030,-86.92 1030,-79.64"/>
<polygon fill="midnightblue" stroke="midnightblue" points="1026.5,-106.25 1030,-116.25 1033.5,-106.25 1026.5,-106.25"/>
</g>
<!-- Node20 -->
<g id="node20" class="node">
<title>Node20</title>
<g id="a_node20"><a xlink:href="../../d8/d9d/k__out__protocol__simulator_8h.html" target="_top" xlink:title=" ">
<polygon fill="white" stroke="black" points="1439,-174.5 1439,-195.5 1661,-195.5 1661,-174.5 1439,-174.5"/>
<text text-anchor="middle" x="1550" y="-181.9" font-family="Helvetica,sans-Serif" font-size="12.00">include/k_out_protocol_simulator.h</text>
</a>
</g>
</g>
<!-- Node19&#45;&gt;Node20 -->
<g id="edge22" class="edge">
<title>Node19&#45;&gt;Node20</title>
<path fill="none" stroke="midnightblue" d="M1309.1,-236.87C1365.52,-224.95 1452.17,-206.66 1504.73,-195.56"/>
<polygon fill="midnightblue" stroke="midnightblue" points="1308.34,-233.45 1299.28,-238.94 1309.79,-240.3 1308.34,-233.45"/>
</g>
<!-- Node22 -->
<g id="node22" class="node">
<title>Node22</title>
<g id="a_node22"><a xlink:href="../../d5/d9b/send__protocol__simulator_8h.html" target="_top" xlink:title=" ">
<polygon fill="white" stroke="black" points="673,-174.5 673,-195.5 891,-195.5 891,-174.5 673,-174.5"/>
<text text-anchor="middle" x="782" y="-181.9" font-family="Helvetica,sans-Serif" font-size="12.00">include/send_protocol_simulator.h</text>
</a>
</g>
</g>
<!-- Node19&#45;&gt;Node22 -->
<g id="edge26" class="edge">
<title>Node19&#45;&gt;Node22</title>
<path fill="none" stroke="midnightblue" d="M1171.91,-237.63C1082.08,-225.73 939.47,-206.85 853.89,-195.52"/>
<polygon fill="midnightblue" stroke="midnightblue" points="1171.68,-241.13 1182.06,-238.97 1172.6,-234.19 1171.68,-241.13"/>
</g>
<!-- Node24 -->
<g id="node24" class="node">
<title>Node24</title>
<g id="a_node24"><a xlink:href="../../db/d9d/abstract__send__protocol__simulator_8cc.html" target="_top" xlink:title=" ">
<polygon fill="white" stroke="black" points="1167,-174.5 1167,-195.5 1421,-195.5 1421,-174.5 1167,-174.5"/>
<text text-anchor="middle" x="1294" y="-181.9" font-family="Helvetica,sans-Serif" font-size="12.00">src/abstract_send_protocol_simulator.cc</text>
</a>
</g>
</g>
<!-- Node19&#45;&gt;Node24 -->
<g id="edge30" class="edge">
<title>Node19&#45;&gt;Node24</title>
<path fill="none" stroke="midnightblue" d="M1265.76,-230.12C1272.92,-218.93 1281.8,-205.07 1287.66,-195.9"/>
<polygon fill="midnightblue" stroke="midnightblue" points="1262.69,-228.42 1260.25,-238.73 1268.59,-232.2 1262.69,-228.42"/>
</g>
<!-- Node20&#45;&gt;Node4 -->
<g id="edge25" class="edge">
<title>Node20&#45;&gt;Node4</title>
<path fill="none" stroke="midnightblue" d="M1428.67,-173.62C1342.16,-165.25 1233.87,-152.5 1191,-138 1172.51,-131.75 1171.69,-121.63 1153,-116 1022.27,-76.6 606.89,-70.84 453.04,-70.08"/>
<polygon fill="midnightblue" stroke="midnightblue" points="1428.55,-177.13 1438.84,-174.6 1429.22,-170.16 1428.55,-177.13"/>
</g>
<!-- Node20&#45;&gt;Node13 -->
<g id="edge23" class="edge">
<title>Node20&#45;&gt;Node13</title>
<path fill="none" stroke="midnightblue" d="M1502.92,-171.85C1462.99,-161.55 1406.51,-146.97 1369.82,-137.5"/>
<polygon fill="midnightblue" stroke="midnightblue" points="1502.14,-175.26 1512.7,-174.37 1503.89,-168.49 1502.14,-175.26"/>
</g>
<!-- Node21 -->
<g id="node21" class="node">
<title>Node21</title>
<g id="a_node21"><a xlink:href="../../dd/d36/k__out__protocol__simulator_8cc.html" target="_top" xlink:title=" ">
<polygon fill="white" stroke="black" points="1484.5,-116.5 1484.5,-137.5 1687.5,-137.5 1687.5,-116.5 1484.5,-116.5"/>
<text text-anchor="middle" x="1586" y="-123.9" font-family="Helvetica,sans-Serif" font-size="12.00">src/k_out_protocol_simulator.cc</text>
</a>
</g>
</g>
<!-- Node20&#45;&gt;Node21 -->
<g id="edge24" class="edge">
<title>Node20&#45;&gt;Node21</title>
<path fill="none" stroke="midnightblue" d="M1561.81,-165.63C1567.81,-156.29 1574.87,-145.32 1579.8,-137.64"/>
<polygon fill="midnightblue" stroke="midnightblue" points="1558.73,-163.94 1556.27,-174.25 1564.62,-167.73 1558.73,-163.94"/>
</g>
<!-- Node22&#45;&gt;Node4 -->
<g id="edge29" class="edge">
<title>Node22&#45;&gt;Node4</title>
<path fill="none" stroke="midnightblue" d="M674.1,-173.44C569.09,-162.72 423.89,-146.53 414,-138 396.92,-123.28 394.57,-94.59 394.61,-79.62"/>
<polygon fill="midnightblue" stroke="midnightblue" points="673.83,-176.93 684.13,-174.46 674.53,-169.97 673.83,-176.93"/>
</g>
<!-- Node22&#45;&gt;Node15 -->
<g id="edge27" class="edge">
<title>Node22&#45;&gt;Node15</title>
<path fill="none" stroke="midnightblue" d="M834.36,-172.18C880.03,-161.86 945.44,-147.09 987.82,-137.52"/>
<polygon fill="midnightblue" stroke="midnightblue" points="833.33,-168.82 824.35,-174.44 834.88,-175.65 833.33,-168.82"/>
</g>
<!-- Node23 -->
<g id="node23" class="node">
<title>Node23</title>
<g id="a_node23"><a xlink:href="../../d9/d76/send__protocol__simulator_8cc.html" target="_top" xlink:title=" ">
<polygon fill="white" stroke="black" points="423.5,-116.5 423.5,-137.5 622.5,-137.5 622.5,-116.5 423.5,-116.5"/>
<text text-anchor="middle" x="523" y="-123.9" font-family="Helvetica,sans-Serif" font-size="12.00">src/send_protocol_simulator.cc</text>
</a>
</g>
</g>
<!-- Node22&#45;&gt;Node23 -->
<g id="edge28" class="edge">
<title>Node22&#45;&gt;Node23</title>
<path fill="none" stroke="midnightblue" d="M727.92,-172.31C680.2,-161.99 611.49,-147.13 567.05,-137.52"/>
<polygon fill="midnightblue" stroke="midnightblue" points="727.26,-175.74 737.77,-174.44 728.74,-168.9 727.26,-175.74"/>
</g>
<!-- Node27&#45;&gt;Node4 -->
<g id="edge35" class="edge">
<title>Node27&#45;&gt;Node4</title>
<path fill="none" stroke="midnightblue" d="M106.21,-370.89C88.22,-363.9 69.45,-353.44 57,-338 32.02,-307.02 38,-290.3 38,-250.5 38,-250.5 38,-250.5 38,-184 38,-122.03 235.69,-89.16 336.85,-76.4"/>
<polygon fill="midnightblue" stroke="midnightblue" points="105.49,-374.35 116.08,-374.42 107.85,-367.76 105.49,-374.35"/>
</g>
<!-- Node28 -->
<g id="node28" class="node">
<title>Node28</title>
<g id="a_node28"><a xlink:href="../../db/dd2/io__stake__distribution_8cc.html" target="_top" xlink:title=" ">
<polygon fill="white" stroke="black" points="66.5,-310 66.5,-331 249.5,-331 249.5,-310 66.5,-310"/>
<text text-anchor="middle" x="158" y="-317.4" font-family="Helvetica,sans-Serif" font-size="12.00">utils/io_stake_distribution.cc</text>
</a>
</g>
</g>
<!-- Node27&#45;&gt;Node28 -->
<g id="edge34" class="edge">
<title>Node27&#45;&gt;Node28</title>
<path fill="none" stroke="midnightblue" d="M158,-363.93C158,-353.06 158,-340.11 158,-331.4"/>
<polygon fill="midnightblue" stroke="midnightblue" points="154.5,-364.23 158,-374.23 161.5,-364.23 154.5,-364.23"/>
</g>
<!-- Node29&#45;&gt;Node4 -->
<g id="edge38" class="edge">
<title>Node29&#45;&gt;Node4</title>
<path fill="none" stroke="midnightblue" d="M640.55,-369.74C653.82,-362.36 667.55,-351.92 675,-338 682.34,-324.29 684.48,-315.34 675,-303 637.17,-253.76 598.65,-287.39 540,-267 464.98,-240.92 419.6,-262.39 376,-196 351.59,-158.83 377.22,-102.35 389.37,-79.8"/>
<polygon fill="midnightblue" stroke="midnightblue" points="638.83,-366.69 631.53,-374.37 642.02,-372.92 638.83,-366.69"/>
</g>
<!-- Node30 -->
<g id="node30" class="node">
<title>Node30</title>
<g id="a_node30"><a xlink:href="../../d7/d0c/read__args_8cc.html" target="_top" xlink:title=" ">
<polygon fill="white" stroke="black" points="546,-310 546,-331 666,-331 666,-310 546,-310"/>
<text text-anchor="middle" x="606" y="-317.4" font-family="Helvetica,sans-Serif" font-size="12.00">utils/read_args.cc</text>
</a>
</g>
</g>
<!-- Node29&#45;&gt;Node30 -->
<g id="edge39" class="edge">
<title>Node29&#45;&gt;Node30</title>
<path fill="none" stroke="midnightblue" d="M606,-363.93C606,-353.06 606,-340.11 606,-331.4"/>
<polygon fill="midnightblue" stroke="midnightblue" points="602.5,-364.23 606,-374.23 609.5,-364.23 602.5,-364.23"/>
</g>
</g>
</svg>
        <g id="navigator" transform="translate(0 0)" fill="#404254">
                <rect fill="#f2f5e9" fill-opacity="0.5" stroke="#606060" stroke-width=".5" x="0" y="0" width="60" height="60"/>
                <use id="zoomplus" xlink:href="#zoomPlus" x="17" y="9" onmousedown="handleZoom(evt,'in')"/>
                <use id="zoomminus" xlink:href="#zoomMin" x="42" y="9" onmousedown="handleZoom(evt,'out')"/>
                <use id="reset" xlink:href="#resetDef" x="30" y="36" onmousedown="handleReset()"/>
                <g id="arrowUp" xlink:href="#dirArrow" transform="translate(30 24)" onmousedown="handlePan(0,-1)">
                  <use xlink:href="#rim" fill="#404040">
                        <set attributeName="fill" to="#808080" begin="arrowUp.mouseover" end="arrowUp.mouseout"/>
                  </use>
                  <path fill="none" stroke="white" stroke-width="1.5" d="M0,-3.0v7 M-2.5,-0.5L0,-3.0L2.5,-0.5"/>
                </g>
                <g id="arrowRight" xlink:href="#dirArrow" transform="rotate(90) translate(36 -43)" onmousedown="handlePan(1,0)">
                  <use xlink:href="#rim" fill="#404040">
                        <set attributeName="fill" to="#808080" begin="arrowRight.mouseover" end="arrowRight.mouseout"/>
                  </use>
                  <path fill="none" stroke="white" stroke-width="1.5" d="M0,-3.0v7 M-2.5,-0.5L0,-3.0L2.5,-0.5"/>
                </g>
                <g id="arrowDown" xlink:href="#dirArrow" transform="rotate(180) translate(-30 -48)" onmousedown="handlePan(0,1)">
                  <use xlink:href="#rim" fill="#404040">
                        <set attributeName="fill" to="#808080" begin="arrowDown.mouseover" end="arrowDown.mouseout"/>
                  </use>
                  <path fill="none" stroke="white" stroke-width="1.5" d="M0,-3.0v7 M-2.5,-0.5L0,-3.0L2.5,-0.5"/>
                </g>
                <g id="arrowLeft" xlink:href="#dirArrow" transform="rotate(270) translate(-36 17)" onmousedown="handlePan(-1,0)">
                  <use xlink:href="#rim" fill="#404040">
                        <set attributeName="fill" to="#808080" begin="arrowLeft.mouseover" end="arrowLeft.mouseout"/>
                  </use>
                  <path fill="none" stroke="white" stroke-width="1.5" d="M0,-3.0v7 M-2.5,-0.5L0,-3.0L2.5,-0.5"/>
                </g>
        </g>
        <svg viewBox="0 0 15 15" width="100%" height="30px" preserveAspectRatio="xMaxYMin meet">
         <g id="arrow_out" transform="scale(0.3 0.3)">
          <a xlink:href="types_8h__dep__incl_org.svg" target="_base">
           <rect id="button" ry="5" rx="5" y="6" x="6" height="38" width="38"
                fill="#f2f5e9" fill-opacity="0.5" stroke="#606060" stroke-width="1.0"/>
           <path id="arrow"
             d="M 11.500037,31.436501 C 11.940474,20.09759 22.043105,11.32322 32.158766,21.979434 L 37.068811,17.246167 C 37.068811,17.246167 37.088388,32 37.088388,32 L 22.160133,31.978069 C 22.160133,31.978069 26.997745,27.140456 26.997745,27.140456 C 18.528582,18.264221 13.291696,25.230495 11.500037,31.436501 z"
             style="fill:#404040;"/>
          </a>
         </g>
        </svg>
</svg>
