<?xml version="1.0" encoding="UTF-8" standalone="no"?>
<!DOCTYPE svg PUBLIC "-//W3C//DTD SVG 1.1//EN"
 "http://www.w3.org/Graphics/SVG/1.1/DTD/svg11.dtd">
<!-- Generated by graphviz version 5.0.0 (0)
 -->
<!-- Title: /home/guilhermemtr/Dropbox/workspace/ETH&#45;Zurich/Projects/Weighted&#45;Flooding&#45;Simulator/include/types.h Pages: 1 -->
<!--zoomable 670 -->
<svg id="main" version="1.1" xmlns="http://www.w3.org/2000/svg" xmlns:xlink="http://www.w3.org/1999/xlink" xml:space="preserve" onload="init(evt)">
<style type="text/css"><![CDATA[
.edge:hover path { stroke: red; }
.edge:hover polygon { stroke: red; fill: red; }
]]></style>
<script type="text/javascript"><![CDATA[
var edges = document.getElementsByTagName('g');
if (edges && edges.length) {
  for (var i=0;i<edges.length;i++) {
    if (edges[i].id.substr(0,4)=='edge') {
      edges[i].setAttribute('class','edge');
    }
  }
}
]]></script>
        <defs>
                <circle id="rim" cx="0" cy="0" r="7"/>
                <circle id="rim2" cx="0" cy="0" r="3.5"/>
                <g id="zoomPlus">
                        <use xlink:href="#rim" fill="#404040">
                                <set attributeName="fill" to="#808080" begin="zoomplus.mouseover" end="zoomplus.mouseout"/>
                        </use>
                        <path d="M-4,0h8M0,-4v8" fill="none" stroke="white" stroke-width="1.5" pointer-events="none"/>
                </g>
                <g id="zoomMin">
                        <use xlink:href="#rim" fill="#404040">
                                <set attributeName="fill" to="#808080" begin="zoomminus.mouseover" end="zoomminus.mouseout"/>
                        </use>
                        <path d="M-4,0h8" fill="none" stroke="white" stroke-width="1.5" pointer-events="none"/>
                </g>
                <g id="dirArrow">
                        <path fill="none" stroke="white" stroke-width="1.5" d="M0,-3.0v7 M-2.5,-0.5L0,-3.0L2.5,-0.5"/>
                </g>
               <g id="resetDef">
                       <use xlink:href="#rim2" fill="#404040">
                               <set attributeName="fill" to="#808080" begin="reset.mouseover" end="reset.mouseout"/>
                       </use>
               </g>
        </defs>

<script type="text/javascript">
var viewWidth = 2525;
var viewHeight = 670;
var sectionId = 'dynsection-1';
</script>
<script xlink:href="../../svgpan.js"/>
<svg id="graph" class="graph">
<g id="viewport">
<title>/home/guilhermemtr/Dropbox/workspace/ETH&#45;Zurich/Projects/Weighted&#45;Flooding&#45;Simulator/include/types.h</title>
<polygon fill="white" stroke="transparent" points="-4,4 -4,-666 2520.5,-666 2520.5,4 -4,4"/>
<!-- Node1 -->
<g id="node1" class="node">
<title>Node1</title>
<g id="a_node1"><a xlink:title=" ">
<polygon fill="#bfbfbf" stroke="black" points="378,-614.5 378,-661.5 640,-661.5 640,-614.5 378,-614.5"/>
<text text-anchor="start" x="386" y="-647.9" font-family="Helvetica,sans-Serif" font-size="12.00">/home/guilhermemtr/Dropbox/workspace</text>
<text text-anchor="start" x="386" y="-634.9" font-family="Helvetica,sans-Serif" font-size="12.00">/ETH&#45;Zurich/Projects/Weighted&#45;Flooding</text>
<text text-anchor="middle" x="509" y="-621.9" font-family="Helvetica,sans-Serif" font-size="12.00">&#45;Simulator/include/types.h</text>
</a>
</g>
</g>
<!-- Node2 -->
<g id="node2" class="node">
<title>Node2</title>
<g id="a_node2"><a xlink:href="../../d3/d41/generate__stake__distribution_8h.html" target="_top" xlink:title=" ">
<polygon fill="white" stroke="black" points="356,-530.5 356,-577.5 662,-577.5 662,-530.5 356,-530.5"/>
<text text-anchor="start" x="364" y="-563.9" font-family="Helvetica,sans-Serif" font-size="12.00">/home/guilhermemtr/Dropbox/workspace</text>
<text text-anchor="start" x="364" y="-550.9" font-family="Helvetica,sans-Serif" font-size="12.00">/ETH&#45;Zurich/Projects/Weighted&#45;Flooding</text>
<text text-anchor="middle" x="509" y="-537.9" font-family="Helvetica,sans-Serif" font-size="12.00">&#45;Simulator/include/generate_stake_distribution.h</text>
</a>
</g>
</g>
<!-- Node1&#45;&gt;Node2 -->
<g id="edge1" class="edge">
<title>Node1&#45;&gt;Node2</title>
<path fill="none" stroke="midnightblue" d="M509,-604.11C509,-595.26 509,-585.88 509,-577.72"/>
<polygon fill="midnightblue" stroke="midnightblue" points="505.5,-604.16 509,-614.16 512.5,-604.16 505.5,-604.16"/>
</g>
<!-- Node4 -->
<g id="node4" class="node">
<title>Node4</title>
<g id="a_node4"><a xlink:href="../../d0/d8b/main__utils_8h.html" target="_top" xlink:title=" ">
<polygon fill="white" stroke="black" points="763,-84.5 763,-131.5 1025,-131.5 1025,-84.5 763,-84.5"/>
<text text-anchor="start" x="771" y="-117.9" font-family="Helvetica,sans-Serif" font-size="12.00">/home/guilhermemtr/Dropbox/workspace</text>
<text text-anchor="start" x="771" y="-104.9" font-family="Helvetica,sans-Serif" font-size="12.00">/ETH&#45;Zurich/Projects/Weighted&#45;Flooding</text>
<text text-anchor="middle" x="894" y="-91.9" font-family="Helvetica,sans-Serif" font-size="12.00">&#45;Simulator/utils/main_utils.h</text>
</a>
</g>
</g>
<!-- Node1&#45;&gt;Node4 -->
<g id="edge36" class="edge">
<title>Node1&#45;&gt;Node4</title>
<path fill="none" stroke="midnightblue" d="M367.65,-632.51C254.21,-626.39 106.07,-611.97 57,-578 12.7,-547.33 0,-524.88 0,-471 0,-471 0,-471 0,-281.5 0,-219.78 26.28,-198.38 80,-168 137.82,-135.31 547.6,-118.86 762.77,-112.39"/>
<polygon fill="midnightblue" stroke="midnightblue" points="367.66,-636.01 377.82,-633.04 368.02,-629.02 367.66,-636.01"/>
</g>
<!-- Node9 -->
<g id="node9" class="node">
<title>Node9</title>
<g id="a_node9"><a xlink:href="../../dc/d8d/protocol__simulator_8h.html" target="_top" xlink:title=" ">
<polygon fill="white" stroke="black" points="1196,-530.5 1196,-577.5 1458,-577.5 1458,-530.5 1196,-530.5"/>
<text text-anchor="start" x="1204" y="-563.9" font-family="Helvetica,sans-Serif" font-size="12.00">/home/guilhermemtr/Dropbox/workspace</text>
<text text-anchor="start" x="1204" y="-550.9" font-family="Helvetica,sans-Serif" font-size="12.00">/ETH&#45;Zurich/Projects/Weighted&#45;Flooding</text>
<text text-anchor="middle" x="1327" y="-537.9" font-family="Helvetica,sans-Serif" font-size="12.00">&#45;Simulator/include/protocol_simulator.h</text>
</a>
</g>
</g>
<!-- Node1&#45;&gt;Node9 -->
<g id="edge8" class="edge">
<title>Node1&#45;&gt;Node9</title>
<path fill="none" stroke="midnightblue" d="M650.4,-622.83C803.78,-607.45 1046.67,-583.1 1195.9,-568.14"/>
<polygon fill="midnightblue" stroke="midnightblue" points="650.03,-619.35 640.43,-623.83 650.73,-626.31 650.03,-619.35"/>
</g>
<!-- Node27 -->
<g id="node27" class="node">
<title>Node27</title>
<g id="a_node27"><a xlink:href="../../da/d3f/io__stake__distribution_8h.html" target="_top" xlink:title=" ">
<polygon fill="white" stroke="black" points="66,-530.5 66,-577.5 328,-577.5 328,-530.5 66,-530.5"/>
<text text-anchor="start" x="74" y="-563.9" font-family="Helvetica,sans-Serif" font-size="12.00">/home/guilhermemtr/Dropbox/workspace</text>
<text text-anchor="start" x="74" y="-550.9" font-family="Helvetica,sans-Serif" font-size="12.00">/ETH&#45;Zurich/Projects/Weighted&#45;Flooding</text>
<text text-anchor="middle" x="197" y="-537.9" font-family="Helvetica,sans-Serif" font-size="12.00">&#45;Simulator/utils/io_stake_distribution.h</text>
</a>
</g>
</g>
<!-- Node1&#45;&gt;Node27 -->
<g id="edge33" class="edge">
<title>Node1&#45;&gt;Node27</title>
<path fill="none" stroke="midnightblue" d="M413.44,-611.89C371.76,-600.93 323.26,-588.18 282.75,-577.54"/>
<polygon fill="midnightblue" stroke="midnightblue" points="412.77,-615.33 423.33,-614.48 414.55,-608.56 412.77,-615.33"/>
</g>
<!-- Node29 -->
<g id="node29" class="node">
<title>Node29</title>
<g id="a_node29"><a xlink:href="../../d1/dde/read__args_8h.html" target="_top" xlink:title=" ">
<polygon fill="white" stroke="black" points="690,-530.5 690,-577.5 952,-577.5 952,-530.5 690,-530.5"/>
<text text-anchor="start" x="698" y="-563.9" font-family="Helvetica,sans-Serif" font-size="12.00">/home/guilhermemtr/Dropbox/workspace</text>
<text text-anchor="start" x="698" y="-550.9" font-family="Helvetica,sans-Serif" font-size="12.00">/ETH&#45;Zurich/Projects/Weighted&#45;Flooding</text>
<text text-anchor="middle" x="821" y="-537.9" font-family="Helvetica,sans-Serif" font-size="12.00">&#45;Simulator/utils/read_args.h</text>
</a>
</g>
</g>
<!-- Node1&#45;&gt;Node29 -->
<g id="edge37" class="edge">
<title>Node1&#45;&gt;Node29</title>
<path fill="none" stroke="midnightblue" d="M604.56,-611.89C646.24,-600.93 694.74,-588.18 735.25,-577.54"/>
<polygon fill="midnightblue" stroke="midnightblue" points="603.45,-608.56 594.67,-614.48 605.23,-615.33 603.45,-608.56"/>
</g>
<!-- Node3 -->
<g id="node3" class="node">
<title>Node3</title>
<g id="a_node3"><a xlink:href="../../da/d88/generate__stake__distribution_8cc.html" target="_top" xlink:title=" ">
<polygon fill="white" stroke="black" points="384.5,-446.5 384.5,-493.5 671.5,-493.5 671.5,-446.5 384.5,-446.5"/>
<text text-anchor="start" x="392.5" y="-479.9" font-family="Helvetica,sans-Serif" font-size="12.00">/home/guilhermemtr/Dropbox/workspace</text>
<text text-anchor="start" x="392.5" y="-466.9" font-family="Helvetica,sans-Serif" font-size="12.00">/ETH&#45;Zurich/Projects/Weighted&#45;Flooding</text>
<text text-anchor="middle" x="528" y="-453.9" font-family="Helvetica,sans-Serif" font-size="12.00">&#45;Simulator/src/generate_stake_distribution.cc</text>
</a>
</g>
</g>
<!-- Node2&#45;&gt;Node3 -->
<g id="edge2" class="edge">
<title>Node2&#45;&gt;Node3</title>
<path fill="none" stroke="midnightblue" d="M516.55,-520.4C518.62,-511.46 520.82,-501.97 522.74,-493.72"/>
<polygon fill="midnightblue" stroke="midnightblue" points="513.14,-519.63 514.29,-530.16 519.96,-521.21 513.14,-519.63"/>
</g>
<!-- Node2&#45;&gt;Node4 -->
<g id="edge3" class="edge">
<title>Node2&#45;&gt;Node4</title>
<path fill="none" stroke="midnightblue" d="M414.74,-525.95C399.56,-517.85 385.44,-507.42 375,-494 343.6,-453.62 356,-431.65 356,-380.5 356,-380.5 356,-380.5 356,-281.5 356,-196.35 603.47,-147.35 762.73,-124.64"/>
<polygon fill="midnightblue" stroke="midnightblue" points="413.27,-529.12 423.78,-530.45 416.39,-522.86 413.27,-529.12"/>
</g>
<!-- Node5 -->
<g id="node5" class="node">
<title>Node5</title>
<g id="a_node5"><a xlink:href="../../d5/d37/benchmark_8cc.html" target="_top" xlink:title=" ">
<polygon fill="white" stroke="black" points="343,-0.5 343,-47.5 605,-47.5 605,-0.5 343,-0.5"/>
<text text-anchor="start" x="351" y="-33.9" font-family="Helvetica,sans-Serif" font-size="12.00">/home/guilhermemtr/Dropbox/workspace</text>
<text text-anchor="start" x="351" y="-20.9" font-family="Helvetica,sans-Serif" font-size="12.00">/ETH&#45;Zurich/Projects/Weighted&#45;Flooding</text>
<text text-anchor="middle" x="474" y="-7.9" font-family="Helvetica,sans-Serif" font-size="12.00">&#45;Simulator/benchmark.cc</text>
</a>
</g>
</g>
<!-- Node4&#45;&gt;Node5 -->
<g id="edge4" class="edge">
<title>Node4&#45;&gt;Node5</title>
<path fill="none" stroke="midnightblue" d="M768.55,-82.51C711.73,-71.41 645,-58.39 589.43,-47.54"/>
<polygon fill="midnightblue" stroke="midnightblue" points="768.19,-86 778.68,-84.48 769.53,-79.13 768.19,-86"/>
</g>
<!-- Node6 -->
<g id="node6" class="node">
<title>Node6</title>
<g id="a_node6"><a xlink:href="../../dd/d96/hybrid__main_8cc.html" target="_top" xlink:title=" ">
<polygon fill="white" stroke="black" points="623,-0.5 623,-47.5 885,-47.5 885,-0.5 623,-0.5"/>
<text text-anchor="start" x="631" y="-33.9" font-family="Helvetica,sans-Serif" font-size="12.00">/home/guilhermemtr/Dropbox/workspace</text>
<text text-anchor="start" x="631" y="-20.9" font-family="Helvetica,sans-Serif" font-size="12.00">/ETH&#45;Zurich/Projects/Weighted&#45;Flooding</text>
<text text-anchor="middle" x="754" y="-7.9" font-family="Helvetica,sans-Serif" font-size="12.00">&#45;Simulator/hybrid_main.cc</text>
</a>
</g>
</g>
<!-- Node4&#45;&gt;Node6 -->
<g id="edge5" class="edge">
<title>Node4&#45;&gt;Node6</title>
<path fill="none" stroke="midnightblue" d="M846.41,-79.12C828.84,-68.83 809.16,-57.31 792.5,-47.55"/>
<polygon fill="midnightblue" stroke="midnightblue" points="844.98,-82.34 855.37,-84.38 848.51,-76.3 844.98,-82.34"/>
</g>
<!-- Node7 -->
<g id="node7" class="node">
<title>Node7</title>
<g id="a_node7"><a xlink:href="../../d9/d0f/main_8cc.html" target="_top" xlink:title=" ">
<polygon fill="white" stroke="black" points="903,-0.5 903,-47.5 1165,-47.5 1165,-0.5 903,-0.5"/>
<text text-anchor="start" x="911" y="-33.9" font-family="Helvetica,sans-Serif" font-size="12.00">/home/guilhermemtr/Dropbox/workspace</text>
<text text-anchor="start" x="911" y="-20.9" font-family="Helvetica,sans-Serif" font-size="12.00">/ETH&#45;Zurich/Projects/Weighted&#45;Flooding</text>
<text text-anchor="middle" x="1034" y="-7.9" font-family="Helvetica,sans-Serif" font-size="12.00">&#45;Simulator/main.cc</text>
</a>
</g>
</g>
<!-- Node4&#45;&gt;Node7 -->
<g id="edge6" class="edge">
<title>Node4&#45;&gt;Node7</title>
<path fill="none" stroke="midnightblue" d="M941.59,-79.12C959.16,-68.83 978.84,-57.31 995.5,-47.55"/>
<polygon fill="midnightblue" stroke="midnightblue" points="939.49,-76.3 932.63,-84.38 943.02,-82.34 939.49,-76.3"/>
</g>
<!-- Node8 -->
<g id="node8" class="node">
<title>Node8</title>
<g id="a_node8"><a xlink:href="../../df/d31/main__utils_8cc.html" target="_top" xlink:title=" ">
<polygon fill="white" stroke="black" points="1183,-0.5 1183,-47.5 1445,-47.5 1445,-0.5 1183,-0.5"/>
<text text-anchor="start" x="1191" y="-33.9" font-family="Helvetica,sans-Serif" font-size="12.00">/home/guilhermemtr/Dropbox/workspace</text>
<text text-anchor="start" x="1191" y="-20.9" font-family="Helvetica,sans-Serif" font-size="12.00">/ETH&#45;Zurich/Projects/Weighted&#45;Flooding</text>
<text text-anchor="middle" x="1314" y="-7.9" font-family="Helvetica,sans-Serif" font-size="12.00">&#45;Simulator/utils/main_utils.cc</text>
</a>
</g>
</g>
<!-- Node4&#45;&gt;Node8 -->
<g id="edge7" class="edge">
<title>Node4&#45;&gt;Node8</title>
<path fill="none" stroke="midnightblue" d="M1019.45,-82.51C1076.27,-71.41 1143,-58.39 1198.57,-47.54"/>
<polygon fill="midnightblue" stroke="midnightblue" points="1018.47,-79.13 1009.32,-84.48 1019.81,-86 1018.47,-79.13"/>
</g>
<!-- Node10 -->
<g id="node10" class="node">
<title>Node10</title>
<g id="a_node10"><a xlink:href="../../d8/de7/corruptions__stake__protocol__simulator_8h.html" target="_top" xlink:title=" ">
<polygon fill="white" stroke="black" points="1146.5,-446.5 1146.5,-493.5 1507.5,-493.5 1507.5,-446.5 1146.5,-446.5"/>
<text text-anchor="start" x="1154.5" y="-479.9" font-family="Helvetica,sans-Serif" font-size="12.00">/home/guilhermemtr/Dropbox/workspace</text>
<text text-anchor="start" x="1154.5" y="-466.9" font-family="Helvetica,sans-Serif" font-size="12.00">/ETH&#45;Zurich/Projects/Weighted&#45;Flooding</text>
<text text-anchor="middle" x="1327" y="-453.9" font-family="Helvetica,sans-Serif" font-size="12.00">&#45;Simulator/include/corruptions_stake_protocol_simulator.h</text>
</a>
</g>
</g>
<!-- Node9&#45;&gt;Node10 -->
<g id="edge9" class="edge">
<title>Node9&#45;&gt;Node10</title>
<path fill="none" stroke="midnightblue" d="M1327,-520.11C1327,-511.26 1327,-501.88 1327,-493.72"/>
<polygon fill="midnightblue" stroke="midnightblue" points="1323.5,-520.16 1327,-530.16 1330.5,-520.16 1323.5,-520.16"/>
</g>
<!-- Node26 -->
<g id="node26" class="node">
<title>Node26</title>
<g id="a_node26"><a xlink:href="../../d5/d6a/protocol__simulator_8cc.html" target="_top" xlink:title=" ">
<polygon fill="white" stroke="black" points="1526,-446.5 1526,-493.5 1788,-493.5 1788,-446.5 1526,-446.5"/>
<text text-anchor="start" x="1534" y="-479.9" font-family="Helvetica,sans-Serif" font-size="12.00">/home/guilhermemtr/Dropbox/workspace</text>
<text text-anchor="start" x="1534" y="-466.9" font-family="Helvetica,sans-Serif" font-size="12.00">/ETH&#45;Zurich/Projects/Weighted&#45;Flooding</text>
<text text-anchor="middle" x="1657" y="-453.9" font-family="Helvetica,sans-Serif" font-size="12.00">&#45;Simulator/src/protocol_simulator.cc</text>
</a>
</g>
</g>
<!-- Node9&#45;&gt;Node26 -->
<g id="edge32" class="edge">
<title>Node9&#45;&gt;Node26</title>
<path fill="none" stroke="midnightblue" d="M1427.51,-528.02C1471.73,-517.04 1523.28,-504.23 1566.31,-493.54"/>
<polygon fill="midnightblue" stroke="midnightblue" points="1426.47,-524.68 1417.61,-530.48 1428.16,-531.47 1426.47,-524.68"/>
</g>
<!-- Node11 -->
<g id="node11" class="node">
<title>Node11</title>
<g id="a_node11"><a xlink:href="../../df/d52/abstract__receive__protocol__simulator_8h.html" target="_top" xlink:title=" ">
<polygon fill="white" stroke="black" points="1245.5,-356 1245.5,-403 1600.5,-403 1600.5,-356 1245.5,-356"/>
<text text-anchor="start" x="1253.5" y="-389.4" font-family="Helvetica,sans-Serif" font-size="12.00">/home/guilhermemtr/Dropbox/workspace</text>
<text text-anchor="start" x="1253.5" y="-376.4" font-family="Helvetica,sans-Serif" font-size="12.00">/ETH&#45;Zurich/Projects/Weighted&#45;Flooding</text>
<text text-anchor="middle" x="1423" y="-363.4" font-family="Helvetica,sans-Serif" font-size="12.00">&#45;Simulator/include/abstract_receive_protocol_simulator.h</text>
</a>
</g>
</g>
<!-- Node10&#45;&gt;Node11 -->
<g id="edge10" class="edge">
<title>Node10&#45;&gt;Node11</title>
<path fill="none" stroke="midnightblue" d="M1358.85,-439.63C1371.79,-427.71 1386.5,-414.14 1398.57,-403.02"/>
<polygon fill="midnightblue" stroke="midnightblue" points="1356.45,-437.09 1351.47,-446.44 1361.2,-442.23 1356.45,-437.09"/>
</g>
<!-- Node19 -->
<g id="node19" class="node">
<title>Node19</title>
<g id="a_node19"><a xlink:href="../../d9/d95/abstract__send__protocol__simulator_8h.html" target="_top" xlink:title=" ">
<polygon fill="white" stroke="black" points="1645,-356 1645,-403 1985,-403 1985,-356 1645,-356"/>
<text text-anchor="start" x="1653" y="-389.4" font-family="Helvetica,sans-Serif" font-size="12.00">/home/guilhermemtr/Dropbox/workspace</text>
<text text-anchor="start" x="1653" y="-376.4" font-family="Helvetica,sans-Serif" font-size="12.00">/ETH&#45;Zurich/Projects/Weighted&#45;Flooding</text>
<text text-anchor="middle" x="1815" y="-363.4" font-family="Helvetica,sans-Serif" font-size="12.00">&#45;Simulator/include/abstract_send_protocol_simulator.h</text>
</a>
</g>
</g>
<!-- Node10&#45;&gt;Node19 -->
<g id="edge21" class="edge">
<title>Node10&#45;&gt;Node19</title>
<path fill="none" stroke="midnightblue" d="M1461.1,-444.68C1532.8,-431.68 1620.5,-415.77 1690.67,-403.05"/>
<polygon fill="midnightblue" stroke="midnightblue" points="1460.3,-441.27 1451.09,-446.5 1461.55,-448.16 1460.3,-441.27"/>
</g>
<!-- Node25 -->
<g id="node25" class="node">
<title>Node25</title>
<g id="a_node25"><a xlink:href="../../de/de3/corruptions__stake__protocol__simulator_8cc.html" target="_top" xlink:title=" ">
<polygon fill="white" stroke="black" points="964.5,-349.5 964.5,-409.5 1227.5,-409.5 1227.5,-349.5 964.5,-349.5"/>
<text text-anchor="start" x="972.5" y="-395.9" font-family="Helvetica,sans-Serif" font-size="12.00">/home/guilhermemtr/Dropbox/workspace</text>
<text text-anchor="start" x="972.5" y="-382.9" font-family="Helvetica,sans-Serif" font-size="12.00">/ETH&#45;Zurich/Projects/Weighted&#45;Flooding</text>
<text text-anchor="start" x="972.5" y="-369.9" font-family="Helvetica,sans-Serif" font-size="12.00">&#45;Simulator/src/corruptions_stake_protocol</text>
<text text-anchor="middle" x="1096" y="-356.9" font-family="Helvetica,sans-Serif" font-size="12.00">_simulator.cc</text>
</a>
</g>
</g>
<!-- Node10&#45;&gt;Node25 -->
<g id="edge31" class="edge">
<title>Node10&#45;&gt;Node25</title>
<path fill="none" stroke="midnightblue" d="M1258.65,-442.81C1231.35,-432.36 1199.82,-420.27 1171.82,-409.55"/>
<polygon fill="midnightblue" stroke="midnightblue" points="1257.52,-446.13 1268.11,-446.44 1260.03,-439.59 1257.52,-446.13"/>
</g>
<!-- Node12 -->
<g id="node12" class="node">
<title>Node12</title>
<g id="a_node12"><a xlink:href="../../da/dd8/receiver__protocol__simulator_8h.html" target="_top" xlink:title=" ">
<polygon fill="white" stroke="black" points="1466.5,-259 1466.5,-306 1771.5,-306 1771.5,-259 1466.5,-259"/>
<text text-anchor="start" x="1474.5" y="-292.4" font-family="Helvetica,sans-Serif" font-size="12.00">/home/guilhermemtr/Dropbox/workspace</text>
<text text-anchor="start" x="1474.5" y="-279.4" font-family="Helvetica,sans-Serif" font-size="12.00">/ETH&#45;Zurich/Projects/Weighted&#45;Flooding</text>
<text text-anchor="middle" x="1619" y="-266.4" font-family="Helvetica,sans-Serif" font-size="12.00">&#45;Simulator/include/receiver_protocol_simulator.h</text>
</a>
</g>
</g>
<!-- Node11&#45;&gt;Node12 -->
<g id="edge11" class="edge">
<title>Node11&#45;&gt;Node12</title>
<path fill="none" stroke="midnightblue" d="M1478.83,-351.44C1508.46,-337.08 1544.45,-319.63 1572.54,-306.02"/>
<polygon fill="midnightblue" stroke="midnightblue" points="1476.92,-348.48 1469.45,-355.99 1479.97,-354.77 1476.92,-348.48"/>
</g>
<!-- Node18 -->
<g id="node18" class="node">
<title>Node18</title>
<g id="a_node18"><a xlink:href="../../de/d4e/abstract__receive__protocol__simulator_8cc.html" target="_top" xlink:title=" ">
<polygon fill="white" stroke="black" points="884,-252.5 884,-312.5 1146,-312.5 1146,-252.5 884,-252.5"/>
<text text-anchor="start" x="892" y="-298.9" font-family="Helvetica,sans-Serif" font-size="12.00">/home/guilhermemtr/Dropbox/workspace</text>
<text text-anchor="start" x="892" y="-285.9" font-family="Helvetica,sans-Serif" font-size="12.00">/ETH&#45;Zurich/Projects/Weighted&#45;Flooding</text>
<text text-anchor="start" x="892" y="-272.9" font-family="Helvetica,sans-Serif" font-size="12.00">&#45;Simulator/src/abstract_receive_protocol</text>
<text text-anchor="middle" x="1015" y="-259.9" font-family="Helvetica,sans-Serif" font-size="12.00">_simulator.cc</text>
</a>
</g>
</g>
<!-- Node11&#45;&gt;Node18 -->
<g id="edge20" class="edge">
<title>Node11&#45;&gt;Node18</title>
<path fill="none" stroke="midnightblue" d="M1316.34,-353.67C1262.2,-341.06 1196.1,-325.67 1139.62,-312.52"/>
<polygon fill="midnightblue" stroke="midnightblue" points="1315.78,-357.13 1326.31,-355.99 1317.36,-350.31 1315.78,-357.13"/>
</g>
<!-- Node12&#45;&gt;Node4 -->
<g id="edge19" class="edge">
<title>Node12&#45;&gt;Node4</title>
<path fill="none" stroke="midnightblue" d="M1580.28,-252.41C1566.71,-241.54 1551.69,-228.74 1539,-216 1519.6,-196.53 1524.22,-181 1500,-168 1420.61,-125.37 1178.16,-113.35 1025.07,-110.08"/>
<polygon fill="midnightblue" stroke="midnightblue" points="1578.49,-255.46 1588.51,-258.9 1582.83,-249.96 1578.49,-255.46"/>
</g>
<!-- Node13 -->
<g id="node13" class="node">
<title>Node13</title>
<g id="a_node13"><a xlink:href="../../dc/da4/hybrid__k__out__protocol__simulator_8h.html" target="_top" xlink:title=" ">
<polygon fill="white" stroke="black" points="1897,-168.5 1897,-215.5 2229,-215.5 2229,-168.5 1897,-168.5"/>
<text text-anchor="start" x="1905" y="-201.9" font-family="Helvetica,sans-Serif" font-size="12.00">/home/guilhermemtr/Dropbox/workspace</text>
<text text-anchor="start" x="1905" y="-188.9" font-family="Helvetica,sans-Serif" font-size="12.00">/ETH&#45;Zurich/Projects/Weighted&#45;Flooding</text>
<text text-anchor="middle" x="2063" y="-175.9" font-family="Helvetica,sans-Serif" font-size="12.00">&#45;Simulator/include/hybrid_k_out_protocol_simulator.h</text>
</a>
</g>
</g>
<!-- Node12&#45;&gt;Node13 -->
<g id="edge12" class="edge">
<title>Node12&#45;&gt;Node13</title>
<path fill="none" stroke="midnightblue" d="M1741.81,-257.02C1806.89,-244.05 1886.3,-228.22 1949.88,-215.55"/>
<polygon fill="midnightblue" stroke="midnightblue" points="1741.02,-253.61 1731.9,-259 1742.39,-260.47 1741.02,-253.61"/>
</g>
<!-- Node15 -->
<g id="node15" class="node">
<title>Node15</title>
<g id="a_node15"><a xlink:href="../../de/dc2/hybrid__protocol__simulator_8h.html" target="_top" xlink:title=" ">
<polygon fill="white" stroke="black" points="1547.5,-168.5 1547.5,-215.5 1840.5,-215.5 1840.5,-168.5 1547.5,-168.5"/>
<text text-anchor="start" x="1555.5" y="-201.9" font-family="Helvetica,sans-Serif" font-size="12.00">/home/guilhermemtr/Dropbox/workspace</text>
<text text-anchor="start" x="1555.5" y="-188.9" font-family="Helvetica,sans-Serif" font-size="12.00">/ETH&#45;Zurich/Projects/Weighted&#45;Flooding</text>
<text text-anchor="middle" x="1694" y="-175.9" font-family="Helvetica,sans-Serif" font-size="12.00">&#45;Simulator/include/hybrid_protocol_simulator.h</text>
</a>
</g>
</g>
<!-- Node12&#45;&gt;Node15 -->
<g id="edge15" class="edge">
<title>Node12&#45;&gt;Node15</title>
<path fill="none" stroke="midnightblue" d="M1644.88,-250.97C1654.68,-239.4 1665.66,-226.44 1674.75,-215.71"/>
<polygon fill="midnightblue" stroke="midnightblue" points="1642.11,-248.82 1638.31,-258.71 1647.45,-253.34 1642.11,-248.82"/>
</g>
<!-- Node17 -->
<g id="node17" class="node">
<title>Node17</title>
<g id="a_node17"><a xlink:href="../../d8/db4/receiver__protocol__simulator_8cc.html" target="_top" xlink:title=" ">
<polygon fill="white" stroke="black" points="1205.5,-168.5 1205.5,-215.5 1490.5,-215.5 1490.5,-168.5 1205.5,-168.5"/>
<text text-anchor="start" x="1213.5" y="-201.9" font-family="Helvetica,sans-Serif" font-size="12.00">/home/guilhermemtr/Dropbox/workspace</text>
<text text-anchor="start" x="1213.5" y="-188.9" font-family="Helvetica,sans-Serif" font-size="12.00">/ETH&#45;Zurich/Projects/Weighted&#45;Flooding</text>
<text text-anchor="middle" x="1348" y="-175.9" font-family="Helvetica,sans-Serif" font-size="12.00">&#45;Simulator/src/receiver_protocol_simulator.cc</text>
</a>
</g>
</g>
<!-- Node12&#45;&gt;Node17 -->
<g id="edge18" class="edge">
<title>Node12&#45;&gt;Node17</title>
<path fill="none" stroke="midnightblue" d="M1540.17,-255.76C1501.17,-243.02 1454.53,-227.79 1416.96,-215.52"/>
<polygon fill="midnightblue" stroke="midnightblue" points="1539.32,-259.16 1549.91,-258.94 1541.49,-252.51 1539.32,-259.16"/>
</g>
<!-- Node13&#45;&gt;Node4 -->
<g id="edge14" class="edge">
<title>Node13&#45;&gt;Node4</title>
<path fill="none" stroke="midnightblue" d="M1886.85,-168.37C1885.56,-168.24 1884.28,-168.12 1883,-168 1576.23,-139.28 1214.56,-121.87 1025,-114"/>
<polygon fill="midnightblue" stroke="midnightblue" points="1886.51,-171.85 1896.81,-169.35 1887.2,-164.88 1886.51,-171.85"/>
</g>
<!-- Node14 -->
<g id="node14" class="node">
<title>Node14</title>
<g id="a_node14"><a xlink:href="../../da/d60/hybrid__k__out__protocol__simulator_8cc.html" target="_top" xlink:title=" ">
<polygon fill="white" stroke="black" points="1907,-84.5 1907,-131.5 2219,-131.5 2219,-84.5 1907,-84.5"/>
<text text-anchor="start" x="1915" y="-117.9" font-family="Helvetica,sans-Serif" font-size="12.00">/home/guilhermemtr/Dropbox/workspace</text>
<text text-anchor="start" x="1915" y="-104.9" font-family="Helvetica,sans-Serif" font-size="12.00">/ETH&#45;Zurich/Projects/Weighted&#45;Flooding</text>
<text text-anchor="middle" x="2063" y="-91.9" font-family="Helvetica,sans-Serif" font-size="12.00">&#45;Simulator/src/hybrid_k_out_protocol_simulator.cc</text>
</a>
</g>
</g>
<!-- Node13&#45;&gt;Node14 -->
<g id="edge13" class="edge">
<title>Node13&#45;&gt;Node14</title>
<path fill="none" stroke="midnightblue" d="M2063,-158.11C2063,-149.26 2063,-139.88 2063,-131.72"/>
<polygon fill="midnightblue" stroke="midnightblue" points="2059.5,-158.16 2063,-168.16 2066.5,-158.16 2059.5,-158.16"/>
</g>
<!-- Node15&#45;&gt;Node4 -->
<g id="edge17" class="edge">
<title>Node15&#45;&gt;Node4</title>
<path fill="none" stroke="midnightblue" d="M1536.92,-168.46C1535.61,-168.31 1534.3,-168.15 1533,-168 1357.62,-147.39 1154.46,-129.68 1025.15,-119.19"/>
<polygon fill="midnightblue" stroke="midnightblue" points="1536.72,-171.97 1547.07,-169.7 1537.57,-165.02 1536.72,-171.97"/>
</g>
<!-- Node16 -->
<g id="node16" class="node">
<title>Node16</title>
<g id="a_node16"><a xlink:href="../../df/dcd/hybrid__protocol__simulator_8cc.html" target="_top" xlink:title=" ">
<polygon fill="white" stroke="black" points="1557,-84.5 1557,-131.5 1831,-131.5 1831,-84.5 1557,-84.5"/>
<text text-anchor="start" x="1565" y="-117.9" font-family="Helvetica,sans-Serif" font-size="12.00">/home/guilhermemtr/Dropbox/workspace</text>
<text text-anchor="start" x="1565" y="-104.9" font-family="Helvetica,sans-Serif" font-size="12.00">/ETH&#45;Zurich/Projects/Weighted&#45;Flooding</text>
<text text-anchor="middle" x="1694" y="-91.9" font-family="Helvetica,sans-Serif" font-size="12.00">&#45;Simulator/src/hybrid_protocol_simulator.cc</text>
</a>
</g>
</g>
<!-- Node15&#45;&gt;Node16 -->
<g id="edge16" class="edge">
<title>Node15&#45;&gt;Node16</title>
<path fill="none" stroke="midnightblue" d="M1694,-158.11C1694,-149.26 1694,-139.88 1694,-131.72"/>
<polygon fill="midnightblue" stroke="midnightblue" points="1690.5,-158.16 1694,-168.16 1697.5,-158.16 1690.5,-158.16"/>
</g>
<!-- Node20 -->
<g id="node20" class="node">
<title>Node20</title>
<g id="a_node20"><a xlink:href="../../d8/d9d/k__out__protocol__simulator_8h.html" target="_top" xlink:title=" ">
<polygon fill="white" stroke="black" points="2070,-259 2070,-306 2358,-306 2358,-259 2070,-259"/>
<text text-anchor="start" x="2078" y="-292.4" font-family="Helvetica,sans-Serif" font-size="12.00">/home/guilhermemtr/Dropbox/workspace</text>
<text text-anchor="start" x="2078" y="-279.4" font-family="Helvetica,sans-Serif" font-size="12.00">/ETH&#45;Zurich/Projects/Weighted&#45;Flooding</text>
<text text-anchor="middle" x="2214" y="-266.4" font-family="Helvetica,sans-Serif" font-size="12.00">&#45;Simulator/include/k_out_protocol_simulator.h</text>
</a>
</g>
</g>
<!-- Node19&#45;&gt;Node20 -->
<g id="edge22" class="edge">
<title>Node19&#45;&gt;Node20</title>
<path fill="none" stroke="midnightblue" d="M1919.36,-353.65C1981.32,-338.9 2059.27,-320.34 2119.43,-306.02"/>
<polygon fill="midnightblue" stroke="midnightblue" points="1918.47,-350.27 1909.56,-355.99 1920.1,-357.07 1918.47,-350.27"/>
</g>
<!-- Node22 -->
<g id="node22" class="node">
<title>Node22</title>
<g id="a_node22"><a xlink:href="../../d5/d9b/send__protocol__simulator_8h.html" target="_top" xlink:title=" ">
<polygon fill="white" stroke="black" points="1164,-259 1164,-306 1448,-306 1448,-259 1164,-259"/>
<text text-anchor="start" x="1172" y="-292.4" font-family="Helvetica,sans-Serif" font-size="12.00">/home/guilhermemtr/Dropbox/workspace</text>
<text text-anchor="start" x="1172" y="-279.4" font-family="Helvetica,sans-Serif" font-size="12.00">/ETH&#45;Zurich/Projects/Weighted&#45;Flooding</text>
<text text-anchor="middle" x="1306" y="-266.4" font-family="Helvetica,sans-Serif" font-size="12.00">&#45;Simulator/include/send_protocol_simulator.h</text>
</a>
</g>
</g>
<!-- Node19&#45;&gt;Node22 -->
<g id="edge26" class="edge">
<title>Node19&#45;&gt;Node22</title>
<path fill="none" stroke="midnightblue" d="M1680.03,-354.07C1613.21,-341.89 1531.33,-326.84 1458,-313 1446.11,-310.76 1433.71,-308.39 1421.34,-306.01"/>
<polygon fill="midnightblue" stroke="midnightblue" points="1679.74,-357.58 1690.2,-355.93 1680.99,-350.69 1679.74,-357.58"/>
</g>
<!-- Node24 -->
<g id="node24" class="node">
<title>Node24</title>
<g id="a_node24"><a xlink:href="../../db/d9d/abstract__send__protocol__simulator_8cc.html" target="_top" xlink:title=" ">
<polygon fill="white" stroke="black" points="1790,-252.5 1790,-312.5 2052,-312.5 2052,-252.5 1790,-252.5"/>
<text text-anchor="start" x="1798" y="-298.9" font-family="Helvetica,sans-Serif" font-size="12.00">/home/guilhermemtr/Dropbox/workspace</text>
<text text-anchor="start" x="1798" y="-285.9" font-family="Helvetica,sans-Serif" font-size="12.00">/ETH&#45;Zurich/Projects/Weighted&#45;Flooding</text>
<text text-anchor="start" x="1798" y="-272.9" font-family="Helvetica,sans-Serif" font-size="12.00">&#45;Simulator/src/abstract_send_protocol</text>
<text text-anchor="middle" x="1921" y="-259.9" font-family="Helvetica,sans-Serif" font-size="12.00">_simulator.cc</text>
</a>
</g>
</g>
<!-- Node19&#45;&gt;Node24 -->
<g id="edge30" class="edge">
<title>Node19&#45;&gt;Node24</title>
<path fill="none" stroke="midnightblue" d="M1847.88,-349.03C1860.78,-337.47 1875.55,-324.23 1888.43,-312.69"/>
<polygon fill="midnightblue" stroke="midnightblue" points="1845.23,-346.71 1840.12,-355.99 1849.9,-351.92 1845.23,-346.71"/>
</g>
<!-- Node20&#45;&gt;Node4 -->
<g id="edge25" class="edge">
<title>Node20&#45;&gt;Node4</title>
<path fill="none" stroke="midnightblue" d="M2086.8,-256.97C1997.24,-239.54 1892.48,-218.74 1888,-216 1864.8,-201.78 1874.12,-180.6 1850,-168 1814.1,-149.24 1278.88,-124.85 1025.34,-114.28"/>
<polygon fill="midnightblue" stroke="midnightblue" points="2086.32,-260.45 2096.81,-258.92 2087.66,-253.57 2086.32,-260.45"/>
</g>
<!-- Node20&#45;&gt;Node13 -->
<g id="edge23" class="edge">
<title>Node20&#45;&gt;Node13</title>
<path fill="none" stroke="midnightblue" d="M2166.73,-253.8C2145.72,-241.48 2121.29,-227.16 2101.42,-215.52"/>
<polygon fill="midnightblue" stroke="midnightblue" points="2165.11,-256.9 2175.51,-258.94 2168.65,-250.86 2165.11,-256.9"/>
</g>
<!-- Node21 -->
<g id="node21" class="node">
<title>Node21</title>
<g id="a_node21"><a xlink:href="../../dd/d36/k__out__protocol__simulator_8cc.html" target="_top" xlink:title=" ">
<polygon fill="white" stroke="black" points="2247.5,-168.5 2247.5,-215.5 2516.5,-215.5 2516.5,-168.5 2247.5,-168.5"/>
<text text-anchor="start" x="2255.5" y="-201.9" font-family="Helvetica,sans-Serif" font-size="12.00">/home/guilhermemtr/Dropbox/workspace</text>
<text text-anchor="start" x="2255.5" y="-188.9" font-family="Helvetica,sans-Serif" font-size="12.00">/ETH&#45;Zurich/Projects/Weighted&#45;Flooding</text>
<text text-anchor="middle" x="2382" y="-175.9" font-family="Helvetica,sans-Serif" font-size="12.00">&#45;Simulator/src/k_out_protocol_simulator.cc</text>
</a>
</g>
</g>
<!-- Node20&#45;&gt;Node21 -->
<g id="edge24" class="edge">
<title>Node20&#45;&gt;Node21</title>
<path fill="none" stroke="midnightblue" d="M2265.97,-254.13C2289.49,-241.74 2316.95,-227.27 2339.25,-215.52"/>
<polygon fill="midnightblue" stroke="midnightblue" points="2264.04,-251.18 2256.83,-258.94 2267.31,-257.37 2264.04,-251.18"/>
</g>
<!-- Node22&#45;&gt;Node4 -->
<g id="edge29" class="edge">
<title>Node22&#45;&gt;Node4</title>
<path fill="none" stroke="midnightblue" d="M1183.5,-257.09C1173.87,-255.32 1164.28,-253.6 1155,-252 1101.64,-242.81 952.98,-253.58 914,-216 891.55,-194.36 889.73,-156.16 891.28,-131.74"/>
<polygon fill="midnightblue" stroke="midnightblue" points="1183.08,-260.57 1193.55,-258.96 1184.36,-253.69 1183.08,-260.57"/>
</g>
<!-- Node22&#45;&gt;Node15 -->
<g id="edge27" class="edge">
<title>Node22&#45;&gt;Node15</title>
<path fill="none" stroke="midnightblue" d="M1414.72,-256.7C1471.34,-243.79 1540.04,-228.12 1595.14,-215.55"/>
<polygon fill="midnightblue" stroke="midnightblue" points="1413.63,-253.36 1404.66,-259 1415.19,-260.18 1413.63,-253.36"/>
</g>
<!-- Node23 -->
<g id="node23" class="node">
<title>Node23</title>
<g id="a_node23"><a xlink:href="../../d9/d76/send__protocol__simulator_8cc.html" target="_top" xlink:title=" ">
<polygon fill="white" stroke="black" points="922.5,-168.5 922.5,-215.5 1187.5,-215.5 1187.5,-168.5 922.5,-168.5"/>
<text text-anchor="start" x="930.5" y="-201.9" font-family="Helvetica,sans-Serif" font-size="12.00">/home/guilhermemtr/Dropbox/workspace</text>
<text text-anchor="start" x="930.5" y="-188.9" font-family="Helvetica,sans-Serif" font-size="12.00">/ETH&#45;Zurich/Projects/Weighted&#45;Flooding</text>
<text text-anchor="middle" x="1055" y="-175.9" font-family="Helvetica,sans-Serif" font-size="12.00">&#45;Simulator/src/send_protocol_simulator.cc</text>
</a>
</g>
</g>
<!-- Node22&#45;&gt;Node23 -->
<g id="edge28" class="edge">
<title>Node22&#45;&gt;Node23</title>
<path fill="none" stroke="midnightblue" d="M1232.53,-255.6C1196.5,-242.89 1153.52,-227.74 1118.87,-215.52"/>
<polygon fill="midnightblue" stroke="midnightblue" points="1231.42,-258.91 1242.01,-258.94 1233.75,-252.31 1231.42,-258.91"/>
</g>
<!-- Node27&#45;&gt;Node4 -->
<g id="edge35" class="edge">
<title>Node27&#45;&gt;Node4</title>
<path fill="none" stroke="midnightblue" d="M97.1,-525.86C81.8,-517.8 67.6,-507.41 57,-494 25.28,-453.88 38,-431.65 38,-380.5 38,-380.5 38,-380.5 38,-281.5 38,-135.49 522.64,-111.54 762.59,-108.64"/>
<polygon fill="midnightblue" stroke="midnightblue" points="95.69,-529.07 106.21,-530.34 98.78,-522.79 95.69,-529.07"/>
</g>
<!-- Node28 -->
<g id="node28" class="node">
<title>Node28</title>
<g id="a_node28"><a xlink:href="../../db/dd2/io__stake__distribution_8cc.html" target="_top" xlink:title=" ">
<polygon fill="white" stroke="black" points="66,-446.5 66,-493.5 328,-493.5 328,-446.5 66,-446.5"/>
<text text-anchor="start" x="74" y="-479.9" font-family="Helvetica,sans-Serif" font-size="12.00">/home/guilhermemtr/Dropbox/workspace</text>
<text text-anchor="start" x="74" y="-466.9" font-family="Helvetica,sans-Serif" font-size="12.00">/ETH&#45;Zurich/Projects/Weighted&#45;Flooding</text>
<text text-anchor="middle" x="197" y="-453.9" font-family="Helvetica,sans-Serif" font-size="12.00">&#45;Simulator/utils/io_stake_distribution.cc</text>
</a>
</g>
</g>
<!-- Node27&#45;&gt;Node28 -->
<g id="edge34" class="edge">
<title>Node27&#45;&gt;Node28</title>
<path fill="none" stroke="midnightblue" d="M197,-520.11C197,-511.26 197,-501.88 197,-493.72"/>
<polygon fill="midnightblue" stroke="midnightblue" points="193.5,-520.16 197,-530.16 200.5,-520.16 193.5,-520.16"/>
</g>
<!-- Node29&#45;&gt;Node4 -->
<g id="edge38" class="edge">
<title>Node29&#45;&gt;Node4</title>
<path fill="none" stroke="midnightblue" d="M925.55,-525.73C939.55,-517.73 952.12,-507.38 961,-494 1002.85,-430.95 886.85,-353.14 875,-313 856.17,-249.2 874.99,-169.76 886.5,-131.57"/>
<polygon fill="midnightblue" stroke="midnightblue" points="923.87,-522.66 916.66,-530.42 927.14,-528.85 923.87,-522.66"/>
</g>
<!-- Node30 -->
<g id="node30" class="node">
<title>Node30</title>
<g id="a_node30"><a xlink:href="../../d7/d0c/read__args_8cc.html" target="_top" xlink:title=" ">
<polygon fill="white" stroke="black" points="690,-446.5 690,-493.5 952,-493.5 952,-446.5 690,-446.5"/>
<text text-anchor="start" x="698" y="-479.9" font-family="Helvetica,sans-Serif" font-size="12.00">/home/guilhermemtr/Dropbox/workspace</text>
<text text-anchor="start" x="698" y="-466.9" font-family="Helvetica,sans-Serif" font-size="12.00">/ETH&#45;Zurich/Projects/Weighted&#45;Flooding</text>
<text text-anchor="middle" x="821" y="-453.9" font-family="Helvetica,sans-Serif" font-size="12.00">&#45;Simulator/utils/read_args.cc</text>
</a>
</g>
</g>
<!-- Node29&#45;&gt;Node30 -->
<g id="edge39" class="edge">
<title>Node29&#45;&gt;Node30</title>
<path fill="none" stroke="midnightblue" d="M821,-520.11C821,-511.26 821,-501.88 821,-493.72"/>
<polygon fill="midnightblue" stroke="midnightblue" points="817.5,-520.16 821,-530.16 824.5,-520.16 817.5,-520.16"/>
</g>
</g>
</svg>
        <g id="navigator" transform="translate(0 0)" fill="#404254">
                <rect fill="#f2f5e9" fill-opacity="0.5" stroke="#606060" stroke-width=".5" x="0" y="0" width="60" height="60"/>
                <use id="zoomplus" xlink:href="#zoomPlus" x="17" y="9" onmousedown="handleZoom(evt,'in')"/>
                <use id="zoomminus" xlink:href="#zoomMin" x="42" y="9" onmousedown="handleZoom(evt,'out')"/>
                <use id="reset" xlink:href="#resetDef" x="30" y="36" onmousedown="handleReset()"/>
                <g id="arrowUp" xlink:href="#dirArrow" transform="translate(30 24)" onmousedown="handlePan(0,-1)">
                  <use xlink:href="#rim" fill="#404040">
                        <set attributeName="fill" to="#808080" begin="arrowUp.mouseover" end="arrowUp.mouseout"/>
                  </use>
                  <path fill="none" stroke="white" stroke-width="1.5" d="M0,-3.0v7 M-2.5,-0.5L0,-3.0L2.5,-0.5"/>
                </g>
                <g id="arrowRight" xlink:href="#dirArrow" transform="rotate(90) translate(36 -43)" onmousedown="handlePan(1,0)">
                  <use xlink:href="#rim" fill="#404040">
                        <set attributeName="fill" to="#808080" begin="arrowRight.mouseover" end="arrowRight.mouseout"/>
                  </use>
                  <path fill="none" stroke="white" stroke-width="1.5" d="M0,-3.0v7 M-2.5,-0.5L0,-3.0L2.5,-0.5"/>
                </g>
                <g id="arrowDown" xlink:href="#dirArrow" transform="rotate(180) translate(-30 -48)" onmousedown="handlePan(0,1)">
                  <use xlink:href="#rim" fill="#404040">
                        <set attributeName="fill" to="#808080" begin="arrowDown.mouseover" end="arrowDown.mouseout"/>
                  </use>
                  <path fill="none" stroke="white" stroke-width="1.5" d="M0,-3.0v7 M-2.5,-0.5L0,-3.0L2.5,-0.5"/>
                </g>
                <g id="arrowLeft" xlink:href="#dirArrow" transform="rotate(270) translate(-36 17)" onmousedown="handlePan(-1,0)">
                  <use xlink:href="#rim" fill="#404040">
                        <set attributeName="fill" to="#808080" begin="arrowLeft.mouseover" end="arrowLeft.mouseout"/>
                  </use>
                  <path fill="none" stroke="white" stroke-width="1.5" d="M0,-3.0v7 M-2.5,-0.5L0,-3.0L2.5,-0.5"/>
                </g>
        </g>
        <svg viewBox="0 0 15 15" width="100%" height="30px" preserveAspectRatio="xMaxYMin meet">
         <g id="arrow_out" transform="scale(0.3 0.3)">
          <a xlink:href="types_8h__dep__incl_org.svg" target="_base">
           <rect id="button" ry="5" rx="5" y="6" x="6" height="38" width="38"
                fill="#f2f5e9" fill-opacity="0.5" stroke="#606060" stroke-width="1.0"/>
           <path id="arrow"
             d="M 11.500037,31.436501 C 11.940474,20.09759 22.043105,11.32322 32.158766,21.979434 L 37.068811,17.246167 C 37.068811,17.246167 37.088388,32 37.088388,32 L 22.160133,31.978069 C 22.160133,31.978069 26.997745,27.140456 26.997745,27.140456 C 18.528582,18.264221 13.291696,25.230495 11.500037,31.436501 z"
             style="fill:#404040;"/>
          </a>
         </g>
        </svg>
</svg>
