<?xml version="1.0" encoding="UTF-8" standalone="no"?>
<!DOCTYPE svg PUBLIC "-//W3C//DTD SVG 1.1//EN"
 "http://www.w3.org/Graphics/SVG/1.1/DTD/svg11.dtd">
<!-- Generated by graphviz version 5.0.0 (0)
 -->
<!-- Title: utils/io_stake_distribution.h Pages: 1 -->
<svg width="418pt" height="146pt"
 viewBox="0.00 0.00 418.00 146.00" xmlns="http://www.w3.org/2000/svg" xmlns:xlink="http://www.w3.org/1999/xlink">
<g id="graph0" class="graph" transform="scale(1 1) rotate(0) translate(4 142)">
<title>utils/io_stake_distribution.h</title>
<polygon fill="white" stroke="transparent" points="-4,4 -4,-142 414,-142 414,4 -4,4"/>
<!-- Node1 -->
<g id="node1" class="node">
<title>Node1</title>
<g id="a_node1"><a xlink:title=" ">
<polygon fill="#bfbfbf" stroke="black" points="94,-116.5 94,-137.5 271,-137.5 271,-116.5 94,-116.5"/>
<text text-anchor="middle" x="182.5" y="-123.9" font-family="Helvetica,sans-Serif" font-size="12.00">utils/io_stake_distribution.h</text>
</a>
</g>
</g>
<!-- Node2 -->
<g id="node2" class="node">
<title>Node2</title>
<g id="a_node2"><a xlink:title=" ">
<polygon fill="white" stroke="#bfbfbf" points="0,-58.5 0,-79.5 69,-79.5 69,-58.5 0,-58.5"/>
<text text-anchor="middle" x="34.5" y="-65.9" font-family="Helvetica,sans-Serif" font-size="12.00">iostream</text>
</a>
</g>
</g>
<!-- Node1&#45;&gt;Node2 -->
<g id="edge1" class="edge">
<title>Node1&#45;&gt;Node2</title>
<path fill="none" stroke="midnightblue" d="M157.06,-116.37C132.77,-107.18 95.98,-93.26 69.05,-83.07"/>
<polygon fill="midnightblue" stroke="midnightblue" points="70.2,-79.77 59.61,-79.5 67.72,-86.31 70.2,-79.77"/>
</g>
<!-- Node3 -->
<g id="node3" class="node">
<title>Node3</title>
<g id="a_node3"><a xlink:title=" ">
<polygon fill="white" stroke="#bfbfbf" points="87.5,-58.5 87.5,-79.5 139.5,-79.5 139.5,-58.5 87.5,-58.5"/>
<text text-anchor="middle" x="113.5" y="-65.9" font-family="Helvetica,sans-Serif" font-size="12.00">cstdio</text>
</a>
</g>
</g>
<!-- Node1&#45;&gt;Node3 -->
<g id="edge2" class="edge">
<title>Node1&#45;&gt;Node3</title>
<path fill="none" stroke="midnightblue" d="M170.48,-116.25C160.29,-107.97 145.46,-95.94 133.49,-86.22"/>
<polygon fill="midnightblue" stroke="midnightblue" points="135.35,-83.23 125.38,-79.64 130.94,-88.66 135.35,-83.23"/>
</g>
<!-- Node4 -->
<g id="node4" class="node">
<title>Node4</title>
<g id="a_node4"><a xlink:title=" ">
<polygon fill="white" stroke="#bfbfbf" points="157.5,-58.5 157.5,-79.5 207.5,-79.5 207.5,-58.5 157.5,-58.5"/>
<text text-anchor="middle" x="182.5" y="-65.9" font-family="Helvetica,sans-Serif" font-size="12.00">string</text>
</a>
</g>
</g>
<!-- Node1&#45;&gt;Node4 -->
<g id="edge3" class="edge">
<title>Node1&#45;&gt;Node4</title>
<path fill="none" stroke="midnightblue" d="M182.5,-116.25C182.5,-108.94 182.5,-98.69 182.5,-89.7"/>
<polygon fill="midnightblue" stroke="midnightblue" points="186,-89.64 182.5,-79.64 179,-89.64 186,-89.64"/>
</g>
<!-- Node5 -->
<g id="node5" class="node">
<title>Node5</title>
<g id="a_node5"><a xlink:title=" ">
<polygon fill="white" stroke="#bfbfbf" points="203,-0.5 203,-21.5 258,-21.5 258,-0.5 203,-0.5"/>
<text text-anchor="middle" x="230.5" y="-7.9" font-family="Helvetica,sans-Serif" font-size="12.00">vector</text>
</a>
</g>
</g>
<!-- Node1&#45;&gt;Node5 -->
<g id="edge4" class="edge">
<title>Node1&#45;&gt;Node5</title>
<path fill="none" stroke="midnightblue" d="M191.73,-116.22C199.52,-107.42 210.35,-93.78 216.5,-80 223.4,-64.54 226.94,-45.58 228.74,-31.61"/>
<polygon fill="midnightblue" stroke="midnightblue" points="232.22,-31.96 229.83,-21.63 225.26,-31.19 232.22,-31.96"/>
</g>
<!-- Node6 -->
<g id="node6" class="node">
<title>Node6</title>
<g id="a_node6"><a xlink:href="../../d9/d49/types_8h.html" target="_top" xlink:title=" ">
<polygon fill="white" stroke="black" points="272.5,-58.5 272.5,-79.5 332.5,-79.5 332.5,-58.5 272.5,-58.5"/>
<text text-anchor="middle" x="302.5" y="-65.9" font-family="Helvetica,sans-Serif" font-size="12.00">types.h</text>
</a>
</g>
</g>
<!-- Node1&#45;&gt;Node6 -->
<g id="edge5" class="edge">
<title>Node1&#45;&gt;Node6</title>
<path fill="none" stroke="midnightblue" d="M203.13,-116.37C222.39,-107.38 251.35,-93.87 273.04,-83.75"/>
<polygon fill="midnightblue" stroke="midnightblue" points="274.56,-86.9 282.14,-79.5 271.6,-80.56 274.56,-86.9"/>
</g>
<!-- Node6&#45;&gt;Node5 -->
<g id="edge6" class="edge">
<title>Node6&#45;&gt;Node5</title>
<path fill="none" stroke="midnightblue" d="M289.96,-58.25C279.22,-49.89 263.55,-37.71 251,-27.94"/>
<polygon fill="midnightblue" stroke="midnightblue" points="252.94,-25.02 242.9,-21.64 248.64,-30.54 252.94,-25.02"/>
</g>
<!-- Node7 -->
<g id="node7" class="node">
<title>Node7</title>
<g id="a_node7"><a xlink:title=" ">
<polygon fill="white" stroke="#bfbfbf" points="276,-0.5 276,-21.5 337,-21.5 337,-0.5 276,-0.5"/>
<text text-anchor="middle" x="306.5" y="-7.9" font-family="Helvetica,sans-Serif" font-size="12.00">cstddef</text>
</a>
</g>
</g>
<!-- Node6&#45;&gt;Node7 -->
<g id="edge7" class="edge">
<title>Node6&#45;&gt;Node7</title>
<path fill="none" stroke="midnightblue" d="M303.2,-58.25C303.72,-50.94 304.45,-40.69 305.09,-31.7"/>
<polygon fill="midnightblue" stroke="midnightblue" points="308.59,-31.87 305.81,-21.64 301.61,-31.37 308.59,-31.87"/>
</g>
<!-- Node8 -->
<g id="node8" class="node">
<title>Node8</title>
<g id="a_node8"><a xlink:title=" ">
<polygon fill="white" stroke="#bfbfbf" points="355,-0.5 355,-21.5 410,-21.5 410,-0.5 355,-0.5"/>
<text text-anchor="middle" x="382.5" y="-7.9" font-family="Helvetica,sans-Serif" font-size="12.00">climits</text>
</a>
</g>
</g>
<!-- Node6&#45;&gt;Node8 -->
<g id="edge8" class="edge">
<title>Node6&#45;&gt;Node8</title>
<path fill="none" stroke="midnightblue" d="M316.43,-58.25C328.59,-49.73 346.45,-37.24 360.53,-27.38"/>
<polygon fill="midnightblue" stroke="midnightblue" points="362.54,-30.24 368.72,-21.64 358.53,-24.51 362.54,-30.24"/>
</g>
</g>
</svg>
