<?xml version="1.0" encoding="UTF-8" standalone="no"?>
<!DOCTYPE svg PUBLIC "-//W3C//DTD SVG 1.1//EN"
 "http://www.w3.org/Graphics/SVG/1.1/DTD/svg11.dtd">
<!-- Generated by graphviz version 5.0.0 (0)
 -->
<!-- Title: /home/guilhermemtr/Dropbox/workspace/ETH&#45;Zurich/Projects/Weighted&#45;Flooding&#45;Simulator/utils/io_stake_distribution.h Pages: 1 -->
<svg width="418pt" height="172pt"
 viewBox="0.00 0.00 418.00 172.00" xmlns="http://www.w3.org/2000/svg" xmlns:xlink="http://www.w3.org/1999/xlink">
<g id="graph0" class="graph" transform="scale(1 1) rotate(0) translate(4 168)">
<title>/home/guilhermemtr/Dropbox/workspace/ETH&#45;Zurich/Projects/Weighted&#45;Flooding&#45;Simulator/utils/io_stake_distribution.h</title>
<polygon fill="white" stroke="transparent" points="-4,4 -4,-168 414,-168 414,4 -4,4"/>
<!-- Node1 -->
<g id="node1" class="node">
<title>Node1</title>
<g id="a_node1"><a xlink:title=" ">
<polygon fill="#bfbfbf" stroke="black" points="51.5,-116.5 51.5,-163.5 313.5,-163.5 313.5,-116.5 51.5,-116.5"/>
<text text-anchor="start" x="59.5" y="-149.9" font-family="Helvetica,sans-Serif" font-size="12.00">/home/guilhermemtr/Dropbox/workspace</text>
<text text-anchor="start" x="59.5" y="-136.9" font-family="Helvetica,sans-Serif" font-size="12.00">/ETH&#45;Zurich/Projects/Weighted&#45;Flooding</text>
<text text-anchor="middle" x="182.5" y="-123.9" font-family="Helvetica,sans-Serif" font-size="12.00">&#45;Simulator/utils/io_stake_distribution.h</text>
</a>
</g>
</g>
<!-- Node2 -->
<g id="node2" class="node">
<title>Node2</title>
<g id="a_node2"><a xlink:title=" ">
<polygon fill="white" stroke="#bfbfbf" points="0,-58.5 0,-79.5 69,-79.5 69,-58.5 0,-58.5"/>
<text text-anchor="middle" x="34.5" y="-65.9" font-family="Helvetica,sans-Serif" font-size="12.00">iostream</text>
</a>
</g>
</g>
<!-- Node1&#45;&gt;Node2 -->
<g id="edge1" class="edge">
<title>Node1&#45;&gt;Node2</title>
<path fill="none" stroke="midnightblue" d="M134.04,-116.41C111,-105.67 84.2,-93.17 64.21,-83.85"/>
<polygon fill="midnightblue" stroke="midnightblue" points="65.54,-80.61 55,-79.56 62.58,-86.95 65.54,-80.61"/>
</g>
<!-- Node3 -->
<g id="node3" class="node">
<title>Node3</title>
<g id="a_node3"><a xlink:title=" ">
<polygon fill="white" stroke="#bfbfbf" points="87.5,-58.5 87.5,-79.5 139.5,-79.5 139.5,-58.5 87.5,-58.5"/>
<text text-anchor="middle" x="113.5" y="-65.9" font-family="Helvetica,sans-Serif" font-size="12.00">cstdio</text>
</a>
</g>
</g>
<!-- Node1&#45;&gt;Node3 -->
<g id="edge2" class="edge">
<title>Node1&#45;&gt;Node3</title>
<path fill="none" stroke="midnightblue" d="M159.91,-116.41C150.3,-106.8 139.29,-95.79 130.41,-86.91"/>
<polygon fill="midnightblue" stroke="midnightblue" points="132.78,-84.33 123.24,-79.74 127.83,-89.28 132.78,-84.33"/>
</g>
<!-- Node4 -->
<g id="node4" class="node">
<title>Node4</title>
<g id="a_node4"><a xlink:title=" ">
<polygon fill="white" stroke="#bfbfbf" points="157.5,-58.5 157.5,-79.5 207.5,-79.5 207.5,-58.5 157.5,-58.5"/>
<text text-anchor="middle" x="182.5" y="-65.9" font-family="Helvetica,sans-Serif" font-size="12.00">string</text>
</a>
</g>
</g>
<!-- Node1&#45;&gt;Node4 -->
<g id="edge3" class="edge">
<title>Node1&#45;&gt;Node4</title>
<path fill="none" stroke="midnightblue" d="M182.5,-116.41C182.5,-107.87 182.5,-98.22 182.5,-89.94"/>
<polygon fill="midnightblue" stroke="midnightblue" points="186,-89.74 182.5,-79.74 179,-89.74 186,-89.74"/>
</g>
<!-- Node5 -->
<g id="node5" class="node">
<title>Node5</title>
<g id="a_node5"><a xlink:title=" ">
<polygon fill="white" stroke="#bfbfbf" points="203,-0.5 203,-21.5 258,-21.5 258,-0.5 203,-0.5"/>
<text text-anchor="middle" x="230.5" y="-7.9" font-family="Helvetica,sans-Serif" font-size="12.00">vector</text>
</a>
</g>
</g>
<!-- Node1&#45;&gt;Node5 -->
<g id="edge4" class="edge">
<title>Node1&#45;&gt;Node5</title>
<path fill="none" stroke="midnightblue" d="M197.86,-116.31C204.45,-105.68 211.72,-92.6 216.5,-80 222.45,-64.33 226.07,-45.62 228.13,-31.79"/>
<polygon fill="midnightblue" stroke="midnightblue" points="231.65,-31.88 229.51,-21.51 224.71,-30.95 231.65,-31.88"/>
</g>
<!-- Node6 -->
<g id="node6" class="node">
<title>Node6</title>
<g id="a_node6"><a xlink:href="../../d9/d49/types_8h.html" target="_top" xlink:title=" ">
<polygon fill="white" stroke="black" points="272.5,-58.5 272.5,-79.5 332.5,-79.5 332.5,-58.5 272.5,-58.5"/>
<text text-anchor="middle" x="302.5" y="-65.9" font-family="Helvetica,sans-Serif" font-size="12.00">types.h</text>
</a>
</g>
</g>
<!-- Node1&#45;&gt;Node6 -->
<g id="edge5" class="edge">
<title>Node1&#45;&gt;Node6</title>
<path fill="none" stroke="midnightblue" d="M221.79,-116.41C239.96,-105.96 261.02,-93.85 277.07,-84.62"/>
<polygon fill="midnightblue" stroke="midnightblue" points="278.96,-87.57 285.88,-79.56 275.47,-81.51 278.96,-87.57"/>
</g>
<!-- Node6&#45;&gt;Node5 -->
<g id="edge6" class="edge">
<title>Node6&#45;&gt;Node5</title>
<path fill="none" stroke="midnightblue" d="M289.96,-58.25C279.22,-49.89 263.55,-37.71 251,-27.94"/>
<polygon fill="midnightblue" stroke="midnightblue" points="252.94,-25.02 242.9,-21.64 248.64,-30.54 252.94,-25.02"/>
</g>
<!-- Node7 -->
<g id="node7" class="node">
<title>Node7</title>
<g id="a_node7"><a xlink:title=" ">
<polygon fill="white" stroke="#bfbfbf" points="276,-0.5 276,-21.5 337,-21.5 337,-0.5 276,-0.5"/>
<text text-anchor="middle" x="306.5" y="-7.9" font-family="Helvetica,sans-Serif" font-size="12.00">cstddef</text>
</a>
</g>
</g>
<!-- Node6&#45;&gt;Node7 -->
<g id="edge7" class="edge">
<title>Node6&#45;&gt;Node7</title>
<path fill="none" stroke="midnightblue" d="M303.2,-58.25C303.72,-50.94 304.45,-40.69 305.09,-31.7"/>
<polygon fill="midnightblue" stroke="midnightblue" points="308.59,-31.87 305.81,-21.64 301.61,-31.37 308.59,-31.87"/>
</g>
<!-- Node8 -->
<g id="node8" class="node">
<title>Node8</title>
<g id="a_node8"><a xlink:title=" ">
<polygon fill="white" stroke="#bfbfbf" points="355,-0.5 355,-21.5 410,-21.5 410,-0.5 355,-0.5"/>
<text text-anchor="middle" x="382.5" y="-7.9" font-family="Helvetica,sans-Serif" font-size="12.00">climits</text>
</a>
</g>
</g>
<!-- Node6&#45;&gt;Node8 -->
<g id="edge8" class="edge">
<title>Node6&#45;&gt;Node8</title>
<path fill="none" stroke="midnightblue" d="M316.43,-58.25C328.59,-49.73 346.45,-37.24 360.53,-27.38"/>
<polygon fill="midnightblue" stroke="midnightblue" points="362.54,-30.24 368.72,-21.64 358.53,-24.51 362.54,-30.24"/>
</g>
</g>
</svg>
