<?xml version="1.0" encoding="UTF-8" standalone="no"?>
<!DOCTYPE svg PUBLIC "-//W3C//DTD SVG 1.1//EN"
 "http://www.w3.org/Graphics/SVG/1.1/DTD/svg11.dtd">
<!-- Generated by graphviz version 5.0.0 (0)
 -->
<!-- Title: /home/guilhermemtr/Dropbox/workspace/ETH&#45;Zurich/Projects/Weighted&#45;Flooding&#45;Simulator/src/random_utils.cc Pages: 1 -->
<svg width="539pt" height="230pt"
 viewBox="0.00 0.00 538.50 230.00" xmlns="http://www.w3.org/2000/svg" xmlns:xlink="http://www.w3.org/1999/xlink">
<g id="graph0" class="graph" transform="scale(1 1) rotate(0) translate(4 226)">
<title>/home/guilhermemtr/Dropbox/workspace/ETH&#45;Zurich/Projects/Weighted&#45;Flooding&#45;Simulator/src/random_utils.cc</title>
<polygon fill="white" stroke="transparent" points="-4,4 -4,-226 534.5,-226 534.5,4 -4,4"/>
<!-- Node1 -->
<g id="node1" class="node">
<title>Node1</title>
<g id="a_node1"><a xlink:title=" ">
<polygon fill="#bfbfbf" stroke="black" points="102,-174.5 102,-221.5 364,-221.5 364,-174.5 102,-174.5"/>
<text text-anchor="start" x="110" y="-207.9" font-family="Helvetica,sans-Serif" font-size="12.00">/home/guilhermemtr/Dropbox/workspace</text>
<text text-anchor="start" x="110" y="-194.9" font-family="Helvetica,sans-Serif" font-size="12.00">/ETH&#45;Zurich/Projects/Weighted&#45;Flooding</text>
<text text-anchor="middle" x="233" y="-181.9" font-family="Helvetica,sans-Serif" font-size="12.00">&#45;Simulator/src/random_utils.cc</text>
</a>
</g>
</g>
<!-- Node2 -->
<g id="node2" class="node">
<title>Node2</title>
<g id="a_node2"><a xlink:href="../../d6/d74/random__utils_8h.html" target="_top" xlink:title=" ">
<polygon fill="white" stroke="black" points="180.5,-116.5 180.5,-137.5 285.5,-137.5 285.5,-116.5 180.5,-116.5"/>
<text text-anchor="middle" x="233" y="-123.9" font-family="Helvetica,sans-Serif" font-size="12.00">random_utils.h</text>
</a>
</g>
</g>
<!-- Node1&#45;&gt;Node2 -->
<g id="edge1" class="edge">
<title>Node1&#45;&gt;Node2</title>
<path fill="none" stroke="midnightblue" d="M233,-174.41C233,-165.87 233,-156.22 233,-147.94"/>
<polygon fill="midnightblue" stroke="midnightblue" points="236.5,-147.74 233,-137.74 229.5,-147.74 236.5,-147.74"/>
</g>
<!-- Node3 -->
<g id="node3" class="node">
<title>Node3</title>
<g id="a_node3"><a xlink:title=" ">
<polygon fill="white" stroke="#bfbfbf" points="0,-58.5 0,-79.5 64,-79.5 64,-58.5 0,-58.5"/>
<text text-anchor="middle" x="32" y="-65.9" font-family="Helvetica,sans-Serif" font-size="12.00">random</text>
</a>
</g>
</g>
<!-- Node2&#45;&gt;Node3 -->
<g id="edge2" class="edge">
<title>Node2&#45;&gt;Node3</title>
<path fill="none" stroke="midnightblue" d="M198.45,-116.37C163.97,-106.77 110.97,-92 74.07,-81.72"/>
<polygon fill="midnightblue" stroke="midnightblue" points="74.69,-78.26 64.11,-78.95 72.81,-85 74.69,-78.26"/>
</g>
<!-- Node4 -->
<g id="node4" class="node">
<title>Node4</title>
<g id="a_node4"><a xlink:title=" ">
<polygon fill="white" stroke="#bfbfbf" points="82,-58.5 82,-79.5 184,-79.5 184,-58.5 82,-58.5"/>
<text text-anchor="middle" x="133" y="-65.9" font-family="Helvetica,sans-Serif" font-size="12.00">unordered_set</text>
</a>
</g>
</g>
<!-- Node2&#45;&gt;Node4 -->
<g id="edge3" class="edge">
<title>Node2&#45;&gt;Node4</title>
<path fill="none" stroke="midnightblue" d="M215.58,-116.25C199.95,-107.49 176.8,-94.53 158.98,-84.55"/>
<polygon fill="midnightblue" stroke="midnightblue" points="160.65,-81.47 150.22,-79.64 157.23,-87.58 160.65,-81.47"/>
</g>
<!-- Node5 -->
<g id="node5" class="node">
<title>Node5</title>
<g id="a_node5"><a xlink:title=" ">
<polygon fill="white" stroke="#bfbfbf" points="202,-58.5 202,-79.5 264,-79.5 264,-58.5 202,-58.5"/>
<text text-anchor="middle" x="233" y="-65.9" font-family="Helvetica,sans-Serif" font-size="12.00">string.h</text>
</a>
</g>
</g>
<!-- Node2&#45;&gt;Node5 -->
<g id="edge4" class="edge">
<title>Node2&#45;&gt;Node5</title>
<path fill="none" stroke="midnightblue" d="M233,-116.25C233,-108.94 233,-98.69 233,-89.7"/>
<polygon fill="midnightblue" stroke="midnightblue" points="236.5,-89.64 233,-79.64 229.5,-89.64 236.5,-89.64"/>
</g>
<!-- Node6 -->
<g id="node6" class="node">
<title>Node6</title>
<g id="a_node6"><a xlink:href="../../d0/d70/yal__log_8h.html" target="_top" xlink:title=" ">
<polygon fill="white" stroke="black" points="282.5,-58.5 282.5,-79.5 351.5,-79.5 351.5,-58.5 282.5,-58.5"/>
<text text-anchor="middle" x="317" y="-65.9" font-family="Helvetica,sans-Serif" font-size="12.00">yal_log.h</text>
</a>
</g>
</g>
<!-- Node2&#45;&gt;Node6 -->
<g id="edge5" class="edge">
<title>Node2&#45;&gt;Node6</title>
<path fill="none" stroke="midnightblue" d="M247.63,-116.25C260.4,-107.73 279.14,-95.24 293.93,-85.38"/>
<polygon fill="midnightblue" stroke="midnightblue" points="296.16,-88.1 302.54,-79.64 292.27,-82.28 296.16,-88.1"/>
</g>
<!-- Node8 -->
<g id="node8" class="node">
<title>Node8</title>
<g id="a_node8"><a xlink:href="../../da/d10/scoped__lock_8h.html" target="_top" xlink:title=" ">
<polygon fill="white" stroke="black" points="369.5,-58.5 369.5,-79.5 470.5,-79.5 470.5,-58.5 369.5,-58.5"/>
<text text-anchor="middle" x="420" y="-65.9" font-family="Helvetica,sans-Serif" font-size="12.00">scoped_lock.h</text>
</a>
</g>
</g>
<!-- Node2&#45;&gt;Node8 -->
<g id="edge7" class="edge">
<title>Node2&#45;&gt;Node8</title>
<path fill="none" stroke="midnightblue" d="M265.15,-116.37C296.51,-106.98 344.37,-92.65 378.57,-82.41"/>
<polygon fill="midnightblue" stroke="midnightblue" points="379.7,-85.72 388.27,-79.5 377.69,-79.02 379.7,-85.72"/>
</g>
<!-- Node7 -->
<g id="node7" class="node">
<title>Node7</title>
<g id="a_node7"><a xlink:title=" ">
<polygon fill="white" stroke="#bfbfbf" points="289,-0.5 289,-21.5 345,-21.5 345,-0.5 289,-0.5"/>
<text text-anchor="middle" x="317" y="-7.9" font-family="Helvetica,sans-Serif" font-size="12.00">stdio.h</text>
</a>
</g>
</g>
<!-- Node6&#45;&gt;Node7 -->
<g id="edge6" class="edge">
<title>Node6&#45;&gt;Node7</title>
<path fill="none" stroke="midnightblue" d="M317,-58.25C317,-50.94 317,-40.69 317,-31.7"/>
<polygon fill="midnightblue" stroke="midnightblue" points="320.5,-31.64 317,-21.64 313.5,-31.64 320.5,-31.64"/>
</g>
<!-- Node9 -->
<g id="node9" class="node">
<title>Node9</title>
<g id="a_node9"><a xlink:title=" ">
<polygon fill="white" stroke="#bfbfbf" points="373,-0.5 373,-21.5 447,-21.5 447,-0.5 373,-0.5"/>
<text text-anchor="middle" x="410" y="-7.9" font-family="Helvetica,sans-Serif" font-size="12.00">pthread.h</text>
</a>
</g>
</g>
<!-- Node8&#45;&gt;Node9 -->
<g id="edge8" class="edge">
<title>Node8&#45;&gt;Node9</title>
<path fill="none" stroke="midnightblue" d="M418.26,-58.25C416.95,-50.94 415.12,-40.69 413.52,-31.7"/>
<polygon fill="midnightblue" stroke="midnightblue" points="416.93,-30.87 411.72,-21.64 410.03,-32.1 416.93,-30.87"/>
</g>
<!-- Node10 -->
<g id="node10" class="node">
<title>Node10</title>
<g id="a_node10"><a xlink:title=" ">
<polygon fill="white" stroke="#bfbfbf" points="465.5,-0.5 465.5,-21.5 530.5,-21.5 530.5,-0.5 465.5,-0.5"/>
<text text-anchor="middle" x="498" y="-7.9" font-family="Helvetica,sans-Serif" font-size="12.00">assert.h</text>
</a>
</g>
</g>
<!-- Node8&#45;&gt;Node10 -->
<g id="edge9" class="edge">
<title>Node8&#45;&gt;Node10</title>
<path fill="none" stroke="midnightblue" d="M433.59,-58.25C445.33,-49.81 462.52,-37.47 476.19,-27.66"/>
<polygon fill="midnightblue" stroke="midnightblue" points="478.49,-30.32 484.57,-21.64 474.4,-24.63 478.49,-30.32"/>
</g>
</g>
</svg>
