<?xml version="1.0" encoding="UTF-8" standalone="no"?>
<!DOCTYPE svg PUBLIC "-//W3C//DTD SVG 1.1//EN"
 "http://www.w3.org/Graphics/SVG/1.1/DTD/svg11.dtd">
<!-- Generated by graphviz version 5.0.0 (0)
 -->
<!-- Title: open_file_with_header Pages: 1 -->
<svg width="371pt" height="70pt"
 viewBox="0.00 0.00 371.00 70.00" xmlns="http://www.w3.org/2000/svg" xmlns:xlink="http://www.w3.org/1999/xlink">
<g id="graph0" class="graph" transform="scale(1 1) rotate(0) translate(4 66)">
<title>open_file_with_header</title>
<polygon fill="white" stroke="transparent" points="-4,4 -4,-66 367,-66 367,4 -4,4"/>
<!-- Node1 -->
<g id="node1" class="node">
<title>Node1</title>
<g id="a_node1"><a xlink:title="Opens a file and writes a string as the header of the file.">
<polygon fill="#bfbfbf" stroke="black" points="213,-20.5 213,-41.5 363,-41.5 363,-20.5 213,-20.5"/>
<text text-anchor="middle" x="288" y="-27.9" font-family="Helvetica,sans-Serif" font-size="12.00">open_file_with_header</text>
</a>
</g>
</g>
<!-- Node2 -->
<g id="node2" class="node">
<title>Node2</title>
<g id="a_node2"><a xlink:href="../../d5/d37/benchmark_8cc.html#aabb608c334e3f2d2f3b3d5520b56903c" target="_top" xlink:title="Runs a series of tests for plotting results.">
<polygon fill="white" stroke="black" points="110.5,-40.5 110.5,-61.5 149.5,-61.5 149.5,-40.5 110.5,-40.5"/>
<text text-anchor="middle" x="130" y="-47.9" font-family="Helvetica,sans-Serif" font-size="12.00">plot</text>
</a>
</g>
</g>
<!-- Node1&#45;&gt;Node2 -->
<g id="edge1" class="edge">
<title>Node1&#45;&gt;Node2</title>
<path fill="none" stroke="midnightblue" d="M202.51,-41.83C182.55,-44.39 163.16,-46.88 149.61,-48.61"/>
<polygon fill="midnightblue" stroke="midnightblue" points="203.18,-45.27 212.66,-40.53 202.29,-38.33 203.18,-45.27"/>
</g>
<!-- Node3 -->
<g id="node3" class="node">
<title>Node3</title>
<g id="a_node3"><a xlink:href="../../d5/d37/benchmark_8cc.html#a36f3d599aaf7504a3874d775ed51dcd2" target="_top" xlink:title=" ">
<polygon fill="white" stroke="black" points="83,-0.5 83,-21.5 177,-21.5 177,-0.5 83,-0.5"/>
<text text-anchor="middle" x="130" y="-7.9" font-family="Helvetica,sans-Serif" font-size="12.00">plot_graph_6</text>
</a>
</g>
</g>
<!-- Node1&#45;&gt;Node3 -->
<g id="edge2" class="edge">
<title>Node1&#45;&gt;Node3</title>
<path fill="none" stroke="midnightblue" d="M202.46,-20.16C193.79,-19.05 185.23,-17.95 177.21,-16.92"/>
<polygon fill="midnightblue" stroke="midnightblue" points="202.29,-23.67 212.66,-21.47 203.18,-16.73 202.29,-23.67"/>
</g>
<!-- Node4 -->
<g id="node4" class="node">
<title>Node4</title>
<g id="a_node4"><a xlink:href="../../d5/d37/benchmark_8cc.html#a3c04138a5bfe5d72780bb7e82a18e627" target="_top" xlink:title=" ">
<polygon fill="white" stroke="black" points="0,-0.5 0,-21.5 47,-21.5 47,-0.5 0,-0.5"/>
<text text-anchor="middle" x="23.5" y="-7.9" font-family="Helvetica,sans-Serif" font-size="12.00">main</text>
</a>
</g>
</g>
<!-- Node3&#45;&gt;Node4 -->
<g id="edge3" class="edge">
<title>Node3&#45;&gt;Node4</title>
<path fill="none" stroke="midnightblue" d="M72.68,-11C63.67,-11 54.82,-11 47.22,-11"/>
<polygon fill="midnightblue" stroke="midnightblue" points="72.86,-14.5 82.86,-11 72.86,-7.5 72.86,-14.5"/>
</g>
</g>
</svg>
