<?xml version="1.0" encoding="UTF-8" standalone="no"?>
<!DOCTYPE svg PUBLIC "-//W3C//DTD SVG 1.1//EN"
 "http://www.w3.org/Graphics/SVG/1.1/DTD/svg11.dtd">
<!-- Generated by graphviz version 5.0.0 (0)
 -->
<!-- Title: plot Pages: 1 -->
<svg width="585pt" height="508pt"
 viewBox="0.00 0.00 585.00 508.00" xmlns="http://www.w3.org/2000/svg" xmlns:xlink="http://www.w3.org/1999/xlink">
<g id="graph0" class="graph" transform="scale(1 1) rotate(0) translate(4 504)">
<title>plot</title>
<polygon fill="white" stroke="transparent" points="-4,4 -4,-504 581,-504 581,4 -4,4"/>
<!-- Node1 -->
<g id="node1" class="node">
<title>Node1</title>
<g id="a_node1"><a xlink:title="Runs a series of tests for plotting results.">
<polygon fill="#bfbfbf" stroke="black" points="0,-225 0,-246 39,-246 39,-225 0,-225"/>
<text text-anchor="middle" x="19.5" y="-232.4" font-family="Helvetica,sans-Serif" font-size="12.00">plot</text>
</a>
</g>
</g>
<!-- Node2 -->
<g id="node2" class="node">
<title>Node2</title>
<g id="a_node2"><a xlink:href="../../df/d31/main__utils_8cc.html#a3201d4e5bc0eff5d7dd5c0993b5aaa34" target="_top" xlink:title=" ">
<polygon fill="white" stroke="black" points="75,-245 75,-266 257,-266 257,-245 75,-245"/>
<text text-anchor="middle" x="166" y="-252.4" font-family="Helvetica,sans-Serif" font-size="12.00">generate_stake_distribution</text>
</a>
</g>
</g>
<!-- Node1&#45;&gt;Node2 -->
<g id="edge1" class="edge">
<title>Node1&#45;&gt;Node2</title>
<path fill="none" stroke="midnightblue" d="M39.1,-238.07C49.72,-239.54 63.9,-241.51 78.91,-243.58"/>
<polygon fill="midnightblue" stroke="midnightblue" points="78.48,-247.06 88.86,-244.96 79.44,-240.12 78.48,-247.06"/>
</g>
<!-- Node13 -->
<g id="node13" class="node">
<title>Node13</title>
<g id="a_node13"><a xlink:href="../../d5/d37/benchmark_8cc.html#a670aa533160fc691ac12b90080025dc4" target="_top" xlink:title="Opens a file and writes a string as the header of the file.">
<polygon fill="white" stroke="black" points="91,-205 91,-226 241,-226 241,-205 91,-205"/>
<text text-anchor="middle" x="166" y="-212.4" font-family="Helvetica,sans-Serif" font-size="12.00">open_file_with_header</text>
</a>
</g>
</g>
<!-- Node1&#45;&gt;Node13 -->
<g id="edge12" class="edge">
<title>Node1&#45;&gt;Node13</title>
<path fill="none" stroke="midnightblue" d="M39.1,-232.93C50.1,-231.4 64.91,-229.35 80.5,-227.2"/>
<polygon fill="midnightblue" stroke="midnightblue" points="81.41,-230.6 90.83,-225.77 80.45,-223.67 81.41,-230.6"/>
</g>
<!-- Node3 -->
<g id="node3" class="node">
<title>Node3</title>
<g id="a_node3"><a xlink:href="../../da/d55/classstake__distribution__generator.html#a3bc8bc85a9a0696fa5e28a160084cf52" target="_top" xlink:title="Adds, for each party in the stake distribution, &lt;parameter v&gt; additional stake.">
<polygon fill="white" stroke="black" points="326.5,-465.5 326.5,-499.5 543.5,-499.5 543.5,-465.5 326.5,-465.5"/>
<text text-anchor="start" x="334.5" y="-485.9" font-family="Helvetica,sans-Serif" font-size="12.00">stake_distribution_generator::add</text>
<text text-anchor="middle" x="435" y="-472.9" font-family="Helvetica,sans-Serif" font-size="12.00">_to_stake_distribution</text>
</a>
</g>
</g>
<!-- Node2&#45;&gt;Node3 -->
<g id="edge2" class="edge">
<title>Node2&#45;&gt;Node3</title>
<path fill="none" stroke="midnightblue" d="M170.36,-266.36C181.52,-300.49 220.8,-406.22 293,-455.5 300.33,-460.5 308.35,-464.64 316.72,-468.04"/>
<polygon fill="midnightblue" stroke="midnightblue" points="315.71,-471.4 326.31,-471.59 318.14,-464.84 315.71,-471.4"/>
</g>
<!-- Node4 -->
<g id="node4" class="node">
<title>Node4</title>
<g id="a_node4"><a xlink:href="../../da/d55/classstake__distribution__generator.html#af5c65ab784b15f01894e7130cc0bb661" target="_top" xlink:title="Generates a constant stake distribution with the given parameters.">
<polygon fill="white" stroke="black" points="293,-425 293,-446 577,-446 577,-425 293,-425"/>
<text text-anchor="middle" x="435" y="-432.4" font-family="Helvetica,sans-Serif" font-size="12.00">stake_distribution_generator::constant_stake</text>
</a>
</g>
</g>
<!-- Node2&#45;&gt;Node4 -->
<g id="edge3" class="edge">
<title>Node2&#45;&gt;Node4</title>
<path fill="none" stroke="midnightblue" d="M171.91,-266.4C185.92,-296.12 229.26,-378.81 293,-415.5 296.52,-417.52 300.16,-419.37 303.9,-421.05"/>
<polygon fill="midnightblue" stroke="midnightblue" points="302.8,-424.39 313.39,-424.91 305.44,-417.9 302.8,-424.39"/>
</g>
<!-- Node5 -->
<g id="node5" class="node">
<title>Node5</title>
<g id="a_node5"><a xlink:href="../../da/d55/classstake__distribution__generator.html#a7d9491cb9cab713369ec6bfc8571e6d2" target="_top" xlink:title="Generates an exponential stake distribution with the given parameters, and where the sender is the he...">
<polygon fill="white" stroke="black" points="303,-371.5 303,-405.5 567,-405.5 567,-371.5 303,-371.5"/>
<text text-anchor="start" x="311" y="-391.9" font-family="Helvetica,sans-Serif" font-size="12.00">stake_distribution_generator::exponential</text>
<text text-anchor="middle" x="435" y="-378.9" font-family="Helvetica,sans-Serif" font-size="12.00">_heaviest_stake</text>
</a>
</g>
</g>
<!-- Node2&#45;&gt;Node5 -->
<g id="edge4" class="edge">
<title>Node2&#45;&gt;Node5</title>
<path fill="none" stroke="midnightblue" d="M175.85,-266.07C194.84,-287.96 241.93,-338.26 293,-362.5 297.16,-364.47 301.46,-366.3 305.84,-367.99"/>
<polygon fill="midnightblue" stroke="midnightblue" points="304.99,-371.4 315.59,-371.46 307.34,-364.81 304.99,-371.4"/>
</g>
<!-- Node6 -->
<g id="node6" class="node">
<title>Node6</title>
<g id="a_node6"><a xlink:href="../../da/d55/classstake__distribution__generator.html#a13516e17aa69d2c5bc08f27ca46a0e18" target="_top" xlink:title="Generates an exponential stake distribution with the given parameters, and where the sender is the li...">
<polygon fill="white" stroke="black" points="303,-318.5 303,-352.5 567,-352.5 567,-318.5 303,-318.5"/>
<text text-anchor="start" x="311" y="-338.9" font-family="Helvetica,sans-Serif" font-size="12.00">stake_distribution_generator::exponential</text>
<text text-anchor="middle" x="435" y="-325.9" font-family="Helvetica,sans-Serif" font-size="12.00">_lightest_stake</text>
</a>
</g>
</g>
<!-- Node2&#45;&gt;Node6 -->
<g id="edge5" class="edge">
<title>Node2&#45;&gt;Node6</title>
<path fill="none" stroke="midnightblue" d="M187.86,-266.15C212.42,-278.29 254.73,-297.93 293,-309.5 300.96,-311.91 309.25,-314.13 317.64,-316.17"/>
<polygon fill="midnightblue" stroke="midnightblue" points="316.99,-319.62 327.53,-318.49 318.59,-312.8 316.99,-319.62"/>
</g>
<!-- Node7 -->
<g id="node7" class="node">
<title>Node7</title>
<g id="a_node7"><a xlink:href="../../da/d55/classstake__distribution__generator.html#a0ea9a4e1e4ae36b4363cc6d1895ccddd" target="_top" xlink:title="Generates an exponential stake distribution with the given parameters, and where the sender is the pa...">
<polygon fill="white" stroke="black" points="303,-265.5 303,-299.5 567,-299.5 567,-265.5 303,-265.5"/>
<text text-anchor="start" x="311" y="-285.9" font-family="Helvetica,sans-Serif" font-size="12.00">stake_distribution_generator::exponential</text>
<text text-anchor="middle" x="435" y="-272.9" font-family="Helvetica,sans-Serif" font-size="12.00">_median_stake</text>
</a>
</g>
</g>
<!-- Node2&#45;&gt;Node7 -->
<g id="edge6" class="edge">
<title>Node2&#45;&gt;Node7</title>
<path fill="none" stroke="midnightblue" d="M257.02,-264.6C268.49,-265.76 280.45,-266.97 292.49,-268.19"/>
<polygon fill="midnightblue" stroke="midnightblue" points="292.31,-271.69 302.62,-269.21 293.02,-264.73 292.31,-271.69"/>
</g>
<!-- Node8 -->
<g id="node8" class="node">
<title>Node8</title>
<g id="a_node8"><a xlink:href="../../da/d55/classstake__distribution__generator.html#aabe7ac745502142170a455e778fb8f02" target="_top" xlink:title="Generates a few heavy stake distribution with the given parameters, and where the sender is the heavi...">
<polygon fill="white" stroke="black" points="327,-212.5 327,-246.5 543,-246.5 543,-212.5 327,-212.5"/>
<text text-anchor="start" x="335" y="-232.9" font-family="Helvetica,sans-Serif" font-size="12.00">stake_distribution_generator::few</text>
<text text-anchor="middle" x="435" y="-219.9" font-family="Helvetica,sans-Serif" font-size="12.00">_heavy_heavy_stake</text>
</a>
</g>
</g>
<!-- Node2&#45;&gt;Node8 -->
<g id="edge7" class="edge">
<title>Node2&#45;&gt;Node8</title>
<path fill="none" stroke="midnightblue" d="M257.02,-246.73C276.19,-244.87 296.7,-242.87 316.72,-240.92"/>
<polygon fill="midnightblue" stroke="midnightblue" points="317.2,-244.39 326.81,-239.94 316.52,-237.42 317.2,-244.39"/>
</g>
<!-- Node9 -->
<g id="node9" class="node">
<title>Node9</title>
<g id="a_node9"><a xlink:href="../../da/d55/classstake__distribution__generator.html#abb8a24681627c5acb7c5162cb8e75181" target="_top" xlink:title="Generates a few heavy stake distribution with the given parameters, and where the sender is the light...">
<polygon fill="white" stroke="black" points="327,-159.5 327,-193.5 543,-193.5 543,-159.5 327,-159.5"/>
<text text-anchor="start" x="335" y="-179.9" font-family="Helvetica,sans-Serif" font-size="12.00">stake_distribution_generator::few</text>
<text text-anchor="middle" x="435" y="-166.9" font-family="Helvetica,sans-Serif" font-size="12.00">_heavy_light_stake</text>
</a>
</g>
</g>
<!-- Node2&#45;&gt;Node9 -->
<g id="edge8" class="edge">
<title>Node2&#45;&gt;Node9</title>
<path fill="none" stroke="midnightblue" d="M233.25,-244.86C241.48,-242.36 249.59,-239.29 257,-235.5 276.06,-225.75 273.8,-212.96 293,-203.5 300.72,-199.7 308.91,-196.43 317.32,-193.62"/>
<polygon fill="midnightblue" stroke="midnightblue" points="318.39,-196.96 326.89,-190.64 316.31,-190.27 318.39,-196.96"/>
</g>
<!-- Node10 -->
<g id="node10" class="node">
<title>Node10</title>
<g id="a_node10"><a xlink:href="../../da/d55/classstake__distribution__generator.html#aa118b134d691fb6392ec512bd3c01fa8" target="_top" xlink:title="Generates a stake distribution with the given number of parties, where the stake of each party is pic...">
<polygon fill="white" stroke="black" points="316,-106.5 316,-140.5 554,-140.5 554,-106.5 316,-106.5"/>
<text text-anchor="start" x="324" y="-126.9" font-family="Helvetica,sans-Serif" font-size="12.00">stake_distribution_generator::sample</text>
<text text-anchor="middle" x="435" y="-113.9" font-family="Helvetica,sans-Serif" font-size="12.00">_exponential_stake</text>
</a>
</g>
</g>
<!-- Node2&#45;&gt;Node10 -->
<g id="edge9" class="edge">
<title>Node2&#45;&gt;Node10</title>
<path fill="none" stroke="midnightblue" d="M241.91,-244.95C247.33,-242.4 252.45,-239.29 257,-235.5 288.53,-209.25 261.09,-176.29 293,-150.5 297.3,-147.02 301.92,-143.95 306.76,-141.23"/>
<polygon fill="midnightblue" stroke="midnightblue" points="308.35,-144.34 315.7,-136.71 305.2,-138.1 308.35,-144.34"/>
</g>
<!-- Node11 -->
<g id="node11" class="node">
<title>Node11</title>
<g id="a_node11"><a xlink:href="../../da/d55/classstake__distribution__generator.html#ae268154266dd8211b2d0aa95572b174e" target="_top" xlink:title="Generates a stake distribution with the given number of parties, where the stake of each party is pic...">
<polygon fill="white" stroke="black" points="316,-53.5 316,-87.5 554,-87.5 554,-53.5 316,-53.5"/>
<text text-anchor="start" x="324" y="-73.9" font-family="Helvetica,sans-Serif" font-size="12.00">stake_distribution_generator::sample</text>
<text text-anchor="middle" x="435" y="-60.9" font-family="Helvetica,sans-Serif" font-size="12.00">_geometric_stake</text>
</a>
</g>
</g>
<!-- Node2&#45;&gt;Node11 -->
<g id="edge10" class="edge">
<title>Node2&#45;&gt;Node11</title>
<path fill="none" stroke="midnightblue" d="M243.82,-244.99C248.62,-242.4 253.08,-239.28 257,-235.5 302.63,-191.51 246.73,-140.82 293,-97.5 297.21,-93.56 301.81,-90.11 306.69,-87.1"/>
<polygon fill="midnightblue" stroke="midnightblue" points="308.67,-90.01 315.77,-82.13 305.31,-83.86 308.67,-90.01"/>
</g>
<!-- Node12 -->
<g id="node12" class="node">
<title>Node12</title>
<g id="a_node12"><a xlink:href="../../da/d55/classstake__distribution__generator.html#a7ea2cb646581cf3bae6388cb3f712ef3" target="_top" xlink:title="Generates a stake distribution with the given number of parties, where the stake of each party is pic...">
<polygon fill="white" stroke="black" points="316,-0.5 316,-34.5 554,-34.5 554,-0.5 316,-0.5"/>
<text text-anchor="start" x="324" y="-20.9" font-family="Helvetica,sans-Serif" font-size="12.00">stake_distribution_generator::sample</text>
<text text-anchor="middle" x="435" y="-7.9" font-family="Helvetica,sans-Serif" font-size="12.00">_uniform_stake</text>
</a>
</g>
</g>
<!-- Node2&#45;&gt;Node12 -->
<g id="edge11" class="edge">
<title>Node2&#45;&gt;Node12</title>
<path fill="none" stroke="midnightblue" d="M244.95,-244.81C249.36,-242.25 253.44,-239.18 257,-235.5 317.09,-173.44 232.01,-105.67 293,-44.5 297.28,-40.2 302.03,-36.48 307.11,-33.26"/>
<polygon fill="midnightblue" stroke="midnightblue" points="308.94,-36.25 315.95,-28.3 305.51,-30.14 308.94,-36.25"/>
</g>
</g>
</svg>
