<?xml version="1.0" encoding="UTF-8" standalone="no"?>
<!DOCTYPE svg PUBLIC "-//W3C//DTD SVG 1.1//EN"
 "http://www.w3.org/Graphics/SVG/1.1/DTD/svg11.dtd">
<!-- Generated by graphviz version 5.0.0 (0)
 -->
<!-- Title: main Pages: 1 -->
<!--zoomable 508 -->
<svg id="main" version="1.1" xmlns="http://www.w3.org/2000/svg" xmlns:xlink="http://www.w3.org/1999/xlink" xml:space="preserve" onload="init(evt)">
<style type="text/css"><![CDATA[
.edge:hover path { stroke: red; }
.edge:hover polygon { stroke: red; fill: red; }
]]></style>
<script type="text/javascript"><![CDATA[
var edges = document.getElementsByTagName('g');
if (edges && edges.length) {
  for (var i=0;i<edges.length;i++) {
    if (edges[i].id.substr(0,4)=='edge') {
      edges[i].setAttribute('class','edge');
    }
  }
}
]]></script>
        <defs>
                <circle id="rim" cx="0" cy="0" r="7"/>
                <circle id="rim2" cx="0" cy="0" r="3.5"/>
                <g id="zoomPlus">
                        <use xlink:href="#rim" fill="#404040">
                                <set attributeName="fill" to="#808080" begin="zoomplus.mouseover" end="zoomplus.mouseout"/>
                        </use>
                        <path d="M-4,0h8M0,-4v8" fill="none" stroke="white" stroke-width="1.5" pointer-events="none"/>
                </g>
                <g id="zoomMin">
                        <use xlink:href="#rim" fill="#404040">
                                <set attributeName="fill" to="#808080" begin="zoomminus.mouseover" end="zoomminus.mouseout"/>
                        </use>
                        <path d="M-4,0h8" fill="none" stroke="white" stroke-width="1.5" pointer-events="none"/>
                </g>
                <g id="dirArrow">
                        <path fill="none" stroke="white" stroke-width="1.5" d="M0,-3.0v7 M-2.5,-0.5L0,-3.0L2.5,-0.5"/>
                </g>
               <g id="resetDef">
                       <use xlink:href="#rim2" fill="#404040">
                               <set attributeName="fill" to="#808080" begin="reset.mouseover" end="reset.mouseout"/>
                       </use>
               </g>
        </defs>

<script type="text/javascript">
var viewWidth = 739;
var viewHeight = 508;
var sectionId = 'dynsection-3';
</script>
<script xlink:href="../../svgpan.js"/>
<svg id="graph" class="graph">
<g id="viewport">
<title>main</title>
<polygon fill="white" stroke="transparent" points="-4,4 -4,-504 735,-504 735,4 -4,4"/>
<!-- Node1 -->
<g id="node1" class="node">
<title>Node1</title>
<g id="a_node1"><a xlink:title=" ">
<polygon fill="#bfbfbf" stroke="black" points="0,-355 0,-376 47,-376 47,-355 0,-355"/>
<text text-anchor="middle" x="23.5" y="-362.4" font-family="Helvetica,sans-Serif" font-size="12.00">main</text>
</a>
</g>
</g>
<!-- Node2 -->
<g id="node2" class="node">
<title>Node2</title>
<g id="a_node2"><a xlink:href="../../df/d31/main__utils_8cc.html#a02fd73d861ef2e4aabb38c0c9ff82947" target="_top" xlink:title="Runs initialization procedures.">
<polygon fill="white" stroke="black" points="119,-435 119,-456 154,-456 154,-435 119,-435"/>
<text text-anchor="middle" x="136.5" y="-442.4" font-family="Helvetica,sans-Serif" font-size="12.00">init</text>
</a>
</g>
</g>
<!-- Node1&#45;&gt;Node2 -->
<g id="edge1" class="edge">
<title>Node1&#45;&gt;Node2</title>
<path fill="none" stroke="midnightblue" d="M32.51,-376.2C42.87,-389.4 62.08,-411.77 83,-425.5 90.85,-430.66 100.23,-434.76 108.87,-437.88"/>
<polygon fill="midnightblue" stroke="midnightblue" points="107.94,-441.26 118.54,-441.09 110.15,-434.62 107.94,-441.26"/>
</g>
<!-- Node4 -->
<g id="node4" class="node">
<title>Node4</title>
<g id="a_node4"><a xlink:href="../../d5/d37/benchmark_8cc.html#ad5f14834828d0d7a94cf4be286397e52" target="_top" xlink:title=" ">
<polygon fill="white" stroke="black" points="83,-395 83,-416 190,-416 190,-395 83,-395"/>
<text text-anchor="middle" x="136.5" y="-402.4" font-family="Helvetica,sans-Serif" font-size="12.00">plot_graph_1_3</text>
</a>
</g>
</g>
<!-- Node1&#45;&gt;Node4 -->
<g id="edge3" class="edge">
<title>Node1&#45;&gt;Node4</title>
<path fill="none" stroke="midnightblue" d="M47.23,-373.69C61.44,-378.81 80.11,-385.54 96.63,-391.49"/>
<polygon fill="midnightblue" stroke="midnightblue" points="95.45,-394.79 106.05,-394.89 97.83,-388.2 95.45,-394.79"/>
</g>
<!-- Node7 -->
<g id="node7" class="node">
<title>Node7</title>
<g id="a_node7"><a xlink:href="../../d5/d37/benchmark_8cc.html#a4e52a32ecd48cbcdcd7b1765d8a066b2" target="_top" xlink:title=" ">
<polygon fill="white" stroke="black" points="83,-355 83,-376 190,-376 190,-355 83,-355"/>
<text text-anchor="middle" x="136.5" y="-362.4" font-family="Helvetica,sans-Serif" font-size="12.00">plot_graph_2_4</text>
</a>
</g>
</g>
<!-- Node1&#45;&gt;Node7 -->
<g id="edge6" class="edge">
<title>Node1&#45;&gt;Node7</title>
<path fill="none" stroke="midnightblue" d="M47.23,-365.5C54.7,-365.5 63.39,-365.5 72.36,-365.5"/>
<polygon fill="midnightblue" stroke="midnightblue" points="72.55,-369 82.55,-365.5 72.55,-362 72.55,-369"/>
</g>
<!-- Node8 -->
<g id="node8" class="node">
<title>Node8</title>
<g id="a_node8"><a xlink:href="../../d5/d37/benchmark_8cc.html#acc954800ffa480f4eac9b6544883f1bc" target="_top" xlink:title=" ">
<polygon fill="white" stroke="black" points="89.5,-315 89.5,-336 183.5,-336 183.5,-315 89.5,-315"/>
<text text-anchor="middle" x="136.5" y="-322.4" font-family="Helvetica,sans-Serif" font-size="12.00">plot_graph_5</text>
</a>
</g>
</g>
<!-- Node1&#45;&gt;Node8 -->
<g id="edge9" class="edge">
<title>Node1&#45;&gt;Node8</title>
<path fill="none" stroke="midnightblue" d="M47.23,-357.31C61.44,-352.19 80.11,-345.46 96.63,-339.51"/>
<polygon fill="midnightblue" stroke="midnightblue" points="97.83,-342.8 106.05,-336.11 95.45,-336.21 97.83,-342.8"/>
</g>
<!-- Node9 -->
<g id="node9" class="node">
<title>Node9</title>
<g id="a_node9"><a xlink:href="../../d5/d37/benchmark_8cc.html#a36f3d599aaf7504a3874d775ed51dcd2" target="_top" xlink:title=" ">
<polygon fill="white" stroke="black" points="89.5,-275 89.5,-296 183.5,-296 183.5,-275 89.5,-275"/>
<text text-anchor="middle" x="136.5" y="-282.4" font-family="Helvetica,sans-Serif" font-size="12.00">plot_graph_6</text>
</a>
</g>
</g>
<!-- Node1&#45;&gt;Node9 -->
<g id="edge12" class="edge">
<title>Node1&#45;&gt;Node9</title>
<path fill="none" stroke="midnightblue" d="M32.51,-354.8C42.87,-341.6 62.08,-319.23 83,-305.5 85.9,-303.6 89.01,-301.83 92.21,-300.21"/>
<polygon fill="midnightblue" stroke="midnightblue" points="93.75,-303.36 101.39,-296.01 90.84,-296.99 93.75,-303.36"/>
</g>
<!-- Node3 -->
<g id="node3" class="node">
<title>Node3</title>
<g id="a_node3"><a xlink:href="../../d6/d74/random__utils_8h.html#a1d7a32b3a4c548edb7d0a4f9d98345d2" target="_top" xlink:title="Initializes the randomness utility functions.">
<polygon fill="white" stroke="black" points="259.5,-435 259.5,-456 377.5,-456 377.5,-435 259.5,-435"/>
<text text-anchor="middle" x="318.5" y="-442.4" font-family="Helvetica,sans-Serif" font-size="12.00">init_random_utils</text>
</a>
</g>
</g>
<!-- Node2&#45;&gt;Node3 -->
<g id="edge2" class="edge">
<title>Node2&#45;&gt;Node3</title>
<path fill="none" stroke="midnightblue" d="M154.11,-445.5C175.74,-445.5 214.85,-445.5 249.39,-445.5"/>
<polygon fill="midnightblue" stroke="midnightblue" points="249.46,-449 259.46,-445.5 249.46,-442 249.46,-449"/>
</g>
<!-- Node5 -->
<g id="node5" class="node">
<title>Node5</title>
<g id="a_node5"><a xlink:href="../../d5/d37/benchmark_8cc.html#a1eecf481f3eeba3cdddf26c208e5507a" target="_top" xlink:title="Computes the maximum latency of successful tests from &lt;parameter test_data&gt;.">
<polygon fill="white" stroke="black" points="242.5,-345 242.5,-366 394.5,-366 394.5,-345 242.5,-345"/>
<text text-anchor="middle" x="318.5" y="-352.4" font-family="Helvetica,sans-Serif" font-size="12.00">get_maximum_latency</text>
</a>
</g>
</g>
<!-- Node4&#45;&gt;Node5 -->
<g id="edge4" class="edge">
<title>Node4&#45;&gt;Node5</title>
<path fill="none" stroke="midnightblue" d="M165.95,-394.95C183.18,-388.79 205.68,-381.15 226,-375.5 235.19,-372.95 244.96,-370.52 254.58,-368.28"/>
<polygon fill="midnightblue" stroke="midnightblue" points="255.53,-371.65 264.51,-366.03 253.99,-364.83 255.53,-371.65"/>
</g>
<!-- Node6 -->
<g id="node6" class="node">
<title>Node6</title>
<g id="a_node6"><a xlink:href="../../d5/d37/benchmark_8cc.html#a817b47edcb712257bae32a9b6ee1a23e" target="_top" xlink:title="Computes the minimum nr of successful tests from &lt;parameter test_data&gt;.">
<polygon fill="white" stroke="black" points="226,-385 226,-406 411,-406 411,-385 226,-385"/>
<text text-anchor="middle" x="318.5" y="-392.4" font-family="Helvetica,sans-Serif" font-size="12.00">get_minimum_success_prob</text>
</a>
</g>
</g>
<!-- Node4&#45;&gt;Node6 -->
<g id="edge5" class="edge">
<title>Node4&#45;&gt;Node6</title>
<path fill="none" stroke="midnightblue" d="M190.05,-402.58C198.27,-402.12 206.99,-401.64 215.87,-401.15"/>
<polygon fill="midnightblue" stroke="midnightblue" points="216.15,-404.64 225.94,-400.59 215.76,-397.65 216.15,-404.64"/>
</g>
<!-- Node7&#45;&gt;Node5 -->
<g id="edge7" class="edge">
<title>Node7&#45;&gt;Node5</title>
<path fill="none" stroke="midnightblue" d="M190.05,-362.58C203.24,-361.85 217.74,-361.04 232.08,-360.25"/>
<polygon fill="midnightblue" stroke="midnightblue" points="232.69,-363.72 242.48,-359.67 232.3,-356.73 232.69,-363.72"/>
</g>
<!-- Node7&#45;&gt;Node6 -->
<g id="edge8" class="edge">
<title>Node7&#45;&gt;Node6</title>
<path fill="none" stroke="midnightblue" d="M190.05,-374.26C207.03,-377.09 226.18,-380.28 244.38,-383.31"/>
<polygon fill="midnightblue" stroke="midnightblue" points="243.93,-386.79 254.37,-384.98 245.08,-379.88 243.93,-386.79"/>
</g>
<!-- Node8&#45;&gt;Node5 -->
<g id="edge10" class="edge">
<title>Node8&#45;&gt;Node5</title>
<path fill="none" stroke="midnightblue" d="M183.85,-333.23C202.3,-336.3 223.96,-339.91 244.42,-343.32"/>
<polygon fill="midnightblue" stroke="midnightblue" points="243.9,-346.78 254.34,-344.97 245.05,-339.88 243.9,-346.78"/>
</g>
<!-- Node8&#45;&gt;Node6 -->
<g id="edge11" class="edge">
<title>Node8&#45;&gt;Node6</title>
<path fill="none" stroke="midnightblue" d="M170.21,-336.04C176.94,-338.73 183.85,-341.9 190,-345.5 207.98,-356.02 207.29,-366.35 226,-375.5 230.84,-377.87 235.96,-379.96 241.2,-381.8"/>
<polygon fill="midnightblue" stroke="midnightblue" points="240.15,-385.14 250.75,-384.86 242.29,-378.47 240.15,-385.14"/>
</g>
<!-- Node10 -->
<g id="node10" class="node">
<title>Node10</title>
<g id="a_node10"><a xlink:href="../../df/d31/main__utils_8cc.html#a3201d4e5bc0eff5d7dd5c0993b5aaa34" target="_top" xlink:title=" ">
<polygon fill="white" stroke="black" points="227.5,-245 227.5,-266 409.5,-266 409.5,-245 227.5,-245"/>
<text text-anchor="middle" x="318.5" y="-252.4" font-family="Helvetica,sans-Serif" font-size="12.00">generate_stake_distribution</text>
</a>
</g>
</g>
<!-- Node9&#45;&gt;Node10 -->
<g id="edge13" class="edge">
<title>Node9&#45;&gt;Node10</title>
<path fill="none" stroke="midnightblue" d="M183.85,-277.77C202.3,-274.7 223.96,-271.09 244.42,-267.68"/>
<polygon fill="midnightblue" stroke="midnightblue" points="245.05,-271.12 254.34,-266.03 243.9,-264.22 245.05,-271.12"/>
</g>
<!-- Node21 -->
<g id="node21" class="node">
<title>Node21</title>
<g id="a_node21"><a xlink:href="../../d5/d37/benchmark_8cc.html#a670aa533160fc691ac12b90080025dc4" target="_top" xlink:title="Opens a file and writes a string as the header of the file.">
<polygon fill="white" stroke="black" points="243.5,-285 243.5,-306 393.5,-306 393.5,-285 243.5,-285"/>
<text text-anchor="middle" x="318.5" y="-292.4" font-family="Helvetica,sans-Serif" font-size="12.00">open_file_with_header</text>
</a>
</g>
</g>
<!-- Node9&#45;&gt;Node21 -->
<g id="edge24" class="edge">
<title>Node9&#45;&gt;Node21</title>
<path fill="none" stroke="midnightblue" d="M183.85,-288.08C199.01,-288.92 216.33,-289.88 233.38,-290.83"/>
<polygon fill="midnightblue" stroke="midnightblue" points="233.19,-294.32 243.37,-291.38 233.58,-287.33 233.19,-294.32"/>
</g>
<!-- Node11 -->
<g id="node11" class="node">
<title>Node11</title>
<g id="a_node11"><a xlink:href="../../da/d55/classstake__distribution__generator.html#a3bc8bc85a9a0696fa5e28a160084cf52" target="_top" xlink:title="Adds, for each party in the stake distribution, &lt;parameter v&gt; additional stake.">
<polygon fill="white" stroke="black" points="480.5,-465.5 480.5,-499.5 697.5,-499.5 697.5,-465.5 480.5,-465.5"/>
<text text-anchor="start" x="488.5" y="-485.9" font-family="Helvetica,sans-Serif" font-size="12.00">stake_distribution_generator::add</text>
<text text-anchor="middle" x="589" y="-472.9" font-family="Helvetica,sans-Serif" font-size="12.00">_to_stake_distribution</text>
</a>
</g>
</g>
<!-- Node10&#45;&gt;Node11 -->
<g id="edge14" class="edge">
<title>Node10&#45;&gt;Node11</title>
<path fill="none" stroke="midnightblue" d="M398.69,-266.11C403.19,-268.69 407.35,-271.79 411,-275.5 468.17,-333.7 389.08,-398.05 447,-455.5 453.96,-462.4 462.11,-467.82 470.92,-472.05"/>
<polygon fill="midnightblue" stroke="midnightblue" points="469.75,-475.36 480.32,-476.04 472.48,-468.91 469.75,-475.36"/>
</g>
<!-- Node12 -->
<g id="node12" class="node">
<title>Node12</title>
<g id="a_node12"><a xlink:href="../../da/d55/classstake__distribution__generator.html#af5c65ab784b15f01894e7130cc0bb661" target="_top" xlink:title="Generates a constant stake distribution with the given parameters.">
<polygon fill="white" stroke="black" points="447,-425 447,-446 731,-446 731,-425 447,-425"/>
<text text-anchor="middle" x="589" y="-432.4" font-family="Helvetica,sans-Serif" font-size="12.00">stake_distribution_generator::constant_stake</text>
</a>
</g>
</g>
<!-- Node10&#45;&gt;Node12 -->
<g id="edge15" class="edge">
<title>Node10&#45;&gt;Node12</title>
<path fill="none" stroke="midnightblue" d="M398.04,-266.11C402.75,-268.68 407.14,-271.78 411,-275.5 457.25,-320.09 399.13,-372.66 447,-415.5 448.36,-416.72 449.76,-417.88 451.2,-419"/>
<polygon fill="midnightblue" stroke="midnightblue" points="449.55,-422.11 459.79,-424.82 453.48,-416.31 449.55,-422.11"/>
</g>
<!-- Node13 -->
<g id="node13" class="node">
<title>Node13</title>
<g id="a_node13"><a xlink:href="../../da/d55/classstake__distribution__generator.html#a5c9f7952feefe35ca261e18fa89e5677" target="_top" xlink:title="Generates an exponential stake distribution with the given parameters, and where the sender is the fa...">
<polygon fill="white" stroke="black" points="457,-371.5 457,-405.5 721,-405.5 721,-371.5 457,-371.5"/>
<text text-anchor="start" x="465" y="-391.9" font-family="Helvetica,sans-Serif" font-size="12.00">stake_distribution_generator::exponential</text>
<text text-anchor="middle" x="589" y="-378.9" font-family="Helvetica,sans-Serif" font-size="12.00">_fattest_stake</text>
</a>
</g>
</g>
<!-- Node10&#45;&gt;Node13 -->
<g id="edge16" class="edge">
<title>Node10&#45;&gt;Node13</title>
<path fill="none" stroke="midnightblue" d="M396.13,-266.1C401.47,-268.65 406.51,-271.74 411,-275.5 443.09,-302.36 414.47,-336.17 447,-362.5 448.56,-363.76 450.16,-364.97 451.8,-366.13"/>
<polygon fill="midnightblue" stroke="midnightblue" points="449.97,-369.11 460.29,-371.49 453.71,-363.19 449.97,-369.11"/>
</g>
<!-- Node14 -->
<g id="node14" class="node">
<title>Node14</title>
<g id="a_node14"><a xlink:href="../../da/d55/classstake__distribution__generator.html#a7f6c4913d46b461e23e4c59c75c4f99c" target="_top" xlink:title="Generates an exponential stake distribution with the given parameters, and where the sender is the pa...">
<polygon fill="white" stroke="black" points="457,-318.5 457,-352.5 721,-352.5 721,-318.5 457,-318.5"/>
<text text-anchor="start" x="465" y="-338.9" font-family="Helvetica,sans-Serif" font-size="12.00">stake_distribution_generator::exponential</text>
<text text-anchor="middle" x="589" y="-325.9" font-family="Helvetica,sans-Serif" font-size="12.00">_median_stake</text>
</a>
</g>
</g>
<!-- Node10&#45;&gt;Node14 -->
<g id="edge17" class="edge">
<title>Node10&#45;&gt;Node14</title>
<path fill="none" stroke="midnightblue" d="M387.93,-266.13C395.94,-268.63 403.81,-271.7 411,-275.5 430.46,-285.78 427.37,-299.54 447,-309.5 450.75,-311.4 454.61,-313.16 458.56,-314.8"/>
<polygon fill="midnightblue" stroke="midnightblue" points="457.33,-318.08 467.92,-318.39 459.84,-311.54 457.33,-318.08"/>
</g>
<!-- Node15 -->
<g id="node15" class="node">
<title>Node15</title>
<g id="a_node15"><a xlink:href="../../da/d55/classstake__distribution__generator.html#afb11a0731fa642877492417f211a10c1" target="_top" xlink:title="Generates an exponential stake distribution with the given parameters, and where the sender is the th...">
<polygon fill="white" stroke="black" points="457,-265.5 457,-299.5 721,-299.5 721,-265.5 457,-265.5"/>
<text text-anchor="start" x="465" y="-285.9" font-family="Helvetica,sans-Serif" font-size="12.00">stake_distribution_generator::exponential</text>
<text text-anchor="middle" x="589" y="-272.9" font-family="Helvetica,sans-Serif" font-size="12.00">_thinnest_stake</text>
</a>
</g>
</g>
<!-- Node10&#45;&gt;Node15 -->
<g id="edge18" class="edge">
<title>Node10&#45;&gt;Node15</title>
<path fill="none" stroke="midnightblue" d="M409.65,-264.57C421.55,-265.76 433.98,-267.01 446.48,-268.27"/>
<polygon fill="midnightblue" stroke="midnightblue" points="446.22,-271.76 456.52,-269.28 446.92,-264.8 446.22,-271.76"/>
</g>
<!-- Node16 -->
<g id="node16" class="node">
<title>Node16</title>
<g id="a_node16"><a xlink:href="../../da/d55/classstake__distribution__generator.html#a4cd5971c4b30a302ace9153acde41598" target="_top" xlink:title="Generates a few fat stake distribution with the given parameters, and where the sender is the fattest...">
<polygon fill="white" stroke="black" points="481,-212.5 481,-246.5 697,-246.5 697,-212.5 481,-212.5"/>
<text text-anchor="start" x="489" y="-232.9" font-family="Helvetica,sans-Serif" font-size="12.00">stake_distribution_generator::few</text>
<text text-anchor="middle" x="589" y="-219.9" font-family="Helvetica,sans-Serif" font-size="12.00">_fat_fat_stake</text>
</a>
</g>
</g>
<!-- Node10&#45;&gt;Node16 -->
<g id="edge19" class="edge">
<title>Node10&#45;&gt;Node16</title>
<path fill="none" stroke="midnightblue" d="M409.65,-246.77C429.29,-244.87 450.35,-242.83 470.86,-240.84"/>
<polygon fill="midnightblue" stroke="midnightblue" points="471.26,-244.32 480.88,-239.87 470.59,-237.35 471.26,-244.32"/>
</g>
<!-- Node17 -->
<g id="node17" class="node">
<title>Node17</title>
<g id="a_node17"><a xlink:href="../../da/d55/classstake__distribution__generator.html#a0adac7b42eefa5f4ba734955f104030d" target="_top" xlink:title="Generates a few fat stake distribution with the given parameters, and where the sender is the thinnes...">
<polygon fill="white" stroke="black" points="481,-159.5 481,-193.5 697,-193.5 697,-159.5 481,-159.5"/>
<text text-anchor="start" x="489" y="-179.9" font-family="Helvetica,sans-Serif" font-size="12.00">stake_distribution_generator::few</text>
<text text-anchor="middle" x="589" y="-166.9" font-family="Helvetica,sans-Serif" font-size="12.00">_fat_thin_stake</text>
</a>
</g>
</g>
<!-- Node10&#45;&gt;Node17 -->
<g id="edge20" class="edge">
<title>Node10&#45;&gt;Node17</title>
<path fill="none" stroke="midnightblue" d="M341.59,-244.92C366.64,-233.3 408.95,-214.78 447,-203.5 456.41,-200.71 466.26,-198.14 476.19,-195.79"/>
<polygon fill="midnightblue" stroke="midnightblue" points="477.17,-199.15 486.14,-193.51 475.61,-192.33 477.17,-199.15"/>
</g>
<!-- Node18 -->
<g id="node18" class="node">
<title>Node18</title>
<g id="a_node18"><a xlink:href="../../da/d55/classstake__distribution__generator.html#aa118b134d691fb6392ec512bd3c01fa8" target="_top" xlink:title="Generates a stake distribution with the given number of parties, where the stake of each party is pic...">
<polygon fill="white" stroke="black" points="470,-106.5 470,-140.5 708,-140.5 708,-106.5 470,-106.5"/>
<text text-anchor="start" x="478" y="-126.9" font-family="Helvetica,sans-Serif" font-size="12.00">stake_distribution_generator::sample</text>
<text text-anchor="middle" x="589" y="-113.9" font-family="Helvetica,sans-Serif" font-size="12.00">_exponential_stake</text>
</a>
</g>
</g>
<!-- Node10&#45;&gt;Node18 -->
<g id="edge21" class="edge">
<title>Node10&#45;&gt;Node18</title>
<path fill="none" stroke="midnightblue" d="M328.84,-244.84C348.42,-223.25 396.13,-174.39 447,-150.5 452.08,-148.12 457.35,-145.94 462.74,-143.96"/>
<polygon fill="midnightblue" stroke="midnightblue" points="464.25,-147.15 472.57,-140.6 461.98,-140.52 464.25,-147.15"/>
</g>
<!-- Node19 -->
<g id="node19" class="node">
<title>Node19</title>
<g id="a_node19"><a xlink:href="../../da/d55/classstake__distribution__generator.html#ae268154266dd8211b2d0aa95572b174e" target="_top" xlink:title="Generates a stake distribution with the given number of parties, where the stake of each party is pic...">
<polygon fill="white" stroke="black" points="470,-53.5 470,-87.5 708,-87.5 708,-53.5 470,-53.5"/>
<text text-anchor="start" x="478" y="-73.9" font-family="Helvetica,sans-Serif" font-size="12.00">stake_distribution_generator::sample</text>
<text text-anchor="middle" x="589" y="-60.9" font-family="Helvetica,sans-Serif" font-size="12.00">_geometric_stake</text>
</a>
</g>
</g>
<!-- Node10&#45;&gt;Node19 -->
<g id="edge22" class="edge">
<title>Node10&#45;&gt;Node19</title>
<path fill="none" stroke="midnightblue" d="M324.64,-244.9C339.26,-215.95 384.14,-135.23 447,-97.5 451.25,-94.95 455.69,-92.63 460.27,-90.53"/>
<polygon fill="midnightblue" stroke="midnightblue" points="461.98,-93.6 469.84,-86.5 459.26,-87.15 461.98,-93.6"/>
</g>
<!-- Node20 -->
<g id="node20" class="node">
<title>Node20</title>
<g id="a_node20"><a xlink:href="../../da/d55/classstake__distribution__generator.html#a7ea2cb646581cf3bae6388cb3f712ef3" target="_top" xlink:title="Generates a stake distribution with the given number of parties, where the stake of each party is pic...">
<polygon fill="white" stroke="black" points="470,-0.5 470,-34.5 708,-34.5 708,-0.5 470,-0.5"/>
<text text-anchor="start" x="478" y="-20.9" font-family="Helvetica,sans-Serif" font-size="12.00">stake_distribution_generator::sample</text>
<text text-anchor="middle" x="589" y="-7.9" font-family="Helvetica,sans-Serif" font-size="12.00">_uniform_stake</text>
</a>
</g>
</g>
<!-- Node10&#45;&gt;Node20 -->
<g id="edge23" class="edge">
<title>Node10&#45;&gt;Node20</title>
<path fill="none" stroke="midnightblue" d="M322.42,-244.97C332.76,-209.87 371.09,-96.08 447,-43.5 451.3,-40.52 455.85,-37.85 460.57,-35.47"/>
<polygon fill="midnightblue" stroke="midnightblue" points="462.21,-38.57 469.85,-31.23 459.3,-32.2 462.21,-38.57"/>
</g>
</g>
</svg>
        <g id="navigator" transform="translate(0 0)" fill="#404254">
                <rect fill="#f2f5e9" fill-opacity="0.5" stroke="#606060" stroke-width=".5" x="0" y="0" width="60" height="60"/>
                <use id="zoomplus" xlink:href="#zoomPlus" x="17" y="9" onmousedown="handleZoom(evt,'in')"/>
                <use id="zoomminus" xlink:href="#zoomMin" x="42" y="9" onmousedown="handleZoom(evt,'out')"/>
                <use id="reset" xlink:href="#resetDef" x="30" y="36" onmousedown="handleReset()"/>
                <g id="arrowUp" xlink:href="#dirArrow" transform="translate(30 24)" onmousedown="handlePan(0,-1)">
                  <use xlink:href="#rim" fill="#404040">
                        <set attributeName="fill" to="#808080" begin="arrowUp.mouseover" end="arrowUp.mouseout"/>
                  </use>
                  <path fill="none" stroke="white" stroke-width="1.5" d="M0,-3.0v7 M-2.5,-0.5L0,-3.0L2.5,-0.5"/>
                </g>
                <g id="arrowRight" xlink:href="#dirArrow" transform="rotate(90) translate(36 -43)" onmousedown="handlePan(1,0)">
                  <use xlink:href="#rim" fill="#404040">
                        <set attributeName="fill" to="#808080" begin="arrowRight.mouseover" end="arrowRight.mouseout"/>
                  </use>
                  <path fill="none" stroke="white" stroke-width="1.5" d="M0,-3.0v7 M-2.5,-0.5L0,-3.0L2.5,-0.5"/>
                </g>
                <g id="arrowDown" xlink:href="#dirArrow" transform="rotate(180) translate(-30 -48)" onmousedown="handlePan(0,1)">
                  <use xlink:href="#rim" fill="#404040">
                        <set attributeName="fill" to="#808080" begin="arrowDown.mouseover" end="arrowDown.mouseout"/>
                  </use>
                  <path fill="none" stroke="white" stroke-width="1.5" d="M0,-3.0v7 M-2.5,-0.5L0,-3.0L2.5,-0.5"/>
                </g>
                <g id="arrowLeft" xlink:href="#dirArrow" transform="rotate(270) translate(-36 17)" onmousedown="handlePan(-1,0)">
                  <use xlink:href="#rim" fill="#404040">
                        <set attributeName="fill" to="#808080" begin="arrowLeft.mouseover" end="arrowLeft.mouseout"/>
                  </use>
                  <path fill="none" stroke="white" stroke-width="1.5" d="M0,-3.0v7 M-2.5,-0.5L0,-3.0L2.5,-0.5"/>
                </g>
        </g>
        <svg viewBox="0 0 15 15" width="100%" height="30px" preserveAspectRatio="xMaxYMin meet">
         <g id="arrow_out" transform="scale(0.3 0.3)">
          <a xlink:href="benchmark_8cc_a3c04138a5bfe5d72780bb7e82a18e627_cgraph_org.svg" target="_base">
           <rect id="button" ry="5" rx="5" y="6" x="6" height="38" width="38"
                fill="#f2f5e9" fill-opacity="0.5" stroke="#606060" stroke-width="1.0"/>
           <path id="arrow"
             d="M 11.500037,31.436501 C 11.940474,20.09759 22.043105,11.32322 32.158766,21.979434 L 37.068811,17.246167 C 37.068811,17.246167 37.088388,32 37.088388,32 L 22.160133,31.978069 C 22.160133,31.978069 26.997745,27.140456 26.997745,27.140456 C 18.528582,18.264221 13.291696,25.230495 11.500037,31.436501 z"
             style="fill:#404040;"/>
          </a>
         </g>
        </svg>
</svg>
