<?xml version="1.0" encoding="UTF-8" standalone="no"?>
<!DOCTYPE svg PUBLIC "-//W3C//DTD SVG 1.1//EN"
 "http://www.w3.org/Graphics/SVG/1.1/DTD/svg11.dtd">
<!-- Generated by graphviz version 5.0.0 (0)
 -->
<!-- Title: get_minimum_success_prob Pages: 1 -->
<svg width="419pt" height="110pt"
 viewBox="0.00 0.00 419.00 110.00" xmlns="http://www.w3.org/2000/svg" xmlns:xlink="http://www.w3.org/1999/xlink">
<g id="graph0" class="graph" transform="scale(1 1) rotate(0) translate(4 106)">
<title>get_minimum_success_prob</title>
<polygon fill="white" stroke="transparent" points="-4,4 -4,-106 415,-106 415,4 -4,4"/>
<!-- Node1 -->
<g id="node1" class="node">
<title>Node1</title>
<g id="a_node1"><a xlink:title="Computes the minimum nr of successful tests from &lt;parameter test_data&gt;.">
<polygon fill="#bfbfbf" stroke="black" points="226,-40.5 226,-61.5 411,-61.5 411,-40.5 226,-40.5"/>
<text text-anchor="middle" x="318.5" y="-47.9" font-family="Helvetica,sans-Serif" font-size="12.00">get_minimum_success_prob</text>
</a>
</g>
</g>
<!-- Node2 -->
<g id="node2" class="node">
<title>Node2</title>
<g id="a_node2"><a xlink:href="../../d5/d37/benchmark_8cc.html#ad5f14834828d0d7a94cf4be286397e52" target="_top" xlink:title=" ">
<polygon fill="white" stroke="black" points="83,-80.5 83,-101.5 190,-101.5 190,-80.5 83,-80.5"/>
<text text-anchor="middle" x="136.5" y="-87.9" font-family="Helvetica,sans-Serif" font-size="12.00">plot_graph_1_3</text>
</a>
</g>
</g>
<!-- Node1&#45;&gt;Node2 -->
<g id="edge1" class="edge">
<title>Node1&#45;&gt;Node2</title>
<path fill="none" stroke="midnightblue" d="M260.38,-63.69C236.02,-69.11 207.95,-75.34 184.79,-80.49"/>
<polygon fill="midnightblue" stroke="midnightblue" points="261.2,-67.1 270.21,-61.51 259.69,-60.26 261.2,-67.1"/>
</g>
<!-- Node4 -->
<g id="node4" class="node">
<title>Node4</title>
<g id="a_node4"><a xlink:href="../../d5/d37/benchmark_8cc.html#a4e52a32ecd48cbcdcd7b1765d8a066b2" target="_top" xlink:title=" ">
<polygon fill="white" stroke="black" points="83,-40.5 83,-61.5 190,-61.5 190,-40.5 83,-40.5"/>
<text text-anchor="middle" x="136.5" y="-47.9" font-family="Helvetica,sans-Serif" font-size="12.00">plot_graph_2_4</text>
</a>
</g>
</g>
<!-- Node1&#45;&gt;Node4 -->
<g id="edge3" class="edge">
<title>Node1&#45;&gt;Node4</title>
<path fill="none" stroke="midnightblue" d="M215.69,-51C207.01,-51 198.49,-51 190.45,-51"/>
<polygon fill="midnightblue" stroke="midnightblue" points="215.92,-54.5 225.92,-51 215.92,-47.5 215.92,-54.5"/>
</g>
<!-- Node5 -->
<g id="node5" class="node">
<title>Node5</title>
<g id="a_node5"><a xlink:href="../../d5/d37/benchmark_8cc.html#acc954800ffa480f4eac9b6544883f1bc" target="_top" xlink:title=" ">
<polygon fill="white" stroke="black" points="89.5,-0.5 89.5,-21.5 183.5,-21.5 183.5,-0.5 89.5,-0.5"/>
<text text-anchor="middle" x="136.5" y="-7.9" font-family="Helvetica,sans-Serif" font-size="12.00">plot_graph_5</text>
</a>
</g>
</g>
<!-- Node1&#45;&gt;Node5 -->
<g id="edge5" class="edge">
<title>Node1&#45;&gt;Node5</title>
<path fill="none" stroke="midnightblue" d="M260.22,-38.27C235.46,-32.77 206.89,-26.42 183.54,-21.23"/>
<polygon fill="midnightblue" stroke="midnightblue" points="259.69,-41.74 270.21,-40.49 261.2,-34.9 259.69,-41.74"/>
</g>
<!-- Node3 -->
<g id="node3" class="node">
<title>Node3</title>
<g id="a_node3"><a xlink:href="../../d5/d37/benchmark_8cc.html#a3c04138a5bfe5d72780bb7e82a18e627" target="_top" xlink:title=" ">
<polygon fill="white" stroke="black" points="0,-40.5 0,-61.5 47,-61.5 47,-40.5 0,-40.5"/>
<text text-anchor="middle" x="23.5" y="-47.9" font-family="Helvetica,sans-Serif" font-size="12.00">main</text>
</a>
</g>
</g>
<!-- Node2&#45;&gt;Node3 -->
<g id="edge2" class="edge">
<title>Node2&#45;&gt;Node3</title>
<path fill="none" stroke="midnightblue" d="M96.87,-77.08C80.27,-71.1 61.45,-64.32 47.16,-59.17"/>
<polygon fill="midnightblue" stroke="midnightblue" points="95.74,-80.39 106.34,-80.49 98.11,-73.81 95.74,-80.39"/>
</g>
<!-- Node4&#45;&gt;Node3 -->
<g id="edge4" class="edge">
<title>Node4&#45;&gt;Node3</title>
<path fill="none" stroke="midnightblue" d="M72.64,-51C63.58,-51 54.78,-51 47.25,-51"/>
<polygon fill="midnightblue" stroke="midnightblue" points="72.93,-54.5 82.93,-51 72.93,-47.5 72.93,-54.5"/>
</g>
<!-- Node5&#45;&gt;Node3 -->
<g id="edge6" class="edge">
<title>Node5&#45;&gt;Node3</title>
<path fill="none" stroke="midnightblue" d="M96.87,-24.92C80.27,-30.9 61.45,-37.68 47.16,-42.83"/>
<polygon fill="midnightblue" stroke="midnightblue" points="98.11,-28.19 106.34,-21.51 95.74,-21.61 98.11,-28.19"/>
</g>
</g>
</svg>
