<?xml version="1.0" encoding="UTF-8" standalone="no"?>
<!DOCTYPE svg PUBLIC "-//W3C//DTD SVG 1.1//EN"
 "http://www.w3.org/Graphics/SVG/1.1/DTD/svg11.dtd">
<!-- Generated by graphviz version 5.0.0 (0)
 -->
<!-- Title: plot_graph_1_3 Pages: 1 -->
<svg width="336pt" height="70pt"
 viewBox="0.00 0.00 336.00 70.00" xmlns="http://www.w3.org/2000/svg" xmlns:xlink="http://www.w3.org/1999/xlink">
<g id="graph0" class="graph" transform="scale(1 1) rotate(0) translate(4 66)">
<title>plot_graph_1_3</title>
<polygon fill="white" stroke="transparent" points="-4,4 -4,-66 332,-66 332,4 -4,4"/>
<!-- Node1 -->
<g id="node1" class="node">
<title>Node1</title>
<g id="a_node1"><a xlink:title=" ">
<polygon fill="#bfbfbf" stroke="black" points="0,-20.5 0,-41.5 107,-41.5 107,-20.5 0,-20.5"/>
<text text-anchor="middle" x="53.5" y="-27.9" font-family="Helvetica,sans-Serif" font-size="12.00">plot_graph_1_3</text>
</a>
</g>
</g>
<!-- Node2 -->
<g id="node2" class="node">
<title>Node2</title>
<g id="a_node2"><a xlink:href="../../d5/d37/benchmark_8cc.html#a1eecf481f3eeba3cdddf26c208e5507a" target="_top" xlink:title="Computes the maximum latency of successful tests from &lt;parameter test_data&gt;.">
<polygon fill="white" stroke="black" points="159.5,-40.5 159.5,-61.5 311.5,-61.5 311.5,-40.5 159.5,-40.5"/>
<text text-anchor="middle" x="235.5" y="-47.9" font-family="Helvetica,sans-Serif" font-size="12.00">get_maximum_latency</text>
</a>
</g>
</g>
<!-- Node1&#45;&gt;Node2 -->
<g id="edge1" class="edge">
<title>Node1&#45;&gt;Node2</title>
<path fill="none" stroke="midnightblue" d="M107.05,-36.84C120.37,-38.32 135.02,-39.95 149.5,-41.56"/>
<polygon fill="midnightblue" stroke="midnightblue" points="149.16,-45.04 159.48,-42.66 149.93,-38.08 149.16,-45.04"/>
</g>
<!-- Node3 -->
<g id="node3" class="node">
<title>Node3</title>
<g id="a_node3"><a xlink:href="../../d5/d37/benchmark_8cc.html#a817b47edcb712257bae32a9b6ee1a23e" target="_top" xlink:title="Computes the minimum nr of successful tests from &lt;parameter test_data&gt;.">
<polygon fill="white" stroke="black" points="143,-0.5 143,-21.5 328,-21.5 328,-0.5 143,-0.5"/>
<text text-anchor="middle" x="235.5" y="-7.9" font-family="Helvetica,sans-Serif" font-size="12.00">get_minimum_success_prob</text>
</a>
</g>
</g>
<!-- Node1&#45;&gt;Node3 -->
<g id="edge2" class="edge">
<title>Node1&#45;&gt;Node3</title>
<path fill="none" stroke="midnightblue" d="M107.05,-25.16C115.27,-24.25 123.99,-23.28 132.87,-22.29"/>
<polygon fill="midnightblue" stroke="midnightblue" points="133.39,-25.76 142.94,-21.17 132.61,-18.8 133.39,-25.76"/>
</g>
</g>
</svg>
