<?xml version="1.0" encoding="UTF-8" standalone="no"?>
<!DOCTYPE svg PUBLIC "-//W3C//DTD SVG 1.1//EN"
 "http://www.w3.org/Graphics/SVG/1.1/DTD/svg11.dtd">
<!-- Generated by graphviz version 5.0.0 (0)
 -->
<!-- Title: plot_graph_5 Pages: 1 -->
<svg width="323pt" height="70pt"
 viewBox="0.00 0.00 323.00 70.00" xmlns="http://www.w3.org/2000/svg" xmlns:xlink="http://www.w3.org/1999/xlink">
<g id="graph0" class="graph" transform="scale(1 1) rotate(0) translate(4 66)">
<title>plot_graph_5</title>
<polygon fill="white" stroke="transparent" points="-4,4 -4,-66 319,-66 319,4 -4,4"/>
<!-- Node1 -->
<g id="node1" class="node">
<title>Node1</title>
<g id="a_node1"><a xlink:title=" ">
<polygon fill="#bfbfbf" stroke="black" points="0,-20.5 0,-41.5 94,-41.5 94,-20.5 0,-20.5"/>
<text text-anchor="middle" x="47" y="-27.9" font-family="Helvetica,sans-Serif" font-size="12.00">plot_graph_5</text>
</a>
</g>
</g>
<!-- Node2 -->
<g id="node2" class="node">
<title>Node2</title>
<g id="a_node2"><a xlink:href="../../d5/d37/benchmark_8cc.html#a1eecf481f3eeba3cdddf26c208e5507a" target="_top" xlink:title="Computes the maximum latency of successful tests from &lt;parameter test_data&gt;.">
<polygon fill="white" stroke="black" points="146.5,-40.5 146.5,-61.5 298.5,-61.5 298.5,-40.5 146.5,-40.5"/>
<text text-anchor="middle" x="222.5" y="-47.9" font-family="Helvetica,sans-Serif" font-size="12.00">get_maximum_latency</text>
</a>
</g>
</g>
<!-- Node1&#45;&gt;Node2 -->
<g id="edge1" class="edge">
<title>Node1&#45;&gt;Node2</title>
<path fill="none" stroke="midnightblue" d="M94.04,-36.31C107.09,-37.81 121.73,-39.5 136.31,-41.18"/>
<polygon fill="midnightblue" stroke="midnightblue" points="136.04,-44.67 146.38,-42.34 136.84,-37.72 136.04,-44.67"/>
</g>
<!-- Node3 -->
<g id="node3" class="node">
<title>Node3</title>
<g id="a_node3"><a xlink:href="../../d5/d37/benchmark_8cc.html#a817b47edcb712257bae32a9b6ee1a23e" target="_top" xlink:title="Computes the minimum nr of successful tests from &lt;parameter test_data&gt;.">
<polygon fill="white" stroke="black" points="130,-0.5 130,-21.5 315,-21.5 315,-0.5 130,-0.5"/>
<text text-anchor="middle" x="222.5" y="-7.9" font-family="Helvetica,sans-Serif" font-size="12.00">get_minimum_success_prob</text>
</a>
</g>
</g>
<!-- Node1&#45;&gt;Node3 -->
<g id="edge2" class="edge">
<title>Node1&#45;&gt;Node3</title>
<path fill="none" stroke="midnightblue" d="M94.04,-25.69C102.3,-24.74 111.19,-23.72 120.3,-22.67"/>
<polygon fill="midnightblue" stroke="midnightblue" points="120.72,-26.14 130.26,-21.52 119.92,-19.19 120.72,-26.14"/>
</g>
</g>
</svg>
