<?xml version="1.0" encoding="UTF-8" standalone="no"?>
<!DOCTYPE svg PUBLIC "-//W3C//DTD SVG 1.1//EN"
 "http://www.w3.org/Graphics/SVG/1.1/DTD/svg11.dtd">
<!-- Generated by graphviz version 5.0.0 (0)
 -->
<!-- Title: plot_graph_6 Pages: 1 -->
<!--zoomable 508 -->
<svg id="main" version="1.1" xmlns="http://www.w3.org/2000/svg" xmlns:xlink="http://www.w3.org/1999/xlink" xml:space="preserve" onload="init(evt)">
<style type="text/css"><![CDATA[
.edge:hover path { stroke: red; }
.edge:hover polygon { stroke: red; fill: red; }
]]></style>
<script type="text/javascript"><![CDATA[
var edges = document.getElementsByTagName('g');
if (edges && edges.length) {
  for (var i=0;i<edges.length;i++) {
    if (edges[i].id.substr(0,4)=='edge') {
      edges[i].setAttribute('class','edge');
    }
  }
}
]]></script>
        <defs>
                <circle id="rim" cx="0" cy="0" r="7"/>
                <circle id="rim2" cx="0" cy="0" r="3.5"/>
                <g id="zoomPlus">
                        <use xlink:href="#rim" fill="#404040">
                                <set attributeName="fill" to="#808080" begin="zoomplus.mouseover" end="zoomplus.mouseout"/>
                        </use>
                        <path d="M-4,0h8M0,-4v8" fill="none" stroke="white" stroke-width="1.5" pointer-events="none"/>
                </g>
                <g id="zoomMin">
                        <use xlink:href="#rim" fill="#404040">
                                <set attributeName="fill" to="#808080" begin="zoomminus.mouseover" end="zoomminus.mouseout"/>
                        </use>
                        <path d="M-4,0h8" fill="none" stroke="white" stroke-width="1.5" pointer-events="none"/>
                </g>
                <g id="dirArrow">
                        <path fill="none" stroke="white" stroke-width="1.5" d="M0,-3.0v7 M-2.5,-0.5L0,-3.0L2.5,-0.5"/>
                </g>
               <g id="resetDef">
                       <use xlink:href="#rim2" fill="#404040">
                               <set attributeName="fill" to="#808080" begin="reset.mouseover" end="reset.mouseout"/>
                       </use>
               </g>
        </defs>

<script type="text/javascript">
var viewWidth = 640;
var viewHeight = 508;
var sectionId = 'dynsection-12';
</script>
<script xlink:href="../../svgpan.js"/>
<svg id="graph" class="graph">
<g id="viewport">
<title>plot_graph_6</title>
<polygon fill="white" stroke="transparent" points="-4,4 -4,-504 636,-504 636,4 -4,4"/>
<!-- Node1 -->
<g id="node1" class="node">
<title>Node1</title>
<g id="a_node1"><a xlink:title=" ">
<polygon fill="#bfbfbf" stroke="black" points="0,-225 0,-246 94,-246 94,-225 0,-225"/>
<text text-anchor="middle" x="47" y="-232.4" font-family="Helvetica,sans-Serif" font-size="12.00">plot_graph_6</text>
</a>
</g>
</g>
<!-- Node2 -->
<g id="node2" class="node">
<title>Node2</title>
<g id="a_node2"><a xlink:href="../../df/d31/main__utils_8cc.html#a3201d4e5bc0eff5d7dd5c0993b5aaa34" target="_top" xlink:title=" ">
<polygon fill="white" stroke="black" points="130,-245 130,-266 312,-266 312,-245 130,-245"/>
<text text-anchor="middle" x="221" y="-252.4" font-family="Helvetica,sans-Serif" font-size="12.00">generate_stake_distribution</text>
</a>
</g>
</g>
<!-- Node1&#45;&gt;Node2 -->
<g id="edge1" class="edge">
<title>Node1&#45;&gt;Node2</title>
<path fill="none" stroke="midnightblue" d="M94.09,-240.86C102.19,-241.8 110.89,-242.81 119.81,-243.85"/>
<polygon fill="midnightblue" stroke="midnightblue" points="119.6,-247.35 129.94,-245.03 120.41,-240.4 119.6,-247.35"/>
</g>
<!-- Node13 -->
<g id="node13" class="node">
<title>Node13</title>
<g id="a_node13"><a xlink:href="../../d5/d37/benchmark_8cc.html#a670aa533160fc691ac12b90080025dc4" target="_top" xlink:title="Opens a file and writes a string as the header of the file.">
<polygon fill="white" stroke="black" points="146,-205 146,-226 296,-226 296,-205 146,-205"/>
<text text-anchor="middle" x="221" y="-212.4" font-family="Helvetica,sans-Serif" font-size="12.00">open_file_with_header</text>
</a>
</g>
</g>
<!-- Node1&#45;&gt;Node13 -->
<g id="edge12" class="edge">
<title>Node1&#45;&gt;Node13</title>
<path fill="none" stroke="midnightblue" d="M94.09,-230.14C107.03,-228.64 121.51,-226.95 135.92,-225.28"/>
<polygon fill="midnightblue" stroke="midnightblue" points="136.34,-228.75 145.87,-224.12 135.53,-221.8 136.34,-228.75"/>
</g>
<!-- Node3 -->
<g id="node3" class="node">
<title>Node3</title>
<g id="a_node3"><a xlink:href="../../da/d55/classstake__distribution__generator.html#a3bc8bc85a9a0696fa5e28a160084cf52" target="_top" xlink:title="Adds, for each party in the stake distribution, &lt;parameter v&gt; additional stake.">
<polygon fill="white" stroke="black" points="381.5,-465.5 381.5,-499.5 598.5,-499.5 598.5,-465.5 381.5,-465.5"/>
<text text-anchor="start" x="389.5" y="-485.9" font-family="Helvetica,sans-Serif" font-size="12.00">stake_distribution_generator::add</text>
<text text-anchor="middle" x="490" y="-472.9" font-family="Helvetica,sans-Serif" font-size="12.00">_to_stake_distribution</text>
</a>
</g>
</g>
<!-- Node2&#45;&gt;Node3 -->
<g id="edge2" class="edge">
<title>Node2&#45;&gt;Node3</title>
<path fill="none" stroke="midnightblue" d="M225.36,-266.36C236.52,-300.49 275.8,-406.22 348,-455.5 355.33,-460.5 363.35,-464.64 371.72,-468.04"/>
<polygon fill="midnightblue" stroke="midnightblue" points="370.71,-471.4 381.31,-471.59 373.14,-464.84 370.71,-471.4"/>
</g>
<!-- Node4 -->
<g id="node4" class="node">
<title>Node4</title>
<g id="a_node4"><a xlink:href="../../da/d55/classstake__distribution__generator.html#af5c65ab784b15f01894e7130cc0bb661" target="_top" xlink:title="Generates a constant stake distribution with the given parameters.">
<polygon fill="white" stroke="black" points="348,-425 348,-446 632,-446 632,-425 348,-425"/>
<text text-anchor="middle" x="490" y="-432.4" font-family="Helvetica,sans-Serif" font-size="12.00">stake_distribution_generator::constant_stake</text>
</a>
</g>
</g>
<!-- Node2&#45;&gt;Node4 -->
<g id="edge3" class="edge">
<title>Node2&#45;&gt;Node4</title>
<path fill="none" stroke="midnightblue" d="M226.91,-266.4C240.92,-296.12 284.26,-378.81 348,-415.5 351.52,-417.52 355.16,-419.37 358.9,-421.05"/>
<polygon fill="midnightblue" stroke="midnightblue" points="357.8,-424.39 368.39,-424.91 360.44,-417.9 357.8,-424.39"/>
</g>
<!-- Node5 -->
<g id="node5" class="node">
<title>Node5</title>
<g id="a_node5"><a xlink:href="../../da/d55/classstake__distribution__generator.html#a7d9491cb9cab713369ec6bfc8571e6d2" target="_top" xlink:title="Generates an exponential stake distribution with the given parameters, and where the sender is the he...">
<polygon fill="white" stroke="black" points="358,-371.5 358,-405.5 622,-405.5 622,-371.5 358,-371.5"/>
<text text-anchor="start" x="366" y="-391.9" font-family="Helvetica,sans-Serif" font-size="12.00">stake_distribution_generator::exponential</text>
<text text-anchor="middle" x="490" y="-378.9" font-family="Helvetica,sans-Serif" font-size="12.00">_heaviest_stake</text>
</a>
</g>
</g>
<!-- Node2&#45;&gt;Node5 -->
<g id="edge4" class="edge">
<title>Node2&#45;&gt;Node5</title>
<path fill="none" stroke="midnightblue" d="M230.85,-266.07C249.84,-287.96 296.93,-338.26 348,-362.5 352.16,-364.47 356.46,-366.3 360.84,-367.99"/>
<polygon fill="midnightblue" stroke="midnightblue" points="359.99,-371.4 370.59,-371.46 362.34,-364.81 359.99,-371.4"/>
</g>
<!-- Node6 -->
<g id="node6" class="node">
<title>Node6</title>
<g id="a_node6"><a xlink:href="../../da/d55/classstake__distribution__generator.html#a13516e17aa69d2c5bc08f27ca46a0e18" target="_top" xlink:title="Generates an exponential stake distribution with the given parameters, and where the sender is the li...">
<polygon fill="white" stroke="black" points="358,-318.5 358,-352.5 622,-352.5 622,-318.5 358,-318.5"/>
<text text-anchor="start" x="366" y="-338.9" font-family="Helvetica,sans-Serif" font-size="12.00">stake_distribution_generator::exponential</text>
<text text-anchor="middle" x="490" y="-325.9" font-family="Helvetica,sans-Serif" font-size="12.00">_lightest_stake</text>
</a>
</g>
</g>
<!-- Node2&#45;&gt;Node6 -->
<g id="edge5" class="edge">
<title>Node2&#45;&gt;Node6</title>
<path fill="none" stroke="midnightblue" d="M242.86,-266.15C267.42,-278.29 309.73,-297.93 348,-309.5 355.96,-311.91 364.25,-314.13 372.64,-316.17"/>
<polygon fill="midnightblue" stroke="midnightblue" points="371.99,-319.62 382.53,-318.49 373.59,-312.8 371.99,-319.62"/>
</g>
<!-- Node7 -->
<g id="node7" class="node">
<title>Node7</title>
<g id="a_node7"><a xlink:href="../../da/d55/classstake__distribution__generator.html#a0ea9a4e1e4ae36b4363cc6d1895ccddd" target="_top" xlink:title="Generates an exponential stake distribution with the given parameters, and where the sender is the pa...">
<polygon fill="white" stroke="black" points="358,-265.5 358,-299.5 622,-299.5 622,-265.5 358,-265.5"/>
<text text-anchor="start" x="366" y="-285.9" font-family="Helvetica,sans-Serif" font-size="12.00">stake_distribution_generator::exponential</text>
<text text-anchor="middle" x="490" y="-272.9" font-family="Helvetica,sans-Serif" font-size="12.00">_median_stake</text>
</a>
</g>
</g>
<!-- Node2&#45;&gt;Node7 -->
<g id="edge6" class="edge">
<title>Node2&#45;&gt;Node7</title>
<path fill="none" stroke="midnightblue" d="M312.02,-264.6C323.49,-265.76 335.45,-266.97 347.49,-268.19"/>
<polygon fill="midnightblue" stroke="midnightblue" points="347.31,-271.69 357.62,-269.21 348.02,-264.73 347.31,-271.69"/>
</g>
<!-- Node8 -->
<g id="node8" class="node">
<title>Node8</title>
<g id="a_node8"><a xlink:href="../../da/d55/classstake__distribution__generator.html#aabe7ac745502142170a455e778fb8f02" target="_top" xlink:title="Generates a few heavy stake distribution with the given parameters, and where the sender is the heavi...">
<polygon fill="white" stroke="black" points="382,-212.5 382,-246.5 598,-246.5 598,-212.5 382,-212.5"/>
<text text-anchor="start" x="390" y="-232.9" font-family="Helvetica,sans-Serif" font-size="12.00">stake_distribution_generator::few</text>
<text text-anchor="middle" x="490" y="-219.9" font-family="Helvetica,sans-Serif" font-size="12.00">_heavy_heavy_stake</text>
</a>
</g>
</g>
<!-- Node2&#45;&gt;Node8 -->
<g id="edge7" class="edge">
<title>Node2&#45;&gt;Node8</title>
<path fill="none" stroke="midnightblue" d="M312.02,-246.73C331.19,-244.87 351.7,-242.87 371.72,-240.92"/>
<polygon fill="midnightblue" stroke="midnightblue" points="372.2,-244.39 381.81,-239.94 371.52,-237.42 372.2,-244.39"/>
</g>
<!-- Node9 -->
<g id="node9" class="node">
<title>Node9</title>
<g id="a_node9"><a xlink:href="../../da/d55/classstake__distribution__generator.html#abb8a24681627c5acb7c5162cb8e75181" target="_top" xlink:title="Generates a few heavy stake distribution with the given parameters, and where the sender is the light...">
<polygon fill="white" stroke="black" points="382,-159.5 382,-193.5 598,-193.5 598,-159.5 382,-159.5"/>
<text text-anchor="start" x="390" y="-179.9" font-family="Helvetica,sans-Serif" font-size="12.00">stake_distribution_generator::few</text>
<text text-anchor="middle" x="490" y="-166.9" font-family="Helvetica,sans-Serif" font-size="12.00">_heavy_light_stake</text>
</a>
</g>
</g>
<!-- Node2&#45;&gt;Node9 -->
<g id="edge8" class="edge">
<title>Node2&#45;&gt;Node9</title>
<path fill="none" stroke="midnightblue" d="M288.25,-244.86C296.48,-242.36 304.59,-239.29 312,-235.5 331.06,-225.75 328.8,-212.96 348,-203.5 355.72,-199.7 363.91,-196.43 372.32,-193.62"/>
<polygon fill="midnightblue" stroke="midnightblue" points="373.39,-196.96 381.89,-190.64 371.31,-190.27 373.39,-196.96"/>
</g>
<!-- Node10 -->
<g id="node10" class="node">
<title>Node10</title>
<g id="a_node10"><a xlink:href="../../da/d55/classstake__distribution__generator.html#aa118b134d691fb6392ec512bd3c01fa8" target="_top" xlink:title="Generates a stake distribution with the given number of parties, where the stake of each party is pic...">
<polygon fill="white" stroke="black" points="371,-106.5 371,-140.5 609,-140.5 609,-106.5 371,-106.5"/>
<text text-anchor="start" x="379" y="-126.9" font-family="Helvetica,sans-Serif" font-size="12.00">stake_distribution_generator::sample</text>
<text text-anchor="middle" x="490" y="-113.9" font-family="Helvetica,sans-Serif" font-size="12.00">_exponential_stake</text>
</a>
</g>
</g>
<!-- Node2&#45;&gt;Node10 -->
<g id="edge9" class="edge">
<title>Node2&#45;&gt;Node10</title>
<path fill="none" stroke="midnightblue" d="M296.91,-244.95C302.33,-242.4 307.45,-239.29 312,-235.5 343.53,-209.25 316.09,-176.29 348,-150.5 352.3,-147.02 356.92,-143.95 361.76,-141.23"/>
<polygon fill="midnightblue" stroke="midnightblue" points="363.35,-144.34 370.7,-136.71 360.2,-138.1 363.35,-144.34"/>
</g>
<!-- Node11 -->
<g id="node11" class="node">
<title>Node11</title>
<g id="a_node11"><a xlink:href="../../da/d55/classstake__distribution__generator.html#ae268154266dd8211b2d0aa95572b174e" target="_top" xlink:title="Generates a stake distribution with the given number of parties, where the stake of each party is pic...">
<polygon fill="white" stroke="black" points="371,-53.5 371,-87.5 609,-87.5 609,-53.5 371,-53.5"/>
<text text-anchor="start" x="379" y="-73.9" font-family="Helvetica,sans-Serif" font-size="12.00">stake_distribution_generator::sample</text>
<text text-anchor="middle" x="490" y="-60.9" font-family="Helvetica,sans-Serif" font-size="12.00">_geometric_stake</text>
</a>
</g>
</g>
<!-- Node2&#45;&gt;Node11 -->
<g id="edge10" class="edge">
<title>Node2&#45;&gt;Node11</title>
<path fill="none" stroke="midnightblue" d="M298.82,-244.99C303.62,-242.4 308.08,-239.28 312,-235.5 357.63,-191.51 301.73,-140.82 348,-97.5 352.21,-93.56 356.81,-90.11 361.69,-87.1"/>
<polygon fill="midnightblue" stroke="midnightblue" points="363.67,-90.01 370.77,-82.13 360.31,-83.86 363.67,-90.01"/>
</g>
<!-- Node12 -->
<g id="node12" class="node">
<title>Node12</title>
<g id="a_node12"><a xlink:href="../../da/d55/classstake__distribution__generator.html#a7ea2cb646581cf3bae6388cb3f712ef3" target="_top" xlink:title="Generates a stake distribution with the given number of parties, where the stake of each party is pic...">
<polygon fill="white" stroke="black" points="371,-0.5 371,-34.5 609,-34.5 609,-0.5 371,-0.5"/>
<text text-anchor="start" x="379" y="-20.9" font-family="Helvetica,sans-Serif" font-size="12.00">stake_distribution_generator::sample</text>
<text text-anchor="middle" x="490" y="-7.9" font-family="Helvetica,sans-Serif" font-size="12.00">_uniform_stake</text>
</a>
</g>
</g>
<!-- Node2&#45;&gt;Node12 -->
<g id="edge11" class="edge">
<title>Node2&#45;&gt;Node12</title>
<path fill="none" stroke="midnightblue" d="M299.95,-244.81C304.36,-242.25 308.44,-239.18 312,-235.5 372.09,-173.44 287.01,-105.67 348,-44.5 352.28,-40.2 357.03,-36.48 362.11,-33.26"/>
<polygon fill="midnightblue" stroke="midnightblue" points="363.94,-36.25 370.95,-28.3 360.51,-30.14 363.94,-36.25"/>
</g>
</g>
</svg>
        <g id="navigator" transform="translate(0 0)" fill="#404254">
                <rect fill="#f2f5e9" fill-opacity="0.5" stroke="#606060" stroke-width=".5" x="0" y="0" width="60" height="60"/>
                <use id="zoomplus" xlink:href="#zoomPlus" x="17" y="9" onmousedown="handleZoom(evt,'in')"/>
                <use id="zoomminus" xlink:href="#zoomMin" x="42" y="9" onmousedown="handleZoom(evt,'out')"/>
                <use id="reset" xlink:href="#resetDef" x="30" y="36" onmousedown="handleReset()"/>
                <g id="arrowUp" xlink:href="#dirArrow" transform="translate(30 24)" onmousedown="handlePan(0,-1)">
                  <use xlink:href="#rim" fill="#404040">
                        <set attributeName="fill" to="#808080" begin="arrowUp.mouseover" end="arrowUp.mouseout"/>
                  </use>
                  <path fill="none" stroke="white" stroke-width="1.5" d="M0,-3.0v7 M-2.5,-0.5L0,-3.0L2.5,-0.5"/>
                </g>
                <g id="arrowRight" xlink:href="#dirArrow" transform="rotate(90) translate(36 -43)" onmousedown="handlePan(1,0)">
                  <use xlink:href="#rim" fill="#404040">
                        <set attributeName="fill" to="#808080" begin="arrowRight.mouseover" end="arrowRight.mouseout"/>
                  </use>
                  <path fill="none" stroke="white" stroke-width="1.5" d="M0,-3.0v7 M-2.5,-0.5L0,-3.0L2.5,-0.5"/>
                </g>
                <g id="arrowDown" xlink:href="#dirArrow" transform="rotate(180) translate(-30 -48)" onmousedown="handlePan(0,1)">
                  <use xlink:href="#rim" fill="#404040">
                        <set attributeName="fill" to="#808080" begin="arrowDown.mouseover" end="arrowDown.mouseout"/>
                  </use>
                  <path fill="none" stroke="white" stroke-width="1.5" d="M0,-3.0v7 M-2.5,-0.5L0,-3.0L2.5,-0.5"/>
                </g>
                <g id="arrowLeft" xlink:href="#dirArrow" transform="rotate(270) translate(-36 17)" onmousedown="handlePan(-1,0)">
                  <use xlink:href="#rim" fill="#404040">
                        <set attributeName="fill" to="#808080" begin="arrowLeft.mouseover" end="arrowLeft.mouseout"/>
                  </use>
                  <path fill="none" stroke="white" stroke-width="1.5" d="M0,-3.0v7 M-2.5,-0.5L0,-3.0L2.5,-0.5"/>
                </g>
        </g>
        <svg viewBox="0 0 15 15" width="100%" height="30px" preserveAspectRatio="xMaxYMin meet">
         <g id="arrow_out" transform="scale(0.3 0.3)">
          <a xlink:href="benchmark_8cc_a36f3d599aaf7504a3874d775ed51dcd2_cgraph_org.svg" target="_base">
           <rect id="button" ry="5" rx="5" y="6" x="6" height="38" width="38"
                fill="#f2f5e9" fill-opacity="0.5" stroke="#606060" stroke-width="1.0"/>
           <path id="arrow"
             d="M 11.500037,31.436501 C 11.940474,20.09759 22.043105,11.32322 32.158766,21.979434 L 37.068811,17.246167 C 37.068811,17.246167 37.088388,32 37.088388,32 L 22.160133,31.978069 C 22.160133,31.978069 26.997745,27.140456 26.997745,27.140456 C 18.528582,18.264221 13.291696,25.230495 11.500037,31.436501 z"
             style="fill:#404040;"/>
          </a>
         </g>
        </svg>
</svg>
