<?xml version="1.0" encoding="UTF-8" standalone="no"?>
<!DOCTYPE svg PUBLIC "-//W3C//DTD SVG 1.1//EN"
 "http://www.w3.org/Graphics/SVG/1.1/DTD/svg11.dtd">
<!-- Generated by graphviz version 5.0.0 (0)
 -->
<!-- Title: utils/read_args.h Pages: 1 -->
<svg width="458pt" height="146pt"
 viewBox="0.00 0.00 458.00 146.00" xmlns="http://www.w3.org/2000/svg" xmlns:xlink="http://www.w3.org/1999/xlink">
<g id="graph0" class="graph" transform="scale(1 1) rotate(0) translate(4 142)">
<title>utils/read_args.h</title>
<polygon fill="white" stroke="transparent" points="-4,4 -4,-142 454,-142 454,4 -4,4"/>
<!-- Node1 -->
<g id="node1" class="node">
<title>Node1</title>
<g id="a_node1"><a xlink:title=" ">
<polygon fill="#bfbfbf" stroke="black" points="237,-116.5 237,-137.5 351,-137.5 351,-116.5 237,-116.5"/>
<text text-anchor="middle" x="294" y="-123.9" font-family="Helvetica,sans-Serif" font-size="12.00">utils/read_args.h</text>
</a>
</g>
</g>
<!-- Node2 -->
<g id="node2" class="node">
<title>Node2</title>
<g id="a_node2"><a xlink:href="../../d0/d8b/main__utils_8h.html" target="_top" xlink:title=" ">
<polygon fill="white" stroke="black" points="168,-58.5 168,-79.5 284,-79.5 284,-58.5 168,-58.5"/>
<text text-anchor="middle" x="226" y="-65.9" font-family="Helvetica,sans-Serif" font-size="12.00">utils/main_utils.h</text>
</a>
</g>
</g>
<!-- Node1&#45;&gt;Node2 -->
<g id="edge1" class="edge">
<title>Node1&#45;&gt;Node2</title>
<path fill="none" stroke="midnightblue" d="M274.14,-109.65C262.31,-99.91 247.71,-87.88 237.71,-79.64"/>
<polygon fill="midnightblue" stroke="midnightblue" points="272.21,-112.59 282.16,-116.25 276.66,-107.19 272.21,-112.59"/>
</g>
<!-- Node7 -->
<g id="node7" class="node">
<title>Node7</title>
<g id="a_node7"><a xlink:href="../../d7/d0c/read__args_8cc.html" target="_top" xlink:title=" ">
<polygon fill="white" stroke="black" points="302,-58.5 302,-79.5 422,-79.5 422,-58.5 302,-58.5"/>
<text text-anchor="middle" x="362" y="-65.9" font-family="Helvetica,sans-Serif" font-size="12.00">utils/read_args.cc</text>
</a>
</g>
</g>
<!-- Node1&#45;&gt;Node7 -->
<g id="edge6" class="edge">
<title>Node1&#45;&gt;Node7</title>
<path fill="none" stroke="midnightblue" d="M313.86,-109.65C325.69,-99.91 340.29,-87.88 350.29,-79.64"/>
<polygon fill="midnightblue" stroke="midnightblue" points="311.34,-107.19 305.84,-116.25 315.79,-112.59 311.34,-107.19"/>
</g>
<!-- Node3 -->
<g id="node3" class="node">
<title>Node3</title>
<g id="a_node3"><a xlink:href="../../d5/d37/benchmark_8cc.html" target="_top" xlink:title=" ">
<polygon fill="white" stroke="black" points="0,-0.5 0,-21.5 102,-21.5 102,-0.5 0,-0.5"/>
<text text-anchor="middle" x="51" y="-7.9" font-family="Helvetica,sans-Serif" font-size="12.00">benchmark.cc</text>
</a>
</g>
</g>
<!-- Node2&#45;&gt;Node3 -->
<g id="edge2" class="edge">
<title>Node2&#45;&gt;Node3</title>
<path fill="none" stroke="midnightblue" d="M186.39,-55.32C154.29,-45.05 109.78,-30.81 80.69,-21.5"/>
<polygon fill="midnightblue" stroke="midnightblue" points="185.33,-58.66 195.92,-58.37 187.46,-51.99 185.33,-58.66"/>
</g>
<!-- Node4 -->
<g id="node4" class="node">
<title>Node4</title>
<g id="a_node4"><a xlink:href="../../dd/d96/hybrid__main_8cc.html" target="_top" xlink:title=" ">
<polygon fill="white" stroke="black" points="120.5,-0.5 120.5,-21.5 227.5,-21.5 227.5,-0.5 120.5,-0.5"/>
<text text-anchor="middle" x="174" y="-7.9" font-family="Helvetica,sans-Serif" font-size="12.00">hybrid_main.cc</text>
</a>
</g>
</g>
<!-- Node2&#45;&gt;Node4 -->
<g id="edge3" class="edge">
<title>Node2&#45;&gt;Node4</title>
<path fill="none" stroke="midnightblue" d="M210.02,-50.79C201.12,-41.21 190.38,-29.64 182.95,-21.64"/>
<polygon fill="midnightblue" stroke="midnightblue" points="207.57,-53.3 216.94,-58.25 212.7,-48.54 207.57,-53.3"/>
</g>
<!-- Node5 -->
<g id="node5" class="node">
<title>Node5</title>
<g id="a_node5"><a xlink:href="../../d9/d0f/main_8cc.html" target="_top" xlink:title=" ">
<polygon fill="white" stroke="black" points="246,-0.5 246,-21.5 310,-21.5 310,-0.5 246,-0.5"/>
<text text-anchor="middle" x="278" y="-7.9" font-family="Helvetica,sans-Serif" font-size="12.00">main.cc</text>
</a>
</g>
</g>
<!-- Node2&#45;&gt;Node5 -->
<g id="edge4" class="edge">
<title>Node2&#45;&gt;Node5</title>
<path fill="none" stroke="midnightblue" d="M241.98,-50.79C250.88,-41.21 261.62,-29.64 269.05,-21.64"/>
<polygon fill="midnightblue" stroke="midnightblue" points="239.3,-48.54 235.06,-58.25 244.43,-53.3 239.3,-48.54"/>
</g>
<!-- Node6 -->
<g id="node6" class="node">
<title>Node6</title>
<g id="a_node6"><a xlink:href="../../df/d31/main__utils_8cc.html" target="_top" xlink:title=" ">
<polygon fill="white" stroke="black" points="328,-0.5 328,-21.5 450,-21.5 450,-0.5 328,-0.5"/>
<text text-anchor="middle" x="389" y="-7.9" font-family="Helvetica,sans-Serif" font-size="12.00">utils/main_utils.cc</text>
</a>
</g>
</g>
<!-- Node2&#45;&gt;Node6 -->
<g id="edge5" class="edge">
<title>Node2&#45;&gt;Node6</title>
<path fill="none" stroke="midnightblue" d="M263.67,-55.06C293.5,-44.81 334.49,-30.73 361.34,-21.5"/>
<polygon fill="midnightblue" stroke="midnightblue" points="262.34,-51.81 254.02,-58.37 264.62,-58.43 262.34,-51.81"/>
</g>
</g>
</svg>
