<?xml version="1.0" encoding="UTF-8" standalone="no"?>
<!DOCTYPE svg PUBLIC "-//W3C//DTD SVG 1.1//EN"
 "http://www.w3.org/Graphics/SVG/1.1/DTD/svg11.dtd">
<!-- Generated by graphviz version 5.0.0 (0)
 -->
<!-- Title: Graphical Class Hierarchy Pages: 1 -->
<svg width="1143pt" height="110pt"
 viewBox="0.00 0.00 1143.00 110.00" xmlns="http://www.w3.org/2000/svg" xmlns:xlink="http://www.w3.org/1999/xlink">
<g id="graph0" class="graph" transform="scale(1 1) rotate(0) translate(4 106)">
<title>Graphical Class Hierarchy</title>
<polygon fill="white" stroke="transparent" points="-4,4 -4,-106 1139,-106 1139,4 -4,4"/>
<!-- Node0 -->
<g id="node1" class="node">
<title>Node0</title>
<g id="a_node1"><a xlink:href="da/d73/classprotocol__simulator.html" target="_top" xlink:title="Abstract class for protocol simulators.">
<polygon fill="white" stroke="black" points="0,-20.5 0,-41.5 128,-41.5 128,-20.5 0,-20.5"/>
<text text-anchor="middle" x="64" y="-27.9" font-family="Helvetica,sans-Serif" font-size="12.00">protocol_simulator</text>
</a>
</g>
</g>
<!-- Node1 -->
<g id="node2" class="node">
<title>Node1</title>
<g id="a_node2"><a xlink:href="df/dcc/classcorruptions__stake__protocol__simulator.html" target="_top" xlink:title="Abstract class for protocol simulators with stake and corruptions.">
<polygon fill="white" stroke="black" points="164,-20.5 164,-41.5 403,-41.5 403,-20.5 164,-20.5"/>
<text text-anchor="middle" x="283.5" y="-27.9" font-family="Helvetica,sans-Serif" font-size="12.00">corruptions_stake_protocol_simulator</text>
</a>
</g>
</g>
<!-- Node0&#45;&gt;Node1 -->
<g id="edge1" class="edge">
<title>Node0&#45;&gt;Node1</title>
<path fill="none" stroke="midnightblue" d="M138.45,-31C146.68,-31 155.22,-31 163.83,-31"/>
<polygon fill="midnightblue" stroke="midnightblue" points="138.2,-27.5 128.2,-31 138.2,-34.5 138.2,-27.5"/>
</g>
<!-- Node2 -->
<g id="node3" class="node">
<title>Node2</title>
<g id="a_node3"><a xlink:href="d6/d8a/classabstract__receive__protocol__simulator.html" target="_top" xlink:title=" ">
<polygon fill="white" stroke="black" points="439,-0.5 439,-21.5 672,-21.5 672,-0.5 439,-0.5"/>
<text text-anchor="middle" x="555.5" y="-7.9" font-family="Helvetica,sans-Serif" font-size="12.00">abstract_receive_protocol_simulator</text>
</a>
</g>
</g>
<!-- Node1&#45;&gt;Node2 -->
<g id="edge2" class="edge">
<title>Node1&#45;&gt;Node2</title>
<path fill="none" stroke="midnightblue" d="M413.53,-21.44C421.93,-20.82 430.36,-20.2 438.68,-19.58"/>
<polygon fill="midnightblue" stroke="midnightblue" points="413.03,-17.97 403.32,-22.2 413.55,-24.95 413.03,-17.97"/>
</g>
<!-- Node6 -->
<g id="node7" class="node">
<title>Node6</title>
<g id="a_node7"><a xlink:href="da/d2c/classabstract__send__protocol__simulator.html" target="_top" xlink:title=" ">
<polygon fill="white" stroke="black" points="446.5,-40.5 446.5,-61.5 664.5,-61.5 664.5,-40.5 446.5,-40.5"/>
<text text-anchor="middle" x="555.5" y="-47.9" font-family="Helvetica,sans-Serif" font-size="12.00">abstract_send_protocol_simulator</text>
</a>
</g>
</g>
<!-- Node1&#45;&gt;Node6 -->
<g id="edge6" class="edge">
<title>Node1&#45;&gt;Node6</title>
<path fill="none" stroke="midnightblue" d="M413.4,-40.55C424.4,-41.36 435.45,-42.18 446.27,-42.98"/>
<polygon fill="midnightblue" stroke="midnightblue" points="413.55,-37.05 403.32,-39.8 413.03,-44.03 413.55,-37.05"/>
</g>
<!-- Node3 -->
<g id="node4" class="node">
<title>Node3</title>
<g id="a_node4"><a xlink:href="d2/d21/classreceiver__protocol__simulator.html" target="_top" xlink:title=" ">
<polygon fill="white" stroke="black" points="708,-0.5 708,-21.5 890,-21.5 890,-0.5 708,-0.5"/>
<text text-anchor="middle" x="799" y="-7.9" font-family="Helvetica,sans-Serif" font-size="12.00">receiver_protocol_simulator</text>
</a>
</g>
</g>
<!-- Node2&#45;&gt;Node3 -->
<g id="edge3" class="edge">
<title>Node2&#45;&gt;Node3</title>
<path fill="none" stroke="midnightblue" d="M682.42,-11C691.03,-11 699.61,-11 707.97,-11"/>
<polygon fill="midnightblue" stroke="midnightblue" points="682.3,-7.5 672.3,-11 682.3,-14.5 682.3,-7.5"/>
</g>
<!-- Node4 -->
<g id="node5" class="node">
<title>Node4</title>
<g id="a_node5"><a xlink:href="d7/d76/classhybrid__k__out__protocol__simulator.html" target="_top" xlink:title=" ">
<polygon fill="white" stroke="black" points="926,-10.5 926,-31.5 1135,-31.5 1135,-10.5 926,-10.5"/>
<text text-anchor="middle" x="1030.5" y="-17.9" font-family="Helvetica,sans-Serif" font-size="12.00">hybrid_k_out_protocol_simulator</text>
</a>
</g>
</g>
<!-- Node3&#45;&gt;Node4 -->
<g id="edge4" class="edge">
<title>Node3&#45;&gt;Node4</title>
<path fill="none" stroke="midnightblue" d="M900.25,-15.37C908.67,-15.74 917.2,-16.11 925.64,-16.47"/>
<polygon fill="midnightblue" stroke="midnightblue" points="900.19,-11.86 890.05,-14.92 899.88,-18.86 900.19,-11.86"/>
</g>
<!-- Node8 -->
<g id="node6" class="node">
<title>Node8</title>
<g id="a_node6"><a xlink:href="d0/d86/classhybrid__protocol__simulator.html" target="_top" xlink:title=" ">
<polygon fill="white" stroke="black" points="945,-70.5 945,-91.5 1116,-91.5 1116,-70.5 945,-70.5"/>
<text text-anchor="middle" x="1030.5" y="-77.9" font-family="Helvetica,sans-Serif" font-size="12.00">hybrid_protocol_simulator</text>
</a>
</g>
</g>
<!-- Node3&#45;&gt;Node8 -->
<g id="edge5" class="edge">
<title>Node3&#45;&gt;Node8</title>
<path fill="none" stroke="midnightblue" d="M862.58,-23.84C871.82,-26.05 881.19,-28.45 890,-31 930.04,-42.57 975.27,-59.52 1003.08,-70.41"/>
<polygon fill="midnightblue" stroke="midnightblue" points="863.16,-20.38 852.63,-21.53 861.58,-27.2 863.16,-20.38"/>
</g>
<!-- Node5 -->
<g id="node8" class="node">
<title>Node5</title>
<g id="a_node8"><a xlink:href="de/d66/classk__out__protocol__simulator.html" target="_top" xlink:title=" ">
<polygon fill="white" stroke="black" points="716,-40.5 716,-61.5 882,-61.5 882,-40.5 716,-40.5"/>
<text text-anchor="middle" x="799" y="-47.9" font-family="Helvetica,sans-Serif" font-size="12.00">k_out_protocol_simulator</text>
</a>
</g>
</g>
<!-- Node6&#45;&gt;Node5 -->
<g id="edge7" class="edge">
<title>Node6&#45;&gt;Node5</title>
<path fill="none" stroke="midnightblue" d="M674.65,-51C688.56,-51 702.51,-51 715.78,-51"/>
<polygon fill="midnightblue" stroke="midnightblue" points="674.54,-47.5 664.54,-51 674.54,-54.5 674.54,-47.5"/>
</g>
<!-- Node7 -->
<g id="node9" class="node">
<title>Node7</title>
<g id="a_node9"><a xlink:href="df/d1d/classsend__protocol__simulator.html" target="_top" xlink:title=" ">
<polygon fill="white" stroke="black" points="718,-80.5 718,-101.5 880,-101.5 880,-80.5 718,-80.5"/>
<text text-anchor="middle" x="799" y="-87.9" font-family="Helvetica,sans-Serif" font-size="12.00">send_protocol_simulator</text>
</a>
</g>
</g>
<!-- Node6&#45;&gt;Node7 -->
<g id="edge9" class="edge">
<title>Node6&#45;&gt;Node7</title>
<path fill="none" stroke="midnightblue" d="M630.11,-63.19C663.46,-68.72 702.51,-75.18 734.55,-80.49"/>
<polygon fill="midnightblue" stroke="midnightblue" points="630.39,-59.69 619.95,-61.51 629.24,-66.6 630.39,-59.69"/>
</g>
<!-- Node5&#45;&gt;Node4 -->
<g id="edge8" class="edge">
<title>Node5&#45;&gt;Node4</title>
<path fill="none" stroke="midnightblue" d="M890.59,-39.16C909.92,-36.63 930.2,-33.98 949.1,-31.51"/>
<polygon fill="midnightblue" stroke="midnightblue" points="890.05,-35.7 880.59,-40.47 890.96,-42.64 890.05,-35.7"/>
</g>
<!-- Node7&#45;&gt;Node8 -->
<g id="edge10" class="edge">
<title>Node7&#45;&gt;Node8</title>
<path fill="none" stroke="midnightblue" d="M890.45,-87.06C908.42,-86.28 927.22,-85.46 944.99,-84.68"/>
<polygon fill="midnightblue" stroke="midnightblue" points="890.11,-83.57 880.27,-87.5 890.41,-90.56 890.11,-83.57"/>
</g>
</g>
</svg>
