<?xml version="1.0" encoding="UTF-8" standalone="no"?>
<!DOCTYPE svg PUBLIC "-//W3C//DTD SVG 1.1//EN"
 "http://www.w3.org/Graphics/SVG/1.1/DTD/svg11.dtd">
<!-- Generated by graphviz version 5.0.0 (0)
 -->
<!-- Title: /home/guilhermemtr/Dropbox/workspace/ETH&#45;Zurich/Projects/Weighted&#45;Flooding&#45;Simulator/utils/yal_log.h Pages: 1 -->
<!--zoomable 670 -->
<svg id="main" version="1.1" xmlns="http://www.w3.org/2000/svg" xmlns:xlink="http://www.w3.org/1999/xlink" xml:space="preserve" onload="init(evt)">
<style type="text/css"><![CDATA[
.edge:hover path { stroke: red; }
.edge:hover polygon { stroke: red; fill: red; }
]]></style>
<script type="text/javascript"><![CDATA[
var edges = document.getElementsByTagName('g');
if (edges && edges.length) {
  for (var i=0;i<edges.length;i++) {
    if (edges[i].id.substr(0,4)=='edge') {
      edges[i].setAttribute('class','edge');
    }
  }
}
]]></script>
        <defs>
                <circle id="rim" cx="0" cy="0" r="7"/>
                <circle id="rim2" cx="0" cy="0" r="3.5"/>
                <g id="zoomPlus">
                        <use xlink:href="#rim" fill="#404040">
                                <set attributeName="fill" to="#808080" begin="zoomplus.mouseover" end="zoomplus.mouseout"/>
                        </use>
                        <path d="M-4,0h8M0,-4v8" fill="none" stroke="white" stroke-width="1.5" pointer-events="none"/>
                </g>
                <g id="zoomMin">
                        <use xlink:href="#rim" fill="#404040">
                                <set attributeName="fill" to="#808080" begin="zoomminus.mouseover" end="zoomminus.mouseout"/>
                        </use>
                        <path d="M-4,0h8" fill="none" stroke="white" stroke-width="1.5" pointer-events="none"/>
                </g>
                <g id="dirArrow">
                        <path fill="none" stroke="white" stroke-width="1.5" d="M0,-3.0v7 M-2.5,-0.5L0,-3.0L2.5,-0.5"/>
                </g>
               <g id="resetDef">
                       <use xlink:href="#rim2" fill="#404040">
                               <set attributeName="fill" to="#808080" begin="reset.mouseover" end="reset.mouseout"/>
                       </use>
               </g>
        </defs>

<script type="text/javascript">
var viewWidth = 2162;
var viewHeight = 670;
var sectionId = 'dynsection-1';
</script>
<script xlink:href="../../svgpan.js"/>
<svg id="graph" class="graph">
<g id="viewport">
<title>/home/guilhermemtr/Dropbox/workspace/ETH&#45;Zurich/Projects/Weighted&#45;Flooding&#45;Simulator/utils/yal_log.h</title>
<polygon fill="white" stroke="transparent" points="-4,4 -4,-666 2158.2,-666 2158.2,4 -4,4"/>
<!-- Node1 -->
<g id="node1" class="node">
<title>Node1</title>
<g id="a_node1"><a xlink:title=" ">
<polygon fill="#bfbfbf" stroke="black" points="1042.2,-614.5 1042.2,-661.5 1304.2,-661.5 1304.2,-614.5 1042.2,-614.5"/>
<text text-anchor="start" x="1050.2" y="-647.9" font-family="Helvetica,sans-Serif" font-size="12.00">/home/guilhermemtr/Dropbox/workspace</text>
<text text-anchor="start" x="1050.2" y="-634.9" font-family="Helvetica,sans-Serif" font-size="12.00">/ETH&#45;Zurich/Projects/Weighted&#45;Flooding</text>
<text text-anchor="middle" x="1173.2" y="-621.9" font-family="Helvetica,sans-Serif" font-size="12.00">&#45;Simulator/utils/yal_log.h</text>
</a>
</g>
</g>
<!-- Node2 -->
<g id="node2" class="node">
<title>Node2</title>
<g id="a_node2"><a xlink:href="../../d8/de7/corruptions__stake__protocol__simulator_8h.html" target="_top" xlink:title=" ">
<polygon fill="white" stroke="black" points="522.7,-446.5 522.7,-493.5 883.7,-493.5 883.7,-446.5 522.7,-446.5"/>
<text text-anchor="start" x="530.7" y="-479.9" font-family="Helvetica,sans-Serif" font-size="12.00">/home/guilhermemtr/Dropbox/workspace</text>
<text text-anchor="start" x="530.7" y="-466.9" font-family="Helvetica,sans-Serif" font-size="12.00">/ETH&#45;Zurich/Projects/Weighted&#45;Flooding</text>
<text text-anchor="middle" x="703.2" y="-453.9" font-family="Helvetica,sans-Serif" font-size="12.00">&#45;Simulator/include/corruptions_stake_protocol_simulator.h</text>
</a>
</g>
</g>
<!-- Node1&#45;&gt;Node2 -->
<g id="edge1" class="edge">
<title>Node1&#45;&gt;Node2</title>
<path fill="none" stroke="midnightblue" d="M1032.04,-615.96C986.85,-606.94 937.16,-594.56 893.2,-578 834.75,-555.98 772.72,-517.89 736,-493.6"/>
<polygon fill="midnightblue" stroke="midnightblue" points="1031.42,-619.41 1041.91,-617.89 1032.77,-612.54 1031.42,-619.41"/>
</g>
<!-- Node7 -->
<g id="node7" class="node">
<title>Node7</title>
<g id="a_node7"><a xlink:href="../../d0/d8b/main__utils_8h.html" target="_top" xlink:title=" ">
<polygon fill="white" stroke="black" points="1335.2,-84.5 1335.2,-131.5 1597.2,-131.5 1597.2,-84.5 1335.2,-84.5"/>
<text text-anchor="start" x="1343.2" y="-117.9" font-family="Helvetica,sans-Serif" font-size="12.00">/home/guilhermemtr/Dropbox/workspace</text>
<text text-anchor="start" x="1343.2" y="-104.9" font-family="Helvetica,sans-Serif" font-size="12.00">/ETH&#45;Zurich/Projects/Weighted&#45;Flooding</text>
<text text-anchor="middle" x="1466.2" y="-91.9" font-family="Helvetica,sans-Serif" font-size="12.00">&#45;Simulator/utils/main_utils.h</text>
</a>
</g>
</g>
<!-- Node1&#45;&gt;Node7 -->
<g id="edge47" class="edge">
<title>Node1&#45;&gt;Node7</title>
<path fill="none" stroke="midnightblue" d="M1314.5,-631.47C1516.64,-619.63 1864.2,-583 1864.2,-471 1864.2,-471 1864.2,-471 1864.2,-281.5 1864.2,-225.44 1854,-201.7 1809.2,-168 1776.01,-143.03 1679.52,-127.86 1597.31,-119.17"/>
<polygon fill="midnightblue" stroke="midnightblue" points="1314.18,-627.98 1304.39,-632.04 1314.58,-634.97 1314.18,-627.98"/>
</g>
<!-- Node17 -->
<g id="node17" class="node">
<title>Node17</title>
<g id="a_node17"><a xlink:href="../../d8/d9d/k__out__protocol__simulator_8h.html" target="_top" xlink:title=" ">
<polygon fill="white" stroke="black" points="179.2,-259 179.2,-306 467.2,-306 467.2,-259 179.2,-259"/>
<text text-anchor="start" x="187.2" y="-292.4" font-family="Helvetica,sans-Serif" font-size="12.00">/home/guilhermemtr/Dropbox/workspace</text>
<text text-anchor="start" x="187.2" y="-279.4" font-family="Helvetica,sans-Serif" font-size="12.00">/ETH&#45;Zurich/Projects/Weighted&#45;Flooding</text>
<text text-anchor="middle" x="323.2" y="-266.4" font-family="Helvetica,sans-Serif" font-size="12.00">&#45;Simulator/include/k_out_protocol_simulator.h</text>
</a>
</g>
</g>
<!-- Node1&#45;&gt;Node17 -->
<g id="edge28" class="edge">
<title>Node1&#45;&gt;Node17</title>
<path fill="none" stroke="midnightblue" d="M1031.98,-634.87C767.63,-630.02 217.62,-615.51 139.2,-578 37,-529.11 -43.73,-437.35 27.2,-349 47.06,-324.27 113.8,-308.31 178.9,-298.34"/>
<polygon fill="midnightblue" stroke="midnightblue" points="1031.97,-638.37 1042.03,-635.05 1032.09,-631.37 1031.97,-638.37"/>
</g>
<!-- Node23 -->
<g id="node23" class="node">
<title>Node23</title>
<g id="a_node23"><a xlink:href="../../dc/d8d/protocol__simulator_8h.html" target="_top" xlink:title=" ">
<polygon fill="white" stroke="black" points="902.2,-530.5 902.2,-577.5 1164.2,-577.5 1164.2,-530.5 902.2,-530.5"/>
<text text-anchor="start" x="910.2" y="-563.9" font-family="Helvetica,sans-Serif" font-size="12.00">/home/guilhermemtr/Dropbox/workspace</text>
<text text-anchor="start" x="910.2" y="-550.9" font-family="Helvetica,sans-Serif" font-size="12.00">/ETH&#45;Zurich/Projects/Weighted&#45;Flooding</text>
<text text-anchor="middle" x="1033.2" y="-537.9" font-family="Helvetica,sans-Serif" font-size="12.00">&#45;Simulator/include/protocol_simulator.h</text>
</a>
</g>
</g>
<!-- Node1&#45;&gt;Node23 -->
<g id="edge29" class="edge">
<title>Node1&#45;&gt;Node23</title>
<path fill="none" stroke="midnightblue" d="M1125.61,-609.12C1108.04,-598.83 1088.37,-587.31 1071.7,-577.55"/>
<polygon fill="midnightblue" stroke="midnightblue" points="1124.18,-612.34 1134.58,-614.38 1127.72,-606.3 1124.18,-612.34"/>
</g>
<!-- Node25 -->
<g id="node25" class="node">
<title>Node25</title>
<g id="a_node25"><a xlink:href="../../d7/d90/random__sampler_8h.html" target="_top" xlink:title=" ">
<polygon fill="white" stroke="black" points="148.2,-530.5 148.2,-577.5 410.2,-577.5 410.2,-530.5 148.2,-530.5"/>
<text text-anchor="start" x="156.2" y="-563.9" font-family="Helvetica,sans-Serif" font-size="12.00">/home/guilhermemtr/Dropbox/workspace</text>
<text text-anchor="start" x="156.2" y="-550.9" font-family="Helvetica,sans-Serif" font-size="12.00">/ETH&#45;Zurich/Projects/Weighted&#45;Flooding</text>
<text text-anchor="middle" x="279.2" y="-537.9" font-family="Helvetica,sans-Serif" font-size="12.00">&#45;Simulator/include/random_sampler.h</text>
</a>
</g>
</g>
<!-- Node1&#45;&gt;Node25 -->
<g id="edge32" class="edge">
<title>Node1&#45;&gt;Node25</title>
<path fill="none" stroke="midnightblue" d="M1031.71,-624.02C860.99,-608.36 576.3,-582.25 410.35,-567.03"/>
<polygon fill="midnightblue" stroke="midnightblue" points="1031.49,-627.52 1041.77,-624.94 1032.13,-620.55 1031.49,-627.52"/>
</g>
<!-- Node27 -->
<g id="node27" class="node">
<title>Node27</title>
<g id="a_node27"><a xlink:href="../../d6/d74/random__utils_8h.html" target="_top" xlink:title=" ">
<polygon fill="white" stroke="black" points="1182.2,-446.5 1182.2,-493.5 1444.2,-493.5 1444.2,-446.5 1182.2,-446.5"/>
<text text-anchor="start" x="1190.2" y="-479.9" font-family="Helvetica,sans-Serif" font-size="12.00">/home/guilhermemtr/Dropbox/workspace</text>
<text text-anchor="start" x="1190.2" y="-466.9" font-family="Helvetica,sans-Serif" font-size="12.00">/ETH&#45;Zurich/Projects/Weighted&#45;Flooding</text>
<text text-anchor="middle" x="1313.2" y="-453.9" font-family="Helvetica,sans-Serif" font-size="12.00">&#45;Simulator/include/random_utils.h</text>
</a>
</g>
</g>
<!-- Node1&#45;&gt;Node27 -->
<g id="edge35" class="edge">
<title>Node1&#45;&gt;Node27</title>
<path fill="none" stroke="midnightblue" d="M1199.01,-606.4C1226.51,-573.79 1269.39,-522.94 1294.04,-493.72"/>
<polygon fill="midnightblue" stroke="midnightblue" points="1196.15,-604.37 1192.38,-614.27 1201.5,-608.88 1196.15,-604.37"/>
</g>
<!-- Node29 -->
<g id="node29" class="node">
<title>Node29</title>
<g id="a_node29"><a xlink:href="../../d1/dde/read__args_8h.html" target="_top" xlink:title=" ">
<polygon fill="white" stroke="black" points="1415.2,-530.5 1415.2,-577.5 1677.2,-577.5 1677.2,-530.5 1415.2,-530.5"/>
<text text-anchor="start" x="1423.2" y="-563.9" font-family="Helvetica,sans-Serif" font-size="12.00">/home/guilhermemtr/Dropbox/workspace</text>
<text text-anchor="start" x="1423.2" y="-550.9" font-family="Helvetica,sans-Serif" font-size="12.00">/ETH&#45;Zurich/Projects/Weighted&#45;Flooding</text>
<text text-anchor="middle" x="1546.2" y="-537.9" font-family="Helvetica,sans-Serif" font-size="12.00">&#45;Simulator/utils/read_args.h</text>
</a>
</g>
</g>
<!-- Node1&#45;&gt;Node29 -->
<g id="edge48" class="edge">
<title>Node1&#45;&gt;Node29</title>
<path fill="none" stroke="midnightblue" d="M1285.55,-612.3C1335.81,-601.25 1394.65,-588.32 1443.69,-577.54"/>
<polygon fill="midnightblue" stroke="midnightblue" points="1284.64,-608.92 1275.62,-614.48 1286.14,-615.76 1284.64,-608.92"/>
</g>
<!-- Node31 -->
<g id="node31" class="node">
<title>Node31</title>
<g id="a_node31"><a xlink:href="../../d7/d36/yal__log_8cc.html" target="_top" xlink:title=" ">
<polygon fill="white" stroke="black" points="1892.2,-530.5 1892.2,-577.5 2154.2,-577.5 2154.2,-530.5 1892.2,-530.5"/>
<text text-anchor="start" x="1900.2" y="-563.9" font-family="Helvetica,sans-Serif" font-size="12.00">/home/guilhermemtr/Dropbox/workspace</text>
<text text-anchor="start" x="1900.2" y="-550.9" font-family="Helvetica,sans-Serif" font-size="12.00">/ETH&#45;Zurich/Projects/Weighted&#45;Flooding</text>
<text text-anchor="middle" x="2023.2" y="-537.9" font-family="Helvetica,sans-Serif" font-size="12.00">&#45;Simulator/utils/yal_log.cc</text>
</a>
</g>
</g>
<!-- Node1&#45;&gt;Node31 -->
<g id="edge51" class="edge">
<title>Node1&#45;&gt;Node31</title>
<path fill="none" stroke="midnightblue" d="M1314.53,-628.25C1457.09,-618.7 1683.36,-601.57 1878.2,-578 1882.76,-577.45 1887.39,-576.86 1892.06,-576.25"/>
<polygon fill="midnightblue" stroke="midnightblue" points="1314.15,-624.77 1304.41,-628.93 1314.62,-631.75 1314.15,-624.77"/>
</g>
<!-- Node3 -->
<g id="node3" class="node">
<title>Node3</title>
<g id="a_node3"><a xlink:href="../../df/d52/abstract__receive__protocol__simulator_8h.html" target="_top" xlink:title=" ">
<polygon fill="white" stroke="black" points="770.7,-356 770.7,-403 1125.7,-403 1125.7,-356 770.7,-356"/>
<text text-anchor="start" x="778.7" y="-389.4" font-family="Helvetica,sans-Serif" font-size="12.00">/home/guilhermemtr/Dropbox/workspace</text>
<text text-anchor="start" x="778.7" y="-376.4" font-family="Helvetica,sans-Serif" font-size="12.00">/ETH&#45;Zurich/Projects/Weighted&#45;Flooding</text>
<text text-anchor="middle" x="948.2" y="-363.4" font-family="Helvetica,sans-Serif" font-size="12.00">&#45;Simulator/include/abstract_receive_protocol_simulator.h</text>
</a>
</g>
</g>
<!-- Node2&#45;&gt;Node3 -->
<g id="edge2" class="edge">
<title>Node2&#45;&gt;Node3</title>
<path fill="none" stroke="midnightblue" d="M775.37,-442.93C810.44,-430.26 852.18,-415.18 885.86,-403.02"/>
<polygon fill="midnightblue" stroke="midnightblue" points="773.88,-439.75 765.66,-446.44 776.25,-446.33 773.88,-439.75"/>
</g>
<!-- Node16 -->
<g id="node16" class="node">
<title>Node16</title>
<g id="a_node16"><a xlink:href="../../d9/d95/abstract__send__protocol__simulator_8h.html" target="_top" xlink:title=" ">
<polygon fill="white" stroke="black" points="412.2,-356 412.2,-403 752.2,-403 752.2,-356 412.2,-356"/>
<text text-anchor="start" x="420.2" y="-389.4" font-family="Helvetica,sans-Serif" font-size="12.00">/home/guilhermemtr/Dropbox/workspace</text>
<text text-anchor="start" x="420.2" y="-376.4" font-family="Helvetica,sans-Serif" font-size="12.00">/ETH&#45;Zurich/Projects/Weighted&#45;Flooding</text>
<text text-anchor="middle" x="582.2" y="-363.4" font-family="Helvetica,sans-Serif" font-size="12.00">&#45;Simulator/include/abstract_send_protocol_simulator.h</text>
</a>
</g>
</g>
<!-- Node2&#45;&gt;Node16 -->
<g id="edge17" class="edge">
<title>Node2&#45;&gt;Node16</title>
<path fill="none" stroke="midnightblue" d="M663.97,-440.3C647.44,-428.21 628.49,-414.35 612.99,-403.02"/>
<polygon fill="midnightblue" stroke="midnightblue" points="662.22,-443.36 672.36,-446.44 666.35,-437.71 662.22,-443.36"/>
</g>
<!-- Node22 -->
<g id="node22" class="node">
<title>Node22</title>
<g id="a_node22"><a xlink:href="../../de/de3/corruptions__stake__protocol__simulator_8cc.html" target="_top" xlink:title=" ">
<polygon fill="white" stroke="black" points="54.7,-349.5 54.7,-409.5 317.7,-409.5 317.7,-349.5 54.7,-349.5"/>
<text text-anchor="start" x="62.7" y="-395.9" font-family="Helvetica,sans-Serif" font-size="12.00">/home/guilhermemtr/Dropbox/workspace</text>
<text text-anchor="start" x="62.7" y="-382.9" font-family="Helvetica,sans-Serif" font-size="12.00">/ETH&#45;Zurich/Projects/Weighted&#45;Flooding</text>
<text text-anchor="start" x="62.7" y="-369.9" font-family="Helvetica,sans-Serif" font-size="12.00">&#45;Simulator/src/corruptions_stake_protocol</text>
<text text-anchor="middle" x="186.2" y="-356.9" font-family="Helvetica,sans-Serif" font-size="12.00">_simulator.cc</text>
</a>
</g>
</g>
<!-- Node2&#45;&gt;Node22 -->
<g id="edge27" class="edge">
<title>Node2&#45;&gt;Node22</title>
<path fill="none" stroke="midnightblue" d="M542.27,-444.9C476.97,-434.74 400.88,-422.39 332.2,-410 327.49,-409.15 322.7,-408.27 317.87,-407.37"/>
<polygon fill="midnightblue" stroke="midnightblue" points="541.82,-448.37 552.24,-446.45 542.89,-441.46 541.82,-448.37"/>
</g>
<!-- Node4 -->
<g id="node4" class="node">
<title>Node4</title>
<g id="a_node4"><a xlink:href="../../da/dd8/receiver__protocol__simulator_8h.html" target="_top" xlink:title=" ">
<polygon fill="white" stroke="black" points="1100.7,-259 1100.7,-306 1405.7,-306 1405.7,-259 1100.7,-259"/>
<text text-anchor="start" x="1108.7" y="-292.4" font-family="Helvetica,sans-Serif" font-size="12.00">/home/guilhermemtr/Dropbox/workspace</text>
<text text-anchor="start" x="1108.7" y="-279.4" font-family="Helvetica,sans-Serif" font-size="12.00">/ETH&#45;Zurich/Projects/Weighted&#45;Flooding</text>
<text text-anchor="middle" x="1253.2" y="-266.4" font-family="Helvetica,sans-Serif" font-size="12.00">&#45;Simulator/include/receiver_protocol_simulator.h</text>
</a>
</g>
</g>
<!-- Node3&#45;&gt;Node4 -->
<g id="edge3" class="edge">
<title>Node3&#45;&gt;Node4</title>
<path fill="none" stroke="midnightblue" d="M1030.33,-352.92C1077.3,-338.29 1135.68,-320.1 1180.91,-306.02"/>
<polygon fill="midnightblue" stroke="midnightblue" points="1028.99,-349.67 1020.48,-355.99 1031.07,-356.35 1028.99,-349.67"/>
</g>
<!-- Node15 -->
<g id="node15" class="node">
<title>Node15</title>
<g id="a_node15"><a xlink:href="../../de/d4e/abstract__receive__protocol__simulator_8cc.html" target="_top" xlink:title=" ">
<polygon fill="white" stroke="black" points="782.2,-252.5 782.2,-312.5 1044.2,-312.5 1044.2,-252.5 782.2,-252.5"/>
<text text-anchor="start" x="790.2" y="-298.9" font-family="Helvetica,sans-Serif" font-size="12.00">/home/guilhermemtr/Dropbox/workspace</text>
<text text-anchor="start" x="790.2" y="-285.9" font-family="Helvetica,sans-Serif" font-size="12.00">/ETH&#45;Zurich/Projects/Weighted&#45;Flooding</text>
<text text-anchor="start" x="790.2" y="-272.9" font-family="Helvetica,sans-Serif" font-size="12.00">&#45;Simulator/src/abstract_receive_protocol</text>
<text text-anchor="middle" x="913.2" y="-259.9" font-family="Helvetica,sans-Serif" font-size="12.00">_simulator.cc</text>
</a>
</g>
</g>
<!-- Node3&#45;&gt;Node15 -->
<g id="edge16" class="edge">
<title>Node3&#45;&gt;Node15</title>
<path fill="none" stroke="midnightblue" d="M936.37,-346.39C932.35,-335.48 927.89,-323.36 923.96,-312.69"/>
<polygon fill="midnightblue" stroke="midnightblue" points="933.17,-347.81 939.91,-355.99 939.74,-345.39 933.17,-347.81"/>
</g>
<!-- Node5 -->
<g id="node5" class="node">
<title>Node5</title>
<g id="a_node5"><a xlink:href="../../dc/da4/hybrid__k__out__protocol__simulator_8h.html" target="_top" xlink:title=" ">
<polygon fill="white" stroke="black" points="453.2,-168.5 453.2,-215.5 785.2,-215.5 785.2,-168.5 453.2,-168.5"/>
<text text-anchor="start" x="461.2" y="-201.9" font-family="Helvetica,sans-Serif" font-size="12.00">/home/guilhermemtr/Dropbox/workspace</text>
<text text-anchor="start" x="461.2" y="-188.9" font-family="Helvetica,sans-Serif" font-size="12.00">/ETH&#45;Zurich/Projects/Weighted&#45;Flooding</text>
<text text-anchor="middle" x="619.2" y="-175.9" font-family="Helvetica,sans-Serif" font-size="12.00">&#45;Simulator/include/hybrid_k_out_protocol_simulator.h</text>
</a>
</g>
</g>
<!-- Node4&#45;&gt;Node5 -->
<g id="edge4" class="edge">
<title>Node4&#45;&gt;Node5</title>
<path fill="none" stroke="midnightblue" d="M1119.78,-257.29C1108.43,-255.43 1097.13,-253.64 1086.2,-252 956.89,-232.62 923.92,-232.52 794.2,-216 791.32,-215.63 788.4,-215.26 785.47,-214.88"/>
<polygon fill="midnightblue" stroke="midnightblue" points="1119.31,-260.76 1129.75,-258.95 1120.46,-253.86 1119.31,-260.76"/>
</g>
<!-- Node4&#45;&gt;Node7 -->
<g id="edge15" class="edge">
<title>Node4&#45;&gt;Node7</title>
<path fill="none" stroke="midnightblue" d="M1344.84,-255.17C1367.7,-245.51 1390.89,-232.7 1409.2,-216 1434.71,-192.74 1450.93,-155.37 1459.29,-131.51"/>
<polygon fill="midnightblue" stroke="midnightblue" points="1343.38,-251.99 1335.43,-258.99 1346.01,-258.48 1343.38,-251.99"/>
</g>
<!-- Node12 -->
<g id="node12" class="node">
<title>Node12</title>
<g id="a_node12"><a xlink:href="../../de/dc2/hybrid__protocol__simulator_8h.html" target="_top" xlink:title=" ">
<polygon fill="white" stroke="black" points="1106.7,-168.5 1106.7,-215.5 1399.7,-215.5 1399.7,-168.5 1106.7,-168.5"/>
<text text-anchor="start" x="1114.7" y="-201.9" font-family="Helvetica,sans-Serif" font-size="12.00">/home/guilhermemtr/Dropbox/workspace</text>
<text text-anchor="start" x="1114.7" y="-188.9" font-family="Helvetica,sans-Serif" font-size="12.00">/ETH&#45;Zurich/Projects/Weighted&#45;Flooding</text>
<text text-anchor="middle" x="1253.2" y="-175.9" font-family="Helvetica,sans-Serif" font-size="12.00">&#45;Simulator/include/hybrid_protocol_simulator.h</text>
</a>
</g>
</g>
<!-- Node4&#45;&gt;Node12 -->
<g id="edge11" class="edge">
<title>Node4&#45;&gt;Node12</title>
<path fill="none" stroke="midnightblue" d="M1253.2,-248.61C1253.2,-237.66 1253.2,-225.72 1253.2,-215.71"/>
<polygon fill="midnightblue" stroke="midnightblue" points="1249.7,-248.71 1253.2,-258.71 1256.7,-248.71 1249.7,-248.71"/>
</g>
<!-- Node14 -->
<g id="node14" class="node">
<title>Node14</title>
<g id="a_node14"><a xlink:href="../../d8/db4/receiver__protocol__simulator_8cc.html" target="_top" xlink:title=" ">
<polygon fill="white" stroke="black" points="803.7,-168.5 803.7,-215.5 1088.7,-215.5 1088.7,-168.5 803.7,-168.5"/>
<text text-anchor="start" x="811.7" y="-201.9" font-family="Helvetica,sans-Serif" font-size="12.00">/home/guilhermemtr/Dropbox/workspace</text>
<text text-anchor="start" x="811.7" y="-188.9" font-family="Helvetica,sans-Serif" font-size="12.00">/ETH&#45;Zurich/Projects/Weighted&#45;Flooding</text>
<text text-anchor="middle" x="946.2" y="-175.9" font-family="Helvetica,sans-Serif" font-size="12.00">&#45;Simulator/src/receiver_protocol_simulator.cc</text>
</a>
</g>
</g>
<!-- Node4&#45;&gt;Node14 -->
<g id="edge14" class="edge">
<title>Node4&#45;&gt;Node14</title>
<path fill="none" stroke="midnightblue" d="M1165.31,-256.16C1120.84,-243.34 1067.33,-227.92 1024.32,-215.52"/>
<polygon fill="midnightblue" stroke="midnightblue" points="1164.36,-259.53 1174.94,-258.94 1166.3,-252.81 1164.36,-259.53"/>
</g>
<!-- Node6 -->
<g id="node6" class="node">
<title>Node6</title>
<g id="a_node6"><a xlink:href="../../da/d60/hybrid__k__out__protocol__simulator_8cc.html" target="_top" xlink:title=" ">
<polygon fill="white" stroke="black" points="463.2,-84.5 463.2,-131.5 775.2,-131.5 775.2,-84.5 463.2,-84.5"/>
<text text-anchor="start" x="471.2" y="-117.9" font-family="Helvetica,sans-Serif" font-size="12.00">/home/guilhermemtr/Dropbox/workspace</text>
<text text-anchor="start" x="471.2" y="-104.9" font-family="Helvetica,sans-Serif" font-size="12.00">/ETH&#45;Zurich/Projects/Weighted&#45;Flooding</text>
<text text-anchor="middle" x="619.2" y="-91.9" font-family="Helvetica,sans-Serif" font-size="12.00">&#45;Simulator/src/hybrid_k_out_protocol_simulator.cc</text>
</a>
</g>
</g>
<!-- Node5&#45;&gt;Node6 -->
<g id="edge5" class="edge">
<title>Node5&#45;&gt;Node6</title>
<path fill="none" stroke="midnightblue" d="M619.2,-158.11C619.2,-149.26 619.2,-139.88 619.2,-131.72"/>
<polygon fill="midnightblue" stroke="midnightblue" points="615.7,-158.16 619.2,-168.16 622.7,-158.16 615.7,-158.16"/>
</g>
<!-- Node5&#45;&gt;Node7 -->
<g id="edge6" class="edge">
<title>Node5&#45;&gt;Node7</title>
<path fill="none" stroke="midnightblue" d="M795.72,-167.88C1031.78,-144.96 1094.12,-158.85 1326.2,-132 1329.14,-131.66 1332.11,-131.3 1335.1,-130.93"/>
<polygon fill="midnightblue" stroke="midnightblue" points="795.05,-164.43 785.44,-168.89 795.73,-171.4 795.05,-164.43"/>
</g>
<!-- Node8 -->
<g id="node8" class="node">
<title>Node8</title>
<g id="a_node8"><a xlink:href="../../d5/d37/benchmark_8cc.html" target="_top" xlink:title=" ">
<polygon fill="white" stroke="black" points="1529.2,-0.5 1529.2,-47.5 1791.2,-47.5 1791.2,-0.5 1529.2,-0.5"/>
<text text-anchor="start" x="1537.2" y="-33.9" font-family="Helvetica,sans-Serif" font-size="12.00">/home/guilhermemtr/Dropbox/workspace</text>
<text text-anchor="start" x="1537.2" y="-20.9" font-family="Helvetica,sans-Serif" font-size="12.00">/ETH&#45;Zurich/Projects/Weighted&#45;Flooding</text>
<text text-anchor="middle" x="1660.2" y="-7.9" font-family="Helvetica,sans-Serif" font-size="12.00">&#45;Simulator/benchmark.cc</text>
</a>
</g>
</g>
<!-- Node7&#45;&gt;Node8 -->
<g id="edge7" class="edge">
<title>Node7&#45;&gt;Node8</title>
<path fill="none" stroke="midnightblue" d="M1528.9,-80.5C1554,-69.89 1582.62,-57.79 1606.72,-47.61"/>
<polygon fill="midnightblue" stroke="midnightblue" points="1527.32,-77.37 1519.47,-84.48 1530.04,-83.82 1527.32,-77.37"/>
</g>
<!-- Node9 -->
<g id="node9" class="node">
<title>Node9</title>
<g id="a_node9"><a xlink:href="../../dd/d96/hybrid__main_8cc.html" target="_top" xlink:title=" ">
<polygon fill="white" stroke="black" points="1809.2,-0.5 1809.2,-47.5 2071.2,-47.5 2071.2,-0.5 1809.2,-0.5"/>
<text text-anchor="start" x="1817.2" y="-33.9" font-family="Helvetica,sans-Serif" font-size="12.00">/home/guilhermemtr/Dropbox/workspace</text>
<text text-anchor="start" x="1817.2" y="-20.9" font-family="Helvetica,sans-Serif" font-size="12.00">/ETH&#45;Zurich/Projects/Weighted&#45;Flooding</text>
<text text-anchor="middle" x="1940.2" y="-7.9" font-family="Helvetica,sans-Serif" font-size="12.00">&#45;Simulator/hybrid_main.cc</text>
</a>
</g>
</g>
<!-- Node7&#45;&gt;Node9 -->
<g id="edge8" class="edge">
<title>Node7&#45;&gt;Node9</title>
<path fill="none" stroke="midnightblue" d="M1606.58,-82.71C1670.97,-71.58 1746.83,-58.45 1809.93,-47.54"/>
<polygon fill="midnightblue" stroke="midnightblue" points="1605.61,-79.33 1596.35,-84.48 1606.8,-86.23 1605.61,-79.33"/>
</g>
<!-- Node10 -->
<g id="node10" class="node">
<title>Node10</title>
<g id="a_node10"><a xlink:href="../../d9/d0f/main_8cc.html" target="_top" xlink:title=" ">
<polygon fill="white" stroke="black" points="469.2,-0.5 469.2,-47.5 731.2,-47.5 731.2,-0.5 469.2,-0.5"/>
<text text-anchor="start" x="477.2" y="-33.9" font-family="Helvetica,sans-Serif" font-size="12.00">/home/guilhermemtr/Dropbox/workspace</text>
<text text-anchor="start" x="477.2" y="-20.9" font-family="Helvetica,sans-Serif" font-size="12.00">/ETH&#45;Zurich/Projects/Weighted&#45;Flooding</text>
<text text-anchor="middle" x="600.2" y="-7.9" font-family="Helvetica,sans-Serif" font-size="12.00">&#45;Simulator/main.cc</text>
</a>
</g>
</g>
<!-- Node7&#45;&gt;Node10 -->
<g id="edge9" class="edge">
<title>Node7&#45;&gt;Node10</title>
<path fill="none" stroke="midnightblue" d="M1324.94,-83.89C1111.4,-58.06 874.73,-41.28 731.35,-32.42"/>
<polygon fill="midnightblue" stroke="midnightblue" points="1324.74,-87.39 1335.09,-85.13 1325.59,-80.44 1324.74,-87.39"/>
</g>
<!-- Node11 -->
<g id="node11" class="node">
<title>Node11</title>
<g id="a_node11"><a xlink:href="../../df/d31/main__utils_8cc.html" target="_top" xlink:title=" ">
<polygon fill="white" stroke="black" points="1249.2,-0.5 1249.2,-47.5 1511.2,-47.5 1511.2,-0.5 1249.2,-0.5"/>
<text text-anchor="start" x="1257.2" y="-33.9" font-family="Helvetica,sans-Serif" font-size="12.00">/home/guilhermemtr/Dropbox/workspace</text>
<text text-anchor="start" x="1257.2" y="-20.9" font-family="Helvetica,sans-Serif" font-size="12.00">/ETH&#45;Zurich/Projects/Weighted&#45;Flooding</text>
<text text-anchor="middle" x="1380.2" y="-7.9" font-family="Helvetica,sans-Serif" font-size="12.00">&#45;Simulator/utils/main_utils.cc</text>
</a>
</g>
</g>
<!-- Node7&#45;&gt;Node11 -->
<g id="edge10" class="edge">
<title>Node7&#45;&gt;Node11</title>
<path fill="none" stroke="midnightblue" d="M1434.72,-76.98C1424.58,-67.31 1413.52,-56.77 1404.03,-47.72"/>
<polygon fill="midnightblue" stroke="midnightblue" points="1432.59,-79.79 1442.25,-84.16 1437.42,-74.72 1432.59,-79.79"/>
</g>
<!-- Node12&#45;&gt;Node7 -->
<g id="edge13" class="edge">
<title>Node12&#45;&gt;Node7</title>
<path fill="none" stroke="midnightblue" d="M1321.31,-164.78C1349.05,-154.1 1380.79,-141.88 1407.48,-131.61"/>
<polygon fill="midnightblue" stroke="midnightblue" points="1319.76,-161.63 1311.69,-168.48 1322.28,-168.16 1319.76,-161.63"/>
</g>
<!-- Node13 -->
<g id="node13" class="node">
<title>Node13</title>
<g id="a_node13"><a xlink:href="../../df/dcd/hybrid__protocol__simulator_8cc.html" target="_top" xlink:title=" ">
<polygon fill="white" stroke="black" points="1043.2,-84.5 1043.2,-131.5 1317.2,-131.5 1317.2,-84.5 1043.2,-84.5"/>
<text text-anchor="start" x="1051.2" y="-117.9" font-family="Helvetica,sans-Serif" font-size="12.00">/home/guilhermemtr/Dropbox/workspace</text>
<text text-anchor="start" x="1051.2" y="-104.9" font-family="Helvetica,sans-Serif" font-size="12.00">/ETH&#45;Zurich/Projects/Weighted&#45;Flooding</text>
<text text-anchor="middle" x="1180.2" y="-91.9" font-family="Helvetica,sans-Serif" font-size="12.00">&#45;Simulator/src/hybrid_protocol_simulator.cc</text>
</a>
</g>
</g>
<!-- Node12&#45;&gt;Node13 -->
<g id="edge12" class="edge">
<title>Node12&#45;&gt;Node13</title>
<path fill="none" stroke="midnightblue" d="M1225.97,-160.41C1217.5,-150.9 1208.33,-140.59 1200.43,-131.72"/>
<polygon fill="midnightblue" stroke="midnightblue" points="1223.6,-163.02 1232.87,-168.16 1228.83,-158.36 1223.6,-163.02"/>
</g>
<!-- Node16&#45;&gt;Node17 -->
<g id="edge18" class="edge">
<title>Node16&#45;&gt;Node17</title>
<path fill="none" stroke="midnightblue" d="M511.21,-352.46C471.54,-337.91 422.6,-319.96 384.59,-306.02"/>
<polygon fill="midnightblue" stroke="midnightblue" points="510.23,-355.83 520.82,-355.99 512.64,-349.26 510.23,-355.83"/>
</g>
<!-- Node19 -->
<g id="node19" class="node">
<title>Node19</title>
<g id="a_node19"><a xlink:href="../../d5/d9b/send__protocol__simulator_8h.html" target="_top" xlink:title=" ">
<polygon fill="white" stroke="black" points="1424.2,-259 1424.2,-306 1708.2,-306 1708.2,-259 1424.2,-259"/>
<text text-anchor="start" x="1432.2" y="-292.4" font-family="Helvetica,sans-Serif" font-size="12.00">/home/guilhermemtr/Dropbox/workspace</text>
<text text-anchor="start" x="1432.2" y="-279.4" font-family="Helvetica,sans-Serif" font-size="12.00">/ETH&#45;Zurich/Projects/Weighted&#45;Flooding</text>
<text text-anchor="middle" x="1566.2" y="-266.4" font-family="Helvetica,sans-Serif" font-size="12.00">&#45;Simulator/include/send_protocol_simulator.h</text>
</a>
</g>
</g>
<!-- Node16&#45;&gt;Node19 -->
<g id="edge22" class="edge">
<title>Node16&#45;&gt;Node19</title>
<path fill="none" stroke="midnightblue" d="M718.15,-354.52C732.65,-352.43 747.21,-350.53 761.2,-349 1050.58,-317.28 1126.33,-348.99 1415.2,-313 1429.91,-311.17 1445.34,-308.74 1460.49,-306.07"/>
<polygon fill="midnightblue" stroke="midnightblue" points="717.51,-351.07 708.12,-355.99 718.52,-358 717.51,-351.07"/>
</g>
<!-- Node21 -->
<g id="node21" class="node">
<title>Node21</title>
<g id="a_node21"><a xlink:href="../../db/d9d/abstract__send__protocol__simulator_8cc.html" target="_top" xlink:title=" ">
<polygon fill="white" stroke="black" points="485.2,-252.5 485.2,-312.5 747.2,-312.5 747.2,-252.5 485.2,-252.5"/>
<text text-anchor="start" x="493.2" y="-298.9" font-family="Helvetica,sans-Serif" font-size="12.00">/home/guilhermemtr/Dropbox/workspace</text>
<text text-anchor="start" x="493.2" y="-285.9" font-family="Helvetica,sans-Serif" font-size="12.00">/ETH&#45;Zurich/Projects/Weighted&#45;Flooding</text>
<text text-anchor="start" x="493.2" y="-272.9" font-family="Helvetica,sans-Serif" font-size="12.00">&#45;Simulator/src/abstract_send_protocol</text>
<text text-anchor="middle" x="616.2" y="-259.9" font-family="Helvetica,sans-Serif" font-size="12.00">_simulator.cc</text>
</a>
</g>
</g>
<!-- Node16&#45;&gt;Node21 -->
<g id="edge26" class="edge">
<title>Node16&#45;&gt;Node21</title>
<path fill="none" stroke="midnightblue" d="M593.7,-346.39C597.6,-335.48 601.94,-323.36 605.75,-312.69"/>
<polygon fill="midnightblue" stroke="midnightblue" points="590.33,-345.39 590.26,-355.99 596.93,-347.75 590.33,-345.39"/>
</g>
<!-- Node17&#45;&gt;Node5 -->
<g id="edge19" class="edge">
<title>Node17&#45;&gt;Node5</title>
<path fill="none" stroke="midnightblue" d="M408.49,-256C451.25,-243.21 502.59,-227.87 543.88,-215.52"/>
<polygon fill="midnightblue" stroke="midnightblue" points="407.24,-252.72 398.66,-258.94 409.25,-259.43 407.24,-252.72"/>
</g>
<!-- Node17&#45;&gt;Node7 -->
<g id="edge21" class="edge">
<title>Node17&#45;&gt;Node7</title>
<path fill="none" stroke="midnightblue" d="M362.9,-252.57C376.83,-241.71 392.23,-228.87 405.2,-216 424.72,-196.64 419.63,-180.32 444.2,-168 531.89,-124.05 1228.63,-141.97 1326.2,-132 1329.14,-131.7 1332.12,-131.38 1335.11,-131.03"/>
<polygon fill="midnightblue" stroke="midnightblue" points="360.69,-249.85 354.9,-258.72 364.96,-255.4 360.69,-249.85"/>
</g>
<!-- Node18 -->
<g id="node18" class="node">
<title>Node18</title>
<g id="a_node18"><a xlink:href="../../dd/d36/k__out__protocol__simulator_8cc.html" target="_top" xlink:title=" ">
<polygon fill="white" stroke="black" points="127.7,-168.5 127.7,-215.5 396.7,-215.5 396.7,-168.5 127.7,-168.5"/>
<text text-anchor="start" x="135.7" y="-201.9" font-family="Helvetica,sans-Serif" font-size="12.00">/home/guilhermemtr/Dropbox/workspace</text>
<text text-anchor="start" x="135.7" y="-188.9" font-family="Helvetica,sans-Serif" font-size="12.00">/ETH&#45;Zurich/Projects/Weighted&#45;Flooding</text>
<text text-anchor="middle" x="262.2" y="-175.9" font-family="Helvetica,sans-Serif" font-size="12.00">&#45;Simulator/src/k_out_protocol_simulator.cc</text>
</a>
</g>
</g>
<!-- Node17&#45;&gt;Node18 -->
<g id="edge20" class="edge">
<title>Node17&#45;&gt;Node18</title>
<path fill="none" stroke="midnightblue" d="M301.7,-250.3C293.84,-238.9 285.11,-226.23 277.86,-215.71"/>
<polygon fill="midnightblue" stroke="midnightblue" points="298.94,-252.46 307.49,-258.71 304.7,-248.49 298.94,-252.46"/>
</g>
<!-- Node19&#45;&gt;Node7 -->
<g id="edge25" class="edge">
<title>Node19&#45;&gt;Node7</title>
<path fill="none" stroke="midnightblue" d="M1519.74,-252.48C1507.06,-242.41 1494.53,-230.06 1486.2,-216 1470.79,-189.98 1466.83,-154.69 1466.03,-131.88"/>
<polygon fill="midnightblue" stroke="midnightblue" points="1517.97,-255.53 1528.05,-258.76 1522.19,-249.94 1517.97,-255.53"/>
</g>
<!-- Node19&#45;&gt;Node12 -->
<g id="edge23" class="edge">
<title>Node19&#45;&gt;Node12</title>
<path fill="none" stroke="midnightblue" d="M1476.59,-256.16C1431.25,-243.34 1376.7,-227.92 1332.85,-215.52"/>
<polygon fill="midnightblue" stroke="midnightblue" points="1475.83,-259.59 1486.41,-258.94 1477.74,-252.85 1475.83,-259.59"/>
</g>
<!-- Node20 -->
<g id="node20" class="node">
<title>Node20</title>
<g id="a_node20"><a xlink:href="../../d9/d76/send__protocol__simulator_8cc.html" target="_top" xlink:title=" ">
<polygon fill="white" stroke="black" points="1494.7,-168.5 1494.7,-215.5 1759.7,-215.5 1759.7,-168.5 1494.7,-168.5"/>
<text text-anchor="start" x="1502.7" y="-201.9" font-family="Helvetica,sans-Serif" font-size="12.00">/home/guilhermemtr/Dropbox/workspace</text>
<text text-anchor="start" x="1502.7" y="-188.9" font-family="Helvetica,sans-Serif" font-size="12.00">/ETH&#45;Zurich/Projects/Weighted&#45;Flooding</text>
<text text-anchor="middle" x="1627.2" y="-175.9" font-family="Helvetica,sans-Serif" font-size="12.00">&#45;Simulator/src/send_protocol_simulator.cc</text>
</a>
</g>
</g>
<!-- Node19&#45;&gt;Node20 -->
<g id="edge24" class="edge">
<title>Node19&#45;&gt;Node20</title>
<path fill="none" stroke="midnightblue" d="M1587.71,-250.3C1595.57,-238.9 1604.3,-226.23 1611.55,-215.71"/>
<polygon fill="midnightblue" stroke="midnightblue" points="1584.71,-248.49 1581.91,-258.71 1590.47,-252.46 1584.71,-248.49"/>
</g>
<!-- Node23&#45;&gt;Node2 -->
<g id="edge30" class="edge">
<title>Node23&#45;&gt;Node2</title>
<path fill="none" stroke="midnightblue" d="M932.69,-528.02C888.48,-517.04 836.93,-504.23 793.9,-493.54"/>
<polygon fill="midnightblue" stroke="midnightblue" points="932.04,-531.47 942.59,-530.48 933.73,-524.68 932.04,-531.47"/>
</g>
<!-- Node24 -->
<g id="node24" class="node">
<title>Node24</title>
<g id="a_node24"><a xlink:href="../../d5/d6a/protocol__simulator_8cc.html" target="_top" xlink:title=" ">
<polygon fill="white" stroke="black" points="902.2,-446.5 902.2,-493.5 1164.2,-493.5 1164.2,-446.5 902.2,-446.5"/>
<text text-anchor="start" x="910.2" y="-479.9" font-family="Helvetica,sans-Serif" font-size="12.00">/home/guilhermemtr/Dropbox/workspace</text>
<text text-anchor="start" x="910.2" y="-466.9" font-family="Helvetica,sans-Serif" font-size="12.00">/ETH&#45;Zurich/Projects/Weighted&#45;Flooding</text>
<text text-anchor="middle" x="1033.2" y="-453.9" font-family="Helvetica,sans-Serif" font-size="12.00">&#45;Simulator/src/protocol_simulator.cc</text>
</a>
</g>
</g>
<!-- Node23&#45;&gt;Node24 -->
<g id="edge31" class="edge">
<title>Node23&#45;&gt;Node24</title>
<path fill="none" stroke="midnightblue" d="M1033.2,-520.11C1033.2,-511.26 1033.2,-501.88 1033.2,-493.72"/>
<polygon fill="midnightblue" stroke="midnightblue" points="1029.7,-520.16 1033.2,-530.16 1036.7,-520.16 1029.7,-520.16"/>
</g>
<!-- Node25&#45;&gt;Node17 -->
<g id="edge33" class="edge">
<title>Node25&#45;&gt;Node17</title>
<path fill="none" stroke="midnightblue" d="M205.61,-526.64C116.96,-490.84 -13.22,-422.79 45.2,-349 62.86,-326.7 120.55,-311.23 178.83,-300.95"/>
<polygon fill="midnightblue" stroke="midnightblue" points="204.54,-529.98 215.13,-530.42 207.13,-523.48 204.54,-529.98"/>
</g>
<!-- Node26 -->
<g id="node26" class="node">
<title>Node26</title>
<g id="a_node26"><a xlink:href="../../dd/d27/random__sampler_8cc.html" target="_top" xlink:title=" ">
<polygon fill="white" stroke="black" points="148.2,-446.5 148.2,-493.5 410.2,-493.5 410.2,-446.5 148.2,-446.5"/>
<text text-anchor="start" x="156.2" y="-479.9" font-family="Helvetica,sans-Serif" font-size="12.00">/home/guilhermemtr/Dropbox/workspace</text>
<text text-anchor="start" x="156.2" y="-466.9" font-family="Helvetica,sans-Serif" font-size="12.00">/ETH&#45;Zurich/Projects/Weighted&#45;Flooding</text>
<text text-anchor="middle" x="279.2" y="-453.9" font-family="Helvetica,sans-Serif" font-size="12.00">&#45;Simulator/src/random_sampler.cc</text>
</a>
</g>
</g>
<!-- Node25&#45;&gt;Node26 -->
<g id="edge34" class="edge">
<title>Node25&#45;&gt;Node26</title>
<path fill="none" stroke="midnightblue" d="M279.2,-520.11C279.2,-511.26 279.2,-501.88 279.2,-493.72"/>
<polygon fill="midnightblue" stroke="midnightblue" points="275.7,-520.16 279.2,-530.16 282.7,-520.16 275.7,-520.16"/>
</g>
<!-- Node27&#45;&gt;Node3 -->
<g id="edge38" class="edge">
<title>Node27&#45;&gt;Node3</title>
<path fill="none" stroke="midnightblue" d="M1210.36,-444.06C1157.17,-431.17 1092.75,-415.55 1041.08,-403.02"/>
<polygon fill="midnightblue" stroke="midnightblue" points="1209.61,-447.48 1220.15,-446.44 1211.26,-440.68 1209.61,-447.48"/>
</g>
<!-- Node27&#45;&gt;Node4 -->
<g id="edge42" class="edge">
<title>Node27&#45;&gt;Node4</title>
<path fill="none" stroke="midnightblue" d="M1417.75,-441.73C1431.75,-433.73 1444.32,-423.38 1453.2,-410 1468.2,-387.41 1469.11,-370.95 1453.2,-349 1439.11,-329.55 1419.06,-315.77 1397.04,-306.03"/>
<polygon fill="midnightblue" stroke="midnightblue" points="1416.07,-438.66 1408.86,-446.42 1419.34,-444.85 1416.07,-438.66"/>
</g>
<!-- Node27&#45;&gt;Node5 -->
<g id="edge40" class="edge">
<title>Node27&#45;&gt;Node5</title>
<path fill="none" stroke="midnightblue" d="M1227.12,-442.52C1208.07,-434.1 1188.9,-423.39 1173.2,-410 1148.9,-389.27 1156.15,-373.11 1135.2,-349 1118.85,-330.19 1108.66,-331.72 1092.2,-313 1070.95,-288.84 1080.32,-269.32 1053.2,-252 1051.72,-251.05 907.14,-231.51 785.28,-215.18"/>
<polygon fill="midnightblue" stroke="midnightblue" points="1225.88,-445.8 1236.45,-446.48 1228.61,-439.35 1225.88,-445.8"/>
</g>
<!-- Node27&#45;&gt;Node7 -->
<g id="edge46" class="edge">
<title>Node27&#45;&gt;Node7</title>
<path fill="none" stroke="midnightblue" d="M1410.47,-443.63C1443.46,-434.15 1480.27,-422.6 1513.2,-410 1646.54,-359 1734.43,-354.46 1769.2,-216 1774.4,-195.31 1782.77,-184.46 1769.2,-168 1746.96,-141.01 1668.66,-126.21 1597.23,-118.18"/>
<polygon fill="midnightblue" stroke="midnightblue" points="1409.48,-440.27 1400.82,-446.37 1411.4,-447 1409.48,-440.27"/>
</g>
<!-- Node27&#45;&gt;Node8 -->
<g id="edge36" class="edge">
<title>Node27&#45;&gt;Node8</title>
<path fill="none" stroke="midnightblue" d="M1454.64,-458.05C1554.52,-442.31 1682.67,-404.31 1753.2,-313 1793.61,-260.7 1809.56,-229.83 1786.2,-168 1767.09,-117.39 1720.99,-73.1 1690.18,-47.69"/>
<polygon fill="midnightblue" stroke="midnightblue" points="1453.81,-454.63 1444.45,-459.59 1454.86,-461.56 1453.81,-454.63"/>
</g>
<!-- Node27&#45;&gt;Node9 -->
<g id="edge37" class="edge">
<title>Node27&#45;&gt;Node9</title>
<path fill="none" stroke="midnightblue" d="M1454.52,-455.78C1542.78,-445.79 1647.03,-430.32 1687.2,-410 1838.86,-333.28 1913.07,-118.65 1933.91,-47.93"/>
<polygon fill="midnightblue" stroke="midnightblue" points="1453.94,-452.32 1444.39,-456.91 1454.72,-459.28 1453.94,-452.32"/>
</g>
<!-- Node27&#45;&gt;Node10 -->
<g id="edge44" class="edge">
<title>Node27&#45;&gt;Node10</title>
<path fill="none" stroke="midnightblue" d="M1172.04,-446.15C1045.89,-437.82 434.88,-456.12 360.2,-410 333.8,-393.69 351.01,-367.65 326.2,-349 269.32,-306.25 226.73,-356.22 170.2,-313 115.81,-271.42 77.25,-222.87 118.2,-168 160.4,-111.47 341.44,-69.32 469.19,-45.93"/>
<polygon fill="midnightblue" stroke="midnightblue" points="1171.86,-449.65 1182.11,-446.98 1172.43,-442.67 1171.86,-449.65"/>
</g>
<!-- Node27&#45;&gt;Node16 -->
<g id="edge39" class="edge">
<title>Node27&#45;&gt;Node16</title>
<path fill="none" stroke="midnightblue" d="M1172.14,-445.91C989.12,-423.42 940.37,-432.56 761.2,-410 745.11,-407.97 728.25,-405.57 711.58,-403.02"/>
<polygon fill="midnightblue" stroke="midnightblue" points="1171.73,-449.39 1182.09,-447.15 1172.6,-442.44 1171.73,-449.39"/>
</g>
<!-- Node27&#45;&gt;Node17 -->
<g id="edge41" class="edge">
<title>Node27&#45;&gt;Node17</title>
<path fill="none" stroke="midnightblue" d="M1171.81,-446.13C1050.37,-437.99 474.93,-451.72 403.2,-410 392.84,-403.97 355.86,-340.93 336.01,-306.18"/>
<polygon fill="midnightblue" stroke="midnightblue" points="1171.85,-449.65 1182.11,-446.99 1172.43,-442.67 1171.85,-449.65"/>
</g>
<!-- Node27&#45;&gt;Node19 -->
<g id="edge43" class="edge">
<title>Node27&#45;&gt;Node19</title>
<path fill="none" stroke="midnightblue" d="M1411.02,-442.78C1432.4,-434.39 1454.04,-423.62 1472.2,-410 1509.85,-381.76 1539.34,-334.36 1554.64,-306.3"/>
<polygon fill="midnightblue" stroke="midnightblue" points="1409.68,-439.55 1401.56,-446.36 1412.15,-446.1 1409.68,-439.55"/>
</g>
<!-- Node28 -->
<g id="node28" class="node">
<title>Node28</title>
<g id="a_node28"><a xlink:href="../../dc/dda/random__utils_8cc.html" target="_top" xlink:title=" ">
<polygon fill="white" stroke="black" points="1182.2,-356 1182.2,-403 1444.2,-403 1444.2,-356 1182.2,-356"/>
<text text-anchor="start" x="1190.2" y="-389.4" font-family="Helvetica,sans-Serif" font-size="12.00">/home/guilhermemtr/Dropbox/workspace</text>
<text text-anchor="start" x="1190.2" y="-376.4" font-family="Helvetica,sans-Serif" font-size="12.00">/ETH&#45;Zurich/Projects/Weighted&#45;Flooding</text>
<text text-anchor="middle" x="1313.2" y="-363.4" font-family="Helvetica,sans-Serif" font-size="12.00">&#45;Simulator/src/random_utils.cc</text>
</a>
</g>
</g>
<!-- Node27&#45;&gt;Node28 -->
<g id="edge45" class="edge">
<title>Node27&#45;&gt;Node28</title>
<path fill="none" stroke="midnightblue" d="M1313.2,-436.11C1313.2,-425.16 1313.2,-413.22 1313.2,-403.21"/>
<polygon fill="midnightblue" stroke="midnightblue" points="1309.7,-436.21 1313.2,-446.21 1316.7,-436.21 1309.7,-436.21"/>
</g>
<!-- Node29&#45;&gt;Node7 -->
<g id="edge49" class="edge">
<title>Node29&#45;&gt;Node7</title>
<path fill="none" stroke="midnightblue" d="M1545.68,-520.25C1546.76,-497.78 1551.15,-468.14 1565.2,-446 1578.91,-424.39 1737.89,-333.5 1753.2,-313 1792.75,-260.05 1828.49,-218.79 1786.2,-168 1761.9,-138.8 1674.8,-124 1597.6,-116.52"/>
<polygon fill="midnightblue" stroke="midnightblue" points="1542.18,-520.23 1545.39,-530.33 1549.17,-520.43 1542.18,-520.23"/>
</g>
<!-- Node30 -->
<g id="node30" class="node">
<title>Node30</title>
<g id="a_node30"><a xlink:href="../../d7/d0c/read__args_8cc.html" target="_top" xlink:title=" ">
<polygon fill="white" stroke="black" points="1574.2,-446.5 1574.2,-493.5 1836.2,-493.5 1836.2,-446.5 1574.2,-446.5"/>
<text text-anchor="start" x="1582.2" y="-479.9" font-family="Helvetica,sans-Serif" font-size="12.00">/home/guilhermemtr/Dropbox/workspace</text>
<text text-anchor="start" x="1582.2" y="-466.9" font-family="Helvetica,sans-Serif" font-size="12.00">/ETH&#45;Zurich/Projects/Weighted&#45;Flooding</text>
<text text-anchor="middle" x="1705.2" y="-453.9" font-family="Helvetica,sans-Serif" font-size="12.00">&#45;Simulator/utils/read_args.cc</text>
</a>
</g>
</g>
<!-- Node29&#45;&gt;Node30 -->
<g id="edge50" class="edge">
<title>Node29&#45;&gt;Node30</title>
<path fill="none" stroke="midnightblue" d="M1599.16,-525.69C1619.39,-515.26 1642.2,-503.49 1661.48,-493.55"/>
<polygon fill="midnightblue" stroke="midnightblue" points="1597.35,-522.68 1590.07,-530.38 1600.56,-528.9 1597.35,-522.68"/>
</g>
</g>
</svg>
        <g id="navigator" transform="translate(0 0)" fill="#404254">
                <rect fill="#f2f5e9" fill-opacity="0.5" stroke="#606060" stroke-width=".5" x="0" y="0" width="60" height="60"/>
                <use id="zoomplus" xlink:href="#zoomPlus" x="17" y="9" onmousedown="handleZoom(evt,'in')"/>
                <use id="zoomminus" xlink:href="#zoomMin" x="42" y="9" onmousedown="handleZoom(evt,'out')"/>
                <use id="reset" xlink:href="#resetDef" x="30" y="36" onmousedown="handleReset()"/>
                <g id="arrowUp" xlink:href="#dirArrow" transform="translate(30 24)" onmousedown="handlePan(0,-1)">
                  <use xlink:href="#rim" fill="#404040">
                        <set attributeName="fill" to="#808080" begin="arrowUp.mouseover" end="arrowUp.mouseout"/>
                  </use>
                  <path fill="none" stroke="white" stroke-width="1.5" d="M0,-3.0v7 M-2.5,-0.5L0,-3.0L2.5,-0.5"/>
                </g>
                <g id="arrowRight" xlink:href="#dirArrow" transform="rotate(90) translate(36 -43)" onmousedown="handlePan(1,0)">
                  <use xlink:href="#rim" fill="#404040">
                        <set attributeName="fill" to="#808080" begin="arrowRight.mouseover" end="arrowRight.mouseout"/>
                  </use>
                  <path fill="none" stroke="white" stroke-width="1.5" d="M0,-3.0v7 M-2.5,-0.5L0,-3.0L2.5,-0.5"/>
                </g>
                <g id="arrowDown" xlink:href="#dirArrow" transform="rotate(180) translate(-30 -48)" onmousedown="handlePan(0,1)">
                  <use xlink:href="#rim" fill="#404040">
                        <set attributeName="fill" to="#808080" begin="arrowDown.mouseover" end="arrowDown.mouseout"/>
                  </use>
                  <path fill="none" stroke="white" stroke-width="1.5" d="M0,-3.0v7 M-2.5,-0.5L0,-3.0L2.5,-0.5"/>
                </g>
                <g id="arrowLeft" xlink:href="#dirArrow" transform="rotate(270) translate(-36 17)" onmousedown="handlePan(-1,0)">
                  <use xlink:href="#rim" fill="#404040">
                        <set attributeName="fill" to="#808080" begin="arrowLeft.mouseover" end="arrowLeft.mouseout"/>
                  </use>
                  <path fill="none" stroke="white" stroke-width="1.5" d="M0,-3.0v7 M-2.5,-0.5L0,-3.0L2.5,-0.5"/>
                </g>
        </g>
        <svg viewBox="0 0 15 15" width="100%" height="30px" preserveAspectRatio="xMaxYMin meet">
         <g id="arrow_out" transform="scale(0.3 0.3)">
          <a xlink:href="yal__log_8h__dep__incl_org.svg" target="_base">
           <rect id="button" ry="5" rx="5" y="6" x="6" height="38" width="38"
                fill="#f2f5e9" fill-opacity="0.5" stroke="#606060" stroke-width="1.0"/>
           <path id="arrow"
             d="M 11.500037,31.436501 C 11.940474,20.09759 22.043105,11.32322 32.158766,21.979434 L 37.068811,17.246167 C 37.068811,17.246167 37.088388,32 37.088388,32 L 22.160133,31.978069 C 22.160133,31.978069 26.997745,27.140456 26.997745,27.140456 C 18.528582,18.264221 13.291696,25.230495 11.500037,31.436501 z"
             style="fill:#404040;"/>
          </a>
         </g>
        </svg>
</svg>
