<?xml version="1.0" encoding="UTF-8" standalone="no"?>
<!DOCTYPE svg PUBLIC "-//W3C//DTD SVG 1.1//EN"
 "http://www.w3.org/Graphics/SVG/1.1/DTD/svg11.dtd">
<!-- Generated by graphviz version 5.0.0 (0)
 -->
<!-- Title: utils/yal_log.h Pages: 1 -->
<!--zoomable 462 -->
<svg id="main" version="1.1" xmlns="http://www.w3.org/2000/svg" xmlns:xlink="http://www.w3.org/1999/xlink" xml:space="preserve" onload="init(evt)">
<style type="text/css"><![CDATA[
.edge:hover path { stroke: red; }
.edge:hover polygon { stroke: red; fill: red; }
]]></style>
<script type="text/javascript"><![CDATA[
var edges = document.getElementsByTagName('g');
if (edges && edges.length) {
  for (var i=0;i<edges.length;i++) {
    if (edges[i].id.substr(0,4)=='edge') {
      edges[i].setAttribute('class','edge');
    }
  }
}
]]></script>
        <defs>
                <circle id="rim" cx="0" cy="0" r="7"/>
                <circle id="rim2" cx="0" cy="0" r="3.5"/>
                <g id="zoomPlus">
                        <use xlink:href="#rim" fill="#404040">
                                <set attributeName="fill" to="#808080" begin="zoomplus.mouseover" end="zoomplus.mouseout"/>
                        </use>
                        <path d="M-4,0h8M0,-4v8" fill="none" stroke="white" stroke-width="1.5" pointer-events="none"/>
                </g>
                <g id="zoomMin">
                        <use xlink:href="#rim" fill="#404040">
                                <set attributeName="fill" to="#808080" begin="zoomminus.mouseover" end="zoomminus.mouseout"/>
                        </use>
                        <path d="M-4,0h8" fill="none" stroke="white" stroke-width="1.5" pointer-events="none"/>
                </g>
                <g id="dirArrow">
                        <path fill="none" stroke="white" stroke-width="1.5" d="M0,-3.0v7 M-2.5,-0.5L0,-3.0L2.5,-0.5"/>
                </g>
               <g id="resetDef">
                       <use xlink:href="#rim2" fill="#404040">
                               <set attributeName="fill" to="#808080" begin="reset.mouseover" end="reset.mouseout"/>
                       </use>
               </g>
        </defs>

<script type="text/javascript">
var viewWidth = 1634;
var viewHeight = 462;
var sectionId = 'dynsection-1';
</script>
<script xlink:href="../../svgpan.js"/>
<svg id="graph" class="graph">
<g id="viewport">
<title>utils/yal_log.h</title>
<polygon fill="white" stroke="transparent" points="-4,4 -4,-458 1629.5,-458 1629.5,4 -4,4"/>
<!-- Node1 -->
<g id="node1" class="node">
<title>Node1</title>
<g id="a_node1"><a xlink:title=" ">
<polygon fill="#bfbfbf" stroke="black" points="998.5,-432.5 998.5,-453.5 1095.5,-453.5 1095.5,-432.5 998.5,-432.5"/>
<text text-anchor="middle" x="1047" y="-439.9" font-family="Helvetica,sans-Serif" font-size="12.00">utils/yal_log.h</text>
</a>
</g>
</g>
<!-- Node2 -->
<g id="node2" class="node">
<title>Node2</title>
<g id="a_node2"><a xlink:href="../../d8/de7/corruptions__stake__protocol__simulator_8h.html" target="_top" xlink:title=" ">
<polygon fill="white" stroke="black" points="635.5,-303.5 635.5,-337.5 858.5,-337.5 858.5,-303.5 635.5,-303.5"/>
<text text-anchor="start" x="643.5" y="-323.9" font-family="Helvetica,sans-Serif" font-size="12.00">include/corruptions_stake_protocol</text>
<text text-anchor="middle" x="747" y="-310.9" font-family="Helvetica,sans-Serif" font-size="12.00">_simulator.h</text>
</a>
</g>
</g>
<!-- Node1&#45;&gt;Node2 -->
<g id="edge1" class="edge">
<title>Node1&#45;&gt;Node2</title>
<path fill="none" stroke="midnightblue" d="M988.55,-433.26C950.3,-426.24 899.85,-414.43 858,-396 823.17,-380.66 787.41,-354.4 766.21,-337.5"/>
<polygon fill="midnightblue" stroke="midnightblue" points="988.03,-436.73 998.49,-435.04 989.26,-429.84 988.03,-436.73"/>
</g>
<!-- Node7 -->
<g id="node7" class="node">
<title>Node7</title>
<g id="a_node7"><a xlink:href="../../d0/d8b/main__utils_8h.html" target="_top" xlink:title=" ">
<polygon fill="white" stroke="black" points="1082,-58.5 1082,-79.5 1198,-79.5 1198,-58.5 1082,-58.5"/>
<text text-anchor="middle" x="1140" y="-65.9" font-family="Helvetica,sans-Serif" font-size="12.00">utils/main_utils.h</text>
</a>
</g>
</g>
<!-- Node1&#45;&gt;Node7 -->
<g id="edge46" class="edge">
<title>Node1&#45;&gt;Node7</title>
<path fill="none" stroke="midnightblue" d="M1105.92,-438.46C1227.31,-429.56 1494,-400.96 1494,-321.5 1494,-321.5 1494,-321.5 1494,-184 1494,-122.58 1298.49,-89.49 1198.06,-76.54"/>
<polygon fill="midnightblue" stroke="midnightblue" points="1105.41,-434.99 1095.69,-439.19 1105.91,-441.97 1105.41,-434.99"/>
</g>
<!-- Node17 -->
<g id="node17" class="node">
<title>Node17</title>
<g id="a_node17"><a xlink:href="../../d8/d9d/k__out__protocol__simulator_8h.html" target="_top" xlink:title=" ">
<polygon fill="white" stroke="black" points="0,-174.5 0,-195.5 222,-195.5 222,-174.5 0,-174.5"/>
<text text-anchor="middle" x="111" y="-181.9" font-family="Helvetica,sans-Serif" font-size="12.00">include/k_out_protocol_simulator.h</text>
</a>
</g>
</g>
<!-- Node1&#45;&gt;Node17 -->
<g id="edge28" class="edge">
<title>Node1&#45;&gt;Node17</title>
<path fill="none" stroke="midnightblue" d="M987.98,-441.31C831.55,-439.03 409.05,-429.83 274,-396 214.2,-381.02 194.6,-378.35 148,-338 119.58,-313.39 112.66,-303.06 102,-267 94.62,-242.03 102.5,-211.11 107.51,-195.69"/>
<polygon fill="midnightblue" stroke="midnightblue" points="988.29,-444.81 998.33,-441.46 988.39,-437.81 988.29,-444.81"/>
</g>
<!-- Node23 -->
<g id="node23" class="node">
<title>Node23</title>
<g id="a_node23"><a xlink:href="../../dc/d8d/protocol__simulator_8h.html" target="_top" xlink:title=" ">
<polygon fill="white" stroke="black" points="867,-374.5 867,-395.5 1051,-395.5 1051,-374.5 867,-374.5"/>
<text text-anchor="middle" x="959" y="-381.9" font-family="Helvetica,sans-Serif" font-size="12.00">include/protocol_simulator.h</text>
</a>
</g>
</g>
<!-- Node1&#45;&gt;Node23 -->
<g id="edge29" class="edge">
<title>Node1&#45;&gt;Node23</title>
<path fill="none" stroke="midnightblue" d="M1023.07,-426.77C1007.47,-416.85 987.6,-404.2 974.15,-395.64"/>
<polygon fill="midnightblue" stroke="midnightblue" points="1021.36,-429.83 1031.67,-432.25 1025.11,-423.92 1021.36,-429.83"/>
</g>
<!-- Node25 -->
<g id="node25" class="node">
<title>Node25</title>
<g id="a_node25"><a xlink:href="../../d7/d90/random__sampler_8h.html" target="_top" xlink:title=" ">
<polygon fill="white" stroke="black" points="283.5,-374.5 283.5,-395.5 458.5,-395.5 458.5,-374.5 283.5,-374.5"/>
<text text-anchor="middle" x="371" y="-381.9" font-family="Helvetica,sans-Serif" font-size="12.00">include/random_sampler.h</text>
</a>
</g>
</g>
<!-- Node1&#45;&gt;Node25 -->
<g id="edge32" class="edge">
<title>Node1&#45;&gt;Node25</title>
<path fill="none" stroke="midnightblue" d="M988.37,-437.14C869.36,-427.28 598.88,-404.88 458.78,-393.27"/>
<polygon fill="midnightblue" stroke="midnightblue" points="988.13,-440.64 998.38,-437.97 988.71,-433.66 988.13,-440.64"/>
</g>
<!-- Node27 -->
<g id="node27" class="node">
<title>Node27</title>
<g id="a_node27"><a xlink:href="../../d6/d74/random__utils_8h.html" target="_top" xlink:title=" ">
<polygon fill="white" stroke="black" points="1059,-310 1059,-331 1211,-331 1211,-310 1059,-310"/>
<text text-anchor="middle" x="1135" y="-317.4" font-family="Helvetica,sans-Serif" font-size="12.00">include/random_utils.h</text>
</a>
</g>
</g>
<!-- Node1&#45;&gt;Node27 -->
<g id="edge35" class="edge">
<title>Node1&#45;&gt;Node27</title>
<path fill="none" stroke="midnightblue" d="M1060.2,-423.93C1079.1,-398.04 1113.24,-351.3 1127.95,-331.16"/>
<polygon fill="midnightblue" stroke="midnightblue" points="1057.27,-422 1054.2,-432.14 1062.93,-426.13 1057.27,-422"/>
</g>
<!-- Node29 -->
<g id="node29" class="node">
<title>Node29</title>
<g id="a_node29"><a xlink:href="../../d1/dde/read__args_8h.html" target="_top" xlink:title=" ">
<polygon fill="white" stroke="black" points="1261,-374.5 1261,-395.5 1375,-395.5 1375,-374.5 1261,-374.5"/>
<text text-anchor="middle" x="1318" y="-381.9" font-family="Helvetica,sans-Serif" font-size="12.00">utils/read_args.h</text>
</a>
</g>
</g>
<!-- Node1&#45;&gt;Node29 -->
<g id="edge47" class="edge">
<title>Node1&#45;&gt;Node29</title>
<path fill="none" stroke="midnightblue" d="M1103.27,-430.37C1153.22,-420.05 1225.31,-405.15 1271.91,-395.52"/>
<polygon fill="midnightblue" stroke="midnightblue" points="1102.36,-426.99 1093.28,-432.44 1103.78,-433.84 1102.36,-426.99"/>
</g>
<!-- Node31 -->
<g id="node31" class="node">
<title>Node31</title>
<g id="a_node31"><a xlink:href="../../d7/d36/yal__log_8cc.html" target="_top" xlink:title=" ">
<polygon fill="white" stroke="black" points="1522.5,-374.5 1522.5,-395.5 1625.5,-395.5 1625.5,-374.5 1522.5,-374.5"/>
<text text-anchor="middle" x="1574" y="-381.9" font-family="Helvetica,sans-Serif" font-size="12.00">utils/yal_log.cc</text>
</a>
</g>
</g>
<!-- Node1&#45;&gt;Node31 -->
<g id="edge50" class="edge">
<title>Node1&#45;&gt;Node31</title>
<path fill="none" stroke="midnightblue" d="M1105.56,-437.12C1193.21,-429.6 1363.68,-414.12 1508,-396 1512.6,-395.42 1517.37,-394.78 1522.15,-394.11"/>
<polygon fill="midnightblue" stroke="midnightblue" points="1105.21,-433.64 1095.54,-437.98 1105.8,-440.61 1105.21,-433.64"/>
</g>
<!-- Node3 -->
<g id="node3" class="node">
<title>Node3</title>
<g id="a_node3"><a xlink:href="../../df/d52/abstract__receive__protocol__simulator_8h.html" target="_top" xlink:title=" ">
<polygon fill="white" stroke="black" points="748.5,-232.5 748.5,-266.5 965.5,-266.5 965.5,-232.5 748.5,-232.5"/>
<text text-anchor="start" x="756.5" y="-252.9" font-family="Helvetica,sans-Serif" font-size="12.00">include/abstract_receive_protocol</text>
<text text-anchor="middle" x="857" y="-239.9" font-family="Helvetica,sans-Serif" font-size="12.00">_simulator.h</text>
</a>
</g>
</g>
<!-- Node2&#45;&gt;Node3 -->
<g id="edge2" class="edge">
<title>Node2&#45;&gt;Node3</title>
<path fill="none" stroke="midnightblue" d="M781.16,-298.07C797.33,-287.93 816.31,-276.02 831.24,-266.66"/>
<polygon fill="midnightblue" stroke="midnightblue" points="779.12,-295.22 772.51,-303.5 782.84,-301.15 779.12,-295.22"/>
</g>
<!-- Node16 -->
<g id="node16" class="node">
<title>Node16</title>
<g id="a_node16"><a xlink:href="../../d9/d95/abstract__send__protocol__simulator_8h.html" target="_top" xlink:title=" ">
<polygon fill="white" stroke="black" points="456,-239 456,-260 730,-260 730,-239 456,-239"/>
<text text-anchor="middle" x="593" y="-246.4" font-family="Helvetica,sans-Serif" font-size="12.00">include/abstract_send_protocol_simulator.h</text>
</a>
</g>
</g>
<!-- Node2&#45;&gt;Node16 -->
<g id="edge17" class="edge">
<title>Node2&#45;&gt;Node16</title>
<path fill="none" stroke="midnightblue" d="M701.79,-299.25C672.91,-286.3 636.78,-270.12 614.29,-260.04"/>
<polygon fill="midnightblue" stroke="midnightblue" points="700.73,-302.6 711.28,-303.5 703.59,-296.21 700.73,-302.6"/>
</g>
<!-- Node22 -->
<g id="node22" class="node">
<title>Node22</title>
<g id="a_node22"><a xlink:href="../../de/de3/corruptions__stake__protocol__simulator_8cc.html" target="_top" xlink:title=" ">
<polygon fill="white" stroke="black" points="124.5,-239 124.5,-260 399.5,-260 399.5,-239 124.5,-239"/>
<text text-anchor="middle" x="262" y="-246.4" font-family="Helvetica,sans-Serif" font-size="12.00">src/corruptions_stake_protocol_simulator.cc</text>
</a>
</g>
</g>
<!-- Node2&#45;&gt;Node22 -->
<g id="edge27" class="edge">
<title>Node2&#45;&gt;Node22</title>
<path fill="none" stroke="midnightblue" d="M625.3,-302.19C531.48,-288.84 405.25,-270.88 328.96,-260.03"/>
<polygon fill="midnightblue" stroke="midnightblue" points="625.03,-305.68 635.43,-303.63 626.02,-298.75 625.03,-305.68"/>
</g>
<!-- Node4 -->
<g id="node4" class="node">
<title>Node4</title>
<g id="a_node4"><a xlink:href="../../da/dd8/receiver__protocol__simulator_8h.html" target="_top" xlink:title=" ">
<polygon fill="white" stroke="black" points="838.5,-174.5 838.5,-195.5 1077.5,-195.5 1077.5,-174.5 838.5,-174.5"/>
<text text-anchor="middle" x="958" y="-181.9" font-family="Helvetica,sans-Serif" font-size="12.00">include/receiver_protocol_simulator.h</text>
</a>
</g>
</g>
<!-- Node3&#45;&gt;Node4 -->
<g id="edge3" class="edge">
<title>Node3&#45;&gt;Node4</title>
<path fill="none" stroke="midnightblue" d="M891.74,-227C909,-216.32 928.99,-203.95 942.46,-195.62"/>
<polygon fill="midnightblue" stroke="midnightblue" points="889.67,-224.17 883.01,-232.4 893.36,-230.12 889.67,-224.17"/>
</g>
<!-- Node15 -->
<g id="node15" class="node">
<title>Node15</title>
<g id="a_node15"><a xlink:href="../../de/d4e/abstract__receive__protocol__simulator_8cc.html" target="_top" xlink:title=" ">
<polygon fill="white" stroke="black" points="512.5,-174.5 512.5,-195.5 781.5,-195.5 781.5,-174.5 512.5,-174.5"/>
<text text-anchor="middle" x="647" y="-181.9" font-family="Helvetica,sans-Serif" font-size="12.00">src/abstract_receive_protocol_simulator.cc</text>
</a>
</g>
</g>
<!-- Node3&#45;&gt;Node15 -->
<g id="edge16" class="edge">
<title>Node3&#45;&gt;Node15</title>
<path fill="none" stroke="midnightblue" d="M793.3,-229.54C755.55,-218.31 709.35,-204.56 679.09,-195.55"/>
<polygon fill="midnightblue" stroke="midnightblue" points="792.61,-232.99 803.19,-232.49 794.61,-226.28 792.61,-232.99"/>
</g>
<!-- Node5 -->
<g id="node5" class="node">
<title>Node5</title>
<g id="a_node5"><a xlink:href="../../dc/da4/hybrid__k__out__protocol__simulator_8h.html" target="_top" xlink:title=" ">
<polygon fill="white" stroke="black" points="270,-116.5 270,-137.5 536,-137.5 536,-116.5 270,-116.5"/>
<text text-anchor="middle" x="403" y="-123.9" font-family="Helvetica,sans-Serif" font-size="12.00">include/hybrid_k_out_protocol_simulator.h</text>
</a>
</g>
</g>
<!-- Node4&#45;&gt;Node5 -->
<g id="edge4" class="edge">
<title>Node4&#45;&gt;Node5</title>
<path fill="none" stroke="midnightblue" d="M853.48,-173.45C751.06,-163.12 596.33,-147.51 497.5,-137.53"/>
<polygon fill="midnightblue" stroke="midnightblue" points="853.24,-176.95 863.54,-174.47 853.94,-169.98 853.24,-176.95"/>
</g>
<!-- Node4&#45;&gt;Node7 -->
<g id="edge15" class="edge">
<title>Node4&#45;&gt;Node7</title>
<path fill="none" stroke="midnightblue" d="M885.2,-172.33C840.63,-162.09 796.46,-144.33 821,-116 825.25,-111.1 990.83,-89.15 1081.71,-77.43"/>
<polygon fill="midnightblue" stroke="midnightblue" points="884.47,-175.75 894.99,-174.46 885.96,-168.91 884.47,-175.75"/>
</g>
<!-- Node12 -->
<g id="node12" class="node">
<title>Node12</title>
<g id="a_node12"><a xlink:href="../../de/dc2/hybrid__protocol__simulator_8h.html" target="_top" xlink:title=" ">
<polygon fill="white" stroke="black" points="830.5,-116.5 830.5,-137.5 1057.5,-137.5 1057.5,-116.5 830.5,-116.5"/>
<text text-anchor="middle" x="944" y="-123.9" font-family="Helvetica,sans-Serif" font-size="12.00">include/hybrid_protocol_simulator.h</text>
</a>
</g>
</g>
<!-- Node4&#45;&gt;Node12 -->
<g id="edge11" class="edge">
<title>Node4&#45;&gt;Node12</title>
<path fill="none" stroke="midnightblue" d="M953.11,-164.45C950.85,-155.38 948.25,-145 946.41,-137.64"/>
<polygon fill="midnightblue" stroke="midnightblue" points="949.74,-165.39 955.56,-174.25 956.53,-163.7 949.74,-165.39"/>
</g>
<!-- Node14 -->
<g id="node14" class="node">
<title>Node14</title>
<g id="a_node14"><a xlink:href="../../d8/db4/receiver__protocol__simulator_8cc.html" target="_top" xlink:title=" ">
<polygon fill="white" stroke="black" points="554.5,-116.5 554.5,-137.5 773.5,-137.5 773.5,-116.5 554.5,-116.5"/>
<text text-anchor="middle" x="664" y="-123.9" font-family="Helvetica,sans-Serif" font-size="12.00">src/receiver_protocol_simulator.cc</text>
</a>
</g>
</g>
<!-- Node4&#45;&gt;Node14 -->
<g id="edge14" class="edge">
<title>Node4&#45;&gt;Node14</title>
<path fill="none" stroke="midnightblue" d="M897.97,-172.57C843.75,-162.24 764.87,-147.21 714,-137.52"/>
<polygon fill="midnightblue" stroke="midnightblue" points="897.32,-176 907.79,-174.44 898.63,-169.13 897.32,-176"/>
</g>
<!-- Node6 -->
<g id="node6" class="node">
<title>Node6</title>
<g id="a_node6"><a xlink:href="../../da/d60/hybrid__k__out__protocol__simulator_8cc.html" target="_top" xlink:title=" ">
<polygon fill="white" stroke="black" points="280,-58.5 280,-79.5 526,-79.5 526,-58.5 280,-58.5"/>
<text text-anchor="middle" x="403" y="-65.9" font-family="Helvetica,sans-Serif" font-size="12.00">src/hybrid_k_out_protocol_simulator.cc</text>
</a>
</g>
</g>
<!-- Node5&#45;&gt;Node6 -->
<g id="edge5" class="edge">
<title>Node5&#45;&gt;Node6</title>
<path fill="none" stroke="midnightblue" d="M403,-106.16C403,-97.16 403,-86.92 403,-79.64"/>
<polygon fill="midnightblue" stroke="midnightblue" points="399.5,-106.25 403,-116.25 406.5,-106.25 399.5,-106.25"/>
</g>
<!-- Node5&#45;&gt;Node7 -->
<g id="edge6" class="edge">
<title>Node5&#45;&gt;Node7</title>
<path fill="none" stroke="midnightblue" d="M546.31,-115.91C774.27,-100.03 833.24,-101.33 1057,-80 1065.09,-79.23 1073.61,-78.32 1081.99,-77.36"/>
<polygon fill="midnightblue" stroke="midnightblue" points="545.76,-112.44 536.03,-116.63 546.25,-119.42 545.76,-112.44"/>
</g>
<!-- Node8 -->
<g id="node8" class="node">
<title>Node8</title>
<g id="a_node8"><a xlink:href="../../d5/d37/benchmark_8cc.html" target="_top" xlink:title=" ">
<polygon fill="white" stroke="black" points="1298,-0.5 1298,-21.5 1400,-21.5 1400,-0.5 1298,-0.5"/>
<text text-anchor="middle" x="1349" y="-7.9" font-family="Helvetica,sans-Serif" font-size="12.00">benchmark.cc</text>
</a>
</g>
</g>
<!-- Node7&#45;&gt;Node8 -->
<g id="edge7" class="edge">
<title>Node7&#45;&gt;Node8</title>
<path fill="none" stroke="midnightblue" d="M1185.83,-55.72C1224.26,-45.42 1278.35,-30.93 1313.54,-21.5"/>
<polygon fill="midnightblue" stroke="midnightblue" points="1184.68,-52.4 1175.93,-58.37 1186.49,-59.17 1184.68,-52.4"/>
</g>
<!-- Node9 -->
<g id="node9" class="node">
<title>Node9</title>
<g id="a_node9"><a xlink:href="../../dd/d96/hybrid__main_8cc.html" target="_top" xlink:title=" ">
<polygon fill="white" stroke="black" points="969.5,-0.5 969.5,-21.5 1076.5,-21.5 1076.5,-0.5 969.5,-0.5"/>
<text text-anchor="middle" x="1023" y="-7.9" font-family="Helvetica,sans-Serif" font-size="12.00">hybrid_main.cc</text>
</a>
</g>
</g>
<!-- Node7&#45;&gt;Node9 -->
<g id="edge8" class="edge">
<title>Node7&#45;&gt;Node9</title>
<path fill="none" stroke="midnightblue" d="M1110.7,-53.97C1089.51,-43.83 1061.46,-30.41 1042.85,-21.5"/>
<polygon fill="midnightblue" stroke="midnightblue" points="1109.36,-57.21 1119.89,-58.37 1112.38,-50.9 1109.36,-57.21"/>
</g>
<!-- Node10 -->
<g id="node10" class="node">
<title>Node10</title>
<g id="a_node10"><a xlink:href="../../d9/d0f/main_8cc.html" target="_top" xlink:title=" ">
<polygon fill="white" stroke="black" points="1443,-0.5 1443,-21.5 1507,-21.5 1507,-0.5 1443,-0.5"/>
<text text-anchor="middle" x="1475" y="-7.9" font-family="Helvetica,sans-Serif" font-size="12.00">main.cc</text>
</a>
</g>
</g>
<!-- Node7&#45;&gt;Node10 -->
<g id="edge9" class="edge">
<title>Node7&#45;&gt;Node10</title>
<path fill="none" stroke="midnightblue" d="M1207.47,-56.72C1278.98,-44.77 1388.87,-26.4 1442.84,-17.38"/>
<polygon fill="midnightblue" stroke="midnightblue" points="1206.49,-53.34 1197.21,-58.44 1207.65,-60.24 1206.49,-53.34"/>
</g>
<!-- Node11 -->
<g id="node11" class="node">
<title>Node11</title>
<g id="a_node11"><a xlink:href="../../df/d31/main__utils_8cc.html" target="_top" xlink:title=" ">
<polygon fill="white" stroke="black" points="1095,-0.5 1095,-21.5 1217,-21.5 1217,-0.5 1095,-0.5"/>
<text text-anchor="middle" x="1156" y="-7.9" font-family="Helvetica,sans-Serif" font-size="12.00">utils/main_utils.cc</text>
</a>
</g>
</g>
<!-- Node7&#45;&gt;Node11 -->
<g id="edge10" class="edge">
<title>Node7&#45;&gt;Node11</title>
<path fill="none" stroke="midnightblue" d="M1145.58,-48.45C1148.18,-39.38 1151.14,-29 1153.24,-21.64"/>
<polygon fill="midnightblue" stroke="midnightblue" points="1142.17,-47.67 1142.79,-58.25 1148.9,-49.59 1142.17,-47.67"/>
</g>
<!-- Node12&#45;&gt;Node7 -->
<g id="edge13" class="edge">
<title>Node12&#45;&gt;Node7</title>
<path fill="none" stroke="midnightblue" d="M987.44,-113.59C1023.45,-103.3 1073.89,-88.89 1106.75,-79.5"/>
<polygon fill="midnightblue" stroke="midnightblue" points="986.35,-110.26 977.69,-116.37 988.27,-116.99 986.35,-110.26"/>
</g>
<!-- Node13 -->
<g id="node13" class="node">
<title>Node13</title>
<g id="a_node13"><a xlink:href="../../df/dcd/hybrid__protocol__simulator_8cc.html" target="_top" xlink:title=" ">
<polygon fill="white" stroke="black" points="840,-58.5 840,-79.5 1048,-79.5 1048,-58.5 840,-58.5"/>
<text text-anchor="middle" x="944" y="-65.9" font-family="Helvetica,sans-Serif" font-size="12.00">src/hybrid_protocol_simulator.cc</text>
</a>
</g>
</g>
<!-- Node12&#45;&gt;Node13 -->
<g id="edge12" class="edge">
<title>Node12&#45;&gt;Node13</title>
<path fill="none" stroke="midnightblue" d="M944,-106.16C944,-97.16 944,-86.92 944,-79.64"/>
<polygon fill="midnightblue" stroke="midnightblue" points="940.5,-106.25 944,-116.25 947.5,-106.25 940.5,-106.25"/>
</g>
<!-- Node16&#45;&gt;Node17 -->
<g id="edge18" class="edge">
<title>Node16&#45;&gt;Node17</title>
<path fill="none" stroke="midnightblue" d="M509.45,-237.67C417.73,-225.77 271.9,-206.86 184.41,-195.52"/>
<polygon fill="midnightblue" stroke="midnightblue" points="509.17,-241.16 519.53,-238.97 510.07,-234.22 509.17,-241.16"/>
</g>
<!-- Node19 -->
<g id="node19" class="node">
<title>Node19</title>
<g id="a_node19"><a xlink:href="../../d5/d9b/send__protocol__simulator_8h.html" target="_top" xlink:title=" ">
<polygon fill="white" stroke="black" points="1096,-174.5 1096,-195.5 1314,-195.5 1314,-174.5 1096,-174.5"/>
<text text-anchor="middle" x="1205" y="-181.9" font-family="Helvetica,sans-Serif" font-size="12.00">include/send_protocol_simulator.h</text>
</a>
</g>
</g>
<!-- Node16&#45;&gt;Node19 -->
<g id="edge22" class="edge">
<title>Node16&#45;&gt;Node19</title>
<path fill="none" stroke="midnightblue" d="M685.89,-237.8C703.52,-235.83 721.82,-233.82 739,-232 864.91,-218.67 1010.11,-204.53 1104.51,-195.51"/>
<polygon fill="midnightblue" stroke="midnightblue" points="685.14,-234.36 675.59,-238.96 685.92,-241.32 685.14,-234.36"/>
</g>
<!-- Node21 -->
<g id="node21" class="node">
<title>Node21</title>
<g id="a_node21"><a xlink:href="../../db/d9d/abstract__send__protocol__simulator_8cc.html" target="_top" xlink:title=" ">
<polygon fill="white" stroke="black" points="240,-174.5 240,-195.5 494,-195.5 494,-174.5 240,-174.5"/>
<text text-anchor="middle" x="367" y="-181.9" font-family="Helvetica,sans-Serif" font-size="12.00">src/abstract_send_protocol_simulator.cc</text>
</a>
</g>
</g>
<!-- Node16&#45;&gt;Node21 -->
<g id="edge26" class="edge">
<title>Node16&#45;&gt;Node21</title>
<path fill="none" stroke="midnightblue" d="M548.52,-236.2C505.38,-224.27 440.86,-206.43 401.49,-195.54"/>
<polygon fill="midnightblue" stroke="midnightblue" points="547.61,-239.58 558.18,-238.87 549.48,-232.83 547.61,-239.58"/>
</g>
<!-- Node17&#45;&gt;Node5 -->
<g id="edge19" class="edge">
<title>Node17&#45;&gt;Node5</title>
<path fill="none" stroke="midnightblue" d="M170.96,-172.5C224.8,-162.17 302.92,-147.19 353.34,-137.52"/>
<polygon fill="midnightblue" stroke="midnightblue" points="170.03,-169.12 160.86,-174.44 171.35,-175.99 170.03,-169.12"/>
</g>
<!-- Node17&#45;&gt;Node7 -->
<g id="edge21" class="edge">
<title>Node17&#45;&gt;Node7</title>
<path fill="none" stroke="midnightblue" d="M145.76,-170.57C167.62,-161.85 196.26,-149.93 221,-138 239.27,-129.18 241.47,-121.49 261,-116 431.46,-68.08 880.53,-94.6 1057,-80 1064.96,-79.34 1073.32,-78.5 1081.56,-77.6"/>
<polygon fill="midnightblue" stroke="midnightblue" points="144.25,-167.4 136.24,-174.34 146.82,-173.91 144.25,-167.4"/>
</g>
<!-- Node18 -->
<g id="node18" class="node">
<title>Node18</title>
<g id="a_node18"><a xlink:href="../../dd/d36/k__out__protocol__simulator_8cc.html" target="_top" xlink:title=" ">
<polygon fill="white" stroke="black" points="9.5,-116.5 9.5,-137.5 212.5,-137.5 212.5,-116.5 9.5,-116.5"/>
<text text-anchor="middle" x="111" y="-123.9" font-family="Helvetica,sans-Serif" font-size="12.00">src/k_out_protocol_simulator.cc</text>
</a>
</g>
</g>
<!-- Node17&#45;&gt;Node18 -->
<g id="edge20" class="edge">
<title>Node17&#45;&gt;Node18</title>
<path fill="none" stroke="midnightblue" d="M111,-164.16C111,-155.16 111,-144.92 111,-137.64"/>
<polygon fill="midnightblue" stroke="midnightblue" points="107.5,-164.25 111,-174.25 114.5,-164.25 107.5,-164.25"/>
</g>
<!-- Node19&#45;&gt;Node7 -->
<g id="edge25" class="edge">
<title>Node19&#45;&gt;Node7</title>
<path fill="none" stroke="midnightblue" d="M1149.99,-171.02C1132.94,-164.13 1116.02,-153.71 1106,-138 1093.36,-118.19 1114.74,-93.06 1128.93,-79.58"/>
<polygon fill="midnightblue" stroke="midnightblue" points="1148.83,-174.32 1159.43,-174.49 1151.25,-167.75 1148.83,-174.32"/>
</g>
<!-- Node19&#45;&gt;Node12 -->
<g id="edge23" class="edge">
<title>Node19&#45;&gt;Node12</title>
<path fill="none" stroke="midnightblue" d="M1150.5,-172.31C1102.41,-161.99 1033.18,-147.13 988.39,-137.52"/>
<polygon fill="midnightblue" stroke="midnightblue" points="1149.92,-175.76 1160.43,-174.44 1151.39,-168.92 1149.92,-175.76"/>
</g>
<!-- Node20 -->
<g id="node20" class="node">
<title>Node20</title>
<g id="a_node20"><a xlink:href="../../d9/d76/send__protocol__simulator_8cc.html" target="_top" xlink:title=" ">
<polygon fill="white" stroke="black" points="1114.5,-116.5 1114.5,-137.5 1313.5,-137.5 1313.5,-116.5 1114.5,-116.5"/>
<text text-anchor="middle" x="1214" y="-123.9" font-family="Helvetica,sans-Serif" font-size="12.00">src/send_protocol_simulator.cc</text>
</a>
</g>
</g>
<!-- Node19&#45;&gt;Node20 -->
<g id="edge24" class="edge">
<title>Node19&#45;&gt;Node20</title>
<path fill="none" stroke="midnightblue" d="M1208.19,-164.16C1209.64,-155.16 1211.28,-144.92 1212.45,-137.64"/>
<polygon fill="midnightblue" stroke="midnightblue" points="1204.7,-163.82 1206.57,-174.25 1211.61,-164.93 1204.7,-163.82"/>
</g>
<!-- Node23&#45;&gt;Node2 -->
<g id="edge30" class="edge">
<title>Node23&#45;&gt;Node2</title>
<path fill="none" stroke="midnightblue" d="M916.53,-371.48C883.47,-361.73 837.35,-348.14 801.56,-337.59"/>
<polygon fill="midnightblue" stroke="midnightblue" points="915.76,-374.9 926.34,-374.37 917.74,-368.19 915.76,-374.9"/>
</g>
<!-- Node24 -->
<g id="node24" class="node">
<title>Node24</title>
<g id="a_node24"><a xlink:href="../../d5/d6a/protocol__simulator_8cc.html" target="_top" xlink:title=" ">
<polygon fill="white" stroke="black" points="877,-310 877,-331 1041,-331 1041,-310 877,-310"/>
<text text-anchor="middle" x="959" y="-317.4" font-family="Helvetica,sans-Serif" font-size="12.00">src/protocol_simulator.cc</text>
</a>
</g>
</g>
<!-- Node23&#45;&gt;Node24 -->
<g id="edge31" class="edge">
<title>Node23&#45;&gt;Node24</title>
<path fill="none" stroke="midnightblue" d="M959,-363.93C959,-353.06 959,-340.11 959,-331.4"/>
<polygon fill="midnightblue" stroke="midnightblue" points="955.5,-364.23 959,-374.23 962.5,-364.23 955.5,-364.23"/>
</g>
<!-- Node25&#45;&gt;Node17 -->
<g id="edge33" class="edge">
<title>Node25&#45;&gt;Node17</title>
<path fill="none" stroke="midnightblue" d="M299.54,-372.28C239.41,-358.31 156.75,-328.59 115,-267 100.23,-245.21 104.9,-212.03 108.5,-195.73"/>
<polygon fill="midnightblue" stroke="midnightblue" points="298.84,-375.71 309.36,-374.47 300.36,-368.87 298.84,-375.71"/>
</g>
<!-- Node26 -->
<g id="node26" class="node">
<title>Node26</title>
<g id="a_node26"><a xlink:href="../../dd/d27/random__sampler_8cc.html" target="_top" xlink:title=" ">
<polygon fill="white" stroke="black" points="293.5,-310 293.5,-331 448.5,-331 448.5,-310 293.5,-310"/>
<text text-anchor="middle" x="371" y="-317.4" font-family="Helvetica,sans-Serif" font-size="12.00">src/random_sampler.cc</text>
</a>
</g>
</g>
<!-- Node25&#45;&gt;Node26 -->
<g id="edge34" class="edge">
<title>Node25&#45;&gt;Node26</title>
<path fill="none" stroke="midnightblue" d="M371,-363.93C371,-353.06 371,-340.11 371,-331.4"/>
<polygon fill="midnightblue" stroke="midnightblue" points="367.5,-364.23 371,-374.23 374.5,-364.23 367.5,-364.23"/>
</g>
<!-- Node27&#45;&gt;Node3 -->
<g id="edge37" class="edge">
<title>Node27&#45;&gt;Node3</title>
<path fill="none" stroke="midnightblue" d="M1086.68,-307.51C1040.97,-296.16 972.05,-279.06 921.63,-266.54"/>
<polygon fill="midnightblue" stroke="midnightblue" points="1086.09,-310.97 1096.64,-309.98 1087.77,-304.17 1086.09,-310.97"/>
</g>
<!-- Node27&#45;&gt;Node4 -->
<g id="edge41" class="edge">
<title>Node27&#45;&gt;Node4</title>
<path fill="none" stroke="midnightblue" d="M1149.58,-301.64C1163.25,-282.6 1179.35,-252.42 1163,-232 1148.55,-213.95 1098.16,-202.5 1050.95,-195.54"/>
<polygon fill="midnightblue" stroke="midnightblue" points="1146.66,-299.69 1143.4,-309.77 1152.24,-303.92 1146.66,-299.69"/>
</g>
<!-- Node27&#45;&gt;Node5 -->
<g id="edge39" class="edge">
<title>Node27&#45;&gt;Node5</title>
<path fill="none" stroke="midnightblue" d="M1096.05,-306.59C1071.23,-297.45 1038.96,-283.84 1013,-267 993.74,-254.51 995.22,-242.88 975,-232 916.53,-200.53 891.83,-220.2 830,-196 811.11,-188.6 809.32,-180.2 790,-174 742.41,-158.72 620.84,-145.76 526.54,-137.53"/>
<polygon fill="midnightblue" stroke="midnightblue" points="1094.92,-309.9 1105.51,-309.99 1097.29,-303.31 1094.92,-309.9"/>
</g>
<!-- Node27&#45;&gt;Node7 -->
<g id="edge45" class="edge">
<title>Node27&#45;&gt;Node7</title>
<path fill="none" stroke="midnightblue" d="M1174.82,-306.41C1220.09,-289.14 1291.73,-253.95 1323,-196 1339.88,-164.71 1344.86,-144.04 1323,-116 1307.64,-96.3 1245.64,-83.75 1198.02,-76.82"/>
<polygon fill="midnightblue" stroke="midnightblue" points="1173.48,-303.18 1165.31,-309.93 1175.9,-309.75 1173.48,-303.18"/>
</g>
<!-- Node27&#45;&gt;Node8 -->
<g id="edge36" class="edge">
<title>Node27&#45;&gt;Node8</title>
<path fill="none" stroke="midnightblue" d="M1221.01,-308.27C1291.61,-293.65 1380,-260.48 1380,-186 1380,-186 1380,-186 1380,-126 1380,-86 1362.01,-40.8 1353.44,-21.52"/>
<polygon fill="midnightblue" stroke="midnightblue" points="1220.31,-304.84 1211.18,-310.21 1221.67,-311.71 1220.31,-304.84"/>
</g>
<!-- Node27&#45;&gt;Node10 -->
<g id="edge43" class="edge">
<title>Node27&#45;&gt;Node10</title>
<path fill="none" stroke="midnightblue" d="M1216.81,-308.42C1272.46,-299.44 1339.86,-285.29 1362,-267 1444.13,-199.15 1468.55,-59.59 1473.8,-21.68"/>
<polygon fill="midnightblue" stroke="midnightblue" points="1216.26,-304.96 1206.93,-309.98 1217.35,-311.87 1216.26,-304.96"/>
</g>
<!-- Node27&#45;&gt;Node16 -->
<g id="edge38" class="edge">
<title>Node27&#45;&gt;Node16</title>
<path fill="none" stroke="midnightblue" d="M1079.25,-308.04C1069.52,-306.22 1059.48,-304.46 1050,-303 1031.87,-300.2 804.32,-274.37 677.32,-260.02"/>
<polygon fill="midnightblue" stroke="midnightblue" points="1078.76,-311.51 1089.24,-309.94 1080.07,-304.63 1078.76,-311.51"/>
</g>
<!-- Node27&#45;&gt;Node17 -->
<g id="edge40" class="edge">
<title>Node27&#45;&gt;Node17</title>
<path fill="none" stroke="midnightblue" d="M1082,-308.09C1071.44,-306.14 1060.4,-304.31 1050,-303 916.82,-286.17 570.88,-318.72 447,-267 425.51,-258.03 429.05,-241.97 408,-232 374.11,-215.94 284.63,-203.41 212.68,-195.51"/>
<polygon fill="midnightblue" stroke="midnightblue" points="1081.46,-311.55 1091.94,-310 1082.77,-304.68 1081.46,-311.55"/>
</g>
<!-- Node27&#45;&gt;Node19 -->
<g id="edge42" class="edge">
<title>Node27&#45;&gt;Node19</title>
<path fill="none" stroke="midnightblue" d="M1160.64,-304.13C1173.47,-295.02 1187.95,-282.26 1196,-267 1208.28,-243.72 1207.47,-211.51 1206.1,-195.64"/>
<polygon fill="midnightblue" stroke="midnightblue" points="1158.47,-301.37 1152.12,-309.85 1162.37,-307.18 1158.47,-301.37"/>
</g>
<!-- Node28 -->
<g id="node28" class="node">
<title>Node28</title>
<g id="a_node28"><a xlink:href="../../dc/dda/random__utils_8cc.html" target="_top" xlink:title=" ">
<polygon fill="white" stroke="black" points="1022,-239 1022,-260 1154,-260 1154,-239 1022,-239"/>
<text text-anchor="middle" x="1088" y="-246.4" font-family="Helvetica,sans-Serif" font-size="12.00">src/random_utils.cc</text>
</a>
</g>
</g>
<!-- Node27&#45;&gt;Node28 -->
<g id="edge44" class="edge">
<title>Node27&#45;&gt;Node28</title>
<path fill="none" stroke="midnightblue" d="M1122.76,-301.53C1113.71,-288.25 1101.75,-270.69 1094.48,-260.01"/>
<polygon fill="midnightblue" stroke="midnightblue" points="1119.94,-303.61 1128.46,-309.91 1125.73,-299.67 1119.94,-303.61"/>
</g>
<!-- Node29&#45;&gt;Node7 -->
<g id="edge48" class="edge">
<title>Node29&#45;&gt;Node7</title>
<path fill="none" stroke="midnightblue" d="M1318.51,-364.09C1319.87,-346.55 1324.15,-321.05 1337,-303 1354.38,-278.6 1379.54,-293.24 1394,-267 1421.76,-216.64 1369.23,-137.63 1343,-116 1321.19,-98.01 1250.18,-84.82 1198.27,-77.29"/>
<polygon fill="midnightblue" stroke="midnightblue" points="1315.01,-364.14 1317.98,-374.31 1322,-364.51 1315.01,-364.14"/>
</g>
<!-- Node30 -->
<g id="node30" class="node">
<title>Node30</title>
<g id="a_node30"><a xlink:href="../../d7/d0c/read__args_8cc.html" target="_top" xlink:title=" ">
<polygon fill="white" stroke="black" points="1346,-310 1346,-331 1466,-331 1466,-310 1346,-310"/>
<text text-anchor="middle" x="1406" y="-317.4" font-family="Helvetica,sans-Serif" font-size="12.00">utils/read_args.cc</text>
</a>
</g>
</g>
<!-- Node29&#45;&gt;Node30 -->
<g id="edge49" class="edge">
<title>Node29&#45;&gt;Node30</title>
<path fill="none" stroke="midnightblue" d="M1340.22,-368.22C1356.63,-356.56 1378.43,-341.08 1392.35,-331.2"/>
<polygon fill="midnightblue" stroke="midnightblue" points="1337.88,-365.59 1331.75,-374.23 1341.93,-371.3 1337.88,-365.59"/>
</g>
</g>
</svg>
        <g id="navigator" transform="translate(0 0)" fill="#404254">
                <rect fill="#f2f5e9" fill-opacity="0.5" stroke="#606060" stroke-width=".5" x="0" y="0" width="60" height="60"/>
                <use id="zoomplus" xlink:href="#zoomPlus" x="17" y="9" onmousedown="handleZoom(evt,'in')"/>
                <use id="zoomminus" xlink:href="#zoomMin" x="42" y="9" onmousedown="handleZoom(evt,'out')"/>
                <use id="reset" xlink:href="#resetDef" x="30" y="36" onmousedown="handleReset()"/>
                <g id="arrowUp" xlink:href="#dirArrow" transform="translate(30 24)" onmousedown="handlePan(0,-1)">
                  <use xlink:href="#rim" fill="#404040">
                        <set attributeName="fill" to="#808080" begin="arrowUp.mouseover" end="arrowUp.mouseout"/>
                  </use>
                  <path fill="none" stroke="white" stroke-width="1.5" d="M0,-3.0v7 M-2.5,-0.5L0,-3.0L2.5,-0.5"/>
                </g>
                <g id="arrowRight" xlink:href="#dirArrow" transform="rotate(90) translate(36 -43)" onmousedown="handlePan(1,0)">
                  <use xlink:href="#rim" fill="#404040">
                        <set attributeName="fill" to="#808080" begin="arrowRight.mouseover" end="arrowRight.mouseout"/>
                  </use>
                  <path fill="none" stroke="white" stroke-width="1.5" d="M0,-3.0v7 M-2.5,-0.5L0,-3.0L2.5,-0.5"/>
                </g>
                <g id="arrowDown" xlink:href="#dirArrow" transform="rotate(180) translate(-30 -48)" onmousedown="handlePan(0,1)">
                  <use xlink:href="#rim" fill="#404040">
                        <set attributeName="fill" to="#808080" begin="arrowDown.mouseover" end="arrowDown.mouseout"/>
                  </use>
                  <path fill="none" stroke="white" stroke-width="1.5" d="M0,-3.0v7 M-2.5,-0.5L0,-3.0L2.5,-0.5"/>
                </g>
                <g id="arrowLeft" xlink:href="#dirArrow" transform="rotate(270) translate(-36 17)" onmousedown="handlePan(-1,0)">
                  <use xlink:href="#rim" fill="#404040">
                        <set attributeName="fill" to="#808080" begin="arrowLeft.mouseover" end="arrowLeft.mouseout"/>
                  </use>
                  <path fill="none" stroke="white" stroke-width="1.5" d="M0,-3.0v7 M-2.5,-0.5L0,-3.0L2.5,-0.5"/>
                </g>
        </g>
        <svg viewBox="0 0 15 15" width="100%" height="30px" preserveAspectRatio="xMaxYMin meet">
         <g id="arrow_out" transform="scale(0.3 0.3)">
          <a xlink:href="yal__log_8h__dep__incl_org.svg" target="_base">
           <rect id="button" ry="5" rx="5" y="6" x="6" height="38" width="38"
                fill="#f2f5e9" fill-opacity="0.5" stroke="#606060" stroke-width="1.0"/>
           <path id="arrow"
             d="M 11.500037,31.436501 C 11.940474,20.09759 22.043105,11.32322 32.158766,21.979434 L 37.068811,17.246167 C 37.068811,17.246167 37.088388,32 37.088388,32 L 22.160133,31.978069 C 22.160133,31.978069 26.997745,27.140456 26.997745,27.140456 C 18.528582,18.264221 13.291696,25.230495 11.500037,31.436501 z"
             style="fill:#404040;"/>
          </a>
         </g>
        </svg>
</svg>
