<?xml version="1.0" encoding="UTF-8" standalone="no"?>
<!DOCTYPE svg PUBLIC "-//W3C//DTD SVG 1.1//EN"
 "http://www.w3.org/Graphics/SVG/1.1/DTD/svg11.dtd">
<!-- Generated by graphviz version 5.0.0 (0)
 -->
<!-- Title: stake_distribution_generator::sample_uniform_stake Pages: 1 -->
<svg width="677pt" height="110pt"
 viewBox="0.00 0.00 677.00 110.00" xmlns="http://www.w3.org/2000/svg" xmlns:xlink="http://www.w3.org/1999/xlink">
<g id="graph0" class="graph" transform="scale(1 1) rotate(0) translate(4 106)">
<title>stake_distribution_generator::sample_uniform_stake</title>
<polygon fill="white" stroke="transparent" points="-4,4 -4,-106 673,-106 673,4 -4,4"/>
<!-- Node1 -->
<g id="node1" class="node">
<title>Node1</title>
<g id="a_node1"><a xlink:title="Generates a stake distribution with the given number of parties, where the stake of each party is pic...">
<polygon fill="#bfbfbf" stroke="black" points="431,-34 431,-68 669,-68 669,-34 431,-34"/>
<text text-anchor="start" x="439" y="-54.4" font-family="Helvetica,sans-Serif" font-size="12.00">stake_distribution_generator::sample</text>
<text text-anchor="middle" x="550" y="-41.4" font-family="Helvetica,sans-Serif" font-size="12.00">_uniform_stake</text>
</a>
</g>
</g>
<!-- Node2 -->
<g id="node2" class="node">
<title>Node2</title>
<g id="a_node2"><a xlink:href="../../df/d31/main__utils_8cc.html#a3201d4e5bc0eff5d7dd5c0993b5aaa34" target="_top" xlink:title=" ">
<polygon fill="white" stroke="black" points="213,-40.5 213,-61.5 395,-61.5 395,-40.5 213,-40.5"/>
<text text-anchor="middle" x="304" y="-47.9" font-family="Helvetica,sans-Serif" font-size="12.00">generate_stake_distribution</text>
</a>
</g>
</g>
<!-- Node1&#45;&gt;Node2 -->
<g id="edge1" class="edge">
<title>Node1&#45;&gt;Node2</title>
<path fill="none" stroke="midnightblue" d="M420.77,-51C412.12,-51 403.51,-51 395.12,-51"/>
<polygon fill="midnightblue" stroke="midnightblue" points="420.93,-54.5 430.93,-51 420.93,-47.5 420.93,-54.5"/>
</g>
<!-- Node3 -->
<g id="node3" class="node">
<title>Node3</title>
<g id="a_node3"><a xlink:href="../../d5/d37/benchmark_8cc.html#aabb608c334e3f2d2f3b3d5520b56903c" target="_top" xlink:title="Runs a series of tests for plotting results.">
<polygon fill="white" stroke="black" points="110.5,-80.5 110.5,-101.5 149.5,-101.5 149.5,-80.5 110.5,-80.5"/>
<text text-anchor="middle" x="130" y="-87.9" font-family="Helvetica,sans-Serif" font-size="12.00">plot</text>
</a>
</g>
</g>
<!-- Node2&#45;&gt;Node3 -->
<g id="edge2" class="edge">
<title>Node2&#45;&gt;Node3</title>
<path fill="none" stroke="midnightblue" d="M248.05,-63.78C214.28,-71.63 173.13,-81.2 149.71,-86.65"/>
<polygon fill="midnightblue" stroke="midnightblue" points="248.86,-67.18 257.81,-61.51 247.28,-60.37 248.86,-67.18"/>
</g>
<!-- Node4 -->
<g id="node4" class="node">
<title>Node4</title>
<g id="a_node4"><a xlink:href="../../d5/d37/benchmark_8cc.html#a36f3d599aaf7504a3874d775ed51dcd2" target="_top" xlink:title=" ">
<polygon fill="white" stroke="black" points="83,-40.5 83,-61.5 177,-61.5 177,-40.5 83,-40.5"/>
<text text-anchor="middle" x="130" y="-47.9" font-family="Helvetica,sans-Serif" font-size="12.00">plot_graph_6</text>
</a>
</g>
</g>
<!-- Node2&#45;&gt;Node4 -->
<g id="edge3" class="edge">
<title>Node2&#45;&gt;Node4</title>
<path fill="none" stroke="midnightblue" d="M202.88,-51C194,-51 185.33,-51 177.26,-51"/>
<polygon fill="midnightblue" stroke="midnightblue" points="202.97,-54.5 212.97,-51 202.97,-47.5 202.97,-54.5"/>
</g>
<!-- Node6 -->
<g id="node6" class="node">
<title>Node6</title>
<g id="a_node6"><a xlink:href="../../df/d31/main__utils_8cc.html#ad944ce1f7580051626a657c82264ac05" target="_top" xlink:title="Runs tests for a fixed set of parameters.">
<polygon fill="white" stroke="black" points="94.5,-0.5 94.5,-21.5 165.5,-21.5 165.5,-0.5 94.5,-0.5"/>
<text text-anchor="middle" x="130" y="-7.9" font-family="Helvetica,sans-Serif" font-size="12.00">run_tests</text>
</a>
</g>
</g>
<!-- Node2&#45;&gt;Node6 -->
<g id="edge5" class="edge">
<title>Node2&#45;&gt;Node6</title>
<path fill="none" stroke="midnightblue" d="M247.72,-38.14C220.73,-31.87 189.09,-24.51 165.57,-19.04"/>
<polygon fill="midnightblue" stroke="midnightblue" points="247.28,-41.63 257.81,-40.49 248.86,-34.82 247.28,-41.63"/>
</g>
<!-- Node5 -->
<g id="node5" class="node">
<title>Node5</title>
<g id="a_node5"><a xlink:href="../../d5/d37/benchmark_8cc.html#a3c04138a5bfe5d72780bb7e82a18e627" target="_top" xlink:title=" ">
<polygon fill="white" stroke="black" points="0,-40.5 0,-61.5 47,-61.5 47,-40.5 0,-40.5"/>
<text text-anchor="middle" x="23.5" y="-47.9" font-family="Helvetica,sans-Serif" font-size="12.00">main</text>
</a>
</g>
</g>
<!-- Node4&#45;&gt;Node5 -->
<g id="edge4" class="edge">
<title>Node4&#45;&gt;Node5</title>
<path fill="none" stroke="midnightblue" d="M72.68,-51C63.67,-51 54.82,-51 47.22,-51"/>
<polygon fill="midnightblue" stroke="midnightblue" points="72.86,-54.5 82.86,-51 72.86,-47.5 72.86,-54.5"/>
</g>
</g>
</svg>
