<?xml version="1.0" encoding="UTF-8" standalone="no"?>
<!DOCTYPE svg PUBLIC "-//W3C//DTD SVG 1.1//EN"
 "http://www.w3.org/Graphics/SVG/1.1/DTD/svg11.dtd">
<!-- Generated by graphviz version 5.0.0 (0)
 -->
<!-- Title: include/receiver_protocol_simulator.h Pages: 1 -->
<svg width="823pt" height="204pt"
 viewBox="0.00 0.00 822.50 204.00" xmlns="http://www.w3.org/2000/svg" xmlns:xlink="http://www.w3.org/1999/xlink">
<g id="graph0" class="graph" transform="scale(1 1) rotate(0) translate(4 200)">
<title>include/receiver_protocol_simulator.h</title>
<polygon fill="white" stroke="transparent" points="-4,4 -4,-200 818.5,-200 818.5,4 -4,4"/>
<!-- Node1 -->
<g id="node1" class="node">
<title>Node1</title>
<g id="a_node1"><a xlink:title=" ">
<polygon fill="#bfbfbf" stroke="black" points="273.5,-174.5 273.5,-195.5 512.5,-195.5 512.5,-174.5 273.5,-174.5"/>
<text text-anchor="middle" x="393" y="-181.9" font-family="Helvetica,sans-Serif" font-size="12.00">include/receiver_protocol_simulator.h</text>
</a>
</g>
</g>
<!-- Node2 -->
<g id="node2" class="node">
<title>Node2</title>
<g id="a_node2"><a xlink:href="../../dc/da4/hybrid__k__out__protocol__simulator_8h.html" target="_top" xlink:title=" ">
<polygon fill="white" stroke="black" points="28,-116.5 28,-137.5 294,-137.5 294,-116.5 28,-116.5"/>
<text text-anchor="middle" x="161" y="-123.9" font-family="Helvetica,sans-Serif" font-size="12.00">include/hybrid_k_out_protocol_simulator.h</text>
</a>
</g>
</g>
<!-- Node1&#45;&gt;Node2 -->
<g id="edge1" class="edge">
<title>Node1&#45;&gt;Node2</title>
<path fill="none" stroke="midnightblue" d="M343.48,-172.05C300.78,-161.74 239.93,-147.05 200.46,-137.52"/>
<polygon fill="midnightblue" stroke="midnightblue" points="342.84,-175.49 353.38,-174.44 344.48,-168.69 342.84,-175.49"/>
</g>
<!-- Node4 -->
<g id="node4" class="node">
<title>Node4</title>
<g id="a_node4"><a xlink:href="../../d0/d8b/main__utils_8h.html" target="_top" xlink:title=" ">
<polygon fill="white" stroke="black" points="264,-58.5 264,-79.5 380,-79.5 380,-58.5 264,-58.5"/>
<text text-anchor="middle" x="322" y="-65.9" font-family="Helvetica,sans-Serif" font-size="12.00">utils/main_utils.h</text>
</a>
</g>
</g>
<!-- Node1&#45;&gt;Node4 -->
<g id="edge12" class="edge">
<title>Node1&#45;&gt;Node4</title>
<path fill="none" stroke="midnightblue" d="M369.91,-168.33C359.72,-160.34 348.4,-149.81 341,-138 329.42,-119.51 324.76,-93.86 322.99,-79.94"/>
<polygon fill="midnightblue" stroke="midnightblue" points="367.99,-171.26 378.1,-174.42 372.17,-165.64 367.99,-171.26"/>
</g>
<!-- Node9 -->
<g id="node9" class="node">
<title>Node9</title>
<g id="a_node9"><a xlink:href="../../de/dc2/hybrid__protocol__simulator_8h.html" target="_top" xlink:title=" ">
<polygon fill="white" stroke="black" points="350.5,-116.5 350.5,-137.5 577.5,-137.5 577.5,-116.5 350.5,-116.5"/>
<text text-anchor="middle" x="464" y="-123.9" font-family="Helvetica,sans-Serif" font-size="12.00">include/hybrid_protocol_simulator.h</text>
</a>
</g>
</g>
<!-- Node1&#45;&gt;Node9 -->
<g id="edge8" class="edge">
<title>Node1&#45;&gt;Node9</title>
<path fill="none" stroke="midnightblue" d="M413.38,-167.93C425.79,-158.14 441.23,-145.96 451.77,-137.64"/>
<polygon fill="midnightblue" stroke="midnightblue" points="411.05,-165.3 405.37,-174.25 415.39,-170.8 411.05,-165.3"/>
</g>
<!-- Node11 -->
<g id="node11" class="node">
<title>Node11</title>
<g id="a_node11"><a xlink:href="../../d8/db4/receiver__protocol__simulator_8cc.html" target="_top" xlink:title=" ">
<polygon fill="white" stroke="black" points="595.5,-116.5 595.5,-137.5 814.5,-137.5 814.5,-116.5 595.5,-116.5"/>
<text text-anchor="middle" x="705" y="-123.9" font-family="Helvetica,sans-Serif" font-size="12.00">src/receiver_protocol_simulator.cc</text>
</a>
</g>
</g>
<!-- Node1&#45;&gt;Node11 -->
<g id="edge11" class="edge">
<title>Node1&#45;&gt;Node11</title>
<path fill="none" stroke="midnightblue" d="M456.35,-172.63C513.9,-162.3 597.84,-147.23 651.94,-137.52"/>
<polygon fill="midnightblue" stroke="midnightblue" points="455.5,-169.23 446.28,-174.44 456.74,-176.12 455.5,-169.23"/>
</g>
<!-- Node3 -->
<g id="node3" class="node">
<title>Node3</title>
<g id="a_node3"><a xlink:href="../../da/d60/hybrid__k__out__protocol__simulator_8cc.html" target="_top" xlink:title=" ">
<polygon fill="white" stroke="black" points="0,-58.5 0,-79.5 246,-79.5 246,-58.5 0,-58.5"/>
<text text-anchor="middle" x="123" y="-65.9" font-family="Helvetica,sans-Serif" font-size="12.00">src/hybrid_k_out_protocol_simulator.cc</text>
</a>
</g>
</g>
<!-- Node2&#45;&gt;Node3 -->
<g id="edge2" class="edge">
<title>Node2&#45;&gt;Node3</title>
<path fill="none" stroke="midnightblue" d="M148.73,-107.92C142.35,-98.52 134.81,-87.4 129.54,-79.64"/>
<polygon fill="midnightblue" stroke="midnightblue" points="145.87,-109.94 154.38,-116.25 151.66,-106.01 145.87,-109.94"/>
</g>
<!-- Node2&#45;&gt;Node4 -->
<g id="edge3" class="edge">
<title>Node2&#45;&gt;Node4</title>
<path fill="none" stroke="midnightblue" d="M198.21,-113.06C227.68,-102.81 268.15,-88.73 294.68,-79.5"/>
<polygon fill="midnightblue" stroke="midnightblue" points="196.97,-109.78 188.68,-116.37 199.27,-116.39 196.97,-109.78"/>
</g>
<!-- Node5 -->
<g id="node5" class="node">
<title>Node5</title>
<g id="a_node5"><a xlink:href="../../d5/d37/benchmark_8cc.html" target="_top" xlink:title=" ">
<polygon fill="white" stroke="black" points="96,-0.5 96,-21.5 198,-21.5 198,-0.5 96,-0.5"/>
<text text-anchor="middle" x="147" y="-7.9" font-family="Helvetica,sans-Serif" font-size="12.00">benchmark.cc</text>
</a>
</g>
</g>
<!-- Node4&#45;&gt;Node5 -->
<g id="edge4" class="edge">
<title>Node4&#45;&gt;Node5</title>
<path fill="none" stroke="midnightblue" d="M282.39,-55.32C250.29,-45.05 205.78,-30.81 176.69,-21.5"/>
<polygon fill="midnightblue" stroke="midnightblue" points="281.33,-58.66 291.92,-58.37 283.46,-51.99 281.33,-58.66"/>
</g>
<!-- Node6 -->
<g id="node6" class="node">
<title>Node6</title>
<g id="a_node6"><a xlink:href="../../dd/d96/hybrid__main_8cc.html" target="_top" xlink:title=" ">
<polygon fill="white" stroke="black" points="216.5,-0.5 216.5,-21.5 323.5,-21.5 323.5,-0.5 216.5,-0.5"/>
<text text-anchor="middle" x="270" y="-7.9" font-family="Helvetica,sans-Serif" font-size="12.00">hybrid_main.cc</text>
</a>
</g>
</g>
<!-- Node4&#45;&gt;Node6 -->
<g id="edge5" class="edge">
<title>Node4&#45;&gt;Node6</title>
<path fill="none" stroke="midnightblue" d="M306.02,-50.79C297.12,-41.21 286.38,-29.64 278.95,-21.64"/>
<polygon fill="midnightblue" stroke="midnightblue" points="303.57,-53.3 312.94,-58.25 308.7,-48.54 303.57,-53.3"/>
</g>
<!-- Node7 -->
<g id="node7" class="node">
<title>Node7</title>
<g id="a_node7"><a xlink:href="../../d9/d0f/main_8cc.html" target="_top" xlink:title=" ">
<polygon fill="white" stroke="black" points="342,-0.5 342,-21.5 406,-21.5 406,-0.5 342,-0.5"/>
<text text-anchor="middle" x="374" y="-7.9" font-family="Helvetica,sans-Serif" font-size="12.00">main.cc</text>
</a>
</g>
</g>
<!-- Node4&#45;&gt;Node7 -->
<g id="edge6" class="edge">
<title>Node4&#45;&gt;Node7</title>
<path fill="none" stroke="midnightblue" d="M337.98,-50.79C346.88,-41.21 357.62,-29.64 365.05,-21.64"/>
<polygon fill="midnightblue" stroke="midnightblue" points="335.3,-48.54 331.06,-58.25 340.43,-53.3 335.3,-48.54"/>
</g>
<!-- Node8 -->
<g id="node8" class="node">
<title>Node8</title>
<g id="a_node8"><a xlink:href="../../df/d31/main__utils_8cc.html" target="_top" xlink:title=" ">
<polygon fill="white" stroke="black" points="424,-0.5 424,-21.5 546,-21.5 546,-0.5 424,-0.5"/>
<text text-anchor="middle" x="485" y="-7.9" font-family="Helvetica,sans-Serif" font-size="12.00">utils/main_utils.cc</text>
</a>
</g>
</g>
<!-- Node4&#45;&gt;Node8 -->
<g id="edge7" class="edge">
<title>Node4&#45;&gt;Node8</title>
<path fill="none" stroke="midnightblue" d="M359.67,-55.06C389.5,-44.81 430.49,-30.73 457.34,-21.5"/>
<polygon fill="midnightblue" stroke="midnightblue" points="358.34,-51.81 350.02,-58.37 360.62,-58.43 358.34,-51.81"/>
</g>
<!-- Node9&#45;&gt;Node4 -->
<g id="edge10" class="edge">
<title>Node9&#45;&gt;Node4</title>
<path fill="none" stroke="midnightblue" d="M430.16,-112.65C404.26,-102.44 369.19,-88.61 346.09,-79.5"/>
<polygon fill="midnightblue" stroke="midnightblue" points="429,-115.96 439.59,-116.37 431.57,-109.45 429,-115.96"/>
</g>
<!-- Node10 -->
<g id="node10" class="node">
<title>Node10</title>
<g id="a_node10"><a xlink:href="../../df/dcd/hybrid__protocol__simulator_8cc.html" target="_top" xlink:title=" ">
<polygon fill="white" stroke="black" points="398,-58.5 398,-79.5 606,-79.5 606,-58.5 398,-58.5"/>
<text text-anchor="middle" x="502" y="-65.9" font-family="Helvetica,sans-Serif" font-size="12.00">src/hybrid_protocol_simulator.cc</text>
</a>
</g>
</g>
<!-- Node9&#45;&gt;Node10 -->
<g id="edge9" class="edge">
<title>Node9&#45;&gt;Node10</title>
<path fill="none" stroke="midnightblue" d="M476.27,-107.92C482.65,-98.52 490.19,-87.4 495.46,-79.64"/>
<polygon fill="midnightblue" stroke="midnightblue" points="473.34,-106.01 470.62,-116.25 479.13,-109.94 473.34,-106.01"/>
</g>
</g>
</svg>
