<?xml version="1.0" encoding="UTF-8" standalone="no"?>
<!DOCTYPE svg PUBLIC "-//W3C//DTD SVG 1.1//EN"
 "http://www.w3.org/Graphics/SVG/1.1/DTD/svg11.dtd">
<!-- Generated by graphviz version 5.0.0 (0)
 -->
<!-- Title: include/send_protocol_simulator.h Pages: 1 -->
<svg width="520pt" height="204pt"
 viewBox="0.00 0.00 519.50 204.00" xmlns="http://www.w3.org/2000/svg" xmlns:xlink="http://www.w3.org/1999/xlink">
<g id="graph0" class="graph" transform="scale(1 1) rotate(0) translate(4 200)">
<title>include/send_protocol_simulator.h</title>
<polygon fill="white" stroke="transparent" points="-4,4 -4,-200 515.5,-200 515.5,4 -4,4"/>
<!-- Node1 -->
<g id="node1" class="node">
<title>Node1</title>
<g id="a_node1"><a xlink:title=" ">
<polygon fill="#bfbfbf" stroke="black" points="175,-174.5 175,-195.5 393,-195.5 393,-174.5 175,-174.5"/>
<text text-anchor="middle" x="284" y="-181.9" font-family="Helvetica,sans-Serif" font-size="12.00">include/send_protocol_simulator.h</text>
</a>
</g>
</g>
<!-- Node2 -->
<g id="node2" class="node">
<title>Node2</title>
<g id="a_node2"><a xlink:href="../../de/dc2/hybrid__protocol__simulator_8h.html" target="_top" xlink:title=" ">
<polygon fill="white" stroke="black" points="28.5,-116.5 28.5,-137.5 255.5,-137.5 255.5,-116.5 28.5,-116.5"/>
<text text-anchor="middle" x="142" y="-123.9" font-family="Helvetica,sans-Serif" font-size="12.00">include/hybrid_protocol_simulator.h</text>
</a>
</g>
</g>
<!-- Node1&#45;&gt;Node2 -->
<g id="edge1" class="edge">
<title>Node1&#45;&gt;Node2</title>
<path fill="none" stroke="midnightblue" d="M250.16,-170.65C224.26,-160.44 189.19,-146.61 166.09,-137.5"/>
<polygon fill="midnightblue" stroke="midnightblue" points="249,-173.96 259.59,-174.37 251.57,-167.45 249,-173.96"/>
</g>
<!-- Node4 -->
<g id="node4" class="node">
<title>Node4</title>
<g id="a_node4"><a xlink:href="../../d0/d8b/main__utils_8h.html" target="_top" xlink:title=" ">
<polygon fill="white" stroke="black" points="226,-58.5 226,-79.5 342,-79.5 342,-58.5 226,-58.5"/>
<text text-anchor="middle" x="284" y="-65.9" font-family="Helvetica,sans-Serif" font-size="12.00">utils/main_utils.h</text>
</a>
</g>
</g>
<!-- Node1&#45;&gt;Node4 -->
<g id="edge9" class="edge">
<title>Node1&#45;&gt;Node4</title>
<path fill="none" stroke="midnightblue" d="M284,-164.25C284,-139.58 284,-98.35 284,-79.69"/>
<polygon fill="midnightblue" stroke="midnightblue" points="280.5,-164.28 284,-174.28 287.5,-164.28 280.5,-164.28"/>
</g>
<!-- Node9 -->
<g id="node9" class="node">
<title>Node9</title>
<g id="a_node9"><a xlink:href="../../d9/d76/send__protocol__simulator_8cc.html" target="_top" xlink:title=" ">
<polygon fill="white" stroke="black" points="312.5,-116.5 312.5,-137.5 511.5,-137.5 511.5,-116.5 312.5,-116.5"/>
<text text-anchor="middle" x="412" y="-123.9" font-family="Helvetica,sans-Serif" font-size="12.00">src/send_protocol_simulator.cc</text>
</a>
</g>
</g>
<!-- Node1&#45;&gt;Node9 -->
<g id="edge8" class="edge">
<title>Node1&#45;&gt;Node9</title>
<path fill="none" stroke="midnightblue" d="M315.43,-170.25C338.68,-160.08 369.74,-146.49 390.28,-137.5"/>
<polygon fill="midnightblue" stroke="midnightblue" points="313.76,-167.16 306,-174.37 316.57,-173.57 313.76,-167.16"/>
</g>
<!-- Node3 -->
<g id="node3" class="node">
<title>Node3</title>
<g id="a_node3"><a xlink:href="../../df/dcd/hybrid__protocol__simulator_8cc.html" target="_top" xlink:title=" ">
<polygon fill="white" stroke="black" points="0,-58.5 0,-79.5 208,-79.5 208,-58.5 0,-58.5"/>
<text text-anchor="middle" x="104" y="-65.9" font-family="Helvetica,sans-Serif" font-size="12.00">src/hybrid_protocol_simulator.cc</text>
</a>
</g>
</g>
<!-- Node2&#45;&gt;Node3 -->
<g id="edge2" class="edge">
<title>Node2&#45;&gt;Node3</title>
<path fill="none" stroke="midnightblue" d="M129.73,-107.92C123.35,-98.52 115.81,-87.4 110.54,-79.64"/>
<polygon fill="midnightblue" stroke="midnightblue" points="126.87,-109.94 135.38,-116.25 132.66,-106.01 126.87,-109.94"/>
</g>
<!-- Node2&#45;&gt;Node4 -->
<g id="edge3" class="edge">
<title>Node2&#45;&gt;Node4</title>
<path fill="none" stroke="midnightblue" d="M175.84,-112.65C201.74,-102.44 236.81,-88.61 259.91,-79.5"/>
<polygon fill="midnightblue" stroke="midnightblue" points="174.43,-109.45 166.41,-116.37 177,-115.96 174.43,-109.45"/>
</g>
<!-- Node5 -->
<g id="node5" class="node">
<title>Node5</title>
<g id="a_node5"><a xlink:href="../../d5/d37/benchmark_8cc.html" target="_top" xlink:title=" ">
<polygon fill="white" stroke="black" points="58,-0.5 58,-21.5 160,-21.5 160,-0.5 58,-0.5"/>
<text text-anchor="middle" x="109" y="-7.9" font-family="Helvetica,sans-Serif" font-size="12.00">benchmark.cc</text>
</a>
</g>
</g>
<!-- Node4&#45;&gt;Node5 -->
<g id="edge4" class="edge">
<title>Node4&#45;&gt;Node5</title>
<path fill="none" stroke="midnightblue" d="M244.39,-55.32C212.29,-45.05 167.78,-30.81 138.69,-21.5"/>
<polygon fill="midnightblue" stroke="midnightblue" points="243.33,-58.66 253.92,-58.37 245.46,-51.99 243.33,-58.66"/>
</g>
<!-- Node6 -->
<g id="node6" class="node">
<title>Node6</title>
<g id="a_node6"><a xlink:href="../../dd/d96/hybrid__main_8cc.html" target="_top" xlink:title=" ">
<polygon fill="white" stroke="black" points="178.5,-0.5 178.5,-21.5 285.5,-21.5 285.5,-0.5 178.5,-0.5"/>
<text text-anchor="middle" x="232" y="-7.9" font-family="Helvetica,sans-Serif" font-size="12.00">hybrid_main.cc</text>
</a>
</g>
</g>
<!-- Node4&#45;&gt;Node6 -->
<g id="edge5" class="edge">
<title>Node4&#45;&gt;Node6</title>
<path fill="none" stroke="midnightblue" d="M268.02,-50.79C259.12,-41.21 248.38,-29.64 240.95,-21.64"/>
<polygon fill="midnightblue" stroke="midnightblue" points="265.57,-53.3 274.94,-58.25 270.7,-48.54 265.57,-53.3"/>
</g>
<!-- Node7 -->
<g id="node7" class="node">
<title>Node7</title>
<g id="a_node7"><a xlink:href="../../d9/d0f/main_8cc.html" target="_top" xlink:title=" ">
<polygon fill="white" stroke="black" points="304,-0.5 304,-21.5 368,-21.5 368,-0.5 304,-0.5"/>
<text text-anchor="middle" x="336" y="-7.9" font-family="Helvetica,sans-Serif" font-size="12.00">main.cc</text>
</a>
</g>
</g>
<!-- Node4&#45;&gt;Node7 -->
<g id="edge6" class="edge">
<title>Node4&#45;&gt;Node7</title>
<path fill="none" stroke="midnightblue" d="M299.98,-50.79C308.88,-41.21 319.62,-29.64 327.05,-21.64"/>
<polygon fill="midnightblue" stroke="midnightblue" points="297.3,-48.54 293.06,-58.25 302.43,-53.3 297.3,-48.54"/>
</g>
<!-- Node8 -->
<g id="node8" class="node">
<title>Node8</title>
<g id="a_node8"><a xlink:href="../../df/d31/main__utils_8cc.html" target="_top" xlink:title=" ">
<polygon fill="white" stroke="black" points="386,-0.5 386,-21.5 508,-21.5 508,-0.5 386,-0.5"/>
<text text-anchor="middle" x="447" y="-7.9" font-family="Helvetica,sans-Serif" font-size="12.00">utils/main_utils.cc</text>
</a>
</g>
</g>
<!-- Node4&#45;&gt;Node8 -->
<g id="edge7" class="edge">
<title>Node4&#45;&gt;Node8</title>
<path fill="none" stroke="midnightblue" d="M321.67,-55.06C351.5,-44.81 392.49,-30.73 419.34,-21.5"/>
<polygon fill="midnightblue" stroke="midnightblue" points="320.34,-51.81 312.02,-58.37 322.62,-58.43 320.34,-51.81"/>
</g>
</g>
</svg>
